%TF.GenerationSoftware,KiCad,Pcbnew,(5.1.6)-1*%
%TF.CreationDate,2020-07-07T17:24:47-04:00*%
%TF.ProjectId,GalvoDriver,47616c76-6f44-4726-9976-65722e6b6963,rev?*%
%TF.SameCoordinates,Original*%
%TF.FileFunction,Legend,Top*%
%TF.FilePolarity,Positive*%
%FSLAX46Y46*%
G04 Gerber Fmt 4.6, Leading zero omitted, Abs format (unit mm)*
G04 Created by KiCad (PCBNEW (5.1.6)-1) date 2020-07-07 17:24:47*
%MOMM*%
%LPD*%
G01*
G04 APERTURE LIST*
%ADD10C,0.150000*%
%ADD11C,0.200000*%
%ADD12C,0.010000*%
%ADD13C,0.120000*%
G04 APERTURE END LIST*
D10*
X47000000Y-60240595D02*
X46952380Y-60335833D01*
X46952380Y-60478690D01*
X47000000Y-60621547D01*
X47095238Y-60716785D01*
X47190476Y-60764404D01*
X47380952Y-60812023D01*
X47523809Y-60812023D01*
X47714285Y-60764404D01*
X47809523Y-60716785D01*
X47904761Y-60621547D01*
X47952380Y-60478690D01*
X47952380Y-60383452D01*
X47904761Y-60240595D01*
X47857142Y-60192976D01*
X47523809Y-60192976D01*
X47523809Y-60383452D01*
X47666666Y-59812023D02*
X47666666Y-59335833D01*
X47952380Y-59907261D02*
X46952380Y-59573928D01*
X47952380Y-59240595D01*
X47952380Y-58431071D02*
X47952380Y-58907261D01*
X46952380Y-58907261D01*
X47571428Y-58097738D02*
X47571428Y-57335833D01*
X48285714Y-56621547D02*
X46857142Y-56621547D01*
X47000000Y-55383452D02*
X46952380Y-55478690D01*
X46952380Y-55621547D01*
X47000000Y-55764404D01*
X47095238Y-55859642D01*
X47190476Y-55907261D01*
X47380952Y-55954880D01*
X47523809Y-55954880D01*
X47714285Y-55907261D01*
X47809523Y-55859642D01*
X47904761Y-55764404D01*
X47952380Y-55621547D01*
X47952380Y-55526309D01*
X47904761Y-55383452D01*
X47857142Y-55335833D01*
X47523809Y-55335833D01*
X47523809Y-55526309D01*
X47952380Y-54907261D02*
X46952380Y-54907261D01*
X47952380Y-54335833D01*
X46952380Y-54335833D01*
X47952380Y-53859642D02*
X46952380Y-53859642D01*
X46952380Y-53621547D01*
X47000000Y-53478690D01*
X47095238Y-53383452D01*
X47190476Y-53335833D01*
X47380952Y-53288214D01*
X47523809Y-53288214D01*
X47714285Y-53335833D01*
X47809523Y-53383452D01*
X47904761Y-53478690D01*
X47952380Y-53621547D01*
X47952380Y-53859642D01*
X48285714Y-52621547D02*
X46857142Y-52621547D01*
X47000000Y-51383452D02*
X46952380Y-51478690D01*
X46952380Y-51621547D01*
X47000000Y-51764404D01*
X47095238Y-51859642D01*
X47190476Y-51907261D01*
X47380952Y-51954880D01*
X47523809Y-51954880D01*
X47714285Y-51907261D01*
X47809523Y-51859642D01*
X47904761Y-51764404D01*
X47952380Y-51621547D01*
X47952380Y-51526309D01*
X47904761Y-51383452D01*
X47857142Y-51335833D01*
X47523809Y-51335833D01*
X47523809Y-51526309D01*
X47666666Y-50954880D02*
X47666666Y-50478690D01*
X47952380Y-51050119D02*
X46952380Y-50716785D01*
X47952380Y-50383452D01*
X47952380Y-49573928D02*
X47952380Y-50050119D01*
X46952380Y-50050119D01*
X47571428Y-49240595D02*
X47571428Y-48478690D01*
X47952380Y-48859642D02*
X47190476Y-48859642D01*
D11*
X39487142Y-89642857D02*
X38915714Y-89642857D01*
X38915714Y-88442857D01*
X39830000Y-89300000D02*
X40401428Y-89300000D01*
X39715714Y-89642857D02*
X40115714Y-88442857D01*
X40515714Y-89642857D01*
X40858571Y-89585714D02*
X41030000Y-89642857D01*
X41315714Y-89642857D01*
X41430000Y-89585714D01*
X41487142Y-89528571D01*
X41544285Y-89414285D01*
X41544285Y-89300000D01*
X41487142Y-89185714D01*
X41430000Y-89128571D01*
X41315714Y-89071428D01*
X41087142Y-89014285D01*
X40972857Y-88957142D01*
X40915714Y-88900000D01*
X40858571Y-88785714D01*
X40858571Y-88671428D01*
X40915714Y-88557142D01*
X40972857Y-88500000D01*
X41087142Y-88442857D01*
X41372857Y-88442857D01*
X41544285Y-88500000D01*
X42058571Y-89014285D02*
X42458571Y-89014285D01*
X42630000Y-89642857D02*
X42058571Y-89642857D01*
X42058571Y-88442857D01*
X42630000Y-88442857D01*
X43830000Y-89642857D02*
X43430000Y-89071428D01*
X43144285Y-89642857D02*
X43144285Y-88442857D01*
X43601428Y-88442857D01*
X43715714Y-88500000D01*
X43772857Y-88557142D01*
X43830000Y-88671428D01*
X43830000Y-88842857D01*
X43772857Y-88957142D01*
X43715714Y-89014285D01*
X43601428Y-89071428D01*
X43144285Y-89071428D01*
D10*
X42785714Y-38614285D02*
X42957142Y-38671428D01*
X43014285Y-38728571D01*
X43071428Y-38842857D01*
X43071428Y-39014285D01*
X43014285Y-39128571D01*
X42957142Y-39185714D01*
X42842857Y-39242857D01*
X42385714Y-39242857D01*
X42385714Y-38042857D01*
X42785714Y-38042857D01*
X42900000Y-38100000D01*
X42957142Y-38157142D01*
X43014285Y-38271428D01*
X43014285Y-38385714D01*
X42957142Y-38500000D01*
X42900000Y-38557142D01*
X42785714Y-38614285D01*
X42385714Y-38614285D01*
X43471428Y-38442857D02*
X43757142Y-39242857D01*
X44042857Y-38442857D02*
X43757142Y-39242857D01*
X43642857Y-39528571D01*
X43585714Y-39585714D01*
X43471428Y-39642857D01*
X45414285Y-39242857D02*
X45414285Y-38042857D01*
X45814285Y-38900000D01*
X46214285Y-38042857D01*
X46214285Y-39242857D01*
X47300000Y-39242857D02*
X47300000Y-38614285D01*
X47242857Y-38500000D01*
X47128571Y-38442857D01*
X46900000Y-38442857D01*
X46785714Y-38500000D01*
X47300000Y-39185714D02*
X47185714Y-39242857D01*
X46900000Y-39242857D01*
X46785714Y-39185714D01*
X46728571Y-39071428D01*
X46728571Y-38957142D01*
X46785714Y-38842857D01*
X46900000Y-38785714D01*
X47185714Y-38785714D01*
X47300000Y-38728571D01*
X47871428Y-38442857D02*
X47871428Y-39242857D01*
X47871428Y-38557142D02*
X47928571Y-38500000D01*
X48042857Y-38442857D01*
X48214285Y-38442857D01*
X48328571Y-38500000D01*
X48385714Y-38614285D01*
X48385714Y-39242857D01*
X48957142Y-39242857D02*
X48957142Y-38442857D01*
X48957142Y-38042857D02*
X48900000Y-38100000D01*
X48957142Y-38157142D01*
X49014285Y-38100000D01*
X48957142Y-38042857D01*
X48957142Y-38157142D01*
X50042857Y-39242857D02*
X50042857Y-38614285D01*
X49985714Y-38500000D01*
X49871428Y-38442857D01*
X49642857Y-38442857D01*
X49528571Y-38500000D01*
X50042857Y-39185714D02*
X49928571Y-39242857D01*
X49642857Y-39242857D01*
X49528571Y-39185714D01*
X49471428Y-39071428D01*
X49471428Y-38957142D01*
X49528571Y-38842857D01*
X49642857Y-38785714D01*
X49928571Y-38785714D01*
X50042857Y-38728571D01*
X51128571Y-39185714D02*
X51014285Y-39242857D01*
X50785714Y-39242857D01*
X50671428Y-39185714D01*
X50614285Y-39128571D01*
X50557142Y-39014285D01*
X50557142Y-38671428D01*
X50614285Y-38557142D01*
X50671428Y-38500000D01*
X50785714Y-38442857D01*
X51014285Y-38442857D01*
X51128571Y-38500000D01*
X52157142Y-39242857D02*
X52157142Y-38614285D01*
X52100000Y-38500000D01*
X51985714Y-38442857D01*
X51757142Y-38442857D01*
X51642857Y-38500000D01*
X52157142Y-39185714D02*
X52042857Y-39242857D01*
X51757142Y-39242857D01*
X51642857Y-39185714D01*
X51585714Y-39071428D01*
X51585714Y-38957142D01*
X51642857Y-38842857D01*
X51757142Y-38785714D01*
X52042857Y-38785714D01*
X52157142Y-38728571D01*
X52900000Y-39242857D02*
X52785714Y-39185714D01*
X52728571Y-39071428D01*
X52728571Y-38042857D01*
X54842857Y-39242857D02*
X54271428Y-39242857D01*
X54271428Y-38042857D01*
X55757142Y-39242857D02*
X55757142Y-38614285D01*
X55700000Y-38500000D01*
X55585714Y-38442857D01*
X55357142Y-38442857D01*
X55242857Y-38500000D01*
X55757142Y-39185714D02*
X55642857Y-39242857D01*
X55357142Y-39242857D01*
X55242857Y-39185714D01*
X55185714Y-39071428D01*
X55185714Y-38957142D01*
X55242857Y-38842857D01*
X55357142Y-38785714D01*
X55642857Y-38785714D01*
X55757142Y-38728571D01*
X56328571Y-39242857D02*
X56328571Y-38042857D01*
X56328571Y-38500000D02*
X56442857Y-38442857D01*
X56671428Y-38442857D01*
X56785714Y-38500000D01*
X56842857Y-38557142D01*
X56900000Y-38671428D01*
X56900000Y-39014285D01*
X56842857Y-39128571D01*
X56785714Y-39185714D01*
X56671428Y-39242857D01*
X56442857Y-39242857D01*
X56328571Y-39185714D01*
X57357142Y-39185714D02*
X57471428Y-39242857D01*
X57700000Y-39242857D01*
X57814285Y-39185714D01*
X57871428Y-39071428D01*
X57871428Y-39014285D01*
X57814285Y-38900000D01*
X57700000Y-38842857D01*
X57528571Y-38842857D01*
X57414285Y-38785714D01*
X57357142Y-38671428D01*
X57357142Y-38614285D01*
X57414285Y-38500000D01*
X57528571Y-38442857D01*
X57700000Y-38442857D01*
X57814285Y-38500000D01*
X65311785Y-46752380D02*
X64835595Y-46752380D01*
X64835595Y-45752380D01*
X66073690Y-46752380D02*
X66073690Y-46228571D01*
X66026071Y-46133333D01*
X65930833Y-46085714D01*
X65740357Y-46085714D01*
X65645119Y-46133333D01*
X66073690Y-46704761D02*
X65978452Y-46752380D01*
X65740357Y-46752380D01*
X65645119Y-46704761D01*
X65597500Y-46609523D01*
X65597500Y-46514285D01*
X65645119Y-46419047D01*
X65740357Y-46371428D01*
X65978452Y-46371428D01*
X66073690Y-46323809D01*
X66502261Y-46704761D02*
X66597500Y-46752380D01*
X66787976Y-46752380D01*
X66883214Y-46704761D01*
X66930833Y-46609523D01*
X66930833Y-46561904D01*
X66883214Y-46466666D01*
X66787976Y-46419047D01*
X66645119Y-46419047D01*
X66549880Y-46371428D01*
X66502261Y-46276190D01*
X66502261Y-46228571D01*
X66549880Y-46133333D01*
X66645119Y-46085714D01*
X66787976Y-46085714D01*
X66883214Y-46133333D01*
X67740357Y-46704761D02*
X67645119Y-46752380D01*
X67454642Y-46752380D01*
X67359404Y-46704761D01*
X67311785Y-46609523D01*
X67311785Y-46228571D01*
X67359404Y-46133333D01*
X67454642Y-46085714D01*
X67645119Y-46085714D01*
X67740357Y-46133333D01*
X67787976Y-46228571D01*
X67787976Y-46323809D01*
X67311785Y-46419047D01*
X68216547Y-46752380D02*
X68216547Y-46085714D01*
X68216547Y-46276190D02*
X68264166Y-46180952D01*
X68311785Y-46133333D01*
X68407023Y-46085714D01*
X68502261Y-46085714D01*
X68835595Y-46657142D02*
X68883214Y-46704761D01*
X68835595Y-46752380D01*
X68787976Y-46704761D01*
X68835595Y-46657142D01*
X68835595Y-46752380D01*
X68835595Y-46133333D02*
X68883214Y-46180952D01*
X68835595Y-46228571D01*
X68787976Y-46180952D01*
X68835595Y-46133333D01*
X68835595Y-46228571D01*
X69930833Y-45752380D02*
X70264166Y-46752380D01*
X70597500Y-45752380D01*
X70930833Y-46371428D02*
X71692738Y-46371428D01*
X71311785Y-46752380D02*
X71311785Y-45990476D01*
X72407023Y-47085714D02*
X72407023Y-45657142D01*
X73645119Y-45800000D02*
X73549880Y-45752380D01*
X73407023Y-45752380D01*
X73264166Y-45800000D01*
X73168928Y-45895238D01*
X73121309Y-45990476D01*
X73073690Y-46180952D01*
X73073690Y-46323809D01*
X73121309Y-46514285D01*
X73168928Y-46609523D01*
X73264166Y-46704761D01*
X73407023Y-46752380D01*
X73502261Y-46752380D01*
X73645119Y-46704761D01*
X73692738Y-46657142D01*
X73692738Y-46323809D01*
X73502261Y-46323809D01*
X74121309Y-46752380D02*
X74121309Y-45752380D01*
X74692738Y-46752380D01*
X74692738Y-45752380D01*
X75168928Y-46752380D02*
X75168928Y-45752380D01*
X75407023Y-45752380D01*
X75549880Y-45800000D01*
X75645119Y-45895238D01*
X75692738Y-45990476D01*
X75740357Y-46180952D01*
X75740357Y-46323809D01*
X75692738Y-46514285D01*
X75645119Y-46609523D01*
X75549880Y-46704761D01*
X75407023Y-46752380D01*
X75168928Y-46752380D01*
X76407023Y-47085714D02*
X76407023Y-45657142D01*
X77597500Y-46752380D02*
X77121309Y-46752380D01*
X77121309Y-45752380D01*
X77930833Y-46371428D02*
X78692738Y-46371428D01*
X78311785Y-46752380D02*
X78311785Y-45990476D01*
X79407023Y-47085714D02*
X79407023Y-45657142D01*
X80597500Y-46752380D02*
X80121309Y-46752380D01*
X80121309Y-45752380D01*
X80930833Y-46371428D02*
X81692738Y-46371428D01*
D11*
X80203333Y-80471428D02*
X80203333Y-81042857D01*
X79870000Y-79842857D02*
X80203333Y-80471428D01*
X80536666Y-79842857D01*
X80870000Y-80585714D02*
X81631904Y-80585714D01*
X81250952Y-81042857D02*
X81250952Y-80128571D01*
X79584285Y-81900000D02*
X79489047Y-81842857D01*
X79346190Y-81842857D01*
X79203333Y-81900000D01*
X79108095Y-82014285D01*
X79060476Y-82128571D01*
X79012857Y-82357142D01*
X79012857Y-82528571D01*
X79060476Y-82757142D01*
X79108095Y-82871428D01*
X79203333Y-82985714D01*
X79346190Y-83042857D01*
X79441428Y-83042857D01*
X79584285Y-82985714D01*
X79631904Y-82928571D01*
X79631904Y-82528571D01*
X79441428Y-82528571D01*
X80060476Y-83042857D02*
X80060476Y-81842857D01*
X80631904Y-83042857D01*
X80631904Y-81842857D01*
X81108095Y-83042857D02*
X81108095Y-81842857D01*
X81346190Y-81842857D01*
X81489047Y-81900000D01*
X81584285Y-82014285D01*
X81631904Y-82128571D01*
X81679523Y-82357142D01*
X81679523Y-82528571D01*
X81631904Y-82757142D01*
X81584285Y-82871428D01*
X81489047Y-82985714D01*
X81346190Y-83042857D01*
X81108095Y-83042857D01*
X80203333Y-84471428D02*
X80203333Y-85042857D01*
X79870000Y-83842857D02*
X80203333Y-84471428D01*
X80536666Y-83842857D01*
X80870000Y-84585714D02*
X81631904Y-84585714D01*
X58166666Y-69641428D02*
X58166666Y-69070000D01*
X58452380Y-69755714D02*
X57452380Y-69355714D01*
X58452380Y-68955714D01*
X57452380Y-68555714D02*
X58261904Y-68555714D01*
X58357142Y-68498571D01*
X58404761Y-68441428D01*
X58452380Y-68327142D01*
X58452380Y-68098571D01*
X58404761Y-67984285D01*
X58357142Y-67927142D01*
X58261904Y-67870000D01*
X57452380Y-67870000D01*
X57452380Y-67412857D02*
X58452380Y-66612857D01*
X57452380Y-66612857D02*
X58452380Y-67412857D01*
X58452380Y-65241428D02*
X57452380Y-65241428D01*
X57785714Y-64670000D02*
X58452380Y-64670000D01*
X57880952Y-64670000D02*
X57833333Y-64612857D01*
X57785714Y-64498571D01*
X57785714Y-64327142D01*
X57833333Y-64212857D01*
X57928571Y-64155714D01*
X58452380Y-64155714D01*
X39544285Y-86000000D02*
X39430000Y-85942857D01*
X39258571Y-85942857D01*
X39087142Y-86000000D01*
X38972857Y-86114285D01*
X38915714Y-86228571D01*
X38858571Y-86457142D01*
X38858571Y-86628571D01*
X38915714Y-86857142D01*
X38972857Y-86971428D01*
X39087142Y-87085714D01*
X39258571Y-87142857D01*
X39372857Y-87142857D01*
X39544285Y-87085714D01*
X39601428Y-87028571D01*
X39601428Y-86628571D01*
X39372857Y-86628571D01*
X40115714Y-87142857D02*
X40115714Y-85942857D01*
X40801428Y-87142857D01*
X40801428Y-85942857D01*
X41372857Y-87142857D02*
X41372857Y-85942857D01*
X41658571Y-85942857D01*
X41830000Y-86000000D01*
X41944285Y-86114285D01*
X42001428Y-86228571D01*
X42058571Y-86457142D01*
X42058571Y-86628571D01*
X42001428Y-86857142D01*
X41944285Y-86971428D01*
X41830000Y-87085714D01*
X41658571Y-87142857D01*
X41372857Y-87142857D01*
X39601428Y-84428571D02*
X39544285Y-84485714D01*
X39372857Y-84542857D01*
X39258571Y-84542857D01*
X39087142Y-84485714D01*
X38972857Y-84371428D01*
X38915714Y-84257142D01*
X38858571Y-84028571D01*
X38858571Y-83857142D01*
X38915714Y-83628571D01*
X38972857Y-83514285D01*
X39087142Y-83400000D01*
X39258571Y-83342857D01*
X39372857Y-83342857D01*
X39544285Y-83400000D01*
X39601428Y-83457142D01*
X40058571Y-84485714D02*
X40230000Y-84542857D01*
X40515714Y-84542857D01*
X40630000Y-84485714D01*
X40687142Y-84428571D01*
X40744285Y-84314285D01*
X40744285Y-84200000D01*
X40687142Y-84085714D01*
X40630000Y-84028571D01*
X40515714Y-83971428D01*
X40287142Y-83914285D01*
X40172857Y-83857142D01*
X40115714Y-83800000D01*
X40058571Y-83685714D01*
X40058571Y-83571428D01*
X40115714Y-83457142D01*
X40172857Y-83400000D01*
X40287142Y-83342857D01*
X40572857Y-83342857D01*
X40744285Y-83400000D01*
X38915714Y-82042857D02*
X38915714Y-80842857D01*
X39315714Y-81700000D01*
X39715714Y-80842857D01*
X39715714Y-82042857D01*
X40515714Y-80842857D02*
X40744285Y-80842857D01*
X40858571Y-80900000D01*
X40972857Y-81014285D01*
X41030000Y-81242857D01*
X41030000Y-81642857D01*
X40972857Y-81871428D01*
X40858571Y-81985714D01*
X40744285Y-82042857D01*
X40515714Y-82042857D01*
X40401428Y-81985714D01*
X40287142Y-81871428D01*
X40230000Y-81642857D01*
X40230000Y-81242857D01*
X40287142Y-81014285D01*
X40401428Y-80900000D01*
X40515714Y-80842857D01*
X41487142Y-81985714D02*
X41658571Y-82042857D01*
X41944285Y-82042857D01*
X42058571Y-81985714D01*
X42115714Y-81928571D01*
X42172857Y-81814285D01*
X42172857Y-81700000D01*
X42115714Y-81585714D01*
X42058571Y-81528571D01*
X41944285Y-81471428D01*
X41715714Y-81414285D01*
X41601428Y-81357142D01*
X41544285Y-81300000D01*
X41487142Y-81185714D01*
X41487142Y-81071428D01*
X41544285Y-80957142D01*
X41601428Y-80900000D01*
X41715714Y-80842857D01*
X42001428Y-80842857D01*
X42172857Y-80900000D01*
X42687142Y-82042857D02*
X42687142Y-80842857D01*
X39487142Y-79542857D02*
X38915714Y-79542857D01*
X38915714Y-78342857D01*
X39830000Y-79200000D02*
X40401428Y-79200000D01*
X39715714Y-79542857D02*
X40115714Y-78342857D01*
X40515714Y-79542857D01*
X40744285Y-78342857D02*
X41430000Y-78342857D01*
X41087142Y-79542857D02*
X41087142Y-78342857D01*
X42515714Y-79428571D02*
X42458571Y-79485714D01*
X42287142Y-79542857D01*
X42172857Y-79542857D01*
X42001428Y-79485714D01*
X41887142Y-79371428D01*
X41830000Y-79257142D01*
X41772857Y-79028571D01*
X41772857Y-78857142D01*
X41830000Y-78628571D01*
X41887142Y-78514285D01*
X42001428Y-78400000D01*
X42172857Y-78342857D01*
X42287142Y-78342857D01*
X42458571Y-78400000D01*
X42515714Y-78457142D01*
X43030000Y-79542857D02*
X43030000Y-78342857D01*
X43030000Y-78914285D02*
X43715714Y-78914285D01*
X43715714Y-79542857D02*
X43715714Y-78342857D01*
X39601428Y-76928571D02*
X39544285Y-76985714D01*
X39372857Y-77042857D01*
X39258571Y-77042857D01*
X39087142Y-76985714D01*
X38972857Y-76871428D01*
X38915714Y-76757142D01*
X38858571Y-76528571D01*
X38858571Y-76357142D01*
X38915714Y-76128571D01*
X38972857Y-76014285D01*
X39087142Y-75900000D01*
X39258571Y-75842857D01*
X39372857Y-75842857D01*
X39544285Y-75900000D01*
X39601428Y-75957142D01*
X40687142Y-77042857D02*
X40115714Y-77042857D01*
X40115714Y-75842857D01*
X41087142Y-77042857D02*
X41087142Y-75842857D01*
X41772857Y-77042857D02*
X41258571Y-76357142D01*
X41772857Y-75842857D02*
X41087142Y-76528571D01*
X38772857Y-73342857D02*
X39391904Y-73342857D01*
X39058571Y-73800000D01*
X39201428Y-73800000D01*
X39296666Y-73857142D01*
X39344285Y-73914285D01*
X39391904Y-74028571D01*
X39391904Y-74314285D01*
X39344285Y-74428571D01*
X39296666Y-74485714D01*
X39201428Y-74542857D01*
X38915714Y-74542857D01*
X38820476Y-74485714D01*
X38772857Y-74428571D01*
X39677619Y-73342857D02*
X40010952Y-74542857D01*
X40344285Y-73342857D01*
X40582380Y-73342857D02*
X41201428Y-73342857D01*
X40868095Y-73800000D01*
X41010952Y-73800000D01*
X41106190Y-73857142D01*
X41153809Y-73914285D01*
X41201428Y-74028571D01*
X41201428Y-74314285D01*
X41153809Y-74428571D01*
X41106190Y-74485714D01*
X41010952Y-74542857D01*
X40725238Y-74542857D01*
X40630000Y-74485714D01*
X40582380Y-74428571D01*
X42344285Y-73285714D02*
X41487142Y-74828571D01*
X43153809Y-73342857D02*
X42677619Y-73342857D01*
X42630000Y-73914285D01*
X42677619Y-73857142D01*
X42772857Y-73800000D01*
X43010952Y-73800000D01*
X43106190Y-73857142D01*
X43153809Y-73914285D01*
X43201428Y-74028571D01*
X43201428Y-74314285D01*
X43153809Y-74428571D01*
X43106190Y-74485714D01*
X43010952Y-74542857D01*
X42772857Y-74542857D01*
X42677619Y-74485714D01*
X42630000Y-74428571D01*
X43487142Y-73342857D02*
X43820476Y-74542857D01*
X44153809Y-73342857D01*
X38344285Y-35900000D02*
X38230000Y-35823809D01*
X38058571Y-35823809D01*
X37887142Y-35900000D01*
X37772857Y-36052380D01*
X37715714Y-36204761D01*
X37658571Y-36509523D01*
X37658571Y-36738095D01*
X37715714Y-37042857D01*
X37772857Y-37195238D01*
X37887142Y-37347619D01*
X38058571Y-37423809D01*
X38172857Y-37423809D01*
X38344285Y-37347619D01*
X38401428Y-37271428D01*
X38401428Y-36738095D01*
X38172857Y-36738095D01*
X39430000Y-37423809D02*
X39430000Y-36585714D01*
X39372857Y-36433333D01*
X39258571Y-36357142D01*
X39030000Y-36357142D01*
X38915714Y-36433333D01*
X39430000Y-37347619D02*
X39315714Y-37423809D01*
X39030000Y-37423809D01*
X38915714Y-37347619D01*
X38858571Y-37195238D01*
X38858571Y-37042857D01*
X38915714Y-36890476D01*
X39030000Y-36814285D01*
X39315714Y-36814285D01*
X39430000Y-36738095D01*
X40172857Y-37423809D02*
X40058571Y-37347619D01*
X40001428Y-37195238D01*
X40001428Y-35823809D01*
X40515714Y-36357142D02*
X40801428Y-37423809D01*
X41087142Y-36357142D01*
X42058571Y-37423809D02*
X42058571Y-36585714D01*
X42001428Y-36433333D01*
X41887142Y-36357142D01*
X41658571Y-36357142D01*
X41544285Y-36433333D01*
X42058571Y-37347619D02*
X41944285Y-37423809D01*
X41658571Y-37423809D01*
X41544285Y-37347619D01*
X41487142Y-37195238D01*
X41487142Y-37042857D01*
X41544285Y-36890476D01*
X41658571Y-36814285D01*
X41944285Y-36814285D01*
X42058571Y-36738095D01*
X42630000Y-36357142D02*
X42630000Y-37423809D01*
X42630000Y-36509523D02*
X42687142Y-36433333D01*
X42801428Y-36357142D01*
X42972857Y-36357142D01*
X43087142Y-36433333D01*
X43144285Y-36585714D01*
X43144285Y-37423809D01*
X43887142Y-37423809D02*
X43772857Y-37347619D01*
X43715714Y-37271428D01*
X43658571Y-37119047D01*
X43658571Y-36661904D01*
X43715714Y-36509523D01*
X43772857Y-36433333D01*
X43887142Y-36357142D01*
X44058571Y-36357142D01*
X44172857Y-36433333D01*
X44230000Y-36509523D01*
X44287142Y-36661904D01*
X44287142Y-37119047D01*
X44230000Y-37271428D01*
X44172857Y-37347619D01*
X44058571Y-37423809D01*
X43887142Y-37423809D01*
X44801428Y-37423809D02*
X44801428Y-36357142D01*
X44801428Y-36509523D02*
X44858571Y-36433333D01*
X44972857Y-36357142D01*
X45144285Y-36357142D01*
X45258571Y-36433333D01*
X45315714Y-36585714D01*
X45315714Y-37423809D01*
X45315714Y-36585714D02*
X45372857Y-36433333D01*
X45487142Y-36357142D01*
X45658571Y-36357142D01*
X45772857Y-36433333D01*
X45830000Y-36585714D01*
X45830000Y-37423809D01*
X46858571Y-37347619D02*
X46744285Y-37423809D01*
X46515714Y-37423809D01*
X46401428Y-37347619D01*
X46344285Y-37195238D01*
X46344285Y-36585714D01*
X46401428Y-36433333D01*
X46515714Y-36357142D01*
X46744285Y-36357142D01*
X46858571Y-36433333D01*
X46915714Y-36585714D01*
X46915714Y-36738095D01*
X46344285Y-36890476D01*
X47258571Y-36357142D02*
X47715714Y-36357142D01*
X47430000Y-35823809D02*
X47430000Y-37195238D01*
X47487142Y-37347619D01*
X47601428Y-37423809D01*
X47715714Y-37423809D01*
X48572857Y-37347619D02*
X48458571Y-37423809D01*
X48230000Y-37423809D01*
X48115714Y-37347619D01*
X48058571Y-37195238D01*
X48058571Y-36585714D01*
X48115714Y-36433333D01*
X48230000Y-36357142D01*
X48458571Y-36357142D01*
X48572857Y-36433333D01*
X48630000Y-36585714D01*
X48630000Y-36738095D01*
X48058571Y-36890476D01*
X49144285Y-37423809D02*
X49144285Y-36357142D01*
X49144285Y-36661904D02*
X49201428Y-36509523D01*
X49258571Y-36433333D01*
X49372857Y-36357142D01*
X49487142Y-36357142D01*
X50401428Y-37347619D02*
X50287142Y-37423809D01*
X50058571Y-37423809D01*
X49944285Y-37347619D01*
X49887142Y-37271428D01*
X49830000Y-37119047D01*
X49830000Y-36661904D01*
X49887142Y-36509523D01*
X49944285Y-36433333D01*
X50058571Y-36357142D01*
X50287142Y-36357142D01*
X50401428Y-36433333D01*
X51087142Y-37423809D02*
X50972857Y-37347619D01*
X50915714Y-37271428D01*
X50858571Y-37119047D01*
X50858571Y-36661904D01*
X50915714Y-36509523D01*
X50972857Y-36433333D01*
X51087142Y-36357142D01*
X51258571Y-36357142D01*
X51372857Y-36433333D01*
X51430000Y-36509523D01*
X51487142Y-36661904D01*
X51487142Y-37119047D01*
X51430000Y-37271428D01*
X51372857Y-37347619D01*
X51258571Y-37423809D01*
X51087142Y-37423809D01*
X52001428Y-36357142D02*
X52001428Y-37423809D01*
X52001428Y-36509523D02*
X52058571Y-36433333D01*
X52172857Y-36357142D01*
X52344285Y-36357142D01*
X52458571Y-36433333D01*
X52515714Y-36585714D01*
X52515714Y-37423809D01*
X52915714Y-36357142D02*
X53372857Y-36357142D01*
X53087142Y-35823809D02*
X53087142Y-37195238D01*
X53144285Y-37347619D01*
X53258571Y-37423809D01*
X53372857Y-37423809D01*
X53772857Y-37423809D02*
X53772857Y-36357142D01*
X53772857Y-36661904D02*
X53830000Y-36509523D01*
X53887142Y-36433333D01*
X54001428Y-36357142D01*
X54115714Y-36357142D01*
X54687142Y-37423809D02*
X54572857Y-37347619D01*
X54515714Y-37271428D01*
X54458571Y-37119047D01*
X54458571Y-36661904D01*
X54515714Y-36509523D01*
X54572857Y-36433333D01*
X54687142Y-36357142D01*
X54858571Y-36357142D01*
X54972857Y-36433333D01*
X55030000Y-36509523D01*
X55087142Y-36661904D01*
X55087142Y-37119047D01*
X55030000Y-37271428D01*
X54972857Y-37347619D01*
X54858571Y-37423809D01*
X54687142Y-37423809D01*
X55772857Y-37423809D02*
X55658571Y-37347619D01*
X55601428Y-37195238D01*
X55601428Y-35823809D01*
X56401428Y-37423809D02*
X56287142Y-37347619D01*
X56230000Y-37195238D01*
X56230000Y-35823809D01*
X57315714Y-37347619D02*
X57201428Y-37423809D01*
X56972857Y-37423809D01*
X56858571Y-37347619D01*
X56801428Y-37195238D01*
X56801428Y-36585714D01*
X56858571Y-36433333D01*
X56972857Y-36357142D01*
X57201428Y-36357142D01*
X57315714Y-36433333D01*
X57372857Y-36585714D01*
X57372857Y-36738095D01*
X56801428Y-36890476D01*
X57887142Y-37423809D02*
X57887142Y-36357142D01*
X57887142Y-36661904D02*
X57944285Y-36509523D01*
X58001428Y-36433333D01*
X58115714Y-36357142D01*
X58230000Y-36357142D01*
X59144285Y-37423809D02*
X59144285Y-36585714D01*
X59087142Y-36433333D01*
X58972857Y-36357142D01*
X58744285Y-36357142D01*
X58630000Y-36433333D01*
X59144285Y-37347619D02*
X59030000Y-37423809D01*
X58744285Y-37423809D01*
X58630000Y-37347619D01*
X58572857Y-37195238D01*
X58572857Y-37042857D01*
X58630000Y-36890476D01*
X58744285Y-36814285D01*
X59030000Y-36814285D01*
X59144285Y-36738095D01*
X59544285Y-36357142D02*
X60001428Y-36357142D01*
X59715714Y-35823809D02*
X59715714Y-37195238D01*
X59772857Y-37347619D01*
X59887142Y-37423809D01*
X60001428Y-37423809D01*
X60572857Y-37423809D02*
X60458571Y-37347619D01*
X60401428Y-37271428D01*
X60344285Y-37119047D01*
X60344285Y-36661904D01*
X60401428Y-36509523D01*
X60458571Y-36433333D01*
X60572857Y-36357142D01*
X60744285Y-36357142D01*
X60858571Y-36433333D01*
X60915714Y-36509523D01*
X60972857Y-36661904D01*
X60972857Y-37119047D01*
X60915714Y-37271428D01*
X60858571Y-37347619D01*
X60744285Y-37423809D01*
X60572857Y-37423809D01*
X61487142Y-37423809D02*
X61487142Y-36357142D01*
X61487142Y-36661904D02*
X61544285Y-36509523D01*
X61601428Y-36433333D01*
X61715714Y-36357142D01*
X61830000Y-36357142D01*
X52666666Y-81679523D02*
X52666666Y-81203333D01*
X52952380Y-81774761D02*
X51952380Y-81441428D01*
X52952380Y-81108095D01*
X52285714Y-80346190D02*
X52952380Y-80346190D01*
X52285714Y-80774761D02*
X52809523Y-80774761D01*
X52904761Y-80727142D01*
X52952380Y-80631904D01*
X52952380Y-80489047D01*
X52904761Y-80393809D01*
X52857142Y-80346190D01*
X52952380Y-79965238D02*
X52285714Y-79441428D01*
X52285714Y-79965238D02*
X52952380Y-79441428D01*
X53333333Y-78012857D02*
X53285714Y-78060476D01*
X53142857Y-78155714D01*
X53047619Y-78203333D01*
X52904761Y-78250952D01*
X52666666Y-78298571D01*
X52476190Y-78298571D01*
X52238095Y-78250952D01*
X52095238Y-78203333D01*
X52000000Y-78155714D01*
X51857142Y-78060476D01*
X51809523Y-78012857D01*
X52952380Y-77155714D02*
X52952380Y-77631904D01*
X51952380Y-77631904D01*
X53333333Y-76917619D02*
X53285714Y-76870000D01*
X53142857Y-76774761D01*
X53047619Y-76727142D01*
X52904761Y-76679523D01*
X52666666Y-76631904D01*
X52476190Y-76631904D01*
X52238095Y-76679523D01*
X52095238Y-76727142D01*
X52000000Y-76774761D01*
X51857142Y-76870000D01*
X51809523Y-76917619D01*
X57952380Y-82131904D02*
X56952380Y-82131904D01*
X56952380Y-81893809D01*
X57000000Y-81750952D01*
X57095238Y-81655714D01*
X57190476Y-81608095D01*
X57380952Y-81560476D01*
X57523809Y-81560476D01*
X57714285Y-81608095D01*
X57809523Y-81655714D01*
X57904761Y-81750952D01*
X57952380Y-81893809D01*
X57952380Y-82131904D01*
X57666666Y-81179523D02*
X57666666Y-80703333D01*
X57952380Y-81274761D02*
X56952380Y-80941428D01*
X57952380Y-80608095D01*
X57857142Y-79703333D02*
X57904761Y-79750952D01*
X57952380Y-79893809D01*
X57952380Y-79989047D01*
X57904761Y-80131904D01*
X57809523Y-80227142D01*
X57714285Y-80274761D01*
X57523809Y-80322380D01*
X57380952Y-80322380D01*
X57190476Y-80274761D01*
X57095238Y-80227142D01*
X57000000Y-80131904D01*
X56952380Y-79989047D01*
X56952380Y-79893809D01*
X57000000Y-79750952D01*
X57047619Y-79703333D01*
X58333333Y-78227142D02*
X58285714Y-78274761D01*
X58142857Y-78370000D01*
X58047619Y-78417619D01*
X57904761Y-78465238D01*
X57666666Y-78512857D01*
X57476190Y-78512857D01*
X57238095Y-78465238D01*
X57095238Y-78417619D01*
X57000000Y-78370000D01*
X56857142Y-78274761D01*
X56809523Y-78227142D01*
X57428571Y-77512857D02*
X57476190Y-77370000D01*
X57523809Y-77322380D01*
X57619047Y-77274761D01*
X57761904Y-77274761D01*
X57857142Y-77322380D01*
X57904761Y-77370000D01*
X57952380Y-77465238D01*
X57952380Y-77846190D01*
X56952380Y-77846190D01*
X56952380Y-77512857D01*
X57000000Y-77417619D01*
X57047619Y-77370000D01*
X57142857Y-77322380D01*
X57238095Y-77322380D01*
X57333333Y-77370000D01*
X57380952Y-77417619D01*
X57428571Y-77512857D01*
X57428571Y-77846190D01*
X58333333Y-76941428D02*
X58285714Y-76893809D01*
X58142857Y-76798571D01*
X58047619Y-76750952D01*
X57904761Y-76703333D01*
X57666666Y-76655714D01*
X57476190Y-76655714D01*
X57238095Y-76703333D01*
X57095238Y-76750952D01*
X57000000Y-76798571D01*
X56857142Y-76893809D01*
X56809523Y-76941428D01*
X54971428Y-79355714D02*
X55542857Y-79355714D01*
X54342857Y-79755714D02*
X54971428Y-79355714D01*
X54342857Y-78955714D01*
X55542857Y-77641428D02*
X54342857Y-77641428D01*
X54742857Y-77070000D02*
X55542857Y-77070000D01*
X54857142Y-77070000D02*
X54800000Y-77012857D01*
X54742857Y-76898571D01*
X54742857Y-76727142D01*
X54800000Y-76612857D01*
X54914285Y-76555714D01*
X55542857Y-76555714D01*
X58452380Y-56631904D02*
X57452380Y-56631904D01*
X57452380Y-56393809D01*
X57500000Y-56250952D01*
X57595238Y-56155714D01*
X57690476Y-56108095D01*
X57880952Y-56060476D01*
X58023809Y-56060476D01*
X58214285Y-56108095D01*
X58309523Y-56155714D01*
X58404761Y-56250952D01*
X58452380Y-56393809D01*
X58452380Y-56631904D01*
X58166666Y-55679523D02*
X58166666Y-55203333D01*
X58452380Y-55774761D02*
X57452380Y-55441428D01*
X58452380Y-55108095D01*
X58357142Y-54203333D02*
X58404761Y-54250952D01*
X58452380Y-54393809D01*
X58452380Y-54489047D01*
X58404761Y-54631904D01*
X58309523Y-54727142D01*
X58214285Y-54774761D01*
X58023809Y-54822380D01*
X57880952Y-54822380D01*
X57690476Y-54774761D01*
X57595238Y-54727142D01*
X57500000Y-54631904D01*
X57452380Y-54489047D01*
X57452380Y-54393809D01*
X57500000Y-54250952D01*
X57547619Y-54203333D01*
X58833333Y-52727142D02*
X58785714Y-52774761D01*
X58642857Y-52870000D01*
X58547619Y-52917619D01*
X58404761Y-52965238D01*
X58166666Y-53012857D01*
X57976190Y-53012857D01*
X57738095Y-52965238D01*
X57595238Y-52917619D01*
X57500000Y-52870000D01*
X57357142Y-52774761D01*
X57309523Y-52727142D01*
X58166666Y-52393809D02*
X58166666Y-51917619D01*
X58452380Y-52489047D02*
X57452380Y-52155714D01*
X58452380Y-51822380D01*
X58833333Y-51584285D02*
X58785714Y-51536666D01*
X58642857Y-51441428D01*
X58547619Y-51393809D01*
X58404761Y-51346190D01*
X58166666Y-51298571D01*
X57976190Y-51298571D01*
X57738095Y-51346190D01*
X57595238Y-51393809D01*
X57500000Y-51441428D01*
X57357142Y-51536666D01*
X57309523Y-51584285D01*
X54842857Y-56698571D02*
X56042857Y-55898571D01*
X54842857Y-55898571D02*
X56042857Y-56698571D01*
X56042857Y-54527142D02*
X54842857Y-54527142D01*
X55242857Y-53955714D02*
X56042857Y-53955714D01*
X55357142Y-53955714D02*
X55300000Y-53898571D01*
X55242857Y-53784285D01*
X55242857Y-53612857D01*
X55300000Y-53498571D01*
X55414285Y-53441428D01*
X56042857Y-53441428D01*
X53166666Y-56679523D02*
X53166666Y-56203333D01*
X53452380Y-56774761D02*
X52452380Y-56441428D01*
X53452380Y-56108095D01*
X52785714Y-55346190D02*
X53452380Y-55346190D01*
X52785714Y-55774761D02*
X53309523Y-55774761D01*
X53404761Y-55727142D01*
X53452380Y-55631904D01*
X53452380Y-55489047D01*
X53404761Y-55393809D01*
X53357142Y-55346190D01*
X53452380Y-54965238D02*
X52785714Y-54441428D01*
X52785714Y-54965238D02*
X53452380Y-54441428D01*
X53833333Y-53012857D02*
X53785714Y-53060476D01*
X53642857Y-53155714D01*
X53547619Y-53203333D01*
X53404761Y-53250952D01*
X53166666Y-53298571D01*
X52976190Y-53298571D01*
X52738095Y-53250952D01*
X52595238Y-53203333D01*
X52500000Y-53155714D01*
X52357142Y-53060476D01*
X52309523Y-53012857D01*
X53452380Y-52060476D02*
X52976190Y-52393809D01*
X53452380Y-52631904D02*
X52452380Y-52631904D01*
X52452380Y-52250952D01*
X52500000Y-52155714D01*
X52547619Y-52108095D01*
X52642857Y-52060476D01*
X52785714Y-52060476D01*
X52880952Y-52108095D01*
X52928571Y-52155714D01*
X52976190Y-52250952D01*
X52976190Y-52631904D01*
X53833333Y-51727142D02*
X53785714Y-51679523D01*
X53642857Y-51584285D01*
X53547619Y-51536666D01*
X53404761Y-51489047D01*
X53166666Y-51441428D01*
X52976190Y-51441428D01*
X52738095Y-51489047D01*
X52595238Y-51536666D01*
X52500000Y-51584285D01*
X52357142Y-51679523D01*
X52309523Y-51727142D01*
X79822380Y-58842857D02*
X80489047Y-60042857D01*
X80489047Y-58842857D02*
X79822380Y-60042857D01*
X80870000Y-59585714D02*
X81631904Y-59585714D01*
X81250952Y-60042857D02*
X81250952Y-59128571D01*
X79584285Y-60900000D02*
X79489047Y-60842857D01*
X79346190Y-60842857D01*
X79203333Y-60900000D01*
X79108095Y-61014285D01*
X79060476Y-61128571D01*
X79012857Y-61357142D01*
X79012857Y-61528571D01*
X79060476Y-61757142D01*
X79108095Y-61871428D01*
X79203333Y-61985714D01*
X79346190Y-62042857D01*
X79441428Y-62042857D01*
X79584285Y-61985714D01*
X79631904Y-61928571D01*
X79631904Y-61528571D01*
X79441428Y-61528571D01*
X80060476Y-62042857D02*
X80060476Y-60842857D01*
X80631904Y-62042857D01*
X80631904Y-60842857D01*
X81108095Y-62042857D02*
X81108095Y-60842857D01*
X81346190Y-60842857D01*
X81489047Y-60900000D01*
X81584285Y-61014285D01*
X81631904Y-61128571D01*
X81679523Y-61357142D01*
X81679523Y-61528571D01*
X81631904Y-61757142D01*
X81584285Y-61871428D01*
X81489047Y-61985714D01*
X81346190Y-62042857D01*
X81108095Y-62042857D01*
X79822380Y-62842857D02*
X80489047Y-64042857D01*
X80489047Y-62842857D02*
X79822380Y-64042857D01*
X80870000Y-63585714D02*
X81631904Y-63585714D01*
X74485714Y-53342857D02*
X75285714Y-54542857D01*
X75285714Y-53342857D02*
X74485714Y-54542857D01*
X76885714Y-53342857D02*
X77114285Y-53342857D01*
X77228571Y-53400000D01*
X77342857Y-53514285D01*
X77400000Y-53742857D01*
X77400000Y-54142857D01*
X77342857Y-54371428D01*
X77228571Y-54485714D01*
X77114285Y-54542857D01*
X76885714Y-54542857D01*
X76771428Y-54485714D01*
X76657142Y-54371428D01*
X76600000Y-54142857D01*
X76600000Y-53742857D01*
X76657142Y-53514285D01*
X76771428Y-53400000D01*
X76885714Y-53342857D01*
X77742857Y-53742857D02*
X78200000Y-53742857D01*
X77914285Y-54542857D02*
X77914285Y-53514285D01*
X77971428Y-53400000D01*
X78085714Y-53342857D01*
X78200000Y-53342857D01*
X78428571Y-53742857D02*
X78885714Y-53742857D01*
X78600000Y-54542857D02*
X78600000Y-53514285D01*
X78657142Y-53400000D01*
X78771428Y-53342857D01*
X78885714Y-53342857D01*
X79228571Y-54485714D02*
X79342857Y-54542857D01*
X79571428Y-54542857D01*
X79685714Y-54485714D01*
X79742857Y-54371428D01*
X79742857Y-54314285D01*
X79685714Y-54200000D01*
X79571428Y-54142857D01*
X79400000Y-54142857D01*
X79285714Y-54085714D01*
X79228571Y-53971428D01*
X79228571Y-53914285D01*
X79285714Y-53800000D01*
X79400000Y-53742857D01*
X79571428Y-53742857D01*
X79685714Y-53800000D01*
X80714285Y-54485714D02*
X80600000Y-54542857D01*
X80371428Y-54542857D01*
X80257142Y-54485714D01*
X80200000Y-54371428D01*
X80200000Y-53914285D01*
X80257142Y-53800000D01*
X80371428Y-53742857D01*
X80600000Y-53742857D01*
X80714285Y-53800000D01*
X80771428Y-53914285D01*
X80771428Y-54028571D01*
X80200000Y-54142857D01*
X81114285Y-53742857D02*
X81571428Y-53742857D01*
X81285714Y-53342857D02*
X81285714Y-54371428D01*
X81342857Y-54485714D01*
X81457142Y-54542857D01*
X81571428Y-54542857D01*
X65171428Y-53342857D02*
X65971428Y-54542857D01*
X65971428Y-53342857D02*
X65171428Y-54542857D01*
X67971428Y-53400000D02*
X67857142Y-53342857D01*
X67685714Y-53342857D01*
X67514285Y-53400000D01*
X67400000Y-53514285D01*
X67342857Y-53628571D01*
X67285714Y-53857142D01*
X67285714Y-54028571D01*
X67342857Y-54257142D01*
X67400000Y-54371428D01*
X67514285Y-54485714D01*
X67685714Y-54542857D01*
X67800000Y-54542857D01*
X67971428Y-54485714D01*
X68028571Y-54428571D01*
X68028571Y-54028571D01*
X67800000Y-54028571D01*
X69057142Y-54542857D02*
X69057142Y-53914285D01*
X69000000Y-53800000D01*
X68885714Y-53742857D01*
X68657142Y-53742857D01*
X68542857Y-53800000D01*
X69057142Y-54485714D02*
X68942857Y-54542857D01*
X68657142Y-54542857D01*
X68542857Y-54485714D01*
X68485714Y-54371428D01*
X68485714Y-54257142D01*
X68542857Y-54142857D01*
X68657142Y-54085714D01*
X68942857Y-54085714D01*
X69057142Y-54028571D01*
X69628571Y-54542857D02*
X69628571Y-53742857D01*
X69628571Y-53342857D02*
X69571428Y-53400000D01*
X69628571Y-53457142D01*
X69685714Y-53400000D01*
X69628571Y-53342857D01*
X69628571Y-53457142D01*
X70200000Y-53742857D02*
X70200000Y-54542857D01*
X70200000Y-53857142D02*
X70257142Y-53800000D01*
X70371428Y-53742857D01*
X70542857Y-53742857D01*
X70657142Y-53800000D01*
X70714285Y-53914285D01*
X70714285Y-54542857D01*
X74885714Y-89471428D02*
X74885714Y-90042857D01*
X74485714Y-88842857D02*
X74885714Y-89471428D01*
X75285714Y-88842857D01*
X76828571Y-88842857D02*
X77057142Y-88842857D01*
X77171428Y-88900000D01*
X77285714Y-89014285D01*
X77342857Y-89242857D01*
X77342857Y-89642857D01*
X77285714Y-89871428D01*
X77171428Y-89985714D01*
X77057142Y-90042857D01*
X76828571Y-90042857D01*
X76714285Y-89985714D01*
X76600000Y-89871428D01*
X76542857Y-89642857D01*
X76542857Y-89242857D01*
X76600000Y-89014285D01*
X76714285Y-88900000D01*
X76828571Y-88842857D01*
X77685714Y-89242857D02*
X78142857Y-89242857D01*
X77857142Y-90042857D02*
X77857142Y-89014285D01*
X77914285Y-88900000D01*
X78028571Y-88842857D01*
X78142857Y-88842857D01*
X78371428Y-89242857D02*
X78828571Y-89242857D01*
X78542857Y-90042857D02*
X78542857Y-89014285D01*
X78600000Y-88900000D01*
X78714285Y-88842857D01*
X78828571Y-88842857D01*
X79171428Y-89985714D02*
X79285714Y-90042857D01*
X79514285Y-90042857D01*
X79628571Y-89985714D01*
X79685714Y-89871428D01*
X79685714Y-89814285D01*
X79628571Y-89700000D01*
X79514285Y-89642857D01*
X79342857Y-89642857D01*
X79228571Y-89585714D01*
X79171428Y-89471428D01*
X79171428Y-89414285D01*
X79228571Y-89300000D01*
X79342857Y-89242857D01*
X79514285Y-89242857D01*
X79628571Y-89300000D01*
X80657142Y-89985714D02*
X80542857Y-90042857D01*
X80314285Y-90042857D01*
X80200000Y-89985714D01*
X80142857Y-89871428D01*
X80142857Y-89414285D01*
X80200000Y-89300000D01*
X80314285Y-89242857D01*
X80542857Y-89242857D01*
X80657142Y-89300000D01*
X80714285Y-89414285D01*
X80714285Y-89528571D01*
X80142857Y-89642857D01*
X81057142Y-89242857D02*
X81514285Y-89242857D01*
X81228571Y-88842857D02*
X81228571Y-89871428D01*
X81285714Y-89985714D01*
X81400000Y-90042857D01*
X81514285Y-90042857D01*
X65571428Y-89471428D02*
X65571428Y-90042857D01*
X65171428Y-88842857D02*
X65571428Y-89471428D01*
X65971428Y-88842857D01*
X67914285Y-88900000D02*
X67800000Y-88842857D01*
X67628571Y-88842857D01*
X67457142Y-88900000D01*
X67342857Y-89014285D01*
X67285714Y-89128571D01*
X67228571Y-89357142D01*
X67228571Y-89528571D01*
X67285714Y-89757142D01*
X67342857Y-89871428D01*
X67457142Y-89985714D01*
X67628571Y-90042857D01*
X67742857Y-90042857D01*
X67914285Y-89985714D01*
X67971428Y-89928571D01*
X67971428Y-89528571D01*
X67742857Y-89528571D01*
X69000000Y-90042857D02*
X69000000Y-89414285D01*
X68942857Y-89300000D01*
X68828571Y-89242857D01*
X68600000Y-89242857D01*
X68485714Y-89300000D01*
X69000000Y-89985714D02*
X68885714Y-90042857D01*
X68600000Y-90042857D01*
X68485714Y-89985714D01*
X68428571Y-89871428D01*
X68428571Y-89757142D01*
X68485714Y-89642857D01*
X68600000Y-89585714D01*
X68885714Y-89585714D01*
X69000000Y-89528571D01*
X69571428Y-90042857D02*
X69571428Y-89242857D01*
X69571428Y-88842857D02*
X69514285Y-88900000D01*
X69571428Y-88957142D01*
X69628571Y-88900000D01*
X69571428Y-88842857D01*
X69571428Y-88957142D01*
X70142857Y-89242857D02*
X70142857Y-90042857D01*
X70142857Y-89357142D02*
X70200000Y-89300000D01*
X70314285Y-89242857D01*
X70485714Y-89242857D01*
X70600000Y-89300000D01*
X70657142Y-89414285D01*
X70657142Y-90042857D01*
D12*
%TO.C,G\u002A\u002A\u002A*%
G36*
X82780132Y-67935141D02*
G01*
X82969330Y-67935704D01*
X83151803Y-67936553D01*
X83324802Y-67937693D01*
X83485580Y-67939121D01*
X83631388Y-67940837D01*
X83759478Y-67942843D01*
X83867101Y-67945137D01*
X83951511Y-67947719D01*
X84009958Y-67950591D01*
X84039694Y-67953751D01*
X84041045Y-67954101D01*
X84114650Y-67989801D01*
X84168272Y-68042954D01*
X84201256Y-68107582D01*
X84212948Y-68177706D01*
X84202692Y-68247346D01*
X84169833Y-68310525D01*
X84113717Y-68361264D01*
X84087218Y-68375553D01*
X84024819Y-68404312D01*
X84024409Y-69886141D01*
X84024000Y-71367969D01*
X84451194Y-72108641D01*
X84541737Y-72265615D01*
X84644897Y-72444444D01*
X84757416Y-72639483D01*
X84876038Y-72845090D01*
X84997507Y-73055620D01*
X85118568Y-73265429D01*
X85235963Y-73468874D01*
X85346437Y-73660312D01*
X85395756Y-73745770D01*
X85484967Y-73900722D01*
X85569309Y-74047946D01*
X85647458Y-74185082D01*
X85718089Y-74309771D01*
X85779877Y-74419652D01*
X85831497Y-74512365D01*
X85871624Y-74585552D01*
X85898934Y-74636852D01*
X85912102Y-74663905D01*
X85913125Y-74667254D01*
X85905259Y-74687854D01*
X85882954Y-74732330D01*
X85848145Y-74797359D01*
X85802767Y-74879615D01*
X85748756Y-74975774D01*
X85688047Y-75082511D01*
X85622577Y-75196503D01*
X85554279Y-75314423D01*
X85485091Y-75432948D01*
X85416948Y-75548754D01*
X85351784Y-75658515D01*
X85291537Y-75758906D01*
X85238141Y-75846605D01*
X85193532Y-75918285D01*
X85159645Y-75970622D01*
X85138416Y-76000292D01*
X85134599Y-76004468D01*
X85087124Y-76048125D01*
X79912875Y-76048125D01*
X79865400Y-76004468D01*
X79848606Y-75982746D01*
X79818539Y-75937288D01*
X79777134Y-75871420D01*
X79726325Y-75788466D01*
X79668050Y-75691753D01*
X79604242Y-75584605D01*
X79536838Y-75470346D01*
X79467772Y-75352303D01*
X79398981Y-75233800D01*
X79332400Y-75118163D01*
X79269963Y-75008717D01*
X79213608Y-74908786D01*
X79165267Y-74821695D01*
X79126879Y-74750771D01*
X79100377Y-74699338D01*
X79087697Y-74670720D01*
X79086874Y-74666933D01*
X79093139Y-74651738D01*
X79591817Y-74651738D01*
X79866508Y-75127681D01*
X80141198Y-75603625D01*
X84858654Y-75603625D01*
X85133694Y-75126873D01*
X85408735Y-74650121D01*
X85300627Y-74464091D01*
X85252108Y-74380084D01*
X85201391Y-74291405D01*
X85154699Y-74208982D01*
X85120228Y-74147315D01*
X85047937Y-74016567D01*
X83032125Y-74016125D01*
X83327748Y-74313781D01*
X83407725Y-74394852D01*
X83480741Y-74469905D01*
X83543638Y-74535609D01*
X83593257Y-74588634D01*
X83626440Y-74625650D01*
X83639732Y-74642697D01*
X83647043Y-74680230D01*
X83634704Y-74715316D01*
X83609692Y-74751070D01*
X83569306Y-74795828D01*
X83520048Y-74843770D01*
X83468420Y-74889074D01*
X83420926Y-74925919D01*
X83384067Y-74948484D01*
X83369480Y-74952750D01*
X83347132Y-74942200D01*
X83305787Y-74910232D01*
X83244908Y-74856363D01*
X83163960Y-74780114D01*
X83062408Y-74681002D01*
X83020810Y-74639741D01*
X82706375Y-74326732D01*
X82706375Y-74761522D01*
X82706186Y-74892308D01*
X82705480Y-74995011D01*
X82704051Y-75073296D01*
X82701691Y-75130830D01*
X82698191Y-75171276D01*
X82693345Y-75198301D01*
X82686944Y-75215570D01*
X82680102Y-75225343D01*
X82663266Y-75238829D01*
X82637807Y-75247459D01*
X82597181Y-75252237D01*
X82534844Y-75254165D01*
X82490754Y-75254375D01*
X82417007Y-75253988D01*
X82368052Y-75251820D01*
X82336932Y-75246360D01*
X82316690Y-75236094D01*
X82300370Y-75219512D01*
X82294053Y-75211627D01*
X82283921Y-75197620D01*
X82276117Y-75181895D01*
X82270392Y-75160501D01*
X82266497Y-75129484D01*
X82264185Y-75084892D01*
X82263207Y-75022771D01*
X82263314Y-74939170D01*
X82264259Y-74830136D01*
X82265120Y-74751238D01*
X82266336Y-74639830D01*
X82267363Y-74539621D01*
X82268164Y-74454754D01*
X82268700Y-74389372D01*
X82268937Y-74347619D01*
X82268846Y-74333611D01*
X82257874Y-74344389D01*
X82227423Y-74374776D01*
X82180394Y-74421863D01*
X82119693Y-74482739D01*
X82048221Y-74554496D01*
X81968882Y-74634225D01*
X81967221Y-74635894D01*
X81885795Y-74716741D01*
X81809946Y-74790133D01*
X81743010Y-74852994D01*
X81688322Y-74902247D01*
X81649218Y-74934816D01*
X81629337Y-74947556D01*
X81608907Y-74948152D01*
X81584469Y-74937567D01*
X81551225Y-74912398D01*
X81504375Y-74869244D01*
X81466618Y-74832190D01*
X81404367Y-74767657D01*
X81364516Y-74719575D01*
X81344581Y-74684681D01*
X81341125Y-74667521D01*
X81346451Y-74649558D01*
X81363771Y-74622344D01*
X81395090Y-74583608D01*
X81442416Y-74531079D01*
X81507757Y-74462484D01*
X81593120Y-74375551D01*
X81646566Y-74321867D01*
X81952007Y-74016125D01*
X81524557Y-74016125D01*
X81385238Y-74016235D01*
X81274412Y-74015593D01*
X81188828Y-74012739D01*
X81125238Y-74006213D01*
X81080392Y-73994556D01*
X81051040Y-73976308D01*
X81033932Y-73950009D01*
X81025820Y-73914200D01*
X81023454Y-73867420D01*
X81023583Y-73808211D01*
X81023625Y-73791107D01*
X81023249Y-73729737D01*
X81024298Y-73680980D01*
X81030033Y-73643390D01*
X81043717Y-73615522D01*
X81068611Y-73595933D01*
X81107977Y-73583178D01*
X81165078Y-73575811D01*
X81243176Y-73572388D01*
X81345532Y-73571465D01*
X81475409Y-73571596D01*
X81519196Y-73571625D01*
X81951267Y-73571625D01*
X81638258Y-73257189D01*
X81548898Y-73166371D01*
X81471404Y-73085517D01*
X81408051Y-73017128D01*
X81361114Y-72963706D01*
X81332868Y-72927753D01*
X81325250Y-72912990D01*
X81336746Y-72886392D01*
X81367271Y-72845976D01*
X81410876Y-72797523D01*
X81461613Y-72746817D01*
X81513534Y-72699641D01*
X81560690Y-72661778D01*
X81597134Y-72639010D01*
X81611177Y-72635000D01*
X81630107Y-72641738D01*
X81661067Y-72663065D01*
X81705936Y-72700648D01*
X81766590Y-72756153D01*
X81844908Y-72831247D01*
X81942767Y-72927597D01*
X81959345Y-72944083D01*
X82269812Y-73253166D01*
X82265134Y-72828775D01*
X82263453Y-72690249D01*
X82262794Y-72580203D01*
X82264651Y-72495374D01*
X82270515Y-72432496D01*
X82281879Y-72388302D01*
X82300236Y-72359528D01*
X82327078Y-72342909D01*
X82363897Y-72335179D01*
X82412186Y-72333073D01*
X82473436Y-72333325D01*
X82491546Y-72333375D01*
X82571777Y-72334496D01*
X82626137Y-72338371D01*
X82660445Y-72345763D01*
X82680519Y-72357438D01*
X82681428Y-72358321D01*
X82688921Y-72369469D01*
X82694780Y-72388540D01*
X82699198Y-72419092D01*
X82702365Y-72464686D01*
X82704473Y-72528878D01*
X82705714Y-72615230D01*
X82706279Y-72727298D01*
X82706375Y-72822142D01*
X82706375Y-73261017D01*
X83020810Y-72948008D01*
X83124977Y-72845240D01*
X83209018Y-72764457D01*
X83274393Y-72704357D01*
X83322558Y-72663639D01*
X83354973Y-72641001D01*
X83371435Y-72635000D01*
X83403640Y-72647050D01*
X83451929Y-72681515D01*
X83511031Y-72734218D01*
X83577277Y-72800807D01*
X83620369Y-72852289D01*
X83642644Y-72892492D01*
X83646437Y-72925242D01*
X83639732Y-72945052D01*
X83624448Y-72964412D01*
X83589823Y-73002842D01*
X83539016Y-73057013D01*
X83475186Y-73123594D01*
X83401491Y-73199256D01*
X83327748Y-73273968D01*
X83032125Y-73571625D01*
X84788589Y-73571625D01*
X84757294Y-73520031D01*
X84722471Y-73461823D01*
X84676078Y-73383049D01*
X84619623Y-73286349D01*
X84554614Y-73174365D01*
X84482559Y-73049736D01*
X84404966Y-72915105D01*
X84323344Y-72773113D01*
X84239201Y-72626400D01*
X84154044Y-72477608D01*
X84069382Y-72329378D01*
X83986723Y-72184351D01*
X83907576Y-72045167D01*
X83833448Y-71914468D01*
X83765847Y-71794896D01*
X83706282Y-71689090D01*
X83656260Y-71599693D01*
X83617291Y-71529345D01*
X83590882Y-71480688D01*
X83578540Y-71456361D01*
X83577896Y-71454659D01*
X83575786Y-71431630D01*
X83573779Y-71379011D01*
X83571895Y-71298962D01*
X83570154Y-71193643D01*
X83568575Y-71065212D01*
X83567179Y-70915830D01*
X83565985Y-70747656D01*
X83565013Y-70562850D01*
X83564282Y-70363573D01*
X83563814Y-70151983D01*
X83563627Y-69930240D01*
X83563625Y-69900636D01*
X83563625Y-68396375D01*
X81436989Y-68396375D01*
X81428437Y-71468187D01*
X81084729Y-72063500D01*
X80995018Y-72218868D01*
X80895473Y-72391244D01*
X80790521Y-72572961D01*
X80684590Y-72756356D01*
X80582106Y-72933764D01*
X80487496Y-73097521D01*
X80419940Y-73214437D01*
X80274356Y-73466399D01*
X80142857Y-73694050D01*
X80025664Y-73897010D01*
X79922995Y-74074897D01*
X79835071Y-74227331D01*
X79762110Y-74353931D01*
X79704332Y-74454316D01*
X79661957Y-74528107D01*
X79635205Y-74574921D01*
X79630081Y-74583962D01*
X79591817Y-74651738D01*
X79093139Y-74651738D01*
X79094593Y-74648214D01*
X79116661Y-74605010D01*
X79151444Y-74540273D01*
X79197311Y-74456953D01*
X79252628Y-74357999D01*
X79315763Y-74246362D01*
X79385083Y-74124993D01*
X79429919Y-74047074D01*
X79516007Y-73897890D01*
X79608884Y-73736959D01*
X79704742Y-73570876D01*
X79799776Y-73406236D01*
X79890179Y-73249633D01*
X79972145Y-73107663D01*
X80038823Y-72992187D01*
X80110062Y-72868821D01*
X80193259Y-72724738D01*
X80284500Y-72566716D01*
X80379870Y-72401537D01*
X80475455Y-72235979D01*
X80567341Y-72076823D01*
X80640341Y-71950372D01*
X80976000Y-71368931D01*
X80975590Y-69886622D01*
X80975180Y-68404312D01*
X80912781Y-68375553D01*
X80847983Y-68330866D01*
X80806683Y-68271549D01*
X80788225Y-68203581D01*
X80791955Y-68132941D01*
X80817218Y-68065606D01*
X80863358Y-68007557D01*
X80929721Y-67964771D01*
X80958954Y-67954101D01*
X80985501Y-67950910D01*
X81041048Y-67948009D01*
X81122847Y-67945396D01*
X81228151Y-67943071D01*
X81354211Y-67941035D01*
X81498279Y-67939288D01*
X81657606Y-67937830D01*
X81829446Y-67936660D01*
X82011049Y-67935780D01*
X82199667Y-67935187D01*
X82392552Y-67934883D01*
X82586957Y-67934868D01*
X82780132Y-67935141D01*
G37*
X82780132Y-67935141D02*
X82969330Y-67935704D01*
X83151803Y-67936553D01*
X83324802Y-67937693D01*
X83485580Y-67939121D01*
X83631388Y-67940837D01*
X83759478Y-67942843D01*
X83867101Y-67945137D01*
X83951511Y-67947719D01*
X84009958Y-67950591D01*
X84039694Y-67953751D01*
X84041045Y-67954101D01*
X84114650Y-67989801D01*
X84168272Y-68042954D01*
X84201256Y-68107582D01*
X84212948Y-68177706D01*
X84202692Y-68247346D01*
X84169833Y-68310525D01*
X84113717Y-68361264D01*
X84087218Y-68375553D01*
X84024819Y-68404312D01*
X84024409Y-69886141D01*
X84024000Y-71367969D01*
X84451194Y-72108641D01*
X84541737Y-72265615D01*
X84644897Y-72444444D01*
X84757416Y-72639483D01*
X84876038Y-72845090D01*
X84997507Y-73055620D01*
X85118568Y-73265429D01*
X85235963Y-73468874D01*
X85346437Y-73660312D01*
X85395756Y-73745770D01*
X85484967Y-73900722D01*
X85569309Y-74047946D01*
X85647458Y-74185082D01*
X85718089Y-74309771D01*
X85779877Y-74419652D01*
X85831497Y-74512365D01*
X85871624Y-74585552D01*
X85898934Y-74636852D01*
X85912102Y-74663905D01*
X85913125Y-74667254D01*
X85905259Y-74687854D01*
X85882954Y-74732330D01*
X85848145Y-74797359D01*
X85802767Y-74879615D01*
X85748756Y-74975774D01*
X85688047Y-75082511D01*
X85622577Y-75196503D01*
X85554279Y-75314423D01*
X85485091Y-75432948D01*
X85416948Y-75548754D01*
X85351784Y-75658515D01*
X85291537Y-75758906D01*
X85238141Y-75846605D01*
X85193532Y-75918285D01*
X85159645Y-75970622D01*
X85138416Y-76000292D01*
X85134599Y-76004468D01*
X85087124Y-76048125D01*
X79912875Y-76048125D01*
X79865400Y-76004468D01*
X79848606Y-75982746D01*
X79818539Y-75937288D01*
X79777134Y-75871420D01*
X79726325Y-75788466D01*
X79668050Y-75691753D01*
X79604242Y-75584605D01*
X79536838Y-75470346D01*
X79467772Y-75352303D01*
X79398981Y-75233800D01*
X79332400Y-75118163D01*
X79269963Y-75008717D01*
X79213608Y-74908786D01*
X79165267Y-74821695D01*
X79126879Y-74750771D01*
X79100377Y-74699338D01*
X79087697Y-74670720D01*
X79086874Y-74666933D01*
X79093139Y-74651738D01*
X79591817Y-74651738D01*
X79866508Y-75127681D01*
X80141198Y-75603625D01*
X84858654Y-75603625D01*
X85133694Y-75126873D01*
X85408735Y-74650121D01*
X85300627Y-74464091D01*
X85252108Y-74380084D01*
X85201391Y-74291405D01*
X85154699Y-74208982D01*
X85120228Y-74147315D01*
X85047937Y-74016567D01*
X83032125Y-74016125D01*
X83327748Y-74313781D01*
X83407725Y-74394852D01*
X83480741Y-74469905D01*
X83543638Y-74535609D01*
X83593257Y-74588634D01*
X83626440Y-74625650D01*
X83639732Y-74642697D01*
X83647043Y-74680230D01*
X83634704Y-74715316D01*
X83609692Y-74751070D01*
X83569306Y-74795828D01*
X83520048Y-74843770D01*
X83468420Y-74889074D01*
X83420926Y-74925919D01*
X83384067Y-74948484D01*
X83369480Y-74952750D01*
X83347132Y-74942200D01*
X83305787Y-74910232D01*
X83244908Y-74856363D01*
X83163960Y-74780114D01*
X83062408Y-74681002D01*
X83020810Y-74639741D01*
X82706375Y-74326732D01*
X82706375Y-74761522D01*
X82706186Y-74892308D01*
X82705480Y-74995011D01*
X82704051Y-75073296D01*
X82701691Y-75130830D01*
X82698191Y-75171276D01*
X82693345Y-75198301D01*
X82686944Y-75215570D01*
X82680102Y-75225343D01*
X82663266Y-75238829D01*
X82637807Y-75247459D01*
X82597181Y-75252237D01*
X82534844Y-75254165D01*
X82490754Y-75254375D01*
X82417007Y-75253988D01*
X82368052Y-75251820D01*
X82336932Y-75246360D01*
X82316690Y-75236094D01*
X82300370Y-75219512D01*
X82294053Y-75211627D01*
X82283921Y-75197620D01*
X82276117Y-75181895D01*
X82270392Y-75160501D01*
X82266497Y-75129484D01*
X82264185Y-75084892D01*
X82263207Y-75022771D01*
X82263314Y-74939170D01*
X82264259Y-74830136D01*
X82265120Y-74751238D01*
X82266336Y-74639830D01*
X82267363Y-74539621D01*
X82268164Y-74454754D01*
X82268700Y-74389372D01*
X82268937Y-74347619D01*
X82268846Y-74333611D01*
X82257874Y-74344389D01*
X82227423Y-74374776D01*
X82180394Y-74421863D01*
X82119693Y-74482739D01*
X82048221Y-74554496D01*
X81968882Y-74634225D01*
X81967221Y-74635894D01*
X81885795Y-74716741D01*
X81809946Y-74790133D01*
X81743010Y-74852994D01*
X81688322Y-74902247D01*
X81649218Y-74934816D01*
X81629337Y-74947556D01*
X81608907Y-74948152D01*
X81584469Y-74937567D01*
X81551225Y-74912398D01*
X81504375Y-74869244D01*
X81466618Y-74832190D01*
X81404367Y-74767657D01*
X81364516Y-74719575D01*
X81344581Y-74684681D01*
X81341125Y-74667521D01*
X81346451Y-74649558D01*
X81363771Y-74622344D01*
X81395090Y-74583608D01*
X81442416Y-74531079D01*
X81507757Y-74462484D01*
X81593120Y-74375551D01*
X81646566Y-74321867D01*
X81952007Y-74016125D01*
X81524557Y-74016125D01*
X81385238Y-74016235D01*
X81274412Y-74015593D01*
X81188828Y-74012739D01*
X81125238Y-74006213D01*
X81080392Y-73994556D01*
X81051040Y-73976308D01*
X81033932Y-73950009D01*
X81025820Y-73914200D01*
X81023454Y-73867420D01*
X81023583Y-73808211D01*
X81023625Y-73791107D01*
X81023249Y-73729737D01*
X81024298Y-73680980D01*
X81030033Y-73643390D01*
X81043717Y-73615522D01*
X81068611Y-73595933D01*
X81107977Y-73583178D01*
X81165078Y-73575811D01*
X81243176Y-73572388D01*
X81345532Y-73571465D01*
X81475409Y-73571596D01*
X81519196Y-73571625D01*
X81951267Y-73571625D01*
X81638258Y-73257189D01*
X81548898Y-73166371D01*
X81471404Y-73085517D01*
X81408051Y-73017128D01*
X81361114Y-72963706D01*
X81332868Y-72927753D01*
X81325250Y-72912990D01*
X81336746Y-72886392D01*
X81367271Y-72845976D01*
X81410876Y-72797523D01*
X81461613Y-72746817D01*
X81513534Y-72699641D01*
X81560690Y-72661778D01*
X81597134Y-72639010D01*
X81611177Y-72635000D01*
X81630107Y-72641738D01*
X81661067Y-72663065D01*
X81705936Y-72700648D01*
X81766590Y-72756153D01*
X81844908Y-72831247D01*
X81942767Y-72927597D01*
X81959345Y-72944083D01*
X82269812Y-73253166D01*
X82265134Y-72828775D01*
X82263453Y-72690249D01*
X82262794Y-72580203D01*
X82264651Y-72495374D01*
X82270515Y-72432496D01*
X82281879Y-72388302D01*
X82300236Y-72359528D01*
X82327078Y-72342909D01*
X82363897Y-72335179D01*
X82412186Y-72333073D01*
X82473436Y-72333325D01*
X82491546Y-72333375D01*
X82571777Y-72334496D01*
X82626137Y-72338371D01*
X82660445Y-72345763D01*
X82680519Y-72357438D01*
X82681428Y-72358321D01*
X82688921Y-72369469D01*
X82694780Y-72388540D01*
X82699198Y-72419092D01*
X82702365Y-72464686D01*
X82704473Y-72528878D01*
X82705714Y-72615230D01*
X82706279Y-72727298D01*
X82706375Y-72822142D01*
X82706375Y-73261017D01*
X83020810Y-72948008D01*
X83124977Y-72845240D01*
X83209018Y-72764457D01*
X83274393Y-72704357D01*
X83322558Y-72663639D01*
X83354973Y-72641001D01*
X83371435Y-72635000D01*
X83403640Y-72647050D01*
X83451929Y-72681515D01*
X83511031Y-72734218D01*
X83577277Y-72800807D01*
X83620369Y-72852289D01*
X83642644Y-72892492D01*
X83646437Y-72925242D01*
X83639732Y-72945052D01*
X83624448Y-72964412D01*
X83589823Y-73002842D01*
X83539016Y-73057013D01*
X83475186Y-73123594D01*
X83401491Y-73199256D01*
X83327748Y-73273968D01*
X83032125Y-73571625D01*
X84788589Y-73571625D01*
X84757294Y-73520031D01*
X84722471Y-73461823D01*
X84676078Y-73383049D01*
X84619623Y-73286349D01*
X84554614Y-73174365D01*
X84482559Y-73049736D01*
X84404966Y-72915105D01*
X84323344Y-72773113D01*
X84239201Y-72626400D01*
X84154044Y-72477608D01*
X84069382Y-72329378D01*
X83986723Y-72184351D01*
X83907576Y-72045167D01*
X83833448Y-71914468D01*
X83765847Y-71794896D01*
X83706282Y-71689090D01*
X83656260Y-71599693D01*
X83617291Y-71529345D01*
X83590882Y-71480688D01*
X83578540Y-71456361D01*
X83577896Y-71454659D01*
X83575786Y-71431630D01*
X83573779Y-71379011D01*
X83571895Y-71298962D01*
X83570154Y-71193643D01*
X83568575Y-71065212D01*
X83567179Y-70915830D01*
X83565985Y-70747656D01*
X83565013Y-70562850D01*
X83564282Y-70363573D01*
X83563814Y-70151983D01*
X83563627Y-69930240D01*
X83563625Y-69900636D01*
X83563625Y-68396375D01*
X81436989Y-68396375D01*
X81428437Y-71468187D01*
X81084729Y-72063500D01*
X80995018Y-72218868D01*
X80895473Y-72391244D01*
X80790521Y-72572961D01*
X80684590Y-72756356D01*
X80582106Y-72933764D01*
X80487496Y-73097521D01*
X80419940Y-73214437D01*
X80274356Y-73466399D01*
X80142857Y-73694050D01*
X80025664Y-73897010D01*
X79922995Y-74074897D01*
X79835071Y-74227331D01*
X79762110Y-74353931D01*
X79704332Y-74454316D01*
X79661957Y-74528107D01*
X79635205Y-74574921D01*
X79630081Y-74583962D01*
X79591817Y-74651738D01*
X79093139Y-74651738D01*
X79094593Y-74648214D01*
X79116661Y-74605010D01*
X79151444Y-74540273D01*
X79197311Y-74456953D01*
X79252628Y-74357999D01*
X79315763Y-74246362D01*
X79385083Y-74124993D01*
X79429919Y-74047074D01*
X79516007Y-73897890D01*
X79608884Y-73736959D01*
X79704742Y-73570876D01*
X79799776Y-73406236D01*
X79890179Y-73249633D01*
X79972145Y-73107663D01*
X80038823Y-72992187D01*
X80110062Y-72868821D01*
X80193259Y-72724738D01*
X80284500Y-72566716D01*
X80379870Y-72401537D01*
X80475455Y-72235979D01*
X80567341Y-72076823D01*
X80640341Y-71950372D01*
X80976000Y-71368931D01*
X80975590Y-69886622D01*
X80975180Y-68404312D01*
X80912781Y-68375553D01*
X80847983Y-68330866D01*
X80806683Y-68271549D01*
X80788225Y-68203581D01*
X80791955Y-68132941D01*
X80817218Y-68065606D01*
X80863358Y-68007557D01*
X80929721Y-67964771D01*
X80958954Y-67954101D01*
X80985501Y-67950910D01*
X81041048Y-67948009D01*
X81122847Y-67945396D01*
X81228151Y-67943071D01*
X81354211Y-67941035D01*
X81498279Y-67939288D01*
X81657606Y-67937830D01*
X81829446Y-67936660D01*
X82011049Y-67935780D01*
X82199667Y-67935187D01*
X82392552Y-67934883D01*
X82586957Y-67934868D01*
X82780132Y-67935141D01*
D13*
%TO.C,C1*%
X62310000Y-92310000D02*
X59690000Y-92310000D01*
X62310000Y-87190000D02*
X59690000Y-87190000D01*
X59690000Y-87190000D02*
X59690000Y-92310000D01*
X62310000Y-87190000D02*
X62310000Y-92310000D01*
%TO.C,R1*%
X73180000Y-59500000D02*
X72290000Y-59500000D01*
X64980000Y-59500000D02*
X65870000Y-59500000D01*
X72290000Y-58190000D02*
X65870000Y-58190000D01*
X72290000Y-60810000D02*
X72290000Y-58190000D01*
X65870000Y-60810000D02*
X72290000Y-60810000D01*
X65870000Y-58190000D02*
X65870000Y-60810000D01*
%TO.C,R2*%
X62810000Y-56870000D02*
X60190000Y-56870000D01*
X60190000Y-56870000D02*
X60190000Y-63290000D01*
X60190000Y-63290000D02*
X62810000Y-63290000D01*
X62810000Y-63290000D02*
X62810000Y-56870000D01*
X61500000Y-55980000D02*
X61500000Y-56870000D01*
X61500000Y-64180000D02*
X61500000Y-63290000D01*
%TO.C,R3*%
X72130000Y-57810000D02*
X72130000Y-55190000D01*
X72130000Y-55190000D02*
X65710000Y-55190000D01*
X65710000Y-55190000D02*
X65710000Y-57810000D01*
X65710000Y-57810000D02*
X72130000Y-57810000D01*
X73020000Y-56500000D02*
X72130000Y-56500000D01*
X64820000Y-56500000D02*
X65710000Y-56500000D01*
%TO.C,R4*%
X77000000Y-65180000D02*
X77000000Y-64290000D01*
X77000000Y-56980000D02*
X77000000Y-57870000D01*
X78310000Y-64290000D02*
X78310000Y-57870000D01*
X75690000Y-64290000D02*
X78310000Y-64290000D01*
X75690000Y-57870000D02*
X75690000Y-64290000D01*
X78310000Y-57870000D02*
X75690000Y-57870000D01*
%TO.C,R5*%
X73180000Y-87000000D02*
X72290000Y-87000000D01*
X64980000Y-87000000D02*
X65870000Y-87000000D01*
X72290000Y-85690000D02*
X65870000Y-85690000D01*
X72290000Y-88310000D02*
X72290000Y-85690000D01*
X65870000Y-88310000D02*
X72290000Y-88310000D01*
X65870000Y-85690000D02*
X65870000Y-88310000D01*
%TO.C,R6*%
X62810000Y-70370000D02*
X60190000Y-70370000D01*
X60190000Y-70370000D02*
X60190000Y-76790000D01*
X60190000Y-76790000D02*
X62810000Y-76790000D01*
X62810000Y-76790000D02*
X62810000Y-70370000D01*
X61500000Y-69480000D02*
X61500000Y-70370000D01*
X61500000Y-77680000D02*
X61500000Y-76790000D01*
%TO.C,R7*%
X72130000Y-85310000D02*
X72130000Y-82690000D01*
X72130000Y-82690000D02*
X65710000Y-82690000D01*
X65710000Y-82690000D02*
X65710000Y-85310000D01*
X65710000Y-85310000D02*
X72130000Y-85310000D01*
X73020000Y-84000000D02*
X72130000Y-84000000D01*
X64820000Y-84000000D02*
X65710000Y-84000000D01*
%TO.C,R8*%
X77000000Y-77820000D02*
X77000000Y-78710000D01*
X77000000Y-86020000D02*
X77000000Y-85130000D01*
X75690000Y-78710000D02*
X75690000Y-85130000D01*
X78310000Y-78710000D02*
X75690000Y-78710000D01*
X78310000Y-85130000D02*
X78310000Y-78710000D01*
X75690000Y-85130000D02*
X78310000Y-85130000D01*
%TO.C,RV1*%
X72191000Y-50775000D02*
X70579000Y-52385000D01*
X72331000Y-50916000D02*
X70720000Y-52526000D01*
X72785000Y-48030000D02*
X72785000Y-52981000D01*
X63135000Y-48030000D02*
X63135000Y-52981000D01*
X63135000Y-52981000D02*
X72785000Y-52981000D01*
X63135000Y-48030000D02*
X72785000Y-48030000D01*
X71475121Y-52804052D02*
G75*
G02*
X70326000Y-51410000I-20121J1154052D01*
G01*
X71414691Y-50495704D02*
G75*
G02*
X71455000Y-52805000I40309J-1154296D01*
G01*
%TO.C,RV2*%
X73135000Y-48030000D02*
X82785000Y-48030000D01*
X73135000Y-52981000D02*
X82785000Y-52981000D01*
X73135000Y-48030000D02*
X73135000Y-52981000D01*
X82785000Y-48030000D02*
X82785000Y-52981000D01*
X82331000Y-50916000D02*
X80720000Y-52526000D01*
X82191000Y-50775000D02*
X80579000Y-52385000D01*
X81414691Y-50495704D02*
G75*
G02*
X81455000Y-52805000I40309J-1154296D01*
G01*
X81475121Y-52804052D02*
G75*
G02*
X80326000Y-51410000I-20121J1154052D01*
G01*
%TO.C,RV3*%
X63135000Y-90530000D02*
X72785000Y-90530000D01*
X63135000Y-95481000D02*
X72785000Y-95481000D01*
X63135000Y-90530000D02*
X63135000Y-95481000D01*
X72785000Y-90530000D02*
X72785000Y-95481000D01*
X72331000Y-93416000D02*
X70720000Y-95026000D01*
X72191000Y-93275000D02*
X70579000Y-94885000D01*
X71414691Y-92995704D02*
G75*
G02*
X71455000Y-95305000I40309J-1154296D01*
G01*
X71475121Y-95304052D02*
G75*
G02*
X70326000Y-93910000I-20121J1154052D01*
G01*
%TO.C,RV4*%
X82191000Y-93275000D02*
X80579000Y-94885000D01*
X82331000Y-93416000D02*
X80720000Y-95026000D01*
X82785000Y-90530000D02*
X82785000Y-95481000D01*
X73135000Y-90530000D02*
X73135000Y-95481000D01*
X73135000Y-95481000D02*
X82785000Y-95481000D01*
X73135000Y-90530000D02*
X82785000Y-90530000D01*
X81475121Y-95304052D02*
G75*
G02*
X80326000Y-93910000I-20121J1154052D01*
G01*
X81414691Y-92995704D02*
G75*
G02*
X81455000Y-95305000I40309J-1154296D01*
G01*
%TO.C,U1*%
X63610000Y-61050000D02*
X63610000Y-71330000D01*
X74010000Y-61050000D02*
X63610000Y-61050000D01*
X74010000Y-71330000D02*
X74010000Y-61050000D01*
X63610000Y-71330000D02*
X74010000Y-71330000D01*
X63670000Y-63540000D02*
X63670000Y-65190000D01*
X73950000Y-63540000D02*
X63670000Y-63540000D01*
X73950000Y-68840000D02*
X73950000Y-63540000D01*
X63670000Y-68840000D02*
X73950000Y-68840000D01*
X63670000Y-67190000D02*
X63670000Y-68840000D01*
X63670000Y-65190000D02*
G75*
G02*
X63670000Y-67190000I0J-1000000D01*
G01*
%TO.C,U2*%
X58890000Y-94950000D02*
X58890000Y-84670000D01*
X48490000Y-94950000D02*
X58890000Y-94950000D01*
X48490000Y-84670000D02*
X48490000Y-94950000D01*
X58890000Y-84670000D02*
X48490000Y-84670000D01*
X58830000Y-92460000D02*
X58830000Y-90810000D01*
X48550000Y-92460000D02*
X58830000Y-92460000D01*
X48550000Y-87160000D02*
X48550000Y-92460000D01*
X58830000Y-87160000D02*
X48550000Y-87160000D01*
X58830000Y-88810000D02*
X58830000Y-87160000D01*
X58830000Y-90810000D02*
G75*
G02*
X58830000Y-88810000I0J1000000D01*
G01*
%TO.C,U3*%
X63670000Y-78190000D02*
X63670000Y-79840000D01*
X63670000Y-79840000D02*
X73950000Y-79840000D01*
X73950000Y-79840000D02*
X73950000Y-74540000D01*
X73950000Y-74540000D02*
X63670000Y-74540000D01*
X63670000Y-74540000D02*
X63670000Y-76190000D01*
X63610000Y-82330000D02*
X74010000Y-82330000D01*
X74010000Y-82330000D02*
X74010000Y-72050000D01*
X74010000Y-72050000D02*
X63610000Y-72050000D01*
X63610000Y-72050000D02*
X63610000Y-82330000D01*
X63670000Y-76190000D02*
G75*
G02*
X63670000Y-78190000I0J-1000000D01*
G01*
%TO.C,J4*%
X51590000Y-57670000D02*
X51590000Y-60330000D01*
X56730000Y-57670000D02*
X51590000Y-57670000D01*
X56730000Y-60330000D02*
X51590000Y-60330000D01*
X56730000Y-57670000D02*
X56730000Y-60330000D01*
X58000000Y-57670000D02*
X59330000Y-57670000D01*
X59330000Y-57670000D02*
X59330000Y-59000000D01*
%TO.C,J5*%
X58870000Y-73170000D02*
X58870000Y-74500000D01*
X57540000Y-73170000D02*
X58870000Y-73170000D01*
X56270000Y-73170000D02*
X56270000Y-75830000D01*
X56270000Y-75830000D02*
X51130000Y-75830000D01*
X56270000Y-73170000D02*
X51130000Y-73170000D01*
X51130000Y-73170000D02*
X51130000Y-75830000D01*
%TO.C,J6*%
X38680000Y-69220000D02*
X38680000Y-62980000D01*
X38680000Y-62980000D02*
X42680000Y-62980000D01*
X42680000Y-62980000D02*
X42680000Y-62680000D01*
X42680000Y-62680000D02*
X56920000Y-62680000D01*
X56920000Y-62680000D02*
X56920000Y-71120000D01*
X56920000Y-71120000D02*
X42680000Y-71120000D01*
X42680000Y-71120000D02*
X42680000Y-69220000D01*
X42680000Y-69220000D02*
X38680000Y-69220000D01*
%TO.C,R9*%
X50000000Y-60180000D02*
X50000000Y-59290000D01*
X50000000Y-51980000D02*
X50000000Y-52870000D01*
X51310000Y-59290000D02*
X51310000Y-52870000D01*
X48690000Y-59290000D02*
X51310000Y-59290000D01*
X48690000Y-52870000D02*
X48690000Y-59290000D01*
X51310000Y-52870000D02*
X48690000Y-52870000D01*
%TO.C,R10*%
X48190000Y-81130000D02*
X50810000Y-81130000D01*
X50810000Y-81130000D02*
X50810000Y-74710000D01*
X50810000Y-74710000D02*
X48190000Y-74710000D01*
X48190000Y-74710000D02*
X48190000Y-81130000D01*
X49500000Y-82020000D02*
X49500000Y-81130000D01*
X49500000Y-73820000D02*
X49500000Y-74710000D01*
%TO.C,J2*%
X87950000Y-56450000D02*
X82000000Y-56450000D01*
X82000000Y-56450000D02*
X82000000Y-66550000D01*
X82000000Y-66550000D02*
X87950000Y-66550000D01*
X87950000Y-66550000D02*
X87950000Y-56450000D01*
X87950000Y-59750000D02*
X87200000Y-59750000D01*
X87200000Y-59750000D02*
X87200000Y-63250000D01*
X87200000Y-63250000D02*
X87950000Y-63250000D01*
X87950000Y-63250000D02*
X87950000Y-59750000D01*
X87950000Y-56450000D02*
X87200000Y-56450000D01*
X87200000Y-56450000D02*
X87200000Y-58250000D01*
X87200000Y-58250000D02*
X87950000Y-58250000D01*
X87950000Y-58250000D02*
X87950000Y-56450000D01*
X87950000Y-64750000D02*
X87200000Y-64750000D01*
X87200000Y-64750000D02*
X87200000Y-66550000D01*
X87200000Y-66550000D02*
X87950000Y-66550000D01*
X87950000Y-66550000D02*
X87950000Y-64750000D01*
X85700000Y-56450000D02*
X85700000Y-57200000D01*
X85700000Y-57200000D02*
X82750000Y-57200000D01*
X82750000Y-57200000D02*
X82750000Y-61500000D01*
X85700000Y-66550000D02*
X85700000Y-65800000D01*
X85700000Y-65800000D02*
X82750000Y-65800000D01*
X82750000Y-65800000D02*
X82750000Y-61500000D01*
X88250000Y-58650000D02*
X88250000Y-56150000D01*
X88250000Y-56150000D02*
X85750000Y-56150000D01*
%TO.C,J7*%
X88250000Y-77150000D02*
X85750000Y-77150000D01*
X88250000Y-79650000D02*
X88250000Y-77150000D01*
X82750000Y-86800000D02*
X82750000Y-82500000D01*
X85700000Y-86800000D02*
X82750000Y-86800000D01*
X85700000Y-87550000D02*
X85700000Y-86800000D01*
X82750000Y-78200000D02*
X82750000Y-82500000D01*
X85700000Y-78200000D02*
X82750000Y-78200000D01*
X85700000Y-77450000D02*
X85700000Y-78200000D01*
X87950000Y-87550000D02*
X87950000Y-85750000D01*
X87200000Y-87550000D02*
X87950000Y-87550000D01*
X87200000Y-85750000D02*
X87200000Y-87550000D01*
X87950000Y-85750000D02*
X87200000Y-85750000D01*
X87950000Y-79250000D02*
X87950000Y-77450000D01*
X87200000Y-79250000D02*
X87950000Y-79250000D01*
X87200000Y-77450000D02*
X87200000Y-79250000D01*
X87950000Y-77450000D02*
X87200000Y-77450000D01*
X87950000Y-84250000D02*
X87950000Y-80750000D01*
X87200000Y-84250000D02*
X87950000Y-84250000D01*
X87200000Y-80750000D02*
X87200000Y-84250000D01*
X87950000Y-80750000D02*
X87200000Y-80750000D01*
X87950000Y-87550000D02*
X87950000Y-77450000D01*
X82000000Y-87550000D02*
X87950000Y-87550000D01*
X82000000Y-77450000D02*
X82000000Y-87550000D01*
X87950000Y-77450000D02*
X82000000Y-77450000D01*
D10*
%TO.C,J1*%
X43200000Y-49500000D02*
G75*
G03*
X43200000Y-49500000I-2000000J0D01*
G01*
X43200000Y-54500000D02*
G75*
G03*
X43200000Y-54500000I-2000000J0D01*
G01*
X43200000Y-59500000D02*
G75*
G03*
X43200000Y-59500000I-2000000J0D01*
G01*
X46500000Y-47000000D02*
X36700000Y-47000000D01*
X46500000Y-62000000D02*
X46500000Y-47000000D01*
X36700000Y-62000000D02*
X46500000Y-62000000D01*
X36700000Y-47000000D02*
X36700000Y-62000000D01*
X37200000Y-47000000D02*
X37200000Y-62000000D01*
X43600000Y-47000000D02*
X43600000Y-62000000D01*
X38700000Y-47000000D02*
X38700000Y-62000000D01*
X37200000Y-52000000D02*
X36700000Y-52000000D01*
X37200000Y-57000000D02*
X36700000Y-57000000D01*
D13*
%TO.C,J3*%
X44670000Y-72670000D02*
X46000000Y-72670000D01*
X44670000Y-74000000D02*
X44670000Y-72670000D01*
X44670000Y-75270000D02*
X47330000Y-75270000D01*
X47330000Y-75270000D02*
X47330000Y-90570000D01*
X44670000Y-75270000D02*
X44670000Y-90570000D01*
X44670000Y-90570000D02*
X47330000Y-90570000D01*
D10*
%TO.C,J8*%
X82200000Y-40000000D02*
G75*
G03*
X82200000Y-40000000I-2000000J0D01*
G01*
X77200000Y-40000000D02*
G75*
G03*
X77200000Y-40000000I-2000000J0D01*
G01*
X72200000Y-40000000D02*
G75*
G03*
X72200000Y-40000000I-2000000J0D01*
G01*
X67200000Y-40000000D02*
G75*
G03*
X67200000Y-40000000I-2000000J0D01*
G01*
X82700000Y-45300000D02*
X82700000Y-35500000D01*
X62700000Y-45300000D02*
X82700000Y-45300000D01*
X62700000Y-35500000D02*
X62700000Y-45300000D01*
X82700000Y-35500000D02*
X62700000Y-35500000D01*
X82700000Y-36000000D02*
X62700000Y-36000000D01*
X82700000Y-42400000D02*
X62700000Y-42400000D01*
X82700000Y-37500000D02*
X62700000Y-37500000D01*
X77700000Y-36000000D02*
X77700000Y-35500000D01*
X72700000Y-36000000D02*
X72700000Y-35500000D01*
X67700000Y-36000000D02*
X67700000Y-35500000D01*
D13*
%TO.C,Q1*%
X57070000Y-44650000D02*
X60670000Y-44650000D01*
X60708478Y-44638478D02*
G75*
G03*
X58870000Y-40200000I-1838478J1838478D01*
G01*
X57031522Y-44638478D02*
G75*
G02*
X58870000Y-40200000I1838478J1838478D01*
G01*
%TO.C,R11*%
X44920000Y-44800000D02*
X45810000Y-44800000D01*
X53120000Y-44800000D02*
X52230000Y-44800000D01*
X45810000Y-46110000D02*
X52230000Y-46110000D01*
X45810000Y-43490000D02*
X45810000Y-46110000D01*
X52230000Y-43490000D02*
X45810000Y-43490000D01*
X52230000Y-46110000D02*
X52230000Y-43490000D01*
%TO.C,C1*%
D10*
X60404761Y-93952380D02*
X59833333Y-93952380D01*
X60119047Y-93952380D02*
X60119047Y-92952380D01*
X60023809Y-93095238D01*
X59928571Y-93190476D01*
X59833333Y-93238095D01*
X61261904Y-93285714D02*
X61261904Y-93952380D01*
X60833333Y-93285714D02*
X60833333Y-93809523D01*
X60880952Y-93904761D01*
X60976190Y-93952380D01*
X61119047Y-93952380D01*
X61214285Y-93904761D01*
X61261904Y-93857142D01*
X62071428Y-93428571D02*
X61738095Y-93428571D01*
X61738095Y-93952380D02*
X61738095Y-92952380D01*
X62214285Y-92952380D01*
%TO.C,R1*%
X68389523Y-59952380D02*
X67818095Y-59952380D01*
X68103809Y-59952380D02*
X68103809Y-58952380D01*
X68008571Y-59095238D01*
X67913333Y-59190476D01*
X67818095Y-59238095D01*
X69008571Y-58952380D02*
X69103809Y-58952380D01*
X69199047Y-59000000D01*
X69246666Y-59047619D01*
X69294285Y-59142857D01*
X69341904Y-59333333D01*
X69341904Y-59571428D01*
X69294285Y-59761904D01*
X69246666Y-59857142D01*
X69199047Y-59904761D01*
X69103809Y-59952380D01*
X69008571Y-59952380D01*
X68913333Y-59904761D01*
X68865714Y-59857142D01*
X68818095Y-59761904D01*
X68770476Y-59571428D01*
X68770476Y-59333333D01*
X68818095Y-59142857D01*
X68865714Y-59047619D01*
X68913333Y-59000000D01*
X69008571Y-58952380D01*
X69770476Y-59952380D02*
X69770476Y-58952380D01*
X70341904Y-59952380D02*
X69913333Y-59380952D01*
X70341904Y-58952380D02*
X69770476Y-59523809D01*
%TO.C,R2*%
X61952380Y-60214285D02*
X61952380Y-60785714D01*
X61952380Y-60500000D02*
X60952380Y-60500000D01*
X61095238Y-60595238D01*
X61190476Y-60690476D01*
X61238095Y-60785714D01*
X61952380Y-59785714D02*
X60952380Y-59785714D01*
X61952380Y-59214285D02*
X61380952Y-59642857D01*
X60952380Y-59214285D02*
X61523809Y-59785714D01*
%TO.C,R3*%
X68309523Y-56952380D02*
X67738095Y-56952380D01*
X68023809Y-56952380D02*
X68023809Y-55952380D01*
X67928571Y-56095238D01*
X67833333Y-56190476D01*
X67738095Y-56238095D01*
X68928571Y-55952380D02*
X69023809Y-55952380D01*
X69119047Y-56000000D01*
X69166666Y-56047619D01*
X69214285Y-56142857D01*
X69261904Y-56333333D01*
X69261904Y-56571428D01*
X69214285Y-56761904D01*
X69166666Y-56857142D01*
X69119047Y-56904761D01*
X69023809Y-56952380D01*
X68928571Y-56952380D01*
X68833333Y-56904761D01*
X68785714Y-56857142D01*
X68738095Y-56761904D01*
X68690476Y-56571428D01*
X68690476Y-56333333D01*
X68738095Y-56142857D01*
X68785714Y-56047619D01*
X68833333Y-56000000D01*
X68928571Y-55952380D01*
X69690476Y-56952380D02*
X69690476Y-55952380D01*
X70261904Y-56952380D02*
X69833333Y-56380952D01*
X70261904Y-55952380D02*
X69690476Y-56523809D01*
%TO.C,R4*%
X76785714Y-61865714D02*
X77452380Y-61865714D01*
X76404761Y-62103809D02*
X77119047Y-62341904D01*
X77119047Y-61722857D01*
X76452380Y-61437142D02*
X76452380Y-60770476D01*
X77452380Y-61199047D01*
X77452380Y-60389523D02*
X76452380Y-60389523D01*
X77452380Y-59818095D02*
X76880952Y-60246666D01*
X76452380Y-59818095D02*
X77023809Y-60389523D01*
%TO.C,R5*%
X68309523Y-87452380D02*
X67738095Y-87452380D01*
X68023809Y-87452380D02*
X68023809Y-86452380D01*
X67928571Y-86595238D01*
X67833333Y-86690476D01*
X67738095Y-86738095D01*
X68928571Y-86452380D02*
X69023809Y-86452380D01*
X69119047Y-86500000D01*
X69166666Y-86547619D01*
X69214285Y-86642857D01*
X69261904Y-86833333D01*
X69261904Y-87071428D01*
X69214285Y-87261904D01*
X69166666Y-87357142D01*
X69119047Y-87404761D01*
X69023809Y-87452380D01*
X68928571Y-87452380D01*
X68833333Y-87404761D01*
X68785714Y-87357142D01*
X68738095Y-87261904D01*
X68690476Y-87071428D01*
X68690476Y-86833333D01*
X68738095Y-86642857D01*
X68785714Y-86547619D01*
X68833333Y-86500000D01*
X68928571Y-86452380D01*
X69690476Y-87452380D02*
X69690476Y-86452380D01*
X70261904Y-87452380D02*
X69833333Y-86880952D01*
X70261904Y-86452380D02*
X69690476Y-87023809D01*
%TO.C,R6*%
X61952380Y-73794285D02*
X61952380Y-74365714D01*
X61952380Y-74080000D02*
X60952380Y-74080000D01*
X61095238Y-74175238D01*
X61190476Y-74270476D01*
X61238095Y-74365714D01*
X61952380Y-73365714D02*
X60952380Y-73365714D01*
X61952380Y-72794285D02*
X61380952Y-73222857D01*
X60952380Y-72794285D02*
X61523809Y-73365714D01*
%TO.C,R7*%
X68309523Y-84452380D02*
X67738095Y-84452380D01*
X68023809Y-84452380D02*
X68023809Y-83452380D01*
X67928571Y-83595238D01*
X67833333Y-83690476D01*
X67738095Y-83738095D01*
X68928571Y-83452380D02*
X69023809Y-83452380D01*
X69119047Y-83500000D01*
X69166666Y-83547619D01*
X69214285Y-83642857D01*
X69261904Y-83833333D01*
X69261904Y-84071428D01*
X69214285Y-84261904D01*
X69166666Y-84357142D01*
X69119047Y-84404761D01*
X69023809Y-84452380D01*
X68928571Y-84452380D01*
X68833333Y-84404761D01*
X68785714Y-84357142D01*
X68738095Y-84261904D01*
X68690476Y-84071428D01*
X68690476Y-83833333D01*
X68738095Y-83642857D01*
X68785714Y-83547619D01*
X68833333Y-83500000D01*
X68928571Y-83452380D01*
X69690476Y-84452380D02*
X69690476Y-83452380D01*
X70261904Y-84452380D02*
X69833333Y-83880952D01*
X70261904Y-83452380D02*
X69690476Y-84023809D01*
%TO.C,R8*%
X76785714Y-82785714D02*
X77452380Y-82785714D01*
X76404761Y-83023809D02*
X77119047Y-83261904D01*
X77119047Y-82642857D01*
X76452380Y-82357142D02*
X76452380Y-81690476D01*
X77452380Y-82119047D01*
X77452380Y-81309523D02*
X76452380Y-81309523D01*
X77452380Y-80738095D02*
X76880952Y-81166666D01*
X76452380Y-80738095D02*
X77023809Y-81309523D01*
%TO.C,U1*%
X66880952Y-65642380D02*
X67452380Y-65642380D01*
X67166666Y-66642380D02*
X67166666Y-65642380D01*
X68261904Y-66642380D02*
X67785714Y-66642380D01*
X67785714Y-65642380D01*
X68785714Y-65642380D02*
X68880952Y-65642380D01*
X68976190Y-65690000D01*
X69023809Y-65737619D01*
X69071428Y-65832857D01*
X69119047Y-66023333D01*
X69119047Y-66261428D01*
X69071428Y-66451904D01*
X69023809Y-66547142D01*
X68976190Y-66594761D01*
X68880952Y-66642380D01*
X68785714Y-66642380D01*
X68690476Y-66594761D01*
X68642857Y-66547142D01*
X68595238Y-66451904D01*
X68547619Y-66261428D01*
X68547619Y-66023333D01*
X68595238Y-65832857D01*
X68642857Y-65737619D01*
X68690476Y-65690000D01*
X68785714Y-65642380D01*
X69690476Y-66070952D02*
X69595238Y-66023333D01*
X69547619Y-65975714D01*
X69500000Y-65880476D01*
X69500000Y-65832857D01*
X69547619Y-65737619D01*
X69595238Y-65690000D01*
X69690476Y-65642380D01*
X69880952Y-65642380D01*
X69976190Y-65690000D01*
X70023809Y-65737619D01*
X70071428Y-65832857D01*
X70071428Y-65880476D01*
X70023809Y-65975714D01*
X69976190Y-66023333D01*
X69880952Y-66070952D01*
X69690476Y-66070952D01*
X69595238Y-66118571D01*
X69547619Y-66166190D01*
X69500000Y-66261428D01*
X69500000Y-66451904D01*
X69547619Y-66547142D01*
X69595238Y-66594761D01*
X69690476Y-66642380D01*
X69880952Y-66642380D01*
X69976190Y-66594761D01*
X70023809Y-66547142D01*
X70071428Y-66451904D01*
X70071428Y-66261428D01*
X70023809Y-66166190D01*
X69976190Y-66118571D01*
X69880952Y-66070952D01*
X70452380Y-65737619D02*
X70500000Y-65690000D01*
X70595238Y-65642380D01*
X70833333Y-65642380D01*
X70928571Y-65690000D01*
X70976190Y-65737619D01*
X71023809Y-65832857D01*
X71023809Y-65928095D01*
X70976190Y-66070952D01*
X70404761Y-66642380D01*
X71023809Y-66642380D01*
%TO.C,U2*%
X50261904Y-90452380D02*
X50261904Y-89452380D01*
X50595238Y-90166666D01*
X50928571Y-89452380D01*
X50928571Y-90452380D01*
X51976190Y-90357142D02*
X51928571Y-90404761D01*
X51785714Y-90452380D01*
X51690476Y-90452380D01*
X51547619Y-90404761D01*
X51452380Y-90309523D01*
X51404761Y-90214285D01*
X51357142Y-90023809D01*
X51357142Y-89880952D01*
X51404761Y-89690476D01*
X51452380Y-89595238D01*
X51547619Y-89500000D01*
X51690476Y-89452380D01*
X51785714Y-89452380D01*
X51928571Y-89500000D01*
X51976190Y-89547619D01*
X52404761Y-90452380D02*
X52404761Y-89452380D01*
X52785714Y-89452380D01*
X52880952Y-89500000D01*
X52928571Y-89547619D01*
X52976190Y-89642857D01*
X52976190Y-89785714D01*
X52928571Y-89880952D01*
X52880952Y-89928571D01*
X52785714Y-89976190D01*
X52404761Y-89976190D01*
X53833333Y-89785714D02*
X53833333Y-90452380D01*
X53595238Y-89404761D02*
X53357142Y-90119047D01*
X53976190Y-90119047D01*
X54500000Y-89880952D02*
X54404761Y-89833333D01*
X54357142Y-89785714D01*
X54309523Y-89690476D01*
X54309523Y-89642857D01*
X54357142Y-89547619D01*
X54404761Y-89500000D01*
X54500000Y-89452380D01*
X54690476Y-89452380D01*
X54785714Y-89500000D01*
X54833333Y-89547619D01*
X54880952Y-89642857D01*
X54880952Y-89690476D01*
X54833333Y-89785714D01*
X54785714Y-89833333D01*
X54690476Y-89880952D01*
X54500000Y-89880952D01*
X54404761Y-89928571D01*
X54357142Y-89976190D01*
X54309523Y-90071428D01*
X54309523Y-90261904D01*
X54357142Y-90357142D01*
X54404761Y-90404761D01*
X54500000Y-90452380D01*
X54690476Y-90452380D01*
X54785714Y-90404761D01*
X54833333Y-90357142D01*
X54880952Y-90261904D01*
X54880952Y-90071428D01*
X54833333Y-89976190D01*
X54785714Y-89928571D01*
X54690476Y-89880952D01*
X55261904Y-89547619D02*
X55309523Y-89500000D01*
X55404761Y-89452380D01*
X55642857Y-89452380D01*
X55738095Y-89500000D01*
X55785714Y-89547619D01*
X55833333Y-89642857D01*
X55833333Y-89738095D01*
X55785714Y-89880952D01*
X55214285Y-90452380D01*
X55833333Y-90452380D01*
X56214285Y-89547619D02*
X56261904Y-89500000D01*
X56357142Y-89452380D01*
X56595238Y-89452380D01*
X56690476Y-89500000D01*
X56738095Y-89547619D01*
X56785714Y-89642857D01*
X56785714Y-89738095D01*
X56738095Y-89880952D01*
X56166666Y-90452380D01*
X56785714Y-90452380D01*
%TO.C,U3*%
X66880952Y-76642380D02*
X67452380Y-76642380D01*
X67166666Y-77642380D02*
X67166666Y-76642380D01*
X68261904Y-77642380D02*
X67785714Y-77642380D01*
X67785714Y-76642380D01*
X68785714Y-76642380D02*
X68880952Y-76642380D01*
X68976190Y-76690000D01*
X69023809Y-76737619D01*
X69071428Y-76832857D01*
X69119047Y-77023333D01*
X69119047Y-77261428D01*
X69071428Y-77451904D01*
X69023809Y-77547142D01*
X68976190Y-77594761D01*
X68880952Y-77642380D01*
X68785714Y-77642380D01*
X68690476Y-77594761D01*
X68642857Y-77547142D01*
X68595238Y-77451904D01*
X68547619Y-77261428D01*
X68547619Y-77023333D01*
X68595238Y-76832857D01*
X68642857Y-76737619D01*
X68690476Y-76690000D01*
X68785714Y-76642380D01*
X69690476Y-77070952D02*
X69595238Y-77023333D01*
X69547619Y-76975714D01*
X69500000Y-76880476D01*
X69500000Y-76832857D01*
X69547619Y-76737619D01*
X69595238Y-76690000D01*
X69690476Y-76642380D01*
X69880952Y-76642380D01*
X69976190Y-76690000D01*
X70023809Y-76737619D01*
X70071428Y-76832857D01*
X70071428Y-76880476D01*
X70023809Y-76975714D01*
X69976190Y-77023333D01*
X69880952Y-77070952D01*
X69690476Y-77070952D01*
X69595238Y-77118571D01*
X69547619Y-77166190D01*
X69500000Y-77261428D01*
X69500000Y-77451904D01*
X69547619Y-77547142D01*
X69595238Y-77594761D01*
X69690476Y-77642380D01*
X69880952Y-77642380D01*
X69976190Y-77594761D01*
X70023809Y-77547142D01*
X70071428Y-77451904D01*
X70071428Y-77261428D01*
X70023809Y-77166190D01*
X69976190Y-77118571D01*
X69880952Y-77070952D01*
X70452380Y-76737619D02*
X70500000Y-76690000D01*
X70595238Y-76642380D01*
X70833333Y-76642380D01*
X70928571Y-76690000D01*
X70976190Y-76737619D01*
X71023809Y-76832857D01*
X71023809Y-76928095D01*
X70976190Y-77070952D01*
X70404761Y-77642380D01*
X71023809Y-77642380D01*
%TO.C,R9*%
X49452380Y-57365714D02*
X49452380Y-56746666D01*
X49833333Y-57080000D01*
X49833333Y-56937142D01*
X49880952Y-56841904D01*
X49928571Y-56794285D01*
X50023809Y-56746666D01*
X50261904Y-56746666D01*
X50357142Y-56794285D01*
X50404761Y-56841904D01*
X50452380Y-56937142D01*
X50452380Y-57222857D01*
X50404761Y-57318095D01*
X50357142Y-57365714D01*
X49452380Y-56413333D02*
X49452380Y-55794285D01*
X49833333Y-56127619D01*
X49833333Y-55984761D01*
X49880952Y-55889523D01*
X49928571Y-55841904D01*
X50023809Y-55794285D01*
X50261904Y-55794285D01*
X50357142Y-55841904D01*
X50404761Y-55889523D01*
X50452380Y-55984761D01*
X50452380Y-56270476D01*
X50404761Y-56365714D01*
X50357142Y-56413333D01*
X49452380Y-55175238D02*
X49452380Y-55080000D01*
X49500000Y-54984761D01*
X49547619Y-54937142D01*
X49642857Y-54889523D01*
X49833333Y-54841904D01*
X50071428Y-54841904D01*
X50261904Y-54889523D01*
X50357142Y-54937142D01*
X50404761Y-54984761D01*
X50452380Y-55080000D01*
X50452380Y-55175238D01*
X50404761Y-55270476D01*
X50357142Y-55318095D01*
X50261904Y-55365714D01*
X50071428Y-55413333D01*
X49833333Y-55413333D01*
X49642857Y-55365714D01*
X49547619Y-55318095D01*
X49500000Y-55270476D01*
X49452380Y-55175238D01*
%TO.C,R10*%
X48952380Y-79205714D02*
X48952380Y-78586666D01*
X49333333Y-78920000D01*
X49333333Y-78777142D01*
X49380952Y-78681904D01*
X49428571Y-78634285D01*
X49523809Y-78586666D01*
X49761904Y-78586666D01*
X49857142Y-78634285D01*
X49904761Y-78681904D01*
X49952380Y-78777142D01*
X49952380Y-79062857D01*
X49904761Y-79158095D01*
X49857142Y-79205714D01*
X48952380Y-78253333D02*
X48952380Y-77634285D01*
X49333333Y-77967619D01*
X49333333Y-77824761D01*
X49380952Y-77729523D01*
X49428571Y-77681904D01*
X49523809Y-77634285D01*
X49761904Y-77634285D01*
X49857142Y-77681904D01*
X49904761Y-77729523D01*
X49952380Y-77824761D01*
X49952380Y-78110476D01*
X49904761Y-78205714D01*
X49857142Y-78253333D01*
X48952380Y-77015238D02*
X48952380Y-76920000D01*
X49000000Y-76824761D01*
X49047619Y-76777142D01*
X49142857Y-76729523D01*
X49333333Y-76681904D01*
X49571428Y-76681904D01*
X49761904Y-76729523D01*
X49857142Y-76777142D01*
X49904761Y-76824761D01*
X49952380Y-76920000D01*
X49952380Y-77015238D01*
X49904761Y-77110476D01*
X49857142Y-77158095D01*
X49761904Y-77205714D01*
X49571428Y-77253333D01*
X49333333Y-77253333D01*
X49142857Y-77205714D01*
X49047619Y-77158095D01*
X49000000Y-77110476D01*
X48952380Y-77015238D01*
%TO.C,Q1*%
X55750952Y-46042380D02*
X55750952Y-45042380D01*
X56131904Y-45042380D01*
X56227142Y-45090000D01*
X56274761Y-45137619D01*
X56322380Y-45232857D01*
X56322380Y-45375714D01*
X56274761Y-45470952D01*
X56227142Y-45518571D01*
X56131904Y-45566190D01*
X55750952Y-45566190D01*
X56750952Y-46042380D02*
X56750952Y-45042380D01*
X57322380Y-46042380D01*
X57322380Y-45042380D01*
X57750952Y-45137619D02*
X57798571Y-45090000D01*
X57893809Y-45042380D01*
X58131904Y-45042380D01*
X58227142Y-45090000D01*
X58274761Y-45137619D01*
X58322380Y-45232857D01*
X58322380Y-45328095D01*
X58274761Y-45470952D01*
X57703333Y-46042380D01*
X58322380Y-46042380D01*
X58703333Y-45137619D02*
X58750952Y-45090000D01*
X58846190Y-45042380D01*
X59084285Y-45042380D01*
X59179523Y-45090000D01*
X59227142Y-45137619D01*
X59274761Y-45232857D01*
X59274761Y-45328095D01*
X59227142Y-45470952D01*
X58655714Y-46042380D01*
X59274761Y-46042380D01*
X59655714Y-45137619D02*
X59703333Y-45090000D01*
X59798571Y-45042380D01*
X60036666Y-45042380D01*
X60131904Y-45090000D01*
X60179523Y-45137619D01*
X60227142Y-45232857D01*
X60227142Y-45328095D01*
X60179523Y-45470952D01*
X59608095Y-46042380D01*
X60227142Y-46042380D01*
X60608095Y-45137619D02*
X60655714Y-45090000D01*
X60750952Y-45042380D01*
X60989047Y-45042380D01*
X61084285Y-45090000D01*
X61131904Y-45137619D01*
X61179523Y-45232857D01*
X61179523Y-45328095D01*
X61131904Y-45470952D01*
X60560476Y-46042380D01*
X61179523Y-46042380D01*
X61560476Y-45756666D02*
X62036666Y-45756666D01*
X61465238Y-46042380D02*
X61798571Y-45042380D01*
X62131904Y-46042380D01*
%TO.C,R11*%
X48333333Y-45152380D02*
X47761904Y-45152380D01*
X48047619Y-45152380D02*
X48047619Y-44152380D01*
X47952380Y-44295238D01*
X47857142Y-44390476D01*
X47761904Y-44438095D01*
X48952380Y-44152380D02*
X49047619Y-44152380D01*
X49142857Y-44200000D01*
X49190476Y-44247619D01*
X49238095Y-44342857D01*
X49285714Y-44533333D01*
X49285714Y-44771428D01*
X49238095Y-44961904D01*
X49190476Y-45057142D01*
X49142857Y-45104761D01*
X49047619Y-45152380D01*
X48952380Y-45152380D01*
X48857142Y-45104761D01*
X48809523Y-45057142D01*
X48761904Y-44961904D01*
X48714285Y-44771428D01*
X48714285Y-44533333D01*
X48761904Y-44342857D01*
X48809523Y-44247619D01*
X48857142Y-44200000D01*
X48952380Y-44152380D01*
X49904761Y-44152380D02*
X50000000Y-44152380D01*
X50095238Y-44200000D01*
X50142857Y-44247619D01*
X50190476Y-44342857D01*
X50238095Y-44533333D01*
X50238095Y-44771428D01*
X50190476Y-44961904D01*
X50142857Y-45057142D01*
X50095238Y-45104761D01*
X50000000Y-45152380D01*
X49904761Y-45152380D01*
X49809523Y-45104761D01*
X49761904Y-45057142D01*
X49714285Y-44961904D01*
X49666666Y-44771428D01*
X49666666Y-44533333D01*
X49714285Y-44342857D01*
X49761904Y-44247619D01*
X49809523Y-44200000D01*
X49904761Y-44152380D01*
%TD*%
M02*
