M48
; DRILL file {KiCad (5.1.6)-1} date 09/03/20 17:42:08
; FORMAT={-:-/ absolute / metric / decimal}
; #@! TF.CreationDate,2020-09-03T17:42:08-04:00
; #@! TF.GenerationSoftware,Kicad,Pcbnew,(5.1.6)-1
FMAT,2
METRIC
T1C0.400
T2C0.800
T3C1.000
T4C1.300
T5C3.200
%
G90
G05
T1
X58.0Y-88.0
X61.0Y-85.0
X61.5Y-62.0
X64.5Y-64.5
X75.0Y-63.0
X75.0Y-65.5
T2
X49.88Y-86.0
X49.88Y-93.62
X52.42Y-86.0
X52.42Y-93.62
X54.96Y-86.0
X54.96Y-93.62
X57.5Y-86.0
X57.5Y-93.62
X50.0Y-48.7
X50.0Y-58.86
X61.0Y-88.5
X61.0Y-91.0
X75.42Y-50.5
X77.96Y-50.5
X80.5Y-50.5
X64.0Y-87.0
X74.16Y-87.0
X65.0Y-62.38
X65.0Y-70.0
X67.54Y-62.38
X67.54Y-70.0
X70.08Y-62.38
X70.08Y-70.0
X72.62Y-62.38
X72.62Y-70.0
X64.0Y-59.5
X74.16Y-59.5
X65.42Y-50.5
X67.96Y-50.5
X70.5Y-50.5
X61.5Y-68.5
X61.5Y-78.66
X43.14Y-42.9
X53.3Y-42.9
X61.5Y-55.0
X61.5Y-65.16
X75.42Y-93.0
X77.96Y-93.0
X80.5Y-93.0
X52.4Y-71.2
X54.9Y-71.2
X38.9Y-71.5
X38.9Y-74.04
X38.9Y-76.58
X38.9Y-79.12
X38.9Y-81.66
X38.9Y-84.2
X38.9Y-86.74
X46.52Y-71.5
X46.52Y-74.04
X46.52Y-76.58
X46.52Y-79.12
X46.52Y-81.66
X46.52Y-84.2
X46.52Y-86.74
X56.0Y-42.8
X58.54Y-42.8
X61.08Y-42.8
X49.5Y-72.84
X49.5Y-83.0
X77.0Y-76.84
X77.0Y-87.0
X65.42Y-93.0
X67.96Y-93.0
X70.5Y-93.0
X65.0Y-73.38
X65.0Y-81.0
X67.54Y-73.38
X67.54Y-81.0
X70.08Y-73.38
X70.08Y-81.0
X72.62Y-73.38
X72.62Y-81.0
X77.0Y-56.0
X77.0Y-66.16
X63.84Y-56.5
X74.0Y-56.5
X63.84Y-84.0
X74.0Y-84.0
T3
X35.4Y-76.6
X35.4Y-79.14
X35.4Y-81.68
X35.4Y-84.22
X35.4Y-86.76
X52.92Y-59.0
X55.46Y-59.0
X58.0Y-59.0
X85.5Y-59.0
X85.5Y-61.5
X85.5Y-64.0
X85.5Y-80.0
X85.5Y-82.5
X85.5Y-85.0
X52.46Y-74.5
X55.0Y-74.5
X57.54Y-74.5
T4
X40.2Y-47.7
X40.2Y-52.7
X40.2Y-57.7
X65.2Y-40.1
X70.2Y-40.1
X75.2Y-40.1
X80.2Y-40.1
T5
X86.4Y-37.9
X36.1Y-93.4
T3
G00X38.5Y-65.7
M15
G01X38.5Y-64.7
M16
G05
G00X40.9Y-63.7
M15
G01X40.9Y-62.7
M16
G05
G00X46.4Y-63.7
M15
G01X46.4Y-62.7
M16
G05
T0
M30
