%TF.GenerationSoftware,KiCad,Pcbnew,(5.1.6)-1*%
%TF.CreationDate,2020-07-07T17:24:47-04:00*%
%TF.ProjectId,GalvoDriver,47616c76-6f44-4726-9976-65722e6b6963,rev?*%
%TF.SameCoordinates,Original*%
%TF.FileFunction,Copper,L4,Bot*%
%TF.FilePolarity,Positive*%
%FSLAX46Y46*%
G04 Gerber Fmt 4.6, Leading zero omitted, Abs format (unit mm)*
G04 Created by KiCad (PCBNEW (5.1.6)-1) date 2020-07-07 17:24:47*
%MOMM*%
%LPD*%
G01*
G04 APERTURE LIST*
%TA.AperFunction,ComponentPad*%
%ADD10C,1.600000*%
%TD*%
%TA.AperFunction,ComponentPad*%
%ADD11O,1.600000X1.600000*%
%TD*%
%TA.AperFunction,ComponentPad*%
%ADD12C,1.440000*%
%TD*%
%TA.AperFunction,ComponentPad*%
%ADD13R,1.600000X1.600000*%
%TD*%
%TA.AperFunction,ComponentPad*%
%ADD14R,1.700000X1.700000*%
%TD*%
%TA.AperFunction,ComponentPad*%
%ADD15O,1.700000X1.700000*%
%TD*%
%TA.AperFunction,ComponentPad*%
%ADD16O,1.800000X2.800000*%
%TD*%
%TA.AperFunction,ComponentPad*%
%ADD17C,1.750000*%
%TD*%
%TA.AperFunction,ComponentPad*%
%ADD18R,1.750000X1.750000*%
%TD*%
%TA.AperFunction,ComponentPad*%
%ADD19C,2.500000*%
%TD*%
%TA.AperFunction,ComponentPad*%
%ADD20R,2.500000X2.500000*%
%TD*%
%TA.AperFunction,ComponentPad*%
%ADD21R,0.900000X1.500000*%
%TD*%
%TA.AperFunction,ComponentPad*%
%ADD22O,0.900000X1.500000*%
%TD*%
%TA.AperFunction,ViaPad*%
%ADD23C,0.800000*%
%TD*%
%TA.AperFunction,Conductor*%
%ADD24C,0.250000*%
%TD*%
%TA.AperFunction,Conductor*%
%ADD25C,0.254000*%
%TD*%
G04 APERTURE END LIST*
D10*
%TO.P,C1,1*%
%TO.N,VDD*%
X61000000Y-88500000D03*
%TO.P,C1,2*%
%TO.N,GND*%
X61000000Y-91000000D03*
%TD*%
D11*
%TO.P,R1,2*%
%TO.N,Net-(R1-Pad2)*%
X74160000Y-59500000D03*
D10*
%TO.P,R1,1*%
%TO.N,A_ILDA+*%
X64000000Y-59500000D03*
%TD*%
%TO.P,R2,1*%
%TO.N,Net-(J4-Pad1)*%
X61500000Y-55000000D03*
D11*
%TO.P,R2,2*%
%TO.N,DAC_A*%
X61500000Y-65160000D03*
%TD*%
D10*
%TO.P,R3,1*%
%TO.N,Net-(R1-Pad2)*%
X74000000Y-56500000D03*
D11*
%TO.P,R3,2*%
%TO.N,A_ILDA-*%
X63840000Y-56500000D03*
%TD*%
%TO.P,R4,2*%
%TO.N,+VIN*%
X77000000Y-66160000D03*
D10*
%TO.P,R4,1*%
%TO.N,Net-(R4-Pad1)*%
X77000000Y-56000000D03*
%TD*%
D11*
%TO.P,R5,2*%
%TO.N,Net-(R5-Pad2)*%
X74160000Y-87000000D03*
D10*
%TO.P,R5,1*%
%TO.N,B_ILDA+*%
X64000000Y-87000000D03*
%TD*%
%TO.P,R6,1*%
%TO.N,Net-(J5-Pad1)*%
X61500000Y-68500000D03*
D11*
%TO.P,R6,2*%
%TO.N,DAC_B*%
X61500000Y-78660000D03*
%TD*%
D10*
%TO.P,R7,1*%
%TO.N,Net-(R5-Pad2)*%
X74000000Y-84000000D03*
D11*
%TO.P,R7,2*%
%TO.N,B_ILDA-*%
X63840000Y-84000000D03*
%TD*%
%TO.P,R8,2*%
%TO.N,+VIN*%
X77000000Y-76840000D03*
D10*
%TO.P,R8,1*%
%TO.N,Net-(R8-Pad1)*%
X77000000Y-87000000D03*
%TD*%
D12*
%TO.P,RV1,3*%
%TO.N,Net-(RV1-Pad3)*%
X65420000Y-50500000D03*
%TO.P,RV1,2*%
%TO.N,A_ILDA-*%
X67960000Y-50500000D03*
%TO.P,RV1,1*%
%TO.N,Net-(J4-Pad2)*%
X70500000Y-50500000D03*
%TD*%
%TO.P,RV2,1*%
%TO.N,Net-(R4-Pad1)*%
X80500000Y-50500000D03*
%TO.P,RV2,2*%
%TO.N,Net-(RV2-Pad2)*%
X77960000Y-50500000D03*
%TO.P,RV2,3*%
%TO.N,GND*%
X75420000Y-50500000D03*
%TD*%
%TO.P,RV3,1*%
%TO.N,Net-(J5-Pad2)*%
X70500000Y-93000000D03*
%TO.P,RV3,2*%
%TO.N,B_ILDA-*%
X67960000Y-93000000D03*
%TO.P,RV3,3*%
%TO.N,Net-(RV3-Pad3)*%
X65420000Y-93000000D03*
%TD*%
%TO.P,RV4,3*%
%TO.N,GND*%
X75420000Y-93000000D03*
%TO.P,RV4,2*%
%TO.N,Net-(RV4-Pad2)*%
X77960000Y-93000000D03*
%TO.P,RV4,1*%
%TO.N,Net-(R8-Pad1)*%
X80500000Y-93000000D03*
%TD*%
D11*
%TO.P,U1,8*%
%TO.N,+VIN*%
X65000000Y-62380000D03*
%TO.P,U1,4*%
%TO.N,-VIN*%
X72620000Y-70000000D03*
%TO.P,U1,7*%
%TO.N,A_ILDA+*%
X67540000Y-62380000D03*
%TO.P,U1,3*%
%TO.N,Net-(RV2-Pad2)*%
X70080000Y-70000000D03*
%TO.P,U1,6*%
%TO.N,Net-(R1-Pad2)*%
X70080000Y-62380000D03*
%TO.P,U1,2*%
%TO.N,Net-(J4-Pad2)*%
X67540000Y-70000000D03*
%TO.P,U1,5*%
%TO.N,GND*%
X72620000Y-62380000D03*
D13*
%TO.P,U1,1*%
%TO.N,A_ILDA-*%
X65000000Y-70000000D03*
%TD*%
D11*
%TO.P,U2,8*%
%TO.N,DAC_A*%
X57500000Y-93620000D03*
%TO.P,U2,4*%
%TO.N,Net-(J3-Pad4)*%
X49880000Y-86000000D03*
%TO.P,U2,7*%
%TO.N,GND*%
X54960000Y-93620000D03*
%TO.P,U2,3*%
%TO.N,Net-(J3-Pad2)*%
X52420000Y-86000000D03*
%TO.P,U2,6*%
%TO.N,DAC_B*%
X52420000Y-93620000D03*
%TO.P,U2,2*%
%TO.N,Net-(J3-Pad5)*%
X54960000Y-86000000D03*
%TO.P,U2,5*%
%TO.N,Net-(J3-Pad3)*%
X49880000Y-93620000D03*
D13*
%TO.P,U2,1*%
%TO.N,VDD*%
X57500000Y-86000000D03*
%TD*%
%TO.P,U3,1*%
%TO.N,B_ILDA-*%
X65000000Y-81000000D03*
D11*
%TO.P,U3,5*%
%TO.N,GND*%
X72620000Y-73380000D03*
%TO.P,U3,2*%
%TO.N,Net-(J5-Pad2)*%
X67540000Y-81000000D03*
%TO.P,U3,6*%
%TO.N,Net-(R5-Pad2)*%
X70080000Y-73380000D03*
%TO.P,U3,3*%
%TO.N,Net-(RV4-Pad2)*%
X70080000Y-81000000D03*
%TO.P,U3,7*%
%TO.N,B_ILDA+*%
X67540000Y-73380000D03*
%TO.P,U3,4*%
%TO.N,-VIN*%
X72620000Y-81000000D03*
%TO.P,U3,8*%
%TO.N,+VIN*%
X65000000Y-73380000D03*
%TD*%
D14*
%TO.P,J4,1*%
%TO.N,Net-(J4-Pad1)*%
X58000000Y-59000000D03*
D15*
%TO.P,J4,2*%
%TO.N,Net-(J4-Pad2)*%
X55460000Y-59000000D03*
%TO.P,J4,3*%
%TO.N,Net-(J4-Pad3)*%
X52920000Y-59000000D03*
%TD*%
%TO.P,J5,3*%
%TO.N,Net-(J5-Pad3)*%
X52460000Y-74500000D03*
%TO.P,J5,2*%
%TO.N,Net-(J5-Pad2)*%
X55000000Y-74500000D03*
D14*
%TO.P,J5,1*%
%TO.N,Net-(J5-Pad1)*%
X57540000Y-74500000D03*
%TD*%
D16*
%TO.P,J6,S*%
%TO.N,GND*%
X44000000Y-67000000D03*
%TO.P,J6,T*%
%TO.N,AUDIO_L*%
X46400000Y-65000000D03*
%TO.P,J6,R*%
%TO.N,AUDIO_R*%
X51900000Y-65000000D03*
%TD*%
D11*
%TO.P,R9,2*%
%TO.N,AUDIO_L*%
X50000000Y-61160000D03*
D10*
%TO.P,R9,1*%
%TO.N,Net-(J4-Pad3)*%
X50000000Y-51000000D03*
%TD*%
%TO.P,R10,1*%
%TO.N,Net-(J5-Pad3)*%
X49500000Y-83000000D03*
D11*
%TO.P,R10,2*%
%TO.N,AUDIO_R*%
X49500000Y-72840000D03*
%TD*%
D17*
%TO.P,J2,3*%
%TO.N,A_ILDA-*%
X85500000Y-64000000D03*
%TO.P,J2,2*%
%TO.N,GND*%
X85500000Y-61500000D03*
D18*
%TO.P,J2,1*%
%TO.N,A_ILDA+*%
X85500000Y-59000000D03*
%TD*%
%TO.P,J7,1*%
%TO.N,B_ILDA+*%
X85500000Y-80000000D03*
D17*
%TO.P,J7,2*%
%TO.N,GND*%
X85500000Y-82500000D03*
%TO.P,J7,3*%
%TO.N,B_ILDA-*%
X85500000Y-85000000D03*
%TD*%
D19*
%TO.P,J1,2*%
%TO.N,GND*%
X41300000Y-54500000D03*
D20*
%TO.P,J1,1*%
%TO.N,+VIN*%
X41300000Y-49500000D03*
D19*
%TO.P,J1,3*%
%TO.N,-VIN*%
X41300000Y-59500000D03*
%TD*%
D15*
%TO.P,J3,7*%
%TO.N,LASER*%
X46000000Y-89240000D03*
%TO.P,J3,6*%
%TO.N,GND*%
X46000000Y-86700000D03*
%TO.P,J3,5*%
%TO.N,Net-(J3-Pad5)*%
X46000000Y-84160000D03*
%TO.P,J3,4*%
%TO.N,Net-(J3-Pad4)*%
X46000000Y-81620000D03*
%TO.P,J3,3*%
%TO.N,Net-(J3-Pad3)*%
X46000000Y-79080000D03*
%TO.P,J3,2*%
%TO.N,Net-(J3-Pad2)*%
X46000000Y-76540000D03*
D14*
%TO.P,J3,1*%
%TO.N,VDD*%
X46000000Y-74000000D03*
%TD*%
D19*
%TO.P,J8,2*%
%TO.N,VSS*%
X75200000Y-40100000D03*
D20*
%TO.P,J8,1*%
%TO.N,Net-(J8-Pad1)*%
X80200000Y-40100000D03*
D19*
%TO.P,J8,3*%
%TO.N,GND*%
X70200000Y-40100000D03*
%TO.P,J8,4*%
%TO.N,VSS*%
X65200000Y-40100000D03*
%TD*%
D21*
%TO.P,Q1,1*%
%TO.N,GND*%
X57600000Y-42800000D03*
D22*
%TO.P,Q1,3*%
%TO.N,Net-(J8-Pad1)*%
X60140000Y-42800000D03*
%TO.P,Q1,2*%
%TO.N,Net-(Q1-Pad2)*%
X58870000Y-42800000D03*
%TD*%
D11*
%TO.P,R11,2*%
%TO.N,LASER*%
X43940000Y-44800000D03*
D10*
%TO.P,R11,1*%
%TO.N,Net-(Q1-Pad2)*%
X54100000Y-44800000D03*
%TD*%
D23*
%TO.N,Net-(RV2-Pad2)*%
X75000000Y-63000000D03*
X75000000Y-65500000D03*
%TO.N,Net-(J4-Pad2)*%
X64500000Y-64500000D03*
X61500000Y-62000000D03*
%TO.N,DAC_B*%
X58000000Y-88000000D03*
X61000000Y-85000000D03*
%TD*%
D24*
%TO.N,Net-(RV2-Pad2)*%
X75000000Y-63000000D02*
X75000000Y-65500000D01*
%TO.N,Net-(J4-Pad2)*%
X64500000Y-64500000D02*
X62000000Y-62000000D01*
X62000000Y-62000000D02*
X61500000Y-62000000D01*
%TO.N,Net-(J5-Pad2)*%
X62625001Y-82125001D02*
X55000000Y-74500000D01*
X66414999Y-82125001D02*
X62625001Y-82125001D01*
X67540000Y-81000000D02*
X66414999Y-82125001D01*
%TO.N,DAC_B*%
X58000000Y-88000000D02*
X61000000Y-85000000D01*
%TO.N,LASER*%
X46000000Y-89240000D02*
X43040000Y-89240000D01*
X43040000Y-89240000D02*
X38200000Y-84400000D01*
X38200000Y-84400000D02*
X38200000Y-46900000D01*
X40300000Y-44800000D02*
X43940000Y-44800000D01*
X38200000Y-46900000D02*
X40300000Y-44800000D01*
%TD*%
D25*
%TO.N,GND*%
G36*
X83893425Y-35842907D02*
G01*
X83540270Y-36371442D01*
X83297012Y-36958719D01*
X83173000Y-37582168D01*
X83173000Y-38217832D01*
X83297012Y-38841281D01*
X83540270Y-39428558D01*
X83893425Y-39957093D01*
X84342907Y-40406575D01*
X84871442Y-40759730D01*
X85458719Y-41002988D01*
X86082168Y-41127000D01*
X86717832Y-41127000D01*
X87341281Y-41002988D01*
X87928558Y-40759730D01*
X88457093Y-40406575D01*
X88840001Y-40023667D01*
X88840000Y-95467721D01*
X88830420Y-95565424D01*
X88811420Y-95628357D01*
X88780554Y-95686406D01*
X88739011Y-95737343D01*
X88688356Y-95779248D01*
X88630529Y-95810515D01*
X88567728Y-95829956D01*
X88472165Y-95840000D01*
X41523668Y-95840000D01*
X41906575Y-95457093D01*
X42259730Y-94928558D01*
X42502988Y-94341281D01*
X42627000Y-93717832D01*
X42627000Y-93478665D01*
X48445000Y-93478665D01*
X48445000Y-93761335D01*
X48500147Y-94038574D01*
X48608320Y-94299727D01*
X48765363Y-94534759D01*
X48965241Y-94734637D01*
X49200273Y-94891680D01*
X49461426Y-94999853D01*
X49738665Y-95055000D01*
X50021335Y-95055000D01*
X50298574Y-94999853D01*
X50559727Y-94891680D01*
X50794759Y-94734637D01*
X50994637Y-94534759D01*
X51150000Y-94302241D01*
X51305363Y-94534759D01*
X51505241Y-94734637D01*
X51740273Y-94891680D01*
X52001426Y-94999853D01*
X52278665Y-95055000D01*
X52561335Y-95055000D01*
X52838574Y-94999853D01*
X53099727Y-94891680D01*
X53334759Y-94734637D01*
X53534637Y-94534759D01*
X53691680Y-94299727D01*
X53696067Y-94289135D01*
X53807615Y-94475131D01*
X53996586Y-94683519D01*
X54222580Y-94851037D01*
X54476913Y-94971246D01*
X54610961Y-95011904D01*
X54833000Y-94889915D01*
X54833000Y-93747000D01*
X54813000Y-93747000D01*
X54813000Y-93493000D01*
X54833000Y-93493000D01*
X54833000Y-92350085D01*
X55087000Y-92350085D01*
X55087000Y-93493000D01*
X55107000Y-93493000D01*
X55107000Y-93747000D01*
X55087000Y-93747000D01*
X55087000Y-94889915D01*
X55309039Y-95011904D01*
X55443087Y-94971246D01*
X55697420Y-94851037D01*
X55923414Y-94683519D01*
X56112385Y-94475131D01*
X56223933Y-94289135D01*
X56228320Y-94299727D01*
X56385363Y-94534759D01*
X56585241Y-94734637D01*
X56820273Y-94891680D01*
X57081426Y-94999853D01*
X57358665Y-95055000D01*
X57641335Y-95055000D01*
X57918574Y-94999853D01*
X58179727Y-94891680D01*
X58414759Y-94734637D01*
X58614637Y-94534759D01*
X58771680Y-94299727D01*
X58879853Y-94038574D01*
X58935000Y-93761335D01*
X58935000Y-93478665D01*
X58879853Y-93201426D01*
X58771680Y-92940273D01*
X58722416Y-92866544D01*
X64065000Y-92866544D01*
X64065000Y-93133456D01*
X64117072Y-93395239D01*
X64219215Y-93641833D01*
X64367503Y-93863762D01*
X64556238Y-94052497D01*
X64778167Y-94200785D01*
X65024761Y-94302928D01*
X65286544Y-94355000D01*
X65553456Y-94355000D01*
X65815239Y-94302928D01*
X66061833Y-94200785D01*
X66283762Y-94052497D01*
X66472497Y-93863762D01*
X66620785Y-93641833D01*
X66690000Y-93474734D01*
X66759215Y-93641833D01*
X66907503Y-93863762D01*
X67096238Y-94052497D01*
X67318167Y-94200785D01*
X67564761Y-94302928D01*
X67826544Y-94355000D01*
X68093456Y-94355000D01*
X68355239Y-94302928D01*
X68601833Y-94200785D01*
X68823762Y-94052497D01*
X69012497Y-93863762D01*
X69160785Y-93641833D01*
X69230000Y-93474734D01*
X69299215Y-93641833D01*
X69447503Y-93863762D01*
X69636238Y-94052497D01*
X69858167Y-94200785D01*
X70104761Y-94302928D01*
X70366544Y-94355000D01*
X70633456Y-94355000D01*
X70895239Y-94302928D01*
X71141833Y-94200785D01*
X71363762Y-94052497D01*
X71480699Y-93935560D01*
X74664045Y-93935560D01*
X74725932Y-94171368D01*
X74967790Y-94284266D01*
X75227027Y-94347811D01*
X75493680Y-94359561D01*
X75757501Y-94319063D01*
X76008353Y-94227875D01*
X76114068Y-94171368D01*
X76175955Y-93935560D01*
X75420000Y-93179605D01*
X74664045Y-93935560D01*
X71480699Y-93935560D01*
X71552497Y-93863762D01*
X71700785Y-93641833D01*
X71802928Y-93395239D01*
X71855000Y-93133456D01*
X71855000Y-93073680D01*
X74060439Y-93073680D01*
X74100937Y-93337501D01*
X74192125Y-93588353D01*
X74248632Y-93694068D01*
X74484440Y-93755955D01*
X75240395Y-93000000D01*
X75599605Y-93000000D01*
X76355560Y-93755955D01*
X76591368Y-93694068D01*
X76691764Y-93478993D01*
X76759215Y-93641833D01*
X76907503Y-93863762D01*
X77096238Y-94052497D01*
X77318167Y-94200785D01*
X77564761Y-94302928D01*
X77826544Y-94355000D01*
X78093456Y-94355000D01*
X78355239Y-94302928D01*
X78601833Y-94200785D01*
X78823762Y-94052497D01*
X79012497Y-93863762D01*
X79160785Y-93641833D01*
X79230000Y-93474734D01*
X79299215Y-93641833D01*
X79447503Y-93863762D01*
X79636238Y-94052497D01*
X79858167Y-94200785D01*
X80104761Y-94302928D01*
X80366544Y-94355000D01*
X80633456Y-94355000D01*
X80895239Y-94302928D01*
X81141833Y-94200785D01*
X81363762Y-94052497D01*
X81552497Y-93863762D01*
X81700785Y-93641833D01*
X81802928Y-93395239D01*
X81855000Y-93133456D01*
X81855000Y-92866544D01*
X81802928Y-92604761D01*
X81700785Y-92358167D01*
X81552497Y-92136238D01*
X81363762Y-91947503D01*
X81141833Y-91799215D01*
X80895239Y-91697072D01*
X80633456Y-91645000D01*
X80366544Y-91645000D01*
X80104761Y-91697072D01*
X79858167Y-91799215D01*
X79636238Y-91947503D01*
X79447503Y-92136238D01*
X79299215Y-92358167D01*
X79230000Y-92525266D01*
X79160785Y-92358167D01*
X79012497Y-92136238D01*
X78823762Y-91947503D01*
X78601833Y-91799215D01*
X78355239Y-91697072D01*
X78093456Y-91645000D01*
X77826544Y-91645000D01*
X77564761Y-91697072D01*
X77318167Y-91799215D01*
X77096238Y-91947503D01*
X76907503Y-92136238D01*
X76759215Y-92358167D01*
X76689562Y-92526324D01*
X76647875Y-92411647D01*
X76591368Y-92305932D01*
X76355560Y-92244045D01*
X75599605Y-93000000D01*
X75240395Y-93000000D01*
X74484440Y-92244045D01*
X74248632Y-92305932D01*
X74135734Y-92547790D01*
X74072189Y-92807027D01*
X74060439Y-93073680D01*
X71855000Y-93073680D01*
X71855000Y-92866544D01*
X71802928Y-92604761D01*
X71700785Y-92358167D01*
X71552497Y-92136238D01*
X71480699Y-92064440D01*
X74664045Y-92064440D01*
X75420000Y-92820395D01*
X76175955Y-92064440D01*
X76114068Y-91828632D01*
X75872210Y-91715734D01*
X75612973Y-91652189D01*
X75346320Y-91640439D01*
X75082499Y-91680937D01*
X74831647Y-91772125D01*
X74725932Y-91828632D01*
X74664045Y-92064440D01*
X71480699Y-92064440D01*
X71363762Y-91947503D01*
X71141833Y-91799215D01*
X70895239Y-91697072D01*
X70633456Y-91645000D01*
X70366544Y-91645000D01*
X70104761Y-91697072D01*
X69858167Y-91799215D01*
X69636238Y-91947503D01*
X69447503Y-92136238D01*
X69299215Y-92358167D01*
X69230000Y-92525266D01*
X69160785Y-92358167D01*
X69012497Y-92136238D01*
X68823762Y-91947503D01*
X68601833Y-91799215D01*
X68355239Y-91697072D01*
X68093456Y-91645000D01*
X67826544Y-91645000D01*
X67564761Y-91697072D01*
X67318167Y-91799215D01*
X67096238Y-91947503D01*
X66907503Y-92136238D01*
X66759215Y-92358167D01*
X66690000Y-92525266D01*
X66620785Y-92358167D01*
X66472497Y-92136238D01*
X66283762Y-91947503D01*
X66061833Y-91799215D01*
X65815239Y-91697072D01*
X65553456Y-91645000D01*
X65286544Y-91645000D01*
X65024761Y-91697072D01*
X64778167Y-91799215D01*
X64556238Y-91947503D01*
X64367503Y-92136238D01*
X64219215Y-92358167D01*
X64117072Y-92604761D01*
X64065000Y-92866544D01*
X58722416Y-92866544D01*
X58614637Y-92705241D01*
X58414759Y-92505363D01*
X58179727Y-92348320D01*
X57918574Y-92240147D01*
X57641335Y-92185000D01*
X57358665Y-92185000D01*
X57081426Y-92240147D01*
X56820273Y-92348320D01*
X56585241Y-92505363D01*
X56385363Y-92705241D01*
X56228320Y-92940273D01*
X56223933Y-92950865D01*
X56112385Y-92764869D01*
X55923414Y-92556481D01*
X55697420Y-92388963D01*
X55443087Y-92268754D01*
X55309039Y-92228096D01*
X55087000Y-92350085D01*
X54833000Y-92350085D01*
X54610961Y-92228096D01*
X54476913Y-92268754D01*
X54222580Y-92388963D01*
X53996586Y-92556481D01*
X53807615Y-92764869D01*
X53696067Y-92950865D01*
X53691680Y-92940273D01*
X53534637Y-92705241D01*
X53334759Y-92505363D01*
X53099727Y-92348320D01*
X52838574Y-92240147D01*
X52561335Y-92185000D01*
X52278665Y-92185000D01*
X52001426Y-92240147D01*
X51740273Y-92348320D01*
X51505241Y-92505363D01*
X51305363Y-92705241D01*
X51150000Y-92937759D01*
X50994637Y-92705241D01*
X50794759Y-92505363D01*
X50559727Y-92348320D01*
X50298574Y-92240147D01*
X50021335Y-92185000D01*
X49738665Y-92185000D01*
X49461426Y-92240147D01*
X49200273Y-92348320D01*
X48965241Y-92505363D01*
X48765363Y-92705241D01*
X48608320Y-92940273D01*
X48500147Y-93201426D01*
X48445000Y-93478665D01*
X42627000Y-93478665D01*
X42627000Y-93082168D01*
X42502988Y-92458719D01*
X42309958Y-91992702D01*
X60186903Y-91992702D01*
X60258486Y-92236671D01*
X60513996Y-92357571D01*
X60788184Y-92426300D01*
X61070512Y-92440217D01*
X61350130Y-92398787D01*
X61616292Y-92303603D01*
X61741514Y-92236671D01*
X61813097Y-91992702D01*
X61000000Y-91179605D01*
X60186903Y-91992702D01*
X42309958Y-91992702D01*
X42259730Y-91871442D01*
X41906575Y-91342907D01*
X41634180Y-91070512D01*
X59559783Y-91070512D01*
X59601213Y-91350130D01*
X59696397Y-91616292D01*
X59763329Y-91741514D01*
X60007298Y-91813097D01*
X60820395Y-91000000D01*
X61179605Y-91000000D01*
X61992702Y-91813097D01*
X62236671Y-91741514D01*
X62357571Y-91486004D01*
X62426300Y-91211816D01*
X62440217Y-90929488D01*
X62398787Y-90649870D01*
X62303603Y-90383708D01*
X62236671Y-90258486D01*
X61992702Y-90186903D01*
X61179605Y-91000000D01*
X60820395Y-91000000D01*
X60007298Y-90186903D01*
X59763329Y-90258486D01*
X59642429Y-90513996D01*
X59573700Y-90788184D01*
X59559783Y-91070512D01*
X41634180Y-91070512D01*
X41457093Y-90893425D01*
X40928558Y-90540270D01*
X40341281Y-90297012D01*
X39717832Y-90173000D01*
X39082168Y-90173000D01*
X38458719Y-90297012D01*
X37871442Y-90540270D01*
X37342907Y-90893425D01*
X37027000Y-91209332D01*
X37027000Y-46900000D01*
X37436324Y-46900000D01*
X37440001Y-46937333D01*
X37440000Y-84362678D01*
X37436324Y-84400000D01*
X37440000Y-84437322D01*
X37440000Y-84437332D01*
X37450997Y-84548985D01*
X37494454Y-84692246D01*
X37565026Y-84824276D01*
X37597144Y-84863411D01*
X37659999Y-84940001D01*
X37689003Y-84963804D01*
X42476201Y-89751003D01*
X42499999Y-89780001D01*
X42615724Y-89874974D01*
X42747753Y-89945546D01*
X42891014Y-89989003D01*
X43002667Y-90000000D01*
X43002675Y-90000000D01*
X43040000Y-90003676D01*
X43077325Y-90000000D01*
X44721822Y-90000000D01*
X44846525Y-90186632D01*
X45053368Y-90393475D01*
X45296589Y-90555990D01*
X45566842Y-90667932D01*
X45853740Y-90725000D01*
X46146260Y-90725000D01*
X46433158Y-90667932D01*
X46703411Y-90555990D01*
X46946632Y-90393475D01*
X47153475Y-90186632D01*
X47315990Y-89943411D01*
X47427932Y-89673158D01*
X47485000Y-89386260D01*
X47485000Y-89093740D01*
X47427932Y-88806842D01*
X47315990Y-88536589D01*
X47153475Y-88293368D01*
X46946632Y-88086525D01*
X46764466Y-87964805D01*
X46881355Y-87895178D01*
X47097588Y-87700269D01*
X47271641Y-87466920D01*
X47396825Y-87204099D01*
X47441476Y-87056890D01*
X47320155Y-86827000D01*
X46127000Y-86827000D01*
X46127000Y-86847000D01*
X45873000Y-86847000D01*
X45873000Y-86827000D01*
X44679845Y-86827000D01*
X44558524Y-87056890D01*
X44603175Y-87204099D01*
X44728359Y-87466920D01*
X44902412Y-87700269D01*
X45118645Y-87895178D01*
X45235534Y-87964805D01*
X45053368Y-88086525D01*
X44846525Y-88293368D01*
X44721822Y-88480000D01*
X43354802Y-88480000D01*
X38960000Y-84085199D01*
X38960000Y-73150000D01*
X44511928Y-73150000D01*
X44511928Y-74850000D01*
X44524188Y-74974482D01*
X44560498Y-75094180D01*
X44619463Y-75204494D01*
X44698815Y-75301185D01*
X44795506Y-75380537D01*
X44905820Y-75439502D01*
X44978380Y-75461513D01*
X44846525Y-75593368D01*
X44684010Y-75836589D01*
X44572068Y-76106842D01*
X44515000Y-76393740D01*
X44515000Y-76686260D01*
X44572068Y-76973158D01*
X44684010Y-77243411D01*
X44846525Y-77486632D01*
X45053368Y-77693475D01*
X45227760Y-77810000D01*
X45053368Y-77926525D01*
X44846525Y-78133368D01*
X44684010Y-78376589D01*
X44572068Y-78646842D01*
X44515000Y-78933740D01*
X44515000Y-79226260D01*
X44572068Y-79513158D01*
X44684010Y-79783411D01*
X44846525Y-80026632D01*
X45053368Y-80233475D01*
X45227760Y-80350000D01*
X45053368Y-80466525D01*
X44846525Y-80673368D01*
X44684010Y-80916589D01*
X44572068Y-81186842D01*
X44515000Y-81473740D01*
X44515000Y-81766260D01*
X44572068Y-82053158D01*
X44684010Y-82323411D01*
X44846525Y-82566632D01*
X45053368Y-82773475D01*
X45227760Y-82890000D01*
X45053368Y-83006525D01*
X44846525Y-83213368D01*
X44684010Y-83456589D01*
X44572068Y-83726842D01*
X44515000Y-84013740D01*
X44515000Y-84306260D01*
X44572068Y-84593158D01*
X44684010Y-84863411D01*
X44846525Y-85106632D01*
X45053368Y-85313475D01*
X45235534Y-85435195D01*
X45118645Y-85504822D01*
X44902412Y-85699731D01*
X44728359Y-85933080D01*
X44603175Y-86195901D01*
X44558524Y-86343110D01*
X44679845Y-86573000D01*
X45873000Y-86573000D01*
X45873000Y-86553000D01*
X46127000Y-86553000D01*
X46127000Y-86573000D01*
X47320155Y-86573000D01*
X47441476Y-86343110D01*
X47396825Y-86195901D01*
X47271641Y-85933080D01*
X47216136Y-85858665D01*
X48445000Y-85858665D01*
X48445000Y-86141335D01*
X48500147Y-86418574D01*
X48608320Y-86679727D01*
X48765363Y-86914759D01*
X48965241Y-87114637D01*
X49200273Y-87271680D01*
X49461426Y-87379853D01*
X49738665Y-87435000D01*
X50021335Y-87435000D01*
X50298574Y-87379853D01*
X50559727Y-87271680D01*
X50794759Y-87114637D01*
X50994637Y-86914759D01*
X51150000Y-86682241D01*
X51305363Y-86914759D01*
X51505241Y-87114637D01*
X51740273Y-87271680D01*
X52001426Y-87379853D01*
X52278665Y-87435000D01*
X52561335Y-87435000D01*
X52838574Y-87379853D01*
X53099727Y-87271680D01*
X53334759Y-87114637D01*
X53534637Y-86914759D01*
X53690000Y-86682241D01*
X53845363Y-86914759D01*
X54045241Y-87114637D01*
X54280273Y-87271680D01*
X54541426Y-87379853D01*
X54818665Y-87435000D01*
X55101335Y-87435000D01*
X55378574Y-87379853D01*
X55639727Y-87271680D01*
X55874759Y-87114637D01*
X56073357Y-86916039D01*
X56074188Y-86924482D01*
X56110498Y-87044180D01*
X56169463Y-87154494D01*
X56248815Y-87251185D01*
X56345506Y-87330537D01*
X56455820Y-87389502D01*
X56575518Y-87425812D01*
X56700000Y-87438072D01*
X57130685Y-87438072D01*
X57082795Y-87509744D01*
X57004774Y-87698102D01*
X56965000Y-87898061D01*
X56965000Y-88101939D01*
X57004774Y-88301898D01*
X57082795Y-88490256D01*
X57196063Y-88659774D01*
X57340226Y-88803937D01*
X57509744Y-88917205D01*
X57698102Y-88995226D01*
X57898061Y-89035000D01*
X58101939Y-89035000D01*
X58301898Y-88995226D01*
X58490256Y-88917205D01*
X58659774Y-88803937D01*
X58803937Y-88659774D01*
X58917205Y-88490256D01*
X58971712Y-88358665D01*
X59565000Y-88358665D01*
X59565000Y-88641335D01*
X59620147Y-88918574D01*
X59728320Y-89179727D01*
X59885363Y-89414759D01*
X60085241Y-89614637D01*
X60285869Y-89748692D01*
X60258486Y-89763329D01*
X60186903Y-90007298D01*
X61000000Y-90820395D01*
X61813097Y-90007298D01*
X61741514Y-89763329D01*
X61712659Y-89749676D01*
X61914759Y-89614637D01*
X62114637Y-89414759D01*
X62271680Y-89179727D01*
X62379853Y-88918574D01*
X62435000Y-88641335D01*
X62435000Y-88358665D01*
X62379853Y-88081426D01*
X62271680Y-87820273D01*
X62114637Y-87585241D01*
X61914759Y-87385363D01*
X61679727Y-87228320D01*
X61418574Y-87120147D01*
X61141335Y-87065000D01*
X60858665Y-87065000D01*
X60581426Y-87120147D01*
X60320273Y-87228320D01*
X60085241Y-87385363D01*
X59885363Y-87585241D01*
X59728320Y-87820273D01*
X59620147Y-88081426D01*
X59565000Y-88358665D01*
X58971712Y-88358665D01*
X58995226Y-88301898D01*
X59035000Y-88101939D01*
X59035000Y-88039801D01*
X60216136Y-86858665D01*
X62565000Y-86858665D01*
X62565000Y-87141335D01*
X62620147Y-87418574D01*
X62728320Y-87679727D01*
X62885363Y-87914759D01*
X63085241Y-88114637D01*
X63320273Y-88271680D01*
X63581426Y-88379853D01*
X63858665Y-88435000D01*
X64141335Y-88435000D01*
X64418574Y-88379853D01*
X64679727Y-88271680D01*
X64914759Y-88114637D01*
X65114637Y-87914759D01*
X65271680Y-87679727D01*
X65379853Y-87418574D01*
X65435000Y-87141335D01*
X65435000Y-86858665D01*
X72725000Y-86858665D01*
X72725000Y-87141335D01*
X72780147Y-87418574D01*
X72888320Y-87679727D01*
X73045363Y-87914759D01*
X73245241Y-88114637D01*
X73480273Y-88271680D01*
X73741426Y-88379853D01*
X74018665Y-88435000D01*
X74301335Y-88435000D01*
X74578574Y-88379853D01*
X74839727Y-88271680D01*
X75074759Y-88114637D01*
X75274637Y-87914759D01*
X75431680Y-87679727D01*
X75539853Y-87418574D01*
X75580000Y-87216744D01*
X75620147Y-87418574D01*
X75728320Y-87679727D01*
X75885363Y-87914759D01*
X76085241Y-88114637D01*
X76320273Y-88271680D01*
X76581426Y-88379853D01*
X76858665Y-88435000D01*
X77141335Y-88435000D01*
X77418574Y-88379853D01*
X77679727Y-88271680D01*
X77914759Y-88114637D01*
X78114637Y-87914759D01*
X78271680Y-87679727D01*
X78379853Y-87418574D01*
X78435000Y-87141335D01*
X78435000Y-86858665D01*
X78379853Y-86581426D01*
X78271680Y-86320273D01*
X78114637Y-86085241D01*
X77914759Y-85885363D01*
X77679727Y-85728320D01*
X77418574Y-85620147D01*
X77141335Y-85565000D01*
X76858665Y-85565000D01*
X76581426Y-85620147D01*
X76320273Y-85728320D01*
X76085241Y-85885363D01*
X75885363Y-86085241D01*
X75728320Y-86320273D01*
X75620147Y-86581426D01*
X75580000Y-86783256D01*
X75539853Y-86581426D01*
X75431680Y-86320273D01*
X75274637Y-86085241D01*
X75074759Y-85885363D01*
X74839727Y-85728320D01*
X74578574Y-85620147D01*
X74301335Y-85565000D01*
X74018665Y-85565000D01*
X73741426Y-85620147D01*
X73480273Y-85728320D01*
X73245241Y-85885363D01*
X73045363Y-86085241D01*
X72888320Y-86320273D01*
X72780147Y-86581426D01*
X72725000Y-86858665D01*
X65435000Y-86858665D01*
X65379853Y-86581426D01*
X65271680Y-86320273D01*
X65114637Y-86085241D01*
X64914759Y-85885363D01*
X64679727Y-85728320D01*
X64418574Y-85620147D01*
X64141335Y-85565000D01*
X63858665Y-85565000D01*
X63581426Y-85620147D01*
X63320273Y-85728320D01*
X63085241Y-85885363D01*
X62885363Y-86085241D01*
X62728320Y-86320273D01*
X62620147Y-86581426D01*
X62565000Y-86858665D01*
X60216136Y-86858665D01*
X61039802Y-86035000D01*
X61101939Y-86035000D01*
X61301898Y-85995226D01*
X61490256Y-85917205D01*
X61659774Y-85803937D01*
X61803937Y-85659774D01*
X61917205Y-85490256D01*
X61995226Y-85301898D01*
X62035000Y-85101939D01*
X62035000Y-84898061D01*
X61995226Y-84698102D01*
X61917205Y-84509744D01*
X61803937Y-84340226D01*
X61659774Y-84196063D01*
X61490256Y-84082795D01*
X61301898Y-84004774D01*
X61101939Y-83965000D01*
X60898061Y-83965000D01*
X60698102Y-84004774D01*
X60509744Y-84082795D01*
X60340226Y-84196063D01*
X60196063Y-84340226D01*
X60082795Y-84509744D01*
X60004774Y-84698102D01*
X59965000Y-84898061D01*
X59965000Y-84960198D01*
X58938072Y-85987127D01*
X58938072Y-85200000D01*
X58925812Y-85075518D01*
X58889502Y-84955820D01*
X58830537Y-84845506D01*
X58751185Y-84748815D01*
X58654494Y-84669463D01*
X58544180Y-84610498D01*
X58424482Y-84574188D01*
X58300000Y-84561928D01*
X56700000Y-84561928D01*
X56575518Y-84574188D01*
X56455820Y-84610498D01*
X56345506Y-84669463D01*
X56248815Y-84748815D01*
X56169463Y-84845506D01*
X56110498Y-84955820D01*
X56074188Y-85075518D01*
X56073357Y-85083961D01*
X55874759Y-84885363D01*
X55639727Y-84728320D01*
X55378574Y-84620147D01*
X55101335Y-84565000D01*
X54818665Y-84565000D01*
X54541426Y-84620147D01*
X54280273Y-84728320D01*
X54045241Y-84885363D01*
X53845363Y-85085241D01*
X53690000Y-85317759D01*
X53534637Y-85085241D01*
X53334759Y-84885363D01*
X53099727Y-84728320D01*
X52838574Y-84620147D01*
X52561335Y-84565000D01*
X52278665Y-84565000D01*
X52001426Y-84620147D01*
X51740273Y-84728320D01*
X51505241Y-84885363D01*
X51305363Y-85085241D01*
X51150000Y-85317759D01*
X50994637Y-85085241D01*
X50794759Y-84885363D01*
X50559727Y-84728320D01*
X50298574Y-84620147D01*
X50021335Y-84565000D01*
X49738665Y-84565000D01*
X49461426Y-84620147D01*
X49200273Y-84728320D01*
X48965241Y-84885363D01*
X48765363Y-85085241D01*
X48608320Y-85320273D01*
X48500147Y-85581426D01*
X48445000Y-85858665D01*
X47216136Y-85858665D01*
X47097588Y-85699731D01*
X46881355Y-85504822D01*
X46764466Y-85435195D01*
X46946632Y-85313475D01*
X47153475Y-85106632D01*
X47315990Y-84863411D01*
X47427932Y-84593158D01*
X47485000Y-84306260D01*
X47485000Y-84013740D01*
X47427932Y-83726842D01*
X47315990Y-83456589D01*
X47153475Y-83213368D01*
X46946632Y-83006525D01*
X46772240Y-82890000D01*
X46819136Y-82858665D01*
X48065000Y-82858665D01*
X48065000Y-83141335D01*
X48120147Y-83418574D01*
X48228320Y-83679727D01*
X48385363Y-83914759D01*
X48585241Y-84114637D01*
X48820273Y-84271680D01*
X49081426Y-84379853D01*
X49358665Y-84435000D01*
X49641335Y-84435000D01*
X49918574Y-84379853D01*
X50179727Y-84271680D01*
X50414759Y-84114637D01*
X50614637Y-83914759D01*
X50771680Y-83679727D01*
X50879853Y-83418574D01*
X50935000Y-83141335D01*
X50935000Y-82858665D01*
X50879853Y-82581426D01*
X50771680Y-82320273D01*
X50614637Y-82085241D01*
X50414759Y-81885363D01*
X50179727Y-81728320D01*
X49918574Y-81620147D01*
X49641335Y-81565000D01*
X49358665Y-81565000D01*
X49081426Y-81620147D01*
X48820273Y-81728320D01*
X48585241Y-81885363D01*
X48385363Y-82085241D01*
X48228320Y-82320273D01*
X48120147Y-82581426D01*
X48065000Y-82858665D01*
X46819136Y-82858665D01*
X46946632Y-82773475D01*
X47153475Y-82566632D01*
X47315990Y-82323411D01*
X47427932Y-82053158D01*
X47485000Y-81766260D01*
X47485000Y-81473740D01*
X47427932Y-81186842D01*
X47315990Y-80916589D01*
X47153475Y-80673368D01*
X46946632Y-80466525D01*
X46772240Y-80350000D01*
X46946632Y-80233475D01*
X47153475Y-80026632D01*
X47315990Y-79783411D01*
X47427932Y-79513158D01*
X47485000Y-79226260D01*
X47485000Y-78933740D01*
X47427932Y-78646842D01*
X47315990Y-78376589D01*
X47153475Y-78133368D01*
X46946632Y-77926525D01*
X46772240Y-77810000D01*
X46946632Y-77693475D01*
X47153475Y-77486632D01*
X47315990Y-77243411D01*
X47427932Y-76973158D01*
X47485000Y-76686260D01*
X47485000Y-76393740D01*
X47427932Y-76106842D01*
X47315990Y-75836589D01*
X47153475Y-75593368D01*
X47021620Y-75461513D01*
X47094180Y-75439502D01*
X47204494Y-75380537D01*
X47301185Y-75301185D01*
X47380537Y-75204494D01*
X47439502Y-75094180D01*
X47475812Y-74974482D01*
X47488072Y-74850000D01*
X47488072Y-74353740D01*
X50975000Y-74353740D01*
X50975000Y-74646260D01*
X51032068Y-74933158D01*
X51144010Y-75203411D01*
X51306525Y-75446632D01*
X51513368Y-75653475D01*
X51756589Y-75815990D01*
X52026842Y-75927932D01*
X52313740Y-75985000D01*
X52606260Y-75985000D01*
X52893158Y-75927932D01*
X53163411Y-75815990D01*
X53406632Y-75653475D01*
X53613475Y-75446632D01*
X53730000Y-75272240D01*
X53846525Y-75446632D01*
X54053368Y-75653475D01*
X54296589Y-75815990D01*
X54566842Y-75927932D01*
X54853740Y-75985000D01*
X55146260Y-75985000D01*
X55366408Y-75941209D01*
X62061202Y-82636004D01*
X62085000Y-82665002D01*
X62200725Y-82759975D01*
X62332754Y-82830547D01*
X62476015Y-82874004D01*
X62587668Y-82885001D01*
X62587678Y-82885001D01*
X62625001Y-82888677D01*
X62662324Y-82885001D01*
X62925783Y-82885001D01*
X62925241Y-82885363D01*
X62725363Y-83085241D01*
X62568320Y-83320273D01*
X62460147Y-83581426D01*
X62405000Y-83858665D01*
X62405000Y-84141335D01*
X62460147Y-84418574D01*
X62568320Y-84679727D01*
X62725363Y-84914759D01*
X62925241Y-85114637D01*
X63160273Y-85271680D01*
X63421426Y-85379853D01*
X63698665Y-85435000D01*
X63981335Y-85435000D01*
X64258574Y-85379853D01*
X64519727Y-85271680D01*
X64754759Y-85114637D01*
X64954637Y-84914759D01*
X65111680Y-84679727D01*
X65219853Y-84418574D01*
X65275000Y-84141335D01*
X65275000Y-83858665D01*
X72565000Y-83858665D01*
X72565000Y-84141335D01*
X72620147Y-84418574D01*
X72728320Y-84679727D01*
X72885363Y-84914759D01*
X73085241Y-85114637D01*
X73320273Y-85271680D01*
X73581426Y-85379853D01*
X73858665Y-85435000D01*
X74141335Y-85435000D01*
X74418574Y-85379853D01*
X74679727Y-85271680D01*
X74914759Y-85114637D01*
X75114637Y-84914759D01*
X75157053Y-84851278D01*
X83990000Y-84851278D01*
X83990000Y-85148722D01*
X84048029Y-85440451D01*
X84161856Y-85715253D01*
X84327107Y-85962569D01*
X84537431Y-86172893D01*
X84784747Y-86338144D01*
X85059549Y-86451971D01*
X85351278Y-86510000D01*
X85648722Y-86510000D01*
X85940451Y-86451971D01*
X86215253Y-86338144D01*
X86462569Y-86172893D01*
X86672893Y-85962569D01*
X86838144Y-85715253D01*
X86951971Y-85440451D01*
X87010000Y-85148722D01*
X87010000Y-84851278D01*
X86951971Y-84559549D01*
X86838144Y-84284747D01*
X86672893Y-84037431D01*
X86462569Y-83827107D01*
X86309407Y-83724768D01*
X86366635Y-83546240D01*
X85500000Y-82679605D01*
X84633365Y-83546240D01*
X84690593Y-83724768D01*
X84537431Y-83827107D01*
X84327107Y-84037431D01*
X84161856Y-84284747D01*
X84048029Y-84559549D01*
X83990000Y-84851278D01*
X75157053Y-84851278D01*
X75271680Y-84679727D01*
X75379853Y-84418574D01*
X75435000Y-84141335D01*
X75435000Y-83858665D01*
X75379853Y-83581426D01*
X75271680Y-83320273D01*
X75114637Y-83085241D01*
X74914759Y-82885363D01*
X74679727Y-82728320D01*
X74418574Y-82620147D01*
X74154120Y-82567543D01*
X83984196Y-82567543D01*
X84026499Y-82861963D01*
X84125428Y-83142474D01*
X84202132Y-83285975D01*
X84453760Y-83366635D01*
X85320395Y-82500000D01*
X85306253Y-82485858D01*
X85485858Y-82306253D01*
X85500000Y-82320395D01*
X85514143Y-82306253D01*
X85693748Y-82485858D01*
X85679605Y-82500000D01*
X86546240Y-83366635D01*
X86797868Y-83285975D01*
X86926267Y-83017671D01*
X86999855Y-82729474D01*
X87015804Y-82432457D01*
X86973501Y-82138037D01*
X86874572Y-81857526D01*
X86797868Y-81714025D01*
X86546242Y-81633366D01*
X86662267Y-81517341D01*
X86611698Y-81466772D01*
X86619180Y-81464502D01*
X86729494Y-81405537D01*
X86826185Y-81326185D01*
X86905537Y-81229494D01*
X86964502Y-81119180D01*
X87000812Y-80999482D01*
X87013072Y-80875000D01*
X87013072Y-79125000D01*
X87000812Y-79000518D01*
X86964502Y-78880820D01*
X86905537Y-78770506D01*
X86826185Y-78673815D01*
X86729494Y-78594463D01*
X86619180Y-78535498D01*
X86499482Y-78499188D01*
X86375000Y-78486928D01*
X84625000Y-78486928D01*
X84500518Y-78499188D01*
X84380820Y-78535498D01*
X84270506Y-78594463D01*
X84173815Y-78673815D01*
X84094463Y-78770506D01*
X84035498Y-78880820D01*
X83999188Y-79000518D01*
X83986928Y-79125000D01*
X83986928Y-80875000D01*
X83999188Y-80999482D01*
X84035498Y-81119180D01*
X84094463Y-81229494D01*
X84173815Y-81326185D01*
X84270506Y-81405537D01*
X84380820Y-81464502D01*
X84388302Y-81466772D01*
X84337733Y-81517341D01*
X84453758Y-81633366D01*
X84202132Y-81714025D01*
X84073733Y-81982329D01*
X84000145Y-82270526D01*
X83984196Y-82567543D01*
X74154120Y-82567543D01*
X74141335Y-82565000D01*
X73858665Y-82565000D01*
X73581426Y-82620147D01*
X73320273Y-82728320D01*
X73085241Y-82885363D01*
X72885363Y-83085241D01*
X72728320Y-83320273D01*
X72620147Y-83581426D01*
X72565000Y-83858665D01*
X65275000Y-83858665D01*
X65219853Y-83581426D01*
X65111680Y-83320273D01*
X64954637Y-83085241D01*
X64754759Y-82885363D01*
X64754217Y-82885001D01*
X66377677Y-82885001D01*
X66414999Y-82888677D01*
X66452321Y-82885001D01*
X66452332Y-82885001D01*
X66563985Y-82874004D01*
X66707246Y-82830547D01*
X66839275Y-82759975D01*
X66955000Y-82665002D01*
X66978803Y-82635999D01*
X67216113Y-82398688D01*
X67398665Y-82435000D01*
X67681335Y-82435000D01*
X67958574Y-82379853D01*
X68219727Y-82271680D01*
X68454759Y-82114637D01*
X68654637Y-81914759D01*
X68810000Y-81682241D01*
X68965363Y-81914759D01*
X69165241Y-82114637D01*
X69400273Y-82271680D01*
X69661426Y-82379853D01*
X69938665Y-82435000D01*
X70221335Y-82435000D01*
X70498574Y-82379853D01*
X70759727Y-82271680D01*
X70994759Y-82114637D01*
X71194637Y-81914759D01*
X71350000Y-81682241D01*
X71505363Y-81914759D01*
X71705241Y-82114637D01*
X71940273Y-82271680D01*
X72201426Y-82379853D01*
X72478665Y-82435000D01*
X72761335Y-82435000D01*
X73038574Y-82379853D01*
X73299727Y-82271680D01*
X73534759Y-82114637D01*
X73734637Y-81914759D01*
X73891680Y-81679727D01*
X73999853Y-81418574D01*
X74055000Y-81141335D01*
X74055000Y-80858665D01*
X73999853Y-80581426D01*
X73891680Y-80320273D01*
X73734637Y-80085241D01*
X73534759Y-79885363D01*
X73299727Y-79728320D01*
X73038574Y-79620147D01*
X72761335Y-79565000D01*
X72478665Y-79565000D01*
X72201426Y-79620147D01*
X71940273Y-79728320D01*
X71705241Y-79885363D01*
X71505363Y-80085241D01*
X71350000Y-80317759D01*
X71194637Y-80085241D01*
X70994759Y-79885363D01*
X70759727Y-79728320D01*
X70498574Y-79620147D01*
X70221335Y-79565000D01*
X69938665Y-79565000D01*
X69661426Y-79620147D01*
X69400273Y-79728320D01*
X69165241Y-79885363D01*
X68965363Y-80085241D01*
X68810000Y-80317759D01*
X68654637Y-80085241D01*
X68454759Y-79885363D01*
X68219727Y-79728320D01*
X67958574Y-79620147D01*
X67681335Y-79565000D01*
X67398665Y-79565000D01*
X67121426Y-79620147D01*
X66860273Y-79728320D01*
X66625241Y-79885363D01*
X66426643Y-80083961D01*
X66425812Y-80075518D01*
X66389502Y-79955820D01*
X66330537Y-79845506D01*
X66251185Y-79748815D01*
X66154494Y-79669463D01*
X66044180Y-79610498D01*
X65924482Y-79574188D01*
X65800000Y-79561928D01*
X64200000Y-79561928D01*
X64075518Y-79574188D01*
X63955820Y-79610498D01*
X63845506Y-79669463D01*
X63748815Y-79748815D01*
X63669463Y-79845506D01*
X63610498Y-79955820D01*
X63574188Y-80075518D01*
X63561928Y-80200000D01*
X63561928Y-81365001D01*
X62939803Y-81365001D01*
X61665079Y-80090277D01*
X61918574Y-80039853D01*
X62179727Y-79931680D01*
X62414759Y-79774637D01*
X62614637Y-79574759D01*
X62771680Y-79339727D01*
X62879853Y-79078574D01*
X62935000Y-78801335D01*
X62935000Y-78518665D01*
X62879853Y-78241426D01*
X62771680Y-77980273D01*
X62614637Y-77745241D01*
X62414759Y-77545363D01*
X62179727Y-77388320D01*
X61918574Y-77280147D01*
X61641335Y-77225000D01*
X61358665Y-77225000D01*
X61081426Y-77280147D01*
X60820273Y-77388320D01*
X60585241Y-77545363D01*
X60385363Y-77745241D01*
X60228320Y-77980273D01*
X60120147Y-78241426D01*
X60069723Y-78494921D01*
X58273467Y-76698665D01*
X75565000Y-76698665D01*
X75565000Y-76981335D01*
X75620147Y-77258574D01*
X75728320Y-77519727D01*
X75885363Y-77754759D01*
X76085241Y-77954637D01*
X76320273Y-78111680D01*
X76581426Y-78219853D01*
X76858665Y-78275000D01*
X77141335Y-78275000D01*
X77418574Y-78219853D01*
X77679727Y-78111680D01*
X77914759Y-77954637D01*
X78114637Y-77754759D01*
X78271680Y-77519727D01*
X78379853Y-77258574D01*
X78435000Y-76981335D01*
X78435000Y-76698665D01*
X78379853Y-76421426D01*
X78271680Y-76160273D01*
X78114637Y-75925241D01*
X77914759Y-75725363D01*
X77679727Y-75568320D01*
X77418574Y-75460147D01*
X77141335Y-75405000D01*
X76858665Y-75405000D01*
X76581426Y-75460147D01*
X76320273Y-75568320D01*
X76085241Y-75725363D01*
X75885363Y-75925241D01*
X75728320Y-76160273D01*
X75620147Y-76421426D01*
X75565000Y-76698665D01*
X58273467Y-76698665D01*
X57562873Y-75988072D01*
X58390000Y-75988072D01*
X58514482Y-75975812D01*
X58634180Y-75939502D01*
X58744494Y-75880537D01*
X58841185Y-75801185D01*
X58920537Y-75704494D01*
X58979502Y-75594180D01*
X59015812Y-75474482D01*
X59028072Y-75350000D01*
X59028072Y-73650000D01*
X59015812Y-73525518D01*
X58979502Y-73405820D01*
X58920537Y-73295506D01*
X58873889Y-73238665D01*
X63565000Y-73238665D01*
X63565000Y-73521335D01*
X63620147Y-73798574D01*
X63728320Y-74059727D01*
X63885363Y-74294759D01*
X64085241Y-74494637D01*
X64320273Y-74651680D01*
X64581426Y-74759853D01*
X64858665Y-74815000D01*
X65141335Y-74815000D01*
X65418574Y-74759853D01*
X65679727Y-74651680D01*
X65914759Y-74494637D01*
X66114637Y-74294759D01*
X66270000Y-74062241D01*
X66425363Y-74294759D01*
X66625241Y-74494637D01*
X66860273Y-74651680D01*
X67121426Y-74759853D01*
X67398665Y-74815000D01*
X67681335Y-74815000D01*
X67958574Y-74759853D01*
X68219727Y-74651680D01*
X68454759Y-74494637D01*
X68654637Y-74294759D01*
X68810000Y-74062241D01*
X68965363Y-74294759D01*
X69165241Y-74494637D01*
X69400273Y-74651680D01*
X69661426Y-74759853D01*
X69938665Y-74815000D01*
X70221335Y-74815000D01*
X70498574Y-74759853D01*
X70759727Y-74651680D01*
X70994759Y-74494637D01*
X71194637Y-74294759D01*
X71351680Y-74059727D01*
X71356067Y-74049135D01*
X71467615Y-74235131D01*
X71656586Y-74443519D01*
X71882580Y-74611037D01*
X72136913Y-74731246D01*
X72270961Y-74771904D01*
X72493000Y-74649915D01*
X72493000Y-73507000D01*
X72747000Y-73507000D01*
X72747000Y-74649915D01*
X72969039Y-74771904D01*
X73103087Y-74731246D01*
X73357420Y-74611037D01*
X73583414Y-74443519D01*
X73772385Y-74235131D01*
X73917070Y-73993881D01*
X74011909Y-73729040D01*
X73890624Y-73507000D01*
X72747000Y-73507000D01*
X72493000Y-73507000D01*
X72473000Y-73507000D01*
X72473000Y-73253000D01*
X72493000Y-73253000D01*
X72493000Y-72110085D01*
X72747000Y-72110085D01*
X72747000Y-73253000D01*
X73890624Y-73253000D01*
X74011909Y-73030960D01*
X73917070Y-72766119D01*
X73772385Y-72524869D01*
X73583414Y-72316481D01*
X73357420Y-72148963D01*
X73103087Y-72028754D01*
X72969039Y-71988096D01*
X72747000Y-72110085D01*
X72493000Y-72110085D01*
X72270961Y-71988096D01*
X72136913Y-72028754D01*
X71882580Y-72148963D01*
X71656586Y-72316481D01*
X71467615Y-72524869D01*
X71356067Y-72710865D01*
X71351680Y-72700273D01*
X71194637Y-72465241D01*
X70994759Y-72265363D01*
X70759727Y-72108320D01*
X70498574Y-72000147D01*
X70221335Y-71945000D01*
X69938665Y-71945000D01*
X69661426Y-72000147D01*
X69400273Y-72108320D01*
X69165241Y-72265363D01*
X68965363Y-72465241D01*
X68810000Y-72697759D01*
X68654637Y-72465241D01*
X68454759Y-72265363D01*
X68219727Y-72108320D01*
X67958574Y-72000147D01*
X67681335Y-71945000D01*
X67398665Y-71945000D01*
X67121426Y-72000147D01*
X66860273Y-72108320D01*
X66625241Y-72265363D01*
X66425363Y-72465241D01*
X66270000Y-72697759D01*
X66114637Y-72465241D01*
X65914759Y-72265363D01*
X65679727Y-72108320D01*
X65418574Y-72000147D01*
X65141335Y-71945000D01*
X64858665Y-71945000D01*
X64581426Y-72000147D01*
X64320273Y-72108320D01*
X64085241Y-72265363D01*
X63885363Y-72465241D01*
X63728320Y-72700273D01*
X63620147Y-72961426D01*
X63565000Y-73238665D01*
X58873889Y-73238665D01*
X58841185Y-73198815D01*
X58744494Y-73119463D01*
X58634180Y-73060498D01*
X58514482Y-73024188D01*
X58390000Y-73011928D01*
X56690000Y-73011928D01*
X56565518Y-73024188D01*
X56445820Y-73060498D01*
X56335506Y-73119463D01*
X56238815Y-73198815D01*
X56159463Y-73295506D01*
X56100498Y-73405820D01*
X56078487Y-73478380D01*
X55946632Y-73346525D01*
X55703411Y-73184010D01*
X55433158Y-73072068D01*
X55146260Y-73015000D01*
X54853740Y-73015000D01*
X54566842Y-73072068D01*
X54296589Y-73184010D01*
X54053368Y-73346525D01*
X53846525Y-73553368D01*
X53730000Y-73727760D01*
X53613475Y-73553368D01*
X53406632Y-73346525D01*
X53163411Y-73184010D01*
X52893158Y-73072068D01*
X52606260Y-73015000D01*
X52313740Y-73015000D01*
X52026842Y-73072068D01*
X51756589Y-73184010D01*
X51513368Y-73346525D01*
X51306525Y-73553368D01*
X51144010Y-73796589D01*
X51032068Y-74066842D01*
X50975000Y-74353740D01*
X47488072Y-74353740D01*
X47488072Y-73150000D01*
X47475812Y-73025518D01*
X47439502Y-72905820D01*
X47380537Y-72795506D01*
X47301185Y-72698815D01*
X47301003Y-72698665D01*
X48065000Y-72698665D01*
X48065000Y-72981335D01*
X48120147Y-73258574D01*
X48228320Y-73519727D01*
X48385363Y-73754759D01*
X48585241Y-73954637D01*
X48820273Y-74111680D01*
X49081426Y-74219853D01*
X49358665Y-74275000D01*
X49641335Y-74275000D01*
X49918574Y-74219853D01*
X50179727Y-74111680D01*
X50414759Y-73954637D01*
X50614637Y-73754759D01*
X50771680Y-73519727D01*
X50879853Y-73258574D01*
X50935000Y-72981335D01*
X50935000Y-72698665D01*
X50879853Y-72421426D01*
X50771680Y-72160273D01*
X50614637Y-71925241D01*
X50414759Y-71725363D01*
X50179727Y-71568320D01*
X49918574Y-71460147D01*
X49641335Y-71405000D01*
X49358665Y-71405000D01*
X49081426Y-71460147D01*
X48820273Y-71568320D01*
X48585241Y-71725363D01*
X48385363Y-71925241D01*
X48228320Y-72160273D01*
X48120147Y-72421426D01*
X48065000Y-72698665D01*
X47301003Y-72698665D01*
X47204494Y-72619463D01*
X47094180Y-72560498D01*
X46974482Y-72524188D01*
X46850000Y-72511928D01*
X45150000Y-72511928D01*
X45025518Y-72524188D01*
X44905820Y-72560498D01*
X44795506Y-72619463D01*
X44698815Y-72698815D01*
X44619463Y-72795506D01*
X44560498Y-72905820D01*
X44524188Y-73025518D01*
X44511928Y-73150000D01*
X38960000Y-73150000D01*
X38960000Y-67127000D01*
X42465000Y-67127000D01*
X42465000Y-67627000D01*
X42519271Y-67924023D01*
X42630446Y-68204751D01*
X42794252Y-68458396D01*
X43004394Y-68675210D01*
X43252796Y-68846862D01*
X43529913Y-68966755D01*
X43635260Y-68991036D01*
X43873000Y-68870378D01*
X43873000Y-67127000D01*
X44127000Y-67127000D01*
X44127000Y-68870378D01*
X44364740Y-68991036D01*
X44470087Y-68966755D01*
X44747204Y-68846862D01*
X44995606Y-68675210D01*
X45205748Y-68458396D01*
X45270155Y-68358665D01*
X60065000Y-68358665D01*
X60065000Y-68641335D01*
X60120147Y-68918574D01*
X60228320Y-69179727D01*
X60385363Y-69414759D01*
X60585241Y-69614637D01*
X60820273Y-69771680D01*
X61081426Y-69879853D01*
X61358665Y-69935000D01*
X61641335Y-69935000D01*
X61918574Y-69879853D01*
X62179727Y-69771680D01*
X62414759Y-69614637D01*
X62614637Y-69414759D01*
X62758134Y-69200000D01*
X63561928Y-69200000D01*
X63561928Y-70800000D01*
X63574188Y-70924482D01*
X63610498Y-71044180D01*
X63669463Y-71154494D01*
X63748815Y-71251185D01*
X63845506Y-71330537D01*
X63955820Y-71389502D01*
X64075518Y-71425812D01*
X64200000Y-71438072D01*
X65800000Y-71438072D01*
X65924482Y-71425812D01*
X66044180Y-71389502D01*
X66154494Y-71330537D01*
X66251185Y-71251185D01*
X66330537Y-71154494D01*
X66389502Y-71044180D01*
X66425812Y-70924482D01*
X66426643Y-70916039D01*
X66625241Y-71114637D01*
X66860273Y-71271680D01*
X67121426Y-71379853D01*
X67398665Y-71435000D01*
X67681335Y-71435000D01*
X67958574Y-71379853D01*
X68219727Y-71271680D01*
X68454759Y-71114637D01*
X68654637Y-70914759D01*
X68810000Y-70682241D01*
X68965363Y-70914759D01*
X69165241Y-71114637D01*
X69400273Y-71271680D01*
X69661426Y-71379853D01*
X69938665Y-71435000D01*
X70221335Y-71435000D01*
X70498574Y-71379853D01*
X70759727Y-71271680D01*
X70994759Y-71114637D01*
X71194637Y-70914759D01*
X71350000Y-70682241D01*
X71505363Y-70914759D01*
X71705241Y-71114637D01*
X71940273Y-71271680D01*
X72201426Y-71379853D01*
X72478665Y-71435000D01*
X72761335Y-71435000D01*
X73038574Y-71379853D01*
X73299727Y-71271680D01*
X73534759Y-71114637D01*
X73734637Y-70914759D01*
X73891680Y-70679727D01*
X73999853Y-70418574D01*
X74055000Y-70141335D01*
X74055000Y-69858665D01*
X73999853Y-69581426D01*
X73891680Y-69320273D01*
X73734637Y-69085241D01*
X73534759Y-68885363D01*
X73299727Y-68728320D01*
X73038574Y-68620147D01*
X72761335Y-68565000D01*
X72478665Y-68565000D01*
X72201426Y-68620147D01*
X71940273Y-68728320D01*
X71705241Y-68885363D01*
X71505363Y-69085241D01*
X71350000Y-69317759D01*
X71194637Y-69085241D01*
X70994759Y-68885363D01*
X70759727Y-68728320D01*
X70498574Y-68620147D01*
X70221335Y-68565000D01*
X69938665Y-68565000D01*
X69661426Y-68620147D01*
X69400273Y-68728320D01*
X69165241Y-68885363D01*
X68965363Y-69085241D01*
X68810000Y-69317759D01*
X68654637Y-69085241D01*
X68454759Y-68885363D01*
X68219727Y-68728320D01*
X67958574Y-68620147D01*
X67681335Y-68565000D01*
X67398665Y-68565000D01*
X67121426Y-68620147D01*
X66860273Y-68728320D01*
X66625241Y-68885363D01*
X66426643Y-69083961D01*
X66425812Y-69075518D01*
X66389502Y-68955820D01*
X66330537Y-68845506D01*
X66251185Y-68748815D01*
X66154494Y-68669463D01*
X66044180Y-68610498D01*
X65924482Y-68574188D01*
X65800000Y-68561928D01*
X64200000Y-68561928D01*
X64075518Y-68574188D01*
X63955820Y-68610498D01*
X63845506Y-68669463D01*
X63748815Y-68748815D01*
X63669463Y-68845506D01*
X63610498Y-68955820D01*
X63574188Y-69075518D01*
X63561928Y-69200000D01*
X62758134Y-69200000D01*
X62771680Y-69179727D01*
X62879853Y-68918574D01*
X62935000Y-68641335D01*
X62935000Y-68358665D01*
X62879853Y-68081426D01*
X62771680Y-67820273D01*
X62614637Y-67585241D01*
X62414759Y-67385363D01*
X62179727Y-67228320D01*
X61918574Y-67120147D01*
X61641335Y-67065000D01*
X61358665Y-67065000D01*
X61081426Y-67120147D01*
X60820273Y-67228320D01*
X60585241Y-67385363D01*
X60385363Y-67585241D01*
X60228320Y-67820273D01*
X60120147Y-68081426D01*
X60065000Y-68358665D01*
X45270155Y-68358665D01*
X45369554Y-68204751D01*
X45480729Y-67924023D01*
X45535000Y-67627000D01*
X45535000Y-67127000D01*
X44127000Y-67127000D01*
X43873000Y-67127000D01*
X42465000Y-67127000D01*
X38960000Y-67127000D01*
X38960000Y-66373000D01*
X42465000Y-66373000D01*
X42465000Y-66873000D01*
X43873000Y-66873000D01*
X43873000Y-65129622D01*
X44127000Y-65129622D01*
X44127000Y-66873000D01*
X45535000Y-66873000D01*
X45535000Y-66775855D01*
X45543074Y-66782481D01*
X45809740Y-66925017D01*
X46099088Y-67012790D01*
X46400000Y-67042427D01*
X46700913Y-67012790D01*
X46990261Y-66925017D01*
X47256927Y-66782481D01*
X47490661Y-66590661D01*
X47682481Y-66356927D01*
X47825017Y-66090261D01*
X47912790Y-65800913D01*
X47935000Y-65575408D01*
X47935000Y-64424593D01*
X50365000Y-64424593D01*
X50365000Y-65575408D01*
X50387210Y-65800913D01*
X50474983Y-66090261D01*
X50617519Y-66356927D01*
X50809340Y-66590661D01*
X51043074Y-66782481D01*
X51309740Y-66925017D01*
X51599088Y-67012790D01*
X51900000Y-67042427D01*
X52200913Y-67012790D01*
X52490261Y-66925017D01*
X52756927Y-66782481D01*
X52990661Y-66590661D01*
X53182481Y-66356927D01*
X53325017Y-66090261D01*
X53412790Y-65800913D01*
X53435000Y-65575408D01*
X53435000Y-65018665D01*
X60065000Y-65018665D01*
X60065000Y-65301335D01*
X60120147Y-65578574D01*
X60228320Y-65839727D01*
X60385363Y-66074759D01*
X60585241Y-66274637D01*
X60820273Y-66431680D01*
X61081426Y-66539853D01*
X61358665Y-66595000D01*
X61641335Y-66595000D01*
X61918574Y-66539853D01*
X62179727Y-66431680D01*
X62414759Y-66274637D01*
X62614637Y-66074759D01*
X62771680Y-65839727D01*
X62879853Y-65578574D01*
X62935000Y-65301335D01*
X62935000Y-65018665D01*
X62879853Y-64741426D01*
X62771680Y-64480273D01*
X62614637Y-64245241D01*
X62414759Y-64045363D01*
X62179727Y-63888320D01*
X61918574Y-63780147D01*
X61641335Y-63725000D01*
X61358665Y-63725000D01*
X61081426Y-63780147D01*
X60820273Y-63888320D01*
X60585241Y-64045363D01*
X60385363Y-64245241D01*
X60228320Y-64480273D01*
X60120147Y-64741426D01*
X60065000Y-65018665D01*
X53435000Y-65018665D01*
X53435000Y-64424592D01*
X53412790Y-64199087D01*
X53325017Y-63909739D01*
X53182481Y-63643073D01*
X52990661Y-63409339D01*
X52756926Y-63217519D01*
X52490260Y-63074983D01*
X52200912Y-62987210D01*
X51900000Y-62957573D01*
X51599087Y-62987210D01*
X51309739Y-63074983D01*
X51043073Y-63217519D01*
X50809339Y-63409339D01*
X50617519Y-63643074D01*
X50474983Y-63909740D01*
X50387210Y-64199088D01*
X50365000Y-64424593D01*
X47935000Y-64424593D01*
X47935000Y-64424592D01*
X47912790Y-64199087D01*
X47825017Y-63909739D01*
X47682481Y-63643073D01*
X47490661Y-63409339D01*
X47256926Y-63217519D01*
X46990260Y-63074983D01*
X46700912Y-62987210D01*
X46400000Y-62957573D01*
X46099087Y-62987210D01*
X45809739Y-63074983D01*
X45543073Y-63217519D01*
X45309339Y-63409339D01*
X45117519Y-63643074D01*
X44974983Y-63909740D01*
X44887210Y-64199088D01*
X44865000Y-64424593D01*
X44865000Y-65234538D01*
X44747204Y-65153138D01*
X44470087Y-65033245D01*
X44364740Y-65008964D01*
X44127000Y-65129622D01*
X43873000Y-65129622D01*
X43635260Y-65008964D01*
X43529913Y-65033245D01*
X43252796Y-65153138D01*
X43004394Y-65324790D01*
X42794252Y-65541604D01*
X42630446Y-65795249D01*
X42519271Y-66075977D01*
X42465000Y-66373000D01*
X38960000Y-66373000D01*
X38960000Y-59314344D01*
X39415000Y-59314344D01*
X39415000Y-59685656D01*
X39487439Y-60049834D01*
X39629534Y-60392882D01*
X39835825Y-60701618D01*
X40098382Y-60964175D01*
X40407118Y-61170466D01*
X40750166Y-61312561D01*
X41114344Y-61385000D01*
X41485656Y-61385000D01*
X41849834Y-61312561D01*
X42192882Y-61170466D01*
X42420068Y-61018665D01*
X48565000Y-61018665D01*
X48565000Y-61301335D01*
X48620147Y-61578574D01*
X48728320Y-61839727D01*
X48885363Y-62074759D01*
X49085241Y-62274637D01*
X49320273Y-62431680D01*
X49581426Y-62539853D01*
X49858665Y-62595000D01*
X50141335Y-62595000D01*
X50418574Y-62539853D01*
X50679727Y-62431680D01*
X50914759Y-62274637D01*
X51114637Y-62074759D01*
X51232702Y-61898061D01*
X60465000Y-61898061D01*
X60465000Y-62101939D01*
X60504774Y-62301898D01*
X60582795Y-62490256D01*
X60696063Y-62659774D01*
X60840226Y-62803937D01*
X61009744Y-62917205D01*
X61198102Y-62995226D01*
X61398061Y-63035000D01*
X61601939Y-63035000D01*
X61801898Y-62995226D01*
X61885709Y-62960510D01*
X63465000Y-64539802D01*
X63465000Y-64601939D01*
X63504774Y-64801898D01*
X63582795Y-64990256D01*
X63696063Y-65159774D01*
X63840226Y-65303937D01*
X64009744Y-65417205D01*
X64198102Y-65495226D01*
X64398061Y-65535000D01*
X64601939Y-65535000D01*
X64801898Y-65495226D01*
X64990256Y-65417205D01*
X65159774Y-65303937D01*
X65303937Y-65159774D01*
X65417205Y-64990256D01*
X65495226Y-64801898D01*
X65535000Y-64601939D01*
X65535000Y-64398061D01*
X65495226Y-64198102D01*
X65417205Y-64009744D01*
X65303937Y-63840226D01*
X65255919Y-63792208D01*
X65418574Y-63759853D01*
X65679727Y-63651680D01*
X65914759Y-63494637D01*
X66114637Y-63294759D01*
X66270000Y-63062241D01*
X66425363Y-63294759D01*
X66625241Y-63494637D01*
X66860273Y-63651680D01*
X67121426Y-63759853D01*
X67398665Y-63815000D01*
X67681335Y-63815000D01*
X67958574Y-63759853D01*
X68219727Y-63651680D01*
X68454759Y-63494637D01*
X68654637Y-63294759D01*
X68810000Y-63062241D01*
X68965363Y-63294759D01*
X69165241Y-63494637D01*
X69400273Y-63651680D01*
X69661426Y-63759853D01*
X69938665Y-63815000D01*
X70221335Y-63815000D01*
X70498574Y-63759853D01*
X70759727Y-63651680D01*
X70994759Y-63494637D01*
X71194637Y-63294759D01*
X71351680Y-63059727D01*
X71356067Y-63049135D01*
X71467615Y-63235131D01*
X71656586Y-63443519D01*
X71882580Y-63611037D01*
X72136913Y-63731246D01*
X72270961Y-63771904D01*
X72493000Y-63649915D01*
X72493000Y-62507000D01*
X72747000Y-62507000D01*
X72747000Y-63649915D01*
X72969039Y-63771904D01*
X73103087Y-63731246D01*
X73357420Y-63611037D01*
X73583414Y-63443519D01*
X73772385Y-63235131D01*
X73917070Y-62993881D01*
X73982015Y-62812520D01*
X73965000Y-62898061D01*
X73965000Y-63101939D01*
X74004774Y-63301898D01*
X74082795Y-63490256D01*
X74196063Y-63659774D01*
X74240000Y-63703711D01*
X74240001Y-64796288D01*
X74196063Y-64840226D01*
X74082795Y-65009744D01*
X74004774Y-65198102D01*
X73965000Y-65398061D01*
X73965000Y-65601939D01*
X74004774Y-65801898D01*
X74082795Y-65990256D01*
X74196063Y-66159774D01*
X74340226Y-66303937D01*
X74509744Y-66417205D01*
X74698102Y-66495226D01*
X74898061Y-66535000D01*
X75101939Y-66535000D01*
X75301898Y-66495226D01*
X75490256Y-66417205D01*
X75576576Y-66359528D01*
X75620147Y-66578574D01*
X75728320Y-66839727D01*
X75885363Y-67074759D01*
X76085241Y-67274637D01*
X76320273Y-67431680D01*
X76581426Y-67539853D01*
X76858665Y-67595000D01*
X77141335Y-67595000D01*
X77418574Y-67539853D01*
X77679727Y-67431680D01*
X77914759Y-67274637D01*
X78114637Y-67074759D01*
X78271680Y-66839727D01*
X78379853Y-66578574D01*
X78435000Y-66301335D01*
X78435000Y-66018665D01*
X78379853Y-65741426D01*
X78271680Y-65480273D01*
X78114637Y-65245241D01*
X77914759Y-65045363D01*
X77679727Y-64888320D01*
X77418574Y-64780147D01*
X77141335Y-64725000D01*
X76858665Y-64725000D01*
X76581426Y-64780147D01*
X76320273Y-64888320D01*
X76085241Y-65045363D01*
X75976854Y-65153750D01*
X75917205Y-65009744D01*
X75803937Y-64840226D01*
X75760000Y-64796289D01*
X75760000Y-63851278D01*
X83990000Y-63851278D01*
X83990000Y-64148722D01*
X84048029Y-64440451D01*
X84161856Y-64715253D01*
X84327107Y-64962569D01*
X84537431Y-65172893D01*
X84784747Y-65338144D01*
X85059549Y-65451971D01*
X85351278Y-65510000D01*
X85648722Y-65510000D01*
X85940451Y-65451971D01*
X86215253Y-65338144D01*
X86462569Y-65172893D01*
X86672893Y-64962569D01*
X86838144Y-64715253D01*
X86951971Y-64440451D01*
X87010000Y-64148722D01*
X87010000Y-63851278D01*
X86951971Y-63559549D01*
X86838144Y-63284747D01*
X86672893Y-63037431D01*
X86462569Y-62827107D01*
X86309407Y-62724768D01*
X86366635Y-62546240D01*
X85500000Y-61679605D01*
X84633365Y-62546240D01*
X84690593Y-62724768D01*
X84537431Y-62827107D01*
X84327107Y-63037431D01*
X84161856Y-63284747D01*
X84048029Y-63559549D01*
X83990000Y-63851278D01*
X75760000Y-63851278D01*
X75760000Y-63703711D01*
X75803937Y-63659774D01*
X75917205Y-63490256D01*
X75995226Y-63301898D01*
X76035000Y-63101939D01*
X76035000Y-62898061D01*
X75995226Y-62698102D01*
X75917205Y-62509744D01*
X75803937Y-62340226D01*
X75659774Y-62196063D01*
X75490256Y-62082795D01*
X75301898Y-62004774D01*
X75101939Y-61965000D01*
X74898061Y-61965000D01*
X74698102Y-62004774D01*
X74509744Y-62082795D01*
X74340226Y-62196063D01*
X74196063Y-62340226D01*
X74082795Y-62509744D01*
X74004774Y-62698102D01*
X74002167Y-62711206D01*
X73890624Y-62507000D01*
X72747000Y-62507000D01*
X72493000Y-62507000D01*
X72473000Y-62507000D01*
X72473000Y-62253000D01*
X72493000Y-62253000D01*
X72493000Y-61110085D01*
X72747000Y-61110085D01*
X72747000Y-62253000D01*
X73890624Y-62253000D01*
X74011909Y-62030960D01*
X73917070Y-61766119D01*
X73797978Y-61567543D01*
X83984196Y-61567543D01*
X84026499Y-61861963D01*
X84125428Y-62142474D01*
X84202132Y-62285975D01*
X84453760Y-62366635D01*
X85320395Y-61500000D01*
X85306253Y-61485858D01*
X85485858Y-61306253D01*
X85500000Y-61320395D01*
X85514143Y-61306253D01*
X85693748Y-61485858D01*
X85679605Y-61500000D01*
X86546240Y-62366635D01*
X86797868Y-62285975D01*
X86926267Y-62017671D01*
X86999855Y-61729474D01*
X87015804Y-61432457D01*
X86973501Y-61138037D01*
X86874572Y-60857526D01*
X86797868Y-60714025D01*
X86546242Y-60633366D01*
X86662267Y-60517341D01*
X86611698Y-60466772D01*
X86619180Y-60464502D01*
X86729494Y-60405537D01*
X86826185Y-60326185D01*
X86905537Y-60229494D01*
X86964502Y-60119180D01*
X87000812Y-59999482D01*
X87013072Y-59875000D01*
X87013072Y-58125000D01*
X87000812Y-58000518D01*
X86964502Y-57880820D01*
X86905537Y-57770506D01*
X86826185Y-57673815D01*
X86729494Y-57594463D01*
X86619180Y-57535498D01*
X86499482Y-57499188D01*
X86375000Y-57486928D01*
X84625000Y-57486928D01*
X84500518Y-57499188D01*
X84380820Y-57535498D01*
X84270506Y-57594463D01*
X84173815Y-57673815D01*
X84094463Y-57770506D01*
X84035498Y-57880820D01*
X83999188Y-58000518D01*
X83986928Y-58125000D01*
X83986928Y-59875000D01*
X83999188Y-59999482D01*
X84035498Y-60119180D01*
X84094463Y-60229494D01*
X84173815Y-60326185D01*
X84270506Y-60405537D01*
X84380820Y-60464502D01*
X84388302Y-60466772D01*
X84337733Y-60517341D01*
X84453758Y-60633366D01*
X84202132Y-60714025D01*
X84073733Y-60982329D01*
X84000145Y-61270526D01*
X83984196Y-61567543D01*
X73797978Y-61567543D01*
X73772385Y-61524869D01*
X73583414Y-61316481D01*
X73357420Y-61148963D01*
X73103087Y-61028754D01*
X72969039Y-60988096D01*
X72747000Y-61110085D01*
X72493000Y-61110085D01*
X72270961Y-60988096D01*
X72136913Y-61028754D01*
X71882580Y-61148963D01*
X71656586Y-61316481D01*
X71467615Y-61524869D01*
X71356067Y-61710865D01*
X71351680Y-61700273D01*
X71194637Y-61465241D01*
X70994759Y-61265363D01*
X70759727Y-61108320D01*
X70498574Y-61000147D01*
X70221335Y-60945000D01*
X69938665Y-60945000D01*
X69661426Y-61000147D01*
X69400273Y-61108320D01*
X69165241Y-61265363D01*
X68965363Y-61465241D01*
X68810000Y-61697759D01*
X68654637Y-61465241D01*
X68454759Y-61265363D01*
X68219727Y-61108320D01*
X67958574Y-61000147D01*
X67681335Y-60945000D01*
X67398665Y-60945000D01*
X67121426Y-61000147D01*
X66860273Y-61108320D01*
X66625241Y-61265363D01*
X66425363Y-61465241D01*
X66270000Y-61697759D01*
X66114637Y-61465241D01*
X65914759Y-61265363D01*
X65679727Y-61108320D01*
X65418574Y-61000147D01*
X65141335Y-60945000D01*
X64858665Y-60945000D01*
X64581426Y-61000147D01*
X64320273Y-61108320D01*
X64085241Y-61265363D01*
X63885363Y-61465241D01*
X63728320Y-61700273D01*
X63620147Y-61961426D01*
X63565000Y-62238665D01*
X63565000Y-62490199D01*
X62563804Y-61489003D01*
X62540001Y-61459999D01*
X62424276Y-61365026D01*
X62292247Y-61294454D01*
X62243325Y-61279614D01*
X62159774Y-61196063D01*
X61990256Y-61082795D01*
X61801898Y-61004774D01*
X61601939Y-60965000D01*
X61398061Y-60965000D01*
X61198102Y-61004774D01*
X61009744Y-61082795D01*
X60840226Y-61196063D01*
X60696063Y-61340226D01*
X60582795Y-61509744D01*
X60504774Y-61698102D01*
X60465000Y-61898061D01*
X51232702Y-61898061D01*
X51271680Y-61839727D01*
X51379853Y-61578574D01*
X51435000Y-61301335D01*
X51435000Y-61018665D01*
X51379853Y-60741426D01*
X51271680Y-60480273D01*
X51114637Y-60245241D01*
X50914759Y-60045363D01*
X50679727Y-59888320D01*
X50418574Y-59780147D01*
X50141335Y-59725000D01*
X49858665Y-59725000D01*
X49581426Y-59780147D01*
X49320273Y-59888320D01*
X49085241Y-60045363D01*
X48885363Y-60245241D01*
X48728320Y-60480273D01*
X48620147Y-60741426D01*
X48565000Y-61018665D01*
X42420068Y-61018665D01*
X42501618Y-60964175D01*
X42764175Y-60701618D01*
X42970466Y-60392882D01*
X43112561Y-60049834D01*
X43185000Y-59685656D01*
X43185000Y-59314344D01*
X43112561Y-58950166D01*
X43072621Y-58853740D01*
X51435000Y-58853740D01*
X51435000Y-59146260D01*
X51492068Y-59433158D01*
X51604010Y-59703411D01*
X51766525Y-59946632D01*
X51973368Y-60153475D01*
X52216589Y-60315990D01*
X52486842Y-60427932D01*
X52773740Y-60485000D01*
X53066260Y-60485000D01*
X53353158Y-60427932D01*
X53623411Y-60315990D01*
X53866632Y-60153475D01*
X54073475Y-59946632D01*
X54190000Y-59772240D01*
X54306525Y-59946632D01*
X54513368Y-60153475D01*
X54756589Y-60315990D01*
X55026842Y-60427932D01*
X55313740Y-60485000D01*
X55606260Y-60485000D01*
X55893158Y-60427932D01*
X56163411Y-60315990D01*
X56406632Y-60153475D01*
X56538487Y-60021620D01*
X56560498Y-60094180D01*
X56619463Y-60204494D01*
X56698815Y-60301185D01*
X56795506Y-60380537D01*
X56905820Y-60439502D01*
X57025518Y-60475812D01*
X57150000Y-60488072D01*
X58850000Y-60488072D01*
X58974482Y-60475812D01*
X59094180Y-60439502D01*
X59204494Y-60380537D01*
X59301185Y-60301185D01*
X59380537Y-60204494D01*
X59439502Y-60094180D01*
X59475812Y-59974482D01*
X59488072Y-59850000D01*
X59488072Y-59358665D01*
X62565000Y-59358665D01*
X62565000Y-59641335D01*
X62620147Y-59918574D01*
X62728320Y-60179727D01*
X62885363Y-60414759D01*
X63085241Y-60614637D01*
X63320273Y-60771680D01*
X63581426Y-60879853D01*
X63858665Y-60935000D01*
X64141335Y-60935000D01*
X64418574Y-60879853D01*
X64679727Y-60771680D01*
X64914759Y-60614637D01*
X65114637Y-60414759D01*
X65271680Y-60179727D01*
X65379853Y-59918574D01*
X65435000Y-59641335D01*
X65435000Y-59358665D01*
X72725000Y-59358665D01*
X72725000Y-59641335D01*
X72780147Y-59918574D01*
X72888320Y-60179727D01*
X73045363Y-60414759D01*
X73245241Y-60614637D01*
X73480273Y-60771680D01*
X73741426Y-60879853D01*
X74018665Y-60935000D01*
X74301335Y-60935000D01*
X74578574Y-60879853D01*
X74839727Y-60771680D01*
X75074759Y-60614637D01*
X75274637Y-60414759D01*
X75431680Y-60179727D01*
X75539853Y-59918574D01*
X75595000Y-59641335D01*
X75595000Y-59358665D01*
X75539853Y-59081426D01*
X75431680Y-58820273D01*
X75274637Y-58585241D01*
X75074759Y-58385363D01*
X74839727Y-58228320D01*
X74578574Y-58120147D01*
X74301335Y-58065000D01*
X74018665Y-58065000D01*
X73741426Y-58120147D01*
X73480273Y-58228320D01*
X73245241Y-58385363D01*
X73045363Y-58585241D01*
X72888320Y-58820273D01*
X72780147Y-59081426D01*
X72725000Y-59358665D01*
X65435000Y-59358665D01*
X65379853Y-59081426D01*
X65271680Y-58820273D01*
X65114637Y-58585241D01*
X64914759Y-58385363D01*
X64679727Y-58228320D01*
X64418574Y-58120147D01*
X64141335Y-58065000D01*
X63858665Y-58065000D01*
X63581426Y-58120147D01*
X63320273Y-58228320D01*
X63085241Y-58385363D01*
X62885363Y-58585241D01*
X62728320Y-58820273D01*
X62620147Y-59081426D01*
X62565000Y-59358665D01*
X59488072Y-59358665D01*
X59488072Y-58150000D01*
X59475812Y-58025518D01*
X59439502Y-57905820D01*
X59380537Y-57795506D01*
X59301185Y-57698815D01*
X59204494Y-57619463D01*
X59094180Y-57560498D01*
X58974482Y-57524188D01*
X58850000Y-57511928D01*
X57150000Y-57511928D01*
X57025518Y-57524188D01*
X56905820Y-57560498D01*
X56795506Y-57619463D01*
X56698815Y-57698815D01*
X56619463Y-57795506D01*
X56560498Y-57905820D01*
X56538487Y-57978380D01*
X56406632Y-57846525D01*
X56163411Y-57684010D01*
X55893158Y-57572068D01*
X55606260Y-57515000D01*
X55313740Y-57515000D01*
X55026842Y-57572068D01*
X54756589Y-57684010D01*
X54513368Y-57846525D01*
X54306525Y-58053368D01*
X54190000Y-58227760D01*
X54073475Y-58053368D01*
X53866632Y-57846525D01*
X53623411Y-57684010D01*
X53353158Y-57572068D01*
X53066260Y-57515000D01*
X52773740Y-57515000D01*
X52486842Y-57572068D01*
X52216589Y-57684010D01*
X51973368Y-57846525D01*
X51766525Y-58053368D01*
X51604010Y-58296589D01*
X51492068Y-58566842D01*
X51435000Y-58853740D01*
X43072621Y-58853740D01*
X42970466Y-58607118D01*
X42764175Y-58298382D01*
X42501618Y-58035825D01*
X42192882Y-57829534D01*
X41849834Y-57687439D01*
X41485656Y-57615000D01*
X41114344Y-57615000D01*
X40750166Y-57687439D01*
X40407118Y-57829534D01*
X40098382Y-58035825D01*
X39835825Y-58298382D01*
X39629534Y-58607118D01*
X39487439Y-58950166D01*
X39415000Y-59314344D01*
X38960000Y-59314344D01*
X38960000Y-55813605D01*
X40166000Y-55813605D01*
X40291914Y-56103577D01*
X40624126Y-56269433D01*
X40982312Y-56367290D01*
X41352706Y-56393389D01*
X41721075Y-56346725D01*
X42073262Y-56229094D01*
X42308086Y-56103577D01*
X42434000Y-55813605D01*
X41300000Y-54679605D01*
X40166000Y-55813605D01*
X38960000Y-55813605D01*
X38960000Y-54552706D01*
X39406611Y-54552706D01*
X39453275Y-54921075D01*
X39570906Y-55273262D01*
X39696423Y-55508086D01*
X39986395Y-55634000D01*
X41120395Y-54500000D01*
X41479605Y-54500000D01*
X42613605Y-55634000D01*
X42903577Y-55508086D01*
X43069433Y-55175874D01*
X43156095Y-54858665D01*
X60065000Y-54858665D01*
X60065000Y-55141335D01*
X60120147Y-55418574D01*
X60228320Y-55679727D01*
X60385363Y-55914759D01*
X60585241Y-56114637D01*
X60820273Y-56271680D01*
X61081426Y-56379853D01*
X61358665Y-56435000D01*
X61641335Y-56435000D01*
X61918574Y-56379853D01*
X62179727Y-56271680D01*
X62414759Y-56114637D01*
X62468757Y-56060639D01*
X62460147Y-56081426D01*
X62405000Y-56358665D01*
X62405000Y-56641335D01*
X62460147Y-56918574D01*
X62568320Y-57179727D01*
X62725363Y-57414759D01*
X62925241Y-57614637D01*
X63160273Y-57771680D01*
X63421426Y-57879853D01*
X63698665Y-57935000D01*
X63981335Y-57935000D01*
X64258574Y-57879853D01*
X64519727Y-57771680D01*
X64754759Y-57614637D01*
X64954637Y-57414759D01*
X65111680Y-57179727D01*
X65219853Y-56918574D01*
X65275000Y-56641335D01*
X65275000Y-56358665D01*
X72565000Y-56358665D01*
X72565000Y-56641335D01*
X72620147Y-56918574D01*
X72728320Y-57179727D01*
X72885363Y-57414759D01*
X73085241Y-57614637D01*
X73320273Y-57771680D01*
X73581426Y-57879853D01*
X73858665Y-57935000D01*
X74141335Y-57935000D01*
X74418574Y-57879853D01*
X74679727Y-57771680D01*
X74914759Y-57614637D01*
X75114637Y-57414759D01*
X75271680Y-57179727D01*
X75379853Y-56918574D01*
X75435000Y-56641335D01*
X75435000Y-56358665D01*
X75379853Y-56081426D01*
X75287583Y-55858665D01*
X75565000Y-55858665D01*
X75565000Y-56141335D01*
X75620147Y-56418574D01*
X75728320Y-56679727D01*
X75885363Y-56914759D01*
X76085241Y-57114637D01*
X76320273Y-57271680D01*
X76581426Y-57379853D01*
X76858665Y-57435000D01*
X77141335Y-57435000D01*
X77418574Y-57379853D01*
X77679727Y-57271680D01*
X77914759Y-57114637D01*
X78114637Y-56914759D01*
X78271680Y-56679727D01*
X78379853Y-56418574D01*
X78435000Y-56141335D01*
X78435000Y-55858665D01*
X78379853Y-55581426D01*
X78271680Y-55320273D01*
X78114637Y-55085241D01*
X77914759Y-54885363D01*
X77679727Y-54728320D01*
X77418574Y-54620147D01*
X77141335Y-54565000D01*
X76858665Y-54565000D01*
X76581426Y-54620147D01*
X76320273Y-54728320D01*
X76085241Y-54885363D01*
X75885363Y-55085241D01*
X75728320Y-55320273D01*
X75620147Y-55581426D01*
X75565000Y-55858665D01*
X75287583Y-55858665D01*
X75271680Y-55820273D01*
X75114637Y-55585241D01*
X74914759Y-55385363D01*
X74679727Y-55228320D01*
X74418574Y-55120147D01*
X74141335Y-55065000D01*
X73858665Y-55065000D01*
X73581426Y-55120147D01*
X73320273Y-55228320D01*
X73085241Y-55385363D01*
X72885363Y-55585241D01*
X72728320Y-55820273D01*
X72620147Y-56081426D01*
X72565000Y-56358665D01*
X65275000Y-56358665D01*
X65219853Y-56081426D01*
X65111680Y-55820273D01*
X64954637Y-55585241D01*
X64754759Y-55385363D01*
X64519727Y-55228320D01*
X64258574Y-55120147D01*
X63981335Y-55065000D01*
X63698665Y-55065000D01*
X63421426Y-55120147D01*
X63160273Y-55228320D01*
X62925241Y-55385363D01*
X62871243Y-55439361D01*
X62879853Y-55418574D01*
X62935000Y-55141335D01*
X62935000Y-54858665D01*
X62879853Y-54581426D01*
X62771680Y-54320273D01*
X62614637Y-54085241D01*
X62414759Y-53885363D01*
X62179727Y-53728320D01*
X61918574Y-53620147D01*
X61641335Y-53565000D01*
X61358665Y-53565000D01*
X61081426Y-53620147D01*
X60820273Y-53728320D01*
X60585241Y-53885363D01*
X60385363Y-54085241D01*
X60228320Y-54320273D01*
X60120147Y-54581426D01*
X60065000Y-54858665D01*
X43156095Y-54858665D01*
X43167290Y-54817688D01*
X43193389Y-54447294D01*
X43146725Y-54078925D01*
X43029094Y-53726738D01*
X42903577Y-53491914D01*
X42613605Y-53366000D01*
X41479605Y-54500000D01*
X41120395Y-54500000D01*
X39986395Y-53366000D01*
X39696423Y-53491914D01*
X39530567Y-53824126D01*
X39432710Y-54182312D01*
X39406611Y-54552706D01*
X38960000Y-54552706D01*
X38960000Y-53186395D01*
X40166000Y-53186395D01*
X41300000Y-54320395D01*
X42434000Y-53186395D01*
X42308086Y-52896423D01*
X41975874Y-52730567D01*
X41617688Y-52632710D01*
X41247294Y-52606611D01*
X40878925Y-52653275D01*
X40526738Y-52770906D01*
X40291914Y-52896423D01*
X40166000Y-53186395D01*
X38960000Y-53186395D01*
X38960000Y-48250000D01*
X39411928Y-48250000D01*
X39411928Y-50750000D01*
X39424188Y-50874482D01*
X39460498Y-50994180D01*
X39519463Y-51104494D01*
X39598815Y-51201185D01*
X39695506Y-51280537D01*
X39805820Y-51339502D01*
X39925518Y-51375812D01*
X40050000Y-51388072D01*
X42550000Y-51388072D01*
X42674482Y-51375812D01*
X42794180Y-51339502D01*
X42904494Y-51280537D01*
X43001185Y-51201185D01*
X43080537Y-51104494D01*
X43139502Y-50994180D01*
X43175812Y-50874482D01*
X43177369Y-50858665D01*
X48565000Y-50858665D01*
X48565000Y-51141335D01*
X48620147Y-51418574D01*
X48728320Y-51679727D01*
X48885363Y-51914759D01*
X49085241Y-52114637D01*
X49320273Y-52271680D01*
X49581426Y-52379853D01*
X49858665Y-52435000D01*
X50141335Y-52435000D01*
X50418574Y-52379853D01*
X50679727Y-52271680D01*
X50914759Y-52114637D01*
X51114637Y-51914759D01*
X51271680Y-51679727D01*
X51379853Y-51418574D01*
X51435000Y-51141335D01*
X51435000Y-50858665D01*
X51379853Y-50581426D01*
X51290847Y-50366544D01*
X64065000Y-50366544D01*
X64065000Y-50633456D01*
X64117072Y-50895239D01*
X64219215Y-51141833D01*
X64367503Y-51363762D01*
X64556238Y-51552497D01*
X64778167Y-51700785D01*
X65024761Y-51802928D01*
X65286544Y-51855000D01*
X65553456Y-51855000D01*
X65815239Y-51802928D01*
X66061833Y-51700785D01*
X66283762Y-51552497D01*
X66472497Y-51363762D01*
X66620785Y-51141833D01*
X66690000Y-50974734D01*
X66759215Y-51141833D01*
X66907503Y-51363762D01*
X67096238Y-51552497D01*
X67318167Y-51700785D01*
X67564761Y-51802928D01*
X67826544Y-51855000D01*
X68093456Y-51855000D01*
X68355239Y-51802928D01*
X68601833Y-51700785D01*
X68823762Y-51552497D01*
X69012497Y-51363762D01*
X69160785Y-51141833D01*
X69230000Y-50974734D01*
X69299215Y-51141833D01*
X69447503Y-51363762D01*
X69636238Y-51552497D01*
X69858167Y-51700785D01*
X70104761Y-51802928D01*
X70366544Y-51855000D01*
X70633456Y-51855000D01*
X70895239Y-51802928D01*
X71141833Y-51700785D01*
X71363762Y-51552497D01*
X71480699Y-51435560D01*
X74664045Y-51435560D01*
X74725932Y-51671368D01*
X74967790Y-51784266D01*
X75227027Y-51847811D01*
X75493680Y-51859561D01*
X75757501Y-51819063D01*
X76008353Y-51727875D01*
X76114068Y-51671368D01*
X76175955Y-51435560D01*
X75420000Y-50679605D01*
X74664045Y-51435560D01*
X71480699Y-51435560D01*
X71552497Y-51363762D01*
X71700785Y-51141833D01*
X71802928Y-50895239D01*
X71855000Y-50633456D01*
X71855000Y-50573680D01*
X74060439Y-50573680D01*
X74100937Y-50837501D01*
X74192125Y-51088353D01*
X74248632Y-51194068D01*
X74484440Y-51255955D01*
X75240395Y-50500000D01*
X75599605Y-50500000D01*
X76355560Y-51255955D01*
X76591368Y-51194068D01*
X76691764Y-50978993D01*
X76759215Y-51141833D01*
X76907503Y-51363762D01*
X77096238Y-51552497D01*
X77318167Y-51700785D01*
X77564761Y-51802928D01*
X77826544Y-51855000D01*
X78093456Y-51855000D01*
X78355239Y-51802928D01*
X78601833Y-51700785D01*
X78823762Y-51552497D01*
X79012497Y-51363762D01*
X79160785Y-51141833D01*
X79230000Y-50974734D01*
X79299215Y-51141833D01*
X79447503Y-51363762D01*
X79636238Y-51552497D01*
X79858167Y-51700785D01*
X80104761Y-51802928D01*
X80366544Y-51855000D01*
X80633456Y-51855000D01*
X80895239Y-51802928D01*
X81141833Y-51700785D01*
X81363762Y-51552497D01*
X81552497Y-51363762D01*
X81700785Y-51141833D01*
X81802928Y-50895239D01*
X81855000Y-50633456D01*
X81855000Y-50366544D01*
X81802928Y-50104761D01*
X81700785Y-49858167D01*
X81552497Y-49636238D01*
X81363762Y-49447503D01*
X81141833Y-49299215D01*
X80895239Y-49197072D01*
X80633456Y-49145000D01*
X80366544Y-49145000D01*
X80104761Y-49197072D01*
X79858167Y-49299215D01*
X79636238Y-49447503D01*
X79447503Y-49636238D01*
X79299215Y-49858167D01*
X79230000Y-50025266D01*
X79160785Y-49858167D01*
X79012497Y-49636238D01*
X78823762Y-49447503D01*
X78601833Y-49299215D01*
X78355239Y-49197072D01*
X78093456Y-49145000D01*
X77826544Y-49145000D01*
X77564761Y-49197072D01*
X77318167Y-49299215D01*
X77096238Y-49447503D01*
X76907503Y-49636238D01*
X76759215Y-49858167D01*
X76689562Y-50026324D01*
X76647875Y-49911647D01*
X76591368Y-49805932D01*
X76355560Y-49744045D01*
X75599605Y-50500000D01*
X75240395Y-50500000D01*
X74484440Y-49744045D01*
X74248632Y-49805932D01*
X74135734Y-50047790D01*
X74072189Y-50307027D01*
X74060439Y-50573680D01*
X71855000Y-50573680D01*
X71855000Y-50366544D01*
X71802928Y-50104761D01*
X71700785Y-49858167D01*
X71552497Y-49636238D01*
X71480699Y-49564440D01*
X74664045Y-49564440D01*
X75420000Y-50320395D01*
X76175955Y-49564440D01*
X76114068Y-49328632D01*
X75872210Y-49215734D01*
X75612973Y-49152189D01*
X75346320Y-49140439D01*
X75082499Y-49180937D01*
X74831647Y-49272125D01*
X74725932Y-49328632D01*
X74664045Y-49564440D01*
X71480699Y-49564440D01*
X71363762Y-49447503D01*
X71141833Y-49299215D01*
X70895239Y-49197072D01*
X70633456Y-49145000D01*
X70366544Y-49145000D01*
X70104761Y-49197072D01*
X69858167Y-49299215D01*
X69636238Y-49447503D01*
X69447503Y-49636238D01*
X69299215Y-49858167D01*
X69230000Y-50025266D01*
X69160785Y-49858167D01*
X69012497Y-49636238D01*
X68823762Y-49447503D01*
X68601833Y-49299215D01*
X68355239Y-49197072D01*
X68093456Y-49145000D01*
X67826544Y-49145000D01*
X67564761Y-49197072D01*
X67318167Y-49299215D01*
X67096238Y-49447503D01*
X66907503Y-49636238D01*
X66759215Y-49858167D01*
X66690000Y-50025266D01*
X66620785Y-49858167D01*
X66472497Y-49636238D01*
X66283762Y-49447503D01*
X66061833Y-49299215D01*
X65815239Y-49197072D01*
X65553456Y-49145000D01*
X65286544Y-49145000D01*
X65024761Y-49197072D01*
X64778167Y-49299215D01*
X64556238Y-49447503D01*
X64367503Y-49636238D01*
X64219215Y-49858167D01*
X64117072Y-50104761D01*
X64065000Y-50366544D01*
X51290847Y-50366544D01*
X51271680Y-50320273D01*
X51114637Y-50085241D01*
X50914759Y-49885363D01*
X50679727Y-49728320D01*
X50418574Y-49620147D01*
X50141335Y-49565000D01*
X49858665Y-49565000D01*
X49581426Y-49620147D01*
X49320273Y-49728320D01*
X49085241Y-49885363D01*
X48885363Y-50085241D01*
X48728320Y-50320273D01*
X48620147Y-50581426D01*
X48565000Y-50858665D01*
X43177369Y-50858665D01*
X43188072Y-50750000D01*
X43188072Y-48250000D01*
X43175812Y-48125518D01*
X43139502Y-48005820D01*
X43080537Y-47895506D01*
X43001185Y-47798815D01*
X42904494Y-47719463D01*
X42794180Y-47660498D01*
X42674482Y-47624188D01*
X42550000Y-47611928D01*
X40050000Y-47611928D01*
X39925518Y-47624188D01*
X39805820Y-47660498D01*
X39695506Y-47719463D01*
X39598815Y-47798815D01*
X39519463Y-47895506D01*
X39460498Y-48005820D01*
X39424188Y-48125518D01*
X39411928Y-48250000D01*
X38960000Y-48250000D01*
X38960000Y-47214801D01*
X40614803Y-45560000D01*
X42721957Y-45560000D01*
X42825363Y-45714759D01*
X43025241Y-45914637D01*
X43260273Y-46071680D01*
X43521426Y-46179853D01*
X43798665Y-46235000D01*
X44081335Y-46235000D01*
X44358574Y-46179853D01*
X44619727Y-46071680D01*
X44854759Y-45914637D01*
X45054637Y-45714759D01*
X45211680Y-45479727D01*
X45319853Y-45218574D01*
X45375000Y-44941335D01*
X45375000Y-44658665D01*
X52665000Y-44658665D01*
X52665000Y-44941335D01*
X52720147Y-45218574D01*
X52828320Y-45479727D01*
X52985363Y-45714759D01*
X53185241Y-45914637D01*
X53420273Y-46071680D01*
X53681426Y-46179853D01*
X53958665Y-46235000D01*
X54241335Y-46235000D01*
X54518574Y-46179853D01*
X54779727Y-46071680D01*
X55014759Y-45914637D01*
X55214637Y-45714759D01*
X55371680Y-45479727D01*
X55479853Y-45218574D01*
X55535000Y-44941335D01*
X55535000Y-44658665D01*
X55479853Y-44381426D01*
X55371680Y-44120273D01*
X55214637Y-43885241D01*
X55014759Y-43685363D01*
X54812174Y-43550000D01*
X56511928Y-43550000D01*
X56524188Y-43674482D01*
X56560498Y-43794180D01*
X56619463Y-43904494D01*
X56698815Y-44001185D01*
X56795506Y-44080537D01*
X56905820Y-44139502D01*
X57025518Y-44175812D01*
X57150000Y-44188072D01*
X57314250Y-44185000D01*
X57473000Y-44026250D01*
X57473000Y-42927000D01*
X56673750Y-42927000D01*
X56515000Y-43085750D01*
X56511928Y-43550000D01*
X54812174Y-43550000D01*
X54779727Y-43528320D01*
X54518574Y-43420147D01*
X54241335Y-43365000D01*
X53958665Y-43365000D01*
X53681426Y-43420147D01*
X53420273Y-43528320D01*
X53185241Y-43685363D01*
X52985363Y-43885241D01*
X52828320Y-44120273D01*
X52720147Y-44381426D01*
X52665000Y-44658665D01*
X45375000Y-44658665D01*
X45319853Y-44381426D01*
X45211680Y-44120273D01*
X45054637Y-43885241D01*
X44854759Y-43685363D01*
X44619727Y-43528320D01*
X44358574Y-43420147D01*
X44081335Y-43365000D01*
X43798665Y-43365000D01*
X43521426Y-43420147D01*
X43260273Y-43528320D01*
X43025241Y-43685363D01*
X42825363Y-43885241D01*
X42721957Y-44040000D01*
X40337322Y-44040000D01*
X40299999Y-44036324D01*
X40262676Y-44040000D01*
X40262667Y-44040000D01*
X40151014Y-44050997D01*
X40007753Y-44094454D01*
X39875724Y-44165026D01*
X39875722Y-44165027D01*
X39875723Y-44165027D01*
X39788996Y-44236201D01*
X39788992Y-44236205D01*
X39759999Y-44259999D01*
X39736205Y-44288992D01*
X37688998Y-46336201D01*
X37660000Y-46359999D01*
X37636202Y-46388997D01*
X37636201Y-46388998D01*
X37565026Y-46475724D01*
X37494454Y-46607754D01*
X37450998Y-46751015D01*
X37436324Y-46900000D01*
X37027000Y-46900000D01*
X37027000Y-42050000D01*
X56511928Y-42050000D01*
X56515000Y-42514250D01*
X56673750Y-42673000D01*
X57473000Y-42673000D01*
X57473000Y-41573750D01*
X57727000Y-41573750D01*
X57727000Y-42673000D01*
X57747000Y-42673000D01*
X57747000Y-42927000D01*
X57727000Y-42927000D01*
X57727000Y-44026250D01*
X57885750Y-44185000D01*
X58050000Y-44188072D01*
X58174482Y-44175812D01*
X58294180Y-44139502D01*
X58403640Y-44080993D01*
X58452780Y-44107259D01*
X58657303Y-44169300D01*
X58870000Y-44190249D01*
X59082696Y-44169300D01*
X59287219Y-44107259D01*
X59475710Y-44006509D01*
X59505000Y-43982471D01*
X59534290Y-44006509D01*
X59722780Y-44107259D01*
X59927303Y-44169300D01*
X60140000Y-44190249D01*
X60352696Y-44169300D01*
X60557219Y-44107259D01*
X60745710Y-44006509D01*
X60910922Y-43870922D01*
X61046509Y-43705710D01*
X61147259Y-43517220D01*
X61209300Y-43312697D01*
X61225000Y-43153294D01*
X61225000Y-42446707D01*
X61209300Y-42287304D01*
X61147259Y-42082781D01*
X61046509Y-41894290D01*
X60910922Y-41729078D01*
X60745710Y-41593491D01*
X60557220Y-41492741D01*
X60352697Y-41430700D01*
X60140000Y-41409751D01*
X59927304Y-41430700D01*
X59722781Y-41492741D01*
X59534291Y-41593491D01*
X59505000Y-41617529D01*
X59475710Y-41593491D01*
X59287220Y-41492741D01*
X59082697Y-41430700D01*
X58870000Y-41409751D01*
X58657304Y-41430700D01*
X58452781Y-41492741D01*
X58403641Y-41519007D01*
X58294180Y-41460498D01*
X58174482Y-41424188D01*
X58050000Y-41411928D01*
X57885750Y-41415000D01*
X57727000Y-41573750D01*
X57473000Y-41573750D01*
X57314250Y-41415000D01*
X57150000Y-41411928D01*
X57025518Y-41424188D01*
X56905820Y-41460498D01*
X56795506Y-41519463D01*
X56698815Y-41598815D01*
X56619463Y-41695506D01*
X56560498Y-41805820D01*
X56524188Y-41925518D01*
X56511928Y-42050000D01*
X37027000Y-42050000D01*
X37027000Y-39914344D01*
X63315000Y-39914344D01*
X63315000Y-40285656D01*
X63387439Y-40649834D01*
X63529534Y-40992882D01*
X63735825Y-41301618D01*
X63998382Y-41564175D01*
X64307118Y-41770466D01*
X64650166Y-41912561D01*
X65014344Y-41985000D01*
X65385656Y-41985000D01*
X65749834Y-41912561D01*
X66092882Y-41770466D01*
X66401618Y-41564175D01*
X66552188Y-41413605D01*
X69066000Y-41413605D01*
X69191914Y-41703577D01*
X69524126Y-41869433D01*
X69882312Y-41967290D01*
X70252706Y-41993389D01*
X70621075Y-41946725D01*
X70973262Y-41829094D01*
X71208086Y-41703577D01*
X71334000Y-41413605D01*
X70200000Y-40279605D01*
X69066000Y-41413605D01*
X66552188Y-41413605D01*
X66664175Y-41301618D01*
X66870466Y-40992882D01*
X67012561Y-40649834D01*
X67085000Y-40285656D01*
X67085000Y-40152706D01*
X68306611Y-40152706D01*
X68353275Y-40521075D01*
X68470906Y-40873262D01*
X68596423Y-41108086D01*
X68886395Y-41234000D01*
X70020395Y-40100000D01*
X70379605Y-40100000D01*
X71513605Y-41234000D01*
X71803577Y-41108086D01*
X71969433Y-40775874D01*
X72067290Y-40417688D01*
X72093389Y-40047294D01*
X72076548Y-39914344D01*
X73315000Y-39914344D01*
X73315000Y-40285656D01*
X73387439Y-40649834D01*
X73529534Y-40992882D01*
X73735825Y-41301618D01*
X73998382Y-41564175D01*
X74307118Y-41770466D01*
X74650166Y-41912561D01*
X75014344Y-41985000D01*
X75385656Y-41985000D01*
X75749834Y-41912561D01*
X76092882Y-41770466D01*
X76401618Y-41564175D01*
X76664175Y-41301618D01*
X76870466Y-40992882D01*
X77012561Y-40649834D01*
X77085000Y-40285656D01*
X77085000Y-39914344D01*
X77012561Y-39550166D01*
X76870466Y-39207118D01*
X76664175Y-38898382D01*
X76615793Y-38850000D01*
X78311928Y-38850000D01*
X78311928Y-41350000D01*
X78324188Y-41474482D01*
X78360498Y-41594180D01*
X78419463Y-41704494D01*
X78498815Y-41801185D01*
X78595506Y-41880537D01*
X78705820Y-41939502D01*
X78825518Y-41975812D01*
X78950000Y-41988072D01*
X81450000Y-41988072D01*
X81574482Y-41975812D01*
X81694180Y-41939502D01*
X81804494Y-41880537D01*
X81901185Y-41801185D01*
X81980537Y-41704494D01*
X82039502Y-41594180D01*
X82075812Y-41474482D01*
X82088072Y-41350000D01*
X82088072Y-38850000D01*
X82075812Y-38725518D01*
X82039502Y-38605820D01*
X81980537Y-38495506D01*
X81901185Y-38398815D01*
X81804494Y-38319463D01*
X81694180Y-38260498D01*
X81574482Y-38224188D01*
X81450000Y-38211928D01*
X78950000Y-38211928D01*
X78825518Y-38224188D01*
X78705820Y-38260498D01*
X78595506Y-38319463D01*
X78498815Y-38398815D01*
X78419463Y-38495506D01*
X78360498Y-38605820D01*
X78324188Y-38725518D01*
X78311928Y-38850000D01*
X76615793Y-38850000D01*
X76401618Y-38635825D01*
X76092882Y-38429534D01*
X75749834Y-38287439D01*
X75385656Y-38215000D01*
X75014344Y-38215000D01*
X74650166Y-38287439D01*
X74307118Y-38429534D01*
X73998382Y-38635825D01*
X73735825Y-38898382D01*
X73529534Y-39207118D01*
X73387439Y-39550166D01*
X73315000Y-39914344D01*
X72076548Y-39914344D01*
X72046725Y-39678925D01*
X71929094Y-39326738D01*
X71803577Y-39091914D01*
X71513605Y-38966000D01*
X70379605Y-40100000D01*
X70020395Y-40100000D01*
X68886395Y-38966000D01*
X68596423Y-39091914D01*
X68430567Y-39424126D01*
X68332710Y-39782312D01*
X68306611Y-40152706D01*
X67085000Y-40152706D01*
X67085000Y-39914344D01*
X67012561Y-39550166D01*
X66870466Y-39207118D01*
X66664175Y-38898382D01*
X66552188Y-38786395D01*
X69066000Y-38786395D01*
X70200000Y-39920395D01*
X71334000Y-38786395D01*
X71208086Y-38496423D01*
X70875874Y-38330567D01*
X70517688Y-38232710D01*
X70147294Y-38206611D01*
X69778925Y-38253275D01*
X69426738Y-38370906D01*
X69191914Y-38496423D01*
X69066000Y-38786395D01*
X66552188Y-38786395D01*
X66401618Y-38635825D01*
X66092882Y-38429534D01*
X65749834Y-38287439D01*
X65385656Y-38215000D01*
X65014344Y-38215000D01*
X64650166Y-38287439D01*
X64307118Y-38429534D01*
X63998382Y-38635825D01*
X63735825Y-38898382D01*
X63529534Y-39207118D01*
X63387439Y-39550166D01*
X63315000Y-39914344D01*
X37027000Y-39914344D01*
X37027000Y-35604332D01*
X37060989Y-35562657D01*
X37104091Y-35527000D01*
X84209332Y-35527000D01*
X83893425Y-35842907D01*
G37*
X83893425Y-35842907D02*
X83540270Y-36371442D01*
X83297012Y-36958719D01*
X83173000Y-37582168D01*
X83173000Y-38217832D01*
X83297012Y-38841281D01*
X83540270Y-39428558D01*
X83893425Y-39957093D01*
X84342907Y-40406575D01*
X84871442Y-40759730D01*
X85458719Y-41002988D01*
X86082168Y-41127000D01*
X86717832Y-41127000D01*
X87341281Y-41002988D01*
X87928558Y-40759730D01*
X88457093Y-40406575D01*
X88840001Y-40023667D01*
X88840000Y-95467721D01*
X88830420Y-95565424D01*
X88811420Y-95628357D01*
X88780554Y-95686406D01*
X88739011Y-95737343D01*
X88688356Y-95779248D01*
X88630529Y-95810515D01*
X88567728Y-95829956D01*
X88472165Y-95840000D01*
X41523668Y-95840000D01*
X41906575Y-95457093D01*
X42259730Y-94928558D01*
X42502988Y-94341281D01*
X42627000Y-93717832D01*
X42627000Y-93478665D01*
X48445000Y-93478665D01*
X48445000Y-93761335D01*
X48500147Y-94038574D01*
X48608320Y-94299727D01*
X48765363Y-94534759D01*
X48965241Y-94734637D01*
X49200273Y-94891680D01*
X49461426Y-94999853D01*
X49738665Y-95055000D01*
X50021335Y-95055000D01*
X50298574Y-94999853D01*
X50559727Y-94891680D01*
X50794759Y-94734637D01*
X50994637Y-94534759D01*
X51150000Y-94302241D01*
X51305363Y-94534759D01*
X51505241Y-94734637D01*
X51740273Y-94891680D01*
X52001426Y-94999853D01*
X52278665Y-95055000D01*
X52561335Y-95055000D01*
X52838574Y-94999853D01*
X53099727Y-94891680D01*
X53334759Y-94734637D01*
X53534637Y-94534759D01*
X53691680Y-94299727D01*
X53696067Y-94289135D01*
X53807615Y-94475131D01*
X53996586Y-94683519D01*
X54222580Y-94851037D01*
X54476913Y-94971246D01*
X54610961Y-95011904D01*
X54833000Y-94889915D01*
X54833000Y-93747000D01*
X54813000Y-93747000D01*
X54813000Y-93493000D01*
X54833000Y-93493000D01*
X54833000Y-92350085D01*
X55087000Y-92350085D01*
X55087000Y-93493000D01*
X55107000Y-93493000D01*
X55107000Y-93747000D01*
X55087000Y-93747000D01*
X55087000Y-94889915D01*
X55309039Y-95011904D01*
X55443087Y-94971246D01*
X55697420Y-94851037D01*
X55923414Y-94683519D01*
X56112385Y-94475131D01*
X56223933Y-94289135D01*
X56228320Y-94299727D01*
X56385363Y-94534759D01*
X56585241Y-94734637D01*
X56820273Y-94891680D01*
X57081426Y-94999853D01*
X57358665Y-95055000D01*
X57641335Y-95055000D01*
X57918574Y-94999853D01*
X58179727Y-94891680D01*
X58414759Y-94734637D01*
X58614637Y-94534759D01*
X58771680Y-94299727D01*
X58879853Y-94038574D01*
X58935000Y-93761335D01*
X58935000Y-93478665D01*
X58879853Y-93201426D01*
X58771680Y-92940273D01*
X58722416Y-92866544D01*
X64065000Y-92866544D01*
X64065000Y-93133456D01*
X64117072Y-93395239D01*
X64219215Y-93641833D01*
X64367503Y-93863762D01*
X64556238Y-94052497D01*
X64778167Y-94200785D01*
X65024761Y-94302928D01*
X65286544Y-94355000D01*
X65553456Y-94355000D01*
X65815239Y-94302928D01*
X66061833Y-94200785D01*
X66283762Y-94052497D01*
X66472497Y-93863762D01*
X66620785Y-93641833D01*
X66690000Y-93474734D01*
X66759215Y-93641833D01*
X66907503Y-93863762D01*
X67096238Y-94052497D01*
X67318167Y-94200785D01*
X67564761Y-94302928D01*
X67826544Y-94355000D01*
X68093456Y-94355000D01*
X68355239Y-94302928D01*
X68601833Y-94200785D01*
X68823762Y-94052497D01*
X69012497Y-93863762D01*
X69160785Y-93641833D01*
X69230000Y-93474734D01*
X69299215Y-93641833D01*
X69447503Y-93863762D01*
X69636238Y-94052497D01*
X69858167Y-94200785D01*
X70104761Y-94302928D01*
X70366544Y-94355000D01*
X70633456Y-94355000D01*
X70895239Y-94302928D01*
X71141833Y-94200785D01*
X71363762Y-94052497D01*
X71480699Y-93935560D01*
X74664045Y-93935560D01*
X74725932Y-94171368D01*
X74967790Y-94284266D01*
X75227027Y-94347811D01*
X75493680Y-94359561D01*
X75757501Y-94319063D01*
X76008353Y-94227875D01*
X76114068Y-94171368D01*
X76175955Y-93935560D01*
X75420000Y-93179605D01*
X74664045Y-93935560D01*
X71480699Y-93935560D01*
X71552497Y-93863762D01*
X71700785Y-93641833D01*
X71802928Y-93395239D01*
X71855000Y-93133456D01*
X71855000Y-93073680D01*
X74060439Y-93073680D01*
X74100937Y-93337501D01*
X74192125Y-93588353D01*
X74248632Y-93694068D01*
X74484440Y-93755955D01*
X75240395Y-93000000D01*
X75599605Y-93000000D01*
X76355560Y-93755955D01*
X76591368Y-93694068D01*
X76691764Y-93478993D01*
X76759215Y-93641833D01*
X76907503Y-93863762D01*
X77096238Y-94052497D01*
X77318167Y-94200785D01*
X77564761Y-94302928D01*
X77826544Y-94355000D01*
X78093456Y-94355000D01*
X78355239Y-94302928D01*
X78601833Y-94200785D01*
X78823762Y-94052497D01*
X79012497Y-93863762D01*
X79160785Y-93641833D01*
X79230000Y-93474734D01*
X79299215Y-93641833D01*
X79447503Y-93863762D01*
X79636238Y-94052497D01*
X79858167Y-94200785D01*
X80104761Y-94302928D01*
X80366544Y-94355000D01*
X80633456Y-94355000D01*
X80895239Y-94302928D01*
X81141833Y-94200785D01*
X81363762Y-94052497D01*
X81552497Y-93863762D01*
X81700785Y-93641833D01*
X81802928Y-93395239D01*
X81855000Y-93133456D01*
X81855000Y-92866544D01*
X81802928Y-92604761D01*
X81700785Y-92358167D01*
X81552497Y-92136238D01*
X81363762Y-91947503D01*
X81141833Y-91799215D01*
X80895239Y-91697072D01*
X80633456Y-91645000D01*
X80366544Y-91645000D01*
X80104761Y-91697072D01*
X79858167Y-91799215D01*
X79636238Y-91947503D01*
X79447503Y-92136238D01*
X79299215Y-92358167D01*
X79230000Y-92525266D01*
X79160785Y-92358167D01*
X79012497Y-92136238D01*
X78823762Y-91947503D01*
X78601833Y-91799215D01*
X78355239Y-91697072D01*
X78093456Y-91645000D01*
X77826544Y-91645000D01*
X77564761Y-91697072D01*
X77318167Y-91799215D01*
X77096238Y-91947503D01*
X76907503Y-92136238D01*
X76759215Y-92358167D01*
X76689562Y-92526324D01*
X76647875Y-92411647D01*
X76591368Y-92305932D01*
X76355560Y-92244045D01*
X75599605Y-93000000D01*
X75240395Y-93000000D01*
X74484440Y-92244045D01*
X74248632Y-92305932D01*
X74135734Y-92547790D01*
X74072189Y-92807027D01*
X74060439Y-93073680D01*
X71855000Y-93073680D01*
X71855000Y-92866544D01*
X71802928Y-92604761D01*
X71700785Y-92358167D01*
X71552497Y-92136238D01*
X71480699Y-92064440D01*
X74664045Y-92064440D01*
X75420000Y-92820395D01*
X76175955Y-92064440D01*
X76114068Y-91828632D01*
X75872210Y-91715734D01*
X75612973Y-91652189D01*
X75346320Y-91640439D01*
X75082499Y-91680937D01*
X74831647Y-91772125D01*
X74725932Y-91828632D01*
X74664045Y-92064440D01*
X71480699Y-92064440D01*
X71363762Y-91947503D01*
X71141833Y-91799215D01*
X70895239Y-91697072D01*
X70633456Y-91645000D01*
X70366544Y-91645000D01*
X70104761Y-91697072D01*
X69858167Y-91799215D01*
X69636238Y-91947503D01*
X69447503Y-92136238D01*
X69299215Y-92358167D01*
X69230000Y-92525266D01*
X69160785Y-92358167D01*
X69012497Y-92136238D01*
X68823762Y-91947503D01*
X68601833Y-91799215D01*
X68355239Y-91697072D01*
X68093456Y-91645000D01*
X67826544Y-91645000D01*
X67564761Y-91697072D01*
X67318167Y-91799215D01*
X67096238Y-91947503D01*
X66907503Y-92136238D01*
X66759215Y-92358167D01*
X66690000Y-92525266D01*
X66620785Y-92358167D01*
X66472497Y-92136238D01*
X66283762Y-91947503D01*
X66061833Y-91799215D01*
X65815239Y-91697072D01*
X65553456Y-91645000D01*
X65286544Y-91645000D01*
X65024761Y-91697072D01*
X64778167Y-91799215D01*
X64556238Y-91947503D01*
X64367503Y-92136238D01*
X64219215Y-92358167D01*
X64117072Y-92604761D01*
X64065000Y-92866544D01*
X58722416Y-92866544D01*
X58614637Y-92705241D01*
X58414759Y-92505363D01*
X58179727Y-92348320D01*
X57918574Y-92240147D01*
X57641335Y-92185000D01*
X57358665Y-92185000D01*
X57081426Y-92240147D01*
X56820273Y-92348320D01*
X56585241Y-92505363D01*
X56385363Y-92705241D01*
X56228320Y-92940273D01*
X56223933Y-92950865D01*
X56112385Y-92764869D01*
X55923414Y-92556481D01*
X55697420Y-92388963D01*
X55443087Y-92268754D01*
X55309039Y-92228096D01*
X55087000Y-92350085D01*
X54833000Y-92350085D01*
X54610961Y-92228096D01*
X54476913Y-92268754D01*
X54222580Y-92388963D01*
X53996586Y-92556481D01*
X53807615Y-92764869D01*
X53696067Y-92950865D01*
X53691680Y-92940273D01*
X53534637Y-92705241D01*
X53334759Y-92505363D01*
X53099727Y-92348320D01*
X52838574Y-92240147D01*
X52561335Y-92185000D01*
X52278665Y-92185000D01*
X52001426Y-92240147D01*
X51740273Y-92348320D01*
X51505241Y-92505363D01*
X51305363Y-92705241D01*
X51150000Y-92937759D01*
X50994637Y-92705241D01*
X50794759Y-92505363D01*
X50559727Y-92348320D01*
X50298574Y-92240147D01*
X50021335Y-92185000D01*
X49738665Y-92185000D01*
X49461426Y-92240147D01*
X49200273Y-92348320D01*
X48965241Y-92505363D01*
X48765363Y-92705241D01*
X48608320Y-92940273D01*
X48500147Y-93201426D01*
X48445000Y-93478665D01*
X42627000Y-93478665D01*
X42627000Y-93082168D01*
X42502988Y-92458719D01*
X42309958Y-91992702D01*
X60186903Y-91992702D01*
X60258486Y-92236671D01*
X60513996Y-92357571D01*
X60788184Y-92426300D01*
X61070512Y-92440217D01*
X61350130Y-92398787D01*
X61616292Y-92303603D01*
X61741514Y-92236671D01*
X61813097Y-91992702D01*
X61000000Y-91179605D01*
X60186903Y-91992702D01*
X42309958Y-91992702D01*
X42259730Y-91871442D01*
X41906575Y-91342907D01*
X41634180Y-91070512D01*
X59559783Y-91070512D01*
X59601213Y-91350130D01*
X59696397Y-91616292D01*
X59763329Y-91741514D01*
X60007298Y-91813097D01*
X60820395Y-91000000D01*
X61179605Y-91000000D01*
X61992702Y-91813097D01*
X62236671Y-91741514D01*
X62357571Y-91486004D01*
X62426300Y-91211816D01*
X62440217Y-90929488D01*
X62398787Y-90649870D01*
X62303603Y-90383708D01*
X62236671Y-90258486D01*
X61992702Y-90186903D01*
X61179605Y-91000000D01*
X60820395Y-91000000D01*
X60007298Y-90186903D01*
X59763329Y-90258486D01*
X59642429Y-90513996D01*
X59573700Y-90788184D01*
X59559783Y-91070512D01*
X41634180Y-91070512D01*
X41457093Y-90893425D01*
X40928558Y-90540270D01*
X40341281Y-90297012D01*
X39717832Y-90173000D01*
X39082168Y-90173000D01*
X38458719Y-90297012D01*
X37871442Y-90540270D01*
X37342907Y-90893425D01*
X37027000Y-91209332D01*
X37027000Y-46900000D01*
X37436324Y-46900000D01*
X37440001Y-46937333D01*
X37440000Y-84362678D01*
X37436324Y-84400000D01*
X37440000Y-84437322D01*
X37440000Y-84437332D01*
X37450997Y-84548985D01*
X37494454Y-84692246D01*
X37565026Y-84824276D01*
X37597144Y-84863411D01*
X37659999Y-84940001D01*
X37689003Y-84963804D01*
X42476201Y-89751003D01*
X42499999Y-89780001D01*
X42615724Y-89874974D01*
X42747753Y-89945546D01*
X42891014Y-89989003D01*
X43002667Y-90000000D01*
X43002675Y-90000000D01*
X43040000Y-90003676D01*
X43077325Y-90000000D01*
X44721822Y-90000000D01*
X44846525Y-90186632D01*
X45053368Y-90393475D01*
X45296589Y-90555990D01*
X45566842Y-90667932D01*
X45853740Y-90725000D01*
X46146260Y-90725000D01*
X46433158Y-90667932D01*
X46703411Y-90555990D01*
X46946632Y-90393475D01*
X47153475Y-90186632D01*
X47315990Y-89943411D01*
X47427932Y-89673158D01*
X47485000Y-89386260D01*
X47485000Y-89093740D01*
X47427932Y-88806842D01*
X47315990Y-88536589D01*
X47153475Y-88293368D01*
X46946632Y-88086525D01*
X46764466Y-87964805D01*
X46881355Y-87895178D01*
X47097588Y-87700269D01*
X47271641Y-87466920D01*
X47396825Y-87204099D01*
X47441476Y-87056890D01*
X47320155Y-86827000D01*
X46127000Y-86827000D01*
X46127000Y-86847000D01*
X45873000Y-86847000D01*
X45873000Y-86827000D01*
X44679845Y-86827000D01*
X44558524Y-87056890D01*
X44603175Y-87204099D01*
X44728359Y-87466920D01*
X44902412Y-87700269D01*
X45118645Y-87895178D01*
X45235534Y-87964805D01*
X45053368Y-88086525D01*
X44846525Y-88293368D01*
X44721822Y-88480000D01*
X43354802Y-88480000D01*
X38960000Y-84085199D01*
X38960000Y-73150000D01*
X44511928Y-73150000D01*
X44511928Y-74850000D01*
X44524188Y-74974482D01*
X44560498Y-75094180D01*
X44619463Y-75204494D01*
X44698815Y-75301185D01*
X44795506Y-75380537D01*
X44905820Y-75439502D01*
X44978380Y-75461513D01*
X44846525Y-75593368D01*
X44684010Y-75836589D01*
X44572068Y-76106842D01*
X44515000Y-76393740D01*
X44515000Y-76686260D01*
X44572068Y-76973158D01*
X44684010Y-77243411D01*
X44846525Y-77486632D01*
X45053368Y-77693475D01*
X45227760Y-77810000D01*
X45053368Y-77926525D01*
X44846525Y-78133368D01*
X44684010Y-78376589D01*
X44572068Y-78646842D01*
X44515000Y-78933740D01*
X44515000Y-79226260D01*
X44572068Y-79513158D01*
X44684010Y-79783411D01*
X44846525Y-80026632D01*
X45053368Y-80233475D01*
X45227760Y-80350000D01*
X45053368Y-80466525D01*
X44846525Y-80673368D01*
X44684010Y-80916589D01*
X44572068Y-81186842D01*
X44515000Y-81473740D01*
X44515000Y-81766260D01*
X44572068Y-82053158D01*
X44684010Y-82323411D01*
X44846525Y-82566632D01*
X45053368Y-82773475D01*
X45227760Y-82890000D01*
X45053368Y-83006525D01*
X44846525Y-83213368D01*
X44684010Y-83456589D01*
X44572068Y-83726842D01*
X44515000Y-84013740D01*
X44515000Y-84306260D01*
X44572068Y-84593158D01*
X44684010Y-84863411D01*
X44846525Y-85106632D01*
X45053368Y-85313475D01*
X45235534Y-85435195D01*
X45118645Y-85504822D01*
X44902412Y-85699731D01*
X44728359Y-85933080D01*
X44603175Y-86195901D01*
X44558524Y-86343110D01*
X44679845Y-86573000D01*
X45873000Y-86573000D01*
X45873000Y-86553000D01*
X46127000Y-86553000D01*
X46127000Y-86573000D01*
X47320155Y-86573000D01*
X47441476Y-86343110D01*
X47396825Y-86195901D01*
X47271641Y-85933080D01*
X47216136Y-85858665D01*
X48445000Y-85858665D01*
X48445000Y-86141335D01*
X48500147Y-86418574D01*
X48608320Y-86679727D01*
X48765363Y-86914759D01*
X48965241Y-87114637D01*
X49200273Y-87271680D01*
X49461426Y-87379853D01*
X49738665Y-87435000D01*
X50021335Y-87435000D01*
X50298574Y-87379853D01*
X50559727Y-87271680D01*
X50794759Y-87114637D01*
X50994637Y-86914759D01*
X51150000Y-86682241D01*
X51305363Y-86914759D01*
X51505241Y-87114637D01*
X51740273Y-87271680D01*
X52001426Y-87379853D01*
X52278665Y-87435000D01*
X52561335Y-87435000D01*
X52838574Y-87379853D01*
X53099727Y-87271680D01*
X53334759Y-87114637D01*
X53534637Y-86914759D01*
X53690000Y-86682241D01*
X53845363Y-86914759D01*
X54045241Y-87114637D01*
X54280273Y-87271680D01*
X54541426Y-87379853D01*
X54818665Y-87435000D01*
X55101335Y-87435000D01*
X55378574Y-87379853D01*
X55639727Y-87271680D01*
X55874759Y-87114637D01*
X56073357Y-86916039D01*
X56074188Y-86924482D01*
X56110498Y-87044180D01*
X56169463Y-87154494D01*
X56248815Y-87251185D01*
X56345506Y-87330537D01*
X56455820Y-87389502D01*
X56575518Y-87425812D01*
X56700000Y-87438072D01*
X57130685Y-87438072D01*
X57082795Y-87509744D01*
X57004774Y-87698102D01*
X56965000Y-87898061D01*
X56965000Y-88101939D01*
X57004774Y-88301898D01*
X57082795Y-88490256D01*
X57196063Y-88659774D01*
X57340226Y-88803937D01*
X57509744Y-88917205D01*
X57698102Y-88995226D01*
X57898061Y-89035000D01*
X58101939Y-89035000D01*
X58301898Y-88995226D01*
X58490256Y-88917205D01*
X58659774Y-88803937D01*
X58803937Y-88659774D01*
X58917205Y-88490256D01*
X58971712Y-88358665D01*
X59565000Y-88358665D01*
X59565000Y-88641335D01*
X59620147Y-88918574D01*
X59728320Y-89179727D01*
X59885363Y-89414759D01*
X60085241Y-89614637D01*
X60285869Y-89748692D01*
X60258486Y-89763329D01*
X60186903Y-90007298D01*
X61000000Y-90820395D01*
X61813097Y-90007298D01*
X61741514Y-89763329D01*
X61712659Y-89749676D01*
X61914759Y-89614637D01*
X62114637Y-89414759D01*
X62271680Y-89179727D01*
X62379853Y-88918574D01*
X62435000Y-88641335D01*
X62435000Y-88358665D01*
X62379853Y-88081426D01*
X62271680Y-87820273D01*
X62114637Y-87585241D01*
X61914759Y-87385363D01*
X61679727Y-87228320D01*
X61418574Y-87120147D01*
X61141335Y-87065000D01*
X60858665Y-87065000D01*
X60581426Y-87120147D01*
X60320273Y-87228320D01*
X60085241Y-87385363D01*
X59885363Y-87585241D01*
X59728320Y-87820273D01*
X59620147Y-88081426D01*
X59565000Y-88358665D01*
X58971712Y-88358665D01*
X58995226Y-88301898D01*
X59035000Y-88101939D01*
X59035000Y-88039801D01*
X60216136Y-86858665D01*
X62565000Y-86858665D01*
X62565000Y-87141335D01*
X62620147Y-87418574D01*
X62728320Y-87679727D01*
X62885363Y-87914759D01*
X63085241Y-88114637D01*
X63320273Y-88271680D01*
X63581426Y-88379853D01*
X63858665Y-88435000D01*
X64141335Y-88435000D01*
X64418574Y-88379853D01*
X64679727Y-88271680D01*
X64914759Y-88114637D01*
X65114637Y-87914759D01*
X65271680Y-87679727D01*
X65379853Y-87418574D01*
X65435000Y-87141335D01*
X65435000Y-86858665D01*
X72725000Y-86858665D01*
X72725000Y-87141335D01*
X72780147Y-87418574D01*
X72888320Y-87679727D01*
X73045363Y-87914759D01*
X73245241Y-88114637D01*
X73480273Y-88271680D01*
X73741426Y-88379853D01*
X74018665Y-88435000D01*
X74301335Y-88435000D01*
X74578574Y-88379853D01*
X74839727Y-88271680D01*
X75074759Y-88114637D01*
X75274637Y-87914759D01*
X75431680Y-87679727D01*
X75539853Y-87418574D01*
X75580000Y-87216744D01*
X75620147Y-87418574D01*
X75728320Y-87679727D01*
X75885363Y-87914759D01*
X76085241Y-88114637D01*
X76320273Y-88271680D01*
X76581426Y-88379853D01*
X76858665Y-88435000D01*
X77141335Y-88435000D01*
X77418574Y-88379853D01*
X77679727Y-88271680D01*
X77914759Y-88114637D01*
X78114637Y-87914759D01*
X78271680Y-87679727D01*
X78379853Y-87418574D01*
X78435000Y-87141335D01*
X78435000Y-86858665D01*
X78379853Y-86581426D01*
X78271680Y-86320273D01*
X78114637Y-86085241D01*
X77914759Y-85885363D01*
X77679727Y-85728320D01*
X77418574Y-85620147D01*
X77141335Y-85565000D01*
X76858665Y-85565000D01*
X76581426Y-85620147D01*
X76320273Y-85728320D01*
X76085241Y-85885363D01*
X75885363Y-86085241D01*
X75728320Y-86320273D01*
X75620147Y-86581426D01*
X75580000Y-86783256D01*
X75539853Y-86581426D01*
X75431680Y-86320273D01*
X75274637Y-86085241D01*
X75074759Y-85885363D01*
X74839727Y-85728320D01*
X74578574Y-85620147D01*
X74301335Y-85565000D01*
X74018665Y-85565000D01*
X73741426Y-85620147D01*
X73480273Y-85728320D01*
X73245241Y-85885363D01*
X73045363Y-86085241D01*
X72888320Y-86320273D01*
X72780147Y-86581426D01*
X72725000Y-86858665D01*
X65435000Y-86858665D01*
X65379853Y-86581426D01*
X65271680Y-86320273D01*
X65114637Y-86085241D01*
X64914759Y-85885363D01*
X64679727Y-85728320D01*
X64418574Y-85620147D01*
X64141335Y-85565000D01*
X63858665Y-85565000D01*
X63581426Y-85620147D01*
X63320273Y-85728320D01*
X63085241Y-85885363D01*
X62885363Y-86085241D01*
X62728320Y-86320273D01*
X62620147Y-86581426D01*
X62565000Y-86858665D01*
X60216136Y-86858665D01*
X61039802Y-86035000D01*
X61101939Y-86035000D01*
X61301898Y-85995226D01*
X61490256Y-85917205D01*
X61659774Y-85803937D01*
X61803937Y-85659774D01*
X61917205Y-85490256D01*
X61995226Y-85301898D01*
X62035000Y-85101939D01*
X62035000Y-84898061D01*
X61995226Y-84698102D01*
X61917205Y-84509744D01*
X61803937Y-84340226D01*
X61659774Y-84196063D01*
X61490256Y-84082795D01*
X61301898Y-84004774D01*
X61101939Y-83965000D01*
X60898061Y-83965000D01*
X60698102Y-84004774D01*
X60509744Y-84082795D01*
X60340226Y-84196063D01*
X60196063Y-84340226D01*
X60082795Y-84509744D01*
X60004774Y-84698102D01*
X59965000Y-84898061D01*
X59965000Y-84960198D01*
X58938072Y-85987127D01*
X58938072Y-85200000D01*
X58925812Y-85075518D01*
X58889502Y-84955820D01*
X58830537Y-84845506D01*
X58751185Y-84748815D01*
X58654494Y-84669463D01*
X58544180Y-84610498D01*
X58424482Y-84574188D01*
X58300000Y-84561928D01*
X56700000Y-84561928D01*
X56575518Y-84574188D01*
X56455820Y-84610498D01*
X56345506Y-84669463D01*
X56248815Y-84748815D01*
X56169463Y-84845506D01*
X56110498Y-84955820D01*
X56074188Y-85075518D01*
X56073357Y-85083961D01*
X55874759Y-84885363D01*
X55639727Y-84728320D01*
X55378574Y-84620147D01*
X55101335Y-84565000D01*
X54818665Y-84565000D01*
X54541426Y-84620147D01*
X54280273Y-84728320D01*
X54045241Y-84885363D01*
X53845363Y-85085241D01*
X53690000Y-85317759D01*
X53534637Y-85085241D01*
X53334759Y-84885363D01*
X53099727Y-84728320D01*
X52838574Y-84620147D01*
X52561335Y-84565000D01*
X52278665Y-84565000D01*
X52001426Y-84620147D01*
X51740273Y-84728320D01*
X51505241Y-84885363D01*
X51305363Y-85085241D01*
X51150000Y-85317759D01*
X50994637Y-85085241D01*
X50794759Y-84885363D01*
X50559727Y-84728320D01*
X50298574Y-84620147D01*
X50021335Y-84565000D01*
X49738665Y-84565000D01*
X49461426Y-84620147D01*
X49200273Y-84728320D01*
X48965241Y-84885363D01*
X48765363Y-85085241D01*
X48608320Y-85320273D01*
X48500147Y-85581426D01*
X48445000Y-85858665D01*
X47216136Y-85858665D01*
X47097588Y-85699731D01*
X46881355Y-85504822D01*
X46764466Y-85435195D01*
X46946632Y-85313475D01*
X47153475Y-85106632D01*
X47315990Y-84863411D01*
X47427932Y-84593158D01*
X47485000Y-84306260D01*
X47485000Y-84013740D01*
X47427932Y-83726842D01*
X47315990Y-83456589D01*
X47153475Y-83213368D01*
X46946632Y-83006525D01*
X46772240Y-82890000D01*
X46819136Y-82858665D01*
X48065000Y-82858665D01*
X48065000Y-83141335D01*
X48120147Y-83418574D01*
X48228320Y-83679727D01*
X48385363Y-83914759D01*
X48585241Y-84114637D01*
X48820273Y-84271680D01*
X49081426Y-84379853D01*
X49358665Y-84435000D01*
X49641335Y-84435000D01*
X49918574Y-84379853D01*
X50179727Y-84271680D01*
X50414759Y-84114637D01*
X50614637Y-83914759D01*
X50771680Y-83679727D01*
X50879853Y-83418574D01*
X50935000Y-83141335D01*
X50935000Y-82858665D01*
X50879853Y-82581426D01*
X50771680Y-82320273D01*
X50614637Y-82085241D01*
X50414759Y-81885363D01*
X50179727Y-81728320D01*
X49918574Y-81620147D01*
X49641335Y-81565000D01*
X49358665Y-81565000D01*
X49081426Y-81620147D01*
X48820273Y-81728320D01*
X48585241Y-81885363D01*
X48385363Y-82085241D01*
X48228320Y-82320273D01*
X48120147Y-82581426D01*
X48065000Y-82858665D01*
X46819136Y-82858665D01*
X46946632Y-82773475D01*
X47153475Y-82566632D01*
X47315990Y-82323411D01*
X47427932Y-82053158D01*
X47485000Y-81766260D01*
X47485000Y-81473740D01*
X47427932Y-81186842D01*
X47315990Y-80916589D01*
X47153475Y-80673368D01*
X46946632Y-80466525D01*
X46772240Y-80350000D01*
X46946632Y-80233475D01*
X47153475Y-80026632D01*
X47315990Y-79783411D01*
X47427932Y-79513158D01*
X47485000Y-79226260D01*
X47485000Y-78933740D01*
X47427932Y-78646842D01*
X47315990Y-78376589D01*
X47153475Y-78133368D01*
X46946632Y-77926525D01*
X46772240Y-77810000D01*
X46946632Y-77693475D01*
X47153475Y-77486632D01*
X47315990Y-77243411D01*
X47427932Y-76973158D01*
X47485000Y-76686260D01*
X47485000Y-76393740D01*
X47427932Y-76106842D01*
X47315990Y-75836589D01*
X47153475Y-75593368D01*
X47021620Y-75461513D01*
X47094180Y-75439502D01*
X47204494Y-75380537D01*
X47301185Y-75301185D01*
X47380537Y-75204494D01*
X47439502Y-75094180D01*
X47475812Y-74974482D01*
X47488072Y-74850000D01*
X47488072Y-74353740D01*
X50975000Y-74353740D01*
X50975000Y-74646260D01*
X51032068Y-74933158D01*
X51144010Y-75203411D01*
X51306525Y-75446632D01*
X51513368Y-75653475D01*
X51756589Y-75815990D01*
X52026842Y-75927932D01*
X52313740Y-75985000D01*
X52606260Y-75985000D01*
X52893158Y-75927932D01*
X53163411Y-75815990D01*
X53406632Y-75653475D01*
X53613475Y-75446632D01*
X53730000Y-75272240D01*
X53846525Y-75446632D01*
X54053368Y-75653475D01*
X54296589Y-75815990D01*
X54566842Y-75927932D01*
X54853740Y-75985000D01*
X55146260Y-75985000D01*
X55366408Y-75941209D01*
X62061202Y-82636004D01*
X62085000Y-82665002D01*
X62200725Y-82759975D01*
X62332754Y-82830547D01*
X62476015Y-82874004D01*
X62587668Y-82885001D01*
X62587678Y-82885001D01*
X62625001Y-82888677D01*
X62662324Y-82885001D01*
X62925783Y-82885001D01*
X62925241Y-82885363D01*
X62725363Y-83085241D01*
X62568320Y-83320273D01*
X62460147Y-83581426D01*
X62405000Y-83858665D01*
X62405000Y-84141335D01*
X62460147Y-84418574D01*
X62568320Y-84679727D01*
X62725363Y-84914759D01*
X62925241Y-85114637D01*
X63160273Y-85271680D01*
X63421426Y-85379853D01*
X63698665Y-85435000D01*
X63981335Y-85435000D01*
X64258574Y-85379853D01*
X64519727Y-85271680D01*
X64754759Y-85114637D01*
X64954637Y-84914759D01*
X65111680Y-84679727D01*
X65219853Y-84418574D01*
X65275000Y-84141335D01*
X65275000Y-83858665D01*
X72565000Y-83858665D01*
X72565000Y-84141335D01*
X72620147Y-84418574D01*
X72728320Y-84679727D01*
X72885363Y-84914759D01*
X73085241Y-85114637D01*
X73320273Y-85271680D01*
X73581426Y-85379853D01*
X73858665Y-85435000D01*
X74141335Y-85435000D01*
X74418574Y-85379853D01*
X74679727Y-85271680D01*
X74914759Y-85114637D01*
X75114637Y-84914759D01*
X75157053Y-84851278D01*
X83990000Y-84851278D01*
X83990000Y-85148722D01*
X84048029Y-85440451D01*
X84161856Y-85715253D01*
X84327107Y-85962569D01*
X84537431Y-86172893D01*
X84784747Y-86338144D01*
X85059549Y-86451971D01*
X85351278Y-86510000D01*
X85648722Y-86510000D01*
X85940451Y-86451971D01*
X86215253Y-86338144D01*
X86462569Y-86172893D01*
X86672893Y-85962569D01*
X86838144Y-85715253D01*
X86951971Y-85440451D01*
X87010000Y-85148722D01*
X87010000Y-84851278D01*
X86951971Y-84559549D01*
X86838144Y-84284747D01*
X86672893Y-84037431D01*
X86462569Y-83827107D01*
X86309407Y-83724768D01*
X86366635Y-83546240D01*
X85500000Y-82679605D01*
X84633365Y-83546240D01*
X84690593Y-83724768D01*
X84537431Y-83827107D01*
X84327107Y-84037431D01*
X84161856Y-84284747D01*
X84048029Y-84559549D01*
X83990000Y-84851278D01*
X75157053Y-84851278D01*
X75271680Y-84679727D01*
X75379853Y-84418574D01*
X75435000Y-84141335D01*
X75435000Y-83858665D01*
X75379853Y-83581426D01*
X75271680Y-83320273D01*
X75114637Y-83085241D01*
X74914759Y-82885363D01*
X74679727Y-82728320D01*
X74418574Y-82620147D01*
X74154120Y-82567543D01*
X83984196Y-82567543D01*
X84026499Y-82861963D01*
X84125428Y-83142474D01*
X84202132Y-83285975D01*
X84453760Y-83366635D01*
X85320395Y-82500000D01*
X85306253Y-82485858D01*
X85485858Y-82306253D01*
X85500000Y-82320395D01*
X85514143Y-82306253D01*
X85693748Y-82485858D01*
X85679605Y-82500000D01*
X86546240Y-83366635D01*
X86797868Y-83285975D01*
X86926267Y-83017671D01*
X86999855Y-82729474D01*
X87015804Y-82432457D01*
X86973501Y-82138037D01*
X86874572Y-81857526D01*
X86797868Y-81714025D01*
X86546242Y-81633366D01*
X86662267Y-81517341D01*
X86611698Y-81466772D01*
X86619180Y-81464502D01*
X86729494Y-81405537D01*
X86826185Y-81326185D01*
X86905537Y-81229494D01*
X86964502Y-81119180D01*
X87000812Y-80999482D01*
X87013072Y-80875000D01*
X87013072Y-79125000D01*
X87000812Y-79000518D01*
X86964502Y-78880820D01*
X86905537Y-78770506D01*
X86826185Y-78673815D01*
X86729494Y-78594463D01*
X86619180Y-78535498D01*
X86499482Y-78499188D01*
X86375000Y-78486928D01*
X84625000Y-78486928D01*
X84500518Y-78499188D01*
X84380820Y-78535498D01*
X84270506Y-78594463D01*
X84173815Y-78673815D01*
X84094463Y-78770506D01*
X84035498Y-78880820D01*
X83999188Y-79000518D01*
X83986928Y-79125000D01*
X83986928Y-80875000D01*
X83999188Y-80999482D01*
X84035498Y-81119180D01*
X84094463Y-81229494D01*
X84173815Y-81326185D01*
X84270506Y-81405537D01*
X84380820Y-81464502D01*
X84388302Y-81466772D01*
X84337733Y-81517341D01*
X84453758Y-81633366D01*
X84202132Y-81714025D01*
X84073733Y-81982329D01*
X84000145Y-82270526D01*
X83984196Y-82567543D01*
X74154120Y-82567543D01*
X74141335Y-82565000D01*
X73858665Y-82565000D01*
X73581426Y-82620147D01*
X73320273Y-82728320D01*
X73085241Y-82885363D01*
X72885363Y-83085241D01*
X72728320Y-83320273D01*
X72620147Y-83581426D01*
X72565000Y-83858665D01*
X65275000Y-83858665D01*
X65219853Y-83581426D01*
X65111680Y-83320273D01*
X64954637Y-83085241D01*
X64754759Y-82885363D01*
X64754217Y-82885001D01*
X66377677Y-82885001D01*
X66414999Y-82888677D01*
X66452321Y-82885001D01*
X66452332Y-82885001D01*
X66563985Y-82874004D01*
X66707246Y-82830547D01*
X66839275Y-82759975D01*
X66955000Y-82665002D01*
X66978803Y-82635999D01*
X67216113Y-82398688D01*
X67398665Y-82435000D01*
X67681335Y-82435000D01*
X67958574Y-82379853D01*
X68219727Y-82271680D01*
X68454759Y-82114637D01*
X68654637Y-81914759D01*
X68810000Y-81682241D01*
X68965363Y-81914759D01*
X69165241Y-82114637D01*
X69400273Y-82271680D01*
X69661426Y-82379853D01*
X69938665Y-82435000D01*
X70221335Y-82435000D01*
X70498574Y-82379853D01*
X70759727Y-82271680D01*
X70994759Y-82114637D01*
X71194637Y-81914759D01*
X71350000Y-81682241D01*
X71505363Y-81914759D01*
X71705241Y-82114637D01*
X71940273Y-82271680D01*
X72201426Y-82379853D01*
X72478665Y-82435000D01*
X72761335Y-82435000D01*
X73038574Y-82379853D01*
X73299727Y-82271680D01*
X73534759Y-82114637D01*
X73734637Y-81914759D01*
X73891680Y-81679727D01*
X73999853Y-81418574D01*
X74055000Y-81141335D01*
X74055000Y-80858665D01*
X73999853Y-80581426D01*
X73891680Y-80320273D01*
X73734637Y-80085241D01*
X73534759Y-79885363D01*
X73299727Y-79728320D01*
X73038574Y-79620147D01*
X72761335Y-79565000D01*
X72478665Y-79565000D01*
X72201426Y-79620147D01*
X71940273Y-79728320D01*
X71705241Y-79885363D01*
X71505363Y-80085241D01*
X71350000Y-80317759D01*
X71194637Y-80085241D01*
X70994759Y-79885363D01*
X70759727Y-79728320D01*
X70498574Y-79620147D01*
X70221335Y-79565000D01*
X69938665Y-79565000D01*
X69661426Y-79620147D01*
X69400273Y-79728320D01*
X69165241Y-79885363D01*
X68965363Y-80085241D01*
X68810000Y-80317759D01*
X68654637Y-80085241D01*
X68454759Y-79885363D01*
X68219727Y-79728320D01*
X67958574Y-79620147D01*
X67681335Y-79565000D01*
X67398665Y-79565000D01*
X67121426Y-79620147D01*
X66860273Y-79728320D01*
X66625241Y-79885363D01*
X66426643Y-80083961D01*
X66425812Y-80075518D01*
X66389502Y-79955820D01*
X66330537Y-79845506D01*
X66251185Y-79748815D01*
X66154494Y-79669463D01*
X66044180Y-79610498D01*
X65924482Y-79574188D01*
X65800000Y-79561928D01*
X64200000Y-79561928D01*
X64075518Y-79574188D01*
X63955820Y-79610498D01*
X63845506Y-79669463D01*
X63748815Y-79748815D01*
X63669463Y-79845506D01*
X63610498Y-79955820D01*
X63574188Y-80075518D01*
X63561928Y-80200000D01*
X63561928Y-81365001D01*
X62939803Y-81365001D01*
X61665079Y-80090277D01*
X61918574Y-80039853D01*
X62179727Y-79931680D01*
X62414759Y-79774637D01*
X62614637Y-79574759D01*
X62771680Y-79339727D01*
X62879853Y-79078574D01*
X62935000Y-78801335D01*
X62935000Y-78518665D01*
X62879853Y-78241426D01*
X62771680Y-77980273D01*
X62614637Y-77745241D01*
X62414759Y-77545363D01*
X62179727Y-77388320D01*
X61918574Y-77280147D01*
X61641335Y-77225000D01*
X61358665Y-77225000D01*
X61081426Y-77280147D01*
X60820273Y-77388320D01*
X60585241Y-77545363D01*
X60385363Y-77745241D01*
X60228320Y-77980273D01*
X60120147Y-78241426D01*
X60069723Y-78494921D01*
X58273467Y-76698665D01*
X75565000Y-76698665D01*
X75565000Y-76981335D01*
X75620147Y-77258574D01*
X75728320Y-77519727D01*
X75885363Y-77754759D01*
X76085241Y-77954637D01*
X76320273Y-78111680D01*
X76581426Y-78219853D01*
X76858665Y-78275000D01*
X77141335Y-78275000D01*
X77418574Y-78219853D01*
X77679727Y-78111680D01*
X77914759Y-77954637D01*
X78114637Y-77754759D01*
X78271680Y-77519727D01*
X78379853Y-77258574D01*
X78435000Y-76981335D01*
X78435000Y-76698665D01*
X78379853Y-76421426D01*
X78271680Y-76160273D01*
X78114637Y-75925241D01*
X77914759Y-75725363D01*
X77679727Y-75568320D01*
X77418574Y-75460147D01*
X77141335Y-75405000D01*
X76858665Y-75405000D01*
X76581426Y-75460147D01*
X76320273Y-75568320D01*
X76085241Y-75725363D01*
X75885363Y-75925241D01*
X75728320Y-76160273D01*
X75620147Y-76421426D01*
X75565000Y-76698665D01*
X58273467Y-76698665D01*
X57562873Y-75988072D01*
X58390000Y-75988072D01*
X58514482Y-75975812D01*
X58634180Y-75939502D01*
X58744494Y-75880537D01*
X58841185Y-75801185D01*
X58920537Y-75704494D01*
X58979502Y-75594180D01*
X59015812Y-75474482D01*
X59028072Y-75350000D01*
X59028072Y-73650000D01*
X59015812Y-73525518D01*
X58979502Y-73405820D01*
X58920537Y-73295506D01*
X58873889Y-73238665D01*
X63565000Y-73238665D01*
X63565000Y-73521335D01*
X63620147Y-73798574D01*
X63728320Y-74059727D01*
X63885363Y-74294759D01*
X64085241Y-74494637D01*
X64320273Y-74651680D01*
X64581426Y-74759853D01*
X64858665Y-74815000D01*
X65141335Y-74815000D01*
X65418574Y-74759853D01*
X65679727Y-74651680D01*
X65914759Y-74494637D01*
X66114637Y-74294759D01*
X66270000Y-74062241D01*
X66425363Y-74294759D01*
X66625241Y-74494637D01*
X66860273Y-74651680D01*
X67121426Y-74759853D01*
X67398665Y-74815000D01*
X67681335Y-74815000D01*
X67958574Y-74759853D01*
X68219727Y-74651680D01*
X68454759Y-74494637D01*
X68654637Y-74294759D01*
X68810000Y-74062241D01*
X68965363Y-74294759D01*
X69165241Y-74494637D01*
X69400273Y-74651680D01*
X69661426Y-74759853D01*
X69938665Y-74815000D01*
X70221335Y-74815000D01*
X70498574Y-74759853D01*
X70759727Y-74651680D01*
X70994759Y-74494637D01*
X71194637Y-74294759D01*
X71351680Y-74059727D01*
X71356067Y-74049135D01*
X71467615Y-74235131D01*
X71656586Y-74443519D01*
X71882580Y-74611037D01*
X72136913Y-74731246D01*
X72270961Y-74771904D01*
X72493000Y-74649915D01*
X72493000Y-73507000D01*
X72747000Y-73507000D01*
X72747000Y-74649915D01*
X72969039Y-74771904D01*
X73103087Y-74731246D01*
X73357420Y-74611037D01*
X73583414Y-74443519D01*
X73772385Y-74235131D01*
X73917070Y-73993881D01*
X74011909Y-73729040D01*
X73890624Y-73507000D01*
X72747000Y-73507000D01*
X72493000Y-73507000D01*
X72473000Y-73507000D01*
X72473000Y-73253000D01*
X72493000Y-73253000D01*
X72493000Y-72110085D01*
X72747000Y-72110085D01*
X72747000Y-73253000D01*
X73890624Y-73253000D01*
X74011909Y-73030960D01*
X73917070Y-72766119D01*
X73772385Y-72524869D01*
X73583414Y-72316481D01*
X73357420Y-72148963D01*
X73103087Y-72028754D01*
X72969039Y-71988096D01*
X72747000Y-72110085D01*
X72493000Y-72110085D01*
X72270961Y-71988096D01*
X72136913Y-72028754D01*
X71882580Y-72148963D01*
X71656586Y-72316481D01*
X71467615Y-72524869D01*
X71356067Y-72710865D01*
X71351680Y-72700273D01*
X71194637Y-72465241D01*
X70994759Y-72265363D01*
X70759727Y-72108320D01*
X70498574Y-72000147D01*
X70221335Y-71945000D01*
X69938665Y-71945000D01*
X69661426Y-72000147D01*
X69400273Y-72108320D01*
X69165241Y-72265363D01*
X68965363Y-72465241D01*
X68810000Y-72697759D01*
X68654637Y-72465241D01*
X68454759Y-72265363D01*
X68219727Y-72108320D01*
X67958574Y-72000147D01*
X67681335Y-71945000D01*
X67398665Y-71945000D01*
X67121426Y-72000147D01*
X66860273Y-72108320D01*
X66625241Y-72265363D01*
X66425363Y-72465241D01*
X66270000Y-72697759D01*
X66114637Y-72465241D01*
X65914759Y-72265363D01*
X65679727Y-72108320D01*
X65418574Y-72000147D01*
X65141335Y-71945000D01*
X64858665Y-71945000D01*
X64581426Y-72000147D01*
X64320273Y-72108320D01*
X64085241Y-72265363D01*
X63885363Y-72465241D01*
X63728320Y-72700273D01*
X63620147Y-72961426D01*
X63565000Y-73238665D01*
X58873889Y-73238665D01*
X58841185Y-73198815D01*
X58744494Y-73119463D01*
X58634180Y-73060498D01*
X58514482Y-73024188D01*
X58390000Y-73011928D01*
X56690000Y-73011928D01*
X56565518Y-73024188D01*
X56445820Y-73060498D01*
X56335506Y-73119463D01*
X56238815Y-73198815D01*
X56159463Y-73295506D01*
X56100498Y-73405820D01*
X56078487Y-73478380D01*
X55946632Y-73346525D01*
X55703411Y-73184010D01*
X55433158Y-73072068D01*
X55146260Y-73015000D01*
X54853740Y-73015000D01*
X54566842Y-73072068D01*
X54296589Y-73184010D01*
X54053368Y-73346525D01*
X53846525Y-73553368D01*
X53730000Y-73727760D01*
X53613475Y-73553368D01*
X53406632Y-73346525D01*
X53163411Y-73184010D01*
X52893158Y-73072068D01*
X52606260Y-73015000D01*
X52313740Y-73015000D01*
X52026842Y-73072068D01*
X51756589Y-73184010D01*
X51513368Y-73346525D01*
X51306525Y-73553368D01*
X51144010Y-73796589D01*
X51032068Y-74066842D01*
X50975000Y-74353740D01*
X47488072Y-74353740D01*
X47488072Y-73150000D01*
X47475812Y-73025518D01*
X47439502Y-72905820D01*
X47380537Y-72795506D01*
X47301185Y-72698815D01*
X47301003Y-72698665D01*
X48065000Y-72698665D01*
X48065000Y-72981335D01*
X48120147Y-73258574D01*
X48228320Y-73519727D01*
X48385363Y-73754759D01*
X48585241Y-73954637D01*
X48820273Y-74111680D01*
X49081426Y-74219853D01*
X49358665Y-74275000D01*
X49641335Y-74275000D01*
X49918574Y-74219853D01*
X50179727Y-74111680D01*
X50414759Y-73954637D01*
X50614637Y-73754759D01*
X50771680Y-73519727D01*
X50879853Y-73258574D01*
X50935000Y-72981335D01*
X50935000Y-72698665D01*
X50879853Y-72421426D01*
X50771680Y-72160273D01*
X50614637Y-71925241D01*
X50414759Y-71725363D01*
X50179727Y-71568320D01*
X49918574Y-71460147D01*
X49641335Y-71405000D01*
X49358665Y-71405000D01*
X49081426Y-71460147D01*
X48820273Y-71568320D01*
X48585241Y-71725363D01*
X48385363Y-71925241D01*
X48228320Y-72160273D01*
X48120147Y-72421426D01*
X48065000Y-72698665D01*
X47301003Y-72698665D01*
X47204494Y-72619463D01*
X47094180Y-72560498D01*
X46974482Y-72524188D01*
X46850000Y-72511928D01*
X45150000Y-72511928D01*
X45025518Y-72524188D01*
X44905820Y-72560498D01*
X44795506Y-72619463D01*
X44698815Y-72698815D01*
X44619463Y-72795506D01*
X44560498Y-72905820D01*
X44524188Y-73025518D01*
X44511928Y-73150000D01*
X38960000Y-73150000D01*
X38960000Y-67127000D01*
X42465000Y-67127000D01*
X42465000Y-67627000D01*
X42519271Y-67924023D01*
X42630446Y-68204751D01*
X42794252Y-68458396D01*
X43004394Y-68675210D01*
X43252796Y-68846862D01*
X43529913Y-68966755D01*
X43635260Y-68991036D01*
X43873000Y-68870378D01*
X43873000Y-67127000D01*
X44127000Y-67127000D01*
X44127000Y-68870378D01*
X44364740Y-68991036D01*
X44470087Y-68966755D01*
X44747204Y-68846862D01*
X44995606Y-68675210D01*
X45205748Y-68458396D01*
X45270155Y-68358665D01*
X60065000Y-68358665D01*
X60065000Y-68641335D01*
X60120147Y-68918574D01*
X60228320Y-69179727D01*
X60385363Y-69414759D01*
X60585241Y-69614637D01*
X60820273Y-69771680D01*
X61081426Y-69879853D01*
X61358665Y-69935000D01*
X61641335Y-69935000D01*
X61918574Y-69879853D01*
X62179727Y-69771680D01*
X62414759Y-69614637D01*
X62614637Y-69414759D01*
X62758134Y-69200000D01*
X63561928Y-69200000D01*
X63561928Y-70800000D01*
X63574188Y-70924482D01*
X63610498Y-71044180D01*
X63669463Y-71154494D01*
X63748815Y-71251185D01*
X63845506Y-71330537D01*
X63955820Y-71389502D01*
X64075518Y-71425812D01*
X64200000Y-71438072D01*
X65800000Y-71438072D01*
X65924482Y-71425812D01*
X66044180Y-71389502D01*
X66154494Y-71330537D01*
X66251185Y-71251185D01*
X66330537Y-71154494D01*
X66389502Y-71044180D01*
X66425812Y-70924482D01*
X66426643Y-70916039D01*
X66625241Y-71114637D01*
X66860273Y-71271680D01*
X67121426Y-71379853D01*
X67398665Y-71435000D01*
X67681335Y-71435000D01*
X67958574Y-71379853D01*
X68219727Y-71271680D01*
X68454759Y-71114637D01*
X68654637Y-70914759D01*
X68810000Y-70682241D01*
X68965363Y-70914759D01*
X69165241Y-71114637D01*
X69400273Y-71271680D01*
X69661426Y-71379853D01*
X69938665Y-71435000D01*
X70221335Y-71435000D01*
X70498574Y-71379853D01*
X70759727Y-71271680D01*
X70994759Y-71114637D01*
X71194637Y-70914759D01*
X71350000Y-70682241D01*
X71505363Y-70914759D01*
X71705241Y-71114637D01*
X71940273Y-71271680D01*
X72201426Y-71379853D01*
X72478665Y-71435000D01*
X72761335Y-71435000D01*
X73038574Y-71379853D01*
X73299727Y-71271680D01*
X73534759Y-71114637D01*
X73734637Y-70914759D01*
X73891680Y-70679727D01*
X73999853Y-70418574D01*
X74055000Y-70141335D01*
X74055000Y-69858665D01*
X73999853Y-69581426D01*
X73891680Y-69320273D01*
X73734637Y-69085241D01*
X73534759Y-68885363D01*
X73299727Y-68728320D01*
X73038574Y-68620147D01*
X72761335Y-68565000D01*
X72478665Y-68565000D01*
X72201426Y-68620147D01*
X71940273Y-68728320D01*
X71705241Y-68885363D01*
X71505363Y-69085241D01*
X71350000Y-69317759D01*
X71194637Y-69085241D01*
X70994759Y-68885363D01*
X70759727Y-68728320D01*
X70498574Y-68620147D01*
X70221335Y-68565000D01*
X69938665Y-68565000D01*
X69661426Y-68620147D01*
X69400273Y-68728320D01*
X69165241Y-68885363D01*
X68965363Y-69085241D01*
X68810000Y-69317759D01*
X68654637Y-69085241D01*
X68454759Y-68885363D01*
X68219727Y-68728320D01*
X67958574Y-68620147D01*
X67681335Y-68565000D01*
X67398665Y-68565000D01*
X67121426Y-68620147D01*
X66860273Y-68728320D01*
X66625241Y-68885363D01*
X66426643Y-69083961D01*
X66425812Y-69075518D01*
X66389502Y-68955820D01*
X66330537Y-68845506D01*
X66251185Y-68748815D01*
X66154494Y-68669463D01*
X66044180Y-68610498D01*
X65924482Y-68574188D01*
X65800000Y-68561928D01*
X64200000Y-68561928D01*
X64075518Y-68574188D01*
X63955820Y-68610498D01*
X63845506Y-68669463D01*
X63748815Y-68748815D01*
X63669463Y-68845506D01*
X63610498Y-68955820D01*
X63574188Y-69075518D01*
X63561928Y-69200000D01*
X62758134Y-69200000D01*
X62771680Y-69179727D01*
X62879853Y-68918574D01*
X62935000Y-68641335D01*
X62935000Y-68358665D01*
X62879853Y-68081426D01*
X62771680Y-67820273D01*
X62614637Y-67585241D01*
X62414759Y-67385363D01*
X62179727Y-67228320D01*
X61918574Y-67120147D01*
X61641335Y-67065000D01*
X61358665Y-67065000D01*
X61081426Y-67120147D01*
X60820273Y-67228320D01*
X60585241Y-67385363D01*
X60385363Y-67585241D01*
X60228320Y-67820273D01*
X60120147Y-68081426D01*
X60065000Y-68358665D01*
X45270155Y-68358665D01*
X45369554Y-68204751D01*
X45480729Y-67924023D01*
X45535000Y-67627000D01*
X45535000Y-67127000D01*
X44127000Y-67127000D01*
X43873000Y-67127000D01*
X42465000Y-67127000D01*
X38960000Y-67127000D01*
X38960000Y-66373000D01*
X42465000Y-66373000D01*
X42465000Y-66873000D01*
X43873000Y-66873000D01*
X43873000Y-65129622D01*
X44127000Y-65129622D01*
X44127000Y-66873000D01*
X45535000Y-66873000D01*
X45535000Y-66775855D01*
X45543074Y-66782481D01*
X45809740Y-66925017D01*
X46099088Y-67012790D01*
X46400000Y-67042427D01*
X46700913Y-67012790D01*
X46990261Y-66925017D01*
X47256927Y-66782481D01*
X47490661Y-66590661D01*
X47682481Y-66356927D01*
X47825017Y-66090261D01*
X47912790Y-65800913D01*
X47935000Y-65575408D01*
X47935000Y-64424593D01*
X50365000Y-64424593D01*
X50365000Y-65575408D01*
X50387210Y-65800913D01*
X50474983Y-66090261D01*
X50617519Y-66356927D01*
X50809340Y-66590661D01*
X51043074Y-66782481D01*
X51309740Y-66925017D01*
X51599088Y-67012790D01*
X51900000Y-67042427D01*
X52200913Y-67012790D01*
X52490261Y-66925017D01*
X52756927Y-66782481D01*
X52990661Y-66590661D01*
X53182481Y-66356927D01*
X53325017Y-66090261D01*
X53412790Y-65800913D01*
X53435000Y-65575408D01*
X53435000Y-65018665D01*
X60065000Y-65018665D01*
X60065000Y-65301335D01*
X60120147Y-65578574D01*
X60228320Y-65839727D01*
X60385363Y-66074759D01*
X60585241Y-66274637D01*
X60820273Y-66431680D01*
X61081426Y-66539853D01*
X61358665Y-66595000D01*
X61641335Y-66595000D01*
X61918574Y-66539853D01*
X62179727Y-66431680D01*
X62414759Y-66274637D01*
X62614637Y-66074759D01*
X62771680Y-65839727D01*
X62879853Y-65578574D01*
X62935000Y-65301335D01*
X62935000Y-65018665D01*
X62879853Y-64741426D01*
X62771680Y-64480273D01*
X62614637Y-64245241D01*
X62414759Y-64045363D01*
X62179727Y-63888320D01*
X61918574Y-63780147D01*
X61641335Y-63725000D01*
X61358665Y-63725000D01*
X61081426Y-63780147D01*
X60820273Y-63888320D01*
X60585241Y-64045363D01*
X60385363Y-64245241D01*
X60228320Y-64480273D01*
X60120147Y-64741426D01*
X60065000Y-65018665D01*
X53435000Y-65018665D01*
X53435000Y-64424592D01*
X53412790Y-64199087D01*
X53325017Y-63909739D01*
X53182481Y-63643073D01*
X52990661Y-63409339D01*
X52756926Y-63217519D01*
X52490260Y-63074983D01*
X52200912Y-62987210D01*
X51900000Y-62957573D01*
X51599087Y-62987210D01*
X51309739Y-63074983D01*
X51043073Y-63217519D01*
X50809339Y-63409339D01*
X50617519Y-63643074D01*
X50474983Y-63909740D01*
X50387210Y-64199088D01*
X50365000Y-64424593D01*
X47935000Y-64424593D01*
X47935000Y-64424592D01*
X47912790Y-64199087D01*
X47825017Y-63909739D01*
X47682481Y-63643073D01*
X47490661Y-63409339D01*
X47256926Y-63217519D01*
X46990260Y-63074983D01*
X46700912Y-62987210D01*
X46400000Y-62957573D01*
X46099087Y-62987210D01*
X45809739Y-63074983D01*
X45543073Y-63217519D01*
X45309339Y-63409339D01*
X45117519Y-63643074D01*
X44974983Y-63909740D01*
X44887210Y-64199088D01*
X44865000Y-64424593D01*
X44865000Y-65234538D01*
X44747204Y-65153138D01*
X44470087Y-65033245D01*
X44364740Y-65008964D01*
X44127000Y-65129622D01*
X43873000Y-65129622D01*
X43635260Y-65008964D01*
X43529913Y-65033245D01*
X43252796Y-65153138D01*
X43004394Y-65324790D01*
X42794252Y-65541604D01*
X42630446Y-65795249D01*
X42519271Y-66075977D01*
X42465000Y-66373000D01*
X38960000Y-66373000D01*
X38960000Y-59314344D01*
X39415000Y-59314344D01*
X39415000Y-59685656D01*
X39487439Y-60049834D01*
X39629534Y-60392882D01*
X39835825Y-60701618D01*
X40098382Y-60964175D01*
X40407118Y-61170466D01*
X40750166Y-61312561D01*
X41114344Y-61385000D01*
X41485656Y-61385000D01*
X41849834Y-61312561D01*
X42192882Y-61170466D01*
X42420068Y-61018665D01*
X48565000Y-61018665D01*
X48565000Y-61301335D01*
X48620147Y-61578574D01*
X48728320Y-61839727D01*
X48885363Y-62074759D01*
X49085241Y-62274637D01*
X49320273Y-62431680D01*
X49581426Y-62539853D01*
X49858665Y-62595000D01*
X50141335Y-62595000D01*
X50418574Y-62539853D01*
X50679727Y-62431680D01*
X50914759Y-62274637D01*
X51114637Y-62074759D01*
X51232702Y-61898061D01*
X60465000Y-61898061D01*
X60465000Y-62101939D01*
X60504774Y-62301898D01*
X60582795Y-62490256D01*
X60696063Y-62659774D01*
X60840226Y-62803937D01*
X61009744Y-62917205D01*
X61198102Y-62995226D01*
X61398061Y-63035000D01*
X61601939Y-63035000D01*
X61801898Y-62995226D01*
X61885709Y-62960510D01*
X63465000Y-64539802D01*
X63465000Y-64601939D01*
X63504774Y-64801898D01*
X63582795Y-64990256D01*
X63696063Y-65159774D01*
X63840226Y-65303937D01*
X64009744Y-65417205D01*
X64198102Y-65495226D01*
X64398061Y-65535000D01*
X64601939Y-65535000D01*
X64801898Y-65495226D01*
X64990256Y-65417205D01*
X65159774Y-65303937D01*
X65303937Y-65159774D01*
X65417205Y-64990256D01*
X65495226Y-64801898D01*
X65535000Y-64601939D01*
X65535000Y-64398061D01*
X65495226Y-64198102D01*
X65417205Y-64009744D01*
X65303937Y-63840226D01*
X65255919Y-63792208D01*
X65418574Y-63759853D01*
X65679727Y-63651680D01*
X65914759Y-63494637D01*
X66114637Y-63294759D01*
X66270000Y-63062241D01*
X66425363Y-63294759D01*
X66625241Y-63494637D01*
X66860273Y-63651680D01*
X67121426Y-63759853D01*
X67398665Y-63815000D01*
X67681335Y-63815000D01*
X67958574Y-63759853D01*
X68219727Y-63651680D01*
X68454759Y-63494637D01*
X68654637Y-63294759D01*
X68810000Y-63062241D01*
X68965363Y-63294759D01*
X69165241Y-63494637D01*
X69400273Y-63651680D01*
X69661426Y-63759853D01*
X69938665Y-63815000D01*
X70221335Y-63815000D01*
X70498574Y-63759853D01*
X70759727Y-63651680D01*
X70994759Y-63494637D01*
X71194637Y-63294759D01*
X71351680Y-63059727D01*
X71356067Y-63049135D01*
X71467615Y-63235131D01*
X71656586Y-63443519D01*
X71882580Y-63611037D01*
X72136913Y-63731246D01*
X72270961Y-63771904D01*
X72493000Y-63649915D01*
X72493000Y-62507000D01*
X72747000Y-62507000D01*
X72747000Y-63649915D01*
X72969039Y-63771904D01*
X73103087Y-63731246D01*
X73357420Y-63611037D01*
X73583414Y-63443519D01*
X73772385Y-63235131D01*
X73917070Y-62993881D01*
X73982015Y-62812520D01*
X73965000Y-62898061D01*
X73965000Y-63101939D01*
X74004774Y-63301898D01*
X74082795Y-63490256D01*
X74196063Y-63659774D01*
X74240000Y-63703711D01*
X74240001Y-64796288D01*
X74196063Y-64840226D01*
X74082795Y-65009744D01*
X74004774Y-65198102D01*
X73965000Y-65398061D01*
X73965000Y-65601939D01*
X74004774Y-65801898D01*
X74082795Y-65990256D01*
X74196063Y-66159774D01*
X74340226Y-66303937D01*
X74509744Y-66417205D01*
X74698102Y-66495226D01*
X74898061Y-66535000D01*
X75101939Y-66535000D01*
X75301898Y-66495226D01*
X75490256Y-66417205D01*
X75576576Y-66359528D01*
X75620147Y-66578574D01*
X75728320Y-66839727D01*
X75885363Y-67074759D01*
X76085241Y-67274637D01*
X76320273Y-67431680D01*
X76581426Y-67539853D01*
X76858665Y-67595000D01*
X77141335Y-67595000D01*
X77418574Y-67539853D01*
X77679727Y-67431680D01*
X77914759Y-67274637D01*
X78114637Y-67074759D01*
X78271680Y-66839727D01*
X78379853Y-66578574D01*
X78435000Y-66301335D01*
X78435000Y-66018665D01*
X78379853Y-65741426D01*
X78271680Y-65480273D01*
X78114637Y-65245241D01*
X77914759Y-65045363D01*
X77679727Y-64888320D01*
X77418574Y-64780147D01*
X77141335Y-64725000D01*
X76858665Y-64725000D01*
X76581426Y-64780147D01*
X76320273Y-64888320D01*
X76085241Y-65045363D01*
X75976854Y-65153750D01*
X75917205Y-65009744D01*
X75803937Y-64840226D01*
X75760000Y-64796289D01*
X75760000Y-63851278D01*
X83990000Y-63851278D01*
X83990000Y-64148722D01*
X84048029Y-64440451D01*
X84161856Y-64715253D01*
X84327107Y-64962569D01*
X84537431Y-65172893D01*
X84784747Y-65338144D01*
X85059549Y-65451971D01*
X85351278Y-65510000D01*
X85648722Y-65510000D01*
X85940451Y-65451971D01*
X86215253Y-65338144D01*
X86462569Y-65172893D01*
X86672893Y-64962569D01*
X86838144Y-64715253D01*
X86951971Y-64440451D01*
X87010000Y-64148722D01*
X87010000Y-63851278D01*
X86951971Y-63559549D01*
X86838144Y-63284747D01*
X86672893Y-63037431D01*
X86462569Y-62827107D01*
X86309407Y-62724768D01*
X86366635Y-62546240D01*
X85500000Y-61679605D01*
X84633365Y-62546240D01*
X84690593Y-62724768D01*
X84537431Y-62827107D01*
X84327107Y-63037431D01*
X84161856Y-63284747D01*
X84048029Y-63559549D01*
X83990000Y-63851278D01*
X75760000Y-63851278D01*
X75760000Y-63703711D01*
X75803937Y-63659774D01*
X75917205Y-63490256D01*
X75995226Y-63301898D01*
X76035000Y-63101939D01*
X76035000Y-62898061D01*
X75995226Y-62698102D01*
X75917205Y-62509744D01*
X75803937Y-62340226D01*
X75659774Y-62196063D01*
X75490256Y-62082795D01*
X75301898Y-62004774D01*
X75101939Y-61965000D01*
X74898061Y-61965000D01*
X74698102Y-62004774D01*
X74509744Y-62082795D01*
X74340226Y-62196063D01*
X74196063Y-62340226D01*
X74082795Y-62509744D01*
X74004774Y-62698102D01*
X74002167Y-62711206D01*
X73890624Y-62507000D01*
X72747000Y-62507000D01*
X72493000Y-62507000D01*
X72473000Y-62507000D01*
X72473000Y-62253000D01*
X72493000Y-62253000D01*
X72493000Y-61110085D01*
X72747000Y-61110085D01*
X72747000Y-62253000D01*
X73890624Y-62253000D01*
X74011909Y-62030960D01*
X73917070Y-61766119D01*
X73797978Y-61567543D01*
X83984196Y-61567543D01*
X84026499Y-61861963D01*
X84125428Y-62142474D01*
X84202132Y-62285975D01*
X84453760Y-62366635D01*
X85320395Y-61500000D01*
X85306253Y-61485858D01*
X85485858Y-61306253D01*
X85500000Y-61320395D01*
X85514143Y-61306253D01*
X85693748Y-61485858D01*
X85679605Y-61500000D01*
X86546240Y-62366635D01*
X86797868Y-62285975D01*
X86926267Y-62017671D01*
X86999855Y-61729474D01*
X87015804Y-61432457D01*
X86973501Y-61138037D01*
X86874572Y-60857526D01*
X86797868Y-60714025D01*
X86546242Y-60633366D01*
X86662267Y-60517341D01*
X86611698Y-60466772D01*
X86619180Y-60464502D01*
X86729494Y-60405537D01*
X86826185Y-60326185D01*
X86905537Y-60229494D01*
X86964502Y-60119180D01*
X87000812Y-59999482D01*
X87013072Y-59875000D01*
X87013072Y-58125000D01*
X87000812Y-58000518D01*
X86964502Y-57880820D01*
X86905537Y-57770506D01*
X86826185Y-57673815D01*
X86729494Y-57594463D01*
X86619180Y-57535498D01*
X86499482Y-57499188D01*
X86375000Y-57486928D01*
X84625000Y-57486928D01*
X84500518Y-57499188D01*
X84380820Y-57535498D01*
X84270506Y-57594463D01*
X84173815Y-57673815D01*
X84094463Y-57770506D01*
X84035498Y-57880820D01*
X83999188Y-58000518D01*
X83986928Y-58125000D01*
X83986928Y-59875000D01*
X83999188Y-59999482D01*
X84035498Y-60119180D01*
X84094463Y-60229494D01*
X84173815Y-60326185D01*
X84270506Y-60405537D01*
X84380820Y-60464502D01*
X84388302Y-60466772D01*
X84337733Y-60517341D01*
X84453758Y-60633366D01*
X84202132Y-60714025D01*
X84073733Y-60982329D01*
X84000145Y-61270526D01*
X83984196Y-61567543D01*
X73797978Y-61567543D01*
X73772385Y-61524869D01*
X73583414Y-61316481D01*
X73357420Y-61148963D01*
X73103087Y-61028754D01*
X72969039Y-60988096D01*
X72747000Y-61110085D01*
X72493000Y-61110085D01*
X72270961Y-60988096D01*
X72136913Y-61028754D01*
X71882580Y-61148963D01*
X71656586Y-61316481D01*
X71467615Y-61524869D01*
X71356067Y-61710865D01*
X71351680Y-61700273D01*
X71194637Y-61465241D01*
X70994759Y-61265363D01*
X70759727Y-61108320D01*
X70498574Y-61000147D01*
X70221335Y-60945000D01*
X69938665Y-60945000D01*
X69661426Y-61000147D01*
X69400273Y-61108320D01*
X69165241Y-61265363D01*
X68965363Y-61465241D01*
X68810000Y-61697759D01*
X68654637Y-61465241D01*
X68454759Y-61265363D01*
X68219727Y-61108320D01*
X67958574Y-61000147D01*
X67681335Y-60945000D01*
X67398665Y-60945000D01*
X67121426Y-61000147D01*
X66860273Y-61108320D01*
X66625241Y-61265363D01*
X66425363Y-61465241D01*
X66270000Y-61697759D01*
X66114637Y-61465241D01*
X65914759Y-61265363D01*
X65679727Y-61108320D01*
X65418574Y-61000147D01*
X65141335Y-60945000D01*
X64858665Y-60945000D01*
X64581426Y-61000147D01*
X64320273Y-61108320D01*
X64085241Y-61265363D01*
X63885363Y-61465241D01*
X63728320Y-61700273D01*
X63620147Y-61961426D01*
X63565000Y-62238665D01*
X63565000Y-62490199D01*
X62563804Y-61489003D01*
X62540001Y-61459999D01*
X62424276Y-61365026D01*
X62292247Y-61294454D01*
X62243325Y-61279614D01*
X62159774Y-61196063D01*
X61990256Y-61082795D01*
X61801898Y-61004774D01*
X61601939Y-60965000D01*
X61398061Y-60965000D01*
X61198102Y-61004774D01*
X61009744Y-61082795D01*
X60840226Y-61196063D01*
X60696063Y-61340226D01*
X60582795Y-61509744D01*
X60504774Y-61698102D01*
X60465000Y-61898061D01*
X51232702Y-61898061D01*
X51271680Y-61839727D01*
X51379853Y-61578574D01*
X51435000Y-61301335D01*
X51435000Y-61018665D01*
X51379853Y-60741426D01*
X51271680Y-60480273D01*
X51114637Y-60245241D01*
X50914759Y-60045363D01*
X50679727Y-59888320D01*
X50418574Y-59780147D01*
X50141335Y-59725000D01*
X49858665Y-59725000D01*
X49581426Y-59780147D01*
X49320273Y-59888320D01*
X49085241Y-60045363D01*
X48885363Y-60245241D01*
X48728320Y-60480273D01*
X48620147Y-60741426D01*
X48565000Y-61018665D01*
X42420068Y-61018665D01*
X42501618Y-60964175D01*
X42764175Y-60701618D01*
X42970466Y-60392882D01*
X43112561Y-60049834D01*
X43185000Y-59685656D01*
X43185000Y-59314344D01*
X43112561Y-58950166D01*
X43072621Y-58853740D01*
X51435000Y-58853740D01*
X51435000Y-59146260D01*
X51492068Y-59433158D01*
X51604010Y-59703411D01*
X51766525Y-59946632D01*
X51973368Y-60153475D01*
X52216589Y-60315990D01*
X52486842Y-60427932D01*
X52773740Y-60485000D01*
X53066260Y-60485000D01*
X53353158Y-60427932D01*
X53623411Y-60315990D01*
X53866632Y-60153475D01*
X54073475Y-59946632D01*
X54190000Y-59772240D01*
X54306525Y-59946632D01*
X54513368Y-60153475D01*
X54756589Y-60315990D01*
X55026842Y-60427932D01*
X55313740Y-60485000D01*
X55606260Y-60485000D01*
X55893158Y-60427932D01*
X56163411Y-60315990D01*
X56406632Y-60153475D01*
X56538487Y-60021620D01*
X56560498Y-60094180D01*
X56619463Y-60204494D01*
X56698815Y-60301185D01*
X56795506Y-60380537D01*
X56905820Y-60439502D01*
X57025518Y-60475812D01*
X57150000Y-60488072D01*
X58850000Y-60488072D01*
X58974482Y-60475812D01*
X59094180Y-60439502D01*
X59204494Y-60380537D01*
X59301185Y-60301185D01*
X59380537Y-60204494D01*
X59439502Y-60094180D01*
X59475812Y-59974482D01*
X59488072Y-59850000D01*
X59488072Y-59358665D01*
X62565000Y-59358665D01*
X62565000Y-59641335D01*
X62620147Y-59918574D01*
X62728320Y-60179727D01*
X62885363Y-60414759D01*
X63085241Y-60614637D01*
X63320273Y-60771680D01*
X63581426Y-60879853D01*
X63858665Y-60935000D01*
X64141335Y-60935000D01*
X64418574Y-60879853D01*
X64679727Y-60771680D01*
X64914759Y-60614637D01*
X65114637Y-60414759D01*
X65271680Y-60179727D01*
X65379853Y-59918574D01*
X65435000Y-59641335D01*
X65435000Y-59358665D01*
X72725000Y-59358665D01*
X72725000Y-59641335D01*
X72780147Y-59918574D01*
X72888320Y-60179727D01*
X73045363Y-60414759D01*
X73245241Y-60614637D01*
X73480273Y-60771680D01*
X73741426Y-60879853D01*
X74018665Y-60935000D01*
X74301335Y-60935000D01*
X74578574Y-60879853D01*
X74839727Y-60771680D01*
X75074759Y-60614637D01*
X75274637Y-60414759D01*
X75431680Y-60179727D01*
X75539853Y-59918574D01*
X75595000Y-59641335D01*
X75595000Y-59358665D01*
X75539853Y-59081426D01*
X75431680Y-58820273D01*
X75274637Y-58585241D01*
X75074759Y-58385363D01*
X74839727Y-58228320D01*
X74578574Y-58120147D01*
X74301335Y-58065000D01*
X74018665Y-58065000D01*
X73741426Y-58120147D01*
X73480273Y-58228320D01*
X73245241Y-58385363D01*
X73045363Y-58585241D01*
X72888320Y-58820273D01*
X72780147Y-59081426D01*
X72725000Y-59358665D01*
X65435000Y-59358665D01*
X65379853Y-59081426D01*
X65271680Y-58820273D01*
X65114637Y-58585241D01*
X64914759Y-58385363D01*
X64679727Y-58228320D01*
X64418574Y-58120147D01*
X64141335Y-58065000D01*
X63858665Y-58065000D01*
X63581426Y-58120147D01*
X63320273Y-58228320D01*
X63085241Y-58385363D01*
X62885363Y-58585241D01*
X62728320Y-58820273D01*
X62620147Y-59081426D01*
X62565000Y-59358665D01*
X59488072Y-59358665D01*
X59488072Y-58150000D01*
X59475812Y-58025518D01*
X59439502Y-57905820D01*
X59380537Y-57795506D01*
X59301185Y-57698815D01*
X59204494Y-57619463D01*
X59094180Y-57560498D01*
X58974482Y-57524188D01*
X58850000Y-57511928D01*
X57150000Y-57511928D01*
X57025518Y-57524188D01*
X56905820Y-57560498D01*
X56795506Y-57619463D01*
X56698815Y-57698815D01*
X56619463Y-57795506D01*
X56560498Y-57905820D01*
X56538487Y-57978380D01*
X56406632Y-57846525D01*
X56163411Y-57684010D01*
X55893158Y-57572068D01*
X55606260Y-57515000D01*
X55313740Y-57515000D01*
X55026842Y-57572068D01*
X54756589Y-57684010D01*
X54513368Y-57846525D01*
X54306525Y-58053368D01*
X54190000Y-58227760D01*
X54073475Y-58053368D01*
X53866632Y-57846525D01*
X53623411Y-57684010D01*
X53353158Y-57572068D01*
X53066260Y-57515000D01*
X52773740Y-57515000D01*
X52486842Y-57572068D01*
X52216589Y-57684010D01*
X51973368Y-57846525D01*
X51766525Y-58053368D01*
X51604010Y-58296589D01*
X51492068Y-58566842D01*
X51435000Y-58853740D01*
X43072621Y-58853740D01*
X42970466Y-58607118D01*
X42764175Y-58298382D01*
X42501618Y-58035825D01*
X42192882Y-57829534D01*
X41849834Y-57687439D01*
X41485656Y-57615000D01*
X41114344Y-57615000D01*
X40750166Y-57687439D01*
X40407118Y-57829534D01*
X40098382Y-58035825D01*
X39835825Y-58298382D01*
X39629534Y-58607118D01*
X39487439Y-58950166D01*
X39415000Y-59314344D01*
X38960000Y-59314344D01*
X38960000Y-55813605D01*
X40166000Y-55813605D01*
X40291914Y-56103577D01*
X40624126Y-56269433D01*
X40982312Y-56367290D01*
X41352706Y-56393389D01*
X41721075Y-56346725D01*
X42073262Y-56229094D01*
X42308086Y-56103577D01*
X42434000Y-55813605D01*
X41300000Y-54679605D01*
X40166000Y-55813605D01*
X38960000Y-55813605D01*
X38960000Y-54552706D01*
X39406611Y-54552706D01*
X39453275Y-54921075D01*
X39570906Y-55273262D01*
X39696423Y-55508086D01*
X39986395Y-55634000D01*
X41120395Y-54500000D01*
X41479605Y-54500000D01*
X42613605Y-55634000D01*
X42903577Y-55508086D01*
X43069433Y-55175874D01*
X43156095Y-54858665D01*
X60065000Y-54858665D01*
X60065000Y-55141335D01*
X60120147Y-55418574D01*
X60228320Y-55679727D01*
X60385363Y-55914759D01*
X60585241Y-56114637D01*
X60820273Y-56271680D01*
X61081426Y-56379853D01*
X61358665Y-56435000D01*
X61641335Y-56435000D01*
X61918574Y-56379853D01*
X62179727Y-56271680D01*
X62414759Y-56114637D01*
X62468757Y-56060639D01*
X62460147Y-56081426D01*
X62405000Y-56358665D01*
X62405000Y-56641335D01*
X62460147Y-56918574D01*
X62568320Y-57179727D01*
X62725363Y-57414759D01*
X62925241Y-57614637D01*
X63160273Y-57771680D01*
X63421426Y-57879853D01*
X63698665Y-57935000D01*
X63981335Y-57935000D01*
X64258574Y-57879853D01*
X64519727Y-57771680D01*
X64754759Y-57614637D01*
X64954637Y-57414759D01*
X65111680Y-57179727D01*
X65219853Y-56918574D01*
X65275000Y-56641335D01*
X65275000Y-56358665D01*
X72565000Y-56358665D01*
X72565000Y-56641335D01*
X72620147Y-56918574D01*
X72728320Y-57179727D01*
X72885363Y-57414759D01*
X73085241Y-57614637D01*
X73320273Y-57771680D01*
X73581426Y-57879853D01*
X73858665Y-57935000D01*
X74141335Y-57935000D01*
X74418574Y-57879853D01*
X74679727Y-57771680D01*
X74914759Y-57614637D01*
X75114637Y-57414759D01*
X75271680Y-57179727D01*
X75379853Y-56918574D01*
X75435000Y-56641335D01*
X75435000Y-56358665D01*
X75379853Y-56081426D01*
X75287583Y-55858665D01*
X75565000Y-55858665D01*
X75565000Y-56141335D01*
X75620147Y-56418574D01*
X75728320Y-56679727D01*
X75885363Y-56914759D01*
X76085241Y-57114637D01*
X76320273Y-57271680D01*
X76581426Y-57379853D01*
X76858665Y-57435000D01*
X77141335Y-57435000D01*
X77418574Y-57379853D01*
X77679727Y-57271680D01*
X77914759Y-57114637D01*
X78114637Y-56914759D01*
X78271680Y-56679727D01*
X78379853Y-56418574D01*
X78435000Y-56141335D01*
X78435000Y-55858665D01*
X78379853Y-55581426D01*
X78271680Y-55320273D01*
X78114637Y-55085241D01*
X77914759Y-54885363D01*
X77679727Y-54728320D01*
X77418574Y-54620147D01*
X77141335Y-54565000D01*
X76858665Y-54565000D01*
X76581426Y-54620147D01*
X76320273Y-54728320D01*
X76085241Y-54885363D01*
X75885363Y-55085241D01*
X75728320Y-55320273D01*
X75620147Y-55581426D01*
X75565000Y-55858665D01*
X75287583Y-55858665D01*
X75271680Y-55820273D01*
X75114637Y-55585241D01*
X74914759Y-55385363D01*
X74679727Y-55228320D01*
X74418574Y-55120147D01*
X74141335Y-55065000D01*
X73858665Y-55065000D01*
X73581426Y-55120147D01*
X73320273Y-55228320D01*
X73085241Y-55385363D01*
X72885363Y-55585241D01*
X72728320Y-55820273D01*
X72620147Y-56081426D01*
X72565000Y-56358665D01*
X65275000Y-56358665D01*
X65219853Y-56081426D01*
X65111680Y-55820273D01*
X64954637Y-55585241D01*
X64754759Y-55385363D01*
X64519727Y-55228320D01*
X64258574Y-55120147D01*
X63981335Y-55065000D01*
X63698665Y-55065000D01*
X63421426Y-55120147D01*
X63160273Y-55228320D01*
X62925241Y-55385363D01*
X62871243Y-55439361D01*
X62879853Y-55418574D01*
X62935000Y-55141335D01*
X62935000Y-54858665D01*
X62879853Y-54581426D01*
X62771680Y-54320273D01*
X62614637Y-54085241D01*
X62414759Y-53885363D01*
X62179727Y-53728320D01*
X61918574Y-53620147D01*
X61641335Y-53565000D01*
X61358665Y-53565000D01*
X61081426Y-53620147D01*
X60820273Y-53728320D01*
X60585241Y-53885363D01*
X60385363Y-54085241D01*
X60228320Y-54320273D01*
X60120147Y-54581426D01*
X60065000Y-54858665D01*
X43156095Y-54858665D01*
X43167290Y-54817688D01*
X43193389Y-54447294D01*
X43146725Y-54078925D01*
X43029094Y-53726738D01*
X42903577Y-53491914D01*
X42613605Y-53366000D01*
X41479605Y-54500000D01*
X41120395Y-54500000D01*
X39986395Y-53366000D01*
X39696423Y-53491914D01*
X39530567Y-53824126D01*
X39432710Y-54182312D01*
X39406611Y-54552706D01*
X38960000Y-54552706D01*
X38960000Y-53186395D01*
X40166000Y-53186395D01*
X41300000Y-54320395D01*
X42434000Y-53186395D01*
X42308086Y-52896423D01*
X41975874Y-52730567D01*
X41617688Y-52632710D01*
X41247294Y-52606611D01*
X40878925Y-52653275D01*
X40526738Y-52770906D01*
X40291914Y-52896423D01*
X40166000Y-53186395D01*
X38960000Y-53186395D01*
X38960000Y-48250000D01*
X39411928Y-48250000D01*
X39411928Y-50750000D01*
X39424188Y-50874482D01*
X39460498Y-50994180D01*
X39519463Y-51104494D01*
X39598815Y-51201185D01*
X39695506Y-51280537D01*
X39805820Y-51339502D01*
X39925518Y-51375812D01*
X40050000Y-51388072D01*
X42550000Y-51388072D01*
X42674482Y-51375812D01*
X42794180Y-51339502D01*
X42904494Y-51280537D01*
X43001185Y-51201185D01*
X43080537Y-51104494D01*
X43139502Y-50994180D01*
X43175812Y-50874482D01*
X43177369Y-50858665D01*
X48565000Y-50858665D01*
X48565000Y-51141335D01*
X48620147Y-51418574D01*
X48728320Y-51679727D01*
X48885363Y-51914759D01*
X49085241Y-52114637D01*
X49320273Y-52271680D01*
X49581426Y-52379853D01*
X49858665Y-52435000D01*
X50141335Y-52435000D01*
X50418574Y-52379853D01*
X50679727Y-52271680D01*
X50914759Y-52114637D01*
X51114637Y-51914759D01*
X51271680Y-51679727D01*
X51379853Y-51418574D01*
X51435000Y-51141335D01*
X51435000Y-50858665D01*
X51379853Y-50581426D01*
X51290847Y-50366544D01*
X64065000Y-50366544D01*
X64065000Y-50633456D01*
X64117072Y-50895239D01*
X64219215Y-51141833D01*
X64367503Y-51363762D01*
X64556238Y-51552497D01*
X64778167Y-51700785D01*
X65024761Y-51802928D01*
X65286544Y-51855000D01*
X65553456Y-51855000D01*
X65815239Y-51802928D01*
X66061833Y-51700785D01*
X66283762Y-51552497D01*
X66472497Y-51363762D01*
X66620785Y-51141833D01*
X66690000Y-50974734D01*
X66759215Y-51141833D01*
X66907503Y-51363762D01*
X67096238Y-51552497D01*
X67318167Y-51700785D01*
X67564761Y-51802928D01*
X67826544Y-51855000D01*
X68093456Y-51855000D01*
X68355239Y-51802928D01*
X68601833Y-51700785D01*
X68823762Y-51552497D01*
X69012497Y-51363762D01*
X69160785Y-51141833D01*
X69230000Y-50974734D01*
X69299215Y-51141833D01*
X69447503Y-51363762D01*
X69636238Y-51552497D01*
X69858167Y-51700785D01*
X70104761Y-51802928D01*
X70366544Y-51855000D01*
X70633456Y-51855000D01*
X70895239Y-51802928D01*
X71141833Y-51700785D01*
X71363762Y-51552497D01*
X71480699Y-51435560D01*
X74664045Y-51435560D01*
X74725932Y-51671368D01*
X74967790Y-51784266D01*
X75227027Y-51847811D01*
X75493680Y-51859561D01*
X75757501Y-51819063D01*
X76008353Y-51727875D01*
X76114068Y-51671368D01*
X76175955Y-51435560D01*
X75420000Y-50679605D01*
X74664045Y-51435560D01*
X71480699Y-51435560D01*
X71552497Y-51363762D01*
X71700785Y-51141833D01*
X71802928Y-50895239D01*
X71855000Y-50633456D01*
X71855000Y-50573680D01*
X74060439Y-50573680D01*
X74100937Y-50837501D01*
X74192125Y-51088353D01*
X74248632Y-51194068D01*
X74484440Y-51255955D01*
X75240395Y-50500000D01*
X75599605Y-50500000D01*
X76355560Y-51255955D01*
X76591368Y-51194068D01*
X76691764Y-50978993D01*
X76759215Y-51141833D01*
X76907503Y-51363762D01*
X77096238Y-51552497D01*
X77318167Y-51700785D01*
X77564761Y-51802928D01*
X77826544Y-51855000D01*
X78093456Y-51855000D01*
X78355239Y-51802928D01*
X78601833Y-51700785D01*
X78823762Y-51552497D01*
X79012497Y-51363762D01*
X79160785Y-51141833D01*
X79230000Y-50974734D01*
X79299215Y-51141833D01*
X79447503Y-51363762D01*
X79636238Y-51552497D01*
X79858167Y-51700785D01*
X80104761Y-51802928D01*
X80366544Y-51855000D01*
X80633456Y-51855000D01*
X80895239Y-51802928D01*
X81141833Y-51700785D01*
X81363762Y-51552497D01*
X81552497Y-51363762D01*
X81700785Y-51141833D01*
X81802928Y-50895239D01*
X81855000Y-50633456D01*
X81855000Y-50366544D01*
X81802928Y-50104761D01*
X81700785Y-49858167D01*
X81552497Y-49636238D01*
X81363762Y-49447503D01*
X81141833Y-49299215D01*
X80895239Y-49197072D01*
X80633456Y-49145000D01*
X80366544Y-49145000D01*
X80104761Y-49197072D01*
X79858167Y-49299215D01*
X79636238Y-49447503D01*
X79447503Y-49636238D01*
X79299215Y-49858167D01*
X79230000Y-50025266D01*
X79160785Y-49858167D01*
X79012497Y-49636238D01*
X78823762Y-49447503D01*
X78601833Y-49299215D01*
X78355239Y-49197072D01*
X78093456Y-49145000D01*
X77826544Y-49145000D01*
X77564761Y-49197072D01*
X77318167Y-49299215D01*
X77096238Y-49447503D01*
X76907503Y-49636238D01*
X76759215Y-49858167D01*
X76689562Y-50026324D01*
X76647875Y-49911647D01*
X76591368Y-49805932D01*
X76355560Y-49744045D01*
X75599605Y-50500000D01*
X75240395Y-50500000D01*
X74484440Y-49744045D01*
X74248632Y-49805932D01*
X74135734Y-50047790D01*
X74072189Y-50307027D01*
X74060439Y-50573680D01*
X71855000Y-50573680D01*
X71855000Y-50366544D01*
X71802928Y-50104761D01*
X71700785Y-49858167D01*
X71552497Y-49636238D01*
X71480699Y-49564440D01*
X74664045Y-49564440D01*
X75420000Y-50320395D01*
X76175955Y-49564440D01*
X76114068Y-49328632D01*
X75872210Y-49215734D01*
X75612973Y-49152189D01*
X75346320Y-49140439D01*
X75082499Y-49180937D01*
X74831647Y-49272125D01*
X74725932Y-49328632D01*
X74664045Y-49564440D01*
X71480699Y-49564440D01*
X71363762Y-49447503D01*
X71141833Y-49299215D01*
X70895239Y-49197072D01*
X70633456Y-49145000D01*
X70366544Y-49145000D01*
X70104761Y-49197072D01*
X69858167Y-49299215D01*
X69636238Y-49447503D01*
X69447503Y-49636238D01*
X69299215Y-49858167D01*
X69230000Y-50025266D01*
X69160785Y-49858167D01*
X69012497Y-49636238D01*
X68823762Y-49447503D01*
X68601833Y-49299215D01*
X68355239Y-49197072D01*
X68093456Y-49145000D01*
X67826544Y-49145000D01*
X67564761Y-49197072D01*
X67318167Y-49299215D01*
X67096238Y-49447503D01*
X66907503Y-49636238D01*
X66759215Y-49858167D01*
X66690000Y-50025266D01*
X66620785Y-49858167D01*
X66472497Y-49636238D01*
X66283762Y-49447503D01*
X66061833Y-49299215D01*
X65815239Y-49197072D01*
X65553456Y-49145000D01*
X65286544Y-49145000D01*
X65024761Y-49197072D01*
X64778167Y-49299215D01*
X64556238Y-49447503D01*
X64367503Y-49636238D01*
X64219215Y-49858167D01*
X64117072Y-50104761D01*
X64065000Y-50366544D01*
X51290847Y-50366544D01*
X51271680Y-50320273D01*
X51114637Y-50085241D01*
X50914759Y-49885363D01*
X50679727Y-49728320D01*
X50418574Y-49620147D01*
X50141335Y-49565000D01*
X49858665Y-49565000D01*
X49581426Y-49620147D01*
X49320273Y-49728320D01*
X49085241Y-49885363D01*
X48885363Y-50085241D01*
X48728320Y-50320273D01*
X48620147Y-50581426D01*
X48565000Y-50858665D01*
X43177369Y-50858665D01*
X43188072Y-50750000D01*
X43188072Y-48250000D01*
X43175812Y-48125518D01*
X43139502Y-48005820D01*
X43080537Y-47895506D01*
X43001185Y-47798815D01*
X42904494Y-47719463D01*
X42794180Y-47660498D01*
X42674482Y-47624188D01*
X42550000Y-47611928D01*
X40050000Y-47611928D01*
X39925518Y-47624188D01*
X39805820Y-47660498D01*
X39695506Y-47719463D01*
X39598815Y-47798815D01*
X39519463Y-47895506D01*
X39460498Y-48005820D01*
X39424188Y-48125518D01*
X39411928Y-48250000D01*
X38960000Y-48250000D01*
X38960000Y-47214801D01*
X40614803Y-45560000D01*
X42721957Y-45560000D01*
X42825363Y-45714759D01*
X43025241Y-45914637D01*
X43260273Y-46071680D01*
X43521426Y-46179853D01*
X43798665Y-46235000D01*
X44081335Y-46235000D01*
X44358574Y-46179853D01*
X44619727Y-46071680D01*
X44854759Y-45914637D01*
X45054637Y-45714759D01*
X45211680Y-45479727D01*
X45319853Y-45218574D01*
X45375000Y-44941335D01*
X45375000Y-44658665D01*
X52665000Y-44658665D01*
X52665000Y-44941335D01*
X52720147Y-45218574D01*
X52828320Y-45479727D01*
X52985363Y-45714759D01*
X53185241Y-45914637D01*
X53420273Y-46071680D01*
X53681426Y-46179853D01*
X53958665Y-46235000D01*
X54241335Y-46235000D01*
X54518574Y-46179853D01*
X54779727Y-46071680D01*
X55014759Y-45914637D01*
X55214637Y-45714759D01*
X55371680Y-45479727D01*
X55479853Y-45218574D01*
X55535000Y-44941335D01*
X55535000Y-44658665D01*
X55479853Y-44381426D01*
X55371680Y-44120273D01*
X55214637Y-43885241D01*
X55014759Y-43685363D01*
X54812174Y-43550000D01*
X56511928Y-43550000D01*
X56524188Y-43674482D01*
X56560498Y-43794180D01*
X56619463Y-43904494D01*
X56698815Y-44001185D01*
X56795506Y-44080537D01*
X56905820Y-44139502D01*
X57025518Y-44175812D01*
X57150000Y-44188072D01*
X57314250Y-44185000D01*
X57473000Y-44026250D01*
X57473000Y-42927000D01*
X56673750Y-42927000D01*
X56515000Y-43085750D01*
X56511928Y-43550000D01*
X54812174Y-43550000D01*
X54779727Y-43528320D01*
X54518574Y-43420147D01*
X54241335Y-43365000D01*
X53958665Y-43365000D01*
X53681426Y-43420147D01*
X53420273Y-43528320D01*
X53185241Y-43685363D01*
X52985363Y-43885241D01*
X52828320Y-44120273D01*
X52720147Y-44381426D01*
X52665000Y-44658665D01*
X45375000Y-44658665D01*
X45319853Y-44381426D01*
X45211680Y-44120273D01*
X45054637Y-43885241D01*
X44854759Y-43685363D01*
X44619727Y-43528320D01*
X44358574Y-43420147D01*
X44081335Y-43365000D01*
X43798665Y-43365000D01*
X43521426Y-43420147D01*
X43260273Y-43528320D01*
X43025241Y-43685363D01*
X42825363Y-43885241D01*
X42721957Y-44040000D01*
X40337322Y-44040000D01*
X40299999Y-44036324D01*
X40262676Y-44040000D01*
X40262667Y-44040000D01*
X40151014Y-44050997D01*
X40007753Y-44094454D01*
X39875724Y-44165026D01*
X39875722Y-44165027D01*
X39875723Y-44165027D01*
X39788996Y-44236201D01*
X39788992Y-44236205D01*
X39759999Y-44259999D01*
X39736205Y-44288992D01*
X37688998Y-46336201D01*
X37660000Y-46359999D01*
X37636202Y-46388997D01*
X37636201Y-46388998D01*
X37565026Y-46475724D01*
X37494454Y-46607754D01*
X37450998Y-46751015D01*
X37436324Y-46900000D01*
X37027000Y-46900000D01*
X37027000Y-42050000D01*
X56511928Y-42050000D01*
X56515000Y-42514250D01*
X56673750Y-42673000D01*
X57473000Y-42673000D01*
X57473000Y-41573750D01*
X57727000Y-41573750D01*
X57727000Y-42673000D01*
X57747000Y-42673000D01*
X57747000Y-42927000D01*
X57727000Y-42927000D01*
X57727000Y-44026250D01*
X57885750Y-44185000D01*
X58050000Y-44188072D01*
X58174482Y-44175812D01*
X58294180Y-44139502D01*
X58403640Y-44080993D01*
X58452780Y-44107259D01*
X58657303Y-44169300D01*
X58870000Y-44190249D01*
X59082696Y-44169300D01*
X59287219Y-44107259D01*
X59475710Y-44006509D01*
X59505000Y-43982471D01*
X59534290Y-44006509D01*
X59722780Y-44107259D01*
X59927303Y-44169300D01*
X60140000Y-44190249D01*
X60352696Y-44169300D01*
X60557219Y-44107259D01*
X60745710Y-44006509D01*
X60910922Y-43870922D01*
X61046509Y-43705710D01*
X61147259Y-43517220D01*
X61209300Y-43312697D01*
X61225000Y-43153294D01*
X61225000Y-42446707D01*
X61209300Y-42287304D01*
X61147259Y-42082781D01*
X61046509Y-41894290D01*
X60910922Y-41729078D01*
X60745710Y-41593491D01*
X60557220Y-41492741D01*
X60352697Y-41430700D01*
X60140000Y-41409751D01*
X59927304Y-41430700D01*
X59722781Y-41492741D01*
X59534291Y-41593491D01*
X59505000Y-41617529D01*
X59475710Y-41593491D01*
X59287220Y-41492741D01*
X59082697Y-41430700D01*
X58870000Y-41409751D01*
X58657304Y-41430700D01*
X58452781Y-41492741D01*
X58403641Y-41519007D01*
X58294180Y-41460498D01*
X58174482Y-41424188D01*
X58050000Y-41411928D01*
X57885750Y-41415000D01*
X57727000Y-41573750D01*
X57473000Y-41573750D01*
X57314250Y-41415000D01*
X57150000Y-41411928D01*
X57025518Y-41424188D01*
X56905820Y-41460498D01*
X56795506Y-41519463D01*
X56698815Y-41598815D01*
X56619463Y-41695506D01*
X56560498Y-41805820D01*
X56524188Y-41925518D01*
X56511928Y-42050000D01*
X37027000Y-42050000D01*
X37027000Y-39914344D01*
X63315000Y-39914344D01*
X63315000Y-40285656D01*
X63387439Y-40649834D01*
X63529534Y-40992882D01*
X63735825Y-41301618D01*
X63998382Y-41564175D01*
X64307118Y-41770466D01*
X64650166Y-41912561D01*
X65014344Y-41985000D01*
X65385656Y-41985000D01*
X65749834Y-41912561D01*
X66092882Y-41770466D01*
X66401618Y-41564175D01*
X66552188Y-41413605D01*
X69066000Y-41413605D01*
X69191914Y-41703577D01*
X69524126Y-41869433D01*
X69882312Y-41967290D01*
X70252706Y-41993389D01*
X70621075Y-41946725D01*
X70973262Y-41829094D01*
X71208086Y-41703577D01*
X71334000Y-41413605D01*
X70200000Y-40279605D01*
X69066000Y-41413605D01*
X66552188Y-41413605D01*
X66664175Y-41301618D01*
X66870466Y-40992882D01*
X67012561Y-40649834D01*
X67085000Y-40285656D01*
X67085000Y-40152706D01*
X68306611Y-40152706D01*
X68353275Y-40521075D01*
X68470906Y-40873262D01*
X68596423Y-41108086D01*
X68886395Y-41234000D01*
X70020395Y-40100000D01*
X70379605Y-40100000D01*
X71513605Y-41234000D01*
X71803577Y-41108086D01*
X71969433Y-40775874D01*
X72067290Y-40417688D01*
X72093389Y-40047294D01*
X72076548Y-39914344D01*
X73315000Y-39914344D01*
X73315000Y-40285656D01*
X73387439Y-40649834D01*
X73529534Y-40992882D01*
X73735825Y-41301618D01*
X73998382Y-41564175D01*
X74307118Y-41770466D01*
X74650166Y-41912561D01*
X75014344Y-41985000D01*
X75385656Y-41985000D01*
X75749834Y-41912561D01*
X76092882Y-41770466D01*
X76401618Y-41564175D01*
X76664175Y-41301618D01*
X76870466Y-40992882D01*
X77012561Y-40649834D01*
X77085000Y-40285656D01*
X77085000Y-39914344D01*
X77012561Y-39550166D01*
X76870466Y-39207118D01*
X76664175Y-38898382D01*
X76615793Y-38850000D01*
X78311928Y-38850000D01*
X78311928Y-41350000D01*
X78324188Y-41474482D01*
X78360498Y-41594180D01*
X78419463Y-41704494D01*
X78498815Y-41801185D01*
X78595506Y-41880537D01*
X78705820Y-41939502D01*
X78825518Y-41975812D01*
X78950000Y-41988072D01*
X81450000Y-41988072D01*
X81574482Y-41975812D01*
X81694180Y-41939502D01*
X81804494Y-41880537D01*
X81901185Y-41801185D01*
X81980537Y-41704494D01*
X82039502Y-41594180D01*
X82075812Y-41474482D01*
X82088072Y-41350000D01*
X82088072Y-38850000D01*
X82075812Y-38725518D01*
X82039502Y-38605820D01*
X81980537Y-38495506D01*
X81901185Y-38398815D01*
X81804494Y-38319463D01*
X81694180Y-38260498D01*
X81574482Y-38224188D01*
X81450000Y-38211928D01*
X78950000Y-38211928D01*
X78825518Y-38224188D01*
X78705820Y-38260498D01*
X78595506Y-38319463D01*
X78498815Y-38398815D01*
X78419463Y-38495506D01*
X78360498Y-38605820D01*
X78324188Y-38725518D01*
X78311928Y-38850000D01*
X76615793Y-38850000D01*
X76401618Y-38635825D01*
X76092882Y-38429534D01*
X75749834Y-38287439D01*
X75385656Y-38215000D01*
X75014344Y-38215000D01*
X74650166Y-38287439D01*
X74307118Y-38429534D01*
X73998382Y-38635825D01*
X73735825Y-38898382D01*
X73529534Y-39207118D01*
X73387439Y-39550166D01*
X73315000Y-39914344D01*
X72076548Y-39914344D01*
X72046725Y-39678925D01*
X71929094Y-39326738D01*
X71803577Y-39091914D01*
X71513605Y-38966000D01*
X70379605Y-40100000D01*
X70020395Y-40100000D01*
X68886395Y-38966000D01*
X68596423Y-39091914D01*
X68430567Y-39424126D01*
X68332710Y-39782312D01*
X68306611Y-40152706D01*
X67085000Y-40152706D01*
X67085000Y-39914344D01*
X67012561Y-39550166D01*
X66870466Y-39207118D01*
X66664175Y-38898382D01*
X66552188Y-38786395D01*
X69066000Y-38786395D01*
X70200000Y-39920395D01*
X71334000Y-38786395D01*
X71208086Y-38496423D01*
X70875874Y-38330567D01*
X70517688Y-38232710D01*
X70147294Y-38206611D01*
X69778925Y-38253275D01*
X69426738Y-38370906D01*
X69191914Y-38496423D01*
X69066000Y-38786395D01*
X66552188Y-38786395D01*
X66401618Y-38635825D01*
X66092882Y-38429534D01*
X65749834Y-38287439D01*
X65385656Y-38215000D01*
X65014344Y-38215000D01*
X64650166Y-38287439D01*
X64307118Y-38429534D01*
X63998382Y-38635825D01*
X63735825Y-38898382D01*
X63529534Y-39207118D01*
X63387439Y-39550166D01*
X63315000Y-39914344D01*
X37027000Y-39914344D01*
X37027000Y-35604332D01*
X37060989Y-35562657D01*
X37104091Y-35527000D01*
X84209332Y-35527000D01*
X83893425Y-35842907D01*
%TD*%
M02*
