%TF.GenerationSoftware,KiCad,Pcbnew,(5.1.6)-1*%
%TF.CreationDate,2020-07-07T17:24:47-04:00*%
%TF.ProjectId,GalvoDriver,47616c76-6f44-4726-9976-65722e6b6963,rev?*%
%TF.SameCoordinates,Original*%
%TF.FileFunction,Copper,L1,Top*%
%TF.FilePolarity,Positive*%
%FSLAX46Y46*%
G04 Gerber Fmt 4.6, Leading zero omitted, Abs format (unit mm)*
G04 Created by KiCad (PCBNEW (5.1.6)-1) date 2020-07-07 17:24:47*
%MOMM*%
%LPD*%
G01*
G04 APERTURE LIST*
%TA.AperFunction,ComponentPad*%
%ADD10C,1.600000*%
%TD*%
%TA.AperFunction,ComponentPad*%
%ADD11O,1.600000X1.600000*%
%TD*%
%TA.AperFunction,ComponentPad*%
%ADD12C,1.440000*%
%TD*%
%TA.AperFunction,ComponentPad*%
%ADD13R,1.600000X1.600000*%
%TD*%
%TA.AperFunction,ComponentPad*%
%ADD14R,1.700000X1.700000*%
%TD*%
%TA.AperFunction,ComponentPad*%
%ADD15O,1.700000X1.700000*%
%TD*%
%TA.AperFunction,ComponentPad*%
%ADD16O,1.800000X2.800000*%
%TD*%
%TA.AperFunction,ComponentPad*%
%ADD17C,1.750000*%
%TD*%
%TA.AperFunction,ComponentPad*%
%ADD18R,1.750000X1.750000*%
%TD*%
%TA.AperFunction,ComponentPad*%
%ADD19C,2.500000*%
%TD*%
%TA.AperFunction,ComponentPad*%
%ADD20R,2.500000X2.500000*%
%TD*%
%TA.AperFunction,ComponentPad*%
%ADD21R,0.900000X1.500000*%
%TD*%
%TA.AperFunction,ComponentPad*%
%ADD22O,0.900000X1.500000*%
%TD*%
%TA.AperFunction,ViaPad*%
%ADD23C,0.800000*%
%TD*%
%TA.AperFunction,Conductor*%
%ADD24C,0.250000*%
%TD*%
%TA.AperFunction,Conductor*%
%ADD25C,0.400000*%
%TD*%
%TA.AperFunction,Conductor*%
%ADD26C,0.254000*%
%TD*%
G04 APERTURE END LIST*
D10*
%TO.P,C1,1*%
%TO.N,VDD*%
X61000000Y-88500000D03*
%TO.P,C1,2*%
%TO.N,GND*%
X61000000Y-91000000D03*
%TD*%
D11*
%TO.P,R1,2*%
%TO.N,Net-(R1-Pad2)*%
X74160000Y-59500000D03*
D10*
%TO.P,R1,1*%
%TO.N,A_ILDA+*%
X64000000Y-59500000D03*
%TD*%
%TO.P,R2,1*%
%TO.N,Net-(J4-Pad1)*%
X61500000Y-55000000D03*
D11*
%TO.P,R2,2*%
%TO.N,DAC_A*%
X61500000Y-65160000D03*
%TD*%
D10*
%TO.P,R3,1*%
%TO.N,Net-(R1-Pad2)*%
X74000000Y-56500000D03*
D11*
%TO.P,R3,2*%
%TO.N,A_ILDA-*%
X63840000Y-56500000D03*
%TD*%
%TO.P,R4,2*%
%TO.N,+VIN*%
X77000000Y-66160000D03*
D10*
%TO.P,R4,1*%
%TO.N,Net-(R4-Pad1)*%
X77000000Y-56000000D03*
%TD*%
D11*
%TO.P,R5,2*%
%TO.N,Net-(R5-Pad2)*%
X74160000Y-87000000D03*
D10*
%TO.P,R5,1*%
%TO.N,B_ILDA+*%
X64000000Y-87000000D03*
%TD*%
%TO.P,R6,1*%
%TO.N,Net-(J5-Pad1)*%
X61500000Y-68500000D03*
D11*
%TO.P,R6,2*%
%TO.N,DAC_B*%
X61500000Y-78660000D03*
%TD*%
D10*
%TO.P,R7,1*%
%TO.N,Net-(R5-Pad2)*%
X74000000Y-84000000D03*
D11*
%TO.P,R7,2*%
%TO.N,B_ILDA-*%
X63840000Y-84000000D03*
%TD*%
%TO.P,R8,2*%
%TO.N,+VIN*%
X77000000Y-76840000D03*
D10*
%TO.P,R8,1*%
%TO.N,Net-(R8-Pad1)*%
X77000000Y-87000000D03*
%TD*%
D12*
%TO.P,RV1,3*%
%TO.N,Net-(RV1-Pad3)*%
X65420000Y-50500000D03*
%TO.P,RV1,2*%
%TO.N,A_ILDA-*%
X67960000Y-50500000D03*
%TO.P,RV1,1*%
%TO.N,Net-(J4-Pad2)*%
X70500000Y-50500000D03*
%TD*%
%TO.P,RV2,1*%
%TO.N,Net-(R4-Pad1)*%
X80500000Y-50500000D03*
%TO.P,RV2,2*%
%TO.N,Net-(RV2-Pad2)*%
X77960000Y-50500000D03*
%TO.P,RV2,3*%
%TO.N,GND*%
X75420000Y-50500000D03*
%TD*%
%TO.P,RV3,1*%
%TO.N,Net-(J5-Pad2)*%
X70500000Y-93000000D03*
%TO.P,RV3,2*%
%TO.N,B_ILDA-*%
X67960000Y-93000000D03*
%TO.P,RV3,3*%
%TO.N,Net-(RV3-Pad3)*%
X65420000Y-93000000D03*
%TD*%
%TO.P,RV4,3*%
%TO.N,GND*%
X75420000Y-93000000D03*
%TO.P,RV4,2*%
%TO.N,Net-(RV4-Pad2)*%
X77960000Y-93000000D03*
%TO.P,RV4,1*%
%TO.N,Net-(R8-Pad1)*%
X80500000Y-93000000D03*
%TD*%
D11*
%TO.P,U1,8*%
%TO.N,+VIN*%
X65000000Y-62380000D03*
%TO.P,U1,4*%
%TO.N,-VIN*%
X72620000Y-70000000D03*
%TO.P,U1,7*%
%TO.N,A_ILDA+*%
X67540000Y-62380000D03*
%TO.P,U1,3*%
%TO.N,Net-(RV2-Pad2)*%
X70080000Y-70000000D03*
%TO.P,U1,6*%
%TO.N,Net-(R1-Pad2)*%
X70080000Y-62380000D03*
%TO.P,U1,2*%
%TO.N,Net-(J4-Pad2)*%
X67540000Y-70000000D03*
%TO.P,U1,5*%
%TO.N,GND*%
X72620000Y-62380000D03*
D13*
%TO.P,U1,1*%
%TO.N,A_ILDA-*%
X65000000Y-70000000D03*
%TD*%
D11*
%TO.P,U2,8*%
%TO.N,DAC_A*%
X57500000Y-93620000D03*
%TO.P,U2,4*%
%TO.N,Net-(J3-Pad4)*%
X49880000Y-86000000D03*
%TO.P,U2,7*%
%TO.N,GND*%
X54960000Y-93620000D03*
%TO.P,U2,3*%
%TO.N,Net-(J3-Pad2)*%
X52420000Y-86000000D03*
%TO.P,U2,6*%
%TO.N,DAC_B*%
X52420000Y-93620000D03*
%TO.P,U2,2*%
%TO.N,Net-(J3-Pad5)*%
X54960000Y-86000000D03*
%TO.P,U2,5*%
%TO.N,Net-(J3-Pad3)*%
X49880000Y-93620000D03*
D13*
%TO.P,U2,1*%
%TO.N,VDD*%
X57500000Y-86000000D03*
%TD*%
%TO.P,U3,1*%
%TO.N,B_ILDA-*%
X65000000Y-81000000D03*
D11*
%TO.P,U3,5*%
%TO.N,GND*%
X72620000Y-73380000D03*
%TO.P,U3,2*%
%TO.N,Net-(J5-Pad2)*%
X67540000Y-81000000D03*
%TO.P,U3,6*%
%TO.N,Net-(R5-Pad2)*%
X70080000Y-73380000D03*
%TO.P,U3,3*%
%TO.N,Net-(RV4-Pad2)*%
X70080000Y-81000000D03*
%TO.P,U3,7*%
%TO.N,B_ILDA+*%
X67540000Y-73380000D03*
%TO.P,U3,4*%
%TO.N,-VIN*%
X72620000Y-81000000D03*
%TO.P,U3,8*%
%TO.N,+VIN*%
X65000000Y-73380000D03*
%TD*%
D14*
%TO.P,J4,1*%
%TO.N,Net-(J4-Pad1)*%
X58000000Y-59000000D03*
D15*
%TO.P,J4,2*%
%TO.N,Net-(J4-Pad2)*%
X55460000Y-59000000D03*
%TO.P,J4,3*%
%TO.N,Net-(J4-Pad3)*%
X52920000Y-59000000D03*
%TD*%
%TO.P,J5,3*%
%TO.N,Net-(J5-Pad3)*%
X52460000Y-74500000D03*
%TO.P,J5,2*%
%TO.N,Net-(J5-Pad2)*%
X55000000Y-74500000D03*
D14*
%TO.P,J5,1*%
%TO.N,Net-(J5-Pad1)*%
X57540000Y-74500000D03*
%TD*%
D16*
%TO.P,J6,S*%
%TO.N,GND*%
X44000000Y-67000000D03*
%TO.P,J6,T*%
%TO.N,AUDIO_L*%
X46400000Y-65000000D03*
%TO.P,J6,R*%
%TO.N,AUDIO_R*%
X51900000Y-65000000D03*
%TD*%
D11*
%TO.P,R9,2*%
%TO.N,AUDIO_L*%
X50000000Y-61160000D03*
D10*
%TO.P,R9,1*%
%TO.N,Net-(J4-Pad3)*%
X50000000Y-51000000D03*
%TD*%
%TO.P,R10,1*%
%TO.N,Net-(J5-Pad3)*%
X49500000Y-83000000D03*
D11*
%TO.P,R10,2*%
%TO.N,AUDIO_R*%
X49500000Y-72840000D03*
%TD*%
D17*
%TO.P,J2,3*%
%TO.N,A_ILDA-*%
X85500000Y-64000000D03*
%TO.P,J2,2*%
%TO.N,GND*%
X85500000Y-61500000D03*
D18*
%TO.P,J2,1*%
%TO.N,A_ILDA+*%
X85500000Y-59000000D03*
%TD*%
%TO.P,J7,1*%
%TO.N,B_ILDA+*%
X85500000Y-80000000D03*
D17*
%TO.P,J7,2*%
%TO.N,GND*%
X85500000Y-82500000D03*
%TO.P,J7,3*%
%TO.N,B_ILDA-*%
X85500000Y-85000000D03*
%TD*%
D19*
%TO.P,J1,2*%
%TO.N,GND*%
X41300000Y-54500000D03*
D20*
%TO.P,J1,1*%
%TO.N,+VIN*%
X41300000Y-49500000D03*
D19*
%TO.P,J1,3*%
%TO.N,-VIN*%
X41300000Y-59500000D03*
%TD*%
D15*
%TO.P,J3,7*%
%TO.N,LASER*%
X46000000Y-89240000D03*
%TO.P,J3,6*%
%TO.N,GND*%
X46000000Y-86700000D03*
%TO.P,J3,5*%
%TO.N,Net-(J3-Pad5)*%
X46000000Y-84160000D03*
%TO.P,J3,4*%
%TO.N,Net-(J3-Pad4)*%
X46000000Y-81620000D03*
%TO.P,J3,3*%
%TO.N,Net-(J3-Pad3)*%
X46000000Y-79080000D03*
%TO.P,J3,2*%
%TO.N,Net-(J3-Pad2)*%
X46000000Y-76540000D03*
D14*
%TO.P,J3,1*%
%TO.N,VDD*%
X46000000Y-74000000D03*
%TD*%
D19*
%TO.P,J8,2*%
%TO.N,VSS*%
X75200000Y-40100000D03*
D20*
%TO.P,J8,1*%
%TO.N,Net-(J8-Pad1)*%
X80200000Y-40100000D03*
D19*
%TO.P,J8,3*%
%TO.N,GND*%
X70200000Y-40100000D03*
%TO.P,J8,4*%
%TO.N,VSS*%
X65200000Y-40100000D03*
%TD*%
D21*
%TO.P,Q1,1*%
%TO.N,GND*%
X57600000Y-42800000D03*
D22*
%TO.P,Q1,3*%
%TO.N,Net-(J8-Pad1)*%
X60140000Y-42800000D03*
%TO.P,Q1,2*%
%TO.N,Net-(Q1-Pad2)*%
X58870000Y-42800000D03*
%TD*%
D11*
%TO.P,R11,2*%
%TO.N,LASER*%
X43940000Y-44800000D03*
D10*
%TO.P,R11,1*%
%TO.N,Net-(Q1-Pad2)*%
X54100000Y-44800000D03*
%TD*%
D23*
%TO.N,Net-(RV2-Pad2)*%
X75000000Y-63000000D03*
X75000000Y-65500000D03*
%TO.N,Net-(J4-Pad2)*%
X64500000Y-64500000D03*
X61500000Y-62000000D03*
%TO.N,DAC_B*%
X58000000Y-88000000D03*
X61000000Y-85000000D03*
%TD*%
D24*
%TO.N,B_ILDA+*%
X66414999Y-74505001D02*
X67540000Y-73380000D01*
X66414999Y-84585001D02*
X66414999Y-74505001D01*
X64000000Y-87000000D02*
X66414999Y-84585001D01*
X68665001Y-72254999D02*
X74754999Y-72254999D01*
X67540000Y-73380000D02*
X68665001Y-72254999D01*
X82500000Y-80000000D02*
X85500000Y-80000000D01*
X74754999Y-72254999D02*
X82500000Y-80000000D01*
%TO.N,A_ILDA-*%
X63840000Y-56500000D02*
X63840000Y-54160000D01*
X67500000Y-50500000D02*
X67960000Y-50500000D01*
X63840000Y-54160000D02*
X67500000Y-50500000D01*
X62874999Y-57465001D02*
X62874999Y-67874999D01*
X62874999Y-67874999D02*
X65000000Y-70000000D01*
X63840000Y-56500000D02*
X62874999Y-57465001D01*
X78374999Y-71125001D02*
X85500000Y-64000000D01*
X66125001Y-71125001D02*
X78374999Y-71125001D01*
X65000000Y-70000000D02*
X66125001Y-71125001D01*
%TO.N,A_ILDA+*%
X66880000Y-62380000D02*
X67540000Y-62380000D01*
X64000000Y-59500000D02*
X66880000Y-62380000D01*
X80774999Y-63725001D02*
X85500000Y-59000000D01*
X68885001Y-63725001D02*
X80774999Y-63725001D01*
X67540000Y-62380000D02*
X68885001Y-63725001D01*
%TO.N,B_ILDA-*%
X62874999Y-84965001D02*
X62874999Y-87914999D01*
X62874999Y-87914999D02*
X67960000Y-93000000D01*
X63840000Y-84000000D02*
X62874999Y-84965001D01*
X63840000Y-82160000D02*
X65000000Y-81000000D01*
X63840000Y-84000000D02*
X63840000Y-82160000D01*
X85500000Y-89546602D02*
X85500000Y-85000000D01*
X69005001Y-94045001D02*
X81001601Y-94045001D01*
X81001601Y-94045001D02*
X85500000Y-89546602D01*
X67960000Y-93000000D02*
X69005001Y-94045001D01*
%TO.N,Net-(J3-Pad5)*%
X46000000Y-84160000D02*
X49340000Y-87500000D01*
X53460000Y-87500000D02*
X54960000Y-86000000D01*
X49340000Y-87500000D02*
X53460000Y-87500000D01*
%TO.N,Net-(J3-Pad4)*%
X49880000Y-85500000D02*
X49880000Y-86000000D01*
X46000000Y-81620000D02*
X49880000Y-85500000D01*
%TO.N,Net-(J3-Pad3)*%
X49880000Y-88840998D02*
X49880000Y-93620000D01*
X44824999Y-84724001D02*
X45625997Y-85524999D01*
X44824999Y-80255001D02*
X44824999Y-84724001D01*
X46564001Y-85524999D02*
X49880000Y-88840998D01*
X45625997Y-85524999D02*
X46564001Y-85524999D01*
X46000000Y-79080000D02*
X44824999Y-80255001D01*
%TO.N,Net-(J3-Pad2)*%
X52420000Y-82960000D02*
X52420000Y-86000000D01*
X46000000Y-76540000D02*
X52420000Y-82960000D01*
%TO.N,VDD*%
X46000000Y-74500000D02*
X57500000Y-86000000D01*
X46000000Y-74000000D02*
X46000000Y-74500000D01*
X58500000Y-86000000D02*
X61000000Y-88500000D01*
X57500000Y-86000000D02*
X58500000Y-86000000D01*
%TO.N,Net-(R1-Pad2)*%
X72960000Y-59500000D02*
X74160000Y-59500000D01*
X70080000Y-62380000D02*
X72960000Y-59500000D01*
X74160000Y-56660000D02*
X74000000Y-56500000D01*
X74160000Y-59500000D02*
X74160000Y-56660000D01*
%TO.N,Net-(R4-Pad1)*%
X80500000Y-52500000D02*
X77000000Y-56000000D01*
X80500000Y-50500000D02*
X80500000Y-52500000D01*
%TO.N,Net-(R5-Pad2)*%
X74160000Y-84160000D02*
X74000000Y-84000000D01*
X74160000Y-87000000D02*
X74160000Y-84160000D01*
X71494999Y-74794999D02*
X70080000Y-73380000D01*
X71494999Y-81494999D02*
X71494999Y-74794999D01*
X74000000Y-84000000D02*
X71494999Y-81494999D01*
%TO.N,Net-(R8-Pad1)*%
X80500000Y-90500000D02*
X77000000Y-87000000D01*
X80500000Y-93000000D02*
X80500000Y-90500000D01*
%TO.N,Net-(RV2-Pad2)*%
X75874999Y-62125001D02*
X75000000Y-63000000D01*
X77960000Y-50500000D02*
X75874999Y-52585001D01*
X75874999Y-52585001D02*
X75874999Y-62125001D01*
X70500000Y-70000000D02*
X70080000Y-70000000D01*
X75000000Y-65500000D02*
X70500000Y-70000000D01*
%TO.N,Net-(RV4-Pad2)*%
X70950010Y-81870010D02*
X70080000Y-81000000D01*
X70950010Y-85990010D02*
X70950010Y-81870010D01*
X77960000Y-93000000D02*
X70950010Y-85990010D01*
%TO.N,AUDIO_R*%
X51900000Y-70440000D02*
X49500000Y-72840000D01*
X51900000Y-65000000D02*
X51900000Y-70440000D01*
%TO.N,AUDIO_L*%
X46400000Y-64760000D02*
X50000000Y-61160000D01*
X46400000Y-65000000D02*
X46400000Y-64760000D01*
%TO.N,Net-(J4-Pad1)*%
X58000000Y-58500000D02*
X61500000Y-55000000D01*
X58000000Y-59000000D02*
X58000000Y-58500000D01*
%TO.N,Net-(J4-Pad2)*%
X69454999Y-49454999D02*
X70500000Y-50500000D01*
X63802920Y-49454999D02*
X69454999Y-49454999D01*
X55460000Y-57797919D02*
X63802920Y-49454999D01*
X55460000Y-59000000D02*
X55460000Y-57797919D01*
X67540000Y-70000000D02*
X67540000Y-67540000D01*
X67540000Y-67540000D02*
X64500000Y-64500000D01*
X58460000Y-62000000D02*
X55460000Y-59000000D01*
X61500000Y-62000000D02*
X58460000Y-62000000D01*
%TO.N,Net-(J4-Pad3)*%
X52920000Y-59000000D02*
X51800000Y-57880000D01*
X51800000Y-57880000D02*
X51800000Y-52300000D01*
X50500000Y-51000000D02*
X50000000Y-51000000D01*
X51800000Y-52300000D02*
X50500000Y-51000000D01*
%TO.N,Net-(J5-Pad3)*%
X44889999Y-72824999D02*
X47819997Y-72824999D01*
X47819997Y-72824999D02*
X49494998Y-74500000D01*
X44824999Y-72889999D02*
X44889999Y-72824999D01*
X44824999Y-77104001D02*
X44824999Y-72889999D01*
X49494998Y-74500000D02*
X52460000Y-74500000D01*
X45435999Y-77715001D02*
X44824999Y-77104001D01*
X46538591Y-77715001D02*
X45435999Y-77715001D01*
X49500000Y-80676410D02*
X46538591Y-77715001D01*
X49500000Y-83000000D02*
X49500000Y-80676410D01*
%TO.N,Net-(J5-Pad2)*%
X70500000Y-83960000D02*
X67540000Y-81000000D01*
X70500000Y-93000000D02*
X70500000Y-83960000D01*
%TO.N,Net-(J5-Pad1)*%
X61500000Y-70540000D02*
X57540000Y-74500000D01*
X61500000Y-68500000D02*
X61500000Y-70540000D01*
%TO.N,DAC_A*%
X60045002Y-93620000D02*
X57500000Y-93620000D01*
X62125001Y-91540001D02*
X60045002Y-93620000D01*
X62125001Y-87959999D02*
X62125001Y-91540001D01*
X56364999Y-82199997D02*
X62125001Y-87959999D01*
X56364999Y-70295001D02*
X56364999Y-82199997D01*
X61500000Y-65160000D02*
X56364999Y-70295001D01*
%TO.N,DAC_B*%
X52420000Y-93620000D02*
X58000000Y-88040000D01*
X58000000Y-88040000D02*
X58000000Y-88000000D01*
X61500000Y-84500000D02*
X61500000Y-78660000D01*
X61000000Y-85000000D02*
X61500000Y-84500000D01*
D25*
%TO.N,VSS*%
X75200000Y-40100000D02*
X71900000Y-36800000D01*
X71900000Y-36800000D02*
X68500000Y-36800000D01*
X68500000Y-36800000D02*
X65200000Y-40100000D01*
D24*
%TO.N,Net-(Q1-Pad2)*%
X58870000Y-43800000D02*
X58870000Y-42800000D01*
X57870000Y-44800000D02*
X58870000Y-43800000D01*
X54100000Y-44800000D02*
X57870000Y-44800000D01*
%TO.N,Net-(J8-Pad1)*%
X80200000Y-41900000D02*
X80200000Y-40100000D01*
X60140000Y-42800000D02*
X79300000Y-42800000D01*
X79300000Y-42800000D02*
X80200000Y-41900000D01*
%TD*%
D26*
%TO.N,GND*%
G36*
X83893425Y-35842907D02*
G01*
X83540270Y-36371442D01*
X83297012Y-36958719D01*
X83173000Y-37582168D01*
X83173000Y-38217832D01*
X83297012Y-38841281D01*
X83540270Y-39428558D01*
X83893425Y-39957093D01*
X84342907Y-40406575D01*
X84871442Y-40759730D01*
X85458719Y-41002988D01*
X86082168Y-41127000D01*
X86717832Y-41127000D01*
X87341281Y-41002988D01*
X87928558Y-40759730D01*
X88457093Y-40406575D01*
X88840001Y-40023667D01*
X88840000Y-95467721D01*
X88830420Y-95565424D01*
X88811420Y-95628357D01*
X88780554Y-95686406D01*
X88739011Y-95737343D01*
X88688356Y-95779248D01*
X88630529Y-95810515D01*
X88567728Y-95829956D01*
X88472165Y-95840000D01*
X41523668Y-95840000D01*
X41906575Y-95457093D01*
X42259730Y-94928558D01*
X42502988Y-94341281D01*
X42627000Y-93717832D01*
X42627000Y-93082168D01*
X42502988Y-92458719D01*
X42259730Y-91871442D01*
X41906575Y-91342907D01*
X41457093Y-90893425D01*
X40928558Y-90540270D01*
X40341281Y-90297012D01*
X39717832Y-90173000D01*
X39082168Y-90173000D01*
X38458719Y-90297012D01*
X37871442Y-90540270D01*
X37342907Y-90893425D01*
X37027000Y-91209332D01*
X37027000Y-72889999D01*
X44061323Y-72889999D01*
X44065000Y-72927331D01*
X44064999Y-77066678D01*
X44061323Y-77104001D01*
X44064999Y-77141323D01*
X44064999Y-77141333D01*
X44075996Y-77252986D01*
X44117048Y-77388320D01*
X44119453Y-77396247D01*
X44190025Y-77528277D01*
X44220995Y-77566014D01*
X44284998Y-77644002D01*
X44314001Y-77667804D01*
X44819704Y-78173509D01*
X44684010Y-78376589D01*
X44572068Y-78646842D01*
X44515000Y-78933740D01*
X44515000Y-79226260D01*
X44558791Y-79446408D01*
X44314002Y-79691197D01*
X44284998Y-79715000D01*
X44236056Y-79774637D01*
X44190025Y-79830725D01*
X44160820Y-79885363D01*
X44119453Y-79962755D01*
X44075996Y-80106016D01*
X44064999Y-80217669D01*
X44064999Y-80217679D01*
X44061323Y-80255001D01*
X44064999Y-80292324D01*
X44065000Y-84686669D01*
X44061323Y-84724001D01*
X44065000Y-84761334D01*
X44075997Y-84872987D01*
X44083603Y-84898061D01*
X44119453Y-85016247D01*
X44190025Y-85148277D01*
X44261200Y-85235003D01*
X44284999Y-85264002D01*
X44313997Y-85287800D01*
X44827013Y-85800817D01*
X44728359Y-85933080D01*
X44603175Y-86195901D01*
X44558524Y-86343110D01*
X44679845Y-86573000D01*
X45873000Y-86573000D01*
X45873000Y-86553000D01*
X46127000Y-86553000D01*
X46127000Y-86573000D01*
X46147000Y-86573000D01*
X46147000Y-86827000D01*
X46127000Y-86827000D01*
X46127000Y-86847000D01*
X45873000Y-86847000D01*
X45873000Y-86827000D01*
X44679845Y-86827000D01*
X44558524Y-87056890D01*
X44603175Y-87204099D01*
X44728359Y-87466920D01*
X44902412Y-87700269D01*
X45118645Y-87895178D01*
X45235534Y-87964805D01*
X45053368Y-88086525D01*
X44846525Y-88293368D01*
X44684010Y-88536589D01*
X44572068Y-88806842D01*
X44515000Y-89093740D01*
X44515000Y-89386260D01*
X44572068Y-89673158D01*
X44684010Y-89943411D01*
X44846525Y-90186632D01*
X45053368Y-90393475D01*
X45296589Y-90555990D01*
X45566842Y-90667932D01*
X45853740Y-90725000D01*
X46146260Y-90725000D01*
X46433158Y-90667932D01*
X46703411Y-90555990D01*
X46946632Y-90393475D01*
X47153475Y-90186632D01*
X47315990Y-89943411D01*
X47427932Y-89673158D01*
X47485000Y-89386260D01*
X47485000Y-89093740D01*
X47427932Y-88806842D01*
X47315990Y-88536589D01*
X47153475Y-88293368D01*
X46946632Y-88086525D01*
X46764466Y-87964805D01*
X46881355Y-87895178D01*
X47097588Y-87700269D01*
X47271641Y-87466920D01*
X47323095Y-87358894D01*
X49120000Y-89155800D01*
X49120001Y-92401956D01*
X48965241Y-92505363D01*
X48765363Y-92705241D01*
X48608320Y-92940273D01*
X48500147Y-93201426D01*
X48445000Y-93478665D01*
X48445000Y-93761335D01*
X48500147Y-94038574D01*
X48608320Y-94299727D01*
X48765363Y-94534759D01*
X48965241Y-94734637D01*
X49200273Y-94891680D01*
X49461426Y-94999853D01*
X49738665Y-95055000D01*
X50021335Y-95055000D01*
X50298574Y-94999853D01*
X50559727Y-94891680D01*
X50794759Y-94734637D01*
X50994637Y-94534759D01*
X51150000Y-94302241D01*
X51305363Y-94534759D01*
X51505241Y-94734637D01*
X51740273Y-94891680D01*
X52001426Y-94999853D01*
X52278665Y-95055000D01*
X52561335Y-95055000D01*
X52838574Y-94999853D01*
X53099727Y-94891680D01*
X53334759Y-94734637D01*
X53534637Y-94534759D01*
X53691680Y-94299727D01*
X53696067Y-94289135D01*
X53807615Y-94475131D01*
X53996586Y-94683519D01*
X54222580Y-94851037D01*
X54476913Y-94971246D01*
X54610961Y-95011904D01*
X54833000Y-94889915D01*
X54833000Y-93747000D01*
X54813000Y-93747000D01*
X54813000Y-93493000D01*
X54833000Y-93493000D01*
X54833000Y-92350085D01*
X54788929Y-92325872D01*
X56044289Y-91070512D01*
X59559783Y-91070512D01*
X59601213Y-91350130D01*
X59696397Y-91616292D01*
X59763329Y-91741514D01*
X60007298Y-91813097D01*
X60820395Y-91000000D01*
X60007298Y-90186903D01*
X59763329Y-90258486D01*
X59642429Y-90513996D01*
X59573700Y-90788184D01*
X59559783Y-91070512D01*
X56044289Y-91070512D01*
X58079802Y-89035000D01*
X58101939Y-89035000D01*
X58301898Y-88995226D01*
X58490256Y-88917205D01*
X58659774Y-88803937D01*
X58803937Y-88659774D01*
X58917205Y-88490256D01*
X58995226Y-88301898D01*
X59035000Y-88101939D01*
X59035000Y-87898061D01*
X58995226Y-87698102D01*
X58917205Y-87509744D01*
X58881488Y-87456289D01*
X59601312Y-88176114D01*
X59565000Y-88358665D01*
X59565000Y-88641335D01*
X59620147Y-88918574D01*
X59728320Y-89179727D01*
X59885363Y-89414759D01*
X60085241Y-89614637D01*
X60285869Y-89748692D01*
X60258486Y-89763329D01*
X60186903Y-90007298D01*
X61000000Y-90820395D01*
X61014143Y-90806253D01*
X61193748Y-90985858D01*
X61179605Y-91000000D01*
X61193748Y-91014143D01*
X61014143Y-91193748D01*
X61000000Y-91179605D01*
X60186903Y-91992702D01*
X60258486Y-92236671D01*
X60323002Y-92267198D01*
X59730201Y-92860000D01*
X58718043Y-92860000D01*
X58614637Y-92705241D01*
X58414759Y-92505363D01*
X58179727Y-92348320D01*
X57918574Y-92240147D01*
X57641335Y-92185000D01*
X57358665Y-92185000D01*
X57081426Y-92240147D01*
X56820273Y-92348320D01*
X56585241Y-92505363D01*
X56385363Y-92705241D01*
X56228320Y-92940273D01*
X56223933Y-92950865D01*
X56112385Y-92764869D01*
X55923414Y-92556481D01*
X55697420Y-92388963D01*
X55443087Y-92268754D01*
X55309039Y-92228096D01*
X55087000Y-92350085D01*
X55087000Y-93493000D01*
X55107000Y-93493000D01*
X55107000Y-93747000D01*
X55087000Y-93747000D01*
X55087000Y-94889915D01*
X55309039Y-95011904D01*
X55443087Y-94971246D01*
X55697420Y-94851037D01*
X55923414Y-94683519D01*
X56112385Y-94475131D01*
X56223933Y-94289135D01*
X56228320Y-94299727D01*
X56385363Y-94534759D01*
X56585241Y-94734637D01*
X56820273Y-94891680D01*
X57081426Y-94999853D01*
X57358665Y-95055000D01*
X57641335Y-95055000D01*
X57918574Y-94999853D01*
X58179727Y-94891680D01*
X58414759Y-94734637D01*
X58614637Y-94534759D01*
X58718043Y-94380000D01*
X60007680Y-94380000D01*
X60045002Y-94383676D01*
X60082324Y-94380000D01*
X60082335Y-94380000D01*
X60193988Y-94369003D01*
X60337249Y-94325546D01*
X60469278Y-94254974D01*
X60585003Y-94160001D01*
X60608806Y-94130997D01*
X62636004Y-92103800D01*
X62665002Y-92080002D01*
X62759975Y-91964277D01*
X62830547Y-91832248D01*
X62874004Y-91688987D01*
X62885001Y-91577334D01*
X62885001Y-91577326D01*
X62888677Y-91540001D01*
X62885001Y-91502676D01*
X62885001Y-88999802D01*
X65530198Y-91645000D01*
X65286544Y-91645000D01*
X65024761Y-91697072D01*
X64778167Y-91799215D01*
X64556238Y-91947503D01*
X64367503Y-92136238D01*
X64219215Y-92358167D01*
X64117072Y-92604761D01*
X64065000Y-92866544D01*
X64065000Y-93133456D01*
X64117072Y-93395239D01*
X64219215Y-93641833D01*
X64367503Y-93863762D01*
X64556238Y-94052497D01*
X64778167Y-94200785D01*
X65024761Y-94302928D01*
X65286544Y-94355000D01*
X65553456Y-94355000D01*
X65815239Y-94302928D01*
X66061833Y-94200785D01*
X66283762Y-94052497D01*
X66472497Y-93863762D01*
X66620785Y-93641833D01*
X66690000Y-93474734D01*
X66759215Y-93641833D01*
X66907503Y-93863762D01*
X67096238Y-94052497D01*
X67318167Y-94200785D01*
X67564761Y-94302928D01*
X67826544Y-94355000D01*
X68093456Y-94355000D01*
X68215852Y-94330654D01*
X68441202Y-94556004D01*
X68465000Y-94585002D01*
X68493998Y-94608800D01*
X68580725Y-94679975D01*
X68712754Y-94750547D01*
X68856015Y-94794004D01*
X69005001Y-94808678D01*
X69042334Y-94805001D01*
X80964279Y-94805001D01*
X81001601Y-94808677D01*
X81038923Y-94805001D01*
X81038934Y-94805001D01*
X81150587Y-94794004D01*
X81293848Y-94750547D01*
X81425877Y-94679975D01*
X81541602Y-94585002D01*
X81565405Y-94555998D01*
X86011004Y-90110400D01*
X86040001Y-90086603D01*
X86105085Y-90007298D01*
X86134974Y-89970879D01*
X86205546Y-89838849D01*
X86236646Y-89736323D01*
X86249003Y-89695588D01*
X86260000Y-89583935D01*
X86260000Y-89583925D01*
X86263676Y-89546602D01*
X86260000Y-89509279D01*
X86260000Y-86308245D01*
X86462569Y-86172893D01*
X86672893Y-85962569D01*
X86838144Y-85715253D01*
X86951971Y-85440451D01*
X87010000Y-85148722D01*
X87010000Y-84851278D01*
X86951971Y-84559549D01*
X86838144Y-84284747D01*
X86672893Y-84037431D01*
X86462569Y-83827107D01*
X86309407Y-83724768D01*
X86366635Y-83546240D01*
X85500000Y-82679605D01*
X84633365Y-83546240D01*
X84690593Y-83724768D01*
X84537431Y-83827107D01*
X84327107Y-84037431D01*
X84161856Y-84284747D01*
X84048029Y-84559549D01*
X83990000Y-84851278D01*
X83990000Y-85148722D01*
X84048029Y-85440451D01*
X84161856Y-85715253D01*
X84327107Y-85962569D01*
X84537431Y-86172893D01*
X84740001Y-86308246D01*
X84740000Y-89231800D01*
X81665877Y-92305924D01*
X81552497Y-92136238D01*
X81363762Y-91947503D01*
X81260000Y-91878172D01*
X81260000Y-90537322D01*
X81263676Y-90499999D01*
X81260000Y-90462676D01*
X81260000Y-90462667D01*
X81249003Y-90351014D01*
X81205546Y-90207753D01*
X81134974Y-90075724D01*
X81120104Y-90057605D01*
X81063799Y-89988996D01*
X81063795Y-89988992D01*
X81040001Y-89959999D01*
X81011008Y-89936205D01*
X78398688Y-87323886D01*
X78435000Y-87141335D01*
X78435000Y-86858665D01*
X78379853Y-86581426D01*
X78271680Y-86320273D01*
X78114637Y-86085241D01*
X77914759Y-85885363D01*
X77679727Y-85728320D01*
X77418574Y-85620147D01*
X77141335Y-85565000D01*
X76858665Y-85565000D01*
X76581426Y-85620147D01*
X76320273Y-85728320D01*
X76085241Y-85885363D01*
X75885363Y-86085241D01*
X75728320Y-86320273D01*
X75620147Y-86581426D01*
X75580000Y-86783256D01*
X75539853Y-86581426D01*
X75431680Y-86320273D01*
X75274637Y-86085241D01*
X75074759Y-85885363D01*
X74920000Y-85781957D01*
X74920000Y-85109396D01*
X75114637Y-84914759D01*
X75271680Y-84679727D01*
X75379853Y-84418574D01*
X75435000Y-84141335D01*
X75435000Y-83858665D01*
X75379853Y-83581426D01*
X75271680Y-83320273D01*
X75114637Y-83085241D01*
X74914759Y-82885363D01*
X74679727Y-82728320D01*
X74418574Y-82620147D01*
X74141335Y-82565000D01*
X73858665Y-82565000D01*
X73676114Y-82601312D01*
X73327755Y-82252953D01*
X73534759Y-82114637D01*
X73734637Y-81914759D01*
X73891680Y-81679727D01*
X73999853Y-81418574D01*
X74055000Y-81141335D01*
X74055000Y-80858665D01*
X73999853Y-80581426D01*
X73891680Y-80320273D01*
X73734637Y-80085241D01*
X73534759Y-79885363D01*
X73299727Y-79728320D01*
X73038574Y-79620147D01*
X72761335Y-79565000D01*
X72478665Y-79565000D01*
X72254999Y-79609491D01*
X72254999Y-74832324D01*
X72258675Y-74794999D01*
X72255952Y-74767352D01*
X72270961Y-74771904D01*
X72493000Y-74649915D01*
X72493000Y-73507000D01*
X72747000Y-73507000D01*
X72747000Y-74649915D01*
X72969039Y-74771904D01*
X73103087Y-74731246D01*
X73357420Y-74611037D01*
X73583414Y-74443519D01*
X73772385Y-74235131D01*
X73917070Y-73993881D01*
X74011909Y-73729040D01*
X73890624Y-73507000D01*
X72747000Y-73507000D01*
X72493000Y-73507000D01*
X72473000Y-73507000D01*
X72473000Y-73253000D01*
X72493000Y-73253000D01*
X72493000Y-73233000D01*
X72747000Y-73233000D01*
X72747000Y-73253000D01*
X73890624Y-73253000D01*
X74011909Y-73030960D01*
X74006193Y-73014999D01*
X74440198Y-73014999D01*
X76834921Y-75409723D01*
X76581426Y-75460147D01*
X76320273Y-75568320D01*
X76085241Y-75725363D01*
X75885363Y-75925241D01*
X75728320Y-76160273D01*
X75620147Y-76421426D01*
X75565000Y-76698665D01*
X75565000Y-76981335D01*
X75620147Y-77258574D01*
X75728320Y-77519727D01*
X75885363Y-77754759D01*
X76085241Y-77954637D01*
X76320273Y-78111680D01*
X76581426Y-78219853D01*
X76858665Y-78275000D01*
X77141335Y-78275000D01*
X77418574Y-78219853D01*
X77679727Y-78111680D01*
X77914759Y-77954637D01*
X78114637Y-77754759D01*
X78271680Y-77519727D01*
X78379853Y-77258574D01*
X78430277Y-77005079D01*
X81936205Y-80511008D01*
X81959999Y-80540001D01*
X81988992Y-80563795D01*
X81988996Y-80563799D01*
X82059685Y-80621811D01*
X82075724Y-80634974D01*
X82207753Y-80705546D01*
X82351014Y-80749003D01*
X82462667Y-80760000D01*
X82462676Y-80760000D01*
X82499999Y-80763676D01*
X82537322Y-80760000D01*
X83986928Y-80760000D01*
X83986928Y-80875000D01*
X83999188Y-80999482D01*
X84035498Y-81119180D01*
X84094463Y-81229494D01*
X84173815Y-81326185D01*
X84270506Y-81405537D01*
X84380820Y-81464502D01*
X84388302Y-81466772D01*
X84337733Y-81517341D01*
X84453758Y-81633366D01*
X84202132Y-81714025D01*
X84073733Y-81982329D01*
X84000145Y-82270526D01*
X83984196Y-82567543D01*
X84026499Y-82861963D01*
X84125428Y-83142474D01*
X84202132Y-83285975D01*
X84453760Y-83366635D01*
X85320395Y-82500000D01*
X85306253Y-82485858D01*
X85485858Y-82306253D01*
X85500000Y-82320395D01*
X85514143Y-82306253D01*
X85693748Y-82485858D01*
X85679605Y-82500000D01*
X86546240Y-83366635D01*
X86797868Y-83285975D01*
X86926267Y-83017671D01*
X86999855Y-82729474D01*
X87015804Y-82432457D01*
X86973501Y-82138037D01*
X86874572Y-81857526D01*
X86797868Y-81714025D01*
X86546242Y-81633366D01*
X86662267Y-81517341D01*
X86611698Y-81466772D01*
X86619180Y-81464502D01*
X86729494Y-81405537D01*
X86826185Y-81326185D01*
X86905537Y-81229494D01*
X86964502Y-81119180D01*
X87000812Y-80999482D01*
X87013072Y-80875000D01*
X87013072Y-79125000D01*
X87000812Y-79000518D01*
X86964502Y-78880820D01*
X86905537Y-78770506D01*
X86826185Y-78673815D01*
X86729494Y-78594463D01*
X86619180Y-78535498D01*
X86499482Y-78499188D01*
X86375000Y-78486928D01*
X84625000Y-78486928D01*
X84500518Y-78499188D01*
X84380820Y-78535498D01*
X84270506Y-78594463D01*
X84173815Y-78673815D01*
X84094463Y-78770506D01*
X84035498Y-78880820D01*
X83999188Y-79000518D01*
X83986928Y-79125000D01*
X83986928Y-79240000D01*
X82814803Y-79240000D01*
X75459802Y-71885001D01*
X78337677Y-71885001D01*
X78374999Y-71888677D01*
X78412321Y-71885001D01*
X78412332Y-71885001D01*
X78523985Y-71874004D01*
X78667246Y-71830547D01*
X78799275Y-71759975D01*
X78915000Y-71665002D01*
X78938803Y-71635998D01*
X85112332Y-65462470D01*
X85351278Y-65510000D01*
X85648722Y-65510000D01*
X85940451Y-65451971D01*
X86215253Y-65338144D01*
X86462569Y-65172893D01*
X86672893Y-64962569D01*
X86838144Y-64715253D01*
X86951971Y-64440451D01*
X87010000Y-64148722D01*
X87010000Y-63851278D01*
X86951971Y-63559549D01*
X86838144Y-63284747D01*
X86672893Y-63037431D01*
X86462569Y-62827107D01*
X86309407Y-62724768D01*
X86366635Y-62546240D01*
X85500000Y-61679605D01*
X84633365Y-62546240D01*
X84690593Y-62724768D01*
X84537431Y-62827107D01*
X84327107Y-63037431D01*
X84161856Y-63284747D01*
X84048029Y-63559549D01*
X83990000Y-63851278D01*
X83990000Y-64148722D01*
X84037530Y-64387668D01*
X78060198Y-70365001D01*
X74010509Y-70365001D01*
X74055000Y-70141335D01*
X74055000Y-69858665D01*
X73999853Y-69581426D01*
X73891680Y-69320273D01*
X73734637Y-69085241D01*
X73534759Y-68885363D01*
X73299727Y-68728320D01*
X73038574Y-68620147D01*
X72968578Y-68606224D01*
X75039802Y-66535000D01*
X75101939Y-66535000D01*
X75301898Y-66495226D01*
X75490256Y-66417205D01*
X75576576Y-66359528D01*
X75620147Y-66578574D01*
X75728320Y-66839727D01*
X75885363Y-67074759D01*
X76085241Y-67274637D01*
X76320273Y-67431680D01*
X76581426Y-67539853D01*
X76858665Y-67595000D01*
X77141335Y-67595000D01*
X77418574Y-67539853D01*
X77679727Y-67431680D01*
X77914759Y-67274637D01*
X78114637Y-67074759D01*
X78271680Y-66839727D01*
X78379853Y-66578574D01*
X78435000Y-66301335D01*
X78435000Y-66018665D01*
X78379853Y-65741426D01*
X78271680Y-65480273D01*
X78114637Y-65245241D01*
X77914759Y-65045363D01*
X77679727Y-64888320D01*
X77418574Y-64780147D01*
X77141335Y-64725000D01*
X76858665Y-64725000D01*
X76581426Y-64780147D01*
X76320273Y-64888320D01*
X76085241Y-65045363D01*
X75976854Y-65153750D01*
X75917205Y-65009744D01*
X75803937Y-64840226D01*
X75659774Y-64696063D01*
X75490256Y-64582795D01*
X75301898Y-64504774D01*
X75202492Y-64485001D01*
X80737677Y-64485001D01*
X80774999Y-64488677D01*
X80812321Y-64485001D01*
X80812332Y-64485001D01*
X80923985Y-64474004D01*
X81067246Y-64430547D01*
X81199275Y-64359975D01*
X81315000Y-64265002D01*
X81338803Y-64235998D01*
X83987093Y-61587709D01*
X84026499Y-61861963D01*
X84125428Y-62142474D01*
X84202132Y-62285975D01*
X84453760Y-62366635D01*
X85320395Y-61500000D01*
X85306253Y-61485858D01*
X85485858Y-61306253D01*
X85500000Y-61320395D01*
X85514143Y-61306253D01*
X85693748Y-61485858D01*
X85679605Y-61500000D01*
X86546240Y-62366635D01*
X86797868Y-62285975D01*
X86926267Y-62017671D01*
X86999855Y-61729474D01*
X87015804Y-61432457D01*
X86973501Y-61138037D01*
X86874572Y-60857526D01*
X86797868Y-60714025D01*
X86546242Y-60633366D01*
X86662267Y-60517341D01*
X86611698Y-60466772D01*
X86619180Y-60464502D01*
X86729494Y-60405537D01*
X86826185Y-60326185D01*
X86905537Y-60229494D01*
X86964502Y-60119180D01*
X87000812Y-59999482D01*
X87013072Y-59875000D01*
X87013072Y-58125000D01*
X87000812Y-58000518D01*
X86964502Y-57880820D01*
X86905537Y-57770506D01*
X86826185Y-57673815D01*
X86729494Y-57594463D01*
X86619180Y-57535498D01*
X86499482Y-57499188D01*
X86375000Y-57486928D01*
X84625000Y-57486928D01*
X84500518Y-57499188D01*
X84380820Y-57535498D01*
X84270506Y-57594463D01*
X84173815Y-57673815D01*
X84094463Y-57770506D01*
X84035498Y-57880820D01*
X83999188Y-58000518D01*
X83986928Y-58125000D01*
X83986928Y-59438269D01*
X80460198Y-62965001D01*
X76109801Y-62965001D01*
X76386007Y-62688796D01*
X76415000Y-62665002D01*
X76438794Y-62636009D01*
X76438798Y-62636005D01*
X76509972Y-62549278D01*
X76515010Y-62539853D01*
X76580545Y-62417248D01*
X76624002Y-62273987D01*
X76634999Y-62162334D01*
X76634999Y-62162325D01*
X76638675Y-62125002D01*
X76634999Y-62087679D01*
X76634999Y-57390509D01*
X76858665Y-57435000D01*
X77141335Y-57435000D01*
X77418574Y-57379853D01*
X77679727Y-57271680D01*
X77914759Y-57114637D01*
X78114637Y-56914759D01*
X78271680Y-56679727D01*
X78379853Y-56418574D01*
X78435000Y-56141335D01*
X78435000Y-55858665D01*
X78398688Y-55676114D01*
X81011008Y-53063795D01*
X81040001Y-53040001D01*
X81063795Y-53011008D01*
X81063799Y-53011004D01*
X81134973Y-52924277D01*
X81134974Y-52924276D01*
X81205546Y-52792247D01*
X81249003Y-52648986D01*
X81260000Y-52537333D01*
X81260000Y-52537324D01*
X81263676Y-52500001D01*
X81260000Y-52462678D01*
X81260000Y-51621828D01*
X81363762Y-51552497D01*
X81552497Y-51363762D01*
X81700785Y-51141833D01*
X81802928Y-50895239D01*
X81855000Y-50633456D01*
X81855000Y-50366544D01*
X81802928Y-50104761D01*
X81700785Y-49858167D01*
X81552497Y-49636238D01*
X81363762Y-49447503D01*
X81141833Y-49299215D01*
X80895239Y-49197072D01*
X80633456Y-49145000D01*
X80366544Y-49145000D01*
X80104761Y-49197072D01*
X79858167Y-49299215D01*
X79636238Y-49447503D01*
X79447503Y-49636238D01*
X79299215Y-49858167D01*
X79230000Y-50025266D01*
X79160785Y-49858167D01*
X79012497Y-49636238D01*
X78823762Y-49447503D01*
X78601833Y-49299215D01*
X78355239Y-49197072D01*
X78093456Y-49145000D01*
X77826544Y-49145000D01*
X77564761Y-49197072D01*
X77318167Y-49299215D01*
X77096238Y-49447503D01*
X76907503Y-49636238D01*
X76759215Y-49858167D01*
X76689562Y-50026324D01*
X76647875Y-49911647D01*
X76591368Y-49805932D01*
X76355560Y-49744045D01*
X75599605Y-50500000D01*
X75613748Y-50514143D01*
X75434143Y-50693748D01*
X75420000Y-50679605D01*
X74664045Y-51435560D01*
X74725932Y-51671368D01*
X74967790Y-51784266D01*
X75227027Y-51847811D01*
X75493680Y-51859561D01*
X75531433Y-51853766D01*
X75364002Y-52021197D01*
X75334998Y-52045000D01*
X75309783Y-52075725D01*
X75240025Y-52160725D01*
X75180718Y-52271680D01*
X75169453Y-52292755D01*
X75125996Y-52436016D01*
X75114999Y-52547669D01*
X75114999Y-52547679D01*
X75111323Y-52585001D01*
X75114999Y-52622323D01*
X75114999Y-55585783D01*
X75114637Y-55585241D01*
X74914759Y-55385363D01*
X74679727Y-55228320D01*
X74418574Y-55120147D01*
X74141335Y-55065000D01*
X73858665Y-55065000D01*
X73581426Y-55120147D01*
X73320273Y-55228320D01*
X73085241Y-55385363D01*
X72885363Y-55585241D01*
X72728320Y-55820273D01*
X72620147Y-56081426D01*
X72565000Y-56358665D01*
X72565000Y-56641335D01*
X72620147Y-56918574D01*
X72728320Y-57179727D01*
X72885363Y-57414759D01*
X73085241Y-57614637D01*
X73320273Y-57771680D01*
X73400001Y-57804704D01*
X73400000Y-58281956D01*
X73245241Y-58385363D01*
X73045363Y-58585241D01*
X72943315Y-58737967D01*
X72922676Y-58740000D01*
X72922667Y-58740000D01*
X72811014Y-58750997D01*
X72675032Y-58792246D01*
X72667753Y-58794454D01*
X72535723Y-58865026D01*
X72452083Y-58933668D01*
X72419999Y-58959999D01*
X72396201Y-58988997D01*
X70403886Y-60981312D01*
X70221335Y-60945000D01*
X69938665Y-60945000D01*
X69661426Y-61000147D01*
X69400273Y-61108320D01*
X69165241Y-61265363D01*
X68965363Y-61465241D01*
X68810000Y-61697759D01*
X68654637Y-61465241D01*
X68454759Y-61265363D01*
X68219727Y-61108320D01*
X67958574Y-61000147D01*
X67681335Y-60945000D01*
X67398665Y-60945000D01*
X67121426Y-61000147D01*
X66860273Y-61108320D01*
X66754078Y-61179277D01*
X65398688Y-59823886D01*
X65435000Y-59641335D01*
X65435000Y-59358665D01*
X65379853Y-59081426D01*
X65271680Y-58820273D01*
X65114637Y-58585241D01*
X64914759Y-58385363D01*
X64679727Y-58228320D01*
X64418574Y-58120147D01*
X64141335Y-58065000D01*
X63858665Y-58065000D01*
X63634999Y-58109491D01*
X63634999Y-57922336D01*
X63698665Y-57935000D01*
X63981335Y-57935000D01*
X64258574Y-57879853D01*
X64519727Y-57771680D01*
X64754759Y-57614637D01*
X64954637Y-57414759D01*
X65111680Y-57179727D01*
X65219853Y-56918574D01*
X65275000Y-56641335D01*
X65275000Y-56358665D01*
X65219853Y-56081426D01*
X65111680Y-55820273D01*
X64954637Y-55585241D01*
X64754759Y-55385363D01*
X64600000Y-55281957D01*
X64600000Y-54474801D01*
X67357659Y-51717143D01*
X67564761Y-51802928D01*
X67826544Y-51855000D01*
X68093456Y-51855000D01*
X68355239Y-51802928D01*
X68601833Y-51700785D01*
X68823762Y-51552497D01*
X69012497Y-51363762D01*
X69160785Y-51141833D01*
X69230000Y-50974734D01*
X69299215Y-51141833D01*
X69447503Y-51363762D01*
X69636238Y-51552497D01*
X69858167Y-51700785D01*
X70104761Y-51802928D01*
X70366544Y-51855000D01*
X70633456Y-51855000D01*
X70895239Y-51802928D01*
X71141833Y-51700785D01*
X71363762Y-51552497D01*
X71552497Y-51363762D01*
X71700785Y-51141833D01*
X71802928Y-50895239D01*
X71855000Y-50633456D01*
X71855000Y-50573680D01*
X74060439Y-50573680D01*
X74100937Y-50837501D01*
X74192125Y-51088353D01*
X74248632Y-51194068D01*
X74484440Y-51255955D01*
X75240395Y-50500000D01*
X74484440Y-49744045D01*
X74248632Y-49805932D01*
X74135734Y-50047790D01*
X74072189Y-50307027D01*
X74060439Y-50573680D01*
X71855000Y-50573680D01*
X71855000Y-50366544D01*
X71802928Y-50104761D01*
X71700785Y-49858167D01*
X71552497Y-49636238D01*
X71480699Y-49564440D01*
X74664045Y-49564440D01*
X75420000Y-50320395D01*
X76175955Y-49564440D01*
X76114068Y-49328632D01*
X75872210Y-49215734D01*
X75612973Y-49152189D01*
X75346320Y-49140439D01*
X75082499Y-49180937D01*
X74831647Y-49272125D01*
X74725932Y-49328632D01*
X74664045Y-49564440D01*
X71480699Y-49564440D01*
X71363762Y-49447503D01*
X71141833Y-49299215D01*
X70895239Y-49197072D01*
X70633456Y-49145000D01*
X70366544Y-49145000D01*
X70244147Y-49169346D01*
X70018803Y-48944001D01*
X69995000Y-48914998D01*
X69879275Y-48820025D01*
X69747246Y-48749453D01*
X69603985Y-48705996D01*
X69492332Y-48694999D01*
X69492321Y-48694999D01*
X69454999Y-48691323D01*
X69417677Y-48694999D01*
X63840253Y-48694999D01*
X63802920Y-48691322D01*
X63765587Y-48694999D01*
X63653934Y-48705996D01*
X63510673Y-48749453D01*
X63378644Y-48820025D01*
X63262919Y-48914998D01*
X63239121Y-48943996D01*
X54948998Y-57234120D01*
X54920000Y-57257918D01*
X54896202Y-57286916D01*
X54896201Y-57286917D01*
X54825026Y-57373643D01*
X54754454Y-57505673D01*
X54737824Y-57560498D01*
X54710998Y-57648933D01*
X54706085Y-57698815D01*
X54704088Y-57719090D01*
X54513368Y-57846525D01*
X54306525Y-58053368D01*
X54190000Y-58227760D01*
X54073475Y-58053368D01*
X53866632Y-57846525D01*
X53623411Y-57684010D01*
X53353158Y-57572068D01*
X53066260Y-57515000D01*
X52773740Y-57515000D01*
X52560000Y-57557516D01*
X52560000Y-52337325D01*
X52563676Y-52300000D01*
X52560000Y-52262675D01*
X52560000Y-52262667D01*
X52549003Y-52151014D01*
X52505546Y-52007753D01*
X52434974Y-51875724D01*
X52340001Y-51759999D01*
X52311003Y-51736201D01*
X51435000Y-50860199D01*
X51435000Y-50858665D01*
X51379853Y-50581426D01*
X51271680Y-50320273D01*
X51114637Y-50085241D01*
X50914759Y-49885363D01*
X50679727Y-49728320D01*
X50418574Y-49620147D01*
X50141335Y-49565000D01*
X49858665Y-49565000D01*
X49581426Y-49620147D01*
X49320273Y-49728320D01*
X49085241Y-49885363D01*
X48885363Y-50085241D01*
X48728320Y-50320273D01*
X48620147Y-50581426D01*
X48565000Y-50858665D01*
X48565000Y-51141335D01*
X48620147Y-51418574D01*
X48728320Y-51679727D01*
X48885363Y-51914759D01*
X49085241Y-52114637D01*
X49320273Y-52271680D01*
X49581426Y-52379853D01*
X49858665Y-52435000D01*
X50141335Y-52435000D01*
X50418574Y-52379853D01*
X50679727Y-52271680D01*
X50690009Y-52264810D01*
X51040001Y-52614803D01*
X51040000Y-57842677D01*
X51036324Y-57880000D01*
X51040000Y-57917322D01*
X51040000Y-57917332D01*
X51050997Y-58028985D01*
X51087706Y-58150000D01*
X51094454Y-58172246D01*
X51165026Y-58304276D01*
X51192637Y-58337920D01*
X51259999Y-58420001D01*
X51289002Y-58443804D01*
X51478791Y-58633592D01*
X51435000Y-58853740D01*
X51435000Y-59146260D01*
X51492068Y-59433158D01*
X51604010Y-59703411D01*
X51766525Y-59946632D01*
X51973368Y-60153475D01*
X52216589Y-60315990D01*
X52486842Y-60427932D01*
X52773740Y-60485000D01*
X53066260Y-60485000D01*
X53353158Y-60427932D01*
X53623411Y-60315990D01*
X53866632Y-60153475D01*
X54073475Y-59946632D01*
X54190000Y-59772240D01*
X54306525Y-59946632D01*
X54513368Y-60153475D01*
X54756589Y-60315990D01*
X55026842Y-60427932D01*
X55313740Y-60485000D01*
X55606260Y-60485000D01*
X55826408Y-60441209D01*
X57896201Y-62511003D01*
X57919999Y-62540001D01*
X58035724Y-62634974D01*
X58167753Y-62705546D01*
X58311014Y-62749003D01*
X58422667Y-62760000D01*
X58422675Y-62760000D01*
X58460000Y-62763676D01*
X58497325Y-62760000D01*
X60796289Y-62760000D01*
X60840226Y-62803937D01*
X61009744Y-62917205D01*
X61198102Y-62995226D01*
X61398061Y-63035000D01*
X61601939Y-63035000D01*
X61801898Y-62995226D01*
X61990256Y-62917205D01*
X62115000Y-62833854D01*
X62115000Y-63861509D01*
X61918574Y-63780147D01*
X61641335Y-63725000D01*
X61358665Y-63725000D01*
X61081426Y-63780147D01*
X60820273Y-63888320D01*
X60585241Y-64045363D01*
X60385363Y-64245241D01*
X60228320Y-64480273D01*
X60120147Y-64741426D01*
X60065000Y-65018665D01*
X60065000Y-65301335D01*
X60101312Y-65483886D01*
X55854002Y-69731197D01*
X55824998Y-69755000D01*
X55783943Y-69805026D01*
X55730025Y-69870725D01*
X55725146Y-69879853D01*
X55659453Y-70002755D01*
X55615996Y-70146016D01*
X55604999Y-70257669D01*
X55604999Y-70257679D01*
X55601323Y-70295001D01*
X55604999Y-70332323D01*
X55604999Y-73143247D01*
X55433158Y-73072068D01*
X55146260Y-73015000D01*
X54853740Y-73015000D01*
X54566842Y-73072068D01*
X54296589Y-73184010D01*
X54053368Y-73346525D01*
X53846525Y-73553368D01*
X53730000Y-73727760D01*
X53613475Y-73553368D01*
X53406632Y-73346525D01*
X53163411Y-73184010D01*
X52893158Y-73072068D01*
X52606260Y-73015000D01*
X52313740Y-73015000D01*
X52026842Y-73072068D01*
X51756589Y-73184010D01*
X51513368Y-73346525D01*
X51306525Y-73553368D01*
X51181822Y-73740000D01*
X50624499Y-73740000D01*
X50771680Y-73519727D01*
X50879853Y-73258574D01*
X50935000Y-72981335D01*
X50935000Y-72698665D01*
X50898688Y-72516114D01*
X52411003Y-71003799D01*
X52440001Y-70980001D01*
X52534974Y-70864276D01*
X52605546Y-70732247D01*
X52649003Y-70588986D01*
X52660000Y-70477333D01*
X52663677Y-70440000D01*
X52660000Y-70402667D01*
X52660000Y-66834290D01*
X52756927Y-66782481D01*
X52990661Y-66590661D01*
X53182481Y-66356927D01*
X53325017Y-66090261D01*
X53412790Y-65800913D01*
X53435000Y-65575408D01*
X53435000Y-64424592D01*
X53412790Y-64199087D01*
X53325017Y-63909739D01*
X53182481Y-63643073D01*
X52990661Y-63409339D01*
X52756926Y-63217519D01*
X52490260Y-63074983D01*
X52200912Y-62987210D01*
X51900000Y-62957573D01*
X51599087Y-62987210D01*
X51309739Y-63074983D01*
X51043073Y-63217519D01*
X50809339Y-63409339D01*
X50617519Y-63643074D01*
X50474983Y-63909740D01*
X50387210Y-64199088D01*
X50365000Y-64424593D01*
X50365000Y-65575408D01*
X50387210Y-65800913D01*
X50474983Y-66090261D01*
X50617519Y-66356927D01*
X50809340Y-66590661D01*
X51043074Y-66782481D01*
X51140000Y-66834289D01*
X51140001Y-70125197D01*
X49823886Y-71441312D01*
X49641335Y-71405000D01*
X49358665Y-71405000D01*
X49081426Y-71460147D01*
X48820273Y-71568320D01*
X48585241Y-71725363D01*
X48385363Y-71925241D01*
X48228320Y-72160273D01*
X48221122Y-72177650D01*
X48112244Y-72119453D01*
X47968983Y-72075996D01*
X47857330Y-72064999D01*
X47857319Y-72064999D01*
X47819997Y-72061323D01*
X47782675Y-72064999D01*
X44927322Y-72064999D01*
X44889999Y-72061323D01*
X44852677Y-72064999D01*
X44852666Y-72064999D01*
X44741013Y-72075996D01*
X44597752Y-72119453D01*
X44465723Y-72190025D01*
X44349998Y-72284998D01*
X44326195Y-72314002D01*
X44313997Y-72326200D01*
X44284999Y-72349998D01*
X44261201Y-72378996D01*
X44261200Y-72378997D01*
X44190025Y-72465723D01*
X44119453Y-72597753D01*
X44075997Y-72741014D01*
X44061323Y-72889999D01*
X37027000Y-72889999D01*
X37027000Y-67127000D01*
X42465000Y-67127000D01*
X42465000Y-67627000D01*
X42519271Y-67924023D01*
X42630446Y-68204751D01*
X42794252Y-68458396D01*
X43004394Y-68675210D01*
X43252796Y-68846862D01*
X43529913Y-68966755D01*
X43635260Y-68991036D01*
X43873000Y-68870378D01*
X43873000Y-67127000D01*
X44127000Y-67127000D01*
X44127000Y-68870378D01*
X44364740Y-68991036D01*
X44470087Y-68966755D01*
X44747204Y-68846862D01*
X44995606Y-68675210D01*
X45205748Y-68458396D01*
X45369554Y-68204751D01*
X45480729Y-67924023D01*
X45535000Y-67627000D01*
X45535000Y-67127000D01*
X44127000Y-67127000D01*
X43873000Y-67127000D01*
X42465000Y-67127000D01*
X37027000Y-67127000D01*
X37027000Y-66373000D01*
X42465000Y-66373000D01*
X42465000Y-66873000D01*
X43873000Y-66873000D01*
X43873000Y-65129622D01*
X44127000Y-65129622D01*
X44127000Y-66873000D01*
X45535000Y-66873000D01*
X45535000Y-66775855D01*
X45543074Y-66782481D01*
X45809740Y-66925017D01*
X46099088Y-67012790D01*
X46400000Y-67042427D01*
X46700913Y-67012790D01*
X46990261Y-66925017D01*
X47256927Y-66782481D01*
X47490661Y-66590661D01*
X47682481Y-66356927D01*
X47825017Y-66090261D01*
X47912790Y-65800913D01*
X47935000Y-65575408D01*
X47935000Y-64424592D01*
X47923811Y-64310990D01*
X49676114Y-62558688D01*
X49858665Y-62595000D01*
X50141335Y-62595000D01*
X50418574Y-62539853D01*
X50679727Y-62431680D01*
X50914759Y-62274637D01*
X51114637Y-62074759D01*
X51271680Y-61839727D01*
X51379853Y-61578574D01*
X51435000Y-61301335D01*
X51435000Y-61018665D01*
X51379853Y-60741426D01*
X51271680Y-60480273D01*
X51114637Y-60245241D01*
X50914759Y-60045363D01*
X50679727Y-59888320D01*
X50418574Y-59780147D01*
X50141335Y-59725000D01*
X49858665Y-59725000D01*
X49581426Y-59780147D01*
X49320273Y-59888320D01*
X49085241Y-60045363D01*
X48885363Y-60245241D01*
X48728320Y-60480273D01*
X48620147Y-60741426D01*
X48565000Y-61018665D01*
X48565000Y-61301335D01*
X48601312Y-61483886D01*
X47003265Y-63081934D01*
X46990260Y-63074983D01*
X46700912Y-62987210D01*
X46400000Y-62957573D01*
X46099087Y-62987210D01*
X45809739Y-63074983D01*
X45543073Y-63217519D01*
X45309339Y-63409339D01*
X45117519Y-63643074D01*
X44974983Y-63909740D01*
X44887210Y-64199088D01*
X44865000Y-64424593D01*
X44865000Y-65234538D01*
X44747204Y-65153138D01*
X44470087Y-65033245D01*
X44364740Y-65008964D01*
X44127000Y-65129622D01*
X43873000Y-65129622D01*
X43635260Y-65008964D01*
X43529913Y-65033245D01*
X43252796Y-65153138D01*
X43004394Y-65324790D01*
X42794252Y-65541604D01*
X42630446Y-65795249D01*
X42519271Y-66075977D01*
X42465000Y-66373000D01*
X37027000Y-66373000D01*
X37027000Y-59314344D01*
X39415000Y-59314344D01*
X39415000Y-59685656D01*
X39487439Y-60049834D01*
X39629534Y-60392882D01*
X39835825Y-60701618D01*
X40098382Y-60964175D01*
X40407118Y-61170466D01*
X40750166Y-61312561D01*
X41114344Y-61385000D01*
X41485656Y-61385000D01*
X41849834Y-61312561D01*
X42192882Y-61170466D01*
X42501618Y-60964175D01*
X42764175Y-60701618D01*
X42970466Y-60392882D01*
X43112561Y-60049834D01*
X43185000Y-59685656D01*
X43185000Y-59314344D01*
X43112561Y-58950166D01*
X42970466Y-58607118D01*
X42764175Y-58298382D01*
X42501618Y-58035825D01*
X42192882Y-57829534D01*
X41849834Y-57687439D01*
X41485656Y-57615000D01*
X41114344Y-57615000D01*
X40750166Y-57687439D01*
X40407118Y-57829534D01*
X40098382Y-58035825D01*
X39835825Y-58298382D01*
X39629534Y-58607118D01*
X39487439Y-58950166D01*
X39415000Y-59314344D01*
X37027000Y-59314344D01*
X37027000Y-55813605D01*
X40166000Y-55813605D01*
X40291914Y-56103577D01*
X40624126Y-56269433D01*
X40982312Y-56367290D01*
X41352706Y-56393389D01*
X41721075Y-56346725D01*
X42073262Y-56229094D01*
X42308086Y-56103577D01*
X42434000Y-55813605D01*
X41300000Y-54679605D01*
X40166000Y-55813605D01*
X37027000Y-55813605D01*
X37027000Y-54552706D01*
X39406611Y-54552706D01*
X39453275Y-54921075D01*
X39570906Y-55273262D01*
X39696423Y-55508086D01*
X39986395Y-55634000D01*
X41120395Y-54500000D01*
X41479605Y-54500000D01*
X42613605Y-55634000D01*
X42903577Y-55508086D01*
X43069433Y-55175874D01*
X43167290Y-54817688D01*
X43193389Y-54447294D01*
X43146725Y-54078925D01*
X43029094Y-53726738D01*
X42903577Y-53491914D01*
X42613605Y-53366000D01*
X41479605Y-54500000D01*
X41120395Y-54500000D01*
X39986395Y-53366000D01*
X39696423Y-53491914D01*
X39530567Y-53824126D01*
X39432710Y-54182312D01*
X39406611Y-54552706D01*
X37027000Y-54552706D01*
X37027000Y-53186395D01*
X40166000Y-53186395D01*
X41300000Y-54320395D01*
X42434000Y-53186395D01*
X42308086Y-52896423D01*
X41975874Y-52730567D01*
X41617688Y-52632710D01*
X41247294Y-52606611D01*
X40878925Y-52653275D01*
X40526738Y-52770906D01*
X40291914Y-52896423D01*
X40166000Y-53186395D01*
X37027000Y-53186395D01*
X37027000Y-48250000D01*
X39411928Y-48250000D01*
X39411928Y-50750000D01*
X39424188Y-50874482D01*
X39460498Y-50994180D01*
X39519463Y-51104494D01*
X39598815Y-51201185D01*
X39695506Y-51280537D01*
X39805820Y-51339502D01*
X39925518Y-51375812D01*
X40050000Y-51388072D01*
X42550000Y-51388072D01*
X42674482Y-51375812D01*
X42794180Y-51339502D01*
X42904494Y-51280537D01*
X43001185Y-51201185D01*
X43080537Y-51104494D01*
X43139502Y-50994180D01*
X43175812Y-50874482D01*
X43188072Y-50750000D01*
X43188072Y-48250000D01*
X43175812Y-48125518D01*
X43139502Y-48005820D01*
X43080537Y-47895506D01*
X43001185Y-47798815D01*
X42904494Y-47719463D01*
X42794180Y-47660498D01*
X42674482Y-47624188D01*
X42550000Y-47611928D01*
X40050000Y-47611928D01*
X39925518Y-47624188D01*
X39805820Y-47660498D01*
X39695506Y-47719463D01*
X39598815Y-47798815D01*
X39519463Y-47895506D01*
X39460498Y-48005820D01*
X39424188Y-48125518D01*
X39411928Y-48250000D01*
X37027000Y-48250000D01*
X37027000Y-44658665D01*
X42505000Y-44658665D01*
X42505000Y-44941335D01*
X42560147Y-45218574D01*
X42668320Y-45479727D01*
X42825363Y-45714759D01*
X43025241Y-45914637D01*
X43260273Y-46071680D01*
X43521426Y-46179853D01*
X43798665Y-46235000D01*
X44081335Y-46235000D01*
X44358574Y-46179853D01*
X44619727Y-46071680D01*
X44854759Y-45914637D01*
X45054637Y-45714759D01*
X45211680Y-45479727D01*
X45319853Y-45218574D01*
X45375000Y-44941335D01*
X45375000Y-44658665D01*
X52665000Y-44658665D01*
X52665000Y-44941335D01*
X52720147Y-45218574D01*
X52828320Y-45479727D01*
X52985363Y-45714759D01*
X53185241Y-45914637D01*
X53420273Y-46071680D01*
X53681426Y-46179853D01*
X53958665Y-46235000D01*
X54241335Y-46235000D01*
X54518574Y-46179853D01*
X54779727Y-46071680D01*
X55014759Y-45914637D01*
X55214637Y-45714759D01*
X55318043Y-45560000D01*
X57832678Y-45560000D01*
X57870000Y-45563676D01*
X57907322Y-45560000D01*
X57907333Y-45560000D01*
X58018986Y-45549003D01*
X58162247Y-45505546D01*
X58294276Y-45434974D01*
X58410001Y-45340001D01*
X58433804Y-45310998D01*
X59381004Y-44363798D01*
X59410001Y-44340001D01*
X59504974Y-44224276D01*
X59575546Y-44092247D01*
X59592169Y-44037446D01*
X59722780Y-44107259D01*
X59927303Y-44169300D01*
X60140000Y-44190249D01*
X60352696Y-44169300D01*
X60557219Y-44107259D01*
X60745710Y-44006509D01*
X60910922Y-43870922D01*
X61046509Y-43705710D01*
X61124393Y-43560000D01*
X79262678Y-43560000D01*
X79300000Y-43563676D01*
X79337322Y-43560000D01*
X79337333Y-43560000D01*
X79448986Y-43549003D01*
X79592247Y-43505546D01*
X79724276Y-43434974D01*
X79840001Y-43340001D01*
X79863803Y-43310998D01*
X80711004Y-42463798D01*
X80740001Y-42440001D01*
X80834974Y-42324276D01*
X80905546Y-42192247D01*
X80949003Y-42048986D01*
X80955003Y-41988072D01*
X81450000Y-41988072D01*
X81574482Y-41975812D01*
X81694180Y-41939502D01*
X81804494Y-41880537D01*
X81901185Y-41801185D01*
X81980537Y-41704494D01*
X82039502Y-41594180D01*
X82075812Y-41474482D01*
X82088072Y-41350000D01*
X82088072Y-38850000D01*
X82075812Y-38725518D01*
X82039502Y-38605820D01*
X81980537Y-38495506D01*
X81901185Y-38398815D01*
X81804494Y-38319463D01*
X81694180Y-38260498D01*
X81574482Y-38224188D01*
X81450000Y-38211928D01*
X78950000Y-38211928D01*
X78825518Y-38224188D01*
X78705820Y-38260498D01*
X78595506Y-38319463D01*
X78498815Y-38398815D01*
X78419463Y-38495506D01*
X78360498Y-38605820D01*
X78324188Y-38725518D01*
X78311928Y-38850000D01*
X78311928Y-41350000D01*
X78324188Y-41474482D01*
X78360498Y-41594180D01*
X78419463Y-41704494D01*
X78498815Y-41801185D01*
X78595506Y-41880537D01*
X78705820Y-41939502D01*
X78825518Y-41975812D01*
X78950000Y-41988072D01*
X79037127Y-41988072D01*
X78985199Y-42040000D01*
X61124392Y-42040000D01*
X61046509Y-41894290D01*
X60910922Y-41729078D01*
X60745710Y-41593491D01*
X60557220Y-41492741D01*
X60352697Y-41430700D01*
X60140000Y-41409751D01*
X59927304Y-41430700D01*
X59722781Y-41492741D01*
X59534291Y-41593491D01*
X59505000Y-41617529D01*
X59475710Y-41593491D01*
X59287220Y-41492741D01*
X59082697Y-41430700D01*
X58870000Y-41409751D01*
X58657304Y-41430700D01*
X58452781Y-41492741D01*
X58403641Y-41519007D01*
X58294180Y-41460498D01*
X58174482Y-41424188D01*
X58050000Y-41411928D01*
X57885750Y-41415000D01*
X57727000Y-41573750D01*
X57727000Y-42673000D01*
X57747000Y-42673000D01*
X57747000Y-42927000D01*
X57727000Y-42927000D01*
X57727000Y-42947000D01*
X57473000Y-42947000D01*
X57473000Y-42927000D01*
X56673750Y-42927000D01*
X56515000Y-43085750D01*
X56511928Y-43550000D01*
X56524188Y-43674482D01*
X56560498Y-43794180D01*
X56619463Y-43904494D01*
X56698815Y-44001185D01*
X56746111Y-44040000D01*
X55318043Y-44040000D01*
X55214637Y-43885241D01*
X55014759Y-43685363D01*
X54779727Y-43528320D01*
X54518574Y-43420147D01*
X54241335Y-43365000D01*
X53958665Y-43365000D01*
X53681426Y-43420147D01*
X53420273Y-43528320D01*
X53185241Y-43685363D01*
X52985363Y-43885241D01*
X52828320Y-44120273D01*
X52720147Y-44381426D01*
X52665000Y-44658665D01*
X45375000Y-44658665D01*
X45319853Y-44381426D01*
X45211680Y-44120273D01*
X45054637Y-43885241D01*
X44854759Y-43685363D01*
X44619727Y-43528320D01*
X44358574Y-43420147D01*
X44081335Y-43365000D01*
X43798665Y-43365000D01*
X43521426Y-43420147D01*
X43260273Y-43528320D01*
X43025241Y-43685363D01*
X42825363Y-43885241D01*
X42668320Y-44120273D01*
X42560147Y-44381426D01*
X42505000Y-44658665D01*
X37027000Y-44658665D01*
X37027000Y-42050000D01*
X56511928Y-42050000D01*
X56515000Y-42514250D01*
X56673750Y-42673000D01*
X57473000Y-42673000D01*
X57473000Y-41573750D01*
X57314250Y-41415000D01*
X57150000Y-41411928D01*
X57025518Y-41424188D01*
X56905820Y-41460498D01*
X56795506Y-41519463D01*
X56698815Y-41598815D01*
X56619463Y-41695506D01*
X56560498Y-41805820D01*
X56524188Y-41925518D01*
X56511928Y-42050000D01*
X37027000Y-42050000D01*
X37027000Y-39914344D01*
X63315000Y-39914344D01*
X63315000Y-40285656D01*
X63387439Y-40649834D01*
X63529534Y-40992882D01*
X63735825Y-41301618D01*
X63998382Y-41564175D01*
X64307118Y-41770466D01*
X64650166Y-41912561D01*
X65014344Y-41985000D01*
X65385656Y-41985000D01*
X65749834Y-41912561D01*
X66092882Y-41770466D01*
X66401618Y-41564175D01*
X66552188Y-41413605D01*
X69066000Y-41413605D01*
X69191914Y-41703577D01*
X69524126Y-41869433D01*
X69882312Y-41967290D01*
X70252706Y-41993389D01*
X70621075Y-41946725D01*
X70973262Y-41829094D01*
X71208086Y-41703577D01*
X71334000Y-41413605D01*
X70200000Y-40279605D01*
X69066000Y-41413605D01*
X66552188Y-41413605D01*
X66664175Y-41301618D01*
X66870466Y-40992882D01*
X67012561Y-40649834D01*
X67085000Y-40285656D01*
X67085000Y-40152706D01*
X68306611Y-40152706D01*
X68353275Y-40521075D01*
X68470906Y-40873262D01*
X68596423Y-41108086D01*
X68886395Y-41234000D01*
X70020395Y-40100000D01*
X70379605Y-40100000D01*
X71513605Y-41234000D01*
X71803577Y-41108086D01*
X71969433Y-40775874D01*
X72067290Y-40417688D01*
X72093389Y-40047294D01*
X72046725Y-39678925D01*
X71929094Y-39326738D01*
X71803577Y-39091914D01*
X71513605Y-38966000D01*
X70379605Y-40100000D01*
X70020395Y-40100000D01*
X68886395Y-38966000D01*
X68596423Y-39091914D01*
X68430567Y-39424126D01*
X68332710Y-39782312D01*
X68306611Y-40152706D01*
X67085000Y-40152706D01*
X67085000Y-39914344D01*
X67012561Y-39550166D01*
X66988585Y-39492283D01*
X67694473Y-38786395D01*
X69066000Y-38786395D01*
X70200000Y-39920395D01*
X71334000Y-38786395D01*
X71208086Y-38496423D01*
X70875874Y-38330567D01*
X70517688Y-38232710D01*
X70147294Y-38206611D01*
X69778925Y-38253275D01*
X69426738Y-38370906D01*
X69191914Y-38496423D01*
X69066000Y-38786395D01*
X67694473Y-38786395D01*
X68845869Y-37635000D01*
X71554133Y-37635000D01*
X73411415Y-39492283D01*
X73387439Y-39550166D01*
X73315000Y-39914344D01*
X73315000Y-40285656D01*
X73387439Y-40649834D01*
X73529534Y-40992882D01*
X73735825Y-41301618D01*
X73998382Y-41564175D01*
X74307118Y-41770466D01*
X74650166Y-41912561D01*
X75014344Y-41985000D01*
X75385656Y-41985000D01*
X75749834Y-41912561D01*
X76092882Y-41770466D01*
X76401618Y-41564175D01*
X76664175Y-41301618D01*
X76870466Y-40992882D01*
X77012561Y-40649834D01*
X77085000Y-40285656D01*
X77085000Y-39914344D01*
X77012561Y-39550166D01*
X76870466Y-39207118D01*
X76664175Y-38898382D01*
X76401618Y-38635825D01*
X76092882Y-38429534D01*
X75749834Y-38287439D01*
X75385656Y-38215000D01*
X75014344Y-38215000D01*
X74650166Y-38287439D01*
X74592283Y-38311415D01*
X72519446Y-36238579D01*
X72493291Y-36206709D01*
X72366146Y-36102364D01*
X72221087Y-36024828D01*
X72063689Y-35977082D01*
X71941019Y-35965000D01*
X71941018Y-35965000D01*
X71900000Y-35960960D01*
X71858982Y-35965000D01*
X68541018Y-35965000D01*
X68500000Y-35960960D01*
X68458982Y-35965000D01*
X68458981Y-35965000D01*
X68336311Y-35977082D01*
X68196078Y-36019621D01*
X68178913Y-36024828D01*
X68033854Y-36102364D01*
X67950216Y-36171004D01*
X67906709Y-36206709D01*
X67880563Y-36238568D01*
X65807717Y-38311415D01*
X65749834Y-38287439D01*
X65385656Y-38215000D01*
X65014344Y-38215000D01*
X64650166Y-38287439D01*
X64307118Y-38429534D01*
X63998382Y-38635825D01*
X63735825Y-38898382D01*
X63529534Y-39207118D01*
X63387439Y-39550166D01*
X63315000Y-39914344D01*
X37027000Y-39914344D01*
X37027000Y-35604332D01*
X37060989Y-35562657D01*
X37104091Y-35527000D01*
X84209332Y-35527000D01*
X83893425Y-35842907D01*
G37*
X83893425Y-35842907D02*
X83540270Y-36371442D01*
X83297012Y-36958719D01*
X83173000Y-37582168D01*
X83173000Y-38217832D01*
X83297012Y-38841281D01*
X83540270Y-39428558D01*
X83893425Y-39957093D01*
X84342907Y-40406575D01*
X84871442Y-40759730D01*
X85458719Y-41002988D01*
X86082168Y-41127000D01*
X86717832Y-41127000D01*
X87341281Y-41002988D01*
X87928558Y-40759730D01*
X88457093Y-40406575D01*
X88840001Y-40023667D01*
X88840000Y-95467721D01*
X88830420Y-95565424D01*
X88811420Y-95628357D01*
X88780554Y-95686406D01*
X88739011Y-95737343D01*
X88688356Y-95779248D01*
X88630529Y-95810515D01*
X88567728Y-95829956D01*
X88472165Y-95840000D01*
X41523668Y-95840000D01*
X41906575Y-95457093D01*
X42259730Y-94928558D01*
X42502988Y-94341281D01*
X42627000Y-93717832D01*
X42627000Y-93082168D01*
X42502988Y-92458719D01*
X42259730Y-91871442D01*
X41906575Y-91342907D01*
X41457093Y-90893425D01*
X40928558Y-90540270D01*
X40341281Y-90297012D01*
X39717832Y-90173000D01*
X39082168Y-90173000D01*
X38458719Y-90297012D01*
X37871442Y-90540270D01*
X37342907Y-90893425D01*
X37027000Y-91209332D01*
X37027000Y-72889999D01*
X44061323Y-72889999D01*
X44065000Y-72927331D01*
X44064999Y-77066678D01*
X44061323Y-77104001D01*
X44064999Y-77141323D01*
X44064999Y-77141333D01*
X44075996Y-77252986D01*
X44117048Y-77388320D01*
X44119453Y-77396247D01*
X44190025Y-77528277D01*
X44220995Y-77566014D01*
X44284998Y-77644002D01*
X44314001Y-77667804D01*
X44819704Y-78173509D01*
X44684010Y-78376589D01*
X44572068Y-78646842D01*
X44515000Y-78933740D01*
X44515000Y-79226260D01*
X44558791Y-79446408D01*
X44314002Y-79691197D01*
X44284998Y-79715000D01*
X44236056Y-79774637D01*
X44190025Y-79830725D01*
X44160820Y-79885363D01*
X44119453Y-79962755D01*
X44075996Y-80106016D01*
X44064999Y-80217669D01*
X44064999Y-80217679D01*
X44061323Y-80255001D01*
X44064999Y-80292324D01*
X44065000Y-84686669D01*
X44061323Y-84724001D01*
X44065000Y-84761334D01*
X44075997Y-84872987D01*
X44083603Y-84898061D01*
X44119453Y-85016247D01*
X44190025Y-85148277D01*
X44261200Y-85235003D01*
X44284999Y-85264002D01*
X44313997Y-85287800D01*
X44827013Y-85800817D01*
X44728359Y-85933080D01*
X44603175Y-86195901D01*
X44558524Y-86343110D01*
X44679845Y-86573000D01*
X45873000Y-86573000D01*
X45873000Y-86553000D01*
X46127000Y-86553000D01*
X46127000Y-86573000D01*
X46147000Y-86573000D01*
X46147000Y-86827000D01*
X46127000Y-86827000D01*
X46127000Y-86847000D01*
X45873000Y-86847000D01*
X45873000Y-86827000D01*
X44679845Y-86827000D01*
X44558524Y-87056890D01*
X44603175Y-87204099D01*
X44728359Y-87466920D01*
X44902412Y-87700269D01*
X45118645Y-87895178D01*
X45235534Y-87964805D01*
X45053368Y-88086525D01*
X44846525Y-88293368D01*
X44684010Y-88536589D01*
X44572068Y-88806842D01*
X44515000Y-89093740D01*
X44515000Y-89386260D01*
X44572068Y-89673158D01*
X44684010Y-89943411D01*
X44846525Y-90186632D01*
X45053368Y-90393475D01*
X45296589Y-90555990D01*
X45566842Y-90667932D01*
X45853740Y-90725000D01*
X46146260Y-90725000D01*
X46433158Y-90667932D01*
X46703411Y-90555990D01*
X46946632Y-90393475D01*
X47153475Y-90186632D01*
X47315990Y-89943411D01*
X47427932Y-89673158D01*
X47485000Y-89386260D01*
X47485000Y-89093740D01*
X47427932Y-88806842D01*
X47315990Y-88536589D01*
X47153475Y-88293368D01*
X46946632Y-88086525D01*
X46764466Y-87964805D01*
X46881355Y-87895178D01*
X47097588Y-87700269D01*
X47271641Y-87466920D01*
X47323095Y-87358894D01*
X49120000Y-89155800D01*
X49120001Y-92401956D01*
X48965241Y-92505363D01*
X48765363Y-92705241D01*
X48608320Y-92940273D01*
X48500147Y-93201426D01*
X48445000Y-93478665D01*
X48445000Y-93761335D01*
X48500147Y-94038574D01*
X48608320Y-94299727D01*
X48765363Y-94534759D01*
X48965241Y-94734637D01*
X49200273Y-94891680D01*
X49461426Y-94999853D01*
X49738665Y-95055000D01*
X50021335Y-95055000D01*
X50298574Y-94999853D01*
X50559727Y-94891680D01*
X50794759Y-94734637D01*
X50994637Y-94534759D01*
X51150000Y-94302241D01*
X51305363Y-94534759D01*
X51505241Y-94734637D01*
X51740273Y-94891680D01*
X52001426Y-94999853D01*
X52278665Y-95055000D01*
X52561335Y-95055000D01*
X52838574Y-94999853D01*
X53099727Y-94891680D01*
X53334759Y-94734637D01*
X53534637Y-94534759D01*
X53691680Y-94299727D01*
X53696067Y-94289135D01*
X53807615Y-94475131D01*
X53996586Y-94683519D01*
X54222580Y-94851037D01*
X54476913Y-94971246D01*
X54610961Y-95011904D01*
X54833000Y-94889915D01*
X54833000Y-93747000D01*
X54813000Y-93747000D01*
X54813000Y-93493000D01*
X54833000Y-93493000D01*
X54833000Y-92350085D01*
X54788929Y-92325872D01*
X56044289Y-91070512D01*
X59559783Y-91070512D01*
X59601213Y-91350130D01*
X59696397Y-91616292D01*
X59763329Y-91741514D01*
X60007298Y-91813097D01*
X60820395Y-91000000D01*
X60007298Y-90186903D01*
X59763329Y-90258486D01*
X59642429Y-90513996D01*
X59573700Y-90788184D01*
X59559783Y-91070512D01*
X56044289Y-91070512D01*
X58079802Y-89035000D01*
X58101939Y-89035000D01*
X58301898Y-88995226D01*
X58490256Y-88917205D01*
X58659774Y-88803937D01*
X58803937Y-88659774D01*
X58917205Y-88490256D01*
X58995226Y-88301898D01*
X59035000Y-88101939D01*
X59035000Y-87898061D01*
X58995226Y-87698102D01*
X58917205Y-87509744D01*
X58881488Y-87456289D01*
X59601312Y-88176114D01*
X59565000Y-88358665D01*
X59565000Y-88641335D01*
X59620147Y-88918574D01*
X59728320Y-89179727D01*
X59885363Y-89414759D01*
X60085241Y-89614637D01*
X60285869Y-89748692D01*
X60258486Y-89763329D01*
X60186903Y-90007298D01*
X61000000Y-90820395D01*
X61014143Y-90806253D01*
X61193748Y-90985858D01*
X61179605Y-91000000D01*
X61193748Y-91014143D01*
X61014143Y-91193748D01*
X61000000Y-91179605D01*
X60186903Y-91992702D01*
X60258486Y-92236671D01*
X60323002Y-92267198D01*
X59730201Y-92860000D01*
X58718043Y-92860000D01*
X58614637Y-92705241D01*
X58414759Y-92505363D01*
X58179727Y-92348320D01*
X57918574Y-92240147D01*
X57641335Y-92185000D01*
X57358665Y-92185000D01*
X57081426Y-92240147D01*
X56820273Y-92348320D01*
X56585241Y-92505363D01*
X56385363Y-92705241D01*
X56228320Y-92940273D01*
X56223933Y-92950865D01*
X56112385Y-92764869D01*
X55923414Y-92556481D01*
X55697420Y-92388963D01*
X55443087Y-92268754D01*
X55309039Y-92228096D01*
X55087000Y-92350085D01*
X55087000Y-93493000D01*
X55107000Y-93493000D01*
X55107000Y-93747000D01*
X55087000Y-93747000D01*
X55087000Y-94889915D01*
X55309039Y-95011904D01*
X55443087Y-94971246D01*
X55697420Y-94851037D01*
X55923414Y-94683519D01*
X56112385Y-94475131D01*
X56223933Y-94289135D01*
X56228320Y-94299727D01*
X56385363Y-94534759D01*
X56585241Y-94734637D01*
X56820273Y-94891680D01*
X57081426Y-94999853D01*
X57358665Y-95055000D01*
X57641335Y-95055000D01*
X57918574Y-94999853D01*
X58179727Y-94891680D01*
X58414759Y-94734637D01*
X58614637Y-94534759D01*
X58718043Y-94380000D01*
X60007680Y-94380000D01*
X60045002Y-94383676D01*
X60082324Y-94380000D01*
X60082335Y-94380000D01*
X60193988Y-94369003D01*
X60337249Y-94325546D01*
X60469278Y-94254974D01*
X60585003Y-94160001D01*
X60608806Y-94130997D01*
X62636004Y-92103800D01*
X62665002Y-92080002D01*
X62759975Y-91964277D01*
X62830547Y-91832248D01*
X62874004Y-91688987D01*
X62885001Y-91577334D01*
X62885001Y-91577326D01*
X62888677Y-91540001D01*
X62885001Y-91502676D01*
X62885001Y-88999802D01*
X65530198Y-91645000D01*
X65286544Y-91645000D01*
X65024761Y-91697072D01*
X64778167Y-91799215D01*
X64556238Y-91947503D01*
X64367503Y-92136238D01*
X64219215Y-92358167D01*
X64117072Y-92604761D01*
X64065000Y-92866544D01*
X64065000Y-93133456D01*
X64117072Y-93395239D01*
X64219215Y-93641833D01*
X64367503Y-93863762D01*
X64556238Y-94052497D01*
X64778167Y-94200785D01*
X65024761Y-94302928D01*
X65286544Y-94355000D01*
X65553456Y-94355000D01*
X65815239Y-94302928D01*
X66061833Y-94200785D01*
X66283762Y-94052497D01*
X66472497Y-93863762D01*
X66620785Y-93641833D01*
X66690000Y-93474734D01*
X66759215Y-93641833D01*
X66907503Y-93863762D01*
X67096238Y-94052497D01*
X67318167Y-94200785D01*
X67564761Y-94302928D01*
X67826544Y-94355000D01*
X68093456Y-94355000D01*
X68215852Y-94330654D01*
X68441202Y-94556004D01*
X68465000Y-94585002D01*
X68493998Y-94608800D01*
X68580725Y-94679975D01*
X68712754Y-94750547D01*
X68856015Y-94794004D01*
X69005001Y-94808678D01*
X69042334Y-94805001D01*
X80964279Y-94805001D01*
X81001601Y-94808677D01*
X81038923Y-94805001D01*
X81038934Y-94805001D01*
X81150587Y-94794004D01*
X81293848Y-94750547D01*
X81425877Y-94679975D01*
X81541602Y-94585002D01*
X81565405Y-94555998D01*
X86011004Y-90110400D01*
X86040001Y-90086603D01*
X86105085Y-90007298D01*
X86134974Y-89970879D01*
X86205546Y-89838849D01*
X86236646Y-89736323D01*
X86249003Y-89695588D01*
X86260000Y-89583935D01*
X86260000Y-89583925D01*
X86263676Y-89546602D01*
X86260000Y-89509279D01*
X86260000Y-86308245D01*
X86462569Y-86172893D01*
X86672893Y-85962569D01*
X86838144Y-85715253D01*
X86951971Y-85440451D01*
X87010000Y-85148722D01*
X87010000Y-84851278D01*
X86951971Y-84559549D01*
X86838144Y-84284747D01*
X86672893Y-84037431D01*
X86462569Y-83827107D01*
X86309407Y-83724768D01*
X86366635Y-83546240D01*
X85500000Y-82679605D01*
X84633365Y-83546240D01*
X84690593Y-83724768D01*
X84537431Y-83827107D01*
X84327107Y-84037431D01*
X84161856Y-84284747D01*
X84048029Y-84559549D01*
X83990000Y-84851278D01*
X83990000Y-85148722D01*
X84048029Y-85440451D01*
X84161856Y-85715253D01*
X84327107Y-85962569D01*
X84537431Y-86172893D01*
X84740001Y-86308246D01*
X84740000Y-89231800D01*
X81665877Y-92305924D01*
X81552497Y-92136238D01*
X81363762Y-91947503D01*
X81260000Y-91878172D01*
X81260000Y-90537322D01*
X81263676Y-90499999D01*
X81260000Y-90462676D01*
X81260000Y-90462667D01*
X81249003Y-90351014D01*
X81205546Y-90207753D01*
X81134974Y-90075724D01*
X81120104Y-90057605D01*
X81063799Y-89988996D01*
X81063795Y-89988992D01*
X81040001Y-89959999D01*
X81011008Y-89936205D01*
X78398688Y-87323886D01*
X78435000Y-87141335D01*
X78435000Y-86858665D01*
X78379853Y-86581426D01*
X78271680Y-86320273D01*
X78114637Y-86085241D01*
X77914759Y-85885363D01*
X77679727Y-85728320D01*
X77418574Y-85620147D01*
X77141335Y-85565000D01*
X76858665Y-85565000D01*
X76581426Y-85620147D01*
X76320273Y-85728320D01*
X76085241Y-85885363D01*
X75885363Y-86085241D01*
X75728320Y-86320273D01*
X75620147Y-86581426D01*
X75580000Y-86783256D01*
X75539853Y-86581426D01*
X75431680Y-86320273D01*
X75274637Y-86085241D01*
X75074759Y-85885363D01*
X74920000Y-85781957D01*
X74920000Y-85109396D01*
X75114637Y-84914759D01*
X75271680Y-84679727D01*
X75379853Y-84418574D01*
X75435000Y-84141335D01*
X75435000Y-83858665D01*
X75379853Y-83581426D01*
X75271680Y-83320273D01*
X75114637Y-83085241D01*
X74914759Y-82885363D01*
X74679727Y-82728320D01*
X74418574Y-82620147D01*
X74141335Y-82565000D01*
X73858665Y-82565000D01*
X73676114Y-82601312D01*
X73327755Y-82252953D01*
X73534759Y-82114637D01*
X73734637Y-81914759D01*
X73891680Y-81679727D01*
X73999853Y-81418574D01*
X74055000Y-81141335D01*
X74055000Y-80858665D01*
X73999853Y-80581426D01*
X73891680Y-80320273D01*
X73734637Y-80085241D01*
X73534759Y-79885363D01*
X73299727Y-79728320D01*
X73038574Y-79620147D01*
X72761335Y-79565000D01*
X72478665Y-79565000D01*
X72254999Y-79609491D01*
X72254999Y-74832324D01*
X72258675Y-74794999D01*
X72255952Y-74767352D01*
X72270961Y-74771904D01*
X72493000Y-74649915D01*
X72493000Y-73507000D01*
X72747000Y-73507000D01*
X72747000Y-74649915D01*
X72969039Y-74771904D01*
X73103087Y-74731246D01*
X73357420Y-74611037D01*
X73583414Y-74443519D01*
X73772385Y-74235131D01*
X73917070Y-73993881D01*
X74011909Y-73729040D01*
X73890624Y-73507000D01*
X72747000Y-73507000D01*
X72493000Y-73507000D01*
X72473000Y-73507000D01*
X72473000Y-73253000D01*
X72493000Y-73253000D01*
X72493000Y-73233000D01*
X72747000Y-73233000D01*
X72747000Y-73253000D01*
X73890624Y-73253000D01*
X74011909Y-73030960D01*
X74006193Y-73014999D01*
X74440198Y-73014999D01*
X76834921Y-75409723D01*
X76581426Y-75460147D01*
X76320273Y-75568320D01*
X76085241Y-75725363D01*
X75885363Y-75925241D01*
X75728320Y-76160273D01*
X75620147Y-76421426D01*
X75565000Y-76698665D01*
X75565000Y-76981335D01*
X75620147Y-77258574D01*
X75728320Y-77519727D01*
X75885363Y-77754759D01*
X76085241Y-77954637D01*
X76320273Y-78111680D01*
X76581426Y-78219853D01*
X76858665Y-78275000D01*
X77141335Y-78275000D01*
X77418574Y-78219853D01*
X77679727Y-78111680D01*
X77914759Y-77954637D01*
X78114637Y-77754759D01*
X78271680Y-77519727D01*
X78379853Y-77258574D01*
X78430277Y-77005079D01*
X81936205Y-80511008D01*
X81959999Y-80540001D01*
X81988992Y-80563795D01*
X81988996Y-80563799D01*
X82059685Y-80621811D01*
X82075724Y-80634974D01*
X82207753Y-80705546D01*
X82351014Y-80749003D01*
X82462667Y-80760000D01*
X82462676Y-80760000D01*
X82499999Y-80763676D01*
X82537322Y-80760000D01*
X83986928Y-80760000D01*
X83986928Y-80875000D01*
X83999188Y-80999482D01*
X84035498Y-81119180D01*
X84094463Y-81229494D01*
X84173815Y-81326185D01*
X84270506Y-81405537D01*
X84380820Y-81464502D01*
X84388302Y-81466772D01*
X84337733Y-81517341D01*
X84453758Y-81633366D01*
X84202132Y-81714025D01*
X84073733Y-81982329D01*
X84000145Y-82270526D01*
X83984196Y-82567543D01*
X84026499Y-82861963D01*
X84125428Y-83142474D01*
X84202132Y-83285975D01*
X84453760Y-83366635D01*
X85320395Y-82500000D01*
X85306253Y-82485858D01*
X85485858Y-82306253D01*
X85500000Y-82320395D01*
X85514143Y-82306253D01*
X85693748Y-82485858D01*
X85679605Y-82500000D01*
X86546240Y-83366635D01*
X86797868Y-83285975D01*
X86926267Y-83017671D01*
X86999855Y-82729474D01*
X87015804Y-82432457D01*
X86973501Y-82138037D01*
X86874572Y-81857526D01*
X86797868Y-81714025D01*
X86546242Y-81633366D01*
X86662267Y-81517341D01*
X86611698Y-81466772D01*
X86619180Y-81464502D01*
X86729494Y-81405537D01*
X86826185Y-81326185D01*
X86905537Y-81229494D01*
X86964502Y-81119180D01*
X87000812Y-80999482D01*
X87013072Y-80875000D01*
X87013072Y-79125000D01*
X87000812Y-79000518D01*
X86964502Y-78880820D01*
X86905537Y-78770506D01*
X86826185Y-78673815D01*
X86729494Y-78594463D01*
X86619180Y-78535498D01*
X86499482Y-78499188D01*
X86375000Y-78486928D01*
X84625000Y-78486928D01*
X84500518Y-78499188D01*
X84380820Y-78535498D01*
X84270506Y-78594463D01*
X84173815Y-78673815D01*
X84094463Y-78770506D01*
X84035498Y-78880820D01*
X83999188Y-79000518D01*
X83986928Y-79125000D01*
X83986928Y-79240000D01*
X82814803Y-79240000D01*
X75459802Y-71885001D01*
X78337677Y-71885001D01*
X78374999Y-71888677D01*
X78412321Y-71885001D01*
X78412332Y-71885001D01*
X78523985Y-71874004D01*
X78667246Y-71830547D01*
X78799275Y-71759975D01*
X78915000Y-71665002D01*
X78938803Y-71635998D01*
X85112332Y-65462470D01*
X85351278Y-65510000D01*
X85648722Y-65510000D01*
X85940451Y-65451971D01*
X86215253Y-65338144D01*
X86462569Y-65172893D01*
X86672893Y-64962569D01*
X86838144Y-64715253D01*
X86951971Y-64440451D01*
X87010000Y-64148722D01*
X87010000Y-63851278D01*
X86951971Y-63559549D01*
X86838144Y-63284747D01*
X86672893Y-63037431D01*
X86462569Y-62827107D01*
X86309407Y-62724768D01*
X86366635Y-62546240D01*
X85500000Y-61679605D01*
X84633365Y-62546240D01*
X84690593Y-62724768D01*
X84537431Y-62827107D01*
X84327107Y-63037431D01*
X84161856Y-63284747D01*
X84048029Y-63559549D01*
X83990000Y-63851278D01*
X83990000Y-64148722D01*
X84037530Y-64387668D01*
X78060198Y-70365001D01*
X74010509Y-70365001D01*
X74055000Y-70141335D01*
X74055000Y-69858665D01*
X73999853Y-69581426D01*
X73891680Y-69320273D01*
X73734637Y-69085241D01*
X73534759Y-68885363D01*
X73299727Y-68728320D01*
X73038574Y-68620147D01*
X72968578Y-68606224D01*
X75039802Y-66535000D01*
X75101939Y-66535000D01*
X75301898Y-66495226D01*
X75490256Y-66417205D01*
X75576576Y-66359528D01*
X75620147Y-66578574D01*
X75728320Y-66839727D01*
X75885363Y-67074759D01*
X76085241Y-67274637D01*
X76320273Y-67431680D01*
X76581426Y-67539853D01*
X76858665Y-67595000D01*
X77141335Y-67595000D01*
X77418574Y-67539853D01*
X77679727Y-67431680D01*
X77914759Y-67274637D01*
X78114637Y-67074759D01*
X78271680Y-66839727D01*
X78379853Y-66578574D01*
X78435000Y-66301335D01*
X78435000Y-66018665D01*
X78379853Y-65741426D01*
X78271680Y-65480273D01*
X78114637Y-65245241D01*
X77914759Y-65045363D01*
X77679727Y-64888320D01*
X77418574Y-64780147D01*
X77141335Y-64725000D01*
X76858665Y-64725000D01*
X76581426Y-64780147D01*
X76320273Y-64888320D01*
X76085241Y-65045363D01*
X75976854Y-65153750D01*
X75917205Y-65009744D01*
X75803937Y-64840226D01*
X75659774Y-64696063D01*
X75490256Y-64582795D01*
X75301898Y-64504774D01*
X75202492Y-64485001D01*
X80737677Y-64485001D01*
X80774999Y-64488677D01*
X80812321Y-64485001D01*
X80812332Y-64485001D01*
X80923985Y-64474004D01*
X81067246Y-64430547D01*
X81199275Y-64359975D01*
X81315000Y-64265002D01*
X81338803Y-64235998D01*
X83987093Y-61587709D01*
X84026499Y-61861963D01*
X84125428Y-62142474D01*
X84202132Y-62285975D01*
X84453760Y-62366635D01*
X85320395Y-61500000D01*
X85306253Y-61485858D01*
X85485858Y-61306253D01*
X85500000Y-61320395D01*
X85514143Y-61306253D01*
X85693748Y-61485858D01*
X85679605Y-61500000D01*
X86546240Y-62366635D01*
X86797868Y-62285975D01*
X86926267Y-62017671D01*
X86999855Y-61729474D01*
X87015804Y-61432457D01*
X86973501Y-61138037D01*
X86874572Y-60857526D01*
X86797868Y-60714025D01*
X86546242Y-60633366D01*
X86662267Y-60517341D01*
X86611698Y-60466772D01*
X86619180Y-60464502D01*
X86729494Y-60405537D01*
X86826185Y-60326185D01*
X86905537Y-60229494D01*
X86964502Y-60119180D01*
X87000812Y-59999482D01*
X87013072Y-59875000D01*
X87013072Y-58125000D01*
X87000812Y-58000518D01*
X86964502Y-57880820D01*
X86905537Y-57770506D01*
X86826185Y-57673815D01*
X86729494Y-57594463D01*
X86619180Y-57535498D01*
X86499482Y-57499188D01*
X86375000Y-57486928D01*
X84625000Y-57486928D01*
X84500518Y-57499188D01*
X84380820Y-57535498D01*
X84270506Y-57594463D01*
X84173815Y-57673815D01*
X84094463Y-57770506D01*
X84035498Y-57880820D01*
X83999188Y-58000518D01*
X83986928Y-58125000D01*
X83986928Y-59438269D01*
X80460198Y-62965001D01*
X76109801Y-62965001D01*
X76386007Y-62688796D01*
X76415000Y-62665002D01*
X76438794Y-62636009D01*
X76438798Y-62636005D01*
X76509972Y-62549278D01*
X76515010Y-62539853D01*
X76580545Y-62417248D01*
X76624002Y-62273987D01*
X76634999Y-62162334D01*
X76634999Y-62162325D01*
X76638675Y-62125002D01*
X76634999Y-62087679D01*
X76634999Y-57390509D01*
X76858665Y-57435000D01*
X77141335Y-57435000D01*
X77418574Y-57379853D01*
X77679727Y-57271680D01*
X77914759Y-57114637D01*
X78114637Y-56914759D01*
X78271680Y-56679727D01*
X78379853Y-56418574D01*
X78435000Y-56141335D01*
X78435000Y-55858665D01*
X78398688Y-55676114D01*
X81011008Y-53063795D01*
X81040001Y-53040001D01*
X81063795Y-53011008D01*
X81063799Y-53011004D01*
X81134973Y-52924277D01*
X81134974Y-52924276D01*
X81205546Y-52792247D01*
X81249003Y-52648986D01*
X81260000Y-52537333D01*
X81260000Y-52537324D01*
X81263676Y-52500001D01*
X81260000Y-52462678D01*
X81260000Y-51621828D01*
X81363762Y-51552497D01*
X81552497Y-51363762D01*
X81700785Y-51141833D01*
X81802928Y-50895239D01*
X81855000Y-50633456D01*
X81855000Y-50366544D01*
X81802928Y-50104761D01*
X81700785Y-49858167D01*
X81552497Y-49636238D01*
X81363762Y-49447503D01*
X81141833Y-49299215D01*
X80895239Y-49197072D01*
X80633456Y-49145000D01*
X80366544Y-49145000D01*
X80104761Y-49197072D01*
X79858167Y-49299215D01*
X79636238Y-49447503D01*
X79447503Y-49636238D01*
X79299215Y-49858167D01*
X79230000Y-50025266D01*
X79160785Y-49858167D01*
X79012497Y-49636238D01*
X78823762Y-49447503D01*
X78601833Y-49299215D01*
X78355239Y-49197072D01*
X78093456Y-49145000D01*
X77826544Y-49145000D01*
X77564761Y-49197072D01*
X77318167Y-49299215D01*
X77096238Y-49447503D01*
X76907503Y-49636238D01*
X76759215Y-49858167D01*
X76689562Y-50026324D01*
X76647875Y-49911647D01*
X76591368Y-49805932D01*
X76355560Y-49744045D01*
X75599605Y-50500000D01*
X75613748Y-50514143D01*
X75434143Y-50693748D01*
X75420000Y-50679605D01*
X74664045Y-51435560D01*
X74725932Y-51671368D01*
X74967790Y-51784266D01*
X75227027Y-51847811D01*
X75493680Y-51859561D01*
X75531433Y-51853766D01*
X75364002Y-52021197D01*
X75334998Y-52045000D01*
X75309783Y-52075725D01*
X75240025Y-52160725D01*
X75180718Y-52271680D01*
X75169453Y-52292755D01*
X75125996Y-52436016D01*
X75114999Y-52547669D01*
X75114999Y-52547679D01*
X75111323Y-52585001D01*
X75114999Y-52622323D01*
X75114999Y-55585783D01*
X75114637Y-55585241D01*
X74914759Y-55385363D01*
X74679727Y-55228320D01*
X74418574Y-55120147D01*
X74141335Y-55065000D01*
X73858665Y-55065000D01*
X73581426Y-55120147D01*
X73320273Y-55228320D01*
X73085241Y-55385363D01*
X72885363Y-55585241D01*
X72728320Y-55820273D01*
X72620147Y-56081426D01*
X72565000Y-56358665D01*
X72565000Y-56641335D01*
X72620147Y-56918574D01*
X72728320Y-57179727D01*
X72885363Y-57414759D01*
X73085241Y-57614637D01*
X73320273Y-57771680D01*
X73400001Y-57804704D01*
X73400000Y-58281956D01*
X73245241Y-58385363D01*
X73045363Y-58585241D01*
X72943315Y-58737967D01*
X72922676Y-58740000D01*
X72922667Y-58740000D01*
X72811014Y-58750997D01*
X72675032Y-58792246D01*
X72667753Y-58794454D01*
X72535723Y-58865026D01*
X72452083Y-58933668D01*
X72419999Y-58959999D01*
X72396201Y-58988997D01*
X70403886Y-60981312D01*
X70221335Y-60945000D01*
X69938665Y-60945000D01*
X69661426Y-61000147D01*
X69400273Y-61108320D01*
X69165241Y-61265363D01*
X68965363Y-61465241D01*
X68810000Y-61697759D01*
X68654637Y-61465241D01*
X68454759Y-61265363D01*
X68219727Y-61108320D01*
X67958574Y-61000147D01*
X67681335Y-60945000D01*
X67398665Y-60945000D01*
X67121426Y-61000147D01*
X66860273Y-61108320D01*
X66754078Y-61179277D01*
X65398688Y-59823886D01*
X65435000Y-59641335D01*
X65435000Y-59358665D01*
X65379853Y-59081426D01*
X65271680Y-58820273D01*
X65114637Y-58585241D01*
X64914759Y-58385363D01*
X64679727Y-58228320D01*
X64418574Y-58120147D01*
X64141335Y-58065000D01*
X63858665Y-58065000D01*
X63634999Y-58109491D01*
X63634999Y-57922336D01*
X63698665Y-57935000D01*
X63981335Y-57935000D01*
X64258574Y-57879853D01*
X64519727Y-57771680D01*
X64754759Y-57614637D01*
X64954637Y-57414759D01*
X65111680Y-57179727D01*
X65219853Y-56918574D01*
X65275000Y-56641335D01*
X65275000Y-56358665D01*
X65219853Y-56081426D01*
X65111680Y-55820273D01*
X64954637Y-55585241D01*
X64754759Y-55385363D01*
X64600000Y-55281957D01*
X64600000Y-54474801D01*
X67357659Y-51717143D01*
X67564761Y-51802928D01*
X67826544Y-51855000D01*
X68093456Y-51855000D01*
X68355239Y-51802928D01*
X68601833Y-51700785D01*
X68823762Y-51552497D01*
X69012497Y-51363762D01*
X69160785Y-51141833D01*
X69230000Y-50974734D01*
X69299215Y-51141833D01*
X69447503Y-51363762D01*
X69636238Y-51552497D01*
X69858167Y-51700785D01*
X70104761Y-51802928D01*
X70366544Y-51855000D01*
X70633456Y-51855000D01*
X70895239Y-51802928D01*
X71141833Y-51700785D01*
X71363762Y-51552497D01*
X71552497Y-51363762D01*
X71700785Y-51141833D01*
X71802928Y-50895239D01*
X71855000Y-50633456D01*
X71855000Y-50573680D01*
X74060439Y-50573680D01*
X74100937Y-50837501D01*
X74192125Y-51088353D01*
X74248632Y-51194068D01*
X74484440Y-51255955D01*
X75240395Y-50500000D01*
X74484440Y-49744045D01*
X74248632Y-49805932D01*
X74135734Y-50047790D01*
X74072189Y-50307027D01*
X74060439Y-50573680D01*
X71855000Y-50573680D01*
X71855000Y-50366544D01*
X71802928Y-50104761D01*
X71700785Y-49858167D01*
X71552497Y-49636238D01*
X71480699Y-49564440D01*
X74664045Y-49564440D01*
X75420000Y-50320395D01*
X76175955Y-49564440D01*
X76114068Y-49328632D01*
X75872210Y-49215734D01*
X75612973Y-49152189D01*
X75346320Y-49140439D01*
X75082499Y-49180937D01*
X74831647Y-49272125D01*
X74725932Y-49328632D01*
X74664045Y-49564440D01*
X71480699Y-49564440D01*
X71363762Y-49447503D01*
X71141833Y-49299215D01*
X70895239Y-49197072D01*
X70633456Y-49145000D01*
X70366544Y-49145000D01*
X70244147Y-49169346D01*
X70018803Y-48944001D01*
X69995000Y-48914998D01*
X69879275Y-48820025D01*
X69747246Y-48749453D01*
X69603985Y-48705996D01*
X69492332Y-48694999D01*
X69492321Y-48694999D01*
X69454999Y-48691323D01*
X69417677Y-48694999D01*
X63840253Y-48694999D01*
X63802920Y-48691322D01*
X63765587Y-48694999D01*
X63653934Y-48705996D01*
X63510673Y-48749453D01*
X63378644Y-48820025D01*
X63262919Y-48914998D01*
X63239121Y-48943996D01*
X54948998Y-57234120D01*
X54920000Y-57257918D01*
X54896202Y-57286916D01*
X54896201Y-57286917D01*
X54825026Y-57373643D01*
X54754454Y-57505673D01*
X54737824Y-57560498D01*
X54710998Y-57648933D01*
X54706085Y-57698815D01*
X54704088Y-57719090D01*
X54513368Y-57846525D01*
X54306525Y-58053368D01*
X54190000Y-58227760D01*
X54073475Y-58053368D01*
X53866632Y-57846525D01*
X53623411Y-57684010D01*
X53353158Y-57572068D01*
X53066260Y-57515000D01*
X52773740Y-57515000D01*
X52560000Y-57557516D01*
X52560000Y-52337325D01*
X52563676Y-52300000D01*
X52560000Y-52262675D01*
X52560000Y-52262667D01*
X52549003Y-52151014D01*
X52505546Y-52007753D01*
X52434974Y-51875724D01*
X52340001Y-51759999D01*
X52311003Y-51736201D01*
X51435000Y-50860199D01*
X51435000Y-50858665D01*
X51379853Y-50581426D01*
X51271680Y-50320273D01*
X51114637Y-50085241D01*
X50914759Y-49885363D01*
X50679727Y-49728320D01*
X50418574Y-49620147D01*
X50141335Y-49565000D01*
X49858665Y-49565000D01*
X49581426Y-49620147D01*
X49320273Y-49728320D01*
X49085241Y-49885363D01*
X48885363Y-50085241D01*
X48728320Y-50320273D01*
X48620147Y-50581426D01*
X48565000Y-50858665D01*
X48565000Y-51141335D01*
X48620147Y-51418574D01*
X48728320Y-51679727D01*
X48885363Y-51914759D01*
X49085241Y-52114637D01*
X49320273Y-52271680D01*
X49581426Y-52379853D01*
X49858665Y-52435000D01*
X50141335Y-52435000D01*
X50418574Y-52379853D01*
X50679727Y-52271680D01*
X50690009Y-52264810D01*
X51040001Y-52614803D01*
X51040000Y-57842677D01*
X51036324Y-57880000D01*
X51040000Y-57917322D01*
X51040000Y-57917332D01*
X51050997Y-58028985D01*
X51087706Y-58150000D01*
X51094454Y-58172246D01*
X51165026Y-58304276D01*
X51192637Y-58337920D01*
X51259999Y-58420001D01*
X51289002Y-58443804D01*
X51478791Y-58633592D01*
X51435000Y-58853740D01*
X51435000Y-59146260D01*
X51492068Y-59433158D01*
X51604010Y-59703411D01*
X51766525Y-59946632D01*
X51973368Y-60153475D01*
X52216589Y-60315990D01*
X52486842Y-60427932D01*
X52773740Y-60485000D01*
X53066260Y-60485000D01*
X53353158Y-60427932D01*
X53623411Y-60315990D01*
X53866632Y-60153475D01*
X54073475Y-59946632D01*
X54190000Y-59772240D01*
X54306525Y-59946632D01*
X54513368Y-60153475D01*
X54756589Y-60315990D01*
X55026842Y-60427932D01*
X55313740Y-60485000D01*
X55606260Y-60485000D01*
X55826408Y-60441209D01*
X57896201Y-62511003D01*
X57919999Y-62540001D01*
X58035724Y-62634974D01*
X58167753Y-62705546D01*
X58311014Y-62749003D01*
X58422667Y-62760000D01*
X58422675Y-62760000D01*
X58460000Y-62763676D01*
X58497325Y-62760000D01*
X60796289Y-62760000D01*
X60840226Y-62803937D01*
X61009744Y-62917205D01*
X61198102Y-62995226D01*
X61398061Y-63035000D01*
X61601939Y-63035000D01*
X61801898Y-62995226D01*
X61990256Y-62917205D01*
X62115000Y-62833854D01*
X62115000Y-63861509D01*
X61918574Y-63780147D01*
X61641335Y-63725000D01*
X61358665Y-63725000D01*
X61081426Y-63780147D01*
X60820273Y-63888320D01*
X60585241Y-64045363D01*
X60385363Y-64245241D01*
X60228320Y-64480273D01*
X60120147Y-64741426D01*
X60065000Y-65018665D01*
X60065000Y-65301335D01*
X60101312Y-65483886D01*
X55854002Y-69731197D01*
X55824998Y-69755000D01*
X55783943Y-69805026D01*
X55730025Y-69870725D01*
X55725146Y-69879853D01*
X55659453Y-70002755D01*
X55615996Y-70146016D01*
X55604999Y-70257669D01*
X55604999Y-70257679D01*
X55601323Y-70295001D01*
X55604999Y-70332323D01*
X55604999Y-73143247D01*
X55433158Y-73072068D01*
X55146260Y-73015000D01*
X54853740Y-73015000D01*
X54566842Y-73072068D01*
X54296589Y-73184010D01*
X54053368Y-73346525D01*
X53846525Y-73553368D01*
X53730000Y-73727760D01*
X53613475Y-73553368D01*
X53406632Y-73346525D01*
X53163411Y-73184010D01*
X52893158Y-73072068D01*
X52606260Y-73015000D01*
X52313740Y-73015000D01*
X52026842Y-73072068D01*
X51756589Y-73184010D01*
X51513368Y-73346525D01*
X51306525Y-73553368D01*
X51181822Y-73740000D01*
X50624499Y-73740000D01*
X50771680Y-73519727D01*
X50879853Y-73258574D01*
X50935000Y-72981335D01*
X50935000Y-72698665D01*
X50898688Y-72516114D01*
X52411003Y-71003799D01*
X52440001Y-70980001D01*
X52534974Y-70864276D01*
X52605546Y-70732247D01*
X52649003Y-70588986D01*
X52660000Y-70477333D01*
X52663677Y-70440000D01*
X52660000Y-70402667D01*
X52660000Y-66834290D01*
X52756927Y-66782481D01*
X52990661Y-66590661D01*
X53182481Y-66356927D01*
X53325017Y-66090261D01*
X53412790Y-65800913D01*
X53435000Y-65575408D01*
X53435000Y-64424592D01*
X53412790Y-64199087D01*
X53325017Y-63909739D01*
X53182481Y-63643073D01*
X52990661Y-63409339D01*
X52756926Y-63217519D01*
X52490260Y-63074983D01*
X52200912Y-62987210D01*
X51900000Y-62957573D01*
X51599087Y-62987210D01*
X51309739Y-63074983D01*
X51043073Y-63217519D01*
X50809339Y-63409339D01*
X50617519Y-63643074D01*
X50474983Y-63909740D01*
X50387210Y-64199088D01*
X50365000Y-64424593D01*
X50365000Y-65575408D01*
X50387210Y-65800913D01*
X50474983Y-66090261D01*
X50617519Y-66356927D01*
X50809340Y-66590661D01*
X51043074Y-66782481D01*
X51140000Y-66834289D01*
X51140001Y-70125197D01*
X49823886Y-71441312D01*
X49641335Y-71405000D01*
X49358665Y-71405000D01*
X49081426Y-71460147D01*
X48820273Y-71568320D01*
X48585241Y-71725363D01*
X48385363Y-71925241D01*
X48228320Y-72160273D01*
X48221122Y-72177650D01*
X48112244Y-72119453D01*
X47968983Y-72075996D01*
X47857330Y-72064999D01*
X47857319Y-72064999D01*
X47819997Y-72061323D01*
X47782675Y-72064999D01*
X44927322Y-72064999D01*
X44889999Y-72061323D01*
X44852677Y-72064999D01*
X44852666Y-72064999D01*
X44741013Y-72075996D01*
X44597752Y-72119453D01*
X44465723Y-72190025D01*
X44349998Y-72284998D01*
X44326195Y-72314002D01*
X44313997Y-72326200D01*
X44284999Y-72349998D01*
X44261201Y-72378996D01*
X44261200Y-72378997D01*
X44190025Y-72465723D01*
X44119453Y-72597753D01*
X44075997Y-72741014D01*
X44061323Y-72889999D01*
X37027000Y-72889999D01*
X37027000Y-67127000D01*
X42465000Y-67127000D01*
X42465000Y-67627000D01*
X42519271Y-67924023D01*
X42630446Y-68204751D01*
X42794252Y-68458396D01*
X43004394Y-68675210D01*
X43252796Y-68846862D01*
X43529913Y-68966755D01*
X43635260Y-68991036D01*
X43873000Y-68870378D01*
X43873000Y-67127000D01*
X44127000Y-67127000D01*
X44127000Y-68870378D01*
X44364740Y-68991036D01*
X44470087Y-68966755D01*
X44747204Y-68846862D01*
X44995606Y-68675210D01*
X45205748Y-68458396D01*
X45369554Y-68204751D01*
X45480729Y-67924023D01*
X45535000Y-67627000D01*
X45535000Y-67127000D01*
X44127000Y-67127000D01*
X43873000Y-67127000D01*
X42465000Y-67127000D01*
X37027000Y-67127000D01*
X37027000Y-66373000D01*
X42465000Y-66373000D01*
X42465000Y-66873000D01*
X43873000Y-66873000D01*
X43873000Y-65129622D01*
X44127000Y-65129622D01*
X44127000Y-66873000D01*
X45535000Y-66873000D01*
X45535000Y-66775855D01*
X45543074Y-66782481D01*
X45809740Y-66925017D01*
X46099088Y-67012790D01*
X46400000Y-67042427D01*
X46700913Y-67012790D01*
X46990261Y-66925017D01*
X47256927Y-66782481D01*
X47490661Y-66590661D01*
X47682481Y-66356927D01*
X47825017Y-66090261D01*
X47912790Y-65800913D01*
X47935000Y-65575408D01*
X47935000Y-64424592D01*
X47923811Y-64310990D01*
X49676114Y-62558688D01*
X49858665Y-62595000D01*
X50141335Y-62595000D01*
X50418574Y-62539853D01*
X50679727Y-62431680D01*
X50914759Y-62274637D01*
X51114637Y-62074759D01*
X51271680Y-61839727D01*
X51379853Y-61578574D01*
X51435000Y-61301335D01*
X51435000Y-61018665D01*
X51379853Y-60741426D01*
X51271680Y-60480273D01*
X51114637Y-60245241D01*
X50914759Y-60045363D01*
X50679727Y-59888320D01*
X50418574Y-59780147D01*
X50141335Y-59725000D01*
X49858665Y-59725000D01*
X49581426Y-59780147D01*
X49320273Y-59888320D01*
X49085241Y-60045363D01*
X48885363Y-60245241D01*
X48728320Y-60480273D01*
X48620147Y-60741426D01*
X48565000Y-61018665D01*
X48565000Y-61301335D01*
X48601312Y-61483886D01*
X47003265Y-63081934D01*
X46990260Y-63074983D01*
X46700912Y-62987210D01*
X46400000Y-62957573D01*
X46099087Y-62987210D01*
X45809739Y-63074983D01*
X45543073Y-63217519D01*
X45309339Y-63409339D01*
X45117519Y-63643074D01*
X44974983Y-63909740D01*
X44887210Y-64199088D01*
X44865000Y-64424593D01*
X44865000Y-65234538D01*
X44747204Y-65153138D01*
X44470087Y-65033245D01*
X44364740Y-65008964D01*
X44127000Y-65129622D01*
X43873000Y-65129622D01*
X43635260Y-65008964D01*
X43529913Y-65033245D01*
X43252796Y-65153138D01*
X43004394Y-65324790D01*
X42794252Y-65541604D01*
X42630446Y-65795249D01*
X42519271Y-66075977D01*
X42465000Y-66373000D01*
X37027000Y-66373000D01*
X37027000Y-59314344D01*
X39415000Y-59314344D01*
X39415000Y-59685656D01*
X39487439Y-60049834D01*
X39629534Y-60392882D01*
X39835825Y-60701618D01*
X40098382Y-60964175D01*
X40407118Y-61170466D01*
X40750166Y-61312561D01*
X41114344Y-61385000D01*
X41485656Y-61385000D01*
X41849834Y-61312561D01*
X42192882Y-61170466D01*
X42501618Y-60964175D01*
X42764175Y-60701618D01*
X42970466Y-60392882D01*
X43112561Y-60049834D01*
X43185000Y-59685656D01*
X43185000Y-59314344D01*
X43112561Y-58950166D01*
X42970466Y-58607118D01*
X42764175Y-58298382D01*
X42501618Y-58035825D01*
X42192882Y-57829534D01*
X41849834Y-57687439D01*
X41485656Y-57615000D01*
X41114344Y-57615000D01*
X40750166Y-57687439D01*
X40407118Y-57829534D01*
X40098382Y-58035825D01*
X39835825Y-58298382D01*
X39629534Y-58607118D01*
X39487439Y-58950166D01*
X39415000Y-59314344D01*
X37027000Y-59314344D01*
X37027000Y-55813605D01*
X40166000Y-55813605D01*
X40291914Y-56103577D01*
X40624126Y-56269433D01*
X40982312Y-56367290D01*
X41352706Y-56393389D01*
X41721075Y-56346725D01*
X42073262Y-56229094D01*
X42308086Y-56103577D01*
X42434000Y-55813605D01*
X41300000Y-54679605D01*
X40166000Y-55813605D01*
X37027000Y-55813605D01*
X37027000Y-54552706D01*
X39406611Y-54552706D01*
X39453275Y-54921075D01*
X39570906Y-55273262D01*
X39696423Y-55508086D01*
X39986395Y-55634000D01*
X41120395Y-54500000D01*
X41479605Y-54500000D01*
X42613605Y-55634000D01*
X42903577Y-55508086D01*
X43069433Y-55175874D01*
X43167290Y-54817688D01*
X43193389Y-54447294D01*
X43146725Y-54078925D01*
X43029094Y-53726738D01*
X42903577Y-53491914D01*
X42613605Y-53366000D01*
X41479605Y-54500000D01*
X41120395Y-54500000D01*
X39986395Y-53366000D01*
X39696423Y-53491914D01*
X39530567Y-53824126D01*
X39432710Y-54182312D01*
X39406611Y-54552706D01*
X37027000Y-54552706D01*
X37027000Y-53186395D01*
X40166000Y-53186395D01*
X41300000Y-54320395D01*
X42434000Y-53186395D01*
X42308086Y-52896423D01*
X41975874Y-52730567D01*
X41617688Y-52632710D01*
X41247294Y-52606611D01*
X40878925Y-52653275D01*
X40526738Y-52770906D01*
X40291914Y-52896423D01*
X40166000Y-53186395D01*
X37027000Y-53186395D01*
X37027000Y-48250000D01*
X39411928Y-48250000D01*
X39411928Y-50750000D01*
X39424188Y-50874482D01*
X39460498Y-50994180D01*
X39519463Y-51104494D01*
X39598815Y-51201185D01*
X39695506Y-51280537D01*
X39805820Y-51339502D01*
X39925518Y-51375812D01*
X40050000Y-51388072D01*
X42550000Y-51388072D01*
X42674482Y-51375812D01*
X42794180Y-51339502D01*
X42904494Y-51280537D01*
X43001185Y-51201185D01*
X43080537Y-51104494D01*
X43139502Y-50994180D01*
X43175812Y-50874482D01*
X43188072Y-50750000D01*
X43188072Y-48250000D01*
X43175812Y-48125518D01*
X43139502Y-48005820D01*
X43080537Y-47895506D01*
X43001185Y-47798815D01*
X42904494Y-47719463D01*
X42794180Y-47660498D01*
X42674482Y-47624188D01*
X42550000Y-47611928D01*
X40050000Y-47611928D01*
X39925518Y-47624188D01*
X39805820Y-47660498D01*
X39695506Y-47719463D01*
X39598815Y-47798815D01*
X39519463Y-47895506D01*
X39460498Y-48005820D01*
X39424188Y-48125518D01*
X39411928Y-48250000D01*
X37027000Y-48250000D01*
X37027000Y-44658665D01*
X42505000Y-44658665D01*
X42505000Y-44941335D01*
X42560147Y-45218574D01*
X42668320Y-45479727D01*
X42825363Y-45714759D01*
X43025241Y-45914637D01*
X43260273Y-46071680D01*
X43521426Y-46179853D01*
X43798665Y-46235000D01*
X44081335Y-46235000D01*
X44358574Y-46179853D01*
X44619727Y-46071680D01*
X44854759Y-45914637D01*
X45054637Y-45714759D01*
X45211680Y-45479727D01*
X45319853Y-45218574D01*
X45375000Y-44941335D01*
X45375000Y-44658665D01*
X52665000Y-44658665D01*
X52665000Y-44941335D01*
X52720147Y-45218574D01*
X52828320Y-45479727D01*
X52985363Y-45714759D01*
X53185241Y-45914637D01*
X53420273Y-46071680D01*
X53681426Y-46179853D01*
X53958665Y-46235000D01*
X54241335Y-46235000D01*
X54518574Y-46179853D01*
X54779727Y-46071680D01*
X55014759Y-45914637D01*
X55214637Y-45714759D01*
X55318043Y-45560000D01*
X57832678Y-45560000D01*
X57870000Y-45563676D01*
X57907322Y-45560000D01*
X57907333Y-45560000D01*
X58018986Y-45549003D01*
X58162247Y-45505546D01*
X58294276Y-45434974D01*
X58410001Y-45340001D01*
X58433804Y-45310998D01*
X59381004Y-44363798D01*
X59410001Y-44340001D01*
X59504974Y-44224276D01*
X59575546Y-44092247D01*
X59592169Y-44037446D01*
X59722780Y-44107259D01*
X59927303Y-44169300D01*
X60140000Y-44190249D01*
X60352696Y-44169300D01*
X60557219Y-44107259D01*
X60745710Y-44006509D01*
X60910922Y-43870922D01*
X61046509Y-43705710D01*
X61124393Y-43560000D01*
X79262678Y-43560000D01*
X79300000Y-43563676D01*
X79337322Y-43560000D01*
X79337333Y-43560000D01*
X79448986Y-43549003D01*
X79592247Y-43505546D01*
X79724276Y-43434974D01*
X79840001Y-43340001D01*
X79863803Y-43310998D01*
X80711004Y-42463798D01*
X80740001Y-42440001D01*
X80834974Y-42324276D01*
X80905546Y-42192247D01*
X80949003Y-42048986D01*
X80955003Y-41988072D01*
X81450000Y-41988072D01*
X81574482Y-41975812D01*
X81694180Y-41939502D01*
X81804494Y-41880537D01*
X81901185Y-41801185D01*
X81980537Y-41704494D01*
X82039502Y-41594180D01*
X82075812Y-41474482D01*
X82088072Y-41350000D01*
X82088072Y-38850000D01*
X82075812Y-38725518D01*
X82039502Y-38605820D01*
X81980537Y-38495506D01*
X81901185Y-38398815D01*
X81804494Y-38319463D01*
X81694180Y-38260498D01*
X81574482Y-38224188D01*
X81450000Y-38211928D01*
X78950000Y-38211928D01*
X78825518Y-38224188D01*
X78705820Y-38260498D01*
X78595506Y-38319463D01*
X78498815Y-38398815D01*
X78419463Y-38495506D01*
X78360498Y-38605820D01*
X78324188Y-38725518D01*
X78311928Y-38850000D01*
X78311928Y-41350000D01*
X78324188Y-41474482D01*
X78360498Y-41594180D01*
X78419463Y-41704494D01*
X78498815Y-41801185D01*
X78595506Y-41880537D01*
X78705820Y-41939502D01*
X78825518Y-41975812D01*
X78950000Y-41988072D01*
X79037127Y-41988072D01*
X78985199Y-42040000D01*
X61124392Y-42040000D01*
X61046509Y-41894290D01*
X60910922Y-41729078D01*
X60745710Y-41593491D01*
X60557220Y-41492741D01*
X60352697Y-41430700D01*
X60140000Y-41409751D01*
X59927304Y-41430700D01*
X59722781Y-41492741D01*
X59534291Y-41593491D01*
X59505000Y-41617529D01*
X59475710Y-41593491D01*
X59287220Y-41492741D01*
X59082697Y-41430700D01*
X58870000Y-41409751D01*
X58657304Y-41430700D01*
X58452781Y-41492741D01*
X58403641Y-41519007D01*
X58294180Y-41460498D01*
X58174482Y-41424188D01*
X58050000Y-41411928D01*
X57885750Y-41415000D01*
X57727000Y-41573750D01*
X57727000Y-42673000D01*
X57747000Y-42673000D01*
X57747000Y-42927000D01*
X57727000Y-42927000D01*
X57727000Y-42947000D01*
X57473000Y-42947000D01*
X57473000Y-42927000D01*
X56673750Y-42927000D01*
X56515000Y-43085750D01*
X56511928Y-43550000D01*
X56524188Y-43674482D01*
X56560498Y-43794180D01*
X56619463Y-43904494D01*
X56698815Y-44001185D01*
X56746111Y-44040000D01*
X55318043Y-44040000D01*
X55214637Y-43885241D01*
X55014759Y-43685363D01*
X54779727Y-43528320D01*
X54518574Y-43420147D01*
X54241335Y-43365000D01*
X53958665Y-43365000D01*
X53681426Y-43420147D01*
X53420273Y-43528320D01*
X53185241Y-43685363D01*
X52985363Y-43885241D01*
X52828320Y-44120273D01*
X52720147Y-44381426D01*
X52665000Y-44658665D01*
X45375000Y-44658665D01*
X45319853Y-44381426D01*
X45211680Y-44120273D01*
X45054637Y-43885241D01*
X44854759Y-43685363D01*
X44619727Y-43528320D01*
X44358574Y-43420147D01*
X44081335Y-43365000D01*
X43798665Y-43365000D01*
X43521426Y-43420147D01*
X43260273Y-43528320D01*
X43025241Y-43685363D01*
X42825363Y-43885241D01*
X42668320Y-44120273D01*
X42560147Y-44381426D01*
X42505000Y-44658665D01*
X37027000Y-44658665D01*
X37027000Y-42050000D01*
X56511928Y-42050000D01*
X56515000Y-42514250D01*
X56673750Y-42673000D01*
X57473000Y-42673000D01*
X57473000Y-41573750D01*
X57314250Y-41415000D01*
X57150000Y-41411928D01*
X57025518Y-41424188D01*
X56905820Y-41460498D01*
X56795506Y-41519463D01*
X56698815Y-41598815D01*
X56619463Y-41695506D01*
X56560498Y-41805820D01*
X56524188Y-41925518D01*
X56511928Y-42050000D01*
X37027000Y-42050000D01*
X37027000Y-39914344D01*
X63315000Y-39914344D01*
X63315000Y-40285656D01*
X63387439Y-40649834D01*
X63529534Y-40992882D01*
X63735825Y-41301618D01*
X63998382Y-41564175D01*
X64307118Y-41770466D01*
X64650166Y-41912561D01*
X65014344Y-41985000D01*
X65385656Y-41985000D01*
X65749834Y-41912561D01*
X66092882Y-41770466D01*
X66401618Y-41564175D01*
X66552188Y-41413605D01*
X69066000Y-41413605D01*
X69191914Y-41703577D01*
X69524126Y-41869433D01*
X69882312Y-41967290D01*
X70252706Y-41993389D01*
X70621075Y-41946725D01*
X70973262Y-41829094D01*
X71208086Y-41703577D01*
X71334000Y-41413605D01*
X70200000Y-40279605D01*
X69066000Y-41413605D01*
X66552188Y-41413605D01*
X66664175Y-41301618D01*
X66870466Y-40992882D01*
X67012561Y-40649834D01*
X67085000Y-40285656D01*
X67085000Y-40152706D01*
X68306611Y-40152706D01*
X68353275Y-40521075D01*
X68470906Y-40873262D01*
X68596423Y-41108086D01*
X68886395Y-41234000D01*
X70020395Y-40100000D01*
X70379605Y-40100000D01*
X71513605Y-41234000D01*
X71803577Y-41108086D01*
X71969433Y-40775874D01*
X72067290Y-40417688D01*
X72093389Y-40047294D01*
X72046725Y-39678925D01*
X71929094Y-39326738D01*
X71803577Y-39091914D01*
X71513605Y-38966000D01*
X70379605Y-40100000D01*
X70020395Y-40100000D01*
X68886395Y-38966000D01*
X68596423Y-39091914D01*
X68430567Y-39424126D01*
X68332710Y-39782312D01*
X68306611Y-40152706D01*
X67085000Y-40152706D01*
X67085000Y-39914344D01*
X67012561Y-39550166D01*
X66988585Y-39492283D01*
X67694473Y-38786395D01*
X69066000Y-38786395D01*
X70200000Y-39920395D01*
X71334000Y-38786395D01*
X71208086Y-38496423D01*
X70875874Y-38330567D01*
X70517688Y-38232710D01*
X70147294Y-38206611D01*
X69778925Y-38253275D01*
X69426738Y-38370906D01*
X69191914Y-38496423D01*
X69066000Y-38786395D01*
X67694473Y-38786395D01*
X68845869Y-37635000D01*
X71554133Y-37635000D01*
X73411415Y-39492283D01*
X73387439Y-39550166D01*
X73315000Y-39914344D01*
X73315000Y-40285656D01*
X73387439Y-40649834D01*
X73529534Y-40992882D01*
X73735825Y-41301618D01*
X73998382Y-41564175D01*
X74307118Y-41770466D01*
X74650166Y-41912561D01*
X75014344Y-41985000D01*
X75385656Y-41985000D01*
X75749834Y-41912561D01*
X76092882Y-41770466D01*
X76401618Y-41564175D01*
X76664175Y-41301618D01*
X76870466Y-40992882D01*
X77012561Y-40649834D01*
X77085000Y-40285656D01*
X77085000Y-39914344D01*
X77012561Y-39550166D01*
X76870466Y-39207118D01*
X76664175Y-38898382D01*
X76401618Y-38635825D01*
X76092882Y-38429534D01*
X75749834Y-38287439D01*
X75385656Y-38215000D01*
X75014344Y-38215000D01*
X74650166Y-38287439D01*
X74592283Y-38311415D01*
X72519446Y-36238579D01*
X72493291Y-36206709D01*
X72366146Y-36102364D01*
X72221087Y-36024828D01*
X72063689Y-35977082D01*
X71941019Y-35965000D01*
X71941018Y-35965000D01*
X71900000Y-35960960D01*
X71858982Y-35965000D01*
X68541018Y-35965000D01*
X68500000Y-35960960D01*
X68458982Y-35965000D01*
X68458981Y-35965000D01*
X68336311Y-35977082D01*
X68196078Y-36019621D01*
X68178913Y-36024828D01*
X68033854Y-36102364D01*
X67950216Y-36171004D01*
X67906709Y-36206709D01*
X67880563Y-36238568D01*
X65807717Y-38311415D01*
X65749834Y-38287439D01*
X65385656Y-38215000D01*
X65014344Y-38215000D01*
X64650166Y-38287439D01*
X64307118Y-38429534D01*
X63998382Y-38635825D01*
X63735825Y-38898382D01*
X63529534Y-39207118D01*
X63387439Y-39550166D01*
X63315000Y-39914344D01*
X37027000Y-39914344D01*
X37027000Y-35604332D01*
X37060989Y-35562657D01*
X37104091Y-35527000D01*
X84209332Y-35527000D01*
X83893425Y-35842907D01*
G36*
X75533903Y-91648705D02*
G01*
X75346320Y-91640439D01*
X75082499Y-91680937D01*
X74831647Y-91772125D01*
X74725932Y-91828632D01*
X74664045Y-92064440D01*
X75420000Y-92820395D01*
X75434143Y-92806253D01*
X75613748Y-92985858D01*
X75599605Y-93000000D01*
X75613748Y-93014143D01*
X75434143Y-93193748D01*
X75420000Y-93179605D01*
X75405858Y-93193748D01*
X75226253Y-93014143D01*
X75240395Y-93000000D01*
X74484440Y-92244045D01*
X74248632Y-92305932D01*
X74135734Y-92547790D01*
X74072189Y-92807027D01*
X74060439Y-93073680D01*
X74092878Y-93285001D01*
X71824856Y-93285001D01*
X71855000Y-93133456D01*
X71855000Y-92866544D01*
X71802928Y-92604761D01*
X71700785Y-92358167D01*
X71552497Y-92136238D01*
X71363762Y-91947503D01*
X71260000Y-91878172D01*
X71260000Y-87374801D01*
X75533903Y-91648705D01*
G37*
X75533903Y-91648705D02*
X75346320Y-91640439D01*
X75082499Y-91680937D01*
X74831647Y-91772125D01*
X74725932Y-91828632D01*
X74664045Y-92064440D01*
X75420000Y-92820395D01*
X75434143Y-92806253D01*
X75613748Y-92985858D01*
X75599605Y-93000000D01*
X75613748Y-93014143D01*
X75434143Y-93193748D01*
X75420000Y-93179605D01*
X75405858Y-93193748D01*
X75226253Y-93014143D01*
X75240395Y-93000000D01*
X74484440Y-92244045D01*
X74248632Y-92305932D01*
X74135734Y-92547790D01*
X74072189Y-92807027D01*
X74060439Y-93073680D01*
X74092878Y-93285001D01*
X71824856Y-93285001D01*
X71855000Y-93133456D01*
X71855000Y-92866544D01*
X71802928Y-92604761D01*
X71700785Y-92358167D01*
X71552497Y-92136238D01*
X71363762Y-91947503D01*
X71260000Y-91878172D01*
X71260000Y-87374801D01*
X75533903Y-91648705D01*
G36*
X73245241Y-60614637D02*
G01*
X73480273Y-60771680D01*
X73741426Y-60879853D01*
X74018665Y-60935000D01*
X74301335Y-60935000D01*
X74578574Y-60879853D01*
X74839727Y-60771680D01*
X75074759Y-60614637D01*
X75115000Y-60574396D01*
X75115000Y-61810198D01*
X74960198Y-61965000D01*
X74898061Y-61965000D01*
X74698102Y-62004774D01*
X74509744Y-62082795D01*
X74340226Y-62196063D01*
X74196063Y-62340226D01*
X74082795Y-62509744D01*
X74004774Y-62698102D01*
X74002167Y-62711206D01*
X73890624Y-62507000D01*
X72747000Y-62507000D01*
X72747000Y-62527000D01*
X72493000Y-62527000D01*
X72493000Y-62507000D01*
X72473000Y-62507000D01*
X72473000Y-62253000D01*
X72493000Y-62253000D01*
X72493000Y-61110085D01*
X72747000Y-61110085D01*
X72747000Y-62253000D01*
X73890624Y-62253000D01*
X74011909Y-62030960D01*
X73917070Y-61766119D01*
X73772385Y-61524869D01*
X73583414Y-61316481D01*
X73357420Y-61148963D01*
X73103087Y-61028754D01*
X72969039Y-60988096D01*
X72747000Y-61110085D01*
X72493000Y-61110085D01*
X72448929Y-61085872D01*
X73082703Y-60452099D01*
X73245241Y-60614637D01*
G37*
X73245241Y-60614637D02*
X73480273Y-60771680D01*
X73741426Y-60879853D01*
X74018665Y-60935000D01*
X74301335Y-60935000D01*
X74578574Y-60879853D01*
X74839727Y-60771680D01*
X75074759Y-60614637D01*
X75115000Y-60574396D01*
X75115000Y-61810198D01*
X74960198Y-61965000D01*
X74898061Y-61965000D01*
X74698102Y-62004774D01*
X74509744Y-62082795D01*
X74340226Y-62196063D01*
X74196063Y-62340226D01*
X74082795Y-62509744D01*
X74004774Y-62698102D01*
X74002167Y-62711206D01*
X73890624Y-62507000D01*
X72747000Y-62507000D01*
X72747000Y-62527000D01*
X72493000Y-62527000D01*
X72493000Y-62507000D01*
X72473000Y-62507000D01*
X72473000Y-62253000D01*
X72493000Y-62253000D01*
X72493000Y-61110085D01*
X72747000Y-61110085D01*
X72747000Y-62253000D01*
X73890624Y-62253000D01*
X74011909Y-62030960D01*
X73917070Y-61766119D01*
X73772385Y-61524869D01*
X73583414Y-61316481D01*
X73357420Y-61148963D01*
X73103087Y-61028754D01*
X72969039Y-60988096D01*
X72747000Y-61110085D01*
X72493000Y-61110085D01*
X72448929Y-61085872D01*
X73082703Y-60452099D01*
X73245241Y-60614637D01*
%TD*%
M02*
