%TF.GenerationSoftware,KiCad,Pcbnew,(5.1.6)-1*%
%TF.CreationDate,2020-09-03T17:42:13-04:00*%
%TF.ProjectId,GalvoDriver,47616c76-6f44-4726-9976-65722e6b6963,rev?*%
%TF.SameCoordinates,Original*%
%TF.FileFunction,Copper,L3,Inr*%
%TF.FilePolarity,Positive*%
%FSLAX46Y46*%
G04 Gerber Fmt 4.6, Leading zero omitted, Abs format (unit mm)*
G04 Created by KiCad (PCBNEW (5.1.6)-1) date 2020-09-03 17:42:13*
%MOMM*%
%LPD*%
G01*
G04 APERTURE LIST*
%TA.AperFunction,ViaPad*%
%ADD10C,1.600000*%
%TD*%
%TA.AperFunction,ViaPad*%
%ADD11O,1.600000X1.600000*%
%TD*%
%TA.AperFunction,ViaPad*%
%ADD12C,1.440000*%
%TD*%
%TA.AperFunction,ViaPad*%
%ADD13R,1.600000X1.600000*%
%TD*%
%TA.AperFunction,ViaPad*%
%ADD14R,1.700000X1.700000*%
%TD*%
%TA.AperFunction,ViaPad*%
%ADD15O,1.700000X1.700000*%
%TD*%
%TA.AperFunction,ViaPad*%
%ADD16O,1.800000X2.800000*%
%TD*%
%TA.AperFunction,ViaPad*%
%ADD17C,1.750000*%
%TD*%
%TA.AperFunction,ViaPad*%
%ADD18R,1.750000X1.750000*%
%TD*%
%TA.AperFunction,ViaPad*%
%ADD19C,2.500000*%
%TD*%
%TA.AperFunction,ViaPad*%
%ADD20R,2.500000X2.500000*%
%TD*%
%TA.AperFunction,ViaPad*%
%ADD21R,1.520000X1.520000*%
%TD*%
%TA.AperFunction,ViaPad*%
%ADD22C,1.520000*%
%TD*%
%TA.AperFunction,ViaPad*%
%ADD23C,0.800000*%
%TD*%
%TA.AperFunction,Conductor*%
%ADD24C,0.254000*%
%TD*%
G04 APERTURE END LIST*
D10*
%TO.N,VDD*%
%TO.C,C1*%
X61000000Y-88500000D03*
%TO.N,GND*%
X61000000Y-91000000D03*
%TD*%
D11*
%TO.N,Net-(R1-Pad2)*%
%TO.C,R1*%
X74160000Y-59500000D03*
D10*
%TO.N,A_ILDA+*%
X64000000Y-59500000D03*
%TD*%
%TO.N,Net-(J4-Pad1)*%
%TO.C,R2*%
X61500000Y-55000000D03*
D11*
%TO.N,DAC_A*%
X61500000Y-65160000D03*
%TD*%
D10*
%TO.N,Net-(R1-Pad2)*%
%TO.C,R3*%
X74000000Y-56500000D03*
D11*
%TO.N,A_ILDA-*%
X63840000Y-56500000D03*
%TD*%
%TO.N,+VIN*%
%TO.C,R4*%
X77000000Y-66160000D03*
D10*
%TO.N,Net-(R4-Pad1)*%
X77000000Y-56000000D03*
%TD*%
D11*
%TO.N,Net-(R5-Pad2)*%
%TO.C,R5*%
X74160000Y-87000000D03*
D10*
%TO.N,B_ILDA+*%
X64000000Y-87000000D03*
%TD*%
%TO.N,Net-(J5-Pad1)*%
%TO.C,R6*%
X61500000Y-68500000D03*
D11*
%TO.N,DAC_B*%
X61500000Y-78660000D03*
%TD*%
D10*
%TO.N,Net-(R5-Pad2)*%
%TO.C,R7*%
X74000000Y-84000000D03*
D11*
%TO.N,B_ILDA-*%
X63840000Y-84000000D03*
%TD*%
%TO.N,+VIN*%
%TO.C,R8*%
X77000000Y-76840000D03*
D10*
%TO.N,Net-(R8-Pad1)*%
X77000000Y-87000000D03*
%TD*%
D12*
%TO.N,Net-(RV1-Pad3)*%
%TO.C,RV1*%
X65420000Y-50500000D03*
%TO.N,A_ILDA-*%
X67960000Y-50500000D03*
%TO.N,Net-(J4-Pad2)*%
X70500000Y-50500000D03*
%TD*%
%TO.N,Net-(R4-Pad1)*%
%TO.C,RV2*%
X80500000Y-50500000D03*
%TO.N,Net-(RV2-Pad2)*%
X77960000Y-50500000D03*
%TO.N,GND*%
X75420000Y-50500000D03*
%TD*%
%TO.N,Net-(J5-Pad2)*%
%TO.C,RV3*%
X70500000Y-93000000D03*
%TO.N,B_ILDA-*%
X67960000Y-93000000D03*
%TO.N,Net-(RV3-Pad3)*%
X65420000Y-93000000D03*
%TD*%
%TO.N,GND*%
%TO.C,RV4*%
X75420000Y-93000000D03*
%TO.N,Net-(RV4-Pad2)*%
X77960000Y-93000000D03*
%TO.N,Net-(R8-Pad1)*%
X80500000Y-93000000D03*
%TD*%
D11*
%TO.N,+VIN*%
%TO.C,U1*%
X65000000Y-62380000D03*
%TO.N,-VIN*%
X72620000Y-70000000D03*
%TO.N,A_ILDA+*%
X67540000Y-62380000D03*
%TO.N,Net-(RV2-Pad2)*%
X70080000Y-70000000D03*
%TO.N,Net-(R1-Pad2)*%
X70080000Y-62380000D03*
%TO.N,Net-(J4-Pad2)*%
X67540000Y-70000000D03*
%TO.N,GND*%
X72620000Y-62380000D03*
D13*
%TO.N,A_ILDA-*%
X65000000Y-70000000D03*
%TD*%
D11*
%TO.N,DAC_A*%
%TO.C,U2*%
X57500000Y-93620000D03*
%TO.N,MOSI*%
X49880000Y-86000000D03*
%TO.N,GND*%
X54960000Y-93620000D03*
%TO.N,CLK*%
X52420000Y-86000000D03*
%TO.N,DAC_B*%
X52420000Y-93620000D03*
%TO.N,GND*%
X54960000Y-86000000D03*
X49880000Y-93620000D03*
D13*
%TO.N,VDD*%
X57500000Y-86000000D03*
%TD*%
%TO.N,B_ILDA-*%
%TO.C,U3*%
X65000000Y-81000000D03*
D11*
%TO.N,GND*%
X72620000Y-73380000D03*
%TO.N,Net-(J5-Pad2)*%
X67540000Y-81000000D03*
%TO.N,Net-(R5-Pad2)*%
X70080000Y-73380000D03*
%TO.N,Net-(RV4-Pad2)*%
X70080000Y-81000000D03*
%TO.N,B_ILDA+*%
X67540000Y-73380000D03*
%TO.N,-VIN*%
X72620000Y-81000000D03*
%TO.N,+VIN*%
X65000000Y-73380000D03*
%TD*%
D14*
%TO.N,Net-(J4-Pad1)*%
%TO.C,J4*%
X58000000Y-59000000D03*
D15*
%TO.N,Net-(J4-Pad2)*%
X55460000Y-59000000D03*
%TO.N,Net-(J4-Pad3)*%
X52920000Y-59000000D03*
%TD*%
%TO.N,Net-(J5-Pad3)*%
%TO.C,J5*%
X52460000Y-74500000D03*
%TO.N,Net-(J5-Pad2)*%
X55000000Y-74500000D03*
D14*
%TO.N,Net-(J5-Pad1)*%
X57540000Y-74500000D03*
%TD*%
D16*
%TO.N,GND*%
%TO.C,J6*%
X38500000Y-65200000D03*
%TO.N,AUDIO_L*%
X40900000Y-63200000D03*
%TO.N,AUDIO_R*%
X46400000Y-63200000D03*
%TD*%
D11*
%TO.N,AUDIO_L*%
%TO.C,R9*%
X50000000Y-58860000D03*
D10*
%TO.N,Net-(J4-Pad3)*%
X50000000Y-48700000D03*
%TD*%
%TO.N,Net-(J5-Pad3)*%
%TO.C,R10*%
X49500000Y-83000000D03*
D11*
%TO.N,AUDIO_R*%
X49500000Y-72840000D03*
%TD*%
D17*
%TO.N,A_ILDA-*%
%TO.C,J2*%
X85500000Y-64000000D03*
%TO.N,GND*%
X85500000Y-61500000D03*
D18*
%TO.N,A_ILDA+*%
X85500000Y-59000000D03*
%TD*%
%TO.N,B_ILDA+*%
%TO.C,J7*%
X85500000Y-80000000D03*
D17*
%TO.N,GND*%
X85500000Y-82500000D03*
%TO.N,B_ILDA-*%
X85500000Y-85000000D03*
%TD*%
D19*
%TO.N,GND*%
%TO.C,J1*%
X40200000Y-52700000D03*
D20*
%TO.N,+VIN*%
X40200000Y-47700000D03*
D19*
%TO.N,-VIN*%
X40200000Y-57700000D03*
%TD*%
%TO.N,VSS*%
%TO.C,J8*%
X75200000Y-40100000D03*
D20*
%TO.N,Net-(J8-Pad1)*%
X80200000Y-40100000D03*
D19*
%TO.N,GND*%
X70200000Y-40100000D03*
%TO.N,VSS*%
X65200000Y-40100000D03*
%TD*%
D11*
%TO.N,LASER*%
%TO.C,R11*%
X43140000Y-42900000D03*
D10*
%TO.N,Net-(Q1-Pad2)*%
X53300000Y-42900000D03*
%TD*%
D15*
%TO.N,GND*%
%TO.C,J3*%
X35400000Y-86760000D03*
%TO.N,LASER*%
X35400000Y-84220000D03*
%TO.N,Net-(J3-Pad3)*%
X35400000Y-81680000D03*
%TO.N,Net-(J3-Pad2)*%
X35400000Y-79140000D03*
D14*
%TO.N,VDD*%
X35400000Y-76600000D03*
%TD*%
D21*
%TO.N,GND*%
%TO.C,Q1*%
X56000000Y-42800000D03*
D22*
%TO.N,Net-(J8-Pad1)*%
X61080000Y-42800000D03*
%TO.N,Net-(Q1-Pad2)*%
X58540000Y-42800000D03*
%TD*%
D11*
%TO.N,VDD*%
%TO.C,U4*%
X46520000Y-71500000D03*
%TO.N,GND*%
X38900000Y-86740000D03*
%TO.N,VDD*%
X46520000Y-74040000D03*
%TO.N,MOSI*%
X38900000Y-84200000D03*
%TO.N,GND*%
X46520000Y-76580000D03*
%TO.N,Net-(J3-Pad3)*%
X38900000Y-81660000D03*
%TO.N,Net-(U4-Pad11)*%
X46520000Y-79120000D03*
%TO.N,GND*%
X38900000Y-79120000D03*
%TO.N,VDD*%
X46520000Y-81660000D03*
%TO.N,CLK*%
X38900000Y-76580000D03*
%TO.N,GND*%
X46520000Y-84200000D03*
%TO.N,Net-(J3-Pad2)*%
X38900000Y-74040000D03*
%TO.N,Net-(U4-Pad8)*%
X46520000Y-86740000D03*
D13*
%TO.N,GND*%
X38900000Y-71500000D03*
%TD*%
D10*
%TO.N,GND*%
%TO.C,C2*%
X54900000Y-71200000D03*
%TO.N,VDD*%
X52400000Y-71200000D03*
%TD*%
D23*
%TO.N,Net-(RV2-Pad2)*%
X75000000Y-63000000D03*
X75000000Y-65500000D03*
%TO.N,Net-(J4-Pad2)*%
X64500000Y-64500000D03*
X61500000Y-62000000D03*
%TO.N,DAC_B*%
X58000000Y-88000000D03*
X61000000Y-85000000D03*
%TD*%
D24*
%TO.N,-VIN*%
G36*
X88840000Y-95467721D02*
G01*
X88830420Y-95565424D01*
X88811420Y-95628357D01*
X88780554Y-95686406D01*
X88739011Y-95737343D01*
X88688356Y-95779248D01*
X88630529Y-95810515D01*
X88567728Y-95829956D01*
X88472165Y-95840000D01*
X38223668Y-95840000D01*
X38606575Y-95457093D01*
X38959730Y-94928558D01*
X39202988Y-94341281D01*
X39327000Y-93717832D01*
X39327000Y-93478665D01*
X48445000Y-93478665D01*
X48445000Y-93761335D01*
X48500147Y-94038574D01*
X48608320Y-94299727D01*
X48765363Y-94534759D01*
X48965241Y-94734637D01*
X49200273Y-94891680D01*
X49461426Y-94999853D01*
X49738665Y-95055000D01*
X50021335Y-95055000D01*
X50298574Y-94999853D01*
X50559727Y-94891680D01*
X50794759Y-94734637D01*
X50994637Y-94534759D01*
X51150000Y-94302241D01*
X51305363Y-94534759D01*
X51505241Y-94734637D01*
X51740273Y-94891680D01*
X52001426Y-94999853D01*
X52278665Y-95055000D01*
X52561335Y-95055000D01*
X52838574Y-94999853D01*
X53099727Y-94891680D01*
X53334759Y-94734637D01*
X53534637Y-94534759D01*
X53690000Y-94302241D01*
X53845363Y-94534759D01*
X54045241Y-94734637D01*
X54280273Y-94891680D01*
X54541426Y-94999853D01*
X54818665Y-95055000D01*
X55101335Y-95055000D01*
X55378574Y-94999853D01*
X55639727Y-94891680D01*
X55874759Y-94734637D01*
X56074637Y-94534759D01*
X56230000Y-94302241D01*
X56385363Y-94534759D01*
X56585241Y-94734637D01*
X56820273Y-94891680D01*
X57081426Y-94999853D01*
X57358665Y-95055000D01*
X57641335Y-95055000D01*
X57918574Y-94999853D01*
X58179727Y-94891680D01*
X58414759Y-94734637D01*
X58614637Y-94534759D01*
X58771680Y-94299727D01*
X58879853Y-94038574D01*
X58935000Y-93761335D01*
X58935000Y-93478665D01*
X58879853Y-93201426D01*
X58771680Y-92940273D01*
X58722416Y-92866544D01*
X64065000Y-92866544D01*
X64065000Y-93133456D01*
X64117072Y-93395239D01*
X64219215Y-93641833D01*
X64367503Y-93863762D01*
X64556238Y-94052497D01*
X64778167Y-94200785D01*
X65024761Y-94302928D01*
X65286544Y-94355000D01*
X65553456Y-94355000D01*
X65815239Y-94302928D01*
X66061833Y-94200785D01*
X66283762Y-94052497D01*
X66472497Y-93863762D01*
X66620785Y-93641833D01*
X66690000Y-93474734D01*
X66759215Y-93641833D01*
X66907503Y-93863762D01*
X67096238Y-94052497D01*
X67318167Y-94200785D01*
X67564761Y-94302928D01*
X67826544Y-94355000D01*
X68093456Y-94355000D01*
X68355239Y-94302928D01*
X68601833Y-94200785D01*
X68823762Y-94052497D01*
X69012497Y-93863762D01*
X69160785Y-93641833D01*
X69230000Y-93474734D01*
X69299215Y-93641833D01*
X69447503Y-93863762D01*
X69636238Y-94052497D01*
X69858167Y-94200785D01*
X70104761Y-94302928D01*
X70366544Y-94355000D01*
X70633456Y-94355000D01*
X70895239Y-94302928D01*
X71141833Y-94200785D01*
X71363762Y-94052497D01*
X71552497Y-93863762D01*
X71700785Y-93641833D01*
X71802928Y-93395239D01*
X71855000Y-93133456D01*
X71855000Y-92866544D01*
X74065000Y-92866544D01*
X74065000Y-93133456D01*
X74117072Y-93395239D01*
X74219215Y-93641833D01*
X74367503Y-93863762D01*
X74556238Y-94052497D01*
X74778167Y-94200785D01*
X75024761Y-94302928D01*
X75286544Y-94355000D01*
X75553456Y-94355000D01*
X75815239Y-94302928D01*
X76061833Y-94200785D01*
X76283762Y-94052497D01*
X76472497Y-93863762D01*
X76620785Y-93641833D01*
X76690000Y-93474734D01*
X76759215Y-93641833D01*
X76907503Y-93863762D01*
X77096238Y-94052497D01*
X77318167Y-94200785D01*
X77564761Y-94302928D01*
X77826544Y-94355000D01*
X78093456Y-94355000D01*
X78355239Y-94302928D01*
X78601833Y-94200785D01*
X78823762Y-94052497D01*
X79012497Y-93863762D01*
X79160785Y-93641833D01*
X79230000Y-93474734D01*
X79299215Y-93641833D01*
X79447503Y-93863762D01*
X79636238Y-94052497D01*
X79858167Y-94200785D01*
X80104761Y-94302928D01*
X80366544Y-94355000D01*
X80633456Y-94355000D01*
X80895239Y-94302928D01*
X81141833Y-94200785D01*
X81363762Y-94052497D01*
X81552497Y-93863762D01*
X81700785Y-93641833D01*
X81802928Y-93395239D01*
X81855000Y-93133456D01*
X81855000Y-92866544D01*
X81802928Y-92604761D01*
X81700785Y-92358167D01*
X81552497Y-92136238D01*
X81363762Y-91947503D01*
X81141833Y-91799215D01*
X80895239Y-91697072D01*
X80633456Y-91645000D01*
X80366544Y-91645000D01*
X80104761Y-91697072D01*
X79858167Y-91799215D01*
X79636238Y-91947503D01*
X79447503Y-92136238D01*
X79299215Y-92358167D01*
X79230000Y-92525266D01*
X79160785Y-92358167D01*
X79012497Y-92136238D01*
X78823762Y-91947503D01*
X78601833Y-91799215D01*
X78355239Y-91697072D01*
X78093456Y-91645000D01*
X77826544Y-91645000D01*
X77564761Y-91697072D01*
X77318167Y-91799215D01*
X77096238Y-91947503D01*
X76907503Y-92136238D01*
X76759215Y-92358167D01*
X76690000Y-92525266D01*
X76620785Y-92358167D01*
X76472497Y-92136238D01*
X76283762Y-91947503D01*
X76061833Y-91799215D01*
X75815239Y-91697072D01*
X75553456Y-91645000D01*
X75286544Y-91645000D01*
X75024761Y-91697072D01*
X74778167Y-91799215D01*
X74556238Y-91947503D01*
X74367503Y-92136238D01*
X74219215Y-92358167D01*
X74117072Y-92604761D01*
X74065000Y-92866544D01*
X71855000Y-92866544D01*
X71802928Y-92604761D01*
X71700785Y-92358167D01*
X71552497Y-92136238D01*
X71363762Y-91947503D01*
X71141833Y-91799215D01*
X70895239Y-91697072D01*
X70633456Y-91645000D01*
X70366544Y-91645000D01*
X70104761Y-91697072D01*
X69858167Y-91799215D01*
X69636238Y-91947503D01*
X69447503Y-92136238D01*
X69299215Y-92358167D01*
X69230000Y-92525266D01*
X69160785Y-92358167D01*
X69012497Y-92136238D01*
X68823762Y-91947503D01*
X68601833Y-91799215D01*
X68355239Y-91697072D01*
X68093456Y-91645000D01*
X67826544Y-91645000D01*
X67564761Y-91697072D01*
X67318167Y-91799215D01*
X67096238Y-91947503D01*
X66907503Y-92136238D01*
X66759215Y-92358167D01*
X66690000Y-92525266D01*
X66620785Y-92358167D01*
X66472497Y-92136238D01*
X66283762Y-91947503D01*
X66061833Y-91799215D01*
X65815239Y-91697072D01*
X65553456Y-91645000D01*
X65286544Y-91645000D01*
X65024761Y-91697072D01*
X64778167Y-91799215D01*
X64556238Y-91947503D01*
X64367503Y-92136238D01*
X64219215Y-92358167D01*
X64117072Y-92604761D01*
X64065000Y-92866544D01*
X58722416Y-92866544D01*
X58614637Y-92705241D01*
X58414759Y-92505363D01*
X58179727Y-92348320D01*
X57918574Y-92240147D01*
X57641335Y-92185000D01*
X57358665Y-92185000D01*
X57081426Y-92240147D01*
X56820273Y-92348320D01*
X56585241Y-92505363D01*
X56385363Y-92705241D01*
X56230000Y-92937759D01*
X56074637Y-92705241D01*
X55874759Y-92505363D01*
X55639727Y-92348320D01*
X55378574Y-92240147D01*
X55101335Y-92185000D01*
X54818665Y-92185000D01*
X54541426Y-92240147D01*
X54280273Y-92348320D01*
X54045241Y-92505363D01*
X53845363Y-92705241D01*
X53690000Y-92937759D01*
X53534637Y-92705241D01*
X53334759Y-92505363D01*
X53099727Y-92348320D01*
X52838574Y-92240147D01*
X52561335Y-92185000D01*
X52278665Y-92185000D01*
X52001426Y-92240147D01*
X51740273Y-92348320D01*
X51505241Y-92505363D01*
X51305363Y-92705241D01*
X51150000Y-92937759D01*
X50994637Y-92705241D01*
X50794759Y-92505363D01*
X50559727Y-92348320D01*
X50298574Y-92240147D01*
X50021335Y-92185000D01*
X49738665Y-92185000D01*
X49461426Y-92240147D01*
X49200273Y-92348320D01*
X48965241Y-92505363D01*
X48765363Y-92705241D01*
X48608320Y-92940273D01*
X48500147Y-93201426D01*
X48445000Y-93478665D01*
X39327000Y-93478665D01*
X39327000Y-93082168D01*
X39202988Y-92458719D01*
X38959730Y-91871442D01*
X38606575Y-91342907D01*
X38157093Y-90893425D01*
X37628558Y-90540270D01*
X37041281Y-90297012D01*
X36417832Y-90173000D01*
X35782168Y-90173000D01*
X35158719Y-90297012D01*
X34571442Y-90540270D01*
X34042907Y-90893425D01*
X33827000Y-91109332D01*
X33827000Y-75750000D01*
X33911928Y-75750000D01*
X33911928Y-77450000D01*
X33924188Y-77574482D01*
X33960498Y-77694180D01*
X34019463Y-77804494D01*
X34098815Y-77901185D01*
X34195506Y-77980537D01*
X34305820Y-78039502D01*
X34378380Y-78061513D01*
X34246525Y-78193368D01*
X34084010Y-78436589D01*
X33972068Y-78706842D01*
X33915000Y-78993740D01*
X33915000Y-79286260D01*
X33972068Y-79573158D01*
X34084010Y-79843411D01*
X34246525Y-80086632D01*
X34453368Y-80293475D01*
X34627760Y-80410000D01*
X34453368Y-80526525D01*
X34246525Y-80733368D01*
X34084010Y-80976589D01*
X33972068Y-81246842D01*
X33915000Y-81533740D01*
X33915000Y-81826260D01*
X33972068Y-82113158D01*
X34084010Y-82383411D01*
X34246525Y-82626632D01*
X34453368Y-82833475D01*
X34627760Y-82950000D01*
X34453368Y-83066525D01*
X34246525Y-83273368D01*
X34084010Y-83516589D01*
X33972068Y-83786842D01*
X33915000Y-84073740D01*
X33915000Y-84366260D01*
X33972068Y-84653158D01*
X34084010Y-84923411D01*
X34246525Y-85166632D01*
X34453368Y-85373475D01*
X34627760Y-85490000D01*
X34453368Y-85606525D01*
X34246525Y-85813368D01*
X34084010Y-86056589D01*
X33972068Y-86326842D01*
X33915000Y-86613740D01*
X33915000Y-86906260D01*
X33972068Y-87193158D01*
X34084010Y-87463411D01*
X34246525Y-87706632D01*
X34453368Y-87913475D01*
X34696589Y-88075990D01*
X34966842Y-88187932D01*
X35253740Y-88245000D01*
X35546260Y-88245000D01*
X35833158Y-88187932D01*
X36103411Y-88075990D01*
X36346632Y-87913475D01*
X36553475Y-87706632D01*
X36715990Y-87463411D01*
X36827932Y-87193158D01*
X36885000Y-86906260D01*
X36885000Y-86613740D01*
X36827932Y-86326842D01*
X36715990Y-86056589D01*
X36553475Y-85813368D01*
X36346632Y-85606525D01*
X36172240Y-85490000D01*
X36346632Y-85373475D01*
X36553475Y-85166632D01*
X36715990Y-84923411D01*
X36827932Y-84653158D01*
X36885000Y-84366260D01*
X36885000Y-84073740D01*
X36827932Y-83786842D01*
X36715990Y-83516589D01*
X36553475Y-83273368D01*
X36346632Y-83066525D01*
X36172240Y-82950000D01*
X36346632Y-82833475D01*
X36553475Y-82626632D01*
X36715990Y-82383411D01*
X36827932Y-82113158D01*
X36885000Y-81826260D01*
X36885000Y-81533740D01*
X36827932Y-81246842D01*
X36715990Y-80976589D01*
X36553475Y-80733368D01*
X36346632Y-80526525D01*
X36172240Y-80410000D01*
X36346632Y-80293475D01*
X36553475Y-80086632D01*
X36715990Y-79843411D01*
X36827932Y-79573158D01*
X36885000Y-79286260D01*
X36885000Y-78993740D01*
X36827932Y-78706842D01*
X36715990Y-78436589D01*
X36553475Y-78193368D01*
X36421620Y-78061513D01*
X36494180Y-78039502D01*
X36604494Y-77980537D01*
X36701185Y-77901185D01*
X36780537Y-77804494D01*
X36839502Y-77694180D01*
X36875812Y-77574482D01*
X36888072Y-77450000D01*
X36888072Y-75750000D01*
X36875812Y-75625518D01*
X36839502Y-75505820D01*
X36780537Y-75395506D01*
X36701185Y-75298815D01*
X36604494Y-75219463D01*
X36494180Y-75160498D01*
X36374482Y-75124188D01*
X36250000Y-75111928D01*
X34550000Y-75111928D01*
X34425518Y-75124188D01*
X34305820Y-75160498D01*
X34195506Y-75219463D01*
X34098815Y-75298815D01*
X34019463Y-75395506D01*
X33960498Y-75505820D01*
X33924188Y-75625518D01*
X33911928Y-75750000D01*
X33827000Y-75750000D01*
X33827000Y-70700000D01*
X37461928Y-70700000D01*
X37461928Y-72300000D01*
X37474188Y-72424482D01*
X37510498Y-72544180D01*
X37569463Y-72654494D01*
X37648815Y-72751185D01*
X37745506Y-72830537D01*
X37855820Y-72889502D01*
X37975518Y-72925812D01*
X37983961Y-72926643D01*
X37785363Y-73125241D01*
X37628320Y-73360273D01*
X37520147Y-73621426D01*
X37465000Y-73898665D01*
X37465000Y-74181335D01*
X37520147Y-74458574D01*
X37628320Y-74719727D01*
X37785363Y-74954759D01*
X37985241Y-75154637D01*
X38217759Y-75310000D01*
X37985241Y-75465363D01*
X37785363Y-75665241D01*
X37628320Y-75900273D01*
X37520147Y-76161426D01*
X37465000Y-76438665D01*
X37465000Y-76721335D01*
X37520147Y-76998574D01*
X37628320Y-77259727D01*
X37785363Y-77494759D01*
X37985241Y-77694637D01*
X38217759Y-77850000D01*
X37985241Y-78005363D01*
X37785363Y-78205241D01*
X37628320Y-78440273D01*
X37520147Y-78701426D01*
X37465000Y-78978665D01*
X37465000Y-79261335D01*
X37520147Y-79538574D01*
X37628320Y-79799727D01*
X37785363Y-80034759D01*
X37985241Y-80234637D01*
X38217759Y-80390000D01*
X37985241Y-80545363D01*
X37785363Y-80745241D01*
X37628320Y-80980273D01*
X37520147Y-81241426D01*
X37465000Y-81518665D01*
X37465000Y-81801335D01*
X37520147Y-82078574D01*
X37628320Y-82339727D01*
X37785363Y-82574759D01*
X37985241Y-82774637D01*
X38217759Y-82930000D01*
X37985241Y-83085363D01*
X37785363Y-83285241D01*
X37628320Y-83520273D01*
X37520147Y-83781426D01*
X37465000Y-84058665D01*
X37465000Y-84341335D01*
X37520147Y-84618574D01*
X37628320Y-84879727D01*
X37785363Y-85114759D01*
X37985241Y-85314637D01*
X38217759Y-85470000D01*
X37985241Y-85625363D01*
X37785363Y-85825241D01*
X37628320Y-86060273D01*
X37520147Y-86321426D01*
X37465000Y-86598665D01*
X37465000Y-86881335D01*
X37520147Y-87158574D01*
X37628320Y-87419727D01*
X37785363Y-87654759D01*
X37985241Y-87854637D01*
X38220273Y-88011680D01*
X38481426Y-88119853D01*
X38758665Y-88175000D01*
X39041335Y-88175000D01*
X39318574Y-88119853D01*
X39579727Y-88011680D01*
X39814759Y-87854637D01*
X40014637Y-87654759D01*
X40171680Y-87419727D01*
X40279853Y-87158574D01*
X40335000Y-86881335D01*
X40335000Y-86598665D01*
X40279853Y-86321426D01*
X40171680Y-86060273D01*
X40014637Y-85825241D01*
X39814759Y-85625363D01*
X39582241Y-85470000D01*
X39814759Y-85314637D01*
X40014637Y-85114759D01*
X40171680Y-84879727D01*
X40279853Y-84618574D01*
X40335000Y-84341335D01*
X40335000Y-84058665D01*
X40279853Y-83781426D01*
X40171680Y-83520273D01*
X40014637Y-83285241D01*
X39814759Y-83085363D01*
X39582241Y-82930000D01*
X39814759Y-82774637D01*
X40014637Y-82574759D01*
X40171680Y-82339727D01*
X40279853Y-82078574D01*
X40335000Y-81801335D01*
X40335000Y-81518665D01*
X40279853Y-81241426D01*
X40171680Y-80980273D01*
X40014637Y-80745241D01*
X39814759Y-80545363D01*
X39582241Y-80390000D01*
X39814759Y-80234637D01*
X40014637Y-80034759D01*
X40171680Y-79799727D01*
X40279853Y-79538574D01*
X40335000Y-79261335D01*
X40335000Y-78978665D01*
X40279853Y-78701426D01*
X40171680Y-78440273D01*
X40014637Y-78205241D01*
X39814759Y-78005363D01*
X39582241Y-77850000D01*
X39814759Y-77694637D01*
X40014637Y-77494759D01*
X40171680Y-77259727D01*
X40279853Y-76998574D01*
X40335000Y-76721335D01*
X40335000Y-76438665D01*
X40279853Y-76161426D01*
X40171680Y-75900273D01*
X40014637Y-75665241D01*
X39814759Y-75465363D01*
X39582241Y-75310000D01*
X39814759Y-75154637D01*
X40014637Y-74954759D01*
X40171680Y-74719727D01*
X40279853Y-74458574D01*
X40335000Y-74181335D01*
X40335000Y-73898665D01*
X40279853Y-73621426D01*
X40171680Y-73360273D01*
X40014637Y-73125241D01*
X39816039Y-72926643D01*
X39824482Y-72925812D01*
X39944180Y-72889502D01*
X40054494Y-72830537D01*
X40151185Y-72751185D01*
X40230537Y-72654494D01*
X40289502Y-72544180D01*
X40325812Y-72424482D01*
X40338072Y-72300000D01*
X40338072Y-71358665D01*
X45085000Y-71358665D01*
X45085000Y-71641335D01*
X45140147Y-71918574D01*
X45248320Y-72179727D01*
X45405363Y-72414759D01*
X45605241Y-72614637D01*
X45837759Y-72770000D01*
X45605241Y-72925363D01*
X45405363Y-73125241D01*
X45248320Y-73360273D01*
X45140147Y-73621426D01*
X45085000Y-73898665D01*
X45085000Y-74181335D01*
X45140147Y-74458574D01*
X45248320Y-74719727D01*
X45405363Y-74954759D01*
X45605241Y-75154637D01*
X45837759Y-75310000D01*
X45605241Y-75465363D01*
X45405363Y-75665241D01*
X45248320Y-75900273D01*
X45140147Y-76161426D01*
X45085000Y-76438665D01*
X45085000Y-76721335D01*
X45140147Y-76998574D01*
X45248320Y-77259727D01*
X45405363Y-77494759D01*
X45605241Y-77694637D01*
X45837759Y-77850000D01*
X45605241Y-78005363D01*
X45405363Y-78205241D01*
X45248320Y-78440273D01*
X45140147Y-78701426D01*
X45085000Y-78978665D01*
X45085000Y-79261335D01*
X45140147Y-79538574D01*
X45248320Y-79799727D01*
X45405363Y-80034759D01*
X45605241Y-80234637D01*
X45837759Y-80390000D01*
X45605241Y-80545363D01*
X45405363Y-80745241D01*
X45248320Y-80980273D01*
X45140147Y-81241426D01*
X45085000Y-81518665D01*
X45085000Y-81801335D01*
X45140147Y-82078574D01*
X45248320Y-82339727D01*
X45405363Y-82574759D01*
X45605241Y-82774637D01*
X45837759Y-82930000D01*
X45605241Y-83085363D01*
X45405363Y-83285241D01*
X45248320Y-83520273D01*
X45140147Y-83781426D01*
X45085000Y-84058665D01*
X45085000Y-84341335D01*
X45140147Y-84618574D01*
X45248320Y-84879727D01*
X45405363Y-85114759D01*
X45605241Y-85314637D01*
X45837759Y-85470000D01*
X45605241Y-85625363D01*
X45405363Y-85825241D01*
X45248320Y-86060273D01*
X45140147Y-86321426D01*
X45085000Y-86598665D01*
X45085000Y-86881335D01*
X45140147Y-87158574D01*
X45248320Y-87419727D01*
X45405363Y-87654759D01*
X45605241Y-87854637D01*
X45840273Y-88011680D01*
X46101426Y-88119853D01*
X46378665Y-88175000D01*
X46661335Y-88175000D01*
X46938574Y-88119853D01*
X47199727Y-88011680D01*
X47434759Y-87854637D01*
X47634637Y-87654759D01*
X47791680Y-87419727D01*
X47899853Y-87158574D01*
X47955000Y-86881335D01*
X47955000Y-86598665D01*
X47899853Y-86321426D01*
X47791680Y-86060273D01*
X47656971Y-85858665D01*
X48445000Y-85858665D01*
X48445000Y-86141335D01*
X48500147Y-86418574D01*
X48608320Y-86679727D01*
X48765363Y-86914759D01*
X48965241Y-87114637D01*
X49200273Y-87271680D01*
X49461426Y-87379853D01*
X49738665Y-87435000D01*
X50021335Y-87435000D01*
X50298574Y-87379853D01*
X50559727Y-87271680D01*
X50794759Y-87114637D01*
X50994637Y-86914759D01*
X51150000Y-86682241D01*
X51305363Y-86914759D01*
X51505241Y-87114637D01*
X51740273Y-87271680D01*
X52001426Y-87379853D01*
X52278665Y-87435000D01*
X52561335Y-87435000D01*
X52838574Y-87379853D01*
X53099727Y-87271680D01*
X53334759Y-87114637D01*
X53534637Y-86914759D01*
X53690000Y-86682241D01*
X53845363Y-86914759D01*
X54045241Y-87114637D01*
X54280273Y-87271680D01*
X54541426Y-87379853D01*
X54818665Y-87435000D01*
X55101335Y-87435000D01*
X55378574Y-87379853D01*
X55639727Y-87271680D01*
X55874759Y-87114637D01*
X56073357Y-86916039D01*
X56074188Y-86924482D01*
X56110498Y-87044180D01*
X56169463Y-87154494D01*
X56248815Y-87251185D01*
X56345506Y-87330537D01*
X56455820Y-87389502D01*
X56575518Y-87425812D01*
X56700000Y-87438072D01*
X57130685Y-87438072D01*
X57082795Y-87509744D01*
X57004774Y-87698102D01*
X56965000Y-87898061D01*
X56965000Y-88101939D01*
X57004774Y-88301898D01*
X57082795Y-88490256D01*
X57196063Y-88659774D01*
X57340226Y-88803937D01*
X57509744Y-88917205D01*
X57698102Y-88995226D01*
X57898061Y-89035000D01*
X58101939Y-89035000D01*
X58301898Y-88995226D01*
X58490256Y-88917205D01*
X58659774Y-88803937D01*
X58803937Y-88659774D01*
X58917205Y-88490256D01*
X58971712Y-88358665D01*
X59565000Y-88358665D01*
X59565000Y-88641335D01*
X59620147Y-88918574D01*
X59728320Y-89179727D01*
X59885363Y-89414759D01*
X60085241Y-89614637D01*
X60287827Y-89750000D01*
X60085241Y-89885363D01*
X59885363Y-90085241D01*
X59728320Y-90320273D01*
X59620147Y-90581426D01*
X59565000Y-90858665D01*
X59565000Y-91141335D01*
X59620147Y-91418574D01*
X59728320Y-91679727D01*
X59885363Y-91914759D01*
X60085241Y-92114637D01*
X60320273Y-92271680D01*
X60581426Y-92379853D01*
X60858665Y-92435000D01*
X61141335Y-92435000D01*
X61418574Y-92379853D01*
X61679727Y-92271680D01*
X61914759Y-92114637D01*
X62114637Y-91914759D01*
X62271680Y-91679727D01*
X62379853Y-91418574D01*
X62435000Y-91141335D01*
X62435000Y-90858665D01*
X62379853Y-90581426D01*
X62271680Y-90320273D01*
X62114637Y-90085241D01*
X61914759Y-89885363D01*
X61712173Y-89750000D01*
X61914759Y-89614637D01*
X62114637Y-89414759D01*
X62271680Y-89179727D01*
X62379853Y-88918574D01*
X62435000Y-88641335D01*
X62435000Y-88358665D01*
X62379853Y-88081426D01*
X62271680Y-87820273D01*
X62114637Y-87585241D01*
X61914759Y-87385363D01*
X61679727Y-87228320D01*
X61418574Y-87120147D01*
X61141335Y-87065000D01*
X60858665Y-87065000D01*
X60581426Y-87120147D01*
X60320273Y-87228320D01*
X60085241Y-87385363D01*
X59885363Y-87585241D01*
X59728320Y-87820273D01*
X59620147Y-88081426D01*
X59565000Y-88358665D01*
X58971712Y-88358665D01*
X58995226Y-88301898D01*
X59035000Y-88101939D01*
X59035000Y-87898061D01*
X58995226Y-87698102D01*
X58917205Y-87509744D01*
X58803937Y-87340226D01*
X58731253Y-87267542D01*
X58751185Y-87251185D01*
X58830537Y-87154494D01*
X58889502Y-87044180D01*
X58925812Y-86924482D01*
X58932294Y-86858665D01*
X62565000Y-86858665D01*
X62565000Y-87141335D01*
X62620147Y-87418574D01*
X62728320Y-87679727D01*
X62885363Y-87914759D01*
X63085241Y-88114637D01*
X63320273Y-88271680D01*
X63581426Y-88379853D01*
X63858665Y-88435000D01*
X64141335Y-88435000D01*
X64418574Y-88379853D01*
X64679727Y-88271680D01*
X64914759Y-88114637D01*
X65114637Y-87914759D01*
X65271680Y-87679727D01*
X65379853Y-87418574D01*
X65435000Y-87141335D01*
X65435000Y-86858665D01*
X72725000Y-86858665D01*
X72725000Y-87141335D01*
X72780147Y-87418574D01*
X72888320Y-87679727D01*
X73045363Y-87914759D01*
X73245241Y-88114637D01*
X73480273Y-88271680D01*
X73741426Y-88379853D01*
X74018665Y-88435000D01*
X74301335Y-88435000D01*
X74578574Y-88379853D01*
X74839727Y-88271680D01*
X75074759Y-88114637D01*
X75274637Y-87914759D01*
X75431680Y-87679727D01*
X75539853Y-87418574D01*
X75580000Y-87216744D01*
X75620147Y-87418574D01*
X75728320Y-87679727D01*
X75885363Y-87914759D01*
X76085241Y-88114637D01*
X76320273Y-88271680D01*
X76581426Y-88379853D01*
X76858665Y-88435000D01*
X77141335Y-88435000D01*
X77418574Y-88379853D01*
X77679727Y-88271680D01*
X77914759Y-88114637D01*
X78114637Y-87914759D01*
X78271680Y-87679727D01*
X78379853Y-87418574D01*
X78435000Y-87141335D01*
X78435000Y-86858665D01*
X78379853Y-86581426D01*
X78271680Y-86320273D01*
X78114637Y-86085241D01*
X77914759Y-85885363D01*
X77679727Y-85728320D01*
X77418574Y-85620147D01*
X77141335Y-85565000D01*
X76858665Y-85565000D01*
X76581426Y-85620147D01*
X76320273Y-85728320D01*
X76085241Y-85885363D01*
X75885363Y-86085241D01*
X75728320Y-86320273D01*
X75620147Y-86581426D01*
X75580000Y-86783256D01*
X75539853Y-86581426D01*
X75431680Y-86320273D01*
X75274637Y-86085241D01*
X75074759Y-85885363D01*
X74839727Y-85728320D01*
X74578574Y-85620147D01*
X74301335Y-85565000D01*
X74018665Y-85565000D01*
X73741426Y-85620147D01*
X73480273Y-85728320D01*
X73245241Y-85885363D01*
X73045363Y-86085241D01*
X72888320Y-86320273D01*
X72780147Y-86581426D01*
X72725000Y-86858665D01*
X65435000Y-86858665D01*
X65379853Y-86581426D01*
X65271680Y-86320273D01*
X65114637Y-86085241D01*
X64914759Y-85885363D01*
X64679727Y-85728320D01*
X64418574Y-85620147D01*
X64141335Y-85565000D01*
X63858665Y-85565000D01*
X63581426Y-85620147D01*
X63320273Y-85728320D01*
X63085241Y-85885363D01*
X62885363Y-86085241D01*
X62728320Y-86320273D01*
X62620147Y-86581426D01*
X62565000Y-86858665D01*
X58932294Y-86858665D01*
X58938072Y-86800000D01*
X58938072Y-85200000D01*
X58925812Y-85075518D01*
X58889502Y-84955820D01*
X58858629Y-84898061D01*
X59965000Y-84898061D01*
X59965000Y-85101939D01*
X60004774Y-85301898D01*
X60082795Y-85490256D01*
X60196063Y-85659774D01*
X60340226Y-85803937D01*
X60509744Y-85917205D01*
X60698102Y-85995226D01*
X60898061Y-86035000D01*
X61101939Y-86035000D01*
X61301898Y-85995226D01*
X61490256Y-85917205D01*
X61659774Y-85803937D01*
X61803937Y-85659774D01*
X61917205Y-85490256D01*
X61995226Y-85301898D01*
X62035000Y-85101939D01*
X62035000Y-84898061D01*
X61995226Y-84698102D01*
X61917205Y-84509744D01*
X61803937Y-84340226D01*
X61659774Y-84196063D01*
X61490256Y-84082795D01*
X61301898Y-84004774D01*
X61101939Y-83965000D01*
X60898061Y-83965000D01*
X60698102Y-84004774D01*
X60509744Y-84082795D01*
X60340226Y-84196063D01*
X60196063Y-84340226D01*
X60082795Y-84509744D01*
X60004774Y-84698102D01*
X59965000Y-84898061D01*
X58858629Y-84898061D01*
X58830537Y-84845506D01*
X58751185Y-84748815D01*
X58654494Y-84669463D01*
X58544180Y-84610498D01*
X58424482Y-84574188D01*
X58300000Y-84561928D01*
X56700000Y-84561928D01*
X56575518Y-84574188D01*
X56455820Y-84610498D01*
X56345506Y-84669463D01*
X56248815Y-84748815D01*
X56169463Y-84845506D01*
X56110498Y-84955820D01*
X56074188Y-85075518D01*
X56073357Y-85083961D01*
X55874759Y-84885363D01*
X55639727Y-84728320D01*
X55378574Y-84620147D01*
X55101335Y-84565000D01*
X54818665Y-84565000D01*
X54541426Y-84620147D01*
X54280273Y-84728320D01*
X54045241Y-84885363D01*
X53845363Y-85085241D01*
X53690000Y-85317759D01*
X53534637Y-85085241D01*
X53334759Y-84885363D01*
X53099727Y-84728320D01*
X52838574Y-84620147D01*
X52561335Y-84565000D01*
X52278665Y-84565000D01*
X52001426Y-84620147D01*
X51740273Y-84728320D01*
X51505241Y-84885363D01*
X51305363Y-85085241D01*
X51150000Y-85317759D01*
X50994637Y-85085241D01*
X50794759Y-84885363D01*
X50559727Y-84728320D01*
X50298574Y-84620147D01*
X50021335Y-84565000D01*
X49738665Y-84565000D01*
X49461426Y-84620147D01*
X49200273Y-84728320D01*
X48965241Y-84885363D01*
X48765363Y-85085241D01*
X48608320Y-85320273D01*
X48500147Y-85581426D01*
X48445000Y-85858665D01*
X47656971Y-85858665D01*
X47634637Y-85825241D01*
X47434759Y-85625363D01*
X47202241Y-85470000D01*
X47434759Y-85314637D01*
X47634637Y-85114759D01*
X47791680Y-84879727D01*
X47899853Y-84618574D01*
X47955000Y-84341335D01*
X47955000Y-84058665D01*
X47899853Y-83781426D01*
X47791680Y-83520273D01*
X47634637Y-83285241D01*
X47434759Y-83085363D01*
X47202241Y-82930000D01*
X47309001Y-82858665D01*
X48065000Y-82858665D01*
X48065000Y-83141335D01*
X48120147Y-83418574D01*
X48228320Y-83679727D01*
X48385363Y-83914759D01*
X48585241Y-84114637D01*
X48820273Y-84271680D01*
X49081426Y-84379853D01*
X49358665Y-84435000D01*
X49641335Y-84435000D01*
X49918574Y-84379853D01*
X50179727Y-84271680D01*
X50414759Y-84114637D01*
X50614637Y-83914759D01*
X50652117Y-83858665D01*
X62405000Y-83858665D01*
X62405000Y-84141335D01*
X62460147Y-84418574D01*
X62568320Y-84679727D01*
X62725363Y-84914759D01*
X62925241Y-85114637D01*
X63160273Y-85271680D01*
X63421426Y-85379853D01*
X63698665Y-85435000D01*
X63981335Y-85435000D01*
X64258574Y-85379853D01*
X64519727Y-85271680D01*
X64754759Y-85114637D01*
X64954637Y-84914759D01*
X65111680Y-84679727D01*
X65219853Y-84418574D01*
X65275000Y-84141335D01*
X65275000Y-83858665D01*
X72565000Y-83858665D01*
X72565000Y-84141335D01*
X72620147Y-84418574D01*
X72728320Y-84679727D01*
X72885363Y-84914759D01*
X73085241Y-85114637D01*
X73320273Y-85271680D01*
X73581426Y-85379853D01*
X73858665Y-85435000D01*
X74141335Y-85435000D01*
X74418574Y-85379853D01*
X74679727Y-85271680D01*
X74914759Y-85114637D01*
X75114637Y-84914759D01*
X75271680Y-84679727D01*
X75379853Y-84418574D01*
X75435000Y-84141335D01*
X75435000Y-83858665D01*
X75379853Y-83581426D01*
X75271680Y-83320273D01*
X75114637Y-83085241D01*
X74914759Y-82885363D01*
X74679727Y-82728320D01*
X74418574Y-82620147D01*
X74141335Y-82565000D01*
X73858665Y-82565000D01*
X73581426Y-82620147D01*
X73320273Y-82728320D01*
X73085241Y-82885363D01*
X72885363Y-83085241D01*
X72728320Y-83320273D01*
X72620147Y-83581426D01*
X72565000Y-83858665D01*
X65275000Y-83858665D01*
X65219853Y-83581426D01*
X65111680Y-83320273D01*
X64954637Y-83085241D01*
X64754759Y-82885363D01*
X64519727Y-82728320D01*
X64258574Y-82620147D01*
X63981335Y-82565000D01*
X63698665Y-82565000D01*
X63421426Y-82620147D01*
X63160273Y-82728320D01*
X62925241Y-82885363D01*
X62725363Y-83085241D01*
X62568320Y-83320273D01*
X62460147Y-83581426D01*
X62405000Y-83858665D01*
X50652117Y-83858665D01*
X50771680Y-83679727D01*
X50879853Y-83418574D01*
X50935000Y-83141335D01*
X50935000Y-82858665D01*
X50879853Y-82581426D01*
X50771680Y-82320273D01*
X50614637Y-82085241D01*
X50414759Y-81885363D01*
X50179727Y-81728320D01*
X49918574Y-81620147D01*
X49641335Y-81565000D01*
X49358665Y-81565000D01*
X49081426Y-81620147D01*
X48820273Y-81728320D01*
X48585241Y-81885363D01*
X48385363Y-82085241D01*
X48228320Y-82320273D01*
X48120147Y-82581426D01*
X48065000Y-82858665D01*
X47309001Y-82858665D01*
X47434759Y-82774637D01*
X47634637Y-82574759D01*
X47791680Y-82339727D01*
X47899853Y-82078574D01*
X47955000Y-81801335D01*
X47955000Y-81518665D01*
X47899853Y-81241426D01*
X47791680Y-80980273D01*
X47634637Y-80745241D01*
X47434759Y-80545363D01*
X47202241Y-80390000D01*
X47434759Y-80234637D01*
X47469396Y-80200000D01*
X63561928Y-80200000D01*
X63561928Y-81800000D01*
X63574188Y-81924482D01*
X63610498Y-82044180D01*
X63669463Y-82154494D01*
X63748815Y-82251185D01*
X63845506Y-82330537D01*
X63955820Y-82389502D01*
X64075518Y-82425812D01*
X64200000Y-82438072D01*
X65800000Y-82438072D01*
X65924482Y-82425812D01*
X66044180Y-82389502D01*
X66154494Y-82330537D01*
X66251185Y-82251185D01*
X66330537Y-82154494D01*
X66389502Y-82044180D01*
X66425812Y-81924482D01*
X66426643Y-81916039D01*
X66625241Y-82114637D01*
X66860273Y-82271680D01*
X67121426Y-82379853D01*
X67398665Y-82435000D01*
X67681335Y-82435000D01*
X67958574Y-82379853D01*
X68219727Y-82271680D01*
X68454759Y-82114637D01*
X68654637Y-81914759D01*
X68810000Y-81682241D01*
X68965363Y-81914759D01*
X69165241Y-82114637D01*
X69400273Y-82271680D01*
X69661426Y-82379853D01*
X69938665Y-82435000D01*
X70221335Y-82435000D01*
X70498574Y-82379853D01*
X70759727Y-82271680D01*
X70994759Y-82114637D01*
X71194637Y-81914759D01*
X71351680Y-81679727D01*
X71356962Y-81666975D01*
X71408635Y-81769300D01*
X71581994Y-81990844D01*
X71795243Y-82174310D01*
X72040187Y-82312648D01*
X72307413Y-82400542D01*
X72372828Y-82413553D01*
X72597000Y-82276043D01*
X72597000Y-81023000D01*
X72643000Y-81023000D01*
X72643000Y-82276043D01*
X72867172Y-82413553D01*
X72932587Y-82400542D01*
X73199813Y-82312648D01*
X73444757Y-82174310D01*
X73658006Y-81990844D01*
X73831365Y-81769300D01*
X73958172Y-81518193D01*
X74033554Y-81247172D01*
X73896067Y-81023000D01*
X72643000Y-81023000D01*
X72597000Y-81023000D01*
X72577000Y-81023000D01*
X72577000Y-80977000D01*
X72597000Y-80977000D01*
X72597000Y-79723957D01*
X72643000Y-79723957D01*
X72643000Y-80977000D01*
X73896067Y-80977000D01*
X74033554Y-80752828D01*
X73958172Y-80481807D01*
X73831365Y-80230700D01*
X73658006Y-80009156D01*
X73444757Y-79825690D01*
X73199813Y-79687352D01*
X72932587Y-79599458D01*
X72867172Y-79586447D01*
X72643000Y-79723957D01*
X72597000Y-79723957D01*
X72372828Y-79586447D01*
X72307413Y-79599458D01*
X72040187Y-79687352D01*
X71795243Y-79825690D01*
X71581994Y-80009156D01*
X71408635Y-80230700D01*
X71356962Y-80333025D01*
X71351680Y-80320273D01*
X71194637Y-80085241D01*
X70994759Y-79885363D01*
X70759727Y-79728320D01*
X70498574Y-79620147D01*
X70221335Y-79565000D01*
X69938665Y-79565000D01*
X69661426Y-79620147D01*
X69400273Y-79728320D01*
X69165241Y-79885363D01*
X68965363Y-80085241D01*
X68810000Y-80317759D01*
X68654637Y-80085241D01*
X68454759Y-79885363D01*
X68219727Y-79728320D01*
X67958574Y-79620147D01*
X67681335Y-79565000D01*
X67398665Y-79565000D01*
X67121426Y-79620147D01*
X66860273Y-79728320D01*
X66625241Y-79885363D01*
X66426643Y-80083961D01*
X66425812Y-80075518D01*
X66389502Y-79955820D01*
X66330537Y-79845506D01*
X66251185Y-79748815D01*
X66154494Y-79669463D01*
X66044180Y-79610498D01*
X65924482Y-79574188D01*
X65800000Y-79561928D01*
X64200000Y-79561928D01*
X64075518Y-79574188D01*
X63955820Y-79610498D01*
X63845506Y-79669463D01*
X63748815Y-79748815D01*
X63669463Y-79845506D01*
X63610498Y-79955820D01*
X63574188Y-80075518D01*
X63561928Y-80200000D01*
X47469396Y-80200000D01*
X47634637Y-80034759D01*
X47791680Y-79799727D01*
X47899853Y-79538574D01*
X47955000Y-79261335D01*
X47955000Y-78978665D01*
X47899853Y-78701426D01*
X47824151Y-78518665D01*
X60065000Y-78518665D01*
X60065000Y-78801335D01*
X60120147Y-79078574D01*
X60228320Y-79339727D01*
X60385363Y-79574759D01*
X60585241Y-79774637D01*
X60820273Y-79931680D01*
X61081426Y-80039853D01*
X61358665Y-80095000D01*
X61641335Y-80095000D01*
X61918574Y-80039853D01*
X62179727Y-79931680D01*
X62414759Y-79774637D01*
X62614637Y-79574759D01*
X62771680Y-79339727D01*
X62860622Y-79125000D01*
X83986928Y-79125000D01*
X83986928Y-80875000D01*
X83999188Y-80999482D01*
X84035498Y-81119180D01*
X84094463Y-81229494D01*
X84173815Y-81326185D01*
X84270506Y-81405537D01*
X84380820Y-81464502D01*
X84395564Y-81468974D01*
X84327107Y-81537431D01*
X84161856Y-81784747D01*
X84048029Y-82059549D01*
X83990000Y-82351278D01*
X83990000Y-82648722D01*
X84048029Y-82940451D01*
X84161856Y-83215253D01*
X84327107Y-83462569D01*
X84537431Y-83672893D01*
X84652830Y-83750000D01*
X84537431Y-83827107D01*
X84327107Y-84037431D01*
X84161856Y-84284747D01*
X84048029Y-84559549D01*
X83990000Y-84851278D01*
X83990000Y-85148722D01*
X84048029Y-85440451D01*
X84161856Y-85715253D01*
X84327107Y-85962569D01*
X84537431Y-86172893D01*
X84784747Y-86338144D01*
X85059549Y-86451971D01*
X85351278Y-86510000D01*
X85648722Y-86510000D01*
X85940451Y-86451971D01*
X86215253Y-86338144D01*
X86462569Y-86172893D01*
X86672893Y-85962569D01*
X86838144Y-85715253D01*
X86951971Y-85440451D01*
X87010000Y-85148722D01*
X87010000Y-84851278D01*
X86951971Y-84559549D01*
X86838144Y-84284747D01*
X86672893Y-84037431D01*
X86462569Y-83827107D01*
X86347170Y-83750000D01*
X86462569Y-83672893D01*
X86672893Y-83462569D01*
X86838144Y-83215253D01*
X86951971Y-82940451D01*
X87010000Y-82648722D01*
X87010000Y-82351278D01*
X86951971Y-82059549D01*
X86838144Y-81784747D01*
X86672893Y-81537431D01*
X86604436Y-81468974D01*
X86619180Y-81464502D01*
X86729494Y-81405537D01*
X86826185Y-81326185D01*
X86905537Y-81229494D01*
X86964502Y-81119180D01*
X87000812Y-80999482D01*
X87013072Y-80875000D01*
X87013072Y-79125000D01*
X87000812Y-79000518D01*
X86964502Y-78880820D01*
X86905537Y-78770506D01*
X86826185Y-78673815D01*
X86729494Y-78594463D01*
X86619180Y-78535498D01*
X86499482Y-78499188D01*
X86375000Y-78486928D01*
X84625000Y-78486928D01*
X84500518Y-78499188D01*
X84380820Y-78535498D01*
X84270506Y-78594463D01*
X84173815Y-78673815D01*
X84094463Y-78770506D01*
X84035498Y-78880820D01*
X83999188Y-79000518D01*
X83986928Y-79125000D01*
X62860622Y-79125000D01*
X62879853Y-79078574D01*
X62935000Y-78801335D01*
X62935000Y-78518665D01*
X62879853Y-78241426D01*
X62771680Y-77980273D01*
X62614637Y-77745241D01*
X62414759Y-77545363D01*
X62179727Y-77388320D01*
X61918574Y-77280147D01*
X61641335Y-77225000D01*
X61358665Y-77225000D01*
X61081426Y-77280147D01*
X60820273Y-77388320D01*
X60585241Y-77545363D01*
X60385363Y-77745241D01*
X60228320Y-77980273D01*
X60120147Y-78241426D01*
X60065000Y-78518665D01*
X47824151Y-78518665D01*
X47791680Y-78440273D01*
X47634637Y-78205241D01*
X47434759Y-78005363D01*
X47202241Y-77850000D01*
X47434759Y-77694637D01*
X47634637Y-77494759D01*
X47791680Y-77259727D01*
X47899853Y-76998574D01*
X47955000Y-76721335D01*
X47955000Y-76698665D01*
X75565000Y-76698665D01*
X75565000Y-76981335D01*
X75620147Y-77258574D01*
X75728320Y-77519727D01*
X75885363Y-77754759D01*
X76085241Y-77954637D01*
X76320273Y-78111680D01*
X76581426Y-78219853D01*
X76858665Y-78275000D01*
X77141335Y-78275000D01*
X77418574Y-78219853D01*
X77679727Y-78111680D01*
X77914759Y-77954637D01*
X78114637Y-77754759D01*
X78271680Y-77519727D01*
X78379853Y-77258574D01*
X78435000Y-76981335D01*
X78435000Y-76698665D01*
X78379853Y-76421426D01*
X78271680Y-76160273D01*
X78114637Y-75925241D01*
X77914759Y-75725363D01*
X77679727Y-75568320D01*
X77418574Y-75460147D01*
X77141335Y-75405000D01*
X76858665Y-75405000D01*
X76581426Y-75460147D01*
X76320273Y-75568320D01*
X76085241Y-75725363D01*
X75885363Y-75925241D01*
X75728320Y-76160273D01*
X75620147Y-76421426D01*
X75565000Y-76698665D01*
X47955000Y-76698665D01*
X47955000Y-76438665D01*
X47899853Y-76161426D01*
X47791680Y-75900273D01*
X47634637Y-75665241D01*
X47434759Y-75465363D01*
X47202241Y-75310000D01*
X47434759Y-75154637D01*
X47634637Y-74954759D01*
X47791680Y-74719727D01*
X47899853Y-74458574D01*
X47920706Y-74353740D01*
X50975000Y-74353740D01*
X50975000Y-74646260D01*
X51032068Y-74933158D01*
X51144010Y-75203411D01*
X51306525Y-75446632D01*
X51513368Y-75653475D01*
X51756589Y-75815990D01*
X52026842Y-75927932D01*
X52313740Y-75985000D01*
X52606260Y-75985000D01*
X52893158Y-75927932D01*
X53163411Y-75815990D01*
X53406632Y-75653475D01*
X53613475Y-75446632D01*
X53730000Y-75272240D01*
X53846525Y-75446632D01*
X54053368Y-75653475D01*
X54296589Y-75815990D01*
X54566842Y-75927932D01*
X54853740Y-75985000D01*
X55146260Y-75985000D01*
X55433158Y-75927932D01*
X55703411Y-75815990D01*
X55946632Y-75653475D01*
X56078487Y-75521620D01*
X56100498Y-75594180D01*
X56159463Y-75704494D01*
X56238815Y-75801185D01*
X56335506Y-75880537D01*
X56445820Y-75939502D01*
X56565518Y-75975812D01*
X56690000Y-75988072D01*
X58390000Y-75988072D01*
X58514482Y-75975812D01*
X58634180Y-75939502D01*
X58744494Y-75880537D01*
X58841185Y-75801185D01*
X58920537Y-75704494D01*
X58979502Y-75594180D01*
X59015812Y-75474482D01*
X59028072Y-75350000D01*
X59028072Y-73650000D01*
X59015812Y-73525518D01*
X58979502Y-73405820D01*
X58920537Y-73295506D01*
X58873889Y-73238665D01*
X63565000Y-73238665D01*
X63565000Y-73521335D01*
X63620147Y-73798574D01*
X63728320Y-74059727D01*
X63885363Y-74294759D01*
X64085241Y-74494637D01*
X64320273Y-74651680D01*
X64581426Y-74759853D01*
X64858665Y-74815000D01*
X65141335Y-74815000D01*
X65418574Y-74759853D01*
X65679727Y-74651680D01*
X65914759Y-74494637D01*
X66114637Y-74294759D01*
X66270000Y-74062241D01*
X66425363Y-74294759D01*
X66625241Y-74494637D01*
X66860273Y-74651680D01*
X67121426Y-74759853D01*
X67398665Y-74815000D01*
X67681335Y-74815000D01*
X67958574Y-74759853D01*
X68219727Y-74651680D01*
X68454759Y-74494637D01*
X68654637Y-74294759D01*
X68810000Y-74062241D01*
X68965363Y-74294759D01*
X69165241Y-74494637D01*
X69400273Y-74651680D01*
X69661426Y-74759853D01*
X69938665Y-74815000D01*
X70221335Y-74815000D01*
X70498574Y-74759853D01*
X70759727Y-74651680D01*
X70994759Y-74494637D01*
X71194637Y-74294759D01*
X71350000Y-74062241D01*
X71505363Y-74294759D01*
X71705241Y-74494637D01*
X71940273Y-74651680D01*
X72201426Y-74759853D01*
X72478665Y-74815000D01*
X72761335Y-74815000D01*
X73038574Y-74759853D01*
X73299727Y-74651680D01*
X73534759Y-74494637D01*
X73734637Y-74294759D01*
X73891680Y-74059727D01*
X73999853Y-73798574D01*
X74055000Y-73521335D01*
X74055000Y-73238665D01*
X73999853Y-72961426D01*
X73891680Y-72700273D01*
X73734637Y-72465241D01*
X73534759Y-72265363D01*
X73299727Y-72108320D01*
X73038574Y-72000147D01*
X72761335Y-71945000D01*
X72478665Y-71945000D01*
X72201426Y-72000147D01*
X71940273Y-72108320D01*
X71705241Y-72265363D01*
X71505363Y-72465241D01*
X71350000Y-72697759D01*
X71194637Y-72465241D01*
X70994759Y-72265363D01*
X70759727Y-72108320D01*
X70498574Y-72000147D01*
X70221335Y-71945000D01*
X69938665Y-71945000D01*
X69661426Y-72000147D01*
X69400273Y-72108320D01*
X69165241Y-72265363D01*
X68965363Y-72465241D01*
X68810000Y-72697759D01*
X68654637Y-72465241D01*
X68454759Y-72265363D01*
X68219727Y-72108320D01*
X67958574Y-72000147D01*
X67681335Y-71945000D01*
X67398665Y-71945000D01*
X67121426Y-72000147D01*
X66860273Y-72108320D01*
X66625241Y-72265363D01*
X66425363Y-72465241D01*
X66270000Y-72697759D01*
X66114637Y-72465241D01*
X65914759Y-72265363D01*
X65679727Y-72108320D01*
X65418574Y-72000147D01*
X65141335Y-71945000D01*
X64858665Y-71945000D01*
X64581426Y-72000147D01*
X64320273Y-72108320D01*
X64085241Y-72265363D01*
X63885363Y-72465241D01*
X63728320Y-72700273D01*
X63620147Y-72961426D01*
X63565000Y-73238665D01*
X58873889Y-73238665D01*
X58841185Y-73198815D01*
X58744494Y-73119463D01*
X58634180Y-73060498D01*
X58514482Y-73024188D01*
X58390000Y-73011928D01*
X56690000Y-73011928D01*
X56565518Y-73024188D01*
X56445820Y-73060498D01*
X56335506Y-73119463D01*
X56238815Y-73198815D01*
X56159463Y-73295506D01*
X56100498Y-73405820D01*
X56078487Y-73478380D01*
X55946632Y-73346525D01*
X55703411Y-73184010D01*
X55433158Y-73072068D01*
X55146260Y-73015000D01*
X54853740Y-73015000D01*
X54566842Y-73072068D01*
X54296589Y-73184010D01*
X54053368Y-73346525D01*
X53846525Y-73553368D01*
X53730000Y-73727760D01*
X53613475Y-73553368D01*
X53406632Y-73346525D01*
X53163411Y-73184010D01*
X52893158Y-73072068D01*
X52606260Y-73015000D01*
X52313740Y-73015000D01*
X52026842Y-73072068D01*
X51756589Y-73184010D01*
X51513368Y-73346525D01*
X51306525Y-73553368D01*
X51144010Y-73796589D01*
X51032068Y-74066842D01*
X50975000Y-74353740D01*
X47920706Y-74353740D01*
X47955000Y-74181335D01*
X47955000Y-73898665D01*
X47899853Y-73621426D01*
X47791680Y-73360273D01*
X47634637Y-73125241D01*
X47434759Y-72925363D01*
X47202241Y-72770000D01*
X47309001Y-72698665D01*
X48065000Y-72698665D01*
X48065000Y-72981335D01*
X48120147Y-73258574D01*
X48228320Y-73519727D01*
X48385363Y-73754759D01*
X48585241Y-73954637D01*
X48820273Y-74111680D01*
X49081426Y-74219853D01*
X49358665Y-74275000D01*
X49641335Y-74275000D01*
X49918574Y-74219853D01*
X50179727Y-74111680D01*
X50414759Y-73954637D01*
X50614637Y-73754759D01*
X50771680Y-73519727D01*
X50879853Y-73258574D01*
X50935000Y-72981335D01*
X50935000Y-72698665D01*
X50879853Y-72421426D01*
X50771680Y-72160273D01*
X50614637Y-71925241D01*
X50414759Y-71725363D01*
X50179727Y-71568320D01*
X49918574Y-71460147D01*
X49641335Y-71405000D01*
X49358665Y-71405000D01*
X49081426Y-71460147D01*
X48820273Y-71568320D01*
X48585241Y-71725363D01*
X48385363Y-71925241D01*
X48228320Y-72160273D01*
X48120147Y-72421426D01*
X48065000Y-72698665D01*
X47309001Y-72698665D01*
X47434759Y-72614637D01*
X47634637Y-72414759D01*
X47791680Y-72179727D01*
X47899853Y-71918574D01*
X47955000Y-71641335D01*
X47955000Y-71358665D01*
X47899853Y-71081426D01*
X47890426Y-71058665D01*
X50965000Y-71058665D01*
X50965000Y-71341335D01*
X51020147Y-71618574D01*
X51128320Y-71879727D01*
X51285363Y-72114759D01*
X51485241Y-72314637D01*
X51720273Y-72471680D01*
X51981426Y-72579853D01*
X52258665Y-72635000D01*
X52541335Y-72635000D01*
X52818574Y-72579853D01*
X53079727Y-72471680D01*
X53314759Y-72314637D01*
X53514637Y-72114759D01*
X53650000Y-71912173D01*
X53785363Y-72114759D01*
X53985241Y-72314637D01*
X54220273Y-72471680D01*
X54481426Y-72579853D01*
X54758665Y-72635000D01*
X55041335Y-72635000D01*
X55318574Y-72579853D01*
X55579727Y-72471680D01*
X55814759Y-72314637D01*
X56014637Y-72114759D01*
X56171680Y-71879727D01*
X56279853Y-71618574D01*
X56335000Y-71341335D01*
X56335000Y-71058665D01*
X56279853Y-70781426D01*
X56171680Y-70520273D01*
X56014637Y-70285241D01*
X55814759Y-70085363D01*
X55579727Y-69928320D01*
X55318574Y-69820147D01*
X55041335Y-69765000D01*
X54758665Y-69765000D01*
X54481426Y-69820147D01*
X54220273Y-69928320D01*
X53985241Y-70085363D01*
X53785363Y-70285241D01*
X53650000Y-70487827D01*
X53514637Y-70285241D01*
X53314759Y-70085363D01*
X53079727Y-69928320D01*
X52818574Y-69820147D01*
X52541335Y-69765000D01*
X52258665Y-69765000D01*
X51981426Y-69820147D01*
X51720273Y-69928320D01*
X51485241Y-70085363D01*
X51285363Y-70285241D01*
X51128320Y-70520273D01*
X51020147Y-70781426D01*
X50965000Y-71058665D01*
X47890426Y-71058665D01*
X47791680Y-70820273D01*
X47634637Y-70585241D01*
X47434759Y-70385363D01*
X47199727Y-70228320D01*
X46938574Y-70120147D01*
X46661335Y-70065000D01*
X46378665Y-70065000D01*
X46101426Y-70120147D01*
X45840273Y-70228320D01*
X45605241Y-70385363D01*
X45405363Y-70585241D01*
X45248320Y-70820273D01*
X45140147Y-71081426D01*
X45085000Y-71358665D01*
X40338072Y-71358665D01*
X40338072Y-70700000D01*
X40325812Y-70575518D01*
X40289502Y-70455820D01*
X40230537Y-70345506D01*
X40151185Y-70248815D01*
X40054494Y-70169463D01*
X39944180Y-70110498D01*
X39824482Y-70074188D01*
X39700000Y-70061928D01*
X38100000Y-70061928D01*
X37975518Y-70074188D01*
X37855820Y-70110498D01*
X37745506Y-70169463D01*
X37648815Y-70248815D01*
X37569463Y-70345506D01*
X37510498Y-70455820D01*
X37474188Y-70575518D01*
X37461928Y-70700000D01*
X33827000Y-70700000D01*
X33827000Y-68358665D01*
X60065000Y-68358665D01*
X60065000Y-68641335D01*
X60120147Y-68918574D01*
X60228320Y-69179727D01*
X60385363Y-69414759D01*
X60585241Y-69614637D01*
X60820273Y-69771680D01*
X61081426Y-69879853D01*
X61358665Y-69935000D01*
X61641335Y-69935000D01*
X61918574Y-69879853D01*
X62179727Y-69771680D01*
X62414759Y-69614637D01*
X62614637Y-69414759D01*
X62758134Y-69200000D01*
X63561928Y-69200000D01*
X63561928Y-70800000D01*
X63574188Y-70924482D01*
X63610498Y-71044180D01*
X63669463Y-71154494D01*
X63748815Y-71251185D01*
X63845506Y-71330537D01*
X63955820Y-71389502D01*
X64075518Y-71425812D01*
X64200000Y-71438072D01*
X65800000Y-71438072D01*
X65924482Y-71425812D01*
X66044180Y-71389502D01*
X66154494Y-71330537D01*
X66251185Y-71251185D01*
X66330537Y-71154494D01*
X66389502Y-71044180D01*
X66425812Y-70924482D01*
X66426643Y-70916039D01*
X66625241Y-71114637D01*
X66860273Y-71271680D01*
X67121426Y-71379853D01*
X67398665Y-71435000D01*
X67681335Y-71435000D01*
X67958574Y-71379853D01*
X68219727Y-71271680D01*
X68454759Y-71114637D01*
X68654637Y-70914759D01*
X68810000Y-70682241D01*
X68965363Y-70914759D01*
X69165241Y-71114637D01*
X69400273Y-71271680D01*
X69661426Y-71379853D01*
X69938665Y-71435000D01*
X70221335Y-71435000D01*
X70498574Y-71379853D01*
X70759727Y-71271680D01*
X70994759Y-71114637D01*
X71194637Y-70914759D01*
X71351680Y-70679727D01*
X71356962Y-70666975D01*
X71408635Y-70769300D01*
X71581994Y-70990844D01*
X71795243Y-71174310D01*
X72040187Y-71312648D01*
X72307413Y-71400542D01*
X72372828Y-71413553D01*
X72597000Y-71276043D01*
X72597000Y-70023000D01*
X72643000Y-70023000D01*
X72643000Y-71276043D01*
X72867172Y-71413553D01*
X72932587Y-71400542D01*
X73199813Y-71312648D01*
X73444757Y-71174310D01*
X73658006Y-70990844D01*
X73831365Y-70769300D01*
X73958172Y-70518193D01*
X74033554Y-70247172D01*
X73896067Y-70023000D01*
X72643000Y-70023000D01*
X72597000Y-70023000D01*
X72577000Y-70023000D01*
X72577000Y-69977000D01*
X72597000Y-69977000D01*
X72597000Y-68723957D01*
X72643000Y-68723957D01*
X72643000Y-69977000D01*
X73896067Y-69977000D01*
X74033554Y-69752828D01*
X73958172Y-69481807D01*
X73831365Y-69230700D01*
X73658006Y-69009156D01*
X73444757Y-68825690D01*
X73199813Y-68687352D01*
X72932587Y-68599458D01*
X72867172Y-68586447D01*
X72643000Y-68723957D01*
X72597000Y-68723957D01*
X72372828Y-68586447D01*
X72307413Y-68599458D01*
X72040187Y-68687352D01*
X71795243Y-68825690D01*
X71581994Y-69009156D01*
X71408635Y-69230700D01*
X71356962Y-69333025D01*
X71351680Y-69320273D01*
X71194637Y-69085241D01*
X70994759Y-68885363D01*
X70759727Y-68728320D01*
X70498574Y-68620147D01*
X70221335Y-68565000D01*
X69938665Y-68565000D01*
X69661426Y-68620147D01*
X69400273Y-68728320D01*
X69165241Y-68885363D01*
X68965363Y-69085241D01*
X68810000Y-69317759D01*
X68654637Y-69085241D01*
X68454759Y-68885363D01*
X68219727Y-68728320D01*
X67958574Y-68620147D01*
X67681335Y-68565000D01*
X67398665Y-68565000D01*
X67121426Y-68620147D01*
X66860273Y-68728320D01*
X66625241Y-68885363D01*
X66426643Y-69083961D01*
X66425812Y-69075518D01*
X66389502Y-68955820D01*
X66330537Y-68845506D01*
X66251185Y-68748815D01*
X66154494Y-68669463D01*
X66044180Y-68610498D01*
X65924482Y-68574188D01*
X65800000Y-68561928D01*
X64200000Y-68561928D01*
X64075518Y-68574188D01*
X63955820Y-68610498D01*
X63845506Y-68669463D01*
X63748815Y-68748815D01*
X63669463Y-68845506D01*
X63610498Y-68955820D01*
X63574188Y-69075518D01*
X63561928Y-69200000D01*
X62758134Y-69200000D01*
X62771680Y-69179727D01*
X62879853Y-68918574D01*
X62935000Y-68641335D01*
X62935000Y-68358665D01*
X62879853Y-68081426D01*
X62771680Y-67820273D01*
X62614637Y-67585241D01*
X62414759Y-67385363D01*
X62179727Y-67228320D01*
X61918574Y-67120147D01*
X61641335Y-67065000D01*
X61358665Y-67065000D01*
X61081426Y-67120147D01*
X60820273Y-67228320D01*
X60585241Y-67385363D01*
X60385363Y-67585241D01*
X60228320Y-67820273D01*
X60120147Y-68081426D01*
X60065000Y-68358665D01*
X33827000Y-68358665D01*
X33827000Y-64624593D01*
X36965000Y-64624593D01*
X36965000Y-65775408D01*
X36987210Y-66000913D01*
X37074983Y-66290261D01*
X37217519Y-66556927D01*
X37409340Y-66790661D01*
X37643074Y-66982481D01*
X37909740Y-67125017D01*
X38199088Y-67212790D01*
X38500000Y-67242427D01*
X38800913Y-67212790D01*
X39090261Y-67125017D01*
X39356927Y-66982481D01*
X39590661Y-66790661D01*
X39782481Y-66556927D01*
X39925017Y-66290261D01*
X40012790Y-66000913D01*
X40035000Y-65775408D01*
X40035000Y-64975855D01*
X40043074Y-64982481D01*
X40309740Y-65125017D01*
X40599088Y-65212790D01*
X40900000Y-65242427D01*
X41200913Y-65212790D01*
X41490261Y-65125017D01*
X41756927Y-64982481D01*
X41990661Y-64790661D01*
X42182481Y-64556927D01*
X42325017Y-64290261D01*
X42412790Y-64000913D01*
X42435000Y-63775408D01*
X42435000Y-62624593D01*
X44865000Y-62624593D01*
X44865000Y-63775408D01*
X44887210Y-64000913D01*
X44974983Y-64290261D01*
X45117519Y-64556927D01*
X45309340Y-64790661D01*
X45543074Y-64982481D01*
X45809740Y-65125017D01*
X46099088Y-65212790D01*
X46400000Y-65242427D01*
X46700913Y-65212790D01*
X46990261Y-65125017D01*
X47189231Y-65018665D01*
X60065000Y-65018665D01*
X60065000Y-65301335D01*
X60120147Y-65578574D01*
X60228320Y-65839727D01*
X60385363Y-66074759D01*
X60585241Y-66274637D01*
X60820273Y-66431680D01*
X61081426Y-66539853D01*
X61358665Y-66595000D01*
X61641335Y-66595000D01*
X61918574Y-66539853D01*
X62179727Y-66431680D01*
X62414759Y-66274637D01*
X62614637Y-66074759D01*
X62771680Y-65839727D01*
X62879853Y-65578574D01*
X62935000Y-65301335D01*
X62935000Y-65018665D01*
X62879853Y-64741426D01*
X62771680Y-64480273D01*
X62716748Y-64398061D01*
X63465000Y-64398061D01*
X63465000Y-64601939D01*
X63504774Y-64801898D01*
X63582795Y-64990256D01*
X63696063Y-65159774D01*
X63840226Y-65303937D01*
X64009744Y-65417205D01*
X64198102Y-65495226D01*
X64398061Y-65535000D01*
X64601939Y-65535000D01*
X64801898Y-65495226D01*
X64990256Y-65417205D01*
X65018907Y-65398061D01*
X73965000Y-65398061D01*
X73965000Y-65601939D01*
X74004774Y-65801898D01*
X74082795Y-65990256D01*
X74196063Y-66159774D01*
X74340226Y-66303937D01*
X74509744Y-66417205D01*
X74698102Y-66495226D01*
X74898061Y-66535000D01*
X75101939Y-66535000D01*
X75301898Y-66495226D01*
X75490256Y-66417205D01*
X75576576Y-66359528D01*
X75620147Y-66578574D01*
X75728320Y-66839727D01*
X75885363Y-67074759D01*
X76085241Y-67274637D01*
X76320273Y-67431680D01*
X76581426Y-67539853D01*
X76858665Y-67595000D01*
X77141335Y-67595000D01*
X77418574Y-67539853D01*
X77679727Y-67431680D01*
X77914759Y-67274637D01*
X78114637Y-67074759D01*
X78271680Y-66839727D01*
X78379853Y-66578574D01*
X78435000Y-66301335D01*
X78435000Y-66018665D01*
X78379853Y-65741426D01*
X78271680Y-65480273D01*
X78114637Y-65245241D01*
X77914759Y-65045363D01*
X77679727Y-64888320D01*
X77418574Y-64780147D01*
X77141335Y-64725000D01*
X76858665Y-64725000D01*
X76581426Y-64780147D01*
X76320273Y-64888320D01*
X76085241Y-65045363D01*
X75976854Y-65153750D01*
X75917205Y-65009744D01*
X75803937Y-64840226D01*
X75659774Y-64696063D01*
X75490256Y-64582795D01*
X75301898Y-64504774D01*
X75101939Y-64465000D01*
X74898061Y-64465000D01*
X74698102Y-64504774D01*
X74509744Y-64582795D01*
X74340226Y-64696063D01*
X74196063Y-64840226D01*
X74082795Y-65009744D01*
X74004774Y-65198102D01*
X73965000Y-65398061D01*
X65018907Y-65398061D01*
X65159774Y-65303937D01*
X65303937Y-65159774D01*
X65417205Y-64990256D01*
X65495226Y-64801898D01*
X65535000Y-64601939D01*
X65535000Y-64398061D01*
X65495226Y-64198102D01*
X65417205Y-64009744D01*
X65303937Y-63840226D01*
X65255919Y-63792208D01*
X65418574Y-63759853D01*
X65679727Y-63651680D01*
X65914759Y-63494637D01*
X66114637Y-63294759D01*
X66270000Y-63062241D01*
X66425363Y-63294759D01*
X66625241Y-63494637D01*
X66860273Y-63651680D01*
X67121426Y-63759853D01*
X67398665Y-63815000D01*
X67681335Y-63815000D01*
X67958574Y-63759853D01*
X68219727Y-63651680D01*
X68454759Y-63494637D01*
X68654637Y-63294759D01*
X68810000Y-63062241D01*
X68965363Y-63294759D01*
X69165241Y-63494637D01*
X69400273Y-63651680D01*
X69661426Y-63759853D01*
X69938665Y-63815000D01*
X70221335Y-63815000D01*
X70498574Y-63759853D01*
X70759727Y-63651680D01*
X70994759Y-63494637D01*
X71194637Y-63294759D01*
X71350000Y-63062241D01*
X71505363Y-63294759D01*
X71705241Y-63494637D01*
X71940273Y-63651680D01*
X72201426Y-63759853D01*
X72478665Y-63815000D01*
X72761335Y-63815000D01*
X73038574Y-63759853D01*
X73299727Y-63651680D01*
X73534759Y-63494637D01*
X73734637Y-63294759D01*
X73891680Y-63059727D01*
X73970872Y-62868541D01*
X73965000Y-62898061D01*
X73965000Y-63101939D01*
X74004774Y-63301898D01*
X74082795Y-63490256D01*
X74196063Y-63659774D01*
X74340226Y-63803937D01*
X74509744Y-63917205D01*
X74698102Y-63995226D01*
X74898061Y-64035000D01*
X75101939Y-64035000D01*
X75301898Y-63995226D01*
X75490256Y-63917205D01*
X75659774Y-63803937D01*
X75803937Y-63659774D01*
X75917205Y-63490256D01*
X75995226Y-63301898D01*
X76035000Y-63101939D01*
X76035000Y-62898061D01*
X75995226Y-62698102D01*
X75917205Y-62509744D01*
X75803937Y-62340226D01*
X75659774Y-62196063D01*
X75490256Y-62082795D01*
X75301898Y-62004774D01*
X75101939Y-61965000D01*
X74898061Y-61965000D01*
X74698102Y-62004774D01*
X74509744Y-62082795D01*
X74340226Y-62196063D01*
X74196063Y-62340226D01*
X74082795Y-62509744D01*
X74033756Y-62628133D01*
X74055000Y-62521335D01*
X74055000Y-62238665D01*
X73999853Y-61961426D01*
X73891680Y-61700273D01*
X73734637Y-61465241D01*
X73534759Y-61265363D01*
X73299727Y-61108320D01*
X73038574Y-61000147D01*
X72761335Y-60945000D01*
X72478665Y-60945000D01*
X72201426Y-61000147D01*
X71940273Y-61108320D01*
X71705241Y-61265363D01*
X71505363Y-61465241D01*
X71350000Y-61697759D01*
X71194637Y-61465241D01*
X70994759Y-61265363D01*
X70759727Y-61108320D01*
X70498574Y-61000147D01*
X70221335Y-60945000D01*
X69938665Y-60945000D01*
X69661426Y-61000147D01*
X69400273Y-61108320D01*
X69165241Y-61265363D01*
X68965363Y-61465241D01*
X68810000Y-61697759D01*
X68654637Y-61465241D01*
X68454759Y-61265363D01*
X68219727Y-61108320D01*
X67958574Y-61000147D01*
X67681335Y-60945000D01*
X67398665Y-60945000D01*
X67121426Y-61000147D01*
X66860273Y-61108320D01*
X66625241Y-61265363D01*
X66425363Y-61465241D01*
X66270000Y-61697759D01*
X66114637Y-61465241D01*
X65914759Y-61265363D01*
X65679727Y-61108320D01*
X65418574Y-61000147D01*
X65141335Y-60945000D01*
X64858665Y-60945000D01*
X64581426Y-61000147D01*
X64320273Y-61108320D01*
X64085241Y-61265363D01*
X63885363Y-61465241D01*
X63728320Y-61700273D01*
X63620147Y-61961426D01*
X63565000Y-62238665D01*
X63565000Y-62521335D01*
X63620147Y-62798574D01*
X63728320Y-63059727D01*
X63885363Y-63294759D01*
X64085241Y-63494637D01*
X64137797Y-63529753D01*
X64009744Y-63582795D01*
X63840226Y-63696063D01*
X63696063Y-63840226D01*
X63582795Y-64009744D01*
X63504774Y-64198102D01*
X63465000Y-64398061D01*
X62716748Y-64398061D01*
X62614637Y-64245241D01*
X62414759Y-64045363D01*
X62179727Y-63888320D01*
X61918574Y-63780147D01*
X61641335Y-63725000D01*
X61358665Y-63725000D01*
X61081426Y-63780147D01*
X60820273Y-63888320D01*
X60585241Y-64045363D01*
X60385363Y-64245241D01*
X60228320Y-64480273D01*
X60120147Y-64741426D01*
X60065000Y-65018665D01*
X47189231Y-65018665D01*
X47256927Y-64982481D01*
X47490661Y-64790661D01*
X47682481Y-64556927D01*
X47825017Y-64290261D01*
X47912790Y-64000913D01*
X47935000Y-63775408D01*
X47935000Y-62624592D01*
X47912790Y-62399087D01*
X47825017Y-62109739D01*
X47711873Y-61898061D01*
X60465000Y-61898061D01*
X60465000Y-62101939D01*
X60504774Y-62301898D01*
X60582795Y-62490256D01*
X60696063Y-62659774D01*
X60840226Y-62803937D01*
X61009744Y-62917205D01*
X61198102Y-62995226D01*
X61398061Y-63035000D01*
X61601939Y-63035000D01*
X61801898Y-62995226D01*
X61990256Y-62917205D01*
X62159774Y-62803937D01*
X62303937Y-62659774D01*
X62417205Y-62490256D01*
X62495226Y-62301898D01*
X62535000Y-62101939D01*
X62535000Y-61898061D01*
X62495226Y-61698102D01*
X62417205Y-61509744D01*
X62303937Y-61340226D01*
X62159774Y-61196063D01*
X61990256Y-61082795D01*
X61801898Y-61004774D01*
X61601939Y-60965000D01*
X61398061Y-60965000D01*
X61198102Y-61004774D01*
X61009744Y-61082795D01*
X60840226Y-61196063D01*
X60696063Y-61340226D01*
X60582795Y-61509744D01*
X60504774Y-61698102D01*
X60465000Y-61898061D01*
X47711873Y-61898061D01*
X47682481Y-61843073D01*
X47490661Y-61609339D01*
X47256926Y-61417519D01*
X46990260Y-61274983D01*
X46700912Y-61187210D01*
X46400000Y-61157573D01*
X46099087Y-61187210D01*
X45809739Y-61274983D01*
X45543073Y-61417519D01*
X45309339Y-61609339D01*
X45117519Y-61843074D01*
X44974983Y-62109740D01*
X44887210Y-62399088D01*
X44865000Y-62624593D01*
X42435000Y-62624593D01*
X42435000Y-62624592D01*
X42412790Y-62399087D01*
X42325017Y-62109739D01*
X42182481Y-61843073D01*
X41990661Y-61609339D01*
X41756926Y-61417519D01*
X41490260Y-61274983D01*
X41200912Y-61187210D01*
X40900000Y-61157573D01*
X40599087Y-61187210D01*
X40309739Y-61274983D01*
X40043073Y-61417519D01*
X39809339Y-61609339D01*
X39617519Y-61843074D01*
X39474983Y-62109740D01*
X39387210Y-62399088D01*
X39365000Y-62624593D01*
X39365000Y-63424145D01*
X39356926Y-63417519D01*
X39090260Y-63274983D01*
X38800912Y-63187210D01*
X38500000Y-63157573D01*
X38199087Y-63187210D01*
X37909739Y-63274983D01*
X37643073Y-63417519D01*
X37409339Y-63609339D01*
X37217519Y-63843074D01*
X37074983Y-64109740D01*
X36987210Y-64399088D01*
X36965000Y-64624593D01*
X33827000Y-64624593D01*
X33827000Y-58943249D01*
X38989278Y-58943249D01*
X39105353Y-59245782D01*
X39427954Y-59429636D01*
X39780224Y-59547020D01*
X40148626Y-59593424D01*
X40519002Y-59567065D01*
X40877119Y-59468956D01*
X41209215Y-59302866D01*
X41294647Y-59245782D01*
X41410722Y-58943249D01*
X40200000Y-57732527D01*
X38989278Y-58943249D01*
X33827000Y-58943249D01*
X33827000Y-57648626D01*
X38306576Y-57648626D01*
X38332935Y-58019002D01*
X38431044Y-58377119D01*
X38597134Y-58709215D01*
X38654218Y-58794647D01*
X38956751Y-58910722D01*
X40167473Y-57700000D01*
X40232527Y-57700000D01*
X41443249Y-58910722D01*
X41745782Y-58794647D01*
X41789085Y-58718665D01*
X48565000Y-58718665D01*
X48565000Y-59001335D01*
X48620147Y-59278574D01*
X48728320Y-59539727D01*
X48885363Y-59774759D01*
X49085241Y-59974637D01*
X49320273Y-60131680D01*
X49581426Y-60239853D01*
X49858665Y-60295000D01*
X50141335Y-60295000D01*
X50418574Y-60239853D01*
X50679727Y-60131680D01*
X50914759Y-59974637D01*
X51114637Y-59774759D01*
X51271680Y-59539727D01*
X51379853Y-59278574D01*
X51435000Y-59001335D01*
X51435000Y-59146260D01*
X51492068Y-59433158D01*
X51604010Y-59703411D01*
X51766525Y-59946632D01*
X51973368Y-60153475D01*
X52216589Y-60315990D01*
X52486842Y-60427932D01*
X52773740Y-60485000D01*
X53066260Y-60485000D01*
X53353158Y-60427932D01*
X53623411Y-60315990D01*
X53866632Y-60153475D01*
X54073475Y-59946632D01*
X54190000Y-59772240D01*
X54306525Y-59946632D01*
X54513368Y-60153475D01*
X54756589Y-60315990D01*
X55026842Y-60427932D01*
X55313740Y-60485000D01*
X55606260Y-60485000D01*
X55893158Y-60427932D01*
X56163411Y-60315990D01*
X56406632Y-60153475D01*
X56538487Y-60021620D01*
X56560498Y-60094180D01*
X56619463Y-60204494D01*
X56698815Y-60301185D01*
X56795506Y-60380537D01*
X56905820Y-60439502D01*
X57025518Y-60475812D01*
X57150000Y-60488072D01*
X58850000Y-60488072D01*
X58974482Y-60475812D01*
X59094180Y-60439502D01*
X59204494Y-60380537D01*
X59301185Y-60301185D01*
X59380537Y-60204494D01*
X59439502Y-60094180D01*
X59475812Y-59974482D01*
X59488072Y-59850000D01*
X59488072Y-59358665D01*
X62565000Y-59358665D01*
X62565000Y-59641335D01*
X62620147Y-59918574D01*
X62728320Y-60179727D01*
X62885363Y-60414759D01*
X63085241Y-60614637D01*
X63320273Y-60771680D01*
X63581426Y-60879853D01*
X63858665Y-60935000D01*
X64141335Y-60935000D01*
X64418574Y-60879853D01*
X64679727Y-60771680D01*
X64914759Y-60614637D01*
X65114637Y-60414759D01*
X65271680Y-60179727D01*
X65379853Y-59918574D01*
X65435000Y-59641335D01*
X65435000Y-59358665D01*
X72725000Y-59358665D01*
X72725000Y-59641335D01*
X72780147Y-59918574D01*
X72888320Y-60179727D01*
X73045363Y-60414759D01*
X73245241Y-60614637D01*
X73480273Y-60771680D01*
X73741426Y-60879853D01*
X74018665Y-60935000D01*
X74301335Y-60935000D01*
X74578574Y-60879853D01*
X74839727Y-60771680D01*
X75074759Y-60614637D01*
X75274637Y-60414759D01*
X75431680Y-60179727D01*
X75539853Y-59918574D01*
X75595000Y-59641335D01*
X75595000Y-59358665D01*
X75539853Y-59081426D01*
X75431680Y-58820273D01*
X75274637Y-58585241D01*
X75074759Y-58385363D01*
X74839727Y-58228320D01*
X74590291Y-58125000D01*
X83986928Y-58125000D01*
X83986928Y-59875000D01*
X83999188Y-59999482D01*
X84035498Y-60119180D01*
X84094463Y-60229494D01*
X84173815Y-60326185D01*
X84270506Y-60405537D01*
X84380820Y-60464502D01*
X84395564Y-60468974D01*
X84327107Y-60537431D01*
X84161856Y-60784747D01*
X84048029Y-61059549D01*
X83990000Y-61351278D01*
X83990000Y-61648722D01*
X84048029Y-61940451D01*
X84161856Y-62215253D01*
X84327107Y-62462569D01*
X84537431Y-62672893D01*
X84652830Y-62750000D01*
X84537431Y-62827107D01*
X84327107Y-63037431D01*
X84161856Y-63284747D01*
X84048029Y-63559549D01*
X83990000Y-63851278D01*
X83990000Y-64148722D01*
X84048029Y-64440451D01*
X84161856Y-64715253D01*
X84327107Y-64962569D01*
X84537431Y-65172893D01*
X84784747Y-65338144D01*
X85059549Y-65451971D01*
X85351278Y-65510000D01*
X85648722Y-65510000D01*
X85940451Y-65451971D01*
X86215253Y-65338144D01*
X86462569Y-65172893D01*
X86672893Y-64962569D01*
X86838144Y-64715253D01*
X86951971Y-64440451D01*
X87010000Y-64148722D01*
X87010000Y-63851278D01*
X86951971Y-63559549D01*
X86838144Y-63284747D01*
X86672893Y-63037431D01*
X86462569Y-62827107D01*
X86347170Y-62750000D01*
X86462569Y-62672893D01*
X86672893Y-62462569D01*
X86838144Y-62215253D01*
X86951971Y-61940451D01*
X87010000Y-61648722D01*
X87010000Y-61351278D01*
X86951971Y-61059549D01*
X86838144Y-60784747D01*
X86672893Y-60537431D01*
X86604436Y-60468974D01*
X86619180Y-60464502D01*
X86729494Y-60405537D01*
X86826185Y-60326185D01*
X86905537Y-60229494D01*
X86964502Y-60119180D01*
X87000812Y-59999482D01*
X87013072Y-59875000D01*
X87013072Y-58125000D01*
X87000812Y-58000518D01*
X86964502Y-57880820D01*
X86905537Y-57770506D01*
X86826185Y-57673815D01*
X86729494Y-57594463D01*
X86619180Y-57535498D01*
X86499482Y-57499188D01*
X86375000Y-57486928D01*
X84625000Y-57486928D01*
X84500518Y-57499188D01*
X84380820Y-57535498D01*
X84270506Y-57594463D01*
X84173815Y-57673815D01*
X84094463Y-57770506D01*
X84035498Y-57880820D01*
X83999188Y-58000518D01*
X83986928Y-58125000D01*
X74590291Y-58125000D01*
X74578574Y-58120147D01*
X74301335Y-58065000D01*
X74018665Y-58065000D01*
X73741426Y-58120147D01*
X73480273Y-58228320D01*
X73245241Y-58385363D01*
X73045363Y-58585241D01*
X72888320Y-58820273D01*
X72780147Y-59081426D01*
X72725000Y-59358665D01*
X65435000Y-59358665D01*
X65379853Y-59081426D01*
X65271680Y-58820273D01*
X65114637Y-58585241D01*
X64914759Y-58385363D01*
X64679727Y-58228320D01*
X64418574Y-58120147D01*
X64141335Y-58065000D01*
X63858665Y-58065000D01*
X63581426Y-58120147D01*
X63320273Y-58228320D01*
X63085241Y-58385363D01*
X62885363Y-58585241D01*
X62728320Y-58820273D01*
X62620147Y-59081426D01*
X62565000Y-59358665D01*
X59488072Y-59358665D01*
X59488072Y-58150000D01*
X59475812Y-58025518D01*
X59439502Y-57905820D01*
X59380537Y-57795506D01*
X59301185Y-57698815D01*
X59204494Y-57619463D01*
X59094180Y-57560498D01*
X58974482Y-57524188D01*
X58850000Y-57511928D01*
X57150000Y-57511928D01*
X57025518Y-57524188D01*
X56905820Y-57560498D01*
X56795506Y-57619463D01*
X56698815Y-57698815D01*
X56619463Y-57795506D01*
X56560498Y-57905820D01*
X56538487Y-57978380D01*
X56406632Y-57846525D01*
X56163411Y-57684010D01*
X55893158Y-57572068D01*
X55606260Y-57515000D01*
X55313740Y-57515000D01*
X55026842Y-57572068D01*
X54756589Y-57684010D01*
X54513368Y-57846525D01*
X54306525Y-58053368D01*
X54190000Y-58227760D01*
X54073475Y-58053368D01*
X53866632Y-57846525D01*
X53623411Y-57684010D01*
X53353158Y-57572068D01*
X53066260Y-57515000D01*
X52773740Y-57515000D01*
X52486842Y-57572068D01*
X52216589Y-57684010D01*
X51973368Y-57846525D01*
X51766525Y-58053368D01*
X51604010Y-58296589D01*
X51492068Y-58566842D01*
X51435000Y-58853740D01*
X51435000Y-58718665D01*
X51379853Y-58441426D01*
X51271680Y-58180273D01*
X51114637Y-57945241D01*
X50914759Y-57745363D01*
X50679727Y-57588320D01*
X50418574Y-57480147D01*
X50141335Y-57425000D01*
X49858665Y-57425000D01*
X49581426Y-57480147D01*
X49320273Y-57588320D01*
X49085241Y-57745363D01*
X48885363Y-57945241D01*
X48728320Y-58180273D01*
X48620147Y-58441426D01*
X48565000Y-58718665D01*
X41789085Y-58718665D01*
X41929636Y-58472046D01*
X42047020Y-58119776D01*
X42093424Y-57751374D01*
X42067065Y-57380998D01*
X41968956Y-57022881D01*
X41802866Y-56690785D01*
X41745782Y-56605353D01*
X41443249Y-56489278D01*
X40232527Y-57700000D01*
X40167473Y-57700000D01*
X38956751Y-56489278D01*
X38654218Y-56605353D01*
X38470364Y-56927954D01*
X38352980Y-57280224D01*
X38306576Y-57648626D01*
X33827000Y-57648626D01*
X33827000Y-56456751D01*
X38989278Y-56456751D01*
X40200000Y-57667473D01*
X41410722Y-56456751D01*
X41294647Y-56154218D01*
X40972046Y-55970364D01*
X40619776Y-55852980D01*
X40251374Y-55806576D01*
X39880998Y-55832935D01*
X39522881Y-55931044D01*
X39190785Y-56097134D01*
X39105353Y-56154218D01*
X38989278Y-56456751D01*
X33827000Y-56456751D01*
X33827000Y-54858665D01*
X60065000Y-54858665D01*
X60065000Y-55141335D01*
X60120147Y-55418574D01*
X60228320Y-55679727D01*
X60385363Y-55914759D01*
X60585241Y-56114637D01*
X60820273Y-56271680D01*
X61081426Y-56379853D01*
X61358665Y-56435000D01*
X61641335Y-56435000D01*
X61918574Y-56379853D01*
X62179727Y-56271680D01*
X62414759Y-56114637D01*
X62468757Y-56060639D01*
X62460147Y-56081426D01*
X62405000Y-56358665D01*
X62405000Y-56641335D01*
X62460147Y-56918574D01*
X62568320Y-57179727D01*
X62725363Y-57414759D01*
X62925241Y-57614637D01*
X63160273Y-57771680D01*
X63421426Y-57879853D01*
X63698665Y-57935000D01*
X63981335Y-57935000D01*
X64258574Y-57879853D01*
X64519727Y-57771680D01*
X64754759Y-57614637D01*
X64954637Y-57414759D01*
X65111680Y-57179727D01*
X65219853Y-56918574D01*
X65275000Y-56641335D01*
X65275000Y-56358665D01*
X72565000Y-56358665D01*
X72565000Y-56641335D01*
X72620147Y-56918574D01*
X72728320Y-57179727D01*
X72885363Y-57414759D01*
X73085241Y-57614637D01*
X73320273Y-57771680D01*
X73581426Y-57879853D01*
X73858665Y-57935000D01*
X74141335Y-57935000D01*
X74418574Y-57879853D01*
X74679727Y-57771680D01*
X74914759Y-57614637D01*
X75114637Y-57414759D01*
X75271680Y-57179727D01*
X75379853Y-56918574D01*
X75435000Y-56641335D01*
X75435000Y-56358665D01*
X75379853Y-56081426D01*
X75287583Y-55858665D01*
X75565000Y-55858665D01*
X75565000Y-56141335D01*
X75620147Y-56418574D01*
X75728320Y-56679727D01*
X75885363Y-56914759D01*
X76085241Y-57114637D01*
X76320273Y-57271680D01*
X76581426Y-57379853D01*
X76858665Y-57435000D01*
X77141335Y-57435000D01*
X77418574Y-57379853D01*
X77679727Y-57271680D01*
X77914759Y-57114637D01*
X78114637Y-56914759D01*
X78271680Y-56679727D01*
X78379853Y-56418574D01*
X78435000Y-56141335D01*
X78435000Y-55858665D01*
X78379853Y-55581426D01*
X78271680Y-55320273D01*
X78114637Y-55085241D01*
X77914759Y-54885363D01*
X77679727Y-54728320D01*
X77418574Y-54620147D01*
X77141335Y-54565000D01*
X76858665Y-54565000D01*
X76581426Y-54620147D01*
X76320273Y-54728320D01*
X76085241Y-54885363D01*
X75885363Y-55085241D01*
X75728320Y-55320273D01*
X75620147Y-55581426D01*
X75565000Y-55858665D01*
X75287583Y-55858665D01*
X75271680Y-55820273D01*
X75114637Y-55585241D01*
X74914759Y-55385363D01*
X74679727Y-55228320D01*
X74418574Y-55120147D01*
X74141335Y-55065000D01*
X73858665Y-55065000D01*
X73581426Y-55120147D01*
X73320273Y-55228320D01*
X73085241Y-55385363D01*
X72885363Y-55585241D01*
X72728320Y-55820273D01*
X72620147Y-56081426D01*
X72565000Y-56358665D01*
X65275000Y-56358665D01*
X65219853Y-56081426D01*
X65111680Y-55820273D01*
X64954637Y-55585241D01*
X64754759Y-55385363D01*
X64519727Y-55228320D01*
X64258574Y-55120147D01*
X63981335Y-55065000D01*
X63698665Y-55065000D01*
X63421426Y-55120147D01*
X63160273Y-55228320D01*
X62925241Y-55385363D01*
X62871243Y-55439361D01*
X62879853Y-55418574D01*
X62935000Y-55141335D01*
X62935000Y-54858665D01*
X62879853Y-54581426D01*
X62771680Y-54320273D01*
X62614637Y-54085241D01*
X62414759Y-53885363D01*
X62179727Y-53728320D01*
X61918574Y-53620147D01*
X61641335Y-53565000D01*
X61358665Y-53565000D01*
X61081426Y-53620147D01*
X60820273Y-53728320D01*
X60585241Y-53885363D01*
X60385363Y-54085241D01*
X60228320Y-54320273D01*
X60120147Y-54581426D01*
X60065000Y-54858665D01*
X33827000Y-54858665D01*
X33827000Y-52514344D01*
X38315000Y-52514344D01*
X38315000Y-52885656D01*
X38387439Y-53249834D01*
X38529534Y-53592882D01*
X38735825Y-53901618D01*
X38998382Y-54164175D01*
X39307118Y-54370466D01*
X39650166Y-54512561D01*
X40014344Y-54585000D01*
X40385656Y-54585000D01*
X40749834Y-54512561D01*
X41092882Y-54370466D01*
X41401618Y-54164175D01*
X41664175Y-53901618D01*
X41870466Y-53592882D01*
X42012561Y-53249834D01*
X42085000Y-52885656D01*
X42085000Y-52514344D01*
X42012561Y-52150166D01*
X41870466Y-51807118D01*
X41664175Y-51498382D01*
X41401618Y-51235825D01*
X41092882Y-51029534D01*
X40749834Y-50887439D01*
X40385656Y-50815000D01*
X40014344Y-50815000D01*
X39650166Y-50887439D01*
X39307118Y-51029534D01*
X38998382Y-51235825D01*
X38735825Y-51498382D01*
X38529534Y-51807118D01*
X38387439Y-52150166D01*
X38315000Y-52514344D01*
X33827000Y-52514344D01*
X33827000Y-50366544D01*
X64065000Y-50366544D01*
X64065000Y-50633456D01*
X64117072Y-50895239D01*
X64219215Y-51141833D01*
X64367503Y-51363762D01*
X64556238Y-51552497D01*
X64778167Y-51700785D01*
X65024761Y-51802928D01*
X65286544Y-51855000D01*
X65553456Y-51855000D01*
X65815239Y-51802928D01*
X66061833Y-51700785D01*
X66283762Y-51552497D01*
X66472497Y-51363762D01*
X66620785Y-51141833D01*
X66690000Y-50974734D01*
X66759215Y-51141833D01*
X66907503Y-51363762D01*
X67096238Y-51552497D01*
X67318167Y-51700785D01*
X67564761Y-51802928D01*
X67826544Y-51855000D01*
X68093456Y-51855000D01*
X68355239Y-51802928D01*
X68601833Y-51700785D01*
X68823762Y-51552497D01*
X69012497Y-51363762D01*
X69160785Y-51141833D01*
X69230000Y-50974734D01*
X69299215Y-51141833D01*
X69447503Y-51363762D01*
X69636238Y-51552497D01*
X69858167Y-51700785D01*
X70104761Y-51802928D01*
X70366544Y-51855000D01*
X70633456Y-51855000D01*
X70895239Y-51802928D01*
X71141833Y-51700785D01*
X71363762Y-51552497D01*
X71552497Y-51363762D01*
X71700785Y-51141833D01*
X71802928Y-50895239D01*
X71855000Y-50633456D01*
X71855000Y-50366544D01*
X74065000Y-50366544D01*
X74065000Y-50633456D01*
X74117072Y-50895239D01*
X74219215Y-51141833D01*
X74367503Y-51363762D01*
X74556238Y-51552497D01*
X74778167Y-51700785D01*
X75024761Y-51802928D01*
X75286544Y-51855000D01*
X75553456Y-51855000D01*
X75815239Y-51802928D01*
X76061833Y-51700785D01*
X76283762Y-51552497D01*
X76472497Y-51363762D01*
X76620785Y-51141833D01*
X76690000Y-50974734D01*
X76759215Y-51141833D01*
X76907503Y-51363762D01*
X77096238Y-51552497D01*
X77318167Y-51700785D01*
X77564761Y-51802928D01*
X77826544Y-51855000D01*
X78093456Y-51855000D01*
X78355239Y-51802928D01*
X78601833Y-51700785D01*
X78823762Y-51552497D01*
X79012497Y-51363762D01*
X79160785Y-51141833D01*
X79230000Y-50974734D01*
X79299215Y-51141833D01*
X79447503Y-51363762D01*
X79636238Y-51552497D01*
X79858167Y-51700785D01*
X80104761Y-51802928D01*
X80366544Y-51855000D01*
X80633456Y-51855000D01*
X80895239Y-51802928D01*
X81141833Y-51700785D01*
X81363762Y-51552497D01*
X81552497Y-51363762D01*
X81700785Y-51141833D01*
X81802928Y-50895239D01*
X81855000Y-50633456D01*
X81855000Y-50366544D01*
X81802928Y-50104761D01*
X81700785Y-49858167D01*
X81552497Y-49636238D01*
X81363762Y-49447503D01*
X81141833Y-49299215D01*
X80895239Y-49197072D01*
X80633456Y-49145000D01*
X80366544Y-49145000D01*
X80104761Y-49197072D01*
X79858167Y-49299215D01*
X79636238Y-49447503D01*
X79447503Y-49636238D01*
X79299215Y-49858167D01*
X79230000Y-50025266D01*
X79160785Y-49858167D01*
X79012497Y-49636238D01*
X78823762Y-49447503D01*
X78601833Y-49299215D01*
X78355239Y-49197072D01*
X78093456Y-49145000D01*
X77826544Y-49145000D01*
X77564761Y-49197072D01*
X77318167Y-49299215D01*
X77096238Y-49447503D01*
X76907503Y-49636238D01*
X76759215Y-49858167D01*
X76690000Y-50025266D01*
X76620785Y-49858167D01*
X76472497Y-49636238D01*
X76283762Y-49447503D01*
X76061833Y-49299215D01*
X75815239Y-49197072D01*
X75553456Y-49145000D01*
X75286544Y-49145000D01*
X75024761Y-49197072D01*
X74778167Y-49299215D01*
X74556238Y-49447503D01*
X74367503Y-49636238D01*
X74219215Y-49858167D01*
X74117072Y-50104761D01*
X74065000Y-50366544D01*
X71855000Y-50366544D01*
X71802928Y-50104761D01*
X71700785Y-49858167D01*
X71552497Y-49636238D01*
X71363762Y-49447503D01*
X71141833Y-49299215D01*
X70895239Y-49197072D01*
X70633456Y-49145000D01*
X70366544Y-49145000D01*
X70104761Y-49197072D01*
X69858167Y-49299215D01*
X69636238Y-49447503D01*
X69447503Y-49636238D01*
X69299215Y-49858167D01*
X69230000Y-50025266D01*
X69160785Y-49858167D01*
X69012497Y-49636238D01*
X68823762Y-49447503D01*
X68601833Y-49299215D01*
X68355239Y-49197072D01*
X68093456Y-49145000D01*
X67826544Y-49145000D01*
X67564761Y-49197072D01*
X67318167Y-49299215D01*
X67096238Y-49447503D01*
X66907503Y-49636238D01*
X66759215Y-49858167D01*
X66690000Y-50025266D01*
X66620785Y-49858167D01*
X66472497Y-49636238D01*
X66283762Y-49447503D01*
X66061833Y-49299215D01*
X65815239Y-49197072D01*
X65553456Y-49145000D01*
X65286544Y-49145000D01*
X65024761Y-49197072D01*
X64778167Y-49299215D01*
X64556238Y-49447503D01*
X64367503Y-49636238D01*
X64219215Y-49858167D01*
X64117072Y-50104761D01*
X64065000Y-50366544D01*
X33827000Y-50366544D01*
X33827000Y-46450000D01*
X38311928Y-46450000D01*
X38311928Y-48950000D01*
X38324188Y-49074482D01*
X38360498Y-49194180D01*
X38419463Y-49304494D01*
X38498815Y-49401185D01*
X38595506Y-49480537D01*
X38705820Y-49539502D01*
X38825518Y-49575812D01*
X38950000Y-49588072D01*
X41450000Y-49588072D01*
X41574482Y-49575812D01*
X41694180Y-49539502D01*
X41804494Y-49480537D01*
X41901185Y-49401185D01*
X41980537Y-49304494D01*
X42039502Y-49194180D01*
X42075812Y-49074482D01*
X42088072Y-48950000D01*
X42088072Y-48558665D01*
X48565000Y-48558665D01*
X48565000Y-48841335D01*
X48620147Y-49118574D01*
X48728320Y-49379727D01*
X48885363Y-49614759D01*
X49085241Y-49814637D01*
X49320273Y-49971680D01*
X49581426Y-50079853D01*
X49858665Y-50135000D01*
X50141335Y-50135000D01*
X50418574Y-50079853D01*
X50679727Y-49971680D01*
X50914759Y-49814637D01*
X51114637Y-49614759D01*
X51271680Y-49379727D01*
X51379853Y-49118574D01*
X51435000Y-48841335D01*
X51435000Y-48558665D01*
X51379853Y-48281426D01*
X51271680Y-48020273D01*
X51114637Y-47785241D01*
X50914759Y-47585363D01*
X50679727Y-47428320D01*
X50418574Y-47320147D01*
X50141335Y-47265000D01*
X49858665Y-47265000D01*
X49581426Y-47320147D01*
X49320273Y-47428320D01*
X49085241Y-47585363D01*
X48885363Y-47785241D01*
X48728320Y-48020273D01*
X48620147Y-48281426D01*
X48565000Y-48558665D01*
X42088072Y-48558665D01*
X42088072Y-46450000D01*
X42075812Y-46325518D01*
X42039502Y-46205820D01*
X41980537Y-46095506D01*
X41901185Y-45998815D01*
X41804494Y-45919463D01*
X41694180Y-45860498D01*
X41574482Y-45824188D01*
X41450000Y-45811928D01*
X38950000Y-45811928D01*
X38825518Y-45824188D01*
X38705820Y-45860498D01*
X38595506Y-45919463D01*
X38498815Y-45998815D01*
X38419463Y-46095506D01*
X38360498Y-46205820D01*
X38324188Y-46325518D01*
X38311928Y-46450000D01*
X33827000Y-46450000D01*
X33827000Y-45227000D01*
X88840001Y-45227000D01*
X88840000Y-95467721D01*
G37*
X88840000Y-95467721D02*
X88830420Y-95565424D01*
X88811420Y-95628357D01*
X88780554Y-95686406D01*
X88739011Y-95737343D01*
X88688356Y-95779248D01*
X88630529Y-95810515D01*
X88567728Y-95829956D01*
X88472165Y-95840000D01*
X38223668Y-95840000D01*
X38606575Y-95457093D01*
X38959730Y-94928558D01*
X39202988Y-94341281D01*
X39327000Y-93717832D01*
X39327000Y-93478665D01*
X48445000Y-93478665D01*
X48445000Y-93761335D01*
X48500147Y-94038574D01*
X48608320Y-94299727D01*
X48765363Y-94534759D01*
X48965241Y-94734637D01*
X49200273Y-94891680D01*
X49461426Y-94999853D01*
X49738665Y-95055000D01*
X50021335Y-95055000D01*
X50298574Y-94999853D01*
X50559727Y-94891680D01*
X50794759Y-94734637D01*
X50994637Y-94534759D01*
X51150000Y-94302241D01*
X51305363Y-94534759D01*
X51505241Y-94734637D01*
X51740273Y-94891680D01*
X52001426Y-94999853D01*
X52278665Y-95055000D01*
X52561335Y-95055000D01*
X52838574Y-94999853D01*
X53099727Y-94891680D01*
X53334759Y-94734637D01*
X53534637Y-94534759D01*
X53690000Y-94302241D01*
X53845363Y-94534759D01*
X54045241Y-94734637D01*
X54280273Y-94891680D01*
X54541426Y-94999853D01*
X54818665Y-95055000D01*
X55101335Y-95055000D01*
X55378574Y-94999853D01*
X55639727Y-94891680D01*
X55874759Y-94734637D01*
X56074637Y-94534759D01*
X56230000Y-94302241D01*
X56385363Y-94534759D01*
X56585241Y-94734637D01*
X56820273Y-94891680D01*
X57081426Y-94999853D01*
X57358665Y-95055000D01*
X57641335Y-95055000D01*
X57918574Y-94999853D01*
X58179727Y-94891680D01*
X58414759Y-94734637D01*
X58614637Y-94534759D01*
X58771680Y-94299727D01*
X58879853Y-94038574D01*
X58935000Y-93761335D01*
X58935000Y-93478665D01*
X58879853Y-93201426D01*
X58771680Y-92940273D01*
X58722416Y-92866544D01*
X64065000Y-92866544D01*
X64065000Y-93133456D01*
X64117072Y-93395239D01*
X64219215Y-93641833D01*
X64367503Y-93863762D01*
X64556238Y-94052497D01*
X64778167Y-94200785D01*
X65024761Y-94302928D01*
X65286544Y-94355000D01*
X65553456Y-94355000D01*
X65815239Y-94302928D01*
X66061833Y-94200785D01*
X66283762Y-94052497D01*
X66472497Y-93863762D01*
X66620785Y-93641833D01*
X66690000Y-93474734D01*
X66759215Y-93641833D01*
X66907503Y-93863762D01*
X67096238Y-94052497D01*
X67318167Y-94200785D01*
X67564761Y-94302928D01*
X67826544Y-94355000D01*
X68093456Y-94355000D01*
X68355239Y-94302928D01*
X68601833Y-94200785D01*
X68823762Y-94052497D01*
X69012497Y-93863762D01*
X69160785Y-93641833D01*
X69230000Y-93474734D01*
X69299215Y-93641833D01*
X69447503Y-93863762D01*
X69636238Y-94052497D01*
X69858167Y-94200785D01*
X70104761Y-94302928D01*
X70366544Y-94355000D01*
X70633456Y-94355000D01*
X70895239Y-94302928D01*
X71141833Y-94200785D01*
X71363762Y-94052497D01*
X71552497Y-93863762D01*
X71700785Y-93641833D01*
X71802928Y-93395239D01*
X71855000Y-93133456D01*
X71855000Y-92866544D01*
X74065000Y-92866544D01*
X74065000Y-93133456D01*
X74117072Y-93395239D01*
X74219215Y-93641833D01*
X74367503Y-93863762D01*
X74556238Y-94052497D01*
X74778167Y-94200785D01*
X75024761Y-94302928D01*
X75286544Y-94355000D01*
X75553456Y-94355000D01*
X75815239Y-94302928D01*
X76061833Y-94200785D01*
X76283762Y-94052497D01*
X76472497Y-93863762D01*
X76620785Y-93641833D01*
X76690000Y-93474734D01*
X76759215Y-93641833D01*
X76907503Y-93863762D01*
X77096238Y-94052497D01*
X77318167Y-94200785D01*
X77564761Y-94302928D01*
X77826544Y-94355000D01*
X78093456Y-94355000D01*
X78355239Y-94302928D01*
X78601833Y-94200785D01*
X78823762Y-94052497D01*
X79012497Y-93863762D01*
X79160785Y-93641833D01*
X79230000Y-93474734D01*
X79299215Y-93641833D01*
X79447503Y-93863762D01*
X79636238Y-94052497D01*
X79858167Y-94200785D01*
X80104761Y-94302928D01*
X80366544Y-94355000D01*
X80633456Y-94355000D01*
X80895239Y-94302928D01*
X81141833Y-94200785D01*
X81363762Y-94052497D01*
X81552497Y-93863762D01*
X81700785Y-93641833D01*
X81802928Y-93395239D01*
X81855000Y-93133456D01*
X81855000Y-92866544D01*
X81802928Y-92604761D01*
X81700785Y-92358167D01*
X81552497Y-92136238D01*
X81363762Y-91947503D01*
X81141833Y-91799215D01*
X80895239Y-91697072D01*
X80633456Y-91645000D01*
X80366544Y-91645000D01*
X80104761Y-91697072D01*
X79858167Y-91799215D01*
X79636238Y-91947503D01*
X79447503Y-92136238D01*
X79299215Y-92358167D01*
X79230000Y-92525266D01*
X79160785Y-92358167D01*
X79012497Y-92136238D01*
X78823762Y-91947503D01*
X78601833Y-91799215D01*
X78355239Y-91697072D01*
X78093456Y-91645000D01*
X77826544Y-91645000D01*
X77564761Y-91697072D01*
X77318167Y-91799215D01*
X77096238Y-91947503D01*
X76907503Y-92136238D01*
X76759215Y-92358167D01*
X76690000Y-92525266D01*
X76620785Y-92358167D01*
X76472497Y-92136238D01*
X76283762Y-91947503D01*
X76061833Y-91799215D01*
X75815239Y-91697072D01*
X75553456Y-91645000D01*
X75286544Y-91645000D01*
X75024761Y-91697072D01*
X74778167Y-91799215D01*
X74556238Y-91947503D01*
X74367503Y-92136238D01*
X74219215Y-92358167D01*
X74117072Y-92604761D01*
X74065000Y-92866544D01*
X71855000Y-92866544D01*
X71802928Y-92604761D01*
X71700785Y-92358167D01*
X71552497Y-92136238D01*
X71363762Y-91947503D01*
X71141833Y-91799215D01*
X70895239Y-91697072D01*
X70633456Y-91645000D01*
X70366544Y-91645000D01*
X70104761Y-91697072D01*
X69858167Y-91799215D01*
X69636238Y-91947503D01*
X69447503Y-92136238D01*
X69299215Y-92358167D01*
X69230000Y-92525266D01*
X69160785Y-92358167D01*
X69012497Y-92136238D01*
X68823762Y-91947503D01*
X68601833Y-91799215D01*
X68355239Y-91697072D01*
X68093456Y-91645000D01*
X67826544Y-91645000D01*
X67564761Y-91697072D01*
X67318167Y-91799215D01*
X67096238Y-91947503D01*
X66907503Y-92136238D01*
X66759215Y-92358167D01*
X66690000Y-92525266D01*
X66620785Y-92358167D01*
X66472497Y-92136238D01*
X66283762Y-91947503D01*
X66061833Y-91799215D01*
X65815239Y-91697072D01*
X65553456Y-91645000D01*
X65286544Y-91645000D01*
X65024761Y-91697072D01*
X64778167Y-91799215D01*
X64556238Y-91947503D01*
X64367503Y-92136238D01*
X64219215Y-92358167D01*
X64117072Y-92604761D01*
X64065000Y-92866544D01*
X58722416Y-92866544D01*
X58614637Y-92705241D01*
X58414759Y-92505363D01*
X58179727Y-92348320D01*
X57918574Y-92240147D01*
X57641335Y-92185000D01*
X57358665Y-92185000D01*
X57081426Y-92240147D01*
X56820273Y-92348320D01*
X56585241Y-92505363D01*
X56385363Y-92705241D01*
X56230000Y-92937759D01*
X56074637Y-92705241D01*
X55874759Y-92505363D01*
X55639727Y-92348320D01*
X55378574Y-92240147D01*
X55101335Y-92185000D01*
X54818665Y-92185000D01*
X54541426Y-92240147D01*
X54280273Y-92348320D01*
X54045241Y-92505363D01*
X53845363Y-92705241D01*
X53690000Y-92937759D01*
X53534637Y-92705241D01*
X53334759Y-92505363D01*
X53099727Y-92348320D01*
X52838574Y-92240147D01*
X52561335Y-92185000D01*
X52278665Y-92185000D01*
X52001426Y-92240147D01*
X51740273Y-92348320D01*
X51505241Y-92505363D01*
X51305363Y-92705241D01*
X51150000Y-92937759D01*
X50994637Y-92705241D01*
X50794759Y-92505363D01*
X50559727Y-92348320D01*
X50298574Y-92240147D01*
X50021335Y-92185000D01*
X49738665Y-92185000D01*
X49461426Y-92240147D01*
X49200273Y-92348320D01*
X48965241Y-92505363D01*
X48765363Y-92705241D01*
X48608320Y-92940273D01*
X48500147Y-93201426D01*
X48445000Y-93478665D01*
X39327000Y-93478665D01*
X39327000Y-93082168D01*
X39202988Y-92458719D01*
X38959730Y-91871442D01*
X38606575Y-91342907D01*
X38157093Y-90893425D01*
X37628558Y-90540270D01*
X37041281Y-90297012D01*
X36417832Y-90173000D01*
X35782168Y-90173000D01*
X35158719Y-90297012D01*
X34571442Y-90540270D01*
X34042907Y-90893425D01*
X33827000Y-91109332D01*
X33827000Y-75750000D01*
X33911928Y-75750000D01*
X33911928Y-77450000D01*
X33924188Y-77574482D01*
X33960498Y-77694180D01*
X34019463Y-77804494D01*
X34098815Y-77901185D01*
X34195506Y-77980537D01*
X34305820Y-78039502D01*
X34378380Y-78061513D01*
X34246525Y-78193368D01*
X34084010Y-78436589D01*
X33972068Y-78706842D01*
X33915000Y-78993740D01*
X33915000Y-79286260D01*
X33972068Y-79573158D01*
X34084010Y-79843411D01*
X34246525Y-80086632D01*
X34453368Y-80293475D01*
X34627760Y-80410000D01*
X34453368Y-80526525D01*
X34246525Y-80733368D01*
X34084010Y-80976589D01*
X33972068Y-81246842D01*
X33915000Y-81533740D01*
X33915000Y-81826260D01*
X33972068Y-82113158D01*
X34084010Y-82383411D01*
X34246525Y-82626632D01*
X34453368Y-82833475D01*
X34627760Y-82950000D01*
X34453368Y-83066525D01*
X34246525Y-83273368D01*
X34084010Y-83516589D01*
X33972068Y-83786842D01*
X33915000Y-84073740D01*
X33915000Y-84366260D01*
X33972068Y-84653158D01*
X34084010Y-84923411D01*
X34246525Y-85166632D01*
X34453368Y-85373475D01*
X34627760Y-85490000D01*
X34453368Y-85606525D01*
X34246525Y-85813368D01*
X34084010Y-86056589D01*
X33972068Y-86326842D01*
X33915000Y-86613740D01*
X33915000Y-86906260D01*
X33972068Y-87193158D01*
X34084010Y-87463411D01*
X34246525Y-87706632D01*
X34453368Y-87913475D01*
X34696589Y-88075990D01*
X34966842Y-88187932D01*
X35253740Y-88245000D01*
X35546260Y-88245000D01*
X35833158Y-88187932D01*
X36103411Y-88075990D01*
X36346632Y-87913475D01*
X36553475Y-87706632D01*
X36715990Y-87463411D01*
X36827932Y-87193158D01*
X36885000Y-86906260D01*
X36885000Y-86613740D01*
X36827932Y-86326842D01*
X36715990Y-86056589D01*
X36553475Y-85813368D01*
X36346632Y-85606525D01*
X36172240Y-85490000D01*
X36346632Y-85373475D01*
X36553475Y-85166632D01*
X36715990Y-84923411D01*
X36827932Y-84653158D01*
X36885000Y-84366260D01*
X36885000Y-84073740D01*
X36827932Y-83786842D01*
X36715990Y-83516589D01*
X36553475Y-83273368D01*
X36346632Y-83066525D01*
X36172240Y-82950000D01*
X36346632Y-82833475D01*
X36553475Y-82626632D01*
X36715990Y-82383411D01*
X36827932Y-82113158D01*
X36885000Y-81826260D01*
X36885000Y-81533740D01*
X36827932Y-81246842D01*
X36715990Y-80976589D01*
X36553475Y-80733368D01*
X36346632Y-80526525D01*
X36172240Y-80410000D01*
X36346632Y-80293475D01*
X36553475Y-80086632D01*
X36715990Y-79843411D01*
X36827932Y-79573158D01*
X36885000Y-79286260D01*
X36885000Y-78993740D01*
X36827932Y-78706842D01*
X36715990Y-78436589D01*
X36553475Y-78193368D01*
X36421620Y-78061513D01*
X36494180Y-78039502D01*
X36604494Y-77980537D01*
X36701185Y-77901185D01*
X36780537Y-77804494D01*
X36839502Y-77694180D01*
X36875812Y-77574482D01*
X36888072Y-77450000D01*
X36888072Y-75750000D01*
X36875812Y-75625518D01*
X36839502Y-75505820D01*
X36780537Y-75395506D01*
X36701185Y-75298815D01*
X36604494Y-75219463D01*
X36494180Y-75160498D01*
X36374482Y-75124188D01*
X36250000Y-75111928D01*
X34550000Y-75111928D01*
X34425518Y-75124188D01*
X34305820Y-75160498D01*
X34195506Y-75219463D01*
X34098815Y-75298815D01*
X34019463Y-75395506D01*
X33960498Y-75505820D01*
X33924188Y-75625518D01*
X33911928Y-75750000D01*
X33827000Y-75750000D01*
X33827000Y-70700000D01*
X37461928Y-70700000D01*
X37461928Y-72300000D01*
X37474188Y-72424482D01*
X37510498Y-72544180D01*
X37569463Y-72654494D01*
X37648815Y-72751185D01*
X37745506Y-72830537D01*
X37855820Y-72889502D01*
X37975518Y-72925812D01*
X37983961Y-72926643D01*
X37785363Y-73125241D01*
X37628320Y-73360273D01*
X37520147Y-73621426D01*
X37465000Y-73898665D01*
X37465000Y-74181335D01*
X37520147Y-74458574D01*
X37628320Y-74719727D01*
X37785363Y-74954759D01*
X37985241Y-75154637D01*
X38217759Y-75310000D01*
X37985241Y-75465363D01*
X37785363Y-75665241D01*
X37628320Y-75900273D01*
X37520147Y-76161426D01*
X37465000Y-76438665D01*
X37465000Y-76721335D01*
X37520147Y-76998574D01*
X37628320Y-77259727D01*
X37785363Y-77494759D01*
X37985241Y-77694637D01*
X38217759Y-77850000D01*
X37985241Y-78005363D01*
X37785363Y-78205241D01*
X37628320Y-78440273D01*
X37520147Y-78701426D01*
X37465000Y-78978665D01*
X37465000Y-79261335D01*
X37520147Y-79538574D01*
X37628320Y-79799727D01*
X37785363Y-80034759D01*
X37985241Y-80234637D01*
X38217759Y-80390000D01*
X37985241Y-80545363D01*
X37785363Y-80745241D01*
X37628320Y-80980273D01*
X37520147Y-81241426D01*
X37465000Y-81518665D01*
X37465000Y-81801335D01*
X37520147Y-82078574D01*
X37628320Y-82339727D01*
X37785363Y-82574759D01*
X37985241Y-82774637D01*
X38217759Y-82930000D01*
X37985241Y-83085363D01*
X37785363Y-83285241D01*
X37628320Y-83520273D01*
X37520147Y-83781426D01*
X37465000Y-84058665D01*
X37465000Y-84341335D01*
X37520147Y-84618574D01*
X37628320Y-84879727D01*
X37785363Y-85114759D01*
X37985241Y-85314637D01*
X38217759Y-85470000D01*
X37985241Y-85625363D01*
X37785363Y-85825241D01*
X37628320Y-86060273D01*
X37520147Y-86321426D01*
X37465000Y-86598665D01*
X37465000Y-86881335D01*
X37520147Y-87158574D01*
X37628320Y-87419727D01*
X37785363Y-87654759D01*
X37985241Y-87854637D01*
X38220273Y-88011680D01*
X38481426Y-88119853D01*
X38758665Y-88175000D01*
X39041335Y-88175000D01*
X39318574Y-88119853D01*
X39579727Y-88011680D01*
X39814759Y-87854637D01*
X40014637Y-87654759D01*
X40171680Y-87419727D01*
X40279853Y-87158574D01*
X40335000Y-86881335D01*
X40335000Y-86598665D01*
X40279853Y-86321426D01*
X40171680Y-86060273D01*
X40014637Y-85825241D01*
X39814759Y-85625363D01*
X39582241Y-85470000D01*
X39814759Y-85314637D01*
X40014637Y-85114759D01*
X40171680Y-84879727D01*
X40279853Y-84618574D01*
X40335000Y-84341335D01*
X40335000Y-84058665D01*
X40279853Y-83781426D01*
X40171680Y-83520273D01*
X40014637Y-83285241D01*
X39814759Y-83085363D01*
X39582241Y-82930000D01*
X39814759Y-82774637D01*
X40014637Y-82574759D01*
X40171680Y-82339727D01*
X40279853Y-82078574D01*
X40335000Y-81801335D01*
X40335000Y-81518665D01*
X40279853Y-81241426D01*
X40171680Y-80980273D01*
X40014637Y-80745241D01*
X39814759Y-80545363D01*
X39582241Y-80390000D01*
X39814759Y-80234637D01*
X40014637Y-80034759D01*
X40171680Y-79799727D01*
X40279853Y-79538574D01*
X40335000Y-79261335D01*
X40335000Y-78978665D01*
X40279853Y-78701426D01*
X40171680Y-78440273D01*
X40014637Y-78205241D01*
X39814759Y-78005363D01*
X39582241Y-77850000D01*
X39814759Y-77694637D01*
X40014637Y-77494759D01*
X40171680Y-77259727D01*
X40279853Y-76998574D01*
X40335000Y-76721335D01*
X40335000Y-76438665D01*
X40279853Y-76161426D01*
X40171680Y-75900273D01*
X40014637Y-75665241D01*
X39814759Y-75465363D01*
X39582241Y-75310000D01*
X39814759Y-75154637D01*
X40014637Y-74954759D01*
X40171680Y-74719727D01*
X40279853Y-74458574D01*
X40335000Y-74181335D01*
X40335000Y-73898665D01*
X40279853Y-73621426D01*
X40171680Y-73360273D01*
X40014637Y-73125241D01*
X39816039Y-72926643D01*
X39824482Y-72925812D01*
X39944180Y-72889502D01*
X40054494Y-72830537D01*
X40151185Y-72751185D01*
X40230537Y-72654494D01*
X40289502Y-72544180D01*
X40325812Y-72424482D01*
X40338072Y-72300000D01*
X40338072Y-71358665D01*
X45085000Y-71358665D01*
X45085000Y-71641335D01*
X45140147Y-71918574D01*
X45248320Y-72179727D01*
X45405363Y-72414759D01*
X45605241Y-72614637D01*
X45837759Y-72770000D01*
X45605241Y-72925363D01*
X45405363Y-73125241D01*
X45248320Y-73360273D01*
X45140147Y-73621426D01*
X45085000Y-73898665D01*
X45085000Y-74181335D01*
X45140147Y-74458574D01*
X45248320Y-74719727D01*
X45405363Y-74954759D01*
X45605241Y-75154637D01*
X45837759Y-75310000D01*
X45605241Y-75465363D01*
X45405363Y-75665241D01*
X45248320Y-75900273D01*
X45140147Y-76161426D01*
X45085000Y-76438665D01*
X45085000Y-76721335D01*
X45140147Y-76998574D01*
X45248320Y-77259727D01*
X45405363Y-77494759D01*
X45605241Y-77694637D01*
X45837759Y-77850000D01*
X45605241Y-78005363D01*
X45405363Y-78205241D01*
X45248320Y-78440273D01*
X45140147Y-78701426D01*
X45085000Y-78978665D01*
X45085000Y-79261335D01*
X45140147Y-79538574D01*
X45248320Y-79799727D01*
X45405363Y-80034759D01*
X45605241Y-80234637D01*
X45837759Y-80390000D01*
X45605241Y-80545363D01*
X45405363Y-80745241D01*
X45248320Y-80980273D01*
X45140147Y-81241426D01*
X45085000Y-81518665D01*
X45085000Y-81801335D01*
X45140147Y-82078574D01*
X45248320Y-82339727D01*
X45405363Y-82574759D01*
X45605241Y-82774637D01*
X45837759Y-82930000D01*
X45605241Y-83085363D01*
X45405363Y-83285241D01*
X45248320Y-83520273D01*
X45140147Y-83781426D01*
X45085000Y-84058665D01*
X45085000Y-84341335D01*
X45140147Y-84618574D01*
X45248320Y-84879727D01*
X45405363Y-85114759D01*
X45605241Y-85314637D01*
X45837759Y-85470000D01*
X45605241Y-85625363D01*
X45405363Y-85825241D01*
X45248320Y-86060273D01*
X45140147Y-86321426D01*
X45085000Y-86598665D01*
X45085000Y-86881335D01*
X45140147Y-87158574D01*
X45248320Y-87419727D01*
X45405363Y-87654759D01*
X45605241Y-87854637D01*
X45840273Y-88011680D01*
X46101426Y-88119853D01*
X46378665Y-88175000D01*
X46661335Y-88175000D01*
X46938574Y-88119853D01*
X47199727Y-88011680D01*
X47434759Y-87854637D01*
X47634637Y-87654759D01*
X47791680Y-87419727D01*
X47899853Y-87158574D01*
X47955000Y-86881335D01*
X47955000Y-86598665D01*
X47899853Y-86321426D01*
X47791680Y-86060273D01*
X47656971Y-85858665D01*
X48445000Y-85858665D01*
X48445000Y-86141335D01*
X48500147Y-86418574D01*
X48608320Y-86679727D01*
X48765363Y-86914759D01*
X48965241Y-87114637D01*
X49200273Y-87271680D01*
X49461426Y-87379853D01*
X49738665Y-87435000D01*
X50021335Y-87435000D01*
X50298574Y-87379853D01*
X50559727Y-87271680D01*
X50794759Y-87114637D01*
X50994637Y-86914759D01*
X51150000Y-86682241D01*
X51305363Y-86914759D01*
X51505241Y-87114637D01*
X51740273Y-87271680D01*
X52001426Y-87379853D01*
X52278665Y-87435000D01*
X52561335Y-87435000D01*
X52838574Y-87379853D01*
X53099727Y-87271680D01*
X53334759Y-87114637D01*
X53534637Y-86914759D01*
X53690000Y-86682241D01*
X53845363Y-86914759D01*
X54045241Y-87114637D01*
X54280273Y-87271680D01*
X54541426Y-87379853D01*
X54818665Y-87435000D01*
X55101335Y-87435000D01*
X55378574Y-87379853D01*
X55639727Y-87271680D01*
X55874759Y-87114637D01*
X56073357Y-86916039D01*
X56074188Y-86924482D01*
X56110498Y-87044180D01*
X56169463Y-87154494D01*
X56248815Y-87251185D01*
X56345506Y-87330537D01*
X56455820Y-87389502D01*
X56575518Y-87425812D01*
X56700000Y-87438072D01*
X57130685Y-87438072D01*
X57082795Y-87509744D01*
X57004774Y-87698102D01*
X56965000Y-87898061D01*
X56965000Y-88101939D01*
X57004774Y-88301898D01*
X57082795Y-88490256D01*
X57196063Y-88659774D01*
X57340226Y-88803937D01*
X57509744Y-88917205D01*
X57698102Y-88995226D01*
X57898061Y-89035000D01*
X58101939Y-89035000D01*
X58301898Y-88995226D01*
X58490256Y-88917205D01*
X58659774Y-88803937D01*
X58803937Y-88659774D01*
X58917205Y-88490256D01*
X58971712Y-88358665D01*
X59565000Y-88358665D01*
X59565000Y-88641335D01*
X59620147Y-88918574D01*
X59728320Y-89179727D01*
X59885363Y-89414759D01*
X60085241Y-89614637D01*
X60287827Y-89750000D01*
X60085241Y-89885363D01*
X59885363Y-90085241D01*
X59728320Y-90320273D01*
X59620147Y-90581426D01*
X59565000Y-90858665D01*
X59565000Y-91141335D01*
X59620147Y-91418574D01*
X59728320Y-91679727D01*
X59885363Y-91914759D01*
X60085241Y-92114637D01*
X60320273Y-92271680D01*
X60581426Y-92379853D01*
X60858665Y-92435000D01*
X61141335Y-92435000D01*
X61418574Y-92379853D01*
X61679727Y-92271680D01*
X61914759Y-92114637D01*
X62114637Y-91914759D01*
X62271680Y-91679727D01*
X62379853Y-91418574D01*
X62435000Y-91141335D01*
X62435000Y-90858665D01*
X62379853Y-90581426D01*
X62271680Y-90320273D01*
X62114637Y-90085241D01*
X61914759Y-89885363D01*
X61712173Y-89750000D01*
X61914759Y-89614637D01*
X62114637Y-89414759D01*
X62271680Y-89179727D01*
X62379853Y-88918574D01*
X62435000Y-88641335D01*
X62435000Y-88358665D01*
X62379853Y-88081426D01*
X62271680Y-87820273D01*
X62114637Y-87585241D01*
X61914759Y-87385363D01*
X61679727Y-87228320D01*
X61418574Y-87120147D01*
X61141335Y-87065000D01*
X60858665Y-87065000D01*
X60581426Y-87120147D01*
X60320273Y-87228320D01*
X60085241Y-87385363D01*
X59885363Y-87585241D01*
X59728320Y-87820273D01*
X59620147Y-88081426D01*
X59565000Y-88358665D01*
X58971712Y-88358665D01*
X58995226Y-88301898D01*
X59035000Y-88101939D01*
X59035000Y-87898061D01*
X58995226Y-87698102D01*
X58917205Y-87509744D01*
X58803937Y-87340226D01*
X58731253Y-87267542D01*
X58751185Y-87251185D01*
X58830537Y-87154494D01*
X58889502Y-87044180D01*
X58925812Y-86924482D01*
X58932294Y-86858665D01*
X62565000Y-86858665D01*
X62565000Y-87141335D01*
X62620147Y-87418574D01*
X62728320Y-87679727D01*
X62885363Y-87914759D01*
X63085241Y-88114637D01*
X63320273Y-88271680D01*
X63581426Y-88379853D01*
X63858665Y-88435000D01*
X64141335Y-88435000D01*
X64418574Y-88379853D01*
X64679727Y-88271680D01*
X64914759Y-88114637D01*
X65114637Y-87914759D01*
X65271680Y-87679727D01*
X65379853Y-87418574D01*
X65435000Y-87141335D01*
X65435000Y-86858665D01*
X72725000Y-86858665D01*
X72725000Y-87141335D01*
X72780147Y-87418574D01*
X72888320Y-87679727D01*
X73045363Y-87914759D01*
X73245241Y-88114637D01*
X73480273Y-88271680D01*
X73741426Y-88379853D01*
X74018665Y-88435000D01*
X74301335Y-88435000D01*
X74578574Y-88379853D01*
X74839727Y-88271680D01*
X75074759Y-88114637D01*
X75274637Y-87914759D01*
X75431680Y-87679727D01*
X75539853Y-87418574D01*
X75580000Y-87216744D01*
X75620147Y-87418574D01*
X75728320Y-87679727D01*
X75885363Y-87914759D01*
X76085241Y-88114637D01*
X76320273Y-88271680D01*
X76581426Y-88379853D01*
X76858665Y-88435000D01*
X77141335Y-88435000D01*
X77418574Y-88379853D01*
X77679727Y-88271680D01*
X77914759Y-88114637D01*
X78114637Y-87914759D01*
X78271680Y-87679727D01*
X78379853Y-87418574D01*
X78435000Y-87141335D01*
X78435000Y-86858665D01*
X78379853Y-86581426D01*
X78271680Y-86320273D01*
X78114637Y-86085241D01*
X77914759Y-85885363D01*
X77679727Y-85728320D01*
X77418574Y-85620147D01*
X77141335Y-85565000D01*
X76858665Y-85565000D01*
X76581426Y-85620147D01*
X76320273Y-85728320D01*
X76085241Y-85885363D01*
X75885363Y-86085241D01*
X75728320Y-86320273D01*
X75620147Y-86581426D01*
X75580000Y-86783256D01*
X75539853Y-86581426D01*
X75431680Y-86320273D01*
X75274637Y-86085241D01*
X75074759Y-85885363D01*
X74839727Y-85728320D01*
X74578574Y-85620147D01*
X74301335Y-85565000D01*
X74018665Y-85565000D01*
X73741426Y-85620147D01*
X73480273Y-85728320D01*
X73245241Y-85885363D01*
X73045363Y-86085241D01*
X72888320Y-86320273D01*
X72780147Y-86581426D01*
X72725000Y-86858665D01*
X65435000Y-86858665D01*
X65379853Y-86581426D01*
X65271680Y-86320273D01*
X65114637Y-86085241D01*
X64914759Y-85885363D01*
X64679727Y-85728320D01*
X64418574Y-85620147D01*
X64141335Y-85565000D01*
X63858665Y-85565000D01*
X63581426Y-85620147D01*
X63320273Y-85728320D01*
X63085241Y-85885363D01*
X62885363Y-86085241D01*
X62728320Y-86320273D01*
X62620147Y-86581426D01*
X62565000Y-86858665D01*
X58932294Y-86858665D01*
X58938072Y-86800000D01*
X58938072Y-85200000D01*
X58925812Y-85075518D01*
X58889502Y-84955820D01*
X58858629Y-84898061D01*
X59965000Y-84898061D01*
X59965000Y-85101939D01*
X60004774Y-85301898D01*
X60082795Y-85490256D01*
X60196063Y-85659774D01*
X60340226Y-85803937D01*
X60509744Y-85917205D01*
X60698102Y-85995226D01*
X60898061Y-86035000D01*
X61101939Y-86035000D01*
X61301898Y-85995226D01*
X61490256Y-85917205D01*
X61659774Y-85803937D01*
X61803937Y-85659774D01*
X61917205Y-85490256D01*
X61995226Y-85301898D01*
X62035000Y-85101939D01*
X62035000Y-84898061D01*
X61995226Y-84698102D01*
X61917205Y-84509744D01*
X61803937Y-84340226D01*
X61659774Y-84196063D01*
X61490256Y-84082795D01*
X61301898Y-84004774D01*
X61101939Y-83965000D01*
X60898061Y-83965000D01*
X60698102Y-84004774D01*
X60509744Y-84082795D01*
X60340226Y-84196063D01*
X60196063Y-84340226D01*
X60082795Y-84509744D01*
X60004774Y-84698102D01*
X59965000Y-84898061D01*
X58858629Y-84898061D01*
X58830537Y-84845506D01*
X58751185Y-84748815D01*
X58654494Y-84669463D01*
X58544180Y-84610498D01*
X58424482Y-84574188D01*
X58300000Y-84561928D01*
X56700000Y-84561928D01*
X56575518Y-84574188D01*
X56455820Y-84610498D01*
X56345506Y-84669463D01*
X56248815Y-84748815D01*
X56169463Y-84845506D01*
X56110498Y-84955820D01*
X56074188Y-85075518D01*
X56073357Y-85083961D01*
X55874759Y-84885363D01*
X55639727Y-84728320D01*
X55378574Y-84620147D01*
X55101335Y-84565000D01*
X54818665Y-84565000D01*
X54541426Y-84620147D01*
X54280273Y-84728320D01*
X54045241Y-84885363D01*
X53845363Y-85085241D01*
X53690000Y-85317759D01*
X53534637Y-85085241D01*
X53334759Y-84885363D01*
X53099727Y-84728320D01*
X52838574Y-84620147D01*
X52561335Y-84565000D01*
X52278665Y-84565000D01*
X52001426Y-84620147D01*
X51740273Y-84728320D01*
X51505241Y-84885363D01*
X51305363Y-85085241D01*
X51150000Y-85317759D01*
X50994637Y-85085241D01*
X50794759Y-84885363D01*
X50559727Y-84728320D01*
X50298574Y-84620147D01*
X50021335Y-84565000D01*
X49738665Y-84565000D01*
X49461426Y-84620147D01*
X49200273Y-84728320D01*
X48965241Y-84885363D01*
X48765363Y-85085241D01*
X48608320Y-85320273D01*
X48500147Y-85581426D01*
X48445000Y-85858665D01*
X47656971Y-85858665D01*
X47634637Y-85825241D01*
X47434759Y-85625363D01*
X47202241Y-85470000D01*
X47434759Y-85314637D01*
X47634637Y-85114759D01*
X47791680Y-84879727D01*
X47899853Y-84618574D01*
X47955000Y-84341335D01*
X47955000Y-84058665D01*
X47899853Y-83781426D01*
X47791680Y-83520273D01*
X47634637Y-83285241D01*
X47434759Y-83085363D01*
X47202241Y-82930000D01*
X47309001Y-82858665D01*
X48065000Y-82858665D01*
X48065000Y-83141335D01*
X48120147Y-83418574D01*
X48228320Y-83679727D01*
X48385363Y-83914759D01*
X48585241Y-84114637D01*
X48820273Y-84271680D01*
X49081426Y-84379853D01*
X49358665Y-84435000D01*
X49641335Y-84435000D01*
X49918574Y-84379853D01*
X50179727Y-84271680D01*
X50414759Y-84114637D01*
X50614637Y-83914759D01*
X50652117Y-83858665D01*
X62405000Y-83858665D01*
X62405000Y-84141335D01*
X62460147Y-84418574D01*
X62568320Y-84679727D01*
X62725363Y-84914759D01*
X62925241Y-85114637D01*
X63160273Y-85271680D01*
X63421426Y-85379853D01*
X63698665Y-85435000D01*
X63981335Y-85435000D01*
X64258574Y-85379853D01*
X64519727Y-85271680D01*
X64754759Y-85114637D01*
X64954637Y-84914759D01*
X65111680Y-84679727D01*
X65219853Y-84418574D01*
X65275000Y-84141335D01*
X65275000Y-83858665D01*
X72565000Y-83858665D01*
X72565000Y-84141335D01*
X72620147Y-84418574D01*
X72728320Y-84679727D01*
X72885363Y-84914759D01*
X73085241Y-85114637D01*
X73320273Y-85271680D01*
X73581426Y-85379853D01*
X73858665Y-85435000D01*
X74141335Y-85435000D01*
X74418574Y-85379853D01*
X74679727Y-85271680D01*
X74914759Y-85114637D01*
X75114637Y-84914759D01*
X75271680Y-84679727D01*
X75379853Y-84418574D01*
X75435000Y-84141335D01*
X75435000Y-83858665D01*
X75379853Y-83581426D01*
X75271680Y-83320273D01*
X75114637Y-83085241D01*
X74914759Y-82885363D01*
X74679727Y-82728320D01*
X74418574Y-82620147D01*
X74141335Y-82565000D01*
X73858665Y-82565000D01*
X73581426Y-82620147D01*
X73320273Y-82728320D01*
X73085241Y-82885363D01*
X72885363Y-83085241D01*
X72728320Y-83320273D01*
X72620147Y-83581426D01*
X72565000Y-83858665D01*
X65275000Y-83858665D01*
X65219853Y-83581426D01*
X65111680Y-83320273D01*
X64954637Y-83085241D01*
X64754759Y-82885363D01*
X64519727Y-82728320D01*
X64258574Y-82620147D01*
X63981335Y-82565000D01*
X63698665Y-82565000D01*
X63421426Y-82620147D01*
X63160273Y-82728320D01*
X62925241Y-82885363D01*
X62725363Y-83085241D01*
X62568320Y-83320273D01*
X62460147Y-83581426D01*
X62405000Y-83858665D01*
X50652117Y-83858665D01*
X50771680Y-83679727D01*
X50879853Y-83418574D01*
X50935000Y-83141335D01*
X50935000Y-82858665D01*
X50879853Y-82581426D01*
X50771680Y-82320273D01*
X50614637Y-82085241D01*
X50414759Y-81885363D01*
X50179727Y-81728320D01*
X49918574Y-81620147D01*
X49641335Y-81565000D01*
X49358665Y-81565000D01*
X49081426Y-81620147D01*
X48820273Y-81728320D01*
X48585241Y-81885363D01*
X48385363Y-82085241D01*
X48228320Y-82320273D01*
X48120147Y-82581426D01*
X48065000Y-82858665D01*
X47309001Y-82858665D01*
X47434759Y-82774637D01*
X47634637Y-82574759D01*
X47791680Y-82339727D01*
X47899853Y-82078574D01*
X47955000Y-81801335D01*
X47955000Y-81518665D01*
X47899853Y-81241426D01*
X47791680Y-80980273D01*
X47634637Y-80745241D01*
X47434759Y-80545363D01*
X47202241Y-80390000D01*
X47434759Y-80234637D01*
X47469396Y-80200000D01*
X63561928Y-80200000D01*
X63561928Y-81800000D01*
X63574188Y-81924482D01*
X63610498Y-82044180D01*
X63669463Y-82154494D01*
X63748815Y-82251185D01*
X63845506Y-82330537D01*
X63955820Y-82389502D01*
X64075518Y-82425812D01*
X64200000Y-82438072D01*
X65800000Y-82438072D01*
X65924482Y-82425812D01*
X66044180Y-82389502D01*
X66154494Y-82330537D01*
X66251185Y-82251185D01*
X66330537Y-82154494D01*
X66389502Y-82044180D01*
X66425812Y-81924482D01*
X66426643Y-81916039D01*
X66625241Y-82114637D01*
X66860273Y-82271680D01*
X67121426Y-82379853D01*
X67398665Y-82435000D01*
X67681335Y-82435000D01*
X67958574Y-82379853D01*
X68219727Y-82271680D01*
X68454759Y-82114637D01*
X68654637Y-81914759D01*
X68810000Y-81682241D01*
X68965363Y-81914759D01*
X69165241Y-82114637D01*
X69400273Y-82271680D01*
X69661426Y-82379853D01*
X69938665Y-82435000D01*
X70221335Y-82435000D01*
X70498574Y-82379853D01*
X70759727Y-82271680D01*
X70994759Y-82114637D01*
X71194637Y-81914759D01*
X71351680Y-81679727D01*
X71356962Y-81666975D01*
X71408635Y-81769300D01*
X71581994Y-81990844D01*
X71795243Y-82174310D01*
X72040187Y-82312648D01*
X72307413Y-82400542D01*
X72372828Y-82413553D01*
X72597000Y-82276043D01*
X72597000Y-81023000D01*
X72643000Y-81023000D01*
X72643000Y-82276043D01*
X72867172Y-82413553D01*
X72932587Y-82400542D01*
X73199813Y-82312648D01*
X73444757Y-82174310D01*
X73658006Y-81990844D01*
X73831365Y-81769300D01*
X73958172Y-81518193D01*
X74033554Y-81247172D01*
X73896067Y-81023000D01*
X72643000Y-81023000D01*
X72597000Y-81023000D01*
X72577000Y-81023000D01*
X72577000Y-80977000D01*
X72597000Y-80977000D01*
X72597000Y-79723957D01*
X72643000Y-79723957D01*
X72643000Y-80977000D01*
X73896067Y-80977000D01*
X74033554Y-80752828D01*
X73958172Y-80481807D01*
X73831365Y-80230700D01*
X73658006Y-80009156D01*
X73444757Y-79825690D01*
X73199813Y-79687352D01*
X72932587Y-79599458D01*
X72867172Y-79586447D01*
X72643000Y-79723957D01*
X72597000Y-79723957D01*
X72372828Y-79586447D01*
X72307413Y-79599458D01*
X72040187Y-79687352D01*
X71795243Y-79825690D01*
X71581994Y-80009156D01*
X71408635Y-80230700D01*
X71356962Y-80333025D01*
X71351680Y-80320273D01*
X71194637Y-80085241D01*
X70994759Y-79885363D01*
X70759727Y-79728320D01*
X70498574Y-79620147D01*
X70221335Y-79565000D01*
X69938665Y-79565000D01*
X69661426Y-79620147D01*
X69400273Y-79728320D01*
X69165241Y-79885363D01*
X68965363Y-80085241D01*
X68810000Y-80317759D01*
X68654637Y-80085241D01*
X68454759Y-79885363D01*
X68219727Y-79728320D01*
X67958574Y-79620147D01*
X67681335Y-79565000D01*
X67398665Y-79565000D01*
X67121426Y-79620147D01*
X66860273Y-79728320D01*
X66625241Y-79885363D01*
X66426643Y-80083961D01*
X66425812Y-80075518D01*
X66389502Y-79955820D01*
X66330537Y-79845506D01*
X66251185Y-79748815D01*
X66154494Y-79669463D01*
X66044180Y-79610498D01*
X65924482Y-79574188D01*
X65800000Y-79561928D01*
X64200000Y-79561928D01*
X64075518Y-79574188D01*
X63955820Y-79610498D01*
X63845506Y-79669463D01*
X63748815Y-79748815D01*
X63669463Y-79845506D01*
X63610498Y-79955820D01*
X63574188Y-80075518D01*
X63561928Y-80200000D01*
X47469396Y-80200000D01*
X47634637Y-80034759D01*
X47791680Y-79799727D01*
X47899853Y-79538574D01*
X47955000Y-79261335D01*
X47955000Y-78978665D01*
X47899853Y-78701426D01*
X47824151Y-78518665D01*
X60065000Y-78518665D01*
X60065000Y-78801335D01*
X60120147Y-79078574D01*
X60228320Y-79339727D01*
X60385363Y-79574759D01*
X60585241Y-79774637D01*
X60820273Y-79931680D01*
X61081426Y-80039853D01*
X61358665Y-80095000D01*
X61641335Y-80095000D01*
X61918574Y-80039853D01*
X62179727Y-79931680D01*
X62414759Y-79774637D01*
X62614637Y-79574759D01*
X62771680Y-79339727D01*
X62860622Y-79125000D01*
X83986928Y-79125000D01*
X83986928Y-80875000D01*
X83999188Y-80999482D01*
X84035498Y-81119180D01*
X84094463Y-81229494D01*
X84173815Y-81326185D01*
X84270506Y-81405537D01*
X84380820Y-81464502D01*
X84395564Y-81468974D01*
X84327107Y-81537431D01*
X84161856Y-81784747D01*
X84048029Y-82059549D01*
X83990000Y-82351278D01*
X83990000Y-82648722D01*
X84048029Y-82940451D01*
X84161856Y-83215253D01*
X84327107Y-83462569D01*
X84537431Y-83672893D01*
X84652830Y-83750000D01*
X84537431Y-83827107D01*
X84327107Y-84037431D01*
X84161856Y-84284747D01*
X84048029Y-84559549D01*
X83990000Y-84851278D01*
X83990000Y-85148722D01*
X84048029Y-85440451D01*
X84161856Y-85715253D01*
X84327107Y-85962569D01*
X84537431Y-86172893D01*
X84784747Y-86338144D01*
X85059549Y-86451971D01*
X85351278Y-86510000D01*
X85648722Y-86510000D01*
X85940451Y-86451971D01*
X86215253Y-86338144D01*
X86462569Y-86172893D01*
X86672893Y-85962569D01*
X86838144Y-85715253D01*
X86951971Y-85440451D01*
X87010000Y-85148722D01*
X87010000Y-84851278D01*
X86951971Y-84559549D01*
X86838144Y-84284747D01*
X86672893Y-84037431D01*
X86462569Y-83827107D01*
X86347170Y-83750000D01*
X86462569Y-83672893D01*
X86672893Y-83462569D01*
X86838144Y-83215253D01*
X86951971Y-82940451D01*
X87010000Y-82648722D01*
X87010000Y-82351278D01*
X86951971Y-82059549D01*
X86838144Y-81784747D01*
X86672893Y-81537431D01*
X86604436Y-81468974D01*
X86619180Y-81464502D01*
X86729494Y-81405537D01*
X86826185Y-81326185D01*
X86905537Y-81229494D01*
X86964502Y-81119180D01*
X87000812Y-80999482D01*
X87013072Y-80875000D01*
X87013072Y-79125000D01*
X87000812Y-79000518D01*
X86964502Y-78880820D01*
X86905537Y-78770506D01*
X86826185Y-78673815D01*
X86729494Y-78594463D01*
X86619180Y-78535498D01*
X86499482Y-78499188D01*
X86375000Y-78486928D01*
X84625000Y-78486928D01*
X84500518Y-78499188D01*
X84380820Y-78535498D01*
X84270506Y-78594463D01*
X84173815Y-78673815D01*
X84094463Y-78770506D01*
X84035498Y-78880820D01*
X83999188Y-79000518D01*
X83986928Y-79125000D01*
X62860622Y-79125000D01*
X62879853Y-79078574D01*
X62935000Y-78801335D01*
X62935000Y-78518665D01*
X62879853Y-78241426D01*
X62771680Y-77980273D01*
X62614637Y-77745241D01*
X62414759Y-77545363D01*
X62179727Y-77388320D01*
X61918574Y-77280147D01*
X61641335Y-77225000D01*
X61358665Y-77225000D01*
X61081426Y-77280147D01*
X60820273Y-77388320D01*
X60585241Y-77545363D01*
X60385363Y-77745241D01*
X60228320Y-77980273D01*
X60120147Y-78241426D01*
X60065000Y-78518665D01*
X47824151Y-78518665D01*
X47791680Y-78440273D01*
X47634637Y-78205241D01*
X47434759Y-78005363D01*
X47202241Y-77850000D01*
X47434759Y-77694637D01*
X47634637Y-77494759D01*
X47791680Y-77259727D01*
X47899853Y-76998574D01*
X47955000Y-76721335D01*
X47955000Y-76698665D01*
X75565000Y-76698665D01*
X75565000Y-76981335D01*
X75620147Y-77258574D01*
X75728320Y-77519727D01*
X75885363Y-77754759D01*
X76085241Y-77954637D01*
X76320273Y-78111680D01*
X76581426Y-78219853D01*
X76858665Y-78275000D01*
X77141335Y-78275000D01*
X77418574Y-78219853D01*
X77679727Y-78111680D01*
X77914759Y-77954637D01*
X78114637Y-77754759D01*
X78271680Y-77519727D01*
X78379853Y-77258574D01*
X78435000Y-76981335D01*
X78435000Y-76698665D01*
X78379853Y-76421426D01*
X78271680Y-76160273D01*
X78114637Y-75925241D01*
X77914759Y-75725363D01*
X77679727Y-75568320D01*
X77418574Y-75460147D01*
X77141335Y-75405000D01*
X76858665Y-75405000D01*
X76581426Y-75460147D01*
X76320273Y-75568320D01*
X76085241Y-75725363D01*
X75885363Y-75925241D01*
X75728320Y-76160273D01*
X75620147Y-76421426D01*
X75565000Y-76698665D01*
X47955000Y-76698665D01*
X47955000Y-76438665D01*
X47899853Y-76161426D01*
X47791680Y-75900273D01*
X47634637Y-75665241D01*
X47434759Y-75465363D01*
X47202241Y-75310000D01*
X47434759Y-75154637D01*
X47634637Y-74954759D01*
X47791680Y-74719727D01*
X47899853Y-74458574D01*
X47920706Y-74353740D01*
X50975000Y-74353740D01*
X50975000Y-74646260D01*
X51032068Y-74933158D01*
X51144010Y-75203411D01*
X51306525Y-75446632D01*
X51513368Y-75653475D01*
X51756589Y-75815990D01*
X52026842Y-75927932D01*
X52313740Y-75985000D01*
X52606260Y-75985000D01*
X52893158Y-75927932D01*
X53163411Y-75815990D01*
X53406632Y-75653475D01*
X53613475Y-75446632D01*
X53730000Y-75272240D01*
X53846525Y-75446632D01*
X54053368Y-75653475D01*
X54296589Y-75815990D01*
X54566842Y-75927932D01*
X54853740Y-75985000D01*
X55146260Y-75985000D01*
X55433158Y-75927932D01*
X55703411Y-75815990D01*
X55946632Y-75653475D01*
X56078487Y-75521620D01*
X56100498Y-75594180D01*
X56159463Y-75704494D01*
X56238815Y-75801185D01*
X56335506Y-75880537D01*
X56445820Y-75939502D01*
X56565518Y-75975812D01*
X56690000Y-75988072D01*
X58390000Y-75988072D01*
X58514482Y-75975812D01*
X58634180Y-75939502D01*
X58744494Y-75880537D01*
X58841185Y-75801185D01*
X58920537Y-75704494D01*
X58979502Y-75594180D01*
X59015812Y-75474482D01*
X59028072Y-75350000D01*
X59028072Y-73650000D01*
X59015812Y-73525518D01*
X58979502Y-73405820D01*
X58920537Y-73295506D01*
X58873889Y-73238665D01*
X63565000Y-73238665D01*
X63565000Y-73521335D01*
X63620147Y-73798574D01*
X63728320Y-74059727D01*
X63885363Y-74294759D01*
X64085241Y-74494637D01*
X64320273Y-74651680D01*
X64581426Y-74759853D01*
X64858665Y-74815000D01*
X65141335Y-74815000D01*
X65418574Y-74759853D01*
X65679727Y-74651680D01*
X65914759Y-74494637D01*
X66114637Y-74294759D01*
X66270000Y-74062241D01*
X66425363Y-74294759D01*
X66625241Y-74494637D01*
X66860273Y-74651680D01*
X67121426Y-74759853D01*
X67398665Y-74815000D01*
X67681335Y-74815000D01*
X67958574Y-74759853D01*
X68219727Y-74651680D01*
X68454759Y-74494637D01*
X68654637Y-74294759D01*
X68810000Y-74062241D01*
X68965363Y-74294759D01*
X69165241Y-74494637D01*
X69400273Y-74651680D01*
X69661426Y-74759853D01*
X69938665Y-74815000D01*
X70221335Y-74815000D01*
X70498574Y-74759853D01*
X70759727Y-74651680D01*
X70994759Y-74494637D01*
X71194637Y-74294759D01*
X71350000Y-74062241D01*
X71505363Y-74294759D01*
X71705241Y-74494637D01*
X71940273Y-74651680D01*
X72201426Y-74759853D01*
X72478665Y-74815000D01*
X72761335Y-74815000D01*
X73038574Y-74759853D01*
X73299727Y-74651680D01*
X73534759Y-74494637D01*
X73734637Y-74294759D01*
X73891680Y-74059727D01*
X73999853Y-73798574D01*
X74055000Y-73521335D01*
X74055000Y-73238665D01*
X73999853Y-72961426D01*
X73891680Y-72700273D01*
X73734637Y-72465241D01*
X73534759Y-72265363D01*
X73299727Y-72108320D01*
X73038574Y-72000147D01*
X72761335Y-71945000D01*
X72478665Y-71945000D01*
X72201426Y-72000147D01*
X71940273Y-72108320D01*
X71705241Y-72265363D01*
X71505363Y-72465241D01*
X71350000Y-72697759D01*
X71194637Y-72465241D01*
X70994759Y-72265363D01*
X70759727Y-72108320D01*
X70498574Y-72000147D01*
X70221335Y-71945000D01*
X69938665Y-71945000D01*
X69661426Y-72000147D01*
X69400273Y-72108320D01*
X69165241Y-72265363D01*
X68965363Y-72465241D01*
X68810000Y-72697759D01*
X68654637Y-72465241D01*
X68454759Y-72265363D01*
X68219727Y-72108320D01*
X67958574Y-72000147D01*
X67681335Y-71945000D01*
X67398665Y-71945000D01*
X67121426Y-72000147D01*
X66860273Y-72108320D01*
X66625241Y-72265363D01*
X66425363Y-72465241D01*
X66270000Y-72697759D01*
X66114637Y-72465241D01*
X65914759Y-72265363D01*
X65679727Y-72108320D01*
X65418574Y-72000147D01*
X65141335Y-71945000D01*
X64858665Y-71945000D01*
X64581426Y-72000147D01*
X64320273Y-72108320D01*
X64085241Y-72265363D01*
X63885363Y-72465241D01*
X63728320Y-72700273D01*
X63620147Y-72961426D01*
X63565000Y-73238665D01*
X58873889Y-73238665D01*
X58841185Y-73198815D01*
X58744494Y-73119463D01*
X58634180Y-73060498D01*
X58514482Y-73024188D01*
X58390000Y-73011928D01*
X56690000Y-73011928D01*
X56565518Y-73024188D01*
X56445820Y-73060498D01*
X56335506Y-73119463D01*
X56238815Y-73198815D01*
X56159463Y-73295506D01*
X56100498Y-73405820D01*
X56078487Y-73478380D01*
X55946632Y-73346525D01*
X55703411Y-73184010D01*
X55433158Y-73072068D01*
X55146260Y-73015000D01*
X54853740Y-73015000D01*
X54566842Y-73072068D01*
X54296589Y-73184010D01*
X54053368Y-73346525D01*
X53846525Y-73553368D01*
X53730000Y-73727760D01*
X53613475Y-73553368D01*
X53406632Y-73346525D01*
X53163411Y-73184010D01*
X52893158Y-73072068D01*
X52606260Y-73015000D01*
X52313740Y-73015000D01*
X52026842Y-73072068D01*
X51756589Y-73184010D01*
X51513368Y-73346525D01*
X51306525Y-73553368D01*
X51144010Y-73796589D01*
X51032068Y-74066842D01*
X50975000Y-74353740D01*
X47920706Y-74353740D01*
X47955000Y-74181335D01*
X47955000Y-73898665D01*
X47899853Y-73621426D01*
X47791680Y-73360273D01*
X47634637Y-73125241D01*
X47434759Y-72925363D01*
X47202241Y-72770000D01*
X47309001Y-72698665D01*
X48065000Y-72698665D01*
X48065000Y-72981335D01*
X48120147Y-73258574D01*
X48228320Y-73519727D01*
X48385363Y-73754759D01*
X48585241Y-73954637D01*
X48820273Y-74111680D01*
X49081426Y-74219853D01*
X49358665Y-74275000D01*
X49641335Y-74275000D01*
X49918574Y-74219853D01*
X50179727Y-74111680D01*
X50414759Y-73954637D01*
X50614637Y-73754759D01*
X50771680Y-73519727D01*
X50879853Y-73258574D01*
X50935000Y-72981335D01*
X50935000Y-72698665D01*
X50879853Y-72421426D01*
X50771680Y-72160273D01*
X50614637Y-71925241D01*
X50414759Y-71725363D01*
X50179727Y-71568320D01*
X49918574Y-71460147D01*
X49641335Y-71405000D01*
X49358665Y-71405000D01*
X49081426Y-71460147D01*
X48820273Y-71568320D01*
X48585241Y-71725363D01*
X48385363Y-71925241D01*
X48228320Y-72160273D01*
X48120147Y-72421426D01*
X48065000Y-72698665D01*
X47309001Y-72698665D01*
X47434759Y-72614637D01*
X47634637Y-72414759D01*
X47791680Y-72179727D01*
X47899853Y-71918574D01*
X47955000Y-71641335D01*
X47955000Y-71358665D01*
X47899853Y-71081426D01*
X47890426Y-71058665D01*
X50965000Y-71058665D01*
X50965000Y-71341335D01*
X51020147Y-71618574D01*
X51128320Y-71879727D01*
X51285363Y-72114759D01*
X51485241Y-72314637D01*
X51720273Y-72471680D01*
X51981426Y-72579853D01*
X52258665Y-72635000D01*
X52541335Y-72635000D01*
X52818574Y-72579853D01*
X53079727Y-72471680D01*
X53314759Y-72314637D01*
X53514637Y-72114759D01*
X53650000Y-71912173D01*
X53785363Y-72114759D01*
X53985241Y-72314637D01*
X54220273Y-72471680D01*
X54481426Y-72579853D01*
X54758665Y-72635000D01*
X55041335Y-72635000D01*
X55318574Y-72579853D01*
X55579727Y-72471680D01*
X55814759Y-72314637D01*
X56014637Y-72114759D01*
X56171680Y-71879727D01*
X56279853Y-71618574D01*
X56335000Y-71341335D01*
X56335000Y-71058665D01*
X56279853Y-70781426D01*
X56171680Y-70520273D01*
X56014637Y-70285241D01*
X55814759Y-70085363D01*
X55579727Y-69928320D01*
X55318574Y-69820147D01*
X55041335Y-69765000D01*
X54758665Y-69765000D01*
X54481426Y-69820147D01*
X54220273Y-69928320D01*
X53985241Y-70085363D01*
X53785363Y-70285241D01*
X53650000Y-70487827D01*
X53514637Y-70285241D01*
X53314759Y-70085363D01*
X53079727Y-69928320D01*
X52818574Y-69820147D01*
X52541335Y-69765000D01*
X52258665Y-69765000D01*
X51981426Y-69820147D01*
X51720273Y-69928320D01*
X51485241Y-70085363D01*
X51285363Y-70285241D01*
X51128320Y-70520273D01*
X51020147Y-70781426D01*
X50965000Y-71058665D01*
X47890426Y-71058665D01*
X47791680Y-70820273D01*
X47634637Y-70585241D01*
X47434759Y-70385363D01*
X47199727Y-70228320D01*
X46938574Y-70120147D01*
X46661335Y-70065000D01*
X46378665Y-70065000D01*
X46101426Y-70120147D01*
X45840273Y-70228320D01*
X45605241Y-70385363D01*
X45405363Y-70585241D01*
X45248320Y-70820273D01*
X45140147Y-71081426D01*
X45085000Y-71358665D01*
X40338072Y-71358665D01*
X40338072Y-70700000D01*
X40325812Y-70575518D01*
X40289502Y-70455820D01*
X40230537Y-70345506D01*
X40151185Y-70248815D01*
X40054494Y-70169463D01*
X39944180Y-70110498D01*
X39824482Y-70074188D01*
X39700000Y-70061928D01*
X38100000Y-70061928D01*
X37975518Y-70074188D01*
X37855820Y-70110498D01*
X37745506Y-70169463D01*
X37648815Y-70248815D01*
X37569463Y-70345506D01*
X37510498Y-70455820D01*
X37474188Y-70575518D01*
X37461928Y-70700000D01*
X33827000Y-70700000D01*
X33827000Y-68358665D01*
X60065000Y-68358665D01*
X60065000Y-68641335D01*
X60120147Y-68918574D01*
X60228320Y-69179727D01*
X60385363Y-69414759D01*
X60585241Y-69614637D01*
X60820273Y-69771680D01*
X61081426Y-69879853D01*
X61358665Y-69935000D01*
X61641335Y-69935000D01*
X61918574Y-69879853D01*
X62179727Y-69771680D01*
X62414759Y-69614637D01*
X62614637Y-69414759D01*
X62758134Y-69200000D01*
X63561928Y-69200000D01*
X63561928Y-70800000D01*
X63574188Y-70924482D01*
X63610498Y-71044180D01*
X63669463Y-71154494D01*
X63748815Y-71251185D01*
X63845506Y-71330537D01*
X63955820Y-71389502D01*
X64075518Y-71425812D01*
X64200000Y-71438072D01*
X65800000Y-71438072D01*
X65924482Y-71425812D01*
X66044180Y-71389502D01*
X66154494Y-71330537D01*
X66251185Y-71251185D01*
X66330537Y-71154494D01*
X66389502Y-71044180D01*
X66425812Y-70924482D01*
X66426643Y-70916039D01*
X66625241Y-71114637D01*
X66860273Y-71271680D01*
X67121426Y-71379853D01*
X67398665Y-71435000D01*
X67681335Y-71435000D01*
X67958574Y-71379853D01*
X68219727Y-71271680D01*
X68454759Y-71114637D01*
X68654637Y-70914759D01*
X68810000Y-70682241D01*
X68965363Y-70914759D01*
X69165241Y-71114637D01*
X69400273Y-71271680D01*
X69661426Y-71379853D01*
X69938665Y-71435000D01*
X70221335Y-71435000D01*
X70498574Y-71379853D01*
X70759727Y-71271680D01*
X70994759Y-71114637D01*
X71194637Y-70914759D01*
X71351680Y-70679727D01*
X71356962Y-70666975D01*
X71408635Y-70769300D01*
X71581994Y-70990844D01*
X71795243Y-71174310D01*
X72040187Y-71312648D01*
X72307413Y-71400542D01*
X72372828Y-71413553D01*
X72597000Y-71276043D01*
X72597000Y-70023000D01*
X72643000Y-70023000D01*
X72643000Y-71276043D01*
X72867172Y-71413553D01*
X72932587Y-71400542D01*
X73199813Y-71312648D01*
X73444757Y-71174310D01*
X73658006Y-70990844D01*
X73831365Y-70769300D01*
X73958172Y-70518193D01*
X74033554Y-70247172D01*
X73896067Y-70023000D01*
X72643000Y-70023000D01*
X72597000Y-70023000D01*
X72577000Y-70023000D01*
X72577000Y-69977000D01*
X72597000Y-69977000D01*
X72597000Y-68723957D01*
X72643000Y-68723957D01*
X72643000Y-69977000D01*
X73896067Y-69977000D01*
X74033554Y-69752828D01*
X73958172Y-69481807D01*
X73831365Y-69230700D01*
X73658006Y-69009156D01*
X73444757Y-68825690D01*
X73199813Y-68687352D01*
X72932587Y-68599458D01*
X72867172Y-68586447D01*
X72643000Y-68723957D01*
X72597000Y-68723957D01*
X72372828Y-68586447D01*
X72307413Y-68599458D01*
X72040187Y-68687352D01*
X71795243Y-68825690D01*
X71581994Y-69009156D01*
X71408635Y-69230700D01*
X71356962Y-69333025D01*
X71351680Y-69320273D01*
X71194637Y-69085241D01*
X70994759Y-68885363D01*
X70759727Y-68728320D01*
X70498574Y-68620147D01*
X70221335Y-68565000D01*
X69938665Y-68565000D01*
X69661426Y-68620147D01*
X69400273Y-68728320D01*
X69165241Y-68885363D01*
X68965363Y-69085241D01*
X68810000Y-69317759D01*
X68654637Y-69085241D01*
X68454759Y-68885363D01*
X68219727Y-68728320D01*
X67958574Y-68620147D01*
X67681335Y-68565000D01*
X67398665Y-68565000D01*
X67121426Y-68620147D01*
X66860273Y-68728320D01*
X66625241Y-68885363D01*
X66426643Y-69083961D01*
X66425812Y-69075518D01*
X66389502Y-68955820D01*
X66330537Y-68845506D01*
X66251185Y-68748815D01*
X66154494Y-68669463D01*
X66044180Y-68610498D01*
X65924482Y-68574188D01*
X65800000Y-68561928D01*
X64200000Y-68561928D01*
X64075518Y-68574188D01*
X63955820Y-68610498D01*
X63845506Y-68669463D01*
X63748815Y-68748815D01*
X63669463Y-68845506D01*
X63610498Y-68955820D01*
X63574188Y-69075518D01*
X63561928Y-69200000D01*
X62758134Y-69200000D01*
X62771680Y-69179727D01*
X62879853Y-68918574D01*
X62935000Y-68641335D01*
X62935000Y-68358665D01*
X62879853Y-68081426D01*
X62771680Y-67820273D01*
X62614637Y-67585241D01*
X62414759Y-67385363D01*
X62179727Y-67228320D01*
X61918574Y-67120147D01*
X61641335Y-67065000D01*
X61358665Y-67065000D01*
X61081426Y-67120147D01*
X60820273Y-67228320D01*
X60585241Y-67385363D01*
X60385363Y-67585241D01*
X60228320Y-67820273D01*
X60120147Y-68081426D01*
X60065000Y-68358665D01*
X33827000Y-68358665D01*
X33827000Y-64624593D01*
X36965000Y-64624593D01*
X36965000Y-65775408D01*
X36987210Y-66000913D01*
X37074983Y-66290261D01*
X37217519Y-66556927D01*
X37409340Y-66790661D01*
X37643074Y-66982481D01*
X37909740Y-67125017D01*
X38199088Y-67212790D01*
X38500000Y-67242427D01*
X38800913Y-67212790D01*
X39090261Y-67125017D01*
X39356927Y-66982481D01*
X39590661Y-66790661D01*
X39782481Y-66556927D01*
X39925017Y-66290261D01*
X40012790Y-66000913D01*
X40035000Y-65775408D01*
X40035000Y-64975855D01*
X40043074Y-64982481D01*
X40309740Y-65125017D01*
X40599088Y-65212790D01*
X40900000Y-65242427D01*
X41200913Y-65212790D01*
X41490261Y-65125017D01*
X41756927Y-64982481D01*
X41990661Y-64790661D01*
X42182481Y-64556927D01*
X42325017Y-64290261D01*
X42412790Y-64000913D01*
X42435000Y-63775408D01*
X42435000Y-62624593D01*
X44865000Y-62624593D01*
X44865000Y-63775408D01*
X44887210Y-64000913D01*
X44974983Y-64290261D01*
X45117519Y-64556927D01*
X45309340Y-64790661D01*
X45543074Y-64982481D01*
X45809740Y-65125017D01*
X46099088Y-65212790D01*
X46400000Y-65242427D01*
X46700913Y-65212790D01*
X46990261Y-65125017D01*
X47189231Y-65018665D01*
X60065000Y-65018665D01*
X60065000Y-65301335D01*
X60120147Y-65578574D01*
X60228320Y-65839727D01*
X60385363Y-66074759D01*
X60585241Y-66274637D01*
X60820273Y-66431680D01*
X61081426Y-66539853D01*
X61358665Y-66595000D01*
X61641335Y-66595000D01*
X61918574Y-66539853D01*
X62179727Y-66431680D01*
X62414759Y-66274637D01*
X62614637Y-66074759D01*
X62771680Y-65839727D01*
X62879853Y-65578574D01*
X62935000Y-65301335D01*
X62935000Y-65018665D01*
X62879853Y-64741426D01*
X62771680Y-64480273D01*
X62716748Y-64398061D01*
X63465000Y-64398061D01*
X63465000Y-64601939D01*
X63504774Y-64801898D01*
X63582795Y-64990256D01*
X63696063Y-65159774D01*
X63840226Y-65303937D01*
X64009744Y-65417205D01*
X64198102Y-65495226D01*
X64398061Y-65535000D01*
X64601939Y-65535000D01*
X64801898Y-65495226D01*
X64990256Y-65417205D01*
X65018907Y-65398061D01*
X73965000Y-65398061D01*
X73965000Y-65601939D01*
X74004774Y-65801898D01*
X74082795Y-65990256D01*
X74196063Y-66159774D01*
X74340226Y-66303937D01*
X74509744Y-66417205D01*
X74698102Y-66495226D01*
X74898061Y-66535000D01*
X75101939Y-66535000D01*
X75301898Y-66495226D01*
X75490256Y-66417205D01*
X75576576Y-66359528D01*
X75620147Y-66578574D01*
X75728320Y-66839727D01*
X75885363Y-67074759D01*
X76085241Y-67274637D01*
X76320273Y-67431680D01*
X76581426Y-67539853D01*
X76858665Y-67595000D01*
X77141335Y-67595000D01*
X77418574Y-67539853D01*
X77679727Y-67431680D01*
X77914759Y-67274637D01*
X78114637Y-67074759D01*
X78271680Y-66839727D01*
X78379853Y-66578574D01*
X78435000Y-66301335D01*
X78435000Y-66018665D01*
X78379853Y-65741426D01*
X78271680Y-65480273D01*
X78114637Y-65245241D01*
X77914759Y-65045363D01*
X77679727Y-64888320D01*
X77418574Y-64780147D01*
X77141335Y-64725000D01*
X76858665Y-64725000D01*
X76581426Y-64780147D01*
X76320273Y-64888320D01*
X76085241Y-65045363D01*
X75976854Y-65153750D01*
X75917205Y-65009744D01*
X75803937Y-64840226D01*
X75659774Y-64696063D01*
X75490256Y-64582795D01*
X75301898Y-64504774D01*
X75101939Y-64465000D01*
X74898061Y-64465000D01*
X74698102Y-64504774D01*
X74509744Y-64582795D01*
X74340226Y-64696063D01*
X74196063Y-64840226D01*
X74082795Y-65009744D01*
X74004774Y-65198102D01*
X73965000Y-65398061D01*
X65018907Y-65398061D01*
X65159774Y-65303937D01*
X65303937Y-65159774D01*
X65417205Y-64990256D01*
X65495226Y-64801898D01*
X65535000Y-64601939D01*
X65535000Y-64398061D01*
X65495226Y-64198102D01*
X65417205Y-64009744D01*
X65303937Y-63840226D01*
X65255919Y-63792208D01*
X65418574Y-63759853D01*
X65679727Y-63651680D01*
X65914759Y-63494637D01*
X66114637Y-63294759D01*
X66270000Y-63062241D01*
X66425363Y-63294759D01*
X66625241Y-63494637D01*
X66860273Y-63651680D01*
X67121426Y-63759853D01*
X67398665Y-63815000D01*
X67681335Y-63815000D01*
X67958574Y-63759853D01*
X68219727Y-63651680D01*
X68454759Y-63494637D01*
X68654637Y-63294759D01*
X68810000Y-63062241D01*
X68965363Y-63294759D01*
X69165241Y-63494637D01*
X69400273Y-63651680D01*
X69661426Y-63759853D01*
X69938665Y-63815000D01*
X70221335Y-63815000D01*
X70498574Y-63759853D01*
X70759727Y-63651680D01*
X70994759Y-63494637D01*
X71194637Y-63294759D01*
X71350000Y-63062241D01*
X71505363Y-63294759D01*
X71705241Y-63494637D01*
X71940273Y-63651680D01*
X72201426Y-63759853D01*
X72478665Y-63815000D01*
X72761335Y-63815000D01*
X73038574Y-63759853D01*
X73299727Y-63651680D01*
X73534759Y-63494637D01*
X73734637Y-63294759D01*
X73891680Y-63059727D01*
X73970872Y-62868541D01*
X73965000Y-62898061D01*
X73965000Y-63101939D01*
X74004774Y-63301898D01*
X74082795Y-63490256D01*
X74196063Y-63659774D01*
X74340226Y-63803937D01*
X74509744Y-63917205D01*
X74698102Y-63995226D01*
X74898061Y-64035000D01*
X75101939Y-64035000D01*
X75301898Y-63995226D01*
X75490256Y-63917205D01*
X75659774Y-63803937D01*
X75803937Y-63659774D01*
X75917205Y-63490256D01*
X75995226Y-63301898D01*
X76035000Y-63101939D01*
X76035000Y-62898061D01*
X75995226Y-62698102D01*
X75917205Y-62509744D01*
X75803937Y-62340226D01*
X75659774Y-62196063D01*
X75490256Y-62082795D01*
X75301898Y-62004774D01*
X75101939Y-61965000D01*
X74898061Y-61965000D01*
X74698102Y-62004774D01*
X74509744Y-62082795D01*
X74340226Y-62196063D01*
X74196063Y-62340226D01*
X74082795Y-62509744D01*
X74033756Y-62628133D01*
X74055000Y-62521335D01*
X74055000Y-62238665D01*
X73999853Y-61961426D01*
X73891680Y-61700273D01*
X73734637Y-61465241D01*
X73534759Y-61265363D01*
X73299727Y-61108320D01*
X73038574Y-61000147D01*
X72761335Y-60945000D01*
X72478665Y-60945000D01*
X72201426Y-61000147D01*
X71940273Y-61108320D01*
X71705241Y-61265363D01*
X71505363Y-61465241D01*
X71350000Y-61697759D01*
X71194637Y-61465241D01*
X70994759Y-61265363D01*
X70759727Y-61108320D01*
X70498574Y-61000147D01*
X70221335Y-60945000D01*
X69938665Y-60945000D01*
X69661426Y-61000147D01*
X69400273Y-61108320D01*
X69165241Y-61265363D01*
X68965363Y-61465241D01*
X68810000Y-61697759D01*
X68654637Y-61465241D01*
X68454759Y-61265363D01*
X68219727Y-61108320D01*
X67958574Y-61000147D01*
X67681335Y-60945000D01*
X67398665Y-60945000D01*
X67121426Y-61000147D01*
X66860273Y-61108320D01*
X66625241Y-61265363D01*
X66425363Y-61465241D01*
X66270000Y-61697759D01*
X66114637Y-61465241D01*
X65914759Y-61265363D01*
X65679727Y-61108320D01*
X65418574Y-61000147D01*
X65141335Y-60945000D01*
X64858665Y-60945000D01*
X64581426Y-61000147D01*
X64320273Y-61108320D01*
X64085241Y-61265363D01*
X63885363Y-61465241D01*
X63728320Y-61700273D01*
X63620147Y-61961426D01*
X63565000Y-62238665D01*
X63565000Y-62521335D01*
X63620147Y-62798574D01*
X63728320Y-63059727D01*
X63885363Y-63294759D01*
X64085241Y-63494637D01*
X64137797Y-63529753D01*
X64009744Y-63582795D01*
X63840226Y-63696063D01*
X63696063Y-63840226D01*
X63582795Y-64009744D01*
X63504774Y-64198102D01*
X63465000Y-64398061D01*
X62716748Y-64398061D01*
X62614637Y-64245241D01*
X62414759Y-64045363D01*
X62179727Y-63888320D01*
X61918574Y-63780147D01*
X61641335Y-63725000D01*
X61358665Y-63725000D01*
X61081426Y-63780147D01*
X60820273Y-63888320D01*
X60585241Y-64045363D01*
X60385363Y-64245241D01*
X60228320Y-64480273D01*
X60120147Y-64741426D01*
X60065000Y-65018665D01*
X47189231Y-65018665D01*
X47256927Y-64982481D01*
X47490661Y-64790661D01*
X47682481Y-64556927D01*
X47825017Y-64290261D01*
X47912790Y-64000913D01*
X47935000Y-63775408D01*
X47935000Y-62624592D01*
X47912790Y-62399087D01*
X47825017Y-62109739D01*
X47711873Y-61898061D01*
X60465000Y-61898061D01*
X60465000Y-62101939D01*
X60504774Y-62301898D01*
X60582795Y-62490256D01*
X60696063Y-62659774D01*
X60840226Y-62803937D01*
X61009744Y-62917205D01*
X61198102Y-62995226D01*
X61398061Y-63035000D01*
X61601939Y-63035000D01*
X61801898Y-62995226D01*
X61990256Y-62917205D01*
X62159774Y-62803937D01*
X62303937Y-62659774D01*
X62417205Y-62490256D01*
X62495226Y-62301898D01*
X62535000Y-62101939D01*
X62535000Y-61898061D01*
X62495226Y-61698102D01*
X62417205Y-61509744D01*
X62303937Y-61340226D01*
X62159774Y-61196063D01*
X61990256Y-61082795D01*
X61801898Y-61004774D01*
X61601939Y-60965000D01*
X61398061Y-60965000D01*
X61198102Y-61004774D01*
X61009744Y-61082795D01*
X60840226Y-61196063D01*
X60696063Y-61340226D01*
X60582795Y-61509744D01*
X60504774Y-61698102D01*
X60465000Y-61898061D01*
X47711873Y-61898061D01*
X47682481Y-61843073D01*
X47490661Y-61609339D01*
X47256926Y-61417519D01*
X46990260Y-61274983D01*
X46700912Y-61187210D01*
X46400000Y-61157573D01*
X46099087Y-61187210D01*
X45809739Y-61274983D01*
X45543073Y-61417519D01*
X45309339Y-61609339D01*
X45117519Y-61843074D01*
X44974983Y-62109740D01*
X44887210Y-62399088D01*
X44865000Y-62624593D01*
X42435000Y-62624593D01*
X42435000Y-62624592D01*
X42412790Y-62399087D01*
X42325017Y-62109739D01*
X42182481Y-61843073D01*
X41990661Y-61609339D01*
X41756926Y-61417519D01*
X41490260Y-61274983D01*
X41200912Y-61187210D01*
X40900000Y-61157573D01*
X40599087Y-61187210D01*
X40309739Y-61274983D01*
X40043073Y-61417519D01*
X39809339Y-61609339D01*
X39617519Y-61843074D01*
X39474983Y-62109740D01*
X39387210Y-62399088D01*
X39365000Y-62624593D01*
X39365000Y-63424145D01*
X39356926Y-63417519D01*
X39090260Y-63274983D01*
X38800912Y-63187210D01*
X38500000Y-63157573D01*
X38199087Y-63187210D01*
X37909739Y-63274983D01*
X37643073Y-63417519D01*
X37409339Y-63609339D01*
X37217519Y-63843074D01*
X37074983Y-64109740D01*
X36987210Y-64399088D01*
X36965000Y-64624593D01*
X33827000Y-64624593D01*
X33827000Y-58943249D01*
X38989278Y-58943249D01*
X39105353Y-59245782D01*
X39427954Y-59429636D01*
X39780224Y-59547020D01*
X40148626Y-59593424D01*
X40519002Y-59567065D01*
X40877119Y-59468956D01*
X41209215Y-59302866D01*
X41294647Y-59245782D01*
X41410722Y-58943249D01*
X40200000Y-57732527D01*
X38989278Y-58943249D01*
X33827000Y-58943249D01*
X33827000Y-57648626D01*
X38306576Y-57648626D01*
X38332935Y-58019002D01*
X38431044Y-58377119D01*
X38597134Y-58709215D01*
X38654218Y-58794647D01*
X38956751Y-58910722D01*
X40167473Y-57700000D01*
X40232527Y-57700000D01*
X41443249Y-58910722D01*
X41745782Y-58794647D01*
X41789085Y-58718665D01*
X48565000Y-58718665D01*
X48565000Y-59001335D01*
X48620147Y-59278574D01*
X48728320Y-59539727D01*
X48885363Y-59774759D01*
X49085241Y-59974637D01*
X49320273Y-60131680D01*
X49581426Y-60239853D01*
X49858665Y-60295000D01*
X50141335Y-60295000D01*
X50418574Y-60239853D01*
X50679727Y-60131680D01*
X50914759Y-59974637D01*
X51114637Y-59774759D01*
X51271680Y-59539727D01*
X51379853Y-59278574D01*
X51435000Y-59001335D01*
X51435000Y-59146260D01*
X51492068Y-59433158D01*
X51604010Y-59703411D01*
X51766525Y-59946632D01*
X51973368Y-60153475D01*
X52216589Y-60315990D01*
X52486842Y-60427932D01*
X52773740Y-60485000D01*
X53066260Y-60485000D01*
X53353158Y-60427932D01*
X53623411Y-60315990D01*
X53866632Y-60153475D01*
X54073475Y-59946632D01*
X54190000Y-59772240D01*
X54306525Y-59946632D01*
X54513368Y-60153475D01*
X54756589Y-60315990D01*
X55026842Y-60427932D01*
X55313740Y-60485000D01*
X55606260Y-60485000D01*
X55893158Y-60427932D01*
X56163411Y-60315990D01*
X56406632Y-60153475D01*
X56538487Y-60021620D01*
X56560498Y-60094180D01*
X56619463Y-60204494D01*
X56698815Y-60301185D01*
X56795506Y-60380537D01*
X56905820Y-60439502D01*
X57025518Y-60475812D01*
X57150000Y-60488072D01*
X58850000Y-60488072D01*
X58974482Y-60475812D01*
X59094180Y-60439502D01*
X59204494Y-60380537D01*
X59301185Y-60301185D01*
X59380537Y-60204494D01*
X59439502Y-60094180D01*
X59475812Y-59974482D01*
X59488072Y-59850000D01*
X59488072Y-59358665D01*
X62565000Y-59358665D01*
X62565000Y-59641335D01*
X62620147Y-59918574D01*
X62728320Y-60179727D01*
X62885363Y-60414759D01*
X63085241Y-60614637D01*
X63320273Y-60771680D01*
X63581426Y-60879853D01*
X63858665Y-60935000D01*
X64141335Y-60935000D01*
X64418574Y-60879853D01*
X64679727Y-60771680D01*
X64914759Y-60614637D01*
X65114637Y-60414759D01*
X65271680Y-60179727D01*
X65379853Y-59918574D01*
X65435000Y-59641335D01*
X65435000Y-59358665D01*
X72725000Y-59358665D01*
X72725000Y-59641335D01*
X72780147Y-59918574D01*
X72888320Y-60179727D01*
X73045363Y-60414759D01*
X73245241Y-60614637D01*
X73480273Y-60771680D01*
X73741426Y-60879853D01*
X74018665Y-60935000D01*
X74301335Y-60935000D01*
X74578574Y-60879853D01*
X74839727Y-60771680D01*
X75074759Y-60614637D01*
X75274637Y-60414759D01*
X75431680Y-60179727D01*
X75539853Y-59918574D01*
X75595000Y-59641335D01*
X75595000Y-59358665D01*
X75539853Y-59081426D01*
X75431680Y-58820273D01*
X75274637Y-58585241D01*
X75074759Y-58385363D01*
X74839727Y-58228320D01*
X74590291Y-58125000D01*
X83986928Y-58125000D01*
X83986928Y-59875000D01*
X83999188Y-59999482D01*
X84035498Y-60119180D01*
X84094463Y-60229494D01*
X84173815Y-60326185D01*
X84270506Y-60405537D01*
X84380820Y-60464502D01*
X84395564Y-60468974D01*
X84327107Y-60537431D01*
X84161856Y-60784747D01*
X84048029Y-61059549D01*
X83990000Y-61351278D01*
X83990000Y-61648722D01*
X84048029Y-61940451D01*
X84161856Y-62215253D01*
X84327107Y-62462569D01*
X84537431Y-62672893D01*
X84652830Y-62750000D01*
X84537431Y-62827107D01*
X84327107Y-63037431D01*
X84161856Y-63284747D01*
X84048029Y-63559549D01*
X83990000Y-63851278D01*
X83990000Y-64148722D01*
X84048029Y-64440451D01*
X84161856Y-64715253D01*
X84327107Y-64962569D01*
X84537431Y-65172893D01*
X84784747Y-65338144D01*
X85059549Y-65451971D01*
X85351278Y-65510000D01*
X85648722Y-65510000D01*
X85940451Y-65451971D01*
X86215253Y-65338144D01*
X86462569Y-65172893D01*
X86672893Y-64962569D01*
X86838144Y-64715253D01*
X86951971Y-64440451D01*
X87010000Y-64148722D01*
X87010000Y-63851278D01*
X86951971Y-63559549D01*
X86838144Y-63284747D01*
X86672893Y-63037431D01*
X86462569Y-62827107D01*
X86347170Y-62750000D01*
X86462569Y-62672893D01*
X86672893Y-62462569D01*
X86838144Y-62215253D01*
X86951971Y-61940451D01*
X87010000Y-61648722D01*
X87010000Y-61351278D01*
X86951971Y-61059549D01*
X86838144Y-60784747D01*
X86672893Y-60537431D01*
X86604436Y-60468974D01*
X86619180Y-60464502D01*
X86729494Y-60405537D01*
X86826185Y-60326185D01*
X86905537Y-60229494D01*
X86964502Y-60119180D01*
X87000812Y-59999482D01*
X87013072Y-59875000D01*
X87013072Y-58125000D01*
X87000812Y-58000518D01*
X86964502Y-57880820D01*
X86905537Y-57770506D01*
X86826185Y-57673815D01*
X86729494Y-57594463D01*
X86619180Y-57535498D01*
X86499482Y-57499188D01*
X86375000Y-57486928D01*
X84625000Y-57486928D01*
X84500518Y-57499188D01*
X84380820Y-57535498D01*
X84270506Y-57594463D01*
X84173815Y-57673815D01*
X84094463Y-57770506D01*
X84035498Y-57880820D01*
X83999188Y-58000518D01*
X83986928Y-58125000D01*
X74590291Y-58125000D01*
X74578574Y-58120147D01*
X74301335Y-58065000D01*
X74018665Y-58065000D01*
X73741426Y-58120147D01*
X73480273Y-58228320D01*
X73245241Y-58385363D01*
X73045363Y-58585241D01*
X72888320Y-58820273D01*
X72780147Y-59081426D01*
X72725000Y-59358665D01*
X65435000Y-59358665D01*
X65379853Y-59081426D01*
X65271680Y-58820273D01*
X65114637Y-58585241D01*
X64914759Y-58385363D01*
X64679727Y-58228320D01*
X64418574Y-58120147D01*
X64141335Y-58065000D01*
X63858665Y-58065000D01*
X63581426Y-58120147D01*
X63320273Y-58228320D01*
X63085241Y-58385363D01*
X62885363Y-58585241D01*
X62728320Y-58820273D01*
X62620147Y-59081426D01*
X62565000Y-59358665D01*
X59488072Y-59358665D01*
X59488072Y-58150000D01*
X59475812Y-58025518D01*
X59439502Y-57905820D01*
X59380537Y-57795506D01*
X59301185Y-57698815D01*
X59204494Y-57619463D01*
X59094180Y-57560498D01*
X58974482Y-57524188D01*
X58850000Y-57511928D01*
X57150000Y-57511928D01*
X57025518Y-57524188D01*
X56905820Y-57560498D01*
X56795506Y-57619463D01*
X56698815Y-57698815D01*
X56619463Y-57795506D01*
X56560498Y-57905820D01*
X56538487Y-57978380D01*
X56406632Y-57846525D01*
X56163411Y-57684010D01*
X55893158Y-57572068D01*
X55606260Y-57515000D01*
X55313740Y-57515000D01*
X55026842Y-57572068D01*
X54756589Y-57684010D01*
X54513368Y-57846525D01*
X54306525Y-58053368D01*
X54190000Y-58227760D01*
X54073475Y-58053368D01*
X53866632Y-57846525D01*
X53623411Y-57684010D01*
X53353158Y-57572068D01*
X53066260Y-57515000D01*
X52773740Y-57515000D01*
X52486842Y-57572068D01*
X52216589Y-57684010D01*
X51973368Y-57846525D01*
X51766525Y-58053368D01*
X51604010Y-58296589D01*
X51492068Y-58566842D01*
X51435000Y-58853740D01*
X51435000Y-58718665D01*
X51379853Y-58441426D01*
X51271680Y-58180273D01*
X51114637Y-57945241D01*
X50914759Y-57745363D01*
X50679727Y-57588320D01*
X50418574Y-57480147D01*
X50141335Y-57425000D01*
X49858665Y-57425000D01*
X49581426Y-57480147D01*
X49320273Y-57588320D01*
X49085241Y-57745363D01*
X48885363Y-57945241D01*
X48728320Y-58180273D01*
X48620147Y-58441426D01*
X48565000Y-58718665D01*
X41789085Y-58718665D01*
X41929636Y-58472046D01*
X42047020Y-58119776D01*
X42093424Y-57751374D01*
X42067065Y-57380998D01*
X41968956Y-57022881D01*
X41802866Y-56690785D01*
X41745782Y-56605353D01*
X41443249Y-56489278D01*
X40232527Y-57700000D01*
X40167473Y-57700000D01*
X38956751Y-56489278D01*
X38654218Y-56605353D01*
X38470364Y-56927954D01*
X38352980Y-57280224D01*
X38306576Y-57648626D01*
X33827000Y-57648626D01*
X33827000Y-56456751D01*
X38989278Y-56456751D01*
X40200000Y-57667473D01*
X41410722Y-56456751D01*
X41294647Y-56154218D01*
X40972046Y-55970364D01*
X40619776Y-55852980D01*
X40251374Y-55806576D01*
X39880998Y-55832935D01*
X39522881Y-55931044D01*
X39190785Y-56097134D01*
X39105353Y-56154218D01*
X38989278Y-56456751D01*
X33827000Y-56456751D01*
X33827000Y-54858665D01*
X60065000Y-54858665D01*
X60065000Y-55141335D01*
X60120147Y-55418574D01*
X60228320Y-55679727D01*
X60385363Y-55914759D01*
X60585241Y-56114637D01*
X60820273Y-56271680D01*
X61081426Y-56379853D01*
X61358665Y-56435000D01*
X61641335Y-56435000D01*
X61918574Y-56379853D01*
X62179727Y-56271680D01*
X62414759Y-56114637D01*
X62468757Y-56060639D01*
X62460147Y-56081426D01*
X62405000Y-56358665D01*
X62405000Y-56641335D01*
X62460147Y-56918574D01*
X62568320Y-57179727D01*
X62725363Y-57414759D01*
X62925241Y-57614637D01*
X63160273Y-57771680D01*
X63421426Y-57879853D01*
X63698665Y-57935000D01*
X63981335Y-57935000D01*
X64258574Y-57879853D01*
X64519727Y-57771680D01*
X64754759Y-57614637D01*
X64954637Y-57414759D01*
X65111680Y-57179727D01*
X65219853Y-56918574D01*
X65275000Y-56641335D01*
X65275000Y-56358665D01*
X72565000Y-56358665D01*
X72565000Y-56641335D01*
X72620147Y-56918574D01*
X72728320Y-57179727D01*
X72885363Y-57414759D01*
X73085241Y-57614637D01*
X73320273Y-57771680D01*
X73581426Y-57879853D01*
X73858665Y-57935000D01*
X74141335Y-57935000D01*
X74418574Y-57879853D01*
X74679727Y-57771680D01*
X74914759Y-57614637D01*
X75114637Y-57414759D01*
X75271680Y-57179727D01*
X75379853Y-56918574D01*
X75435000Y-56641335D01*
X75435000Y-56358665D01*
X75379853Y-56081426D01*
X75287583Y-55858665D01*
X75565000Y-55858665D01*
X75565000Y-56141335D01*
X75620147Y-56418574D01*
X75728320Y-56679727D01*
X75885363Y-56914759D01*
X76085241Y-57114637D01*
X76320273Y-57271680D01*
X76581426Y-57379853D01*
X76858665Y-57435000D01*
X77141335Y-57435000D01*
X77418574Y-57379853D01*
X77679727Y-57271680D01*
X77914759Y-57114637D01*
X78114637Y-56914759D01*
X78271680Y-56679727D01*
X78379853Y-56418574D01*
X78435000Y-56141335D01*
X78435000Y-55858665D01*
X78379853Y-55581426D01*
X78271680Y-55320273D01*
X78114637Y-55085241D01*
X77914759Y-54885363D01*
X77679727Y-54728320D01*
X77418574Y-54620147D01*
X77141335Y-54565000D01*
X76858665Y-54565000D01*
X76581426Y-54620147D01*
X76320273Y-54728320D01*
X76085241Y-54885363D01*
X75885363Y-55085241D01*
X75728320Y-55320273D01*
X75620147Y-55581426D01*
X75565000Y-55858665D01*
X75287583Y-55858665D01*
X75271680Y-55820273D01*
X75114637Y-55585241D01*
X74914759Y-55385363D01*
X74679727Y-55228320D01*
X74418574Y-55120147D01*
X74141335Y-55065000D01*
X73858665Y-55065000D01*
X73581426Y-55120147D01*
X73320273Y-55228320D01*
X73085241Y-55385363D01*
X72885363Y-55585241D01*
X72728320Y-55820273D01*
X72620147Y-56081426D01*
X72565000Y-56358665D01*
X65275000Y-56358665D01*
X65219853Y-56081426D01*
X65111680Y-55820273D01*
X64954637Y-55585241D01*
X64754759Y-55385363D01*
X64519727Y-55228320D01*
X64258574Y-55120147D01*
X63981335Y-55065000D01*
X63698665Y-55065000D01*
X63421426Y-55120147D01*
X63160273Y-55228320D01*
X62925241Y-55385363D01*
X62871243Y-55439361D01*
X62879853Y-55418574D01*
X62935000Y-55141335D01*
X62935000Y-54858665D01*
X62879853Y-54581426D01*
X62771680Y-54320273D01*
X62614637Y-54085241D01*
X62414759Y-53885363D01*
X62179727Y-53728320D01*
X61918574Y-53620147D01*
X61641335Y-53565000D01*
X61358665Y-53565000D01*
X61081426Y-53620147D01*
X60820273Y-53728320D01*
X60585241Y-53885363D01*
X60385363Y-54085241D01*
X60228320Y-54320273D01*
X60120147Y-54581426D01*
X60065000Y-54858665D01*
X33827000Y-54858665D01*
X33827000Y-52514344D01*
X38315000Y-52514344D01*
X38315000Y-52885656D01*
X38387439Y-53249834D01*
X38529534Y-53592882D01*
X38735825Y-53901618D01*
X38998382Y-54164175D01*
X39307118Y-54370466D01*
X39650166Y-54512561D01*
X40014344Y-54585000D01*
X40385656Y-54585000D01*
X40749834Y-54512561D01*
X41092882Y-54370466D01*
X41401618Y-54164175D01*
X41664175Y-53901618D01*
X41870466Y-53592882D01*
X42012561Y-53249834D01*
X42085000Y-52885656D01*
X42085000Y-52514344D01*
X42012561Y-52150166D01*
X41870466Y-51807118D01*
X41664175Y-51498382D01*
X41401618Y-51235825D01*
X41092882Y-51029534D01*
X40749834Y-50887439D01*
X40385656Y-50815000D01*
X40014344Y-50815000D01*
X39650166Y-50887439D01*
X39307118Y-51029534D01*
X38998382Y-51235825D01*
X38735825Y-51498382D01*
X38529534Y-51807118D01*
X38387439Y-52150166D01*
X38315000Y-52514344D01*
X33827000Y-52514344D01*
X33827000Y-50366544D01*
X64065000Y-50366544D01*
X64065000Y-50633456D01*
X64117072Y-50895239D01*
X64219215Y-51141833D01*
X64367503Y-51363762D01*
X64556238Y-51552497D01*
X64778167Y-51700785D01*
X65024761Y-51802928D01*
X65286544Y-51855000D01*
X65553456Y-51855000D01*
X65815239Y-51802928D01*
X66061833Y-51700785D01*
X66283762Y-51552497D01*
X66472497Y-51363762D01*
X66620785Y-51141833D01*
X66690000Y-50974734D01*
X66759215Y-51141833D01*
X66907503Y-51363762D01*
X67096238Y-51552497D01*
X67318167Y-51700785D01*
X67564761Y-51802928D01*
X67826544Y-51855000D01*
X68093456Y-51855000D01*
X68355239Y-51802928D01*
X68601833Y-51700785D01*
X68823762Y-51552497D01*
X69012497Y-51363762D01*
X69160785Y-51141833D01*
X69230000Y-50974734D01*
X69299215Y-51141833D01*
X69447503Y-51363762D01*
X69636238Y-51552497D01*
X69858167Y-51700785D01*
X70104761Y-51802928D01*
X70366544Y-51855000D01*
X70633456Y-51855000D01*
X70895239Y-51802928D01*
X71141833Y-51700785D01*
X71363762Y-51552497D01*
X71552497Y-51363762D01*
X71700785Y-51141833D01*
X71802928Y-50895239D01*
X71855000Y-50633456D01*
X71855000Y-50366544D01*
X74065000Y-50366544D01*
X74065000Y-50633456D01*
X74117072Y-50895239D01*
X74219215Y-51141833D01*
X74367503Y-51363762D01*
X74556238Y-51552497D01*
X74778167Y-51700785D01*
X75024761Y-51802928D01*
X75286544Y-51855000D01*
X75553456Y-51855000D01*
X75815239Y-51802928D01*
X76061833Y-51700785D01*
X76283762Y-51552497D01*
X76472497Y-51363762D01*
X76620785Y-51141833D01*
X76690000Y-50974734D01*
X76759215Y-51141833D01*
X76907503Y-51363762D01*
X77096238Y-51552497D01*
X77318167Y-51700785D01*
X77564761Y-51802928D01*
X77826544Y-51855000D01*
X78093456Y-51855000D01*
X78355239Y-51802928D01*
X78601833Y-51700785D01*
X78823762Y-51552497D01*
X79012497Y-51363762D01*
X79160785Y-51141833D01*
X79230000Y-50974734D01*
X79299215Y-51141833D01*
X79447503Y-51363762D01*
X79636238Y-51552497D01*
X79858167Y-51700785D01*
X80104761Y-51802928D01*
X80366544Y-51855000D01*
X80633456Y-51855000D01*
X80895239Y-51802928D01*
X81141833Y-51700785D01*
X81363762Y-51552497D01*
X81552497Y-51363762D01*
X81700785Y-51141833D01*
X81802928Y-50895239D01*
X81855000Y-50633456D01*
X81855000Y-50366544D01*
X81802928Y-50104761D01*
X81700785Y-49858167D01*
X81552497Y-49636238D01*
X81363762Y-49447503D01*
X81141833Y-49299215D01*
X80895239Y-49197072D01*
X80633456Y-49145000D01*
X80366544Y-49145000D01*
X80104761Y-49197072D01*
X79858167Y-49299215D01*
X79636238Y-49447503D01*
X79447503Y-49636238D01*
X79299215Y-49858167D01*
X79230000Y-50025266D01*
X79160785Y-49858167D01*
X79012497Y-49636238D01*
X78823762Y-49447503D01*
X78601833Y-49299215D01*
X78355239Y-49197072D01*
X78093456Y-49145000D01*
X77826544Y-49145000D01*
X77564761Y-49197072D01*
X77318167Y-49299215D01*
X77096238Y-49447503D01*
X76907503Y-49636238D01*
X76759215Y-49858167D01*
X76690000Y-50025266D01*
X76620785Y-49858167D01*
X76472497Y-49636238D01*
X76283762Y-49447503D01*
X76061833Y-49299215D01*
X75815239Y-49197072D01*
X75553456Y-49145000D01*
X75286544Y-49145000D01*
X75024761Y-49197072D01*
X74778167Y-49299215D01*
X74556238Y-49447503D01*
X74367503Y-49636238D01*
X74219215Y-49858167D01*
X74117072Y-50104761D01*
X74065000Y-50366544D01*
X71855000Y-50366544D01*
X71802928Y-50104761D01*
X71700785Y-49858167D01*
X71552497Y-49636238D01*
X71363762Y-49447503D01*
X71141833Y-49299215D01*
X70895239Y-49197072D01*
X70633456Y-49145000D01*
X70366544Y-49145000D01*
X70104761Y-49197072D01*
X69858167Y-49299215D01*
X69636238Y-49447503D01*
X69447503Y-49636238D01*
X69299215Y-49858167D01*
X69230000Y-50025266D01*
X69160785Y-49858167D01*
X69012497Y-49636238D01*
X68823762Y-49447503D01*
X68601833Y-49299215D01*
X68355239Y-49197072D01*
X68093456Y-49145000D01*
X67826544Y-49145000D01*
X67564761Y-49197072D01*
X67318167Y-49299215D01*
X67096238Y-49447503D01*
X66907503Y-49636238D01*
X66759215Y-49858167D01*
X66690000Y-50025266D01*
X66620785Y-49858167D01*
X66472497Y-49636238D01*
X66283762Y-49447503D01*
X66061833Y-49299215D01*
X65815239Y-49197072D01*
X65553456Y-49145000D01*
X65286544Y-49145000D01*
X65024761Y-49197072D01*
X64778167Y-49299215D01*
X64556238Y-49447503D01*
X64367503Y-49636238D01*
X64219215Y-49858167D01*
X64117072Y-50104761D01*
X64065000Y-50366544D01*
X33827000Y-50366544D01*
X33827000Y-46450000D01*
X38311928Y-46450000D01*
X38311928Y-48950000D01*
X38324188Y-49074482D01*
X38360498Y-49194180D01*
X38419463Y-49304494D01*
X38498815Y-49401185D01*
X38595506Y-49480537D01*
X38705820Y-49539502D01*
X38825518Y-49575812D01*
X38950000Y-49588072D01*
X41450000Y-49588072D01*
X41574482Y-49575812D01*
X41694180Y-49539502D01*
X41804494Y-49480537D01*
X41901185Y-49401185D01*
X41980537Y-49304494D01*
X42039502Y-49194180D01*
X42075812Y-49074482D01*
X42088072Y-48950000D01*
X42088072Y-48558665D01*
X48565000Y-48558665D01*
X48565000Y-48841335D01*
X48620147Y-49118574D01*
X48728320Y-49379727D01*
X48885363Y-49614759D01*
X49085241Y-49814637D01*
X49320273Y-49971680D01*
X49581426Y-50079853D01*
X49858665Y-50135000D01*
X50141335Y-50135000D01*
X50418574Y-50079853D01*
X50679727Y-49971680D01*
X50914759Y-49814637D01*
X51114637Y-49614759D01*
X51271680Y-49379727D01*
X51379853Y-49118574D01*
X51435000Y-48841335D01*
X51435000Y-48558665D01*
X51379853Y-48281426D01*
X51271680Y-48020273D01*
X51114637Y-47785241D01*
X50914759Y-47585363D01*
X50679727Y-47428320D01*
X50418574Y-47320147D01*
X50141335Y-47265000D01*
X49858665Y-47265000D01*
X49581426Y-47320147D01*
X49320273Y-47428320D01*
X49085241Y-47585363D01*
X48885363Y-47785241D01*
X48728320Y-48020273D01*
X48620147Y-48281426D01*
X48565000Y-48558665D01*
X42088072Y-48558665D01*
X42088072Y-46450000D01*
X42075812Y-46325518D01*
X42039502Y-46205820D01*
X41980537Y-46095506D01*
X41901185Y-45998815D01*
X41804494Y-45919463D01*
X41694180Y-45860498D01*
X41574482Y-45824188D01*
X41450000Y-45811928D01*
X38950000Y-45811928D01*
X38825518Y-45824188D01*
X38705820Y-45860498D01*
X38595506Y-45919463D01*
X38498815Y-45998815D01*
X38419463Y-46095506D01*
X38360498Y-46205820D01*
X38324188Y-46325518D01*
X38311928Y-46450000D01*
X33827000Y-46450000D01*
X33827000Y-45227000D01*
X88840001Y-45227000D01*
X88840000Y-95467721D01*
%TD*%
M02*
