%TF.GenerationSoftware,KiCad,Pcbnew,(5.1.6)-1*%
%TF.CreationDate,2020-09-03T17:42:13-04:00*%
%TF.ProjectId,GalvoDriver,47616c76-6f44-4726-9976-65722e6b6963,rev?*%
%TF.SameCoordinates,Original*%
%TF.FileFunction,Copper,L1,Top*%
%TF.FilePolarity,Positive*%
%FSLAX46Y46*%
G04 Gerber Fmt 4.6, Leading zero omitted, Abs format (unit mm)*
G04 Created by KiCad (PCBNEW (5.1.6)-1) date 2020-09-03 17:42:13*
%MOMM*%
%LPD*%
G01*
G04 APERTURE LIST*
%TA.AperFunction,ComponentPad*%
%ADD10C,1.600000*%
%TD*%
%TA.AperFunction,ComponentPad*%
%ADD11O,1.600000X1.600000*%
%TD*%
%TA.AperFunction,ComponentPad*%
%ADD12C,1.440000*%
%TD*%
%TA.AperFunction,ComponentPad*%
%ADD13R,1.600000X1.600000*%
%TD*%
%TA.AperFunction,ComponentPad*%
%ADD14R,1.700000X1.700000*%
%TD*%
%TA.AperFunction,ComponentPad*%
%ADD15O,1.700000X1.700000*%
%TD*%
%TA.AperFunction,ComponentPad*%
%ADD16O,1.800000X2.800000*%
%TD*%
%TA.AperFunction,ComponentPad*%
%ADD17C,1.750000*%
%TD*%
%TA.AperFunction,ComponentPad*%
%ADD18R,1.750000X1.750000*%
%TD*%
%TA.AperFunction,ComponentPad*%
%ADD19C,2.500000*%
%TD*%
%TA.AperFunction,ComponentPad*%
%ADD20R,2.500000X2.500000*%
%TD*%
%TA.AperFunction,ComponentPad*%
%ADD21R,1.520000X1.520000*%
%TD*%
%TA.AperFunction,ComponentPad*%
%ADD22C,1.520000*%
%TD*%
%TA.AperFunction,ViaPad*%
%ADD23C,0.800000*%
%TD*%
%TA.AperFunction,Conductor*%
%ADD24C,0.250000*%
%TD*%
%TA.AperFunction,Conductor*%
%ADD25C,0.400000*%
%TD*%
%TA.AperFunction,Conductor*%
%ADD26C,0.254000*%
%TD*%
G04 APERTURE END LIST*
D10*
%TO.P,C1,1*%
%TO.N,VDD*%
X61000000Y-88500000D03*
%TO.P,C1,2*%
%TO.N,GND*%
X61000000Y-91000000D03*
%TD*%
D11*
%TO.P,R1,2*%
%TO.N,Net-(R1-Pad2)*%
X74160000Y-59500000D03*
D10*
%TO.P,R1,1*%
%TO.N,A_ILDA+*%
X64000000Y-59500000D03*
%TD*%
%TO.P,R2,1*%
%TO.N,Net-(J4-Pad1)*%
X61500000Y-55000000D03*
D11*
%TO.P,R2,2*%
%TO.N,DAC_A*%
X61500000Y-65160000D03*
%TD*%
D10*
%TO.P,R3,1*%
%TO.N,Net-(R1-Pad2)*%
X74000000Y-56500000D03*
D11*
%TO.P,R3,2*%
%TO.N,A_ILDA-*%
X63840000Y-56500000D03*
%TD*%
%TO.P,R4,2*%
%TO.N,+VIN*%
X77000000Y-66160000D03*
D10*
%TO.P,R4,1*%
%TO.N,Net-(R4-Pad1)*%
X77000000Y-56000000D03*
%TD*%
D11*
%TO.P,R5,2*%
%TO.N,Net-(R5-Pad2)*%
X74160000Y-87000000D03*
D10*
%TO.P,R5,1*%
%TO.N,B_ILDA+*%
X64000000Y-87000000D03*
%TD*%
%TO.P,R6,1*%
%TO.N,Net-(J5-Pad1)*%
X61500000Y-68500000D03*
D11*
%TO.P,R6,2*%
%TO.N,DAC_B*%
X61500000Y-78660000D03*
%TD*%
D10*
%TO.P,R7,1*%
%TO.N,Net-(R5-Pad2)*%
X74000000Y-84000000D03*
D11*
%TO.P,R7,2*%
%TO.N,B_ILDA-*%
X63840000Y-84000000D03*
%TD*%
%TO.P,R8,2*%
%TO.N,+VIN*%
X77000000Y-76840000D03*
D10*
%TO.P,R8,1*%
%TO.N,Net-(R8-Pad1)*%
X77000000Y-87000000D03*
%TD*%
D12*
%TO.P,RV1,3*%
%TO.N,Net-(RV1-Pad3)*%
X65420000Y-50500000D03*
%TO.P,RV1,2*%
%TO.N,A_ILDA-*%
X67960000Y-50500000D03*
%TO.P,RV1,1*%
%TO.N,Net-(J4-Pad2)*%
X70500000Y-50500000D03*
%TD*%
%TO.P,RV2,1*%
%TO.N,Net-(R4-Pad1)*%
X80500000Y-50500000D03*
%TO.P,RV2,2*%
%TO.N,Net-(RV2-Pad2)*%
X77960000Y-50500000D03*
%TO.P,RV2,3*%
%TO.N,GND*%
X75420000Y-50500000D03*
%TD*%
%TO.P,RV3,1*%
%TO.N,Net-(J5-Pad2)*%
X70500000Y-93000000D03*
%TO.P,RV3,2*%
%TO.N,B_ILDA-*%
X67960000Y-93000000D03*
%TO.P,RV3,3*%
%TO.N,Net-(RV3-Pad3)*%
X65420000Y-93000000D03*
%TD*%
%TO.P,RV4,3*%
%TO.N,GND*%
X75420000Y-93000000D03*
%TO.P,RV4,2*%
%TO.N,Net-(RV4-Pad2)*%
X77960000Y-93000000D03*
%TO.P,RV4,1*%
%TO.N,Net-(R8-Pad1)*%
X80500000Y-93000000D03*
%TD*%
D11*
%TO.P,U1,8*%
%TO.N,+VIN*%
X65000000Y-62380000D03*
%TO.P,U1,4*%
%TO.N,-VIN*%
X72620000Y-70000000D03*
%TO.P,U1,7*%
%TO.N,A_ILDA+*%
X67540000Y-62380000D03*
%TO.P,U1,3*%
%TO.N,Net-(RV2-Pad2)*%
X70080000Y-70000000D03*
%TO.P,U1,6*%
%TO.N,Net-(R1-Pad2)*%
X70080000Y-62380000D03*
%TO.P,U1,2*%
%TO.N,Net-(J4-Pad2)*%
X67540000Y-70000000D03*
%TO.P,U1,5*%
%TO.N,GND*%
X72620000Y-62380000D03*
D13*
%TO.P,U1,1*%
%TO.N,A_ILDA-*%
X65000000Y-70000000D03*
%TD*%
D11*
%TO.P,U2,8*%
%TO.N,DAC_A*%
X57500000Y-93620000D03*
%TO.P,U2,4*%
%TO.N,MOSI*%
X49880000Y-86000000D03*
%TO.P,U2,7*%
%TO.N,GND*%
X54960000Y-93620000D03*
%TO.P,U2,3*%
%TO.N,CLK*%
X52420000Y-86000000D03*
%TO.P,U2,6*%
%TO.N,DAC_B*%
X52420000Y-93620000D03*
%TO.P,U2,2*%
%TO.N,GND*%
X54960000Y-86000000D03*
%TO.P,U2,5*%
X49880000Y-93620000D03*
D13*
%TO.P,U2,1*%
%TO.N,VDD*%
X57500000Y-86000000D03*
%TD*%
%TO.P,U3,1*%
%TO.N,B_ILDA-*%
X65000000Y-81000000D03*
D11*
%TO.P,U3,5*%
%TO.N,GND*%
X72620000Y-73380000D03*
%TO.P,U3,2*%
%TO.N,Net-(J5-Pad2)*%
X67540000Y-81000000D03*
%TO.P,U3,6*%
%TO.N,Net-(R5-Pad2)*%
X70080000Y-73380000D03*
%TO.P,U3,3*%
%TO.N,Net-(RV4-Pad2)*%
X70080000Y-81000000D03*
%TO.P,U3,7*%
%TO.N,B_ILDA+*%
X67540000Y-73380000D03*
%TO.P,U3,4*%
%TO.N,-VIN*%
X72620000Y-81000000D03*
%TO.P,U3,8*%
%TO.N,+VIN*%
X65000000Y-73380000D03*
%TD*%
D14*
%TO.P,J4,1*%
%TO.N,Net-(J4-Pad1)*%
X58000000Y-59000000D03*
D15*
%TO.P,J4,2*%
%TO.N,Net-(J4-Pad2)*%
X55460000Y-59000000D03*
%TO.P,J4,3*%
%TO.N,Net-(J4-Pad3)*%
X52920000Y-59000000D03*
%TD*%
%TO.P,J5,3*%
%TO.N,Net-(J5-Pad3)*%
X52460000Y-74500000D03*
%TO.P,J5,2*%
%TO.N,Net-(J5-Pad2)*%
X55000000Y-74500000D03*
D14*
%TO.P,J5,1*%
%TO.N,Net-(J5-Pad1)*%
X57540000Y-74500000D03*
%TD*%
D16*
%TO.P,J6,S*%
%TO.N,GND*%
X38500000Y-65200000D03*
%TO.P,J6,T*%
%TO.N,AUDIO_L*%
X40900000Y-63200000D03*
%TO.P,J6,R*%
%TO.N,AUDIO_R*%
X46400000Y-63200000D03*
%TD*%
D11*
%TO.P,R9,2*%
%TO.N,AUDIO_L*%
X50000000Y-58860000D03*
D10*
%TO.P,R9,1*%
%TO.N,Net-(J4-Pad3)*%
X50000000Y-48700000D03*
%TD*%
%TO.P,R10,1*%
%TO.N,Net-(J5-Pad3)*%
X49500000Y-83000000D03*
D11*
%TO.P,R10,2*%
%TO.N,AUDIO_R*%
X49500000Y-72840000D03*
%TD*%
D17*
%TO.P,J2,3*%
%TO.N,A_ILDA-*%
X85500000Y-64000000D03*
%TO.P,J2,2*%
%TO.N,GND*%
X85500000Y-61500000D03*
D18*
%TO.P,J2,1*%
%TO.N,A_ILDA+*%
X85500000Y-59000000D03*
%TD*%
%TO.P,J7,1*%
%TO.N,B_ILDA+*%
X85500000Y-80000000D03*
D17*
%TO.P,J7,2*%
%TO.N,GND*%
X85500000Y-82500000D03*
%TO.P,J7,3*%
%TO.N,B_ILDA-*%
X85500000Y-85000000D03*
%TD*%
D19*
%TO.P,J1,2*%
%TO.N,GND*%
X40200000Y-52700000D03*
D20*
%TO.P,J1,1*%
%TO.N,+VIN*%
X40200000Y-47700000D03*
D19*
%TO.P,J1,3*%
%TO.N,-VIN*%
X40200000Y-57700000D03*
%TD*%
%TO.P,J8,2*%
%TO.N,VSS*%
X75200000Y-40100000D03*
D20*
%TO.P,J8,1*%
%TO.N,Net-(J8-Pad1)*%
X80200000Y-40100000D03*
D19*
%TO.P,J8,3*%
%TO.N,GND*%
X70200000Y-40100000D03*
%TO.P,J8,4*%
%TO.N,VSS*%
X65200000Y-40100000D03*
%TD*%
D11*
%TO.P,R11,2*%
%TO.N,LASER*%
X43140000Y-42900000D03*
D10*
%TO.P,R11,1*%
%TO.N,Net-(Q1-Pad2)*%
X53300000Y-42900000D03*
%TD*%
D15*
%TO.P,J3,5*%
%TO.N,GND*%
X35400000Y-86760000D03*
%TO.P,J3,4*%
%TO.N,LASER*%
X35400000Y-84220000D03*
%TO.P,J3,3*%
%TO.N,Net-(J3-Pad3)*%
X35400000Y-81680000D03*
%TO.P,J3,2*%
%TO.N,Net-(J3-Pad2)*%
X35400000Y-79140000D03*
D14*
%TO.P,J3,1*%
%TO.N,VDD*%
X35400000Y-76600000D03*
%TD*%
D21*
%TO.P,Q1,1*%
%TO.N,GND*%
X56000000Y-42800000D03*
D22*
%TO.P,Q1,3*%
%TO.N,Net-(J8-Pad1)*%
X61080000Y-42800000D03*
%TO.P,Q1,2*%
%TO.N,Net-(Q1-Pad2)*%
X58540000Y-42800000D03*
%TD*%
D11*
%TO.P,U4,14*%
%TO.N,VDD*%
X46520000Y-71500000D03*
%TO.P,U4,7*%
%TO.N,GND*%
X38900000Y-86740000D03*
%TO.P,U4,13*%
%TO.N,VDD*%
X46520000Y-74040000D03*
%TO.P,U4,6*%
%TO.N,MOSI*%
X38900000Y-84200000D03*
%TO.P,U4,12*%
%TO.N,GND*%
X46520000Y-76580000D03*
%TO.P,U4,5*%
%TO.N,Net-(J3-Pad3)*%
X38900000Y-81660000D03*
%TO.P,U4,11*%
%TO.N,Net-(U4-Pad11)*%
X46520000Y-79120000D03*
%TO.P,U4,4*%
%TO.N,GND*%
X38900000Y-79120000D03*
%TO.P,U4,10*%
%TO.N,VDD*%
X46520000Y-81660000D03*
%TO.P,U4,3*%
%TO.N,CLK*%
X38900000Y-76580000D03*
%TO.P,U4,9*%
%TO.N,GND*%
X46520000Y-84200000D03*
%TO.P,U4,2*%
%TO.N,Net-(J3-Pad2)*%
X38900000Y-74040000D03*
%TO.P,U4,8*%
%TO.N,Net-(U4-Pad8)*%
X46520000Y-86740000D03*
D13*
%TO.P,U4,1*%
%TO.N,GND*%
X38900000Y-71500000D03*
%TD*%
D10*
%TO.P,C2,2*%
%TO.N,GND*%
X54900000Y-71200000D03*
%TO.P,C2,1*%
%TO.N,VDD*%
X52400000Y-71200000D03*
%TD*%
D23*
%TO.N,Net-(RV2-Pad2)*%
X75000000Y-63000000D03*
X75000000Y-65500000D03*
%TO.N,Net-(J4-Pad2)*%
X64500000Y-64500000D03*
X61500000Y-62000000D03*
%TO.N,DAC_B*%
X58000000Y-88000000D03*
X61000000Y-85000000D03*
%TD*%
D24*
%TO.N,B_ILDA+*%
X66414999Y-74505001D02*
X67540000Y-73380000D01*
X66414999Y-84585001D02*
X66414999Y-74505001D01*
X64000000Y-87000000D02*
X66414999Y-84585001D01*
X68665001Y-72254999D02*
X74754999Y-72254999D01*
X67540000Y-73380000D02*
X68665001Y-72254999D01*
X82500000Y-80000000D02*
X85500000Y-80000000D01*
X74754999Y-72254999D02*
X82500000Y-80000000D01*
%TO.N,A_ILDA-*%
X63840000Y-56500000D02*
X63840000Y-54160000D01*
X67500000Y-50500000D02*
X67960000Y-50500000D01*
X63840000Y-54160000D02*
X67500000Y-50500000D01*
X62874999Y-57465001D02*
X62874999Y-67874999D01*
X62874999Y-67874999D02*
X65000000Y-70000000D01*
X63840000Y-56500000D02*
X62874999Y-57465001D01*
X78374999Y-71125001D02*
X85500000Y-64000000D01*
X66125001Y-71125001D02*
X78374999Y-71125001D01*
X65000000Y-70000000D02*
X66125001Y-71125001D01*
%TO.N,A_ILDA+*%
X66880000Y-62380000D02*
X67540000Y-62380000D01*
X64000000Y-59500000D02*
X66880000Y-62380000D01*
X80774999Y-63725001D02*
X85500000Y-59000000D01*
X68885001Y-63725001D02*
X80774999Y-63725001D01*
X67540000Y-62380000D02*
X68885001Y-63725001D01*
%TO.N,B_ILDA-*%
X62874999Y-84965001D02*
X62874999Y-87914999D01*
X62874999Y-87914999D02*
X67960000Y-93000000D01*
X63840000Y-84000000D02*
X62874999Y-84965001D01*
X63840000Y-82160000D02*
X65000000Y-81000000D01*
X63840000Y-84000000D02*
X63840000Y-82160000D01*
X85500000Y-89546602D02*
X85500000Y-85000000D01*
X69005001Y-94045001D02*
X81001601Y-94045001D01*
X81001601Y-94045001D02*
X85500000Y-89546602D01*
X67960000Y-93000000D02*
X69005001Y-94045001D01*
%TO.N,Net-(J3-Pad3)*%
X38880000Y-81680000D02*
X38900000Y-81660000D01*
X35400000Y-81680000D02*
X38880000Y-81680000D01*
%TO.N,Net-(J3-Pad2)*%
X35400000Y-79140000D02*
X36260000Y-79140000D01*
X36260000Y-79140000D02*
X37200000Y-78200000D01*
X37200000Y-75740000D02*
X38900000Y-74040000D01*
X37200000Y-78200000D02*
X37200000Y-75740000D01*
%TO.N,VDD*%
X58500000Y-86000000D02*
X61000000Y-88500000D01*
X57500000Y-86000000D02*
X58500000Y-86000000D01*
X45394999Y-70374999D02*
X46520000Y-71500000D01*
X37839999Y-70374999D02*
X45394999Y-70374999D01*
X35400000Y-72814998D02*
X37839999Y-70374999D01*
X35400000Y-76600000D02*
X35400000Y-72814998D01*
X46520000Y-71500000D02*
X46520000Y-74040000D01*
X45394999Y-80534999D02*
X46520000Y-81660000D01*
X45394999Y-75165001D02*
X45394999Y-80534999D01*
X46520000Y-74040000D02*
X45394999Y-75165001D01*
X53160000Y-81660000D02*
X46520000Y-81660000D01*
X57500000Y-86000000D02*
X53160000Y-81660000D01*
%TO.N,Net-(R1-Pad2)*%
X72960000Y-59500000D02*
X74160000Y-59500000D01*
X70080000Y-62380000D02*
X72960000Y-59500000D01*
X74160000Y-56660000D02*
X74000000Y-56500000D01*
X74160000Y-59500000D02*
X74160000Y-56660000D01*
%TO.N,Net-(R4-Pad1)*%
X80500000Y-52500000D02*
X77000000Y-56000000D01*
X80500000Y-50500000D02*
X80500000Y-52500000D01*
%TO.N,Net-(R5-Pad2)*%
X74160000Y-84160000D02*
X74000000Y-84000000D01*
X74160000Y-87000000D02*
X74160000Y-84160000D01*
X71494999Y-74794999D02*
X70080000Y-73380000D01*
X71494999Y-81494999D02*
X71494999Y-74794999D01*
X74000000Y-84000000D02*
X71494999Y-81494999D01*
%TO.N,Net-(R8-Pad1)*%
X80500000Y-90500000D02*
X77000000Y-87000000D01*
X80500000Y-93000000D02*
X80500000Y-90500000D01*
%TO.N,Net-(RV2-Pad2)*%
X75874999Y-62125001D02*
X75000000Y-63000000D01*
X77960000Y-50500000D02*
X75874999Y-52585001D01*
X75874999Y-52585001D02*
X75874999Y-62125001D01*
X70500000Y-70000000D02*
X70080000Y-70000000D01*
X75000000Y-65500000D02*
X70500000Y-70000000D01*
%TO.N,Net-(RV4-Pad2)*%
X70950010Y-81870010D02*
X70080000Y-81000000D01*
X70950010Y-85990010D02*
X70950010Y-81870010D01*
X77960000Y-93000000D02*
X70950010Y-85990010D01*
%TO.N,AUDIO_R*%
X46400000Y-63200000D02*
X46400000Y-64000000D01*
X49500000Y-67100000D02*
X49500000Y-72840000D01*
X46400000Y-64000000D02*
X49500000Y-67100000D01*
%TO.N,AUDIO_L*%
X40900000Y-63200000D02*
X43400000Y-63200000D01*
X47740000Y-58860000D02*
X50000000Y-58860000D01*
X43400000Y-63200000D02*
X47740000Y-58860000D01*
%TO.N,Net-(J4-Pad1)*%
X58000000Y-58500000D02*
X61500000Y-55000000D01*
X58000000Y-59000000D02*
X58000000Y-58500000D01*
%TO.N,Net-(J4-Pad2)*%
X69454999Y-49454999D02*
X70500000Y-50500000D01*
X63802920Y-49454999D02*
X69454999Y-49454999D01*
X55460000Y-57797919D02*
X63802920Y-49454999D01*
X55460000Y-59000000D02*
X55460000Y-57797919D01*
X67540000Y-70000000D02*
X67540000Y-67540000D01*
X67540000Y-67540000D02*
X64500000Y-64500000D01*
X58460000Y-62000000D02*
X55460000Y-59000000D01*
X61500000Y-62000000D02*
X58460000Y-62000000D01*
%TO.N,Net-(J4-Pad3)*%
X50000000Y-48700000D02*
X51800000Y-50500000D01*
X51800000Y-57880000D02*
X52920000Y-59000000D01*
X51800000Y-50500000D02*
X51800000Y-57880000D01*
%TO.N,Net-(J5-Pad2)*%
X70500000Y-83960000D02*
X67540000Y-81000000D01*
X70500000Y-93000000D02*
X70500000Y-83960000D01*
%TO.N,Net-(J5-Pad1)*%
X61500000Y-70540000D02*
X57540000Y-74500000D01*
X61500000Y-68500000D02*
X61500000Y-70540000D01*
%TO.N,DAC_A*%
X60045002Y-93620000D02*
X57500000Y-93620000D01*
X62125001Y-91540001D02*
X60045002Y-93620000D01*
X62125001Y-87959999D02*
X62125001Y-91540001D01*
X56364999Y-82199997D02*
X62125001Y-87959999D01*
X56364999Y-70295001D02*
X56364999Y-82199997D01*
X61500000Y-65160000D02*
X56364999Y-70295001D01*
%TO.N,DAC_B*%
X52420000Y-93620000D02*
X58000000Y-88040000D01*
X58000000Y-88040000D02*
X58000000Y-88000000D01*
X61500000Y-84500000D02*
X61500000Y-78660000D01*
X61000000Y-85000000D02*
X61500000Y-84500000D01*
D25*
%TO.N,VSS*%
X75200000Y-40100000D02*
X71900000Y-36800000D01*
X71900000Y-36800000D02*
X68500000Y-36800000D01*
X68500000Y-36800000D02*
X65200000Y-40100000D01*
D24*
%TO.N,Net-(Q1-Pad2)*%
X57454999Y-43885001D02*
X58540000Y-42800000D01*
X54285001Y-43885001D02*
X57454999Y-43885001D01*
X53300000Y-42900000D02*
X54285001Y-43885001D01*
%TO.N,Net-(J8-Pad1)*%
X77500000Y-42800000D02*
X61080000Y-42800000D01*
X80200000Y-40100000D02*
X77500000Y-42800000D01*
%TO.N,MOSI*%
X40314999Y-85614999D02*
X38900000Y-84200000D01*
X49494999Y-85614999D02*
X40314999Y-85614999D01*
X49880000Y-86000000D02*
X49494999Y-85614999D01*
%TO.N,CLK*%
X51294999Y-84874999D02*
X52420000Y-86000000D01*
X49709997Y-84874999D02*
X51294999Y-84874999D01*
X47619999Y-82785001D02*
X49709997Y-84874999D01*
X45105001Y-82785001D02*
X47619999Y-82785001D01*
X38900000Y-76580000D02*
X45105001Y-82785001D01*
%TD*%
D26*
%TO.N,GND*%
G36*
X83893425Y-35842907D02*
G01*
X83540270Y-36371442D01*
X83297012Y-36958719D01*
X83173000Y-37582168D01*
X83173000Y-38217832D01*
X83297012Y-38841281D01*
X83540270Y-39428558D01*
X83893425Y-39957093D01*
X84342907Y-40406575D01*
X84871442Y-40759730D01*
X85458719Y-41002988D01*
X86082168Y-41127000D01*
X86717832Y-41127000D01*
X87341281Y-41002988D01*
X87928558Y-40759730D01*
X88457093Y-40406575D01*
X88840001Y-40023667D01*
X88840000Y-95467721D01*
X88830420Y-95565424D01*
X88811420Y-95628357D01*
X88780554Y-95686406D01*
X88739011Y-95737343D01*
X88688356Y-95779248D01*
X88630529Y-95810515D01*
X88567728Y-95829956D01*
X88472165Y-95840000D01*
X38223668Y-95840000D01*
X38606575Y-95457093D01*
X38959730Y-94928558D01*
X39202988Y-94341281D01*
X39297294Y-93867172D01*
X48466446Y-93867172D01*
X48541828Y-94138193D01*
X48668635Y-94389300D01*
X48841994Y-94610844D01*
X49055243Y-94794310D01*
X49300187Y-94932648D01*
X49567413Y-95020542D01*
X49632828Y-95033553D01*
X49857000Y-94896043D01*
X49857000Y-93643000D01*
X48603933Y-93643000D01*
X48466446Y-93867172D01*
X39297294Y-93867172D01*
X39327000Y-93717832D01*
X39327000Y-93372828D01*
X48466446Y-93372828D01*
X48603933Y-93597000D01*
X49857000Y-93597000D01*
X49857000Y-92343957D01*
X49632828Y-92206447D01*
X49567413Y-92219458D01*
X49300187Y-92307352D01*
X49055243Y-92445690D01*
X48841994Y-92629156D01*
X48668635Y-92850700D01*
X48541828Y-93101807D01*
X48466446Y-93372828D01*
X39327000Y-93372828D01*
X39327000Y-93082168D01*
X39202988Y-92458719D01*
X38959730Y-91871442D01*
X38606575Y-91342907D01*
X38157093Y-90893425D01*
X37628558Y-90540270D01*
X37041281Y-90297012D01*
X36417832Y-90173000D01*
X35782168Y-90173000D01*
X35158719Y-90297012D01*
X34571442Y-90540270D01*
X34042907Y-90893425D01*
X33827000Y-91109332D01*
X33827000Y-87014994D01*
X33937057Y-87014994D01*
X33950833Y-87084259D01*
X34041938Y-87360747D01*
X34185233Y-87614149D01*
X34375211Y-87834726D01*
X34604571Y-88014002D01*
X34864499Y-88145087D01*
X35145006Y-88222944D01*
X35377000Y-88086073D01*
X35377000Y-86783000D01*
X35423000Y-86783000D01*
X35423000Y-88086073D01*
X35654994Y-88222944D01*
X35935501Y-88145087D01*
X36195429Y-88014002D01*
X36424789Y-87834726D01*
X36614767Y-87614149D01*
X36758062Y-87360747D01*
X36849167Y-87084259D01*
X36862943Y-87014994D01*
X36846527Y-86987172D01*
X37486447Y-86987172D01*
X37499458Y-87052587D01*
X37587352Y-87319813D01*
X37725690Y-87564757D01*
X37909156Y-87778006D01*
X38130700Y-87951365D01*
X38381807Y-88078172D01*
X38652828Y-88153554D01*
X38877000Y-88016067D01*
X38877000Y-86763000D01*
X38923000Y-86763000D01*
X38923000Y-88016067D01*
X39147172Y-88153554D01*
X39418193Y-88078172D01*
X39669300Y-87951365D01*
X39890844Y-87778006D01*
X40074310Y-87564757D01*
X40212648Y-87319813D01*
X40300542Y-87052587D01*
X40313553Y-86987172D01*
X40176043Y-86763000D01*
X38923000Y-86763000D01*
X38877000Y-86763000D01*
X37623957Y-86763000D01*
X37486447Y-86987172D01*
X36846527Y-86987172D01*
X36726051Y-86783000D01*
X35423000Y-86783000D01*
X35377000Y-86783000D01*
X34073949Y-86783000D01*
X33937057Y-87014994D01*
X33827000Y-87014994D01*
X33827000Y-75750000D01*
X33911928Y-75750000D01*
X33911928Y-77450000D01*
X33924188Y-77574482D01*
X33960498Y-77694180D01*
X34019463Y-77804494D01*
X34098815Y-77901185D01*
X34195506Y-77980537D01*
X34305820Y-78039502D01*
X34378380Y-78061513D01*
X34246525Y-78193368D01*
X34084010Y-78436589D01*
X33972068Y-78706842D01*
X33915000Y-78993740D01*
X33915000Y-79286260D01*
X33972068Y-79573158D01*
X34084010Y-79843411D01*
X34246525Y-80086632D01*
X34453368Y-80293475D01*
X34627760Y-80410000D01*
X34453368Y-80526525D01*
X34246525Y-80733368D01*
X34084010Y-80976589D01*
X33972068Y-81246842D01*
X33915000Y-81533740D01*
X33915000Y-81826260D01*
X33972068Y-82113158D01*
X34084010Y-82383411D01*
X34246525Y-82626632D01*
X34453368Y-82833475D01*
X34627760Y-82950000D01*
X34453368Y-83066525D01*
X34246525Y-83273368D01*
X34084010Y-83516589D01*
X33972068Y-83786842D01*
X33915000Y-84073740D01*
X33915000Y-84366260D01*
X33972068Y-84653158D01*
X34084010Y-84923411D01*
X34246525Y-85166632D01*
X34453368Y-85373475D01*
X34631430Y-85492452D01*
X34604571Y-85505998D01*
X34375211Y-85685274D01*
X34185233Y-85905851D01*
X34041938Y-86159253D01*
X33950833Y-86435741D01*
X33937057Y-86505006D01*
X34073949Y-86737000D01*
X35377000Y-86737000D01*
X35377000Y-86717000D01*
X35423000Y-86717000D01*
X35423000Y-86737000D01*
X36726051Y-86737000D01*
X36862943Y-86505006D01*
X36849167Y-86435741D01*
X36758062Y-86159253D01*
X36614767Y-85905851D01*
X36424789Y-85685274D01*
X36195429Y-85505998D01*
X36168570Y-85492452D01*
X36346632Y-85373475D01*
X36553475Y-85166632D01*
X36715990Y-84923411D01*
X36827932Y-84653158D01*
X36885000Y-84366260D01*
X36885000Y-84073740D01*
X36827932Y-83786842D01*
X36715990Y-83516589D01*
X36553475Y-83273368D01*
X36346632Y-83066525D01*
X36172240Y-82950000D01*
X36346632Y-82833475D01*
X36553475Y-82626632D01*
X36678178Y-82440000D01*
X37695320Y-82440000D01*
X37785363Y-82574759D01*
X37985241Y-82774637D01*
X38217759Y-82930000D01*
X37985241Y-83085363D01*
X37785363Y-83285241D01*
X37628320Y-83520273D01*
X37520147Y-83781426D01*
X37465000Y-84058665D01*
X37465000Y-84341335D01*
X37520147Y-84618574D01*
X37628320Y-84879727D01*
X37785363Y-85114759D01*
X37985241Y-85314637D01*
X38220273Y-85471680D01*
X38233025Y-85476962D01*
X38130700Y-85528635D01*
X37909156Y-85701994D01*
X37725690Y-85915243D01*
X37587352Y-86160187D01*
X37499458Y-86427413D01*
X37486447Y-86492828D01*
X37623957Y-86717000D01*
X38877000Y-86717000D01*
X38877000Y-86697000D01*
X38923000Y-86697000D01*
X38923000Y-86717000D01*
X40176043Y-86717000D01*
X40313553Y-86492828D01*
X40300542Y-86427413D01*
X40283491Y-86375572D01*
X40314999Y-86378675D01*
X40352324Y-86374999D01*
X45129491Y-86374999D01*
X45085000Y-86598665D01*
X45085000Y-86881335D01*
X45140147Y-87158574D01*
X45248320Y-87419727D01*
X45405363Y-87654759D01*
X45605241Y-87854637D01*
X45840273Y-88011680D01*
X46101426Y-88119853D01*
X46378665Y-88175000D01*
X46661335Y-88175000D01*
X46938574Y-88119853D01*
X47199727Y-88011680D01*
X47434759Y-87854637D01*
X47634637Y-87654759D01*
X47791680Y-87419727D01*
X47899853Y-87158574D01*
X47955000Y-86881335D01*
X47955000Y-86598665D01*
X47910509Y-86374999D01*
X48491479Y-86374999D01*
X48500147Y-86418574D01*
X48608320Y-86679727D01*
X48765363Y-86914759D01*
X48965241Y-87114637D01*
X49200273Y-87271680D01*
X49461426Y-87379853D01*
X49738665Y-87435000D01*
X50021335Y-87435000D01*
X50298574Y-87379853D01*
X50559727Y-87271680D01*
X50794759Y-87114637D01*
X50994637Y-86914759D01*
X51150000Y-86682241D01*
X51305363Y-86914759D01*
X51505241Y-87114637D01*
X51740273Y-87271680D01*
X52001426Y-87379853D01*
X52278665Y-87435000D01*
X52561335Y-87435000D01*
X52838574Y-87379853D01*
X53099727Y-87271680D01*
X53334759Y-87114637D01*
X53534637Y-86914759D01*
X53691680Y-86679727D01*
X53696962Y-86666975D01*
X53748635Y-86769300D01*
X53921994Y-86990844D01*
X54135243Y-87174310D01*
X54380187Y-87312648D01*
X54647413Y-87400542D01*
X54712828Y-87413553D01*
X54937000Y-87276043D01*
X54937000Y-86023000D01*
X54917000Y-86023000D01*
X54917000Y-85977000D01*
X54937000Y-85977000D01*
X54937000Y-84723957D01*
X54712828Y-84586447D01*
X54647413Y-84599458D01*
X54380187Y-84687352D01*
X54135243Y-84825690D01*
X53921994Y-85009156D01*
X53748635Y-85230700D01*
X53696962Y-85333025D01*
X53691680Y-85320273D01*
X53534637Y-85085241D01*
X53334759Y-84885363D01*
X53099727Y-84728320D01*
X52838574Y-84620147D01*
X52561335Y-84565000D01*
X52278665Y-84565000D01*
X52096113Y-84601312D01*
X51858803Y-84364001D01*
X51835000Y-84334998D01*
X51719275Y-84240025D01*
X51587246Y-84169453D01*
X51443985Y-84125996D01*
X51332332Y-84114999D01*
X51332321Y-84114999D01*
X51294999Y-84111323D01*
X51257677Y-84114999D01*
X50414217Y-84114999D01*
X50414759Y-84114637D01*
X50614637Y-83914759D01*
X50771680Y-83679727D01*
X50879853Y-83418574D01*
X50935000Y-83141335D01*
X50935000Y-82858665D01*
X50879853Y-82581426D01*
X50812988Y-82420000D01*
X52845199Y-82420000D01*
X55085984Y-84660785D01*
X54983000Y-84723957D01*
X54983000Y-85977000D01*
X55003000Y-85977000D01*
X55003000Y-86023000D01*
X54983000Y-86023000D01*
X54983000Y-87276043D01*
X55207172Y-87413553D01*
X55272587Y-87400542D01*
X55539813Y-87312648D01*
X55784757Y-87174310D01*
X55998006Y-86990844D01*
X56071477Y-86896952D01*
X56074188Y-86924482D01*
X56110498Y-87044180D01*
X56169463Y-87154494D01*
X56248815Y-87251185D01*
X56345506Y-87330537D01*
X56455820Y-87389502D01*
X56575518Y-87425812D01*
X56700000Y-87438072D01*
X57130685Y-87438072D01*
X57082795Y-87509744D01*
X57004774Y-87698102D01*
X56965000Y-87898061D01*
X56965000Y-88000198D01*
X52743887Y-92221312D01*
X52561335Y-92185000D01*
X52278665Y-92185000D01*
X52001426Y-92240147D01*
X51740273Y-92348320D01*
X51505241Y-92505363D01*
X51305363Y-92705241D01*
X51148320Y-92940273D01*
X51143038Y-92953025D01*
X51091365Y-92850700D01*
X50918006Y-92629156D01*
X50704757Y-92445690D01*
X50459813Y-92307352D01*
X50192587Y-92219458D01*
X50127172Y-92206447D01*
X49903000Y-92343957D01*
X49903000Y-93597000D01*
X49923000Y-93597000D01*
X49923000Y-93643000D01*
X49903000Y-93643000D01*
X49903000Y-94896043D01*
X50127172Y-95033553D01*
X50192587Y-95020542D01*
X50459813Y-94932648D01*
X50704757Y-94794310D01*
X50918006Y-94610844D01*
X51091365Y-94389300D01*
X51143038Y-94286975D01*
X51148320Y-94299727D01*
X51305363Y-94534759D01*
X51505241Y-94734637D01*
X51740273Y-94891680D01*
X52001426Y-94999853D01*
X52278665Y-95055000D01*
X52561335Y-95055000D01*
X52838574Y-94999853D01*
X53099727Y-94891680D01*
X53334759Y-94734637D01*
X53534637Y-94534759D01*
X53691680Y-94299727D01*
X53696962Y-94286975D01*
X53748635Y-94389300D01*
X53921994Y-94610844D01*
X54135243Y-94794310D01*
X54380187Y-94932648D01*
X54647413Y-95020542D01*
X54712828Y-95033553D01*
X54937000Y-94896043D01*
X54937000Y-93643000D01*
X54917000Y-93643000D01*
X54917000Y-93597000D01*
X54937000Y-93597000D01*
X54937000Y-92343957D01*
X54834016Y-92280785D01*
X56148422Y-90966379D01*
X59558449Y-90966379D01*
X59579589Y-91248257D01*
X59655314Y-91520595D01*
X59782715Y-91772928D01*
X59820072Y-91828838D01*
X60076528Y-91890945D01*
X60967473Y-91000000D01*
X60076528Y-90109055D01*
X59820072Y-90171162D01*
X59681046Y-90417280D01*
X59592707Y-90685792D01*
X59558449Y-90966379D01*
X56148422Y-90966379D01*
X58079802Y-89035000D01*
X58101939Y-89035000D01*
X58301898Y-88995226D01*
X58490256Y-88917205D01*
X58659774Y-88803937D01*
X58803937Y-88659774D01*
X58917205Y-88490256D01*
X58995226Y-88301898D01*
X59035000Y-88101939D01*
X59035000Y-87898061D01*
X58995226Y-87698102D01*
X58917205Y-87509744D01*
X58881488Y-87456289D01*
X59601312Y-88176114D01*
X59565000Y-88358665D01*
X59565000Y-88641335D01*
X59620147Y-88918574D01*
X59728320Y-89179727D01*
X59885363Y-89414759D01*
X60085241Y-89614637D01*
X60289566Y-89751162D01*
X60227072Y-89782715D01*
X60171162Y-89820072D01*
X60109055Y-90076528D01*
X61000000Y-90967473D01*
X61014142Y-90953331D01*
X61046669Y-90985858D01*
X61032527Y-91000000D01*
X61046669Y-91014142D01*
X61014142Y-91046669D01*
X61000000Y-91032527D01*
X60109055Y-91923472D01*
X60171162Y-92179928D01*
X60323960Y-92266240D01*
X59730201Y-92860000D01*
X58718043Y-92860000D01*
X58614637Y-92705241D01*
X58414759Y-92505363D01*
X58179727Y-92348320D01*
X57918574Y-92240147D01*
X57641335Y-92185000D01*
X57358665Y-92185000D01*
X57081426Y-92240147D01*
X56820273Y-92348320D01*
X56585241Y-92505363D01*
X56385363Y-92705241D01*
X56228320Y-92940273D01*
X56223038Y-92953025D01*
X56171365Y-92850700D01*
X55998006Y-92629156D01*
X55784757Y-92445690D01*
X55539813Y-92307352D01*
X55272587Y-92219458D01*
X55207172Y-92206447D01*
X54983000Y-92343957D01*
X54983000Y-93597000D01*
X55003000Y-93597000D01*
X55003000Y-93643000D01*
X54983000Y-93643000D01*
X54983000Y-94896043D01*
X55207172Y-95033553D01*
X55272587Y-95020542D01*
X55539813Y-94932648D01*
X55784757Y-94794310D01*
X55998006Y-94610844D01*
X56171365Y-94389300D01*
X56223038Y-94286975D01*
X56228320Y-94299727D01*
X56385363Y-94534759D01*
X56585241Y-94734637D01*
X56820273Y-94891680D01*
X57081426Y-94999853D01*
X57358665Y-95055000D01*
X57641335Y-95055000D01*
X57918574Y-94999853D01*
X58179727Y-94891680D01*
X58414759Y-94734637D01*
X58614637Y-94534759D01*
X58718043Y-94380000D01*
X60007680Y-94380000D01*
X60045002Y-94383676D01*
X60082324Y-94380000D01*
X60082335Y-94380000D01*
X60193988Y-94369003D01*
X60337249Y-94325546D01*
X60469278Y-94254974D01*
X60585003Y-94160001D01*
X60608806Y-94130997D01*
X62636004Y-92103800D01*
X62665002Y-92080002D01*
X62759975Y-91964277D01*
X62830547Y-91832248D01*
X62874004Y-91688987D01*
X62885001Y-91577334D01*
X62885001Y-91577326D01*
X62888677Y-91540001D01*
X62885001Y-91502676D01*
X62885001Y-88999802D01*
X65530198Y-91645000D01*
X65286544Y-91645000D01*
X65024761Y-91697072D01*
X64778167Y-91799215D01*
X64556238Y-91947503D01*
X64367503Y-92136238D01*
X64219215Y-92358167D01*
X64117072Y-92604761D01*
X64065000Y-92866544D01*
X64065000Y-93133456D01*
X64117072Y-93395239D01*
X64219215Y-93641833D01*
X64367503Y-93863762D01*
X64556238Y-94052497D01*
X64778167Y-94200785D01*
X65024761Y-94302928D01*
X65286544Y-94355000D01*
X65553456Y-94355000D01*
X65815239Y-94302928D01*
X66061833Y-94200785D01*
X66283762Y-94052497D01*
X66472497Y-93863762D01*
X66620785Y-93641833D01*
X66690000Y-93474734D01*
X66759215Y-93641833D01*
X66907503Y-93863762D01*
X67096238Y-94052497D01*
X67318167Y-94200785D01*
X67564761Y-94302928D01*
X67826544Y-94355000D01*
X68093456Y-94355000D01*
X68215852Y-94330654D01*
X68441202Y-94556004D01*
X68465000Y-94585002D01*
X68493998Y-94608800D01*
X68580725Y-94679975D01*
X68712754Y-94750547D01*
X68856015Y-94794004D01*
X69005001Y-94808678D01*
X69042334Y-94805001D01*
X80964279Y-94805001D01*
X81001601Y-94808677D01*
X81038923Y-94805001D01*
X81038934Y-94805001D01*
X81150587Y-94794004D01*
X81293848Y-94750547D01*
X81425877Y-94679975D01*
X81541602Y-94585002D01*
X81565405Y-94555998D01*
X86011004Y-90110400D01*
X86040001Y-90086603D01*
X86066332Y-90054519D01*
X86134974Y-89970879D01*
X86205546Y-89838849D01*
X86219013Y-89794454D01*
X86249003Y-89695588D01*
X86260000Y-89583935D01*
X86260000Y-89583925D01*
X86263676Y-89546602D01*
X86260000Y-89509279D01*
X86260000Y-86308245D01*
X86462569Y-86172893D01*
X86672893Y-85962569D01*
X86838144Y-85715253D01*
X86951971Y-85440451D01*
X87010000Y-85148722D01*
X87010000Y-84851278D01*
X86951971Y-84559549D01*
X86838144Y-84284747D01*
X86672893Y-84037431D01*
X86462569Y-83827107D01*
X86353350Y-83754129D01*
X86373140Y-83740905D01*
X86444243Y-83476770D01*
X85500000Y-82532527D01*
X84555757Y-83476770D01*
X84626860Y-83740905D01*
X84648291Y-83753033D01*
X84537431Y-83827107D01*
X84327107Y-84037431D01*
X84161856Y-84284747D01*
X84048029Y-84559549D01*
X83990000Y-84851278D01*
X83990000Y-85148722D01*
X84048029Y-85440451D01*
X84161856Y-85715253D01*
X84327107Y-85962569D01*
X84537431Y-86172893D01*
X84740001Y-86308246D01*
X84740000Y-89231800D01*
X81665877Y-92305924D01*
X81552497Y-92136238D01*
X81363762Y-91947503D01*
X81260000Y-91878172D01*
X81260000Y-90537322D01*
X81263676Y-90499999D01*
X81260000Y-90462676D01*
X81260000Y-90462667D01*
X81249003Y-90351014D01*
X81205546Y-90207753D01*
X81134974Y-90075724D01*
X81120104Y-90057605D01*
X81063799Y-89988996D01*
X81063795Y-89988992D01*
X81040001Y-89959999D01*
X81011008Y-89936205D01*
X78398688Y-87323886D01*
X78435000Y-87141335D01*
X78435000Y-86858665D01*
X78379853Y-86581426D01*
X78271680Y-86320273D01*
X78114637Y-86085241D01*
X77914759Y-85885363D01*
X77679727Y-85728320D01*
X77418574Y-85620147D01*
X77141335Y-85565000D01*
X76858665Y-85565000D01*
X76581426Y-85620147D01*
X76320273Y-85728320D01*
X76085241Y-85885363D01*
X75885363Y-86085241D01*
X75728320Y-86320273D01*
X75620147Y-86581426D01*
X75580000Y-86783256D01*
X75539853Y-86581426D01*
X75431680Y-86320273D01*
X75274637Y-86085241D01*
X75074759Y-85885363D01*
X74920000Y-85781957D01*
X74920000Y-85109396D01*
X75114637Y-84914759D01*
X75271680Y-84679727D01*
X75379853Y-84418574D01*
X75435000Y-84141335D01*
X75435000Y-83858665D01*
X75379853Y-83581426D01*
X75271680Y-83320273D01*
X75114637Y-83085241D01*
X74914759Y-82885363D01*
X74679727Y-82728320D01*
X74418574Y-82620147D01*
X74141335Y-82565000D01*
X73858665Y-82565000D01*
X73676114Y-82601312D01*
X73327755Y-82252953D01*
X73534759Y-82114637D01*
X73734637Y-81914759D01*
X73891680Y-81679727D01*
X73999853Y-81418574D01*
X74055000Y-81141335D01*
X74055000Y-80858665D01*
X73999853Y-80581426D01*
X73891680Y-80320273D01*
X73734637Y-80085241D01*
X73534759Y-79885363D01*
X73299727Y-79728320D01*
X73038574Y-79620147D01*
X72761335Y-79565000D01*
X72478665Y-79565000D01*
X72254999Y-79609491D01*
X72254999Y-74832324D01*
X72258675Y-74794999D01*
X72255572Y-74763491D01*
X72307413Y-74780542D01*
X72372828Y-74793553D01*
X72597000Y-74656043D01*
X72597000Y-73403000D01*
X72643000Y-73403000D01*
X72643000Y-74656043D01*
X72867172Y-74793553D01*
X72932587Y-74780542D01*
X73199813Y-74692648D01*
X73444757Y-74554310D01*
X73658006Y-74370844D01*
X73831365Y-74149300D01*
X73958172Y-73898193D01*
X74033554Y-73627172D01*
X73896067Y-73403000D01*
X72643000Y-73403000D01*
X72597000Y-73403000D01*
X72577000Y-73403000D01*
X72577000Y-73357000D01*
X72597000Y-73357000D01*
X72597000Y-73337000D01*
X72643000Y-73337000D01*
X72643000Y-73357000D01*
X73896067Y-73357000D01*
X74033554Y-73132828D01*
X74000781Y-73014999D01*
X74440198Y-73014999D01*
X76834921Y-75409723D01*
X76581426Y-75460147D01*
X76320273Y-75568320D01*
X76085241Y-75725363D01*
X75885363Y-75925241D01*
X75728320Y-76160273D01*
X75620147Y-76421426D01*
X75565000Y-76698665D01*
X75565000Y-76981335D01*
X75620147Y-77258574D01*
X75728320Y-77519727D01*
X75885363Y-77754759D01*
X76085241Y-77954637D01*
X76320273Y-78111680D01*
X76581426Y-78219853D01*
X76858665Y-78275000D01*
X77141335Y-78275000D01*
X77418574Y-78219853D01*
X77679727Y-78111680D01*
X77914759Y-77954637D01*
X78114637Y-77754759D01*
X78271680Y-77519727D01*
X78379853Y-77258574D01*
X78430277Y-77005079D01*
X81936205Y-80511008D01*
X81959999Y-80540001D01*
X81988992Y-80563795D01*
X81988996Y-80563799D01*
X82059685Y-80621811D01*
X82075724Y-80634974D01*
X82207753Y-80705546D01*
X82351014Y-80749003D01*
X82462667Y-80760000D01*
X82462676Y-80760000D01*
X82499999Y-80763676D01*
X82537322Y-80760000D01*
X83986928Y-80760000D01*
X83986928Y-80875000D01*
X83999188Y-80999482D01*
X84035498Y-81119180D01*
X84094463Y-81229494D01*
X84173815Y-81326185D01*
X84270506Y-81405537D01*
X84380820Y-81464502D01*
X84454245Y-81486775D01*
X84523228Y-81555758D01*
X84259095Y-81626860D01*
X84112597Y-81885725D01*
X84019417Y-82168197D01*
X83983134Y-82463419D01*
X84005143Y-82760048D01*
X84084599Y-83046683D01*
X84218448Y-83312310D01*
X84259095Y-83373140D01*
X84523230Y-83444243D01*
X85467473Y-82500000D01*
X85453331Y-82485858D01*
X85485858Y-82453331D01*
X85500000Y-82467473D01*
X85514142Y-82453331D01*
X85546669Y-82485858D01*
X85532527Y-82500000D01*
X86476770Y-83444243D01*
X86740905Y-83373140D01*
X86887403Y-83114275D01*
X86980583Y-82831803D01*
X87016866Y-82536581D01*
X86994857Y-82239952D01*
X86915401Y-81953317D01*
X86781552Y-81687690D01*
X86740905Y-81626860D01*
X86476772Y-81555758D01*
X86545755Y-81486775D01*
X86619180Y-81464502D01*
X86729494Y-81405537D01*
X86826185Y-81326185D01*
X86905537Y-81229494D01*
X86964502Y-81119180D01*
X87000812Y-80999482D01*
X87013072Y-80875000D01*
X87013072Y-79125000D01*
X87000812Y-79000518D01*
X86964502Y-78880820D01*
X86905537Y-78770506D01*
X86826185Y-78673815D01*
X86729494Y-78594463D01*
X86619180Y-78535498D01*
X86499482Y-78499188D01*
X86375000Y-78486928D01*
X84625000Y-78486928D01*
X84500518Y-78499188D01*
X84380820Y-78535498D01*
X84270506Y-78594463D01*
X84173815Y-78673815D01*
X84094463Y-78770506D01*
X84035498Y-78880820D01*
X83999188Y-79000518D01*
X83986928Y-79125000D01*
X83986928Y-79240000D01*
X82814803Y-79240000D01*
X75459802Y-71885001D01*
X78337677Y-71885001D01*
X78374999Y-71888677D01*
X78412321Y-71885001D01*
X78412332Y-71885001D01*
X78523985Y-71874004D01*
X78667246Y-71830547D01*
X78799275Y-71759975D01*
X78915000Y-71665002D01*
X78938803Y-71635998D01*
X85112332Y-65462470D01*
X85351278Y-65510000D01*
X85648722Y-65510000D01*
X85940451Y-65451971D01*
X86215253Y-65338144D01*
X86462569Y-65172893D01*
X86672893Y-64962569D01*
X86838144Y-64715253D01*
X86951971Y-64440451D01*
X87010000Y-64148722D01*
X87010000Y-63851278D01*
X86951971Y-63559549D01*
X86838144Y-63284747D01*
X86672893Y-63037431D01*
X86462569Y-62827107D01*
X86353350Y-62754129D01*
X86373140Y-62740905D01*
X86444243Y-62476770D01*
X85500000Y-61532527D01*
X84555757Y-62476770D01*
X84626860Y-62740905D01*
X84648291Y-62753033D01*
X84537431Y-62827107D01*
X84327107Y-63037431D01*
X84161856Y-63284747D01*
X84048029Y-63559549D01*
X83990000Y-63851278D01*
X83990000Y-64148722D01*
X84037530Y-64387668D01*
X78060198Y-70365001D01*
X74010509Y-70365001D01*
X74055000Y-70141335D01*
X74055000Y-69858665D01*
X73999853Y-69581426D01*
X73891680Y-69320273D01*
X73734637Y-69085241D01*
X73534759Y-68885363D01*
X73299727Y-68728320D01*
X73038574Y-68620147D01*
X72968578Y-68606224D01*
X75039802Y-66535000D01*
X75101939Y-66535000D01*
X75301898Y-66495226D01*
X75490256Y-66417205D01*
X75576576Y-66359528D01*
X75620147Y-66578574D01*
X75728320Y-66839727D01*
X75885363Y-67074759D01*
X76085241Y-67274637D01*
X76320273Y-67431680D01*
X76581426Y-67539853D01*
X76858665Y-67595000D01*
X77141335Y-67595000D01*
X77418574Y-67539853D01*
X77679727Y-67431680D01*
X77914759Y-67274637D01*
X78114637Y-67074759D01*
X78271680Y-66839727D01*
X78379853Y-66578574D01*
X78435000Y-66301335D01*
X78435000Y-66018665D01*
X78379853Y-65741426D01*
X78271680Y-65480273D01*
X78114637Y-65245241D01*
X77914759Y-65045363D01*
X77679727Y-64888320D01*
X77418574Y-64780147D01*
X77141335Y-64725000D01*
X76858665Y-64725000D01*
X76581426Y-64780147D01*
X76320273Y-64888320D01*
X76085241Y-65045363D01*
X75976854Y-65153750D01*
X75917205Y-65009744D01*
X75803937Y-64840226D01*
X75659774Y-64696063D01*
X75490256Y-64582795D01*
X75301898Y-64504774D01*
X75202492Y-64485001D01*
X80737677Y-64485001D01*
X80774999Y-64488677D01*
X80812321Y-64485001D01*
X80812332Y-64485001D01*
X80923985Y-64474004D01*
X81067246Y-64430547D01*
X81199275Y-64359975D01*
X81315000Y-64265002D01*
X81338803Y-64235998D01*
X83991992Y-61582810D01*
X84005143Y-61760048D01*
X84084599Y-62046683D01*
X84218448Y-62312310D01*
X84259095Y-62373140D01*
X84523230Y-62444243D01*
X85467473Y-61500000D01*
X85453331Y-61485858D01*
X85485858Y-61453331D01*
X85500000Y-61467473D01*
X85514142Y-61453331D01*
X85546669Y-61485858D01*
X85532527Y-61500000D01*
X86476770Y-62444243D01*
X86740905Y-62373140D01*
X86887403Y-62114275D01*
X86980583Y-61831803D01*
X87016866Y-61536581D01*
X86994857Y-61239952D01*
X86915401Y-60953317D01*
X86781552Y-60687690D01*
X86740905Y-60626860D01*
X86476772Y-60555758D01*
X86545755Y-60486775D01*
X86619180Y-60464502D01*
X86729494Y-60405537D01*
X86826185Y-60326185D01*
X86905537Y-60229494D01*
X86964502Y-60119180D01*
X87000812Y-59999482D01*
X87013072Y-59875000D01*
X87013072Y-58125000D01*
X87000812Y-58000518D01*
X86964502Y-57880820D01*
X86905537Y-57770506D01*
X86826185Y-57673815D01*
X86729494Y-57594463D01*
X86619180Y-57535498D01*
X86499482Y-57499188D01*
X86375000Y-57486928D01*
X84625000Y-57486928D01*
X84500518Y-57499188D01*
X84380820Y-57535498D01*
X84270506Y-57594463D01*
X84173815Y-57673815D01*
X84094463Y-57770506D01*
X84035498Y-57880820D01*
X83999188Y-58000518D01*
X83986928Y-58125000D01*
X83986928Y-59438269D01*
X80460198Y-62965001D01*
X76109801Y-62965001D01*
X76386007Y-62688796D01*
X76415000Y-62665002D01*
X76438794Y-62636009D01*
X76438798Y-62636005D01*
X76509972Y-62549278D01*
X76514931Y-62540001D01*
X76580545Y-62417248D01*
X76624002Y-62273987D01*
X76634999Y-62162334D01*
X76634999Y-62162325D01*
X76638675Y-62125002D01*
X76634999Y-62087679D01*
X76634999Y-57390509D01*
X76858665Y-57435000D01*
X77141335Y-57435000D01*
X77418574Y-57379853D01*
X77679727Y-57271680D01*
X77914759Y-57114637D01*
X78114637Y-56914759D01*
X78271680Y-56679727D01*
X78379853Y-56418574D01*
X78435000Y-56141335D01*
X78435000Y-55858665D01*
X78398688Y-55676114D01*
X81011008Y-53063795D01*
X81040001Y-53040001D01*
X81063795Y-53011008D01*
X81063799Y-53011004D01*
X81134973Y-52924277D01*
X81134974Y-52924276D01*
X81205546Y-52792247D01*
X81249003Y-52648986D01*
X81260000Y-52537333D01*
X81260000Y-52537324D01*
X81263676Y-52500001D01*
X81260000Y-52462678D01*
X81260000Y-51621828D01*
X81363762Y-51552497D01*
X81552497Y-51363762D01*
X81700785Y-51141833D01*
X81802928Y-50895239D01*
X81855000Y-50633456D01*
X81855000Y-50366544D01*
X81802928Y-50104761D01*
X81700785Y-49858167D01*
X81552497Y-49636238D01*
X81363762Y-49447503D01*
X81141833Y-49299215D01*
X80895239Y-49197072D01*
X80633456Y-49145000D01*
X80366544Y-49145000D01*
X80104761Y-49197072D01*
X79858167Y-49299215D01*
X79636238Y-49447503D01*
X79447503Y-49636238D01*
X79299215Y-49858167D01*
X79230000Y-50025266D01*
X79160785Y-49858167D01*
X79012497Y-49636238D01*
X78823762Y-49447503D01*
X78601833Y-49299215D01*
X78355239Y-49197072D01*
X78093456Y-49145000D01*
X77826544Y-49145000D01*
X77564761Y-49197072D01*
X77318167Y-49299215D01*
X77096238Y-49447503D01*
X76907503Y-49636238D01*
X76759215Y-49858167D01*
X76692563Y-50019078D01*
X76689257Y-50007231D01*
X76568734Y-49769080D01*
X76534884Y-49718419D01*
X76286620Y-49665907D01*
X75452527Y-50500000D01*
X75466669Y-50514142D01*
X75434142Y-50546669D01*
X75420000Y-50532527D01*
X74585907Y-51366620D01*
X74638419Y-51614884D01*
X74870940Y-51745941D01*
X75124561Y-51829116D01*
X75389535Y-51861214D01*
X75535034Y-51850165D01*
X75364002Y-52021197D01*
X75334998Y-52045000D01*
X75309783Y-52075725D01*
X75240025Y-52160725D01*
X75176151Y-52280224D01*
X75169453Y-52292755D01*
X75125996Y-52436016D01*
X75114999Y-52547669D01*
X75114999Y-52547679D01*
X75111323Y-52585001D01*
X75114999Y-52622323D01*
X75114999Y-55585783D01*
X75114637Y-55585241D01*
X74914759Y-55385363D01*
X74679727Y-55228320D01*
X74418574Y-55120147D01*
X74141335Y-55065000D01*
X73858665Y-55065000D01*
X73581426Y-55120147D01*
X73320273Y-55228320D01*
X73085241Y-55385363D01*
X72885363Y-55585241D01*
X72728320Y-55820273D01*
X72620147Y-56081426D01*
X72565000Y-56358665D01*
X72565000Y-56641335D01*
X72620147Y-56918574D01*
X72728320Y-57179727D01*
X72885363Y-57414759D01*
X73085241Y-57614637D01*
X73320273Y-57771680D01*
X73400001Y-57804704D01*
X73400000Y-58281956D01*
X73245241Y-58385363D01*
X73045363Y-58585241D01*
X72943315Y-58737967D01*
X72922676Y-58740000D01*
X72922667Y-58740000D01*
X72811014Y-58750997D01*
X72675032Y-58792246D01*
X72667753Y-58794454D01*
X72535723Y-58865026D01*
X72452083Y-58933668D01*
X72419999Y-58959999D01*
X72396201Y-58988997D01*
X70403886Y-60981312D01*
X70221335Y-60945000D01*
X69938665Y-60945000D01*
X69661426Y-61000147D01*
X69400273Y-61108320D01*
X69165241Y-61265363D01*
X68965363Y-61465241D01*
X68810000Y-61697759D01*
X68654637Y-61465241D01*
X68454759Y-61265363D01*
X68219727Y-61108320D01*
X67958574Y-61000147D01*
X67681335Y-60945000D01*
X67398665Y-60945000D01*
X67121426Y-61000147D01*
X66860273Y-61108320D01*
X66754078Y-61179277D01*
X65398688Y-59823886D01*
X65435000Y-59641335D01*
X65435000Y-59358665D01*
X65379853Y-59081426D01*
X65271680Y-58820273D01*
X65114637Y-58585241D01*
X64914759Y-58385363D01*
X64679727Y-58228320D01*
X64418574Y-58120147D01*
X64141335Y-58065000D01*
X63858665Y-58065000D01*
X63634999Y-58109491D01*
X63634999Y-57922336D01*
X63698665Y-57935000D01*
X63981335Y-57935000D01*
X64258574Y-57879853D01*
X64519727Y-57771680D01*
X64754759Y-57614637D01*
X64954637Y-57414759D01*
X65111680Y-57179727D01*
X65219853Y-56918574D01*
X65275000Y-56641335D01*
X65275000Y-56358665D01*
X65219853Y-56081426D01*
X65111680Y-55820273D01*
X64954637Y-55585241D01*
X64754759Y-55385363D01*
X64600000Y-55281957D01*
X64600000Y-54474801D01*
X67357659Y-51717143D01*
X67564761Y-51802928D01*
X67826544Y-51855000D01*
X68093456Y-51855000D01*
X68355239Y-51802928D01*
X68601833Y-51700785D01*
X68823762Y-51552497D01*
X69012497Y-51363762D01*
X69160785Y-51141833D01*
X69230000Y-50974734D01*
X69299215Y-51141833D01*
X69447503Y-51363762D01*
X69636238Y-51552497D01*
X69858167Y-51700785D01*
X70104761Y-51802928D01*
X70366544Y-51855000D01*
X70633456Y-51855000D01*
X70895239Y-51802928D01*
X71141833Y-51700785D01*
X71363762Y-51552497D01*
X71552497Y-51363762D01*
X71700785Y-51141833D01*
X71802928Y-50895239D01*
X71855000Y-50633456D01*
X71855000Y-50469535D01*
X74058786Y-50469535D01*
X74078997Y-50735680D01*
X74150743Y-50992769D01*
X74271266Y-51230920D01*
X74305116Y-51281581D01*
X74553380Y-51334093D01*
X75387473Y-50500000D01*
X74553380Y-49665907D01*
X74305116Y-49718419D01*
X74174059Y-49950940D01*
X74090884Y-50204561D01*
X74058786Y-50469535D01*
X71855000Y-50469535D01*
X71855000Y-50366544D01*
X71802928Y-50104761D01*
X71700785Y-49858167D01*
X71552497Y-49636238D01*
X71549639Y-49633380D01*
X74585907Y-49633380D01*
X75420000Y-50467473D01*
X76254093Y-49633380D01*
X76201581Y-49385116D01*
X75969060Y-49254059D01*
X75715439Y-49170884D01*
X75450465Y-49138786D01*
X75184320Y-49158997D01*
X74927231Y-49230743D01*
X74689080Y-49351266D01*
X74638419Y-49385116D01*
X74585907Y-49633380D01*
X71549639Y-49633380D01*
X71363762Y-49447503D01*
X71141833Y-49299215D01*
X70895239Y-49197072D01*
X70633456Y-49145000D01*
X70366544Y-49145000D01*
X70244147Y-49169346D01*
X70018803Y-48944001D01*
X69995000Y-48914998D01*
X69879275Y-48820025D01*
X69747246Y-48749453D01*
X69603985Y-48705996D01*
X69492332Y-48694999D01*
X69492321Y-48694999D01*
X69454999Y-48691323D01*
X69417677Y-48694999D01*
X63840253Y-48694999D01*
X63802920Y-48691322D01*
X63765587Y-48694999D01*
X63653934Y-48705996D01*
X63510673Y-48749453D01*
X63378644Y-48820025D01*
X63262919Y-48914998D01*
X63239121Y-48943996D01*
X54948998Y-57234120D01*
X54920000Y-57257918D01*
X54896202Y-57286916D01*
X54896201Y-57286917D01*
X54825026Y-57373643D01*
X54754454Y-57505673D01*
X54737824Y-57560498D01*
X54719938Y-57619463D01*
X54710998Y-57648934D01*
X54704088Y-57719090D01*
X54513368Y-57846525D01*
X54306525Y-58053368D01*
X54190000Y-58227760D01*
X54073475Y-58053368D01*
X53866632Y-57846525D01*
X53623411Y-57684010D01*
X53353158Y-57572068D01*
X53066260Y-57515000D01*
X52773740Y-57515000D01*
X52560000Y-57557516D01*
X52560000Y-50537322D01*
X52563676Y-50499999D01*
X52560000Y-50462676D01*
X52560000Y-50462667D01*
X52549003Y-50351014D01*
X52505546Y-50207753D01*
X52434974Y-50075724D01*
X52421811Y-50059685D01*
X52363799Y-49988996D01*
X52363795Y-49988992D01*
X52340001Y-49959999D01*
X52311009Y-49936206D01*
X51398688Y-49023886D01*
X51435000Y-48841335D01*
X51435000Y-48558665D01*
X51379853Y-48281426D01*
X51271680Y-48020273D01*
X51114637Y-47785241D01*
X50914759Y-47585363D01*
X50679727Y-47428320D01*
X50418574Y-47320147D01*
X50141335Y-47265000D01*
X49858665Y-47265000D01*
X49581426Y-47320147D01*
X49320273Y-47428320D01*
X49085241Y-47585363D01*
X48885363Y-47785241D01*
X48728320Y-48020273D01*
X48620147Y-48281426D01*
X48565000Y-48558665D01*
X48565000Y-48841335D01*
X48620147Y-49118574D01*
X48728320Y-49379727D01*
X48885363Y-49614759D01*
X49085241Y-49814637D01*
X49320273Y-49971680D01*
X49581426Y-50079853D01*
X49858665Y-50135000D01*
X50141335Y-50135000D01*
X50323886Y-50098688D01*
X51040000Y-50814803D01*
X51040001Y-57842668D01*
X51037496Y-57868100D01*
X50914759Y-57745363D01*
X50679727Y-57588320D01*
X50418574Y-57480147D01*
X50141335Y-57425000D01*
X49858665Y-57425000D01*
X49581426Y-57480147D01*
X49320273Y-57588320D01*
X49085241Y-57745363D01*
X48885363Y-57945241D01*
X48781957Y-58100000D01*
X47777323Y-58100000D01*
X47740000Y-58096324D01*
X47702677Y-58100000D01*
X47702667Y-58100000D01*
X47591014Y-58110997D01*
X47447753Y-58154454D01*
X47315724Y-58225026D01*
X47199999Y-58319999D01*
X47176201Y-58348997D01*
X43085199Y-62440000D01*
X42416820Y-62440000D01*
X42412790Y-62399087D01*
X42325017Y-62109739D01*
X42182481Y-61843073D01*
X41990661Y-61609339D01*
X41756926Y-61417519D01*
X41490260Y-61274983D01*
X41200912Y-61187210D01*
X40900000Y-61157573D01*
X40599087Y-61187210D01*
X40309739Y-61274983D01*
X40043073Y-61417519D01*
X39809339Y-61609339D01*
X39617519Y-61843074D01*
X39474983Y-62109740D01*
X39387210Y-62399088D01*
X39365000Y-62624593D01*
X39365000Y-63435846D01*
X39333676Y-63410915D01*
X39066169Y-63273042D01*
X38776905Y-63190007D01*
X38762817Y-63187666D01*
X38523000Y-63323942D01*
X38523000Y-65177000D01*
X40035000Y-65177000D01*
X40035000Y-64975855D01*
X40043074Y-64982481D01*
X40309740Y-65125017D01*
X40599088Y-65212790D01*
X40900000Y-65242427D01*
X41200913Y-65212790D01*
X41490261Y-65125017D01*
X41756927Y-64982481D01*
X41990661Y-64790661D01*
X42182481Y-64556927D01*
X42325017Y-64290261D01*
X42412790Y-64000913D01*
X42416820Y-63960000D01*
X43362678Y-63960000D01*
X43400000Y-63963676D01*
X43437322Y-63960000D01*
X43437333Y-63960000D01*
X43548986Y-63949003D01*
X43692247Y-63905546D01*
X43824276Y-63834974D01*
X43940001Y-63740001D01*
X43963804Y-63710997D01*
X44865000Y-62809801D01*
X44865000Y-63775408D01*
X44887210Y-64000913D01*
X44974983Y-64290261D01*
X45117519Y-64556927D01*
X45309340Y-64790661D01*
X45543074Y-64982481D01*
X45809740Y-65125017D01*
X46099088Y-65212790D01*
X46400000Y-65242427D01*
X46552597Y-65227398D01*
X48740000Y-67414802D01*
X48740001Y-71621956D01*
X48585241Y-71725363D01*
X48385363Y-71925241D01*
X48228320Y-72160273D01*
X48120147Y-72421426D01*
X48065000Y-72698665D01*
X48065000Y-72981335D01*
X48120147Y-73258574D01*
X48228320Y-73519727D01*
X48385363Y-73754759D01*
X48585241Y-73954637D01*
X48820273Y-74111680D01*
X49081426Y-74219853D01*
X49358665Y-74275000D01*
X49641335Y-74275000D01*
X49918574Y-74219853D01*
X50179727Y-74111680D01*
X50414759Y-73954637D01*
X50614637Y-73754759D01*
X50771680Y-73519727D01*
X50879853Y-73258574D01*
X50935000Y-72981335D01*
X50935000Y-72698665D01*
X50879853Y-72421426D01*
X50771680Y-72160273D01*
X50614637Y-71925241D01*
X50414759Y-71725363D01*
X50260000Y-71621957D01*
X50260000Y-71058665D01*
X50965000Y-71058665D01*
X50965000Y-71341335D01*
X51020147Y-71618574D01*
X51128320Y-71879727D01*
X51285363Y-72114759D01*
X51485241Y-72314637D01*
X51720273Y-72471680D01*
X51981426Y-72579853D01*
X52258665Y-72635000D01*
X52541335Y-72635000D01*
X52818574Y-72579853D01*
X53079727Y-72471680D01*
X53314759Y-72314637D01*
X53514637Y-72114759D01*
X53651162Y-71910434D01*
X53682715Y-71972928D01*
X53720072Y-72028838D01*
X53976528Y-72090945D01*
X54867473Y-71200000D01*
X53976528Y-70309055D01*
X53720072Y-70371162D01*
X53652260Y-70491209D01*
X53514637Y-70285241D01*
X53314759Y-70085363D01*
X53079727Y-69928320D01*
X52818574Y-69820147D01*
X52541335Y-69765000D01*
X52258665Y-69765000D01*
X51981426Y-69820147D01*
X51720273Y-69928320D01*
X51485241Y-70085363D01*
X51285363Y-70285241D01*
X51128320Y-70520273D01*
X51020147Y-70781426D01*
X50965000Y-71058665D01*
X50260000Y-71058665D01*
X50260000Y-67137322D01*
X50263676Y-67099999D01*
X50260000Y-67062676D01*
X50260000Y-67062667D01*
X50249003Y-66951014D01*
X50205546Y-66807753D01*
X50134975Y-66675725D01*
X50134974Y-66675723D01*
X50063799Y-66588997D01*
X50040001Y-66559999D01*
X50011004Y-66536202D01*
X47804133Y-64329332D01*
X47825017Y-64290261D01*
X47912790Y-64000913D01*
X47935000Y-63775408D01*
X47935000Y-62624592D01*
X47912790Y-62399087D01*
X47825017Y-62109739D01*
X47682481Y-61843073D01*
X47490661Y-61609339D01*
X47256926Y-61417519D01*
X46990260Y-61274983D01*
X46700912Y-61187210D01*
X46506718Y-61168084D01*
X48054802Y-59620000D01*
X48781957Y-59620000D01*
X48885363Y-59774759D01*
X49085241Y-59974637D01*
X49320273Y-60131680D01*
X49581426Y-60239853D01*
X49858665Y-60295000D01*
X50141335Y-60295000D01*
X50418574Y-60239853D01*
X50679727Y-60131680D01*
X50914759Y-59974637D01*
X51114637Y-59774759D01*
X51271680Y-59539727D01*
X51379853Y-59278574D01*
X51435000Y-59001335D01*
X51435000Y-59146260D01*
X51492068Y-59433158D01*
X51604010Y-59703411D01*
X51766525Y-59946632D01*
X51973368Y-60153475D01*
X52216589Y-60315990D01*
X52486842Y-60427932D01*
X52773740Y-60485000D01*
X53066260Y-60485000D01*
X53353158Y-60427932D01*
X53623411Y-60315990D01*
X53866632Y-60153475D01*
X54073475Y-59946632D01*
X54190000Y-59772240D01*
X54306525Y-59946632D01*
X54513368Y-60153475D01*
X54756589Y-60315990D01*
X55026842Y-60427932D01*
X55313740Y-60485000D01*
X55606260Y-60485000D01*
X55826408Y-60441209D01*
X57896201Y-62511003D01*
X57919999Y-62540001D01*
X58035724Y-62634974D01*
X58167753Y-62705546D01*
X58311014Y-62749003D01*
X58422667Y-62760000D01*
X58422675Y-62760000D01*
X58460000Y-62763676D01*
X58497325Y-62760000D01*
X60796289Y-62760000D01*
X60840226Y-62803937D01*
X61009744Y-62917205D01*
X61198102Y-62995226D01*
X61398061Y-63035000D01*
X61601939Y-63035000D01*
X61801898Y-62995226D01*
X61990256Y-62917205D01*
X62115000Y-62833854D01*
X62115000Y-63861509D01*
X61918574Y-63780147D01*
X61641335Y-63725000D01*
X61358665Y-63725000D01*
X61081426Y-63780147D01*
X60820273Y-63888320D01*
X60585241Y-64045363D01*
X60385363Y-64245241D01*
X60228320Y-64480273D01*
X60120147Y-64741426D01*
X60065000Y-65018665D01*
X60065000Y-65301335D01*
X60101312Y-65483886D01*
X55854002Y-69731197D01*
X55824998Y-69755000D01*
X55794053Y-69792707D01*
X55730025Y-69870725D01*
X55711691Y-69905026D01*
X55668435Y-69985952D01*
X55482720Y-69881046D01*
X55214208Y-69792707D01*
X54933621Y-69758449D01*
X54651743Y-69779589D01*
X54379405Y-69855314D01*
X54127072Y-69982715D01*
X54071162Y-70020072D01*
X54009055Y-70276528D01*
X54900000Y-71167473D01*
X54914142Y-71153331D01*
X54946669Y-71185858D01*
X54932527Y-71200000D01*
X54946669Y-71214142D01*
X54914142Y-71246669D01*
X54900000Y-71232527D01*
X54009055Y-72123472D01*
X54071162Y-72379928D01*
X54317280Y-72518954D01*
X54585792Y-72607293D01*
X54866379Y-72641551D01*
X55148257Y-72620411D01*
X55420595Y-72544686D01*
X55604999Y-72451582D01*
X55604999Y-73143247D01*
X55433158Y-73072068D01*
X55146260Y-73015000D01*
X54853740Y-73015000D01*
X54566842Y-73072068D01*
X54296589Y-73184010D01*
X54053368Y-73346525D01*
X53846525Y-73553368D01*
X53730000Y-73727760D01*
X53613475Y-73553368D01*
X53406632Y-73346525D01*
X53163411Y-73184010D01*
X52893158Y-73072068D01*
X52606260Y-73015000D01*
X52313740Y-73015000D01*
X52026842Y-73072068D01*
X51756589Y-73184010D01*
X51513368Y-73346525D01*
X51306525Y-73553368D01*
X51144010Y-73796589D01*
X51032068Y-74066842D01*
X50975000Y-74353740D01*
X50975000Y-74646260D01*
X51032068Y-74933158D01*
X51144010Y-75203411D01*
X51306525Y-75446632D01*
X51513368Y-75653475D01*
X51756589Y-75815990D01*
X52026842Y-75927932D01*
X52313740Y-75985000D01*
X52606260Y-75985000D01*
X52893158Y-75927932D01*
X53163411Y-75815990D01*
X53406632Y-75653475D01*
X53613475Y-75446632D01*
X53730000Y-75272240D01*
X53846525Y-75446632D01*
X54053368Y-75653475D01*
X54296589Y-75815990D01*
X54566842Y-75927932D01*
X54853740Y-75985000D01*
X55146260Y-75985000D01*
X55433158Y-75927932D01*
X55604999Y-75856753D01*
X55605000Y-82162665D01*
X55601323Y-82199997D01*
X55605000Y-82237330D01*
X55615997Y-82348983D01*
X55627088Y-82385546D01*
X55659453Y-82492243D01*
X55730025Y-82624273D01*
X55792174Y-82700001D01*
X55824999Y-82739998D01*
X55853997Y-82763796D01*
X57652129Y-84561928D01*
X57136730Y-84561928D01*
X53723804Y-81149003D01*
X53700001Y-81119999D01*
X53584276Y-81025026D01*
X53452247Y-80954454D01*
X53308986Y-80910997D01*
X53197333Y-80900000D01*
X53197322Y-80900000D01*
X53160000Y-80896324D01*
X53122678Y-80900000D01*
X47738043Y-80900000D01*
X47634637Y-80745241D01*
X47434759Y-80545363D01*
X47202241Y-80390000D01*
X47434759Y-80234637D01*
X47634637Y-80034759D01*
X47791680Y-79799727D01*
X47899853Y-79538574D01*
X47955000Y-79261335D01*
X47955000Y-78978665D01*
X47899853Y-78701426D01*
X47791680Y-78440273D01*
X47634637Y-78205241D01*
X47434759Y-78005363D01*
X47199727Y-77848320D01*
X47186975Y-77843038D01*
X47289300Y-77791365D01*
X47510844Y-77618006D01*
X47694310Y-77404757D01*
X47832648Y-77159813D01*
X47920542Y-76892587D01*
X47933553Y-76827172D01*
X47796043Y-76603000D01*
X46543000Y-76603000D01*
X46543000Y-76623000D01*
X46497000Y-76623000D01*
X46497000Y-76603000D01*
X46477000Y-76603000D01*
X46477000Y-76557000D01*
X46497000Y-76557000D01*
X46497000Y-76537000D01*
X46543000Y-76537000D01*
X46543000Y-76557000D01*
X47796043Y-76557000D01*
X47933553Y-76332828D01*
X47920542Y-76267413D01*
X47832648Y-76000187D01*
X47694310Y-75755243D01*
X47510844Y-75541994D01*
X47289300Y-75368635D01*
X47186975Y-75316962D01*
X47199727Y-75311680D01*
X47434759Y-75154637D01*
X47634637Y-74954759D01*
X47791680Y-74719727D01*
X47899853Y-74458574D01*
X47955000Y-74181335D01*
X47955000Y-73898665D01*
X47899853Y-73621426D01*
X47791680Y-73360273D01*
X47634637Y-73125241D01*
X47434759Y-72925363D01*
X47280000Y-72821957D01*
X47280000Y-72718043D01*
X47434759Y-72614637D01*
X47634637Y-72414759D01*
X47791680Y-72179727D01*
X47899853Y-71918574D01*
X47955000Y-71641335D01*
X47955000Y-71358665D01*
X47899853Y-71081426D01*
X47791680Y-70820273D01*
X47634637Y-70585241D01*
X47434759Y-70385363D01*
X47199727Y-70228320D01*
X46938574Y-70120147D01*
X46661335Y-70065000D01*
X46378665Y-70065000D01*
X46196113Y-70101312D01*
X45958803Y-69864001D01*
X45935000Y-69834998D01*
X45819275Y-69740025D01*
X45687246Y-69669453D01*
X45543985Y-69625996D01*
X45432332Y-69614999D01*
X45432321Y-69614999D01*
X45394999Y-69611323D01*
X45357677Y-69614999D01*
X37877324Y-69614999D01*
X37839999Y-69611323D01*
X37802674Y-69614999D01*
X37802666Y-69614999D01*
X37691013Y-69625996D01*
X37547752Y-69669453D01*
X37415723Y-69740025D01*
X37299998Y-69834998D01*
X37276200Y-69863996D01*
X34888998Y-72251199D01*
X34860000Y-72274997D01*
X34836202Y-72303995D01*
X34836201Y-72303996D01*
X34765026Y-72390722D01*
X34694454Y-72522752D01*
X34669505Y-72605000D01*
X34650998Y-72666012D01*
X34640140Y-72776250D01*
X34636324Y-72814998D01*
X34640001Y-72852330D01*
X34640000Y-75111928D01*
X34550000Y-75111928D01*
X34425518Y-75124188D01*
X34305820Y-75160498D01*
X34195506Y-75219463D01*
X34098815Y-75298815D01*
X34019463Y-75395506D01*
X33960498Y-75505820D01*
X33924188Y-75625518D01*
X33911928Y-75750000D01*
X33827000Y-75750000D01*
X33827000Y-65223000D01*
X36965000Y-65223000D01*
X36965000Y-65723000D01*
X36998982Y-66022022D01*
X37090647Y-66308669D01*
X37236473Y-66571925D01*
X37430855Y-66801673D01*
X37666324Y-66989085D01*
X37933831Y-67126958D01*
X38223095Y-67209993D01*
X38237183Y-67212334D01*
X38477000Y-67076058D01*
X38477000Y-65223000D01*
X38523000Y-65223000D01*
X38523000Y-67076058D01*
X38762817Y-67212334D01*
X38776905Y-67209993D01*
X39066169Y-67126958D01*
X39333676Y-66989085D01*
X39569145Y-66801673D01*
X39763527Y-66571925D01*
X39909353Y-66308669D01*
X40001018Y-66022022D01*
X40035000Y-65723000D01*
X40035000Y-65223000D01*
X38523000Y-65223000D01*
X38477000Y-65223000D01*
X36965000Y-65223000D01*
X33827000Y-65223000D01*
X33827000Y-64677000D01*
X36965000Y-64677000D01*
X36965000Y-65177000D01*
X38477000Y-65177000D01*
X38477000Y-63323942D01*
X38237183Y-63187666D01*
X38223095Y-63190007D01*
X37933831Y-63273042D01*
X37666324Y-63410915D01*
X37430855Y-63598327D01*
X37236473Y-63828075D01*
X37090647Y-64091331D01*
X36998982Y-64377978D01*
X36965000Y-64677000D01*
X33827000Y-64677000D01*
X33827000Y-57514344D01*
X38315000Y-57514344D01*
X38315000Y-57885656D01*
X38387439Y-58249834D01*
X38529534Y-58592882D01*
X38735825Y-58901618D01*
X38998382Y-59164175D01*
X39307118Y-59370466D01*
X39650166Y-59512561D01*
X40014344Y-59585000D01*
X40385656Y-59585000D01*
X40749834Y-59512561D01*
X41092882Y-59370466D01*
X41401618Y-59164175D01*
X41664175Y-58901618D01*
X41870466Y-58592882D01*
X42012561Y-58249834D01*
X42085000Y-57885656D01*
X42085000Y-57514344D01*
X42012561Y-57150166D01*
X41870466Y-56807118D01*
X41664175Y-56498382D01*
X41401618Y-56235825D01*
X41092882Y-56029534D01*
X40749834Y-55887439D01*
X40385656Y-55815000D01*
X40014344Y-55815000D01*
X39650166Y-55887439D01*
X39307118Y-56029534D01*
X38998382Y-56235825D01*
X38735825Y-56498382D01*
X38529534Y-56807118D01*
X38387439Y-57150166D01*
X38315000Y-57514344D01*
X33827000Y-57514344D01*
X33827000Y-53943249D01*
X38989278Y-53943249D01*
X39105353Y-54245782D01*
X39427954Y-54429636D01*
X39780224Y-54547020D01*
X40148626Y-54593424D01*
X40519002Y-54567065D01*
X40877119Y-54468956D01*
X41209215Y-54302866D01*
X41294647Y-54245782D01*
X41410722Y-53943249D01*
X40200000Y-52732527D01*
X38989278Y-53943249D01*
X33827000Y-53943249D01*
X33827000Y-52648626D01*
X38306576Y-52648626D01*
X38332935Y-53019002D01*
X38431044Y-53377119D01*
X38597134Y-53709215D01*
X38654218Y-53794647D01*
X38956751Y-53910722D01*
X40167473Y-52700000D01*
X40232527Y-52700000D01*
X41443249Y-53910722D01*
X41745782Y-53794647D01*
X41929636Y-53472046D01*
X42047020Y-53119776D01*
X42093424Y-52751374D01*
X42067065Y-52380998D01*
X41968956Y-52022881D01*
X41802866Y-51690785D01*
X41745782Y-51605353D01*
X41443249Y-51489278D01*
X40232527Y-52700000D01*
X40167473Y-52700000D01*
X38956751Y-51489278D01*
X38654218Y-51605353D01*
X38470364Y-51927954D01*
X38352980Y-52280224D01*
X38306576Y-52648626D01*
X33827000Y-52648626D01*
X33827000Y-51456751D01*
X38989278Y-51456751D01*
X40200000Y-52667473D01*
X41410722Y-51456751D01*
X41294647Y-51154218D01*
X40972046Y-50970364D01*
X40619776Y-50852980D01*
X40251374Y-50806576D01*
X39880998Y-50832935D01*
X39522881Y-50931044D01*
X39190785Y-51097134D01*
X39105353Y-51154218D01*
X38989278Y-51456751D01*
X33827000Y-51456751D01*
X33827000Y-46450000D01*
X38311928Y-46450000D01*
X38311928Y-48950000D01*
X38324188Y-49074482D01*
X38360498Y-49194180D01*
X38419463Y-49304494D01*
X38498815Y-49401185D01*
X38595506Y-49480537D01*
X38705820Y-49539502D01*
X38825518Y-49575812D01*
X38950000Y-49588072D01*
X41450000Y-49588072D01*
X41574482Y-49575812D01*
X41694180Y-49539502D01*
X41804494Y-49480537D01*
X41901185Y-49401185D01*
X41980537Y-49304494D01*
X42039502Y-49194180D01*
X42075812Y-49074482D01*
X42088072Y-48950000D01*
X42088072Y-46450000D01*
X42075812Y-46325518D01*
X42039502Y-46205820D01*
X41980537Y-46095506D01*
X41901185Y-45998815D01*
X41804494Y-45919463D01*
X41694180Y-45860498D01*
X41574482Y-45824188D01*
X41450000Y-45811928D01*
X38950000Y-45811928D01*
X38825518Y-45824188D01*
X38705820Y-45860498D01*
X38595506Y-45919463D01*
X38498815Y-45998815D01*
X38419463Y-46095506D01*
X38360498Y-46205820D01*
X38324188Y-46325518D01*
X38311928Y-46450000D01*
X33827000Y-46450000D01*
X33827000Y-42758665D01*
X41705000Y-42758665D01*
X41705000Y-43041335D01*
X41760147Y-43318574D01*
X41868320Y-43579727D01*
X42025363Y-43814759D01*
X42225241Y-44014637D01*
X42460273Y-44171680D01*
X42721426Y-44279853D01*
X42998665Y-44335000D01*
X43281335Y-44335000D01*
X43558574Y-44279853D01*
X43819727Y-44171680D01*
X44054759Y-44014637D01*
X44254637Y-43814759D01*
X44411680Y-43579727D01*
X44519853Y-43318574D01*
X44575000Y-43041335D01*
X44575000Y-42758665D01*
X51865000Y-42758665D01*
X51865000Y-43041335D01*
X51920147Y-43318574D01*
X52028320Y-43579727D01*
X52185363Y-43814759D01*
X52385241Y-44014637D01*
X52620273Y-44171680D01*
X52881426Y-44279853D01*
X53158665Y-44335000D01*
X53441335Y-44335000D01*
X53623886Y-44298688D01*
X53721202Y-44396004D01*
X53745000Y-44425002D01*
X53860725Y-44519975D01*
X53992754Y-44590547D01*
X54136015Y-44634004D01*
X54247668Y-44645001D01*
X54247676Y-44645001D01*
X54285001Y-44648677D01*
X54322326Y-44645001D01*
X57417677Y-44645001D01*
X57454999Y-44648677D01*
X57492321Y-44645001D01*
X57492332Y-44645001D01*
X57603985Y-44634004D01*
X57747246Y-44590547D01*
X57879275Y-44519975D01*
X57995000Y-44425002D01*
X58018803Y-44395999D01*
X58250130Y-44164671D01*
X58402604Y-44195000D01*
X58677396Y-44195000D01*
X58946907Y-44141391D01*
X59200780Y-44036233D01*
X59429261Y-43883567D01*
X59623567Y-43689261D01*
X59776233Y-43460780D01*
X59810000Y-43379260D01*
X59843767Y-43460780D01*
X59996433Y-43689261D01*
X60190739Y-43883567D01*
X60419220Y-44036233D01*
X60673093Y-44141391D01*
X60942604Y-44195000D01*
X61217396Y-44195000D01*
X61486907Y-44141391D01*
X61740780Y-44036233D01*
X61969261Y-43883567D01*
X62163567Y-43689261D01*
X62249936Y-43560000D01*
X77462678Y-43560000D01*
X77500000Y-43563676D01*
X77537322Y-43560000D01*
X77537333Y-43560000D01*
X77648986Y-43549003D01*
X77792247Y-43505546D01*
X77924276Y-43434974D01*
X78040001Y-43340001D01*
X78063804Y-43310997D01*
X79386729Y-41988072D01*
X81450000Y-41988072D01*
X81574482Y-41975812D01*
X81694180Y-41939502D01*
X81804494Y-41880537D01*
X81901185Y-41801185D01*
X81980537Y-41704494D01*
X82039502Y-41594180D01*
X82075812Y-41474482D01*
X82088072Y-41350000D01*
X82088072Y-38850000D01*
X82075812Y-38725518D01*
X82039502Y-38605820D01*
X81980537Y-38495506D01*
X81901185Y-38398815D01*
X81804494Y-38319463D01*
X81694180Y-38260498D01*
X81574482Y-38224188D01*
X81450000Y-38211928D01*
X78950000Y-38211928D01*
X78825518Y-38224188D01*
X78705820Y-38260498D01*
X78595506Y-38319463D01*
X78498815Y-38398815D01*
X78419463Y-38495506D01*
X78360498Y-38605820D01*
X78324188Y-38725518D01*
X78311928Y-38850000D01*
X78311928Y-40913271D01*
X77185199Y-42040000D01*
X62249936Y-42040000D01*
X62163567Y-41910739D01*
X61969261Y-41716433D01*
X61740780Y-41563767D01*
X61486907Y-41458609D01*
X61217396Y-41405000D01*
X60942604Y-41405000D01*
X60673093Y-41458609D01*
X60419220Y-41563767D01*
X60190739Y-41716433D01*
X59996433Y-41910739D01*
X59843767Y-42139220D01*
X59810000Y-42220740D01*
X59776233Y-42139220D01*
X59623567Y-41910739D01*
X59429261Y-41716433D01*
X59200780Y-41563767D01*
X58946907Y-41458609D01*
X58677396Y-41405000D01*
X58402604Y-41405000D01*
X58133093Y-41458609D01*
X57879220Y-41563767D01*
X57650739Y-41716433D01*
X57456433Y-41910739D01*
X57394474Y-42003467D01*
X57385812Y-41915518D01*
X57349502Y-41795820D01*
X57290537Y-41685506D01*
X57211185Y-41588815D01*
X57114494Y-41509463D01*
X57004180Y-41450498D01*
X56884482Y-41414188D01*
X56760000Y-41401928D01*
X56181750Y-41405000D01*
X56023000Y-41563750D01*
X56023000Y-42777000D01*
X56043000Y-42777000D01*
X56043000Y-42823000D01*
X56023000Y-42823000D01*
X56023000Y-42843000D01*
X55977000Y-42843000D01*
X55977000Y-42823000D01*
X55957000Y-42823000D01*
X55957000Y-42777000D01*
X55977000Y-42777000D01*
X55977000Y-41563750D01*
X55818250Y-41405000D01*
X55240000Y-41401928D01*
X55115518Y-41414188D01*
X54995820Y-41450498D01*
X54885506Y-41509463D01*
X54788815Y-41588815D01*
X54709463Y-41685506D01*
X54650498Y-41795820D01*
X54614188Y-41915518D01*
X54601928Y-42040000D01*
X54603291Y-42296589D01*
X54571680Y-42220273D01*
X54414637Y-41985241D01*
X54214759Y-41785363D01*
X53979727Y-41628320D01*
X53718574Y-41520147D01*
X53441335Y-41465000D01*
X53158665Y-41465000D01*
X52881426Y-41520147D01*
X52620273Y-41628320D01*
X52385241Y-41785363D01*
X52185363Y-41985241D01*
X52028320Y-42220273D01*
X51920147Y-42481426D01*
X51865000Y-42758665D01*
X44575000Y-42758665D01*
X44519853Y-42481426D01*
X44411680Y-42220273D01*
X44254637Y-41985241D01*
X44054759Y-41785363D01*
X43819727Y-41628320D01*
X43558574Y-41520147D01*
X43281335Y-41465000D01*
X42998665Y-41465000D01*
X42721426Y-41520147D01*
X42460273Y-41628320D01*
X42225241Y-41785363D01*
X42025363Y-41985241D01*
X41868320Y-42220273D01*
X41760147Y-42481426D01*
X41705000Y-42758665D01*
X33827000Y-42758665D01*
X33827000Y-39914344D01*
X63315000Y-39914344D01*
X63315000Y-40285656D01*
X63387439Y-40649834D01*
X63529534Y-40992882D01*
X63735825Y-41301618D01*
X63998382Y-41564175D01*
X64307118Y-41770466D01*
X64650166Y-41912561D01*
X65014344Y-41985000D01*
X65385656Y-41985000D01*
X65749834Y-41912561D01*
X66092882Y-41770466D01*
X66401618Y-41564175D01*
X66622544Y-41343249D01*
X68989278Y-41343249D01*
X69105353Y-41645782D01*
X69427954Y-41829636D01*
X69780224Y-41947020D01*
X70148626Y-41993424D01*
X70519002Y-41967065D01*
X70877119Y-41868956D01*
X71209215Y-41702866D01*
X71294647Y-41645782D01*
X71410722Y-41343249D01*
X70200000Y-40132527D01*
X68989278Y-41343249D01*
X66622544Y-41343249D01*
X66664175Y-41301618D01*
X66870466Y-40992882D01*
X67012561Y-40649834D01*
X67085000Y-40285656D01*
X67085000Y-40048626D01*
X68306576Y-40048626D01*
X68332935Y-40419002D01*
X68431044Y-40777119D01*
X68597134Y-41109215D01*
X68654218Y-41194647D01*
X68956751Y-41310722D01*
X70167473Y-40100000D01*
X70232527Y-40100000D01*
X71443249Y-41310722D01*
X71745782Y-41194647D01*
X71929636Y-40872046D01*
X72047020Y-40519776D01*
X72093424Y-40151374D01*
X72067065Y-39780998D01*
X71968956Y-39422881D01*
X71802866Y-39090785D01*
X71745782Y-39005353D01*
X71443249Y-38889278D01*
X70232527Y-40100000D01*
X70167473Y-40100000D01*
X68956751Y-38889278D01*
X68654218Y-39005353D01*
X68470364Y-39327954D01*
X68352980Y-39680224D01*
X68306576Y-40048626D01*
X67085000Y-40048626D01*
X67085000Y-39914344D01*
X67012561Y-39550166D01*
X66988585Y-39492283D01*
X67624117Y-38856751D01*
X68989278Y-38856751D01*
X70200000Y-40067473D01*
X71410722Y-38856751D01*
X71294647Y-38554218D01*
X70972046Y-38370364D01*
X70619776Y-38252980D01*
X70251374Y-38206576D01*
X69880998Y-38232935D01*
X69522881Y-38331044D01*
X69190785Y-38497134D01*
X69105353Y-38554218D01*
X68989278Y-38856751D01*
X67624117Y-38856751D01*
X68845869Y-37635000D01*
X71554133Y-37635000D01*
X73411415Y-39492283D01*
X73387439Y-39550166D01*
X73315000Y-39914344D01*
X73315000Y-40285656D01*
X73387439Y-40649834D01*
X73529534Y-40992882D01*
X73735825Y-41301618D01*
X73998382Y-41564175D01*
X74307118Y-41770466D01*
X74650166Y-41912561D01*
X75014344Y-41985000D01*
X75385656Y-41985000D01*
X75749834Y-41912561D01*
X76092882Y-41770466D01*
X76401618Y-41564175D01*
X76664175Y-41301618D01*
X76870466Y-40992882D01*
X77012561Y-40649834D01*
X77085000Y-40285656D01*
X77085000Y-39914344D01*
X77012561Y-39550166D01*
X76870466Y-39207118D01*
X76664175Y-38898382D01*
X76401618Y-38635825D01*
X76092882Y-38429534D01*
X75749834Y-38287439D01*
X75385656Y-38215000D01*
X75014344Y-38215000D01*
X74650166Y-38287439D01*
X74592283Y-38311415D01*
X72519446Y-36238579D01*
X72493291Y-36206709D01*
X72366146Y-36102364D01*
X72221087Y-36024828D01*
X72063689Y-35977082D01*
X71941019Y-35965000D01*
X71941018Y-35965000D01*
X71900000Y-35960960D01*
X71858982Y-35965000D01*
X68541018Y-35965000D01*
X68500000Y-35960960D01*
X68458982Y-35965000D01*
X68458981Y-35965000D01*
X68336311Y-35977082D01*
X68196078Y-36019621D01*
X68178913Y-36024828D01*
X68033854Y-36102364D01*
X67950216Y-36171004D01*
X67906709Y-36206709D01*
X67880563Y-36238568D01*
X65807717Y-38311415D01*
X65749834Y-38287439D01*
X65385656Y-38215000D01*
X65014344Y-38215000D01*
X64650166Y-38287439D01*
X64307118Y-38429534D01*
X63998382Y-38635825D01*
X63735825Y-38898382D01*
X63529534Y-39207118D01*
X63387439Y-39550166D01*
X63315000Y-39914344D01*
X33827000Y-39914344D01*
X33827000Y-35527000D01*
X84209332Y-35527000D01*
X83893425Y-35842907D01*
G37*
X83893425Y-35842907D02*
X83540270Y-36371442D01*
X83297012Y-36958719D01*
X83173000Y-37582168D01*
X83173000Y-38217832D01*
X83297012Y-38841281D01*
X83540270Y-39428558D01*
X83893425Y-39957093D01*
X84342907Y-40406575D01*
X84871442Y-40759730D01*
X85458719Y-41002988D01*
X86082168Y-41127000D01*
X86717832Y-41127000D01*
X87341281Y-41002988D01*
X87928558Y-40759730D01*
X88457093Y-40406575D01*
X88840001Y-40023667D01*
X88840000Y-95467721D01*
X88830420Y-95565424D01*
X88811420Y-95628357D01*
X88780554Y-95686406D01*
X88739011Y-95737343D01*
X88688356Y-95779248D01*
X88630529Y-95810515D01*
X88567728Y-95829956D01*
X88472165Y-95840000D01*
X38223668Y-95840000D01*
X38606575Y-95457093D01*
X38959730Y-94928558D01*
X39202988Y-94341281D01*
X39297294Y-93867172D01*
X48466446Y-93867172D01*
X48541828Y-94138193D01*
X48668635Y-94389300D01*
X48841994Y-94610844D01*
X49055243Y-94794310D01*
X49300187Y-94932648D01*
X49567413Y-95020542D01*
X49632828Y-95033553D01*
X49857000Y-94896043D01*
X49857000Y-93643000D01*
X48603933Y-93643000D01*
X48466446Y-93867172D01*
X39297294Y-93867172D01*
X39327000Y-93717832D01*
X39327000Y-93372828D01*
X48466446Y-93372828D01*
X48603933Y-93597000D01*
X49857000Y-93597000D01*
X49857000Y-92343957D01*
X49632828Y-92206447D01*
X49567413Y-92219458D01*
X49300187Y-92307352D01*
X49055243Y-92445690D01*
X48841994Y-92629156D01*
X48668635Y-92850700D01*
X48541828Y-93101807D01*
X48466446Y-93372828D01*
X39327000Y-93372828D01*
X39327000Y-93082168D01*
X39202988Y-92458719D01*
X38959730Y-91871442D01*
X38606575Y-91342907D01*
X38157093Y-90893425D01*
X37628558Y-90540270D01*
X37041281Y-90297012D01*
X36417832Y-90173000D01*
X35782168Y-90173000D01*
X35158719Y-90297012D01*
X34571442Y-90540270D01*
X34042907Y-90893425D01*
X33827000Y-91109332D01*
X33827000Y-87014994D01*
X33937057Y-87014994D01*
X33950833Y-87084259D01*
X34041938Y-87360747D01*
X34185233Y-87614149D01*
X34375211Y-87834726D01*
X34604571Y-88014002D01*
X34864499Y-88145087D01*
X35145006Y-88222944D01*
X35377000Y-88086073D01*
X35377000Y-86783000D01*
X35423000Y-86783000D01*
X35423000Y-88086073D01*
X35654994Y-88222944D01*
X35935501Y-88145087D01*
X36195429Y-88014002D01*
X36424789Y-87834726D01*
X36614767Y-87614149D01*
X36758062Y-87360747D01*
X36849167Y-87084259D01*
X36862943Y-87014994D01*
X36846527Y-86987172D01*
X37486447Y-86987172D01*
X37499458Y-87052587D01*
X37587352Y-87319813D01*
X37725690Y-87564757D01*
X37909156Y-87778006D01*
X38130700Y-87951365D01*
X38381807Y-88078172D01*
X38652828Y-88153554D01*
X38877000Y-88016067D01*
X38877000Y-86763000D01*
X38923000Y-86763000D01*
X38923000Y-88016067D01*
X39147172Y-88153554D01*
X39418193Y-88078172D01*
X39669300Y-87951365D01*
X39890844Y-87778006D01*
X40074310Y-87564757D01*
X40212648Y-87319813D01*
X40300542Y-87052587D01*
X40313553Y-86987172D01*
X40176043Y-86763000D01*
X38923000Y-86763000D01*
X38877000Y-86763000D01*
X37623957Y-86763000D01*
X37486447Y-86987172D01*
X36846527Y-86987172D01*
X36726051Y-86783000D01*
X35423000Y-86783000D01*
X35377000Y-86783000D01*
X34073949Y-86783000D01*
X33937057Y-87014994D01*
X33827000Y-87014994D01*
X33827000Y-75750000D01*
X33911928Y-75750000D01*
X33911928Y-77450000D01*
X33924188Y-77574482D01*
X33960498Y-77694180D01*
X34019463Y-77804494D01*
X34098815Y-77901185D01*
X34195506Y-77980537D01*
X34305820Y-78039502D01*
X34378380Y-78061513D01*
X34246525Y-78193368D01*
X34084010Y-78436589D01*
X33972068Y-78706842D01*
X33915000Y-78993740D01*
X33915000Y-79286260D01*
X33972068Y-79573158D01*
X34084010Y-79843411D01*
X34246525Y-80086632D01*
X34453368Y-80293475D01*
X34627760Y-80410000D01*
X34453368Y-80526525D01*
X34246525Y-80733368D01*
X34084010Y-80976589D01*
X33972068Y-81246842D01*
X33915000Y-81533740D01*
X33915000Y-81826260D01*
X33972068Y-82113158D01*
X34084010Y-82383411D01*
X34246525Y-82626632D01*
X34453368Y-82833475D01*
X34627760Y-82950000D01*
X34453368Y-83066525D01*
X34246525Y-83273368D01*
X34084010Y-83516589D01*
X33972068Y-83786842D01*
X33915000Y-84073740D01*
X33915000Y-84366260D01*
X33972068Y-84653158D01*
X34084010Y-84923411D01*
X34246525Y-85166632D01*
X34453368Y-85373475D01*
X34631430Y-85492452D01*
X34604571Y-85505998D01*
X34375211Y-85685274D01*
X34185233Y-85905851D01*
X34041938Y-86159253D01*
X33950833Y-86435741D01*
X33937057Y-86505006D01*
X34073949Y-86737000D01*
X35377000Y-86737000D01*
X35377000Y-86717000D01*
X35423000Y-86717000D01*
X35423000Y-86737000D01*
X36726051Y-86737000D01*
X36862943Y-86505006D01*
X36849167Y-86435741D01*
X36758062Y-86159253D01*
X36614767Y-85905851D01*
X36424789Y-85685274D01*
X36195429Y-85505998D01*
X36168570Y-85492452D01*
X36346632Y-85373475D01*
X36553475Y-85166632D01*
X36715990Y-84923411D01*
X36827932Y-84653158D01*
X36885000Y-84366260D01*
X36885000Y-84073740D01*
X36827932Y-83786842D01*
X36715990Y-83516589D01*
X36553475Y-83273368D01*
X36346632Y-83066525D01*
X36172240Y-82950000D01*
X36346632Y-82833475D01*
X36553475Y-82626632D01*
X36678178Y-82440000D01*
X37695320Y-82440000D01*
X37785363Y-82574759D01*
X37985241Y-82774637D01*
X38217759Y-82930000D01*
X37985241Y-83085363D01*
X37785363Y-83285241D01*
X37628320Y-83520273D01*
X37520147Y-83781426D01*
X37465000Y-84058665D01*
X37465000Y-84341335D01*
X37520147Y-84618574D01*
X37628320Y-84879727D01*
X37785363Y-85114759D01*
X37985241Y-85314637D01*
X38220273Y-85471680D01*
X38233025Y-85476962D01*
X38130700Y-85528635D01*
X37909156Y-85701994D01*
X37725690Y-85915243D01*
X37587352Y-86160187D01*
X37499458Y-86427413D01*
X37486447Y-86492828D01*
X37623957Y-86717000D01*
X38877000Y-86717000D01*
X38877000Y-86697000D01*
X38923000Y-86697000D01*
X38923000Y-86717000D01*
X40176043Y-86717000D01*
X40313553Y-86492828D01*
X40300542Y-86427413D01*
X40283491Y-86375572D01*
X40314999Y-86378675D01*
X40352324Y-86374999D01*
X45129491Y-86374999D01*
X45085000Y-86598665D01*
X45085000Y-86881335D01*
X45140147Y-87158574D01*
X45248320Y-87419727D01*
X45405363Y-87654759D01*
X45605241Y-87854637D01*
X45840273Y-88011680D01*
X46101426Y-88119853D01*
X46378665Y-88175000D01*
X46661335Y-88175000D01*
X46938574Y-88119853D01*
X47199727Y-88011680D01*
X47434759Y-87854637D01*
X47634637Y-87654759D01*
X47791680Y-87419727D01*
X47899853Y-87158574D01*
X47955000Y-86881335D01*
X47955000Y-86598665D01*
X47910509Y-86374999D01*
X48491479Y-86374999D01*
X48500147Y-86418574D01*
X48608320Y-86679727D01*
X48765363Y-86914759D01*
X48965241Y-87114637D01*
X49200273Y-87271680D01*
X49461426Y-87379853D01*
X49738665Y-87435000D01*
X50021335Y-87435000D01*
X50298574Y-87379853D01*
X50559727Y-87271680D01*
X50794759Y-87114637D01*
X50994637Y-86914759D01*
X51150000Y-86682241D01*
X51305363Y-86914759D01*
X51505241Y-87114637D01*
X51740273Y-87271680D01*
X52001426Y-87379853D01*
X52278665Y-87435000D01*
X52561335Y-87435000D01*
X52838574Y-87379853D01*
X53099727Y-87271680D01*
X53334759Y-87114637D01*
X53534637Y-86914759D01*
X53691680Y-86679727D01*
X53696962Y-86666975D01*
X53748635Y-86769300D01*
X53921994Y-86990844D01*
X54135243Y-87174310D01*
X54380187Y-87312648D01*
X54647413Y-87400542D01*
X54712828Y-87413553D01*
X54937000Y-87276043D01*
X54937000Y-86023000D01*
X54917000Y-86023000D01*
X54917000Y-85977000D01*
X54937000Y-85977000D01*
X54937000Y-84723957D01*
X54712828Y-84586447D01*
X54647413Y-84599458D01*
X54380187Y-84687352D01*
X54135243Y-84825690D01*
X53921994Y-85009156D01*
X53748635Y-85230700D01*
X53696962Y-85333025D01*
X53691680Y-85320273D01*
X53534637Y-85085241D01*
X53334759Y-84885363D01*
X53099727Y-84728320D01*
X52838574Y-84620147D01*
X52561335Y-84565000D01*
X52278665Y-84565000D01*
X52096113Y-84601312D01*
X51858803Y-84364001D01*
X51835000Y-84334998D01*
X51719275Y-84240025D01*
X51587246Y-84169453D01*
X51443985Y-84125996D01*
X51332332Y-84114999D01*
X51332321Y-84114999D01*
X51294999Y-84111323D01*
X51257677Y-84114999D01*
X50414217Y-84114999D01*
X50414759Y-84114637D01*
X50614637Y-83914759D01*
X50771680Y-83679727D01*
X50879853Y-83418574D01*
X50935000Y-83141335D01*
X50935000Y-82858665D01*
X50879853Y-82581426D01*
X50812988Y-82420000D01*
X52845199Y-82420000D01*
X55085984Y-84660785D01*
X54983000Y-84723957D01*
X54983000Y-85977000D01*
X55003000Y-85977000D01*
X55003000Y-86023000D01*
X54983000Y-86023000D01*
X54983000Y-87276043D01*
X55207172Y-87413553D01*
X55272587Y-87400542D01*
X55539813Y-87312648D01*
X55784757Y-87174310D01*
X55998006Y-86990844D01*
X56071477Y-86896952D01*
X56074188Y-86924482D01*
X56110498Y-87044180D01*
X56169463Y-87154494D01*
X56248815Y-87251185D01*
X56345506Y-87330537D01*
X56455820Y-87389502D01*
X56575518Y-87425812D01*
X56700000Y-87438072D01*
X57130685Y-87438072D01*
X57082795Y-87509744D01*
X57004774Y-87698102D01*
X56965000Y-87898061D01*
X56965000Y-88000198D01*
X52743887Y-92221312D01*
X52561335Y-92185000D01*
X52278665Y-92185000D01*
X52001426Y-92240147D01*
X51740273Y-92348320D01*
X51505241Y-92505363D01*
X51305363Y-92705241D01*
X51148320Y-92940273D01*
X51143038Y-92953025D01*
X51091365Y-92850700D01*
X50918006Y-92629156D01*
X50704757Y-92445690D01*
X50459813Y-92307352D01*
X50192587Y-92219458D01*
X50127172Y-92206447D01*
X49903000Y-92343957D01*
X49903000Y-93597000D01*
X49923000Y-93597000D01*
X49923000Y-93643000D01*
X49903000Y-93643000D01*
X49903000Y-94896043D01*
X50127172Y-95033553D01*
X50192587Y-95020542D01*
X50459813Y-94932648D01*
X50704757Y-94794310D01*
X50918006Y-94610844D01*
X51091365Y-94389300D01*
X51143038Y-94286975D01*
X51148320Y-94299727D01*
X51305363Y-94534759D01*
X51505241Y-94734637D01*
X51740273Y-94891680D01*
X52001426Y-94999853D01*
X52278665Y-95055000D01*
X52561335Y-95055000D01*
X52838574Y-94999853D01*
X53099727Y-94891680D01*
X53334759Y-94734637D01*
X53534637Y-94534759D01*
X53691680Y-94299727D01*
X53696962Y-94286975D01*
X53748635Y-94389300D01*
X53921994Y-94610844D01*
X54135243Y-94794310D01*
X54380187Y-94932648D01*
X54647413Y-95020542D01*
X54712828Y-95033553D01*
X54937000Y-94896043D01*
X54937000Y-93643000D01*
X54917000Y-93643000D01*
X54917000Y-93597000D01*
X54937000Y-93597000D01*
X54937000Y-92343957D01*
X54834016Y-92280785D01*
X56148422Y-90966379D01*
X59558449Y-90966379D01*
X59579589Y-91248257D01*
X59655314Y-91520595D01*
X59782715Y-91772928D01*
X59820072Y-91828838D01*
X60076528Y-91890945D01*
X60967473Y-91000000D01*
X60076528Y-90109055D01*
X59820072Y-90171162D01*
X59681046Y-90417280D01*
X59592707Y-90685792D01*
X59558449Y-90966379D01*
X56148422Y-90966379D01*
X58079802Y-89035000D01*
X58101939Y-89035000D01*
X58301898Y-88995226D01*
X58490256Y-88917205D01*
X58659774Y-88803937D01*
X58803937Y-88659774D01*
X58917205Y-88490256D01*
X58995226Y-88301898D01*
X59035000Y-88101939D01*
X59035000Y-87898061D01*
X58995226Y-87698102D01*
X58917205Y-87509744D01*
X58881488Y-87456289D01*
X59601312Y-88176114D01*
X59565000Y-88358665D01*
X59565000Y-88641335D01*
X59620147Y-88918574D01*
X59728320Y-89179727D01*
X59885363Y-89414759D01*
X60085241Y-89614637D01*
X60289566Y-89751162D01*
X60227072Y-89782715D01*
X60171162Y-89820072D01*
X60109055Y-90076528D01*
X61000000Y-90967473D01*
X61014142Y-90953331D01*
X61046669Y-90985858D01*
X61032527Y-91000000D01*
X61046669Y-91014142D01*
X61014142Y-91046669D01*
X61000000Y-91032527D01*
X60109055Y-91923472D01*
X60171162Y-92179928D01*
X60323960Y-92266240D01*
X59730201Y-92860000D01*
X58718043Y-92860000D01*
X58614637Y-92705241D01*
X58414759Y-92505363D01*
X58179727Y-92348320D01*
X57918574Y-92240147D01*
X57641335Y-92185000D01*
X57358665Y-92185000D01*
X57081426Y-92240147D01*
X56820273Y-92348320D01*
X56585241Y-92505363D01*
X56385363Y-92705241D01*
X56228320Y-92940273D01*
X56223038Y-92953025D01*
X56171365Y-92850700D01*
X55998006Y-92629156D01*
X55784757Y-92445690D01*
X55539813Y-92307352D01*
X55272587Y-92219458D01*
X55207172Y-92206447D01*
X54983000Y-92343957D01*
X54983000Y-93597000D01*
X55003000Y-93597000D01*
X55003000Y-93643000D01*
X54983000Y-93643000D01*
X54983000Y-94896043D01*
X55207172Y-95033553D01*
X55272587Y-95020542D01*
X55539813Y-94932648D01*
X55784757Y-94794310D01*
X55998006Y-94610844D01*
X56171365Y-94389300D01*
X56223038Y-94286975D01*
X56228320Y-94299727D01*
X56385363Y-94534759D01*
X56585241Y-94734637D01*
X56820273Y-94891680D01*
X57081426Y-94999853D01*
X57358665Y-95055000D01*
X57641335Y-95055000D01*
X57918574Y-94999853D01*
X58179727Y-94891680D01*
X58414759Y-94734637D01*
X58614637Y-94534759D01*
X58718043Y-94380000D01*
X60007680Y-94380000D01*
X60045002Y-94383676D01*
X60082324Y-94380000D01*
X60082335Y-94380000D01*
X60193988Y-94369003D01*
X60337249Y-94325546D01*
X60469278Y-94254974D01*
X60585003Y-94160001D01*
X60608806Y-94130997D01*
X62636004Y-92103800D01*
X62665002Y-92080002D01*
X62759975Y-91964277D01*
X62830547Y-91832248D01*
X62874004Y-91688987D01*
X62885001Y-91577334D01*
X62885001Y-91577326D01*
X62888677Y-91540001D01*
X62885001Y-91502676D01*
X62885001Y-88999802D01*
X65530198Y-91645000D01*
X65286544Y-91645000D01*
X65024761Y-91697072D01*
X64778167Y-91799215D01*
X64556238Y-91947503D01*
X64367503Y-92136238D01*
X64219215Y-92358167D01*
X64117072Y-92604761D01*
X64065000Y-92866544D01*
X64065000Y-93133456D01*
X64117072Y-93395239D01*
X64219215Y-93641833D01*
X64367503Y-93863762D01*
X64556238Y-94052497D01*
X64778167Y-94200785D01*
X65024761Y-94302928D01*
X65286544Y-94355000D01*
X65553456Y-94355000D01*
X65815239Y-94302928D01*
X66061833Y-94200785D01*
X66283762Y-94052497D01*
X66472497Y-93863762D01*
X66620785Y-93641833D01*
X66690000Y-93474734D01*
X66759215Y-93641833D01*
X66907503Y-93863762D01*
X67096238Y-94052497D01*
X67318167Y-94200785D01*
X67564761Y-94302928D01*
X67826544Y-94355000D01*
X68093456Y-94355000D01*
X68215852Y-94330654D01*
X68441202Y-94556004D01*
X68465000Y-94585002D01*
X68493998Y-94608800D01*
X68580725Y-94679975D01*
X68712754Y-94750547D01*
X68856015Y-94794004D01*
X69005001Y-94808678D01*
X69042334Y-94805001D01*
X80964279Y-94805001D01*
X81001601Y-94808677D01*
X81038923Y-94805001D01*
X81038934Y-94805001D01*
X81150587Y-94794004D01*
X81293848Y-94750547D01*
X81425877Y-94679975D01*
X81541602Y-94585002D01*
X81565405Y-94555998D01*
X86011004Y-90110400D01*
X86040001Y-90086603D01*
X86066332Y-90054519D01*
X86134974Y-89970879D01*
X86205546Y-89838849D01*
X86219013Y-89794454D01*
X86249003Y-89695588D01*
X86260000Y-89583935D01*
X86260000Y-89583925D01*
X86263676Y-89546602D01*
X86260000Y-89509279D01*
X86260000Y-86308245D01*
X86462569Y-86172893D01*
X86672893Y-85962569D01*
X86838144Y-85715253D01*
X86951971Y-85440451D01*
X87010000Y-85148722D01*
X87010000Y-84851278D01*
X86951971Y-84559549D01*
X86838144Y-84284747D01*
X86672893Y-84037431D01*
X86462569Y-83827107D01*
X86353350Y-83754129D01*
X86373140Y-83740905D01*
X86444243Y-83476770D01*
X85500000Y-82532527D01*
X84555757Y-83476770D01*
X84626860Y-83740905D01*
X84648291Y-83753033D01*
X84537431Y-83827107D01*
X84327107Y-84037431D01*
X84161856Y-84284747D01*
X84048029Y-84559549D01*
X83990000Y-84851278D01*
X83990000Y-85148722D01*
X84048029Y-85440451D01*
X84161856Y-85715253D01*
X84327107Y-85962569D01*
X84537431Y-86172893D01*
X84740001Y-86308246D01*
X84740000Y-89231800D01*
X81665877Y-92305924D01*
X81552497Y-92136238D01*
X81363762Y-91947503D01*
X81260000Y-91878172D01*
X81260000Y-90537322D01*
X81263676Y-90499999D01*
X81260000Y-90462676D01*
X81260000Y-90462667D01*
X81249003Y-90351014D01*
X81205546Y-90207753D01*
X81134974Y-90075724D01*
X81120104Y-90057605D01*
X81063799Y-89988996D01*
X81063795Y-89988992D01*
X81040001Y-89959999D01*
X81011008Y-89936205D01*
X78398688Y-87323886D01*
X78435000Y-87141335D01*
X78435000Y-86858665D01*
X78379853Y-86581426D01*
X78271680Y-86320273D01*
X78114637Y-86085241D01*
X77914759Y-85885363D01*
X77679727Y-85728320D01*
X77418574Y-85620147D01*
X77141335Y-85565000D01*
X76858665Y-85565000D01*
X76581426Y-85620147D01*
X76320273Y-85728320D01*
X76085241Y-85885363D01*
X75885363Y-86085241D01*
X75728320Y-86320273D01*
X75620147Y-86581426D01*
X75580000Y-86783256D01*
X75539853Y-86581426D01*
X75431680Y-86320273D01*
X75274637Y-86085241D01*
X75074759Y-85885363D01*
X74920000Y-85781957D01*
X74920000Y-85109396D01*
X75114637Y-84914759D01*
X75271680Y-84679727D01*
X75379853Y-84418574D01*
X75435000Y-84141335D01*
X75435000Y-83858665D01*
X75379853Y-83581426D01*
X75271680Y-83320273D01*
X75114637Y-83085241D01*
X74914759Y-82885363D01*
X74679727Y-82728320D01*
X74418574Y-82620147D01*
X74141335Y-82565000D01*
X73858665Y-82565000D01*
X73676114Y-82601312D01*
X73327755Y-82252953D01*
X73534759Y-82114637D01*
X73734637Y-81914759D01*
X73891680Y-81679727D01*
X73999853Y-81418574D01*
X74055000Y-81141335D01*
X74055000Y-80858665D01*
X73999853Y-80581426D01*
X73891680Y-80320273D01*
X73734637Y-80085241D01*
X73534759Y-79885363D01*
X73299727Y-79728320D01*
X73038574Y-79620147D01*
X72761335Y-79565000D01*
X72478665Y-79565000D01*
X72254999Y-79609491D01*
X72254999Y-74832324D01*
X72258675Y-74794999D01*
X72255572Y-74763491D01*
X72307413Y-74780542D01*
X72372828Y-74793553D01*
X72597000Y-74656043D01*
X72597000Y-73403000D01*
X72643000Y-73403000D01*
X72643000Y-74656043D01*
X72867172Y-74793553D01*
X72932587Y-74780542D01*
X73199813Y-74692648D01*
X73444757Y-74554310D01*
X73658006Y-74370844D01*
X73831365Y-74149300D01*
X73958172Y-73898193D01*
X74033554Y-73627172D01*
X73896067Y-73403000D01*
X72643000Y-73403000D01*
X72597000Y-73403000D01*
X72577000Y-73403000D01*
X72577000Y-73357000D01*
X72597000Y-73357000D01*
X72597000Y-73337000D01*
X72643000Y-73337000D01*
X72643000Y-73357000D01*
X73896067Y-73357000D01*
X74033554Y-73132828D01*
X74000781Y-73014999D01*
X74440198Y-73014999D01*
X76834921Y-75409723D01*
X76581426Y-75460147D01*
X76320273Y-75568320D01*
X76085241Y-75725363D01*
X75885363Y-75925241D01*
X75728320Y-76160273D01*
X75620147Y-76421426D01*
X75565000Y-76698665D01*
X75565000Y-76981335D01*
X75620147Y-77258574D01*
X75728320Y-77519727D01*
X75885363Y-77754759D01*
X76085241Y-77954637D01*
X76320273Y-78111680D01*
X76581426Y-78219853D01*
X76858665Y-78275000D01*
X77141335Y-78275000D01*
X77418574Y-78219853D01*
X77679727Y-78111680D01*
X77914759Y-77954637D01*
X78114637Y-77754759D01*
X78271680Y-77519727D01*
X78379853Y-77258574D01*
X78430277Y-77005079D01*
X81936205Y-80511008D01*
X81959999Y-80540001D01*
X81988992Y-80563795D01*
X81988996Y-80563799D01*
X82059685Y-80621811D01*
X82075724Y-80634974D01*
X82207753Y-80705546D01*
X82351014Y-80749003D01*
X82462667Y-80760000D01*
X82462676Y-80760000D01*
X82499999Y-80763676D01*
X82537322Y-80760000D01*
X83986928Y-80760000D01*
X83986928Y-80875000D01*
X83999188Y-80999482D01*
X84035498Y-81119180D01*
X84094463Y-81229494D01*
X84173815Y-81326185D01*
X84270506Y-81405537D01*
X84380820Y-81464502D01*
X84454245Y-81486775D01*
X84523228Y-81555758D01*
X84259095Y-81626860D01*
X84112597Y-81885725D01*
X84019417Y-82168197D01*
X83983134Y-82463419D01*
X84005143Y-82760048D01*
X84084599Y-83046683D01*
X84218448Y-83312310D01*
X84259095Y-83373140D01*
X84523230Y-83444243D01*
X85467473Y-82500000D01*
X85453331Y-82485858D01*
X85485858Y-82453331D01*
X85500000Y-82467473D01*
X85514142Y-82453331D01*
X85546669Y-82485858D01*
X85532527Y-82500000D01*
X86476770Y-83444243D01*
X86740905Y-83373140D01*
X86887403Y-83114275D01*
X86980583Y-82831803D01*
X87016866Y-82536581D01*
X86994857Y-82239952D01*
X86915401Y-81953317D01*
X86781552Y-81687690D01*
X86740905Y-81626860D01*
X86476772Y-81555758D01*
X86545755Y-81486775D01*
X86619180Y-81464502D01*
X86729494Y-81405537D01*
X86826185Y-81326185D01*
X86905537Y-81229494D01*
X86964502Y-81119180D01*
X87000812Y-80999482D01*
X87013072Y-80875000D01*
X87013072Y-79125000D01*
X87000812Y-79000518D01*
X86964502Y-78880820D01*
X86905537Y-78770506D01*
X86826185Y-78673815D01*
X86729494Y-78594463D01*
X86619180Y-78535498D01*
X86499482Y-78499188D01*
X86375000Y-78486928D01*
X84625000Y-78486928D01*
X84500518Y-78499188D01*
X84380820Y-78535498D01*
X84270506Y-78594463D01*
X84173815Y-78673815D01*
X84094463Y-78770506D01*
X84035498Y-78880820D01*
X83999188Y-79000518D01*
X83986928Y-79125000D01*
X83986928Y-79240000D01*
X82814803Y-79240000D01*
X75459802Y-71885001D01*
X78337677Y-71885001D01*
X78374999Y-71888677D01*
X78412321Y-71885001D01*
X78412332Y-71885001D01*
X78523985Y-71874004D01*
X78667246Y-71830547D01*
X78799275Y-71759975D01*
X78915000Y-71665002D01*
X78938803Y-71635998D01*
X85112332Y-65462470D01*
X85351278Y-65510000D01*
X85648722Y-65510000D01*
X85940451Y-65451971D01*
X86215253Y-65338144D01*
X86462569Y-65172893D01*
X86672893Y-64962569D01*
X86838144Y-64715253D01*
X86951971Y-64440451D01*
X87010000Y-64148722D01*
X87010000Y-63851278D01*
X86951971Y-63559549D01*
X86838144Y-63284747D01*
X86672893Y-63037431D01*
X86462569Y-62827107D01*
X86353350Y-62754129D01*
X86373140Y-62740905D01*
X86444243Y-62476770D01*
X85500000Y-61532527D01*
X84555757Y-62476770D01*
X84626860Y-62740905D01*
X84648291Y-62753033D01*
X84537431Y-62827107D01*
X84327107Y-63037431D01*
X84161856Y-63284747D01*
X84048029Y-63559549D01*
X83990000Y-63851278D01*
X83990000Y-64148722D01*
X84037530Y-64387668D01*
X78060198Y-70365001D01*
X74010509Y-70365001D01*
X74055000Y-70141335D01*
X74055000Y-69858665D01*
X73999853Y-69581426D01*
X73891680Y-69320273D01*
X73734637Y-69085241D01*
X73534759Y-68885363D01*
X73299727Y-68728320D01*
X73038574Y-68620147D01*
X72968578Y-68606224D01*
X75039802Y-66535000D01*
X75101939Y-66535000D01*
X75301898Y-66495226D01*
X75490256Y-66417205D01*
X75576576Y-66359528D01*
X75620147Y-66578574D01*
X75728320Y-66839727D01*
X75885363Y-67074759D01*
X76085241Y-67274637D01*
X76320273Y-67431680D01*
X76581426Y-67539853D01*
X76858665Y-67595000D01*
X77141335Y-67595000D01*
X77418574Y-67539853D01*
X77679727Y-67431680D01*
X77914759Y-67274637D01*
X78114637Y-67074759D01*
X78271680Y-66839727D01*
X78379853Y-66578574D01*
X78435000Y-66301335D01*
X78435000Y-66018665D01*
X78379853Y-65741426D01*
X78271680Y-65480273D01*
X78114637Y-65245241D01*
X77914759Y-65045363D01*
X77679727Y-64888320D01*
X77418574Y-64780147D01*
X77141335Y-64725000D01*
X76858665Y-64725000D01*
X76581426Y-64780147D01*
X76320273Y-64888320D01*
X76085241Y-65045363D01*
X75976854Y-65153750D01*
X75917205Y-65009744D01*
X75803937Y-64840226D01*
X75659774Y-64696063D01*
X75490256Y-64582795D01*
X75301898Y-64504774D01*
X75202492Y-64485001D01*
X80737677Y-64485001D01*
X80774999Y-64488677D01*
X80812321Y-64485001D01*
X80812332Y-64485001D01*
X80923985Y-64474004D01*
X81067246Y-64430547D01*
X81199275Y-64359975D01*
X81315000Y-64265002D01*
X81338803Y-64235998D01*
X83991992Y-61582810D01*
X84005143Y-61760048D01*
X84084599Y-62046683D01*
X84218448Y-62312310D01*
X84259095Y-62373140D01*
X84523230Y-62444243D01*
X85467473Y-61500000D01*
X85453331Y-61485858D01*
X85485858Y-61453331D01*
X85500000Y-61467473D01*
X85514142Y-61453331D01*
X85546669Y-61485858D01*
X85532527Y-61500000D01*
X86476770Y-62444243D01*
X86740905Y-62373140D01*
X86887403Y-62114275D01*
X86980583Y-61831803D01*
X87016866Y-61536581D01*
X86994857Y-61239952D01*
X86915401Y-60953317D01*
X86781552Y-60687690D01*
X86740905Y-60626860D01*
X86476772Y-60555758D01*
X86545755Y-60486775D01*
X86619180Y-60464502D01*
X86729494Y-60405537D01*
X86826185Y-60326185D01*
X86905537Y-60229494D01*
X86964502Y-60119180D01*
X87000812Y-59999482D01*
X87013072Y-59875000D01*
X87013072Y-58125000D01*
X87000812Y-58000518D01*
X86964502Y-57880820D01*
X86905537Y-57770506D01*
X86826185Y-57673815D01*
X86729494Y-57594463D01*
X86619180Y-57535498D01*
X86499482Y-57499188D01*
X86375000Y-57486928D01*
X84625000Y-57486928D01*
X84500518Y-57499188D01*
X84380820Y-57535498D01*
X84270506Y-57594463D01*
X84173815Y-57673815D01*
X84094463Y-57770506D01*
X84035498Y-57880820D01*
X83999188Y-58000518D01*
X83986928Y-58125000D01*
X83986928Y-59438269D01*
X80460198Y-62965001D01*
X76109801Y-62965001D01*
X76386007Y-62688796D01*
X76415000Y-62665002D01*
X76438794Y-62636009D01*
X76438798Y-62636005D01*
X76509972Y-62549278D01*
X76514931Y-62540001D01*
X76580545Y-62417248D01*
X76624002Y-62273987D01*
X76634999Y-62162334D01*
X76634999Y-62162325D01*
X76638675Y-62125002D01*
X76634999Y-62087679D01*
X76634999Y-57390509D01*
X76858665Y-57435000D01*
X77141335Y-57435000D01*
X77418574Y-57379853D01*
X77679727Y-57271680D01*
X77914759Y-57114637D01*
X78114637Y-56914759D01*
X78271680Y-56679727D01*
X78379853Y-56418574D01*
X78435000Y-56141335D01*
X78435000Y-55858665D01*
X78398688Y-55676114D01*
X81011008Y-53063795D01*
X81040001Y-53040001D01*
X81063795Y-53011008D01*
X81063799Y-53011004D01*
X81134973Y-52924277D01*
X81134974Y-52924276D01*
X81205546Y-52792247D01*
X81249003Y-52648986D01*
X81260000Y-52537333D01*
X81260000Y-52537324D01*
X81263676Y-52500001D01*
X81260000Y-52462678D01*
X81260000Y-51621828D01*
X81363762Y-51552497D01*
X81552497Y-51363762D01*
X81700785Y-51141833D01*
X81802928Y-50895239D01*
X81855000Y-50633456D01*
X81855000Y-50366544D01*
X81802928Y-50104761D01*
X81700785Y-49858167D01*
X81552497Y-49636238D01*
X81363762Y-49447503D01*
X81141833Y-49299215D01*
X80895239Y-49197072D01*
X80633456Y-49145000D01*
X80366544Y-49145000D01*
X80104761Y-49197072D01*
X79858167Y-49299215D01*
X79636238Y-49447503D01*
X79447503Y-49636238D01*
X79299215Y-49858167D01*
X79230000Y-50025266D01*
X79160785Y-49858167D01*
X79012497Y-49636238D01*
X78823762Y-49447503D01*
X78601833Y-49299215D01*
X78355239Y-49197072D01*
X78093456Y-49145000D01*
X77826544Y-49145000D01*
X77564761Y-49197072D01*
X77318167Y-49299215D01*
X77096238Y-49447503D01*
X76907503Y-49636238D01*
X76759215Y-49858167D01*
X76692563Y-50019078D01*
X76689257Y-50007231D01*
X76568734Y-49769080D01*
X76534884Y-49718419D01*
X76286620Y-49665907D01*
X75452527Y-50500000D01*
X75466669Y-50514142D01*
X75434142Y-50546669D01*
X75420000Y-50532527D01*
X74585907Y-51366620D01*
X74638419Y-51614884D01*
X74870940Y-51745941D01*
X75124561Y-51829116D01*
X75389535Y-51861214D01*
X75535034Y-51850165D01*
X75364002Y-52021197D01*
X75334998Y-52045000D01*
X75309783Y-52075725D01*
X75240025Y-52160725D01*
X75176151Y-52280224D01*
X75169453Y-52292755D01*
X75125996Y-52436016D01*
X75114999Y-52547669D01*
X75114999Y-52547679D01*
X75111323Y-52585001D01*
X75114999Y-52622323D01*
X75114999Y-55585783D01*
X75114637Y-55585241D01*
X74914759Y-55385363D01*
X74679727Y-55228320D01*
X74418574Y-55120147D01*
X74141335Y-55065000D01*
X73858665Y-55065000D01*
X73581426Y-55120147D01*
X73320273Y-55228320D01*
X73085241Y-55385363D01*
X72885363Y-55585241D01*
X72728320Y-55820273D01*
X72620147Y-56081426D01*
X72565000Y-56358665D01*
X72565000Y-56641335D01*
X72620147Y-56918574D01*
X72728320Y-57179727D01*
X72885363Y-57414759D01*
X73085241Y-57614637D01*
X73320273Y-57771680D01*
X73400001Y-57804704D01*
X73400000Y-58281956D01*
X73245241Y-58385363D01*
X73045363Y-58585241D01*
X72943315Y-58737967D01*
X72922676Y-58740000D01*
X72922667Y-58740000D01*
X72811014Y-58750997D01*
X72675032Y-58792246D01*
X72667753Y-58794454D01*
X72535723Y-58865026D01*
X72452083Y-58933668D01*
X72419999Y-58959999D01*
X72396201Y-58988997D01*
X70403886Y-60981312D01*
X70221335Y-60945000D01*
X69938665Y-60945000D01*
X69661426Y-61000147D01*
X69400273Y-61108320D01*
X69165241Y-61265363D01*
X68965363Y-61465241D01*
X68810000Y-61697759D01*
X68654637Y-61465241D01*
X68454759Y-61265363D01*
X68219727Y-61108320D01*
X67958574Y-61000147D01*
X67681335Y-60945000D01*
X67398665Y-60945000D01*
X67121426Y-61000147D01*
X66860273Y-61108320D01*
X66754078Y-61179277D01*
X65398688Y-59823886D01*
X65435000Y-59641335D01*
X65435000Y-59358665D01*
X65379853Y-59081426D01*
X65271680Y-58820273D01*
X65114637Y-58585241D01*
X64914759Y-58385363D01*
X64679727Y-58228320D01*
X64418574Y-58120147D01*
X64141335Y-58065000D01*
X63858665Y-58065000D01*
X63634999Y-58109491D01*
X63634999Y-57922336D01*
X63698665Y-57935000D01*
X63981335Y-57935000D01*
X64258574Y-57879853D01*
X64519727Y-57771680D01*
X64754759Y-57614637D01*
X64954637Y-57414759D01*
X65111680Y-57179727D01*
X65219853Y-56918574D01*
X65275000Y-56641335D01*
X65275000Y-56358665D01*
X65219853Y-56081426D01*
X65111680Y-55820273D01*
X64954637Y-55585241D01*
X64754759Y-55385363D01*
X64600000Y-55281957D01*
X64600000Y-54474801D01*
X67357659Y-51717143D01*
X67564761Y-51802928D01*
X67826544Y-51855000D01*
X68093456Y-51855000D01*
X68355239Y-51802928D01*
X68601833Y-51700785D01*
X68823762Y-51552497D01*
X69012497Y-51363762D01*
X69160785Y-51141833D01*
X69230000Y-50974734D01*
X69299215Y-51141833D01*
X69447503Y-51363762D01*
X69636238Y-51552497D01*
X69858167Y-51700785D01*
X70104761Y-51802928D01*
X70366544Y-51855000D01*
X70633456Y-51855000D01*
X70895239Y-51802928D01*
X71141833Y-51700785D01*
X71363762Y-51552497D01*
X71552497Y-51363762D01*
X71700785Y-51141833D01*
X71802928Y-50895239D01*
X71855000Y-50633456D01*
X71855000Y-50469535D01*
X74058786Y-50469535D01*
X74078997Y-50735680D01*
X74150743Y-50992769D01*
X74271266Y-51230920D01*
X74305116Y-51281581D01*
X74553380Y-51334093D01*
X75387473Y-50500000D01*
X74553380Y-49665907D01*
X74305116Y-49718419D01*
X74174059Y-49950940D01*
X74090884Y-50204561D01*
X74058786Y-50469535D01*
X71855000Y-50469535D01*
X71855000Y-50366544D01*
X71802928Y-50104761D01*
X71700785Y-49858167D01*
X71552497Y-49636238D01*
X71549639Y-49633380D01*
X74585907Y-49633380D01*
X75420000Y-50467473D01*
X76254093Y-49633380D01*
X76201581Y-49385116D01*
X75969060Y-49254059D01*
X75715439Y-49170884D01*
X75450465Y-49138786D01*
X75184320Y-49158997D01*
X74927231Y-49230743D01*
X74689080Y-49351266D01*
X74638419Y-49385116D01*
X74585907Y-49633380D01*
X71549639Y-49633380D01*
X71363762Y-49447503D01*
X71141833Y-49299215D01*
X70895239Y-49197072D01*
X70633456Y-49145000D01*
X70366544Y-49145000D01*
X70244147Y-49169346D01*
X70018803Y-48944001D01*
X69995000Y-48914998D01*
X69879275Y-48820025D01*
X69747246Y-48749453D01*
X69603985Y-48705996D01*
X69492332Y-48694999D01*
X69492321Y-48694999D01*
X69454999Y-48691323D01*
X69417677Y-48694999D01*
X63840253Y-48694999D01*
X63802920Y-48691322D01*
X63765587Y-48694999D01*
X63653934Y-48705996D01*
X63510673Y-48749453D01*
X63378644Y-48820025D01*
X63262919Y-48914998D01*
X63239121Y-48943996D01*
X54948998Y-57234120D01*
X54920000Y-57257918D01*
X54896202Y-57286916D01*
X54896201Y-57286917D01*
X54825026Y-57373643D01*
X54754454Y-57505673D01*
X54737824Y-57560498D01*
X54719938Y-57619463D01*
X54710998Y-57648934D01*
X54704088Y-57719090D01*
X54513368Y-57846525D01*
X54306525Y-58053368D01*
X54190000Y-58227760D01*
X54073475Y-58053368D01*
X53866632Y-57846525D01*
X53623411Y-57684010D01*
X53353158Y-57572068D01*
X53066260Y-57515000D01*
X52773740Y-57515000D01*
X52560000Y-57557516D01*
X52560000Y-50537322D01*
X52563676Y-50499999D01*
X52560000Y-50462676D01*
X52560000Y-50462667D01*
X52549003Y-50351014D01*
X52505546Y-50207753D01*
X52434974Y-50075724D01*
X52421811Y-50059685D01*
X52363799Y-49988996D01*
X52363795Y-49988992D01*
X52340001Y-49959999D01*
X52311009Y-49936206D01*
X51398688Y-49023886D01*
X51435000Y-48841335D01*
X51435000Y-48558665D01*
X51379853Y-48281426D01*
X51271680Y-48020273D01*
X51114637Y-47785241D01*
X50914759Y-47585363D01*
X50679727Y-47428320D01*
X50418574Y-47320147D01*
X50141335Y-47265000D01*
X49858665Y-47265000D01*
X49581426Y-47320147D01*
X49320273Y-47428320D01*
X49085241Y-47585363D01*
X48885363Y-47785241D01*
X48728320Y-48020273D01*
X48620147Y-48281426D01*
X48565000Y-48558665D01*
X48565000Y-48841335D01*
X48620147Y-49118574D01*
X48728320Y-49379727D01*
X48885363Y-49614759D01*
X49085241Y-49814637D01*
X49320273Y-49971680D01*
X49581426Y-50079853D01*
X49858665Y-50135000D01*
X50141335Y-50135000D01*
X50323886Y-50098688D01*
X51040000Y-50814803D01*
X51040001Y-57842668D01*
X51037496Y-57868100D01*
X50914759Y-57745363D01*
X50679727Y-57588320D01*
X50418574Y-57480147D01*
X50141335Y-57425000D01*
X49858665Y-57425000D01*
X49581426Y-57480147D01*
X49320273Y-57588320D01*
X49085241Y-57745363D01*
X48885363Y-57945241D01*
X48781957Y-58100000D01*
X47777323Y-58100000D01*
X47740000Y-58096324D01*
X47702677Y-58100000D01*
X47702667Y-58100000D01*
X47591014Y-58110997D01*
X47447753Y-58154454D01*
X47315724Y-58225026D01*
X47199999Y-58319999D01*
X47176201Y-58348997D01*
X43085199Y-62440000D01*
X42416820Y-62440000D01*
X42412790Y-62399087D01*
X42325017Y-62109739D01*
X42182481Y-61843073D01*
X41990661Y-61609339D01*
X41756926Y-61417519D01*
X41490260Y-61274983D01*
X41200912Y-61187210D01*
X40900000Y-61157573D01*
X40599087Y-61187210D01*
X40309739Y-61274983D01*
X40043073Y-61417519D01*
X39809339Y-61609339D01*
X39617519Y-61843074D01*
X39474983Y-62109740D01*
X39387210Y-62399088D01*
X39365000Y-62624593D01*
X39365000Y-63435846D01*
X39333676Y-63410915D01*
X39066169Y-63273042D01*
X38776905Y-63190007D01*
X38762817Y-63187666D01*
X38523000Y-63323942D01*
X38523000Y-65177000D01*
X40035000Y-65177000D01*
X40035000Y-64975855D01*
X40043074Y-64982481D01*
X40309740Y-65125017D01*
X40599088Y-65212790D01*
X40900000Y-65242427D01*
X41200913Y-65212790D01*
X41490261Y-65125017D01*
X41756927Y-64982481D01*
X41990661Y-64790661D01*
X42182481Y-64556927D01*
X42325017Y-64290261D01*
X42412790Y-64000913D01*
X42416820Y-63960000D01*
X43362678Y-63960000D01*
X43400000Y-63963676D01*
X43437322Y-63960000D01*
X43437333Y-63960000D01*
X43548986Y-63949003D01*
X43692247Y-63905546D01*
X43824276Y-63834974D01*
X43940001Y-63740001D01*
X43963804Y-63710997D01*
X44865000Y-62809801D01*
X44865000Y-63775408D01*
X44887210Y-64000913D01*
X44974983Y-64290261D01*
X45117519Y-64556927D01*
X45309340Y-64790661D01*
X45543074Y-64982481D01*
X45809740Y-65125017D01*
X46099088Y-65212790D01*
X46400000Y-65242427D01*
X46552597Y-65227398D01*
X48740000Y-67414802D01*
X48740001Y-71621956D01*
X48585241Y-71725363D01*
X48385363Y-71925241D01*
X48228320Y-72160273D01*
X48120147Y-72421426D01*
X48065000Y-72698665D01*
X48065000Y-72981335D01*
X48120147Y-73258574D01*
X48228320Y-73519727D01*
X48385363Y-73754759D01*
X48585241Y-73954637D01*
X48820273Y-74111680D01*
X49081426Y-74219853D01*
X49358665Y-74275000D01*
X49641335Y-74275000D01*
X49918574Y-74219853D01*
X50179727Y-74111680D01*
X50414759Y-73954637D01*
X50614637Y-73754759D01*
X50771680Y-73519727D01*
X50879853Y-73258574D01*
X50935000Y-72981335D01*
X50935000Y-72698665D01*
X50879853Y-72421426D01*
X50771680Y-72160273D01*
X50614637Y-71925241D01*
X50414759Y-71725363D01*
X50260000Y-71621957D01*
X50260000Y-71058665D01*
X50965000Y-71058665D01*
X50965000Y-71341335D01*
X51020147Y-71618574D01*
X51128320Y-71879727D01*
X51285363Y-72114759D01*
X51485241Y-72314637D01*
X51720273Y-72471680D01*
X51981426Y-72579853D01*
X52258665Y-72635000D01*
X52541335Y-72635000D01*
X52818574Y-72579853D01*
X53079727Y-72471680D01*
X53314759Y-72314637D01*
X53514637Y-72114759D01*
X53651162Y-71910434D01*
X53682715Y-71972928D01*
X53720072Y-72028838D01*
X53976528Y-72090945D01*
X54867473Y-71200000D01*
X53976528Y-70309055D01*
X53720072Y-70371162D01*
X53652260Y-70491209D01*
X53514637Y-70285241D01*
X53314759Y-70085363D01*
X53079727Y-69928320D01*
X52818574Y-69820147D01*
X52541335Y-69765000D01*
X52258665Y-69765000D01*
X51981426Y-69820147D01*
X51720273Y-69928320D01*
X51485241Y-70085363D01*
X51285363Y-70285241D01*
X51128320Y-70520273D01*
X51020147Y-70781426D01*
X50965000Y-71058665D01*
X50260000Y-71058665D01*
X50260000Y-67137322D01*
X50263676Y-67099999D01*
X50260000Y-67062676D01*
X50260000Y-67062667D01*
X50249003Y-66951014D01*
X50205546Y-66807753D01*
X50134975Y-66675725D01*
X50134974Y-66675723D01*
X50063799Y-66588997D01*
X50040001Y-66559999D01*
X50011004Y-66536202D01*
X47804133Y-64329332D01*
X47825017Y-64290261D01*
X47912790Y-64000913D01*
X47935000Y-63775408D01*
X47935000Y-62624592D01*
X47912790Y-62399087D01*
X47825017Y-62109739D01*
X47682481Y-61843073D01*
X47490661Y-61609339D01*
X47256926Y-61417519D01*
X46990260Y-61274983D01*
X46700912Y-61187210D01*
X46506718Y-61168084D01*
X48054802Y-59620000D01*
X48781957Y-59620000D01*
X48885363Y-59774759D01*
X49085241Y-59974637D01*
X49320273Y-60131680D01*
X49581426Y-60239853D01*
X49858665Y-60295000D01*
X50141335Y-60295000D01*
X50418574Y-60239853D01*
X50679727Y-60131680D01*
X50914759Y-59974637D01*
X51114637Y-59774759D01*
X51271680Y-59539727D01*
X51379853Y-59278574D01*
X51435000Y-59001335D01*
X51435000Y-59146260D01*
X51492068Y-59433158D01*
X51604010Y-59703411D01*
X51766525Y-59946632D01*
X51973368Y-60153475D01*
X52216589Y-60315990D01*
X52486842Y-60427932D01*
X52773740Y-60485000D01*
X53066260Y-60485000D01*
X53353158Y-60427932D01*
X53623411Y-60315990D01*
X53866632Y-60153475D01*
X54073475Y-59946632D01*
X54190000Y-59772240D01*
X54306525Y-59946632D01*
X54513368Y-60153475D01*
X54756589Y-60315990D01*
X55026842Y-60427932D01*
X55313740Y-60485000D01*
X55606260Y-60485000D01*
X55826408Y-60441209D01*
X57896201Y-62511003D01*
X57919999Y-62540001D01*
X58035724Y-62634974D01*
X58167753Y-62705546D01*
X58311014Y-62749003D01*
X58422667Y-62760000D01*
X58422675Y-62760000D01*
X58460000Y-62763676D01*
X58497325Y-62760000D01*
X60796289Y-62760000D01*
X60840226Y-62803937D01*
X61009744Y-62917205D01*
X61198102Y-62995226D01*
X61398061Y-63035000D01*
X61601939Y-63035000D01*
X61801898Y-62995226D01*
X61990256Y-62917205D01*
X62115000Y-62833854D01*
X62115000Y-63861509D01*
X61918574Y-63780147D01*
X61641335Y-63725000D01*
X61358665Y-63725000D01*
X61081426Y-63780147D01*
X60820273Y-63888320D01*
X60585241Y-64045363D01*
X60385363Y-64245241D01*
X60228320Y-64480273D01*
X60120147Y-64741426D01*
X60065000Y-65018665D01*
X60065000Y-65301335D01*
X60101312Y-65483886D01*
X55854002Y-69731197D01*
X55824998Y-69755000D01*
X55794053Y-69792707D01*
X55730025Y-69870725D01*
X55711691Y-69905026D01*
X55668435Y-69985952D01*
X55482720Y-69881046D01*
X55214208Y-69792707D01*
X54933621Y-69758449D01*
X54651743Y-69779589D01*
X54379405Y-69855314D01*
X54127072Y-69982715D01*
X54071162Y-70020072D01*
X54009055Y-70276528D01*
X54900000Y-71167473D01*
X54914142Y-71153331D01*
X54946669Y-71185858D01*
X54932527Y-71200000D01*
X54946669Y-71214142D01*
X54914142Y-71246669D01*
X54900000Y-71232527D01*
X54009055Y-72123472D01*
X54071162Y-72379928D01*
X54317280Y-72518954D01*
X54585792Y-72607293D01*
X54866379Y-72641551D01*
X55148257Y-72620411D01*
X55420595Y-72544686D01*
X55604999Y-72451582D01*
X55604999Y-73143247D01*
X55433158Y-73072068D01*
X55146260Y-73015000D01*
X54853740Y-73015000D01*
X54566842Y-73072068D01*
X54296589Y-73184010D01*
X54053368Y-73346525D01*
X53846525Y-73553368D01*
X53730000Y-73727760D01*
X53613475Y-73553368D01*
X53406632Y-73346525D01*
X53163411Y-73184010D01*
X52893158Y-73072068D01*
X52606260Y-73015000D01*
X52313740Y-73015000D01*
X52026842Y-73072068D01*
X51756589Y-73184010D01*
X51513368Y-73346525D01*
X51306525Y-73553368D01*
X51144010Y-73796589D01*
X51032068Y-74066842D01*
X50975000Y-74353740D01*
X50975000Y-74646260D01*
X51032068Y-74933158D01*
X51144010Y-75203411D01*
X51306525Y-75446632D01*
X51513368Y-75653475D01*
X51756589Y-75815990D01*
X52026842Y-75927932D01*
X52313740Y-75985000D01*
X52606260Y-75985000D01*
X52893158Y-75927932D01*
X53163411Y-75815990D01*
X53406632Y-75653475D01*
X53613475Y-75446632D01*
X53730000Y-75272240D01*
X53846525Y-75446632D01*
X54053368Y-75653475D01*
X54296589Y-75815990D01*
X54566842Y-75927932D01*
X54853740Y-75985000D01*
X55146260Y-75985000D01*
X55433158Y-75927932D01*
X55604999Y-75856753D01*
X55605000Y-82162665D01*
X55601323Y-82199997D01*
X55605000Y-82237330D01*
X55615997Y-82348983D01*
X55627088Y-82385546D01*
X55659453Y-82492243D01*
X55730025Y-82624273D01*
X55792174Y-82700001D01*
X55824999Y-82739998D01*
X55853997Y-82763796D01*
X57652129Y-84561928D01*
X57136730Y-84561928D01*
X53723804Y-81149003D01*
X53700001Y-81119999D01*
X53584276Y-81025026D01*
X53452247Y-80954454D01*
X53308986Y-80910997D01*
X53197333Y-80900000D01*
X53197322Y-80900000D01*
X53160000Y-80896324D01*
X53122678Y-80900000D01*
X47738043Y-80900000D01*
X47634637Y-80745241D01*
X47434759Y-80545363D01*
X47202241Y-80390000D01*
X47434759Y-80234637D01*
X47634637Y-80034759D01*
X47791680Y-79799727D01*
X47899853Y-79538574D01*
X47955000Y-79261335D01*
X47955000Y-78978665D01*
X47899853Y-78701426D01*
X47791680Y-78440273D01*
X47634637Y-78205241D01*
X47434759Y-78005363D01*
X47199727Y-77848320D01*
X47186975Y-77843038D01*
X47289300Y-77791365D01*
X47510844Y-77618006D01*
X47694310Y-77404757D01*
X47832648Y-77159813D01*
X47920542Y-76892587D01*
X47933553Y-76827172D01*
X47796043Y-76603000D01*
X46543000Y-76603000D01*
X46543000Y-76623000D01*
X46497000Y-76623000D01*
X46497000Y-76603000D01*
X46477000Y-76603000D01*
X46477000Y-76557000D01*
X46497000Y-76557000D01*
X46497000Y-76537000D01*
X46543000Y-76537000D01*
X46543000Y-76557000D01*
X47796043Y-76557000D01*
X47933553Y-76332828D01*
X47920542Y-76267413D01*
X47832648Y-76000187D01*
X47694310Y-75755243D01*
X47510844Y-75541994D01*
X47289300Y-75368635D01*
X47186975Y-75316962D01*
X47199727Y-75311680D01*
X47434759Y-75154637D01*
X47634637Y-74954759D01*
X47791680Y-74719727D01*
X47899853Y-74458574D01*
X47955000Y-74181335D01*
X47955000Y-73898665D01*
X47899853Y-73621426D01*
X47791680Y-73360273D01*
X47634637Y-73125241D01*
X47434759Y-72925363D01*
X47280000Y-72821957D01*
X47280000Y-72718043D01*
X47434759Y-72614637D01*
X47634637Y-72414759D01*
X47791680Y-72179727D01*
X47899853Y-71918574D01*
X47955000Y-71641335D01*
X47955000Y-71358665D01*
X47899853Y-71081426D01*
X47791680Y-70820273D01*
X47634637Y-70585241D01*
X47434759Y-70385363D01*
X47199727Y-70228320D01*
X46938574Y-70120147D01*
X46661335Y-70065000D01*
X46378665Y-70065000D01*
X46196113Y-70101312D01*
X45958803Y-69864001D01*
X45935000Y-69834998D01*
X45819275Y-69740025D01*
X45687246Y-69669453D01*
X45543985Y-69625996D01*
X45432332Y-69614999D01*
X45432321Y-69614999D01*
X45394999Y-69611323D01*
X45357677Y-69614999D01*
X37877324Y-69614999D01*
X37839999Y-69611323D01*
X37802674Y-69614999D01*
X37802666Y-69614999D01*
X37691013Y-69625996D01*
X37547752Y-69669453D01*
X37415723Y-69740025D01*
X37299998Y-69834998D01*
X37276200Y-69863996D01*
X34888998Y-72251199D01*
X34860000Y-72274997D01*
X34836202Y-72303995D01*
X34836201Y-72303996D01*
X34765026Y-72390722D01*
X34694454Y-72522752D01*
X34669505Y-72605000D01*
X34650998Y-72666012D01*
X34640140Y-72776250D01*
X34636324Y-72814998D01*
X34640001Y-72852330D01*
X34640000Y-75111928D01*
X34550000Y-75111928D01*
X34425518Y-75124188D01*
X34305820Y-75160498D01*
X34195506Y-75219463D01*
X34098815Y-75298815D01*
X34019463Y-75395506D01*
X33960498Y-75505820D01*
X33924188Y-75625518D01*
X33911928Y-75750000D01*
X33827000Y-75750000D01*
X33827000Y-65223000D01*
X36965000Y-65223000D01*
X36965000Y-65723000D01*
X36998982Y-66022022D01*
X37090647Y-66308669D01*
X37236473Y-66571925D01*
X37430855Y-66801673D01*
X37666324Y-66989085D01*
X37933831Y-67126958D01*
X38223095Y-67209993D01*
X38237183Y-67212334D01*
X38477000Y-67076058D01*
X38477000Y-65223000D01*
X38523000Y-65223000D01*
X38523000Y-67076058D01*
X38762817Y-67212334D01*
X38776905Y-67209993D01*
X39066169Y-67126958D01*
X39333676Y-66989085D01*
X39569145Y-66801673D01*
X39763527Y-66571925D01*
X39909353Y-66308669D01*
X40001018Y-66022022D01*
X40035000Y-65723000D01*
X40035000Y-65223000D01*
X38523000Y-65223000D01*
X38477000Y-65223000D01*
X36965000Y-65223000D01*
X33827000Y-65223000D01*
X33827000Y-64677000D01*
X36965000Y-64677000D01*
X36965000Y-65177000D01*
X38477000Y-65177000D01*
X38477000Y-63323942D01*
X38237183Y-63187666D01*
X38223095Y-63190007D01*
X37933831Y-63273042D01*
X37666324Y-63410915D01*
X37430855Y-63598327D01*
X37236473Y-63828075D01*
X37090647Y-64091331D01*
X36998982Y-64377978D01*
X36965000Y-64677000D01*
X33827000Y-64677000D01*
X33827000Y-57514344D01*
X38315000Y-57514344D01*
X38315000Y-57885656D01*
X38387439Y-58249834D01*
X38529534Y-58592882D01*
X38735825Y-58901618D01*
X38998382Y-59164175D01*
X39307118Y-59370466D01*
X39650166Y-59512561D01*
X40014344Y-59585000D01*
X40385656Y-59585000D01*
X40749834Y-59512561D01*
X41092882Y-59370466D01*
X41401618Y-59164175D01*
X41664175Y-58901618D01*
X41870466Y-58592882D01*
X42012561Y-58249834D01*
X42085000Y-57885656D01*
X42085000Y-57514344D01*
X42012561Y-57150166D01*
X41870466Y-56807118D01*
X41664175Y-56498382D01*
X41401618Y-56235825D01*
X41092882Y-56029534D01*
X40749834Y-55887439D01*
X40385656Y-55815000D01*
X40014344Y-55815000D01*
X39650166Y-55887439D01*
X39307118Y-56029534D01*
X38998382Y-56235825D01*
X38735825Y-56498382D01*
X38529534Y-56807118D01*
X38387439Y-57150166D01*
X38315000Y-57514344D01*
X33827000Y-57514344D01*
X33827000Y-53943249D01*
X38989278Y-53943249D01*
X39105353Y-54245782D01*
X39427954Y-54429636D01*
X39780224Y-54547020D01*
X40148626Y-54593424D01*
X40519002Y-54567065D01*
X40877119Y-54468956D01*
X41209215Y-54302866D01*
X41294647Y-54245782D01*
X41410722Y-53943249D01*
X40200000Y-52732527D01*
X38989278Y-53943249D01*
X33827000Y-53943249D01*
X33827000Y-52648626D01*
X38306576Y-52648626D01*
X38332935Y-53019002D01*
X38431044Y-53377119D01*
X38597134Y-53709215D01*
X38654218Y-53794647D01*
X38956751Y-53910722D01*
X40167473Y-52700000D01*
X40232527Y-52700000D01*
X41443249Y-53910722D01*
X41745782Y-53794647D01*
X41929636Y-53472046D01*
X42047020Y-53119776D01*
X42093424Y-52751374D01*
X42067065Y-52380998D01*
X41968956Y-52022881D01*
X41802866Y-51690785D01*
X41745782Y-51605353D01*
X41443249Y-51489278D01*
X40232527Y-52700000D01*
X40167473Y-52700000D01*
X38956751Y-51489278D01*
X38654218Y-51605353D01*
X38470364Y-51927954D01*
X38352980Y-52280224D01*
X38306576Y-52648626D01*
X33827000Y-52648626D01*
X33827000Y-51456751D01*
X38989278Y-51456751D01*
X40200000Y-52667473D01*
X41410722Y-51456751D01*
X41294647Y-51154218D01*
X40972046Y-50970364D01*
X40619776Y-50852980D01*
X40251374Y-50806576D01*
X39880998Y-50832935D01*
X39522881Y-50931044D01*
X39190785Y-51097134D01*
X39105353Y-51154218D01*
X38989278Y-51456751D01*
X33827000Y-51456751D01*
X33827000Y-46450000D01*
X38311928Y-46450000D01*
X38311928Y-48950000D01*
X38324188Y-49074482D01*
X38360498Y-49194180D01*
X38419463Y-49304494D01*
X38498815Y-49401185D01*
X38595506Y-49480537D01*
X38705820Y-49539502D01*
X38825518Y-49575812D01*
X38950000Y-49588072D01*
X41450000Y-49588072D01*
X41574482Y-49575812D01*
X41694180Y-49539502D01*
X41804494Y-49480537D01*
X41901185Y-49401185D01*
X41980537Y-49304494D01*
X42039502Y-49194180D01*
X42075812Y-49074482D01*
X42088072Y-48950000D01*
X42088072Y-46450000D01*
X42075812Y-46325518D01*
X42039502Y-46205820D01*
X41980537Y-46095506D01*
X41901185Y-45998815D01*
X41804494Y-45919463D01*
X41694180Y-45860498D01*
X41574482Y-45824188D01*
X41450000Y-45811928D01*
X38950000Y-45811928D01*
X38825518Y-45824188D01*
X38705820Y-45860498D01*
X38595506Y-45919463D01*
X38498815Y-45998815D01*
X38419463Y-46095506D01*
X38360498Y-46205820D01*
X38324188Y-46325518D01*
X38311928Y-46450000D01*
X33827000Y-46450000D01*
X33827000Y-42758665D01*
X41705000Y-42758665D01*
X41705000Y-43041335D01*
X41760147Y-43318574D01*
X41868320Y-43579727D01*
X42025363Y-43814759D01*
X42225241Y-44014637D01*
X42460273Y-44171680D01*
X42721426Y-44279853D01*
X42998665Y-44335000D01*
X43281335Y-44335000D01*
X43558574Y-44279853D01*
X43819727Y-44171680D01*
X44054759Y-44014637D01*
X44254637Y-43814759D01*
X44411680Y-43579727D01*
X44519853Y-43318574D01*
X44575000Y-43041335D01*
X44575000Y-42758665D01*
X51865000Y-42758665D01*
X51865000Y-43041335D01*
X51920147Y-43318574D01*
X52028320Y-43579727D01*
X52185363Y-43814759D01*
X52385241Y-44014637D01*
X52620273Y-44171680D01*
X52881426Y-44279853D01*
X53158665Y-44335000D01*
X53441335Y-44335000D01*
X53623886Y-44298688D01*
X53721202Y-44396004D01*
X53745000Y-44425002D01*
X53860725Y-44519975D01*
X53992754Y-44590547D01*
X54136015Y-44634004D01*
X54247668Y-44645001D01*
X54247676Y-44645001D01*
X54285001Y-44648677D01*
X54322326Y-44645001D01*
X57417677Y-44645001D01*
X57454999Y-44648677D01*
X57492321Y-44645001D01*
X57492332Y-44645001D01*
X57603985Y-44634004D01*
X57747246Y-44590547D01*
X57879275Y-44519975D01*
X57995000Y-44425002D01*
X58018803Y-44395999D01*
X58250130Y-44164671D01*
X58402604Y-44195000D01*
X58677396Y-44195000D01*
X58946907Y-44141391D01*
X59200780Y-44036233D01*
X59429261Y-43883567D01*
X59623567Y-43689261D01*
X59776233Y-43460780D01*
X59810000Y-43379260D01*
X59843767Y-43460780D01*
X59996433Y-43689261D01*
X60190739Y-43883567D01*
X60419220Y-44036233D01*
X60673093Y-44141391D01*
X60942604Y-44195000D01*
X61217396Y-44195000D01*
X61486907Y-44141391D01*
X61740780Y-44036233D01*
X61969261Y-43883567D01*
X62163567Y-43689261D01*
X62249936Y-43560000D01*
X77462678Y-43560000D01*
X77500000Y-43563676D01*
X77537322Y-43560000D01*
X77537333Y-43560000D01*
X77648986Y-43549003D01*
X77792247Y-43505546D01*
X77924276Y-43434974D01*
X78040001Y-43340001D01*
X78063804Y-43310997D01*
X79386729Y-41988072D01*
X81450000Y-41988072D01*
X81574482Y-41975812D01*
X81694180Y-41939502D01*
X81804494Y-41880537D01*
X81901185Y-41801185D01*
X81980537Y-41704494D01*
X82039502Y-41594180D01*
X82075812Y-41474482D01*
X82088072Y-41350000D01*
X82088072Y-38850000D01*
X82075812Y-38725518D01*
X82039502Y-38605820D01*
X81980537Y-38495506D01*
X81901185Y-38398815D01*
X81804494Y-38319463D01*
X81694180Y-38260498D01*
X81574482Y-38224188D01*
X81450000Y-38211928D01*
X78950000Y-38211928D01*
X78825518Y-38224188D01*
X78705820Y-38260498D01*
X78595506Y-38319463D01*
X78498815Y-38398815D01*
X78419463Y-38495506D01*
X78360498Y-38605820D01*
X78324188Y-38725518D01*
X78311928Y-38850000D01*
X78311928Y-40913271D01*
X77185199Y-42040000D01*
X62249936Y-42040000D01*
X62163567Y-41910739D01*
X61969261Y-41716433D01*
X61740780Y-41563767D01*
X61486907Y-41458609D01*
X61217396Y-41405000D01*
X60942604Y-41405000D01*
X60673093Y-41458609D01*
X60419220Y-41563767D01*
X60190739Y-41716433D01*
X59996433Y-41910739D01*
X59843767Y-42139220D01*
X59810000Y-42220740D01*
X59776233Y-42139220D01*
X59623567Y-41910739D01*
X59429261Y-41716433D01*
X59200780Y-41563767D01*
X58946907Y-41458609D01*
X58677396Y-41405000D01*
X58402604Y-41405000D01*
X58133093Y-41458609D01*
X57879220Y-41563767D01*
X57650739Y-41716433D01*
X57456433Y-41910739D01*
X57394474Y-42003467D01*
X57385812Y-41915518D01*
X57349502Y-41795820D01*
X57290537Y-41685506D01*
X57211185Y-41588815D01*
X57114494Y-41509463D01*
X57004180Y-41450498D01*
X56884482Y-41414188D01*
X56760000Y-41401928D01*
X56181750Y-41405000D01*
X56023000Y-41563750D01*
X56023000Y-42777000D01*
X56043000Y-42777000D01*
X56043000Y-42823000D01*
X56023000Y-42823000D01*
X56023000Y-42843000D01*
X55977000Y-42843000D01*
X55977000Y-42823000D01*
X55957000Y-42823000D01*
X55957000Y-42777000D01*
X55977000Y-42777000D01*
X55977000Y-41563750D01*
X55818250Y-41405000D01*
X55240000Y-41401928D01*
X55115518Y-41414188D01*
X54995820Y-41450498D01*
X54885506Y-41509463D01*
X54788815Y-41588815D01*
X54709463Y-41685506D01*
X54650498Y-41795820D01*
X54614188Y-41915518D01*
X54601928Y-42040000D01*
X54603291Y-42296589D01*
X54571680Y-42220273D01*
X54414637Y-41985241D01*
X54214759Y-41785363D01*
X53979727Y-41628320D01*
X53718574Y-41520147D01*
X53441335Y-41465000D01*
X53158665Y-41465000D01*
X52881426Y-41520147D01*
X52620273Y-41628320D01*
X52385241Y-41785363D01*
X52185363Y-41985241D01*
X52028320Y-42220273D01*
X51920147Y-42481426D01*
X51865000Y-42758665D01*
X44575000Y-42758665D01*
X44519853Y-42481426D01*
X44411680Y-42220273D01*
X44254637Y-41985241D01*
X44054759Y-41785363D01*
X43819727Y-41628320D01*
X43558574Y-41520147D01*
X43281335Y-41465000D01*
X42998665Y-41465000D01*
X42721426Y-41520147D01*
X42460273Y-41628320D01*
X42225241Y-41785363D01*
X42025363Y-41985241D01*
X41868320Y-42220273D01*
X41760147Y-42481426D01*
X41705000Y-42758665D01*
X33827000Y-42758665D01*
X33827000Y-39914344D01*
X63315000Y-39914344D01*
X63315000Y-40285656D01*
X63387439Y-40649834D01*
X63529534Y-40992882D01*
X63735825Y-41301618D01*
X63998382Y-41564175D01*
X64307118Y-41770466D01*
X64650166Y-41912561D01*
X65014344Y-41985000D01*
X65385656Y-41985000D01*
X65749834Y-41912561D01*
X66092882Y-41770466D01*
X66401618Y-41564175D01*
X66622544Y-41343249D01*
X68989278Y-41343249D01*
X69105353Y-41645782D01*
X69427954Y-41829636D01*
X69780224Y-41947020D01*
X70148626Y-41993424D01*
X70519002Y-41967065D01*
X70877119Y-41868956D01*
X71209215Y-41702866D01*
X71294647Y-41645782D01*
X71410722Y-41343249D01*
X70200000Y-40132527D01*
X68989278Y-41343249D01*
X66622544Y-41343249D01*
X66664175Y-41301618D01*
X66870466Y-40992882D01*
X67012561Y-40649834D01*
X67085000Y-40285656D01*
X67085000Y-40048626D01*
X68306576Y-40048626D01*
X68332935Y-40419002D01*
X68431044Y-40777119D01*
X68597134Y-41109215D01*
X68654218Y-41194647D01*
X68956751Y-41310722D01*
X70167473Y-40100000D01*
X70232527Y-40100000D01*
X71443249Y-41310722D01*
X71745782Y-41194647D01*
X71929636Y-40872046D01*
X72047020Y-40519776D01*
X72093424Y-40151374D01*
X72067065Y-39780998D01*
X71968956Y-39422881D01*
X71802866Y-39090785D01*
X71745782Y-39005353D01*
X71443249Y-38889278D01*
X70232527Y-40100000D01*
X70167473Y-40100000D01*
X68956751Y-38889278D01*
X68654218Y-39005353D01*
X68470364Y-39327954D01*
X68352980Y-39680224D01*
X68306576Y-40048626D01*
X67085000Y-40048626D01*
X67085000Y-39914344D01*
X67012561Y-39550166D01*
X66988585Y-39492283D01*
X67624117Y-38856751D01*
X68989278Y-38856751D01*
X70200000Y-40067473D01*
X71410722Y-38856751D01*
X71294647Y-38554218D01*
X70972046Y-38370364D01*
X70619776Y-38252980D01*
X70251374Y-38206576D01*
X69880998Y-38232935D01*
X69522881Y-38331044D01*
X69190785Y-38497134D01*
X69105353Y-38554218D01*
X68989278Y-38856751D01*
X67624117Y-38856751D01*
X68845869Y-37635000D01*
X71554133Y-37635000D01*
X73411415Y-39492283D01*
X73387439Y-39550166D01*
X73315000Y-39914344D01*
X73315000Y-40285656D01*
X73387439Y-40649834D01*
X73529534Y-40992882D01*
X73735825Y-41301618D01*
X73998382Y-41564175D01*
X74307118Y-41770466D01*
X74650166Y-41912561D01*
X75014344Y-41985000D01*
X75385656Y-41985000D01*
X75749834Y-41912561D01*
X76092882Y-41770466D01*
X76401618Y-41564175D01*
X76664175Y-41301618D01*
X76870466Y-40992882D01*
X77012561Y-40649834D01*
X77085000Y-40285656D01*
X77085000Y-39914344D01*
X77012561Y-39550166D01*
X76870466Y-39207118D01*
X76664175Y-38898382D01*
X76401618Y-38635825D01*
X76092882Y-38429534D01*
X75749834Y-38287439D01*
X75385656Y-38215000D01*
X75014344Y-38215000D01*
X74650166Y-38287439D01*
X74592283Y-38311415D01*
X72519446Y-36238579D01*
X72493291Y-36206709D01*
X72366146Y-36102364D01*
X72221087Y-36024828D01*
X72063689Y-35977082D01*
X71941019Y-35965000D01*
X71941018Y-35965000D01*
X71900000Y-35960960D01*
X71858982Y-35965000D01*
X68541018Y-35965000D01*
X68500000Y-35960960D01*
X68458982Y-35965000D01*
X68458981Y-35965000D01*
X68336311Y-35977082D01*
X68196078Y-36019621D01*
X68178913Y-36024828D01*
X68033854Y-36102364D01*
X67950216Y-36171004D01*
X67906709Y-36206709D01*
X67880563Y-36238568D01*
X65807717Y-38311415D01*
X65749834Y-38287439D01*
X65385656Y-38215000D01*
X65014344Y-38215000D01*
X64650166Y-38287439D01*
X64307118Y-38429534D01*
X63998382Y-38635825D01*
X63735825Y-38898382D01*
X63529534Y-39207118D01*
X63387439Y-39550166D01*
X63315000Y-39914344D01*
X33827000Y-39914344D01*
X33827000Y-35527000D01*
X84209332Y-35527000D01*
X83893425Y-35842907D01*
G36*
X75534118Y-91648919D02*
G01*
X75450465Y-91638786D01*
X75184320Y-91658997D01*
X74927231Y-91730743D01*
X74689080Y-91851266D01*
X74638419Y-91885116D01*
X74585907Y-92133380D01*
X75420000Y-92967473D01*
X75434142Y-92953331D01*
X75466669Y-92985858D01*
X75452527Y-93000000D01*
X75466669Y-93014142D01*
X75434142Y-93046669D01*
X75420000Y-93032527D01*
X75405858Y-93046669D01*
X75373331Y-93014142D01*
X75387473Y-93000000D01*
X74553380Y-92165907D01*
X74305116Y-92218419D01*
X74174059Y-92450940D01*
X74090884Y-92704561D01*
X74058786Y-92969535D01*
X74078997Y-93235680D01*
X74092761Y-93285001D01*
X71824856Y-93285001D01*
X71855000Y-93133456D01*
X71855000Y-92866544D01*
X71802928Y-92604761D01*
X71700785Y-92358167D01*
X71552497Y-92136238D01*
X71363762Y-91947503D01*
X71260000Y-91878172D01*
X71260000Y-87374801D01*
X75534118Y-91648919D01*
G37*
X75534118Y-91648919D02*
X75450465Y-91638786D01*
X75184320Y-91658997D01*
X74927231Y-91730743D01*
X74689080Y-91851266D01*
X74638419Y-91885116D01*
X74585907Y-92133380D01*
X75420000Y-92967473D01*
X75434142Y-92953331D01*
X75466669Y-92985858D01*
X75452527Y-93000000D01*
X75466669Y-93014142D01*
X75434142Y-93046669D01*
X75420000Y-93032527D01*
X75405858Y-93046669D01*
X75373331Y-93014142D01*
X75387473Y-93000000D01*
X74553380Y-92165907D01*
X74305116Y-92218419D01*
X74174059Y-92450940D01*
X74090884Y-92704561D01*
X74058786Y-92969535D01*
X74078997Y-93235680D01*
X74092761Y-93285001D01*
X71824856Y-93285001D01*
X71855000Y-93133456D01*
X71855000Y-92866544D01*
X71802928Y-92604761D01*
X71700785Y-92358167D01*
X71552497Y-92136238D01*
X71363762Y-91947503D01*
X71260000Y-91878172D01*
X71260000Y-87374801D01*
X75534118Y-91648919D01*
G36*
X37623957Y-79097000D02*
G01*
X38877000Y-79097000D01*
X38877000Y-79077000D01*
X38923000Y-79077000D01*
X38923000Y-79097000D01*
X40176043Y-79097000D01*
X40239215Y-78994016D01*
X44541201Y-83296003D01*
X44565000Y-83325002D01*
X44593998Y-83348800D01*
X44680725Y-83419975D01*
X44812754Y-83490547D01*
X44956015Y-83534004D01*
X45105001Y-83548678D01*
X45142334Y-83545001D01*
X45249815Y-83545001D01*
X45207352Y-83620187D01*
X45119458Y-83887413D01*
X45106447Y-83952828D01*
X45243957Y-84177000D01*
X46497000Y-84177000D01*
X46497000Y-84157000D01*
X46543000Y-84157000D01*
X46543000Y-84177000D01*
X47796043Y-84177000D01*
X47849709Y-84089512D01*
X48615195Y-84854999D01*
X47790185Y-84854999D01*
X47832648Y-84779813D01*
X47920542Y-84512587D01*
X47933553Y-84447172D01*
X47796043Y-84223000D01*
X46543000Y-84223000D01*
X46543000Y-84243000D01*
X46497000Y-84243000D01*
X46497000Y-84223000D01*
X45243957Y-84223000D01*
X45106447Y-84447172D01*
X45119458Y-84512587D01*
X45207352Y-84779813D01*
X45249815Y-84854999D01*
X40629801Y-84854999D01*
X40298688Y-84523886D01*
X40335000Y-84341335D01*
X40335000Y-84058665D01*
X40279853Y-83781426D01*
X40171680Y-83520273D01*
X40014637Y-83285241D01*
X39814759Y-83085363D01*
X39582241Y-82930000D01*
X39814759Y-82774637D01*
X40014637Y-82574759D01*
X40171680Y-82339727D01*
X40279853Y-82078574D01*
X40335000Y-81801335D01*
X40335000Y-81518665D01*
X40279853Y-81241426D01*
X40171680Y-80980273D01*
X40014637Y-80745241D01*
X39814759Y-80545363D01*
X39579727Y-80388320D01*
X39566975Y-80383038D01*
X39669300Y-80331365D01*
X39890844Y-80158006D01*
X40074310Y-79944757D01*
X40212648Y-79699813D01*
X40300542Y-79432587D01*
X40313553Y-79367172D01*
X40176043Y-79143000D01*
X38923000Y-79143000D01*
X38923000Y-79163000D01*
X38877000Y-79163000D01*
X38877000Y-79143000D01*
X37623957Y-79143000D01*
X37486447Y-79367172D01*
X37499458Y-79432587D01*
X37587352Y-79699813D01*
X37725690Y-79944757D01*
X37909156Y-80158006D01*
X38130700Y-80331365D01*
X38233025Y-80383038D01*
X38220273Y-80388320D01*
X37985241Y-80545363D01*
X37785363Y-80745241D01*
X37668593Y-80920000D01*
X36678178Y-80920000D01*
X36553475Y-80733368D01*
X36346632Y-80526525D01*
X36172240Y-80410000D01*
X36346632Y-80293475D01*
X36553475Y-80086632D01*
X36715990Y-79843411D01*
X36775269Y-79700298D01*
X36800001Y-79680001D01*
X36823804Y-79650998D01*
X37530370Y-78944432D01*
X37623957Y-79097000D01*
G37*
X37623957Y-79097000D02*
X38877000Y-79097000D01*
X38877000Y-79077000D01*
X38923000Y-79077000D01*
X38923000Y-79097000D01*
X40176043Y-79097000D01*
X40239215Y-78994016D01*
X44541201Y-83296003D01*
X44565000Y-83325002D01*
X44593998Y-83348800D01*
X44680725Y-83419975D01*
X44812754Y-83490547D01*
X44956015Y-83534004D01*
X45105001Y-83548678D01*
X45142334Y-83545001D01*
X45249815Y-83545001D01*
X45207352Y-83620187D01*
X45119458Y-83887413D01*
X45106447Y-83952828D01*
X45243957Y-84177000D01*
X46497000Y-84177000D01*
X46497000Y-84157000D01*
X46543000Y-84157000D01*
X46543000Y-84177000D01*
X47796043Y-84177000D01*
X47849709Y-84089512D01*
X48615195Y-84854999D01*
X47790185Y-84854999D01*
X47832648Y-84779813D01*
X47920542Y-84512587D01*
X47933553Y-84447172D01*
X47796043Y-84223000D01*
X46543000Y-84223000D01*
X46543000Y-84243000D01*
X46497000Y-84243000D01*
X46497000Y-84223000D01*
X45243957Y-84223000D01*
X45106447Y-84447172D01*
X45119458Y-84512587D01*
X45207352Y-84779813D01*
X45249815Y-84854999D01*
X40629801Y-84854999D01*
X40298688Y-84523886D01*
X40335000Y-84341335D01*
X40335000Y-84058665D01*
X40279853Y-83781426D01*
X40171680Y-83520273D01*
X40014637Y-83285241D01*
X39814759Y-83085363D01*
X39582241Y-82930000D01*
X39814759Y-82774637D01*
X40014637Y-82574759D01*
X40171680Y-82339727D01*
X40279853Y-82078574D01*
X40335000Y-81801335D01*
X40335000Y-81518665D01*
X40279853Y-81241426D01*
X40171680Y-80980273D01*
X40014637Y-80745241D01*
X39814759Y-80545363D01*
X39579727Y-80388320D01*
X39566975Y-80383038D01*
X39669300Y-80331365D01*
X39890844Y-80158006D01*
X40074310Y-79944757D01*
X40212648Y-79699813D01*
X40300542Y-79432587D01*
X40313553Y-79367172D01*
X40176043Y-79143000D01*
X38923000Y-79143000D01*
X38923000Y-79163000D01*
X38877000Y-79163000D01*
X38877000Y-79143000D01*
X37623957Y-79143000D01*
X37486447Y-79367172D01*
X37499458Y-79432587D01*
X37587352Y-79699813D01*
X37725690Y-79944757D01*
X37909156Y-80158006D01*
X38130700Y-80331365D01*
X38233025Y-80383038D01*
X38220273Y-80388320D01*
X37985241Y-80545363D01*
X37785363Y-80745241D01*
X37668593Y-80920000D01*
X36678178Y-80920000D01*
X36553475Y-80733368D01*
X36346632Y-80526525D01*
X36172240Y-80410000D01*
X36346632Y-80293475D01*
X36553475Y-80086632D01*
X36715990Y-79843411D01*
X36775269Y-79700298D01*
X36800001Y-79680001D01*
X36823804Y-79650998D01*
X37530370Y-78944432D01*
X37623957Y-79097000D01*
G36*
X45121312Y-71176113D02*
G01*
X45085000Y-71358665D01*
X45085000Y-71641335D01*
X45140147Y-71918574D01*
X45248320Y-72179727D01*
X45405363Y-72414759D01*
X45605241Y-72614637D01*
X45760000Y-72718044D01*
X45760001Y-72821956D01*
X45605241Y-72925363D01*
X45405363Y-73125241D01*
X45248320Y-73360273D01*
X45140147Y-73621426D01*
X45085000Y-73898665D01*
X45085000Y-74181335D01*
X45121312Y-74363887D01*
X44884001Y-74601197D01*
X44854998Y-74625000D01*
X44813986Y-74674974D01*
X44760025Y-74740725D01*
X44731788Y-74793553D01*
X44689453Y-74872755D01*
X44645996Y-75016016D01*
X44634999Y-75127669D01*
X44634999Y-75127679D01*
X44631323Y-75165001D01*
X44634999Y-75202324D01*
X44635000Y-80497667D01*
X44631323Y-80534999D01*
X44645997Y-80683984D01*
X44689453Y-80827245D01*
X44760025Y-80959275D01*
X44809383Y-81019417D01*
X44854999Y-81075000D01*
X44883997Y-81098798D01*
X45121312Y-81336113D01*
X45085000Y-81518665D01*
X45085000Y-81690198D01*
X40298688Y-76903887D01*
X40335000Y-76721335D01*
X40335000Y-76438665D01*
X40279853Y-76161426D01*
X40171680Y-75900273D01*
X40014637Y-75665241D01*
X39814759Y-75465363D01*
X39582241Y-75310000D01*
X39814759Y-75154637D01*
X40014637Y-74954759D01*
X40171680Y-74719727D01*
X40279853Y-74458574D01*
X40335000Y-74181335D01*
X40335000Y-73898665D01*
X40279853Y-73621426D01*
X40171680Y-73360273D01*
X40014637Y-73125241D01*
X39816039Y-72926643D01*
X39824482Y-72925812D01*
X39944180Y-72889502D01*
X40054494Y-72830537D01*
X40151185Y-72751185D01*
X40230537Y-72654494D01*
X40289502Y-72544180D01*
X40325812Y-72424482D01*
X40338072Y-72300000D01*
X40335000Y-71681750D01*
X40176250Y-71523000D01*
X38923000Y-71523000D01*
X38923000Y-71543000D01*
X38877000Y-71543000D01*
X38877000Y-71523000D01*
X38857000Y-71523000D01*
X38857000Y-71477000D01*
X38877000Y-71477000D01*
X38877000Y-71457000D01*
X38923000Y-71457000D01*
X38923000Y-71477000D01*
X40176250Y-71477000D01*
X40335000Y-71318250D01*
X40335911Y-71134999D01*
X45080198Y-71134999D01*
X45121312Y-71176113D01*
G37*
X45121312Y-71176113D02*
X45085000Y-71358665D01*
X45085000Y-71641335D01*
X45140147Y-71918574D01*
X45248320Y-72179727D01*
X45405363Y-72414759D01*
X45605241Y-72614637D01*
X45760000Y-72718044D01*
X45760001Y-72821956D01*
X45605241Y-72925363D01*
X45405363Y-73125241D01*
X45248320Y-73360273D01*
X45140147Y-73621426D01*
X45085000Y-73898665D01*
X45085000Y-74181335D01*
X45121312Y-74363887D01*
X44884001Y-74601197D01*
X44854998Y-74625000D01*
X44813986Y-74674974D01*
X44760025Y-74740725D01*
X44731788Y-74793553D01*
X44689453Y-74872755D01*
X44645996Y-75016016D01*
X44634999Y-75127669D01*
X44634999Y-75127679D01*
X44631323Y-75165001D01*
X44634999Y-75202324D01*
X44635000Y-80497667D01*
X44631323Y-80534999D01*
X44645997Y-80683984D01*
X44689453Y-80827245D01*
X44760025Y-80959275D01*
X44809383Y-81019417D01*
X44854999Y-81075000D01*
X44883997Y-81098798D01*
X45121312Y-81336113D01*
X45085000Y-81518665D01*
X45085000Y-81690198D01*
X40298688Y-76903887D01*
X40335000Y-76721335D01*
X40335000Y-76438665D01*
X40279853Y-76161426D01*
X40171680Y-75900273D01*
X40014637Y-75665241D01*
X39814759Y-75465363D01*
X39582241Y-75310000D01*
X39814759Y-75154637D01*
X40014637Y-74954759D01*
X40171680Y-74719727D01*
X40279853Y-74458574D01*
X40335000Y-74181335D01*
X40335000Y-73898665D01*
X40279853Y-73621426D01*
X40171680Y-73360273D01*
X40014637Y-73125241D01*
X39816039Y-72926643D01*
X39824482Y-72925812D01*
X39944180Y-72889502D01*
X40054494Y-72830537D01*
X40151185Y-72751185D01*
X40230537Y-72654494D01*
X40289502Y-72544180D01*
X40325812Y-72424482D01*
X40338072Y-72300000D01*
X40335000Y-71681750D01*
X40176250Y-71523000D01*
X38923000Y-71523000D01*
X38923000Y-71543000D01*
X38877000Y-71543000D01*
X38877000Y-71523000D01*
X38857000Y-71523000D01*
X38857000Y-71477000D01*
X38877000Y-71477000D01*
X38877000Y-71457000D01*
X38923000Y-71457000D01*
X38923000Y-71477000D01*
X40176250Y-71477000D01*
X40335000Y-71318250D01*
X40335911Y-71134999D01*
X45080198Y-71134999D01*
X45121312Y-71176113D01*
G36*
X73245241Y-60614637D02*
G01*
X73480273Y-60771680D01*
X73741426Y-60879853D01*
X74018665Y-60935000D01*
X74301335Y-60935000D01*
X74578574Y-60879853D01*
X74839727Y-60771680D01*
X75074759Y-60614637D01*
X75115000Y-60574396D01*
X75115000Y-61810198D01*
X74960198Y-61965000D01*
X74898061Y-61965000D01*
X74698102Y-62004774D01*
X74509744Y-62082795D01*
X74340226Y-62196063D01*
X74196063Y-62340226D01*
X74082795Y-62509744D01*
X74032327Y-62631584D01*
X74033554Y-62627172D01*
X73896067Y-62403000D01*
X72643000Y-62403000D01*
X72643000Y-62423000D01*
X72597000Y-62423000D01*
X72597000Y-62403000D01*
X72577000Y-62403000D01*
X72577000Y-62357000D01*
X72597000Y-62357000D01*
X72597000Y-61103957D01*
X72643000Y-61103957D01*
X72643000Y-62357000D01*
X73896067Y-62357000D01*
X74033554Y-62132828D01*
X73958172Y-61861807D01*
X73831365Y-61610700D01*
X73658006Y-61389156D01*
X73444757Y-61205690D01*
X73199813Y-61067352D01*
X72932587Y-60979458D01*
X72867172Y-60966447D01*
X72643000Y-61103957D01*
X72597000Y-61103957D01*
X72494016Y-61040785D01*
X73082703Y-60452099D01*
X73245241Y-60614637D01*
G37*
X73245241Y-60614637D02*
X73480273Y-60771680D01*
X73741426Y-60879853D01*
X74018665Y-60935000D01*
X74301335Y-60935000D01*
X74578574Y-60879853D01*
X74839727Y-60771680D01*
X75074759Y-60614637D01*
X75115000Y-60574396D01*
X75115000Y-61810198D01*
X74960198Y-61965000D01*
X74898061Y-61965000D01*
X74698102Y-62004774D01*
X74509744Y-62082795D01*
X74340226Y-62196063D01*
X74196063Y-62340226D01*
X74082795Y-62509744D01*
X74032327Y-62631584D01*
X74033554Y-62627172D01*
X73896067Y-62403000D01*
X72643000Y-62403000D01*
X72643000Y-62423000D01*
X72597000Y-62423000D01*
X72597000Y-62403000D01*
X72577000Y-62403000D01*
X72577000Y-62357000D01*
X72597000Y-62357000D01*
X72597000Y-61103957D01*
X72643000Y-61103957D01*
X72643000Y-62357000D01*
X73896067Y-62357000D01*
X74033554Y-62132828D01*
X73958172Y-61861807D01*
X73831365Y-61610700D01*
X73658006Y-61389156D01*
X73444757Y-61205690D01*
X73199813Y-61067352D01*
X72932587Y-60979458D01*
X72867172Y-60966447D01*
X72643000Y-61103957D01*
X72597000Y-61103957D01*
X72494016Y-61040785D01*
X73082703Y-60452099D01*
X73245241Y-60614637D01*
%TD*%
M02*
