%TF.GenerationSoftware,KiCad,Pcbnew,(5.1.6)-1*%
%TF.CreationDate,2020-09-03T17:42:13-04:00*%
%TF.ProjectId,GalvoDriver,47616c76-6f44-4726-9976-65722e6b6963,rev?*%
%TF.SameCoordinates,Original*%
%TF.FileFunction,Soldermask,Bot*%
%TF.FilePolarity,Negative*%
%FSLAX46Y46*%
G04 Gerber Fmt 4.6, Leading zero omitted, Abs format (unit mm)*
G04 Created by KiCad (PCBNEW (5.1.6)-1) date 2020-09-03 17:42:13*
%MOMM*%
%LPD*%
G01*
G04 APERTURE LIST*
%ADD10C,3.300000*%
%ADD11C,1.700000*%
%ADD12O,1.700000X1.700000*%
%ADD13C,1.540000*%
%ADD14R,1.700000X1.700000*%
%ADD15R,1.800000X1.800000*%
%ADD16O,1.800000X1.800000*%
%ADD17O,1.900000X2.900000*%
%ADD18C,1.850000*%
%ADD19R,1.850000X1.850000*%
%ADD20C,2.600000*%
%ADD21R,2.600000X2.600000*%
%ADD22R,1.620000X1.620000*%
%ADD23C,1.620000*%
G04 APERTURE END LIST*
D10*
%TO.C,REF\u002A\u002A*%
X86400000Y-37900000D03*
%TD*%
%TO.C,REF\u002A\u002A*%
X36100000Y-93400000D03*
%TD*%
D11*
%TO.C,C1*%
X61000000Y-88500000D03*
X61000000Y-91000000D03*
%TD*%
D12*
%TO.C,R1*%
X74160000Y-59500000D03*
D11*
X64000000Y-59500000D03*
%TD*%
%TO.C,R2*%
X61500000Y-55000000D03*
D12*
X61500000Y-65160000D03*
%TD*%
D11*
%TO.C,R3*%
X74000000Y-56500000D03*
D12*
X63840000Y-56500000D03*
%TD*%
%TO.C,R4*%
X77000000Y-66160000D03*
D11*
X77000000Y-56000000D03*
%TD*%
D12*
%TO.C,R5*%
X74160000Y-87000000D03*
D11*
X64000000Y-87000000D03*
%TD*%
%TO.C,R6*%
X61500000Y-68500000D03*
D12*
X61500000Y-78660000D03*
%TD*%
D11*
%TO.C,R7*%
X74000000Y-84000000D03*
D12*
X63840000Y-84000000D03*
%TD*%
%TO.C,R8*%
X77000000Y-76840000D03*
D11*
X77000000Y-87000000D03*
%TD*%
D13*
%TO.C,RV1*%
X65420000Y-50500000D03*
X67960000Y-50500000D03*
X70500000Y-50500000D03*
%TD*%
%TO.C,RV2*%
X80500000Y-50500000D03*
X77960000Y-50500000D03*
X75420000Y-50500000D03*
%TD*%
%TO.C,RV3*%
X70500000Y-93000000D03*
X67960000Y-93000000D03*
X65420000Y-93000000D03*
%TD*%
%TO.C,RV4*%
X75420000Y-93000000D03*
X77960000Y-93000000D03*
X80500000Y-93000000D03*
%TD*%
D12*
%TO.C,U1*%
X65000000Y-62380000D03*
X72620000Y-70000000D03*
X67540000Y-62380000D03*
X70080000Y-70000000D03*
X70080000Y-62380000D03*
X67540000Y-70000000D03*
X72620000Y-62380000D03*
D14*
X65000000Y-70000000D03*
%TD*%
D12*
%TO.C,U2*%
X57500000Y-93620000D03*
X49880000Y-86000000D03*
X54960000Y-93620000D03*
X52420000Y-86000000D03*
X52420000Y-93620000D03*
X54960000Y-86000000D03*
X49880000Y-93620000D03*
D14*
X57500000Y-86000000D03*
%TD*%
%TO.C,U3*%
X65000000Y-81000000D03*
D12*
X72620000Y-73380000D03*
X67540000Y-81000000D03*
X70080000Y-73380000D03*
X70080000Y-81000000D03*
X67540000Y-73380000D03*
X72620000Y-81000000D03*
X65000000Y-73380000D03*
%TD*%
D15*
%TO.C,J4*%
X58000000Y-59000000D03*
D16*
X55460000Y-59000000D03*
X52920000Y-59000000D03*
%TD*%
%TO.C,J5*%
X52460000Y-74500000D03*
X55000000Y-74500000D03*
D15*
X57540000Y-74500000D03*
%TD*%
D17*
%TO.C,J6*%
X38500000Y-65200000D03*
X40900000Y-63200000D03*
X46400000Y-63200000D03*
%TD*%
D12*
%TO.C,R9*%
X50000000Y-58860000D03*
D11*
X50000000Y-48700000D03*
%TD*%
%TO.C,R10*%
X49500000Y-83000000D03*
D12*
X49500000Y-72840000D03*
%TD*%
D18*
%TO.C,J2*%
X85500000Y-64000000D03*
X85500000Y-61500000D03*
D19*
X85500000Y-59000000D03*
%TD*%
%TO.C,J7*%
X85500000Y-80000000D03*
D18*
X85500000Y-82500000D03*
X85500000Y-85000000D03*
%TD*%
D20*
%TO.C,J1*%
X40200000Y-52700000D03*
D21*
X40200000Y-47700000D03*
D20*
X40200000Y-57700000D03*
%TD*%
%TO.C,J8*%
X75200000Y-40100000D03*
D21*
X80200000Y-40100000D03*
D20*
X70200000Y-40100000D03*
X65200000Y-40100000D03*
%TD*%
D12*
%TO.C,R11*%
X43140000Y-42900000D03*
D11*
X53300000Y-42900000D03*
%TD*%
D16*
%TO.C,J3*%
X35400000Y-86760000D03*
X35400000Y-84220000D03*
X35400000Y-81680000D03*
X35400000Y-79140000D03*
D15*
X35400000Y-76600000D03*
%TD*%
D22*
%TO.C,Q1*%
X56000000Y-42800000D03*
D23*
X61080000Y-42800000D03*
X58540000Y-42800000D03*
%TD*%
D12*
%TO.C,U4*%
X46520000Y-71500000D03*
X38900000Y-86740000D03*
X46520000Y-74040000D03*
X38900000Y-84200000D03*
X46520000Y-76580000D03*
X38900000Y-81660000D03*
X46520000Y-79120000D03*
X38900000Y-79120000D03*
X46520000Y-81660000D03*
X38900000Y-76580000D03*
X46520000Y-84200000D03*
X38900000Y-74040000D03*
X46520000Y-86740000D03*
D14*
X38900000Y-71500000D03*
%TD*%
D11*
%TO.C,C2*%
X54900000Y-71200000D03*
X52400000Y-71200000D03*
%TD*%
M02*
