M48
; DRILL file {KiCad (5.1.6)-1} date 07/07/20 17:24:30
; FORMAT={-:-/ absolute / metric / decimal}
; #@! TF.CreationDate,2020-07-07T17:24:30-04:00
; #@! TF.GenerationSoftware,Kicad,Pcbnew,(5.1.6)-1
FMAT,2
METRIC
T1C0.400
T2C0.600
T3C0.800
T4C1.000
T5C1.300
T6C3.200
%
G90
G05
T1
X58.0Y-88.0
X61.0Y-85.0
X61.5Y-62.0
X64.5Y-64.5
X75.0Y-63.0
X75.0Y-65.5
T2
X57.6Y-42.8
X58.87Y-42.8
X60.14Y-42.8
T3
X64.0Y-59.5
X74.16Y-59.5
X63.84Y-56.5
X74.0Y-56.5
X61.0Y-88.5
X61.0Y-91.0
X49.5Y-72.84
X49.5Y-83.0
X64.0Y-87.0
X74.16Y-87.0
X65.0Y-62.38
X65.0Y-70.0
X67.54Y-62.38
X67.54Y-70.0
X70.08Y-62.38
X70.08Y-70.0
X72.62Y-62.38
X72.62Y-70.0
X75.42Y-50.5
X77.96Y-50.5
X80.5Y-50.5
X77.0Y-56.0
X77.0Y-66.16
X49.88Y-86.0
X49.88Y-93.62
X52.42Y-86.0
X52.42Y-93.62
X54.96Y-86.0
X54.96Y-93.62
X57.5Y-86.0
X57.5Y-93.62
X63.84Y-84.0
X74.0Y-84.0
X65.0Y-73.38
X65.0Y-81.0
X67.54Y-73.38
X67.54Y-81.0
X70.08Y-73.38
X70.08Y-81.0
X72.62Y-73.38
X72.62Y-81.0
X61.5Y-55.0
X61.5Y-65.16
X65.42Y-93.0
X67.96Y-93.0
X70.5Y-93.0
X65.42Y-50.5
X67.96Y-50.5
X70.5Y-50.5
X75.42Y-93.0
X77.96Y-93.0
X80.5Y-93.0
X77.0Y-76.84
X77.0Y-87.0
X43.94Y-44.8
X54.1Y-44.8
X61.5Y-68.5
X61.5Y-78.66
X50.0Y-51.0
X50.0Y-61.16
T4
X85.5Y-59.0
X85.5Y-61.5
X85.5Y-64.0
X46.0Y-74.0
X46.0Y-76.54
X46.0Y-79.08
X46.0Y-81.62
X46.0Y-84.16
X46.0Y-86.7
X46.0Y-89.24
X85.5Y-80.0
X85.5Y-82.5
X85.5Y-85.0
X52.46Y-74.5
X55.0Y-74.5
X57.54Y-74.5
X52.92Y-59.0
X55.46Y-59.0
X58.0Y-59.0
T5
X65.2Y-40.1
X70.2Y-40.1
X75.2Y-40.1
X80.2Y-40.1
X41.3Y-49.5
X41.3Y-54.5
X41.3Y-59.5
T6
X39.4Y-93.4
X86.4Y-37.9
T4
G00X44.0Y-67.5
M15
G01X44.0Y-66.5
M16
G05
G00X46.4Y-65.5
M15
G01X46.4Y-64.5
M16
G05
G00X51.9Y-65.5
M15
G01X51.9Y-64.5
M16
G05
T0
M30
